<?xml version="1.0" encoding="UTF-8"?>
<svg xmlns="http://www.w3.org/2000/svg" xmlns:xlink="http://www.w3.org/1999/xlink" width="555pt" height="555pt" viewBox="0 0 555 555" version="1.1">
<defs>
<clipPath id="clip1">
  <path d="M 28 535 L 36.074219 535 L 36.074219 537 L 28 537 Z M 28 535 "/>
</clipPath>
</defs>
<g id="surface1">
<rect x="0" y="0" width="555" height="555" style="fill:rgb(100%,100%,100%);fill-opacity:1;stroke:none;"/>
<path style="fill:none;stroke-width:20.8125;stroke-linecap:butt;stroke-linejoin:round;stroke:rgb(0%,0%,0%);stroke-opacity:1;stroke-miterlimit:10;" d="M 5418.085938 201.171875 L 5418.085938 5355.507812 " transform="matrix(0.1,0,0,-0.1,0,555)"/>
<path style="fill:none;stroke-width:20.8125;stroke-linecap:butt;stroke-linejoin:round;stroke:rgb(0%,0%,0%);stroke-opacity:1;stroke-miterlimit:10;" d="M 582.734375 1060.234375 L 5418.085938 1060.234375 " transform="matrix(0.1,0,0,-0.1,0,555)"/>
<path style="fill:none;stroke-width:20.8125;stroke-linecap:butt;stroke-linejoin:round;stroke:rgb(0%,0%,0%);stroke-opacity:1;stroke-miterlimit:10;" d="M 3483.945312 544.804688 L 3483.945312 2606.523438 " transform="matrix(0.1,0,0,-0.1,0,555)"/>
<path style="fill:none;stroke-width:27.75;stroke-linecap:butt;stroke-linejoin:round;stroke:rgb(0%,0%,0%);stroke-opacity:1;stroke-miterlimit:10;" d="M 3483.945312 544.804688 L 5418.085938 201.171875 " transform="matrix(0.1,0,0,-0.1,0,555)"/>
<path style="fill:none;stroke-width:27.75;stroke-linecap:butt;stroke-linejoin:round;stroke:rgb(0%,0%,0%);stroke-opacity:1;stroke-miterlimit:10;" d="M 3483.945312 2606.523438 L 3494.140625 2617.382812 L 3502.96875 2626.875 L 3512.890625 2637.578125 L 3522.929688 2648.398438 L 3532.890625 2659.140625 L 3542.148438 2669.179688 L 3551.71875 2679.609375 L 3571.484375 2701.25 L 3581.640625 2712.421875 L 3590.585938 2722.265625 L 3600.625 2733.4375 L 3610.742188 2744.648438 L 3620.46875 2755.46875 L 3629.296875 2765.351562 L 3639.84375 2777.148438 L 3648.75 2787.1875 L 3659.101562 2798.867188 L 3668.242188 2809.257812 L 3678.320312 2820.664062 L 3687.890625 2831.5625 L 3697.890625 2843.007812 L 3707.070312 2853.515625 L 3716.992188 2864.921875 L 3727.265625 2876.796875 L 3736.210938 2887.148438 L 3745.898438 2898.359375 L 3755.898438 2910 L 3765.664062 2921.40625 L 3775.117188 2932.460938 L 3785.625 2944.804688 L 3795.039062 2955.9375 L 3805.117188 2967.851562 L 3814.257812 2978.671875 L 3824.21875 2990.546875 L 3833.632812 3001.71875 L 3843.4375 3013.476562 L 3853.046875 3024.960938 L 3863.085938 3037.070312 L 3872.734375 3048.75 L 3882.65625 3060.742188 L 3892.460938 3072.65625 L 3901.484375 3083.632812 L 3911.796875 3096.25 L 3921.054688 3107.578125 L 3930.898438 3119.6875 L 3940.351562 3131.289062 L 3950.820312 3144.257812 L 3959.882812 3155.46875 L 3970.195312 3168.28125 L 3979.570312 3179.960938 L 3989.804688 3192.773438 L 3998.671875 3203.90625 L 4008.789062 3216.5625 L 4018.515625 3228.828125 L 4028.242188 3241.132812 L 4037.929688 3253.4375 L 4047.265625 3265.273438 L 4057.34375 3278.125 L 4066.914062 3290.390625 L 4077.03125 3303.359375 L 4086.171875 3315.117188 L 4096.289062 3328.125 L 4105.976562 3340.664062 L 4115.625 3353.164062 L 4125.703125 3366.289062 L 4135 3378.398438 L 4144.53125 3390.859375 L 4155.039062 3404.609375 L 4164.53125 3417.109375 L 4174.257812 3429.921875 L 4184.140625 3443.007812 L 4193.242188 3455.039062 L 4202.96875 3467.929688 L 4212.578125 3480.742188 L 4222.851562 3494.492188 L 4231.953125 3506.640625 L 4242.421875 3520.703125 L 4251.875 3533.4375 L 4261.210938 3546.054688 L 4271.289062 3559.6875 L 4281.367188 3573.398438 L 4290.585938 3585.898438 L 4300.351562 3599.21875 L 4309.882812 3612.265625 L 4320.195312 3626.40625 L 4329.140625 3638.671875 L 4339.375 3652.8125 L 4349.023438 3666.132812 L 4358.59375 3679.375 L 4368.125 3692.65625 L 4377.890625 3706.25 L 4388.242188 3720.664062 L 4397.695312 3733.945312 L 4407.070312 3747.070312 L 4417.03125 3761.132812 L 4427.03125 3775.234375 L 4435.976562 3787.890625 L 4446.601562 3802.929688 L 4455.46875 3815.546875 L 4465.859375 3830.3125 L 4475.78125 3844.492188 L 4484.609375 3857.1875 L 4494.570312 3871.445312 L 4504.609375 3885.859375 L 4514.53125 3900.234375 L 4523.789062 3913.59375 L 4533.359375 3927.460938 L 4543.242188 3941.875 L 4553.125 3956.25 L 4563.28125 3971.054688 L 4572.226562 3984.140625 L 4582.265625 3998.945312 L 4592.382812 4013.789062 L 4602.109375 4028.164062 L 4610.9375 4041.210938 L 4621.484375 4056.796875 L 4630.390625 4070.039062 L 4640.742188 4085.46875 L 4649.921875 4099.140625 L 4659.960938 4114.21875 L 4669.53125 4128.554688 L 4679.53125 4143.59375 L 4688.75 4157.421875 L 4698.632812 4172.382812 L 4708.945312 4187.96875 L 4717.890625 4201.5625 L 4727.539062 4216.289062 L 4737.539062 4231.484375 L 4747.304688 4246.445312 L 4756.757812 4260.9375 L 4767.265625 4277.03125 L 4776.679688 4291.5625 L 4786.796875 4307.109375 L 4795.898438 4321.210938 L 4805.898438 4336.679688 L 4815.273438 4351.289062 L 4825.078125 4366.5625 L 4834.6875 4381.523438 L 4844.726562 4397.226562 L 4854.414062 4412.421875 L 4864.296875 4427.96875 L 4874.101562 4443.398438 L 4883.125 4457.65625 L 4893.476562 4473.984375 L 4902.695312 4488.632812 L 4912.539062 4504.296875 L 4921.992188 4519.335938 L 4932.460938 4536.054688 L 4941.523438 4550.546875 L 4951.835938 4567.070312 L 4961.210938 4582.148438 L 4971.484375 4598.671875 L 4980.3125 4612.96875 L 4990.390625 4629.296875 L 5000.15625 4645.078125 L 5009.882812 4660.898438 L 5019.609375 4676.679688 L 5028.90625 4691.875 L 5038.984375 4708.359375 L 5048.554688 4724.101562 L 5058.671875 4740.703125 L 5067.8125 4755.742188 L 5077.929688 4772.421875 L 5087.617188 4788.4375 L 5097.265625 4804.414062 L 5107.34375 4821.171875 L 5116.640625 4836.640625 L 5126.171875 4852.539062 L 5136.679688 4870.078125 L 5146.171875 4886.015625 L 5155.898438 4902.34375 L 5165.78125 4918.984375 L 5174.882812 4934.296875 L 5184.609375 4950.664062 L 5194.21875 4966.953125 L 5204.492188 4984.414062 L 5213.59375 4999.84375 L 5224.0625 5017.695312 L 5233.515625 5033.828125 L 5242.890625 5049.84375 L 5252.929688 5067.109375 L 5263.046875 5084.453125 L 5272.226562 5100.273438 L 5281.992188 5117.109375 L 5291.523438 5133.554688 L 5301.835938 5151.445312 L 5310.78125 5166.953125 L 5321.054688 5184.804688 L 5330.664062 5201.601562 L 5340.234375 5218.28125 L 5349.804688 5235 L 5359.53125 5252.109375 L 5369.882812 5270.273438 L 5379.335938 5286.953125 L 5388.710938 5303.4375 L 5398.710938 5321.132812 L 5408.671875 5338.789062 L 5418.085938 5355.507812 " transform="matrix(0.1,0,0,-0.1,0,555)"/>
<path style="fill:none;stroke-width:27.75;stroke-linecap:butt;stroke-linejoin:round;stroke:rgb(0%,0%,100%);stroke-opacity:1;stroke-miterlimit:10;" d="M 3483.945312 1403.867188 L 5418.085938 1403.867188 " transform="matrix(0.1,0,0,-0.1,0,555)"/>
<path style="fill:none;stroke-width:27.75;stroke-linecap:butt;stroke-linejoin:round;stroke:rgb(0%,0%,100%);stroke-opacity:1;stroke-miterlimit:10;" d="M 4328.164062 3637.382812 L 5418.085938 3637.382812 " transform="matrix(0.1,0,0,-0.1,0,555)"/>
<path style="fill:none;stroke-width:27.75;stroke-linecap:butt;stroke-linejoin:round;stroke:rgb(0%,0%,100%);stroke-opacity:1;stroke-miterlimit:10;" d="M 4451.015625 373.007812 L 5418.085938 373.007812 " transform="matrix(0.1,0,0,-0.1,0,555)"/>
<path style=" stroke:none;fill-rule:nonzero;fill:rgb(0%,0%,0%);fill-opacity:1;" d="M 511.898438 97.296875 L 512.050781 96.777344 L 517.925781 96.777344 C 520.414062 96.777344 522.253906 97.0625 523.445312 97.632812 C 524.636719 98.203125 525.589844 99.105469 526.308594 100.335938 C 527.019531 101.5625 527.378906 102.871094 527.378906 104.257812 C 527.378906 105.472656 527.175781 106.640625 526.761719 107.769531 C 526.351562 108.898438 525.882812 109.804688 525.363281 110.492188 C 524.84375 111.175781 524.046875 111.933594 522.96875 112.757812 C 521.890625 113.578125 520.726562 114.1875 519.476562 114.578125 C 518.226562 114.96875 516.660156 115.160156 514.78125 115.160156 L 507 115.160156 L 507.175781 114.664062 C 507.882812 114.648438 508.359375 114.585938 508.605469 114.46875 C 508.964844 114.308594 509.234375 114.101562 509.40625 113.839844 C 509.667969 113.464844 509.964844 112.703125 510.296875 111.5625 L 513.546875 100.441406 C 513.792969 99.574219 513.914062 98.886719 513.914062 98.382812 C 513.914062 98.035156 513.800781 97.769531 513.570312 97.578125 C 513.339844 97.390625 512.875 97.296875 512.183594 97.296875 Z M 516.691406 97.796875 L 512.722656 111.5625 C 512.421875 112.589844 512.269531 113.226562 512.269531 113.472656 C 512.269531 113.617188 512.316406 113.757812 512.410156 113.894531 C 512.503906 114.03125 512.628906 114.121094 512.789062 114.164062 C 513.035156 114.238281 513.417969 114.273438 513.9375 114.273438 C 515.355469 114.273438 516.671875 114.128906 517.882812 113.839844 C 519.097656 113.550781 520.09375 113.117188 520.875 112.539062 C 521.972656 111.699219 522.851562 110.546875 523.507812 109.070312 C 524.167969 107.597656 524.496094 105.921875 524.496094 104.039062 C 524.496094 101.914062 523.992188 100.335938 522.976562 99.304688 C 521.964844 98.269531 520.492188 97.753906 518.554688 97.753906 C 518.078125 97.753906 517.457031 97.769531 516.691406 97.796875 "/>
<path style="fill:none;stroke-width:13.875;stroke-linecap:butt;stroke-linejoin:round;stroke:rgb(0%,0%,0%);stroke-opacity:1;stroke-miterlimit:10;" d="M 582.734375 1060.234375 L 5418.085938 1060.234375 " transform="matrix(0.1,0,0,-0.1,0,555)"/>
<path style=" stroke:none;fill-rule:nonzero;fill:rgb(0%,0%,0%);fill-opacity:1;" d="M 299.136719 491.695312 C 299.46875 492.042969 299.722656 492.394531 299.894531 492.757812 C 300.023438 492.988281 300.226562 493.625 300.503906 494.664062 L 301.390625 493.320312 C 301.621094 493.003906 301.90625 492.695312 302.246094 492.398438 C 302.585938 492.101562 302.886719 491.898438 303.144531 491.78125 C 303.304688 491.722656 303.484375 491.695312 303.6875 491.695312 C 303.976562 491.695312 304.210938 491.769531 304.382812 491.921875 C 304.554688 492.074219 304.640625 492.265625 304.640625 492.496094 C 304.640625 492.757812 304.59375 492.929688 304.492188 493.019531 C 304.300781 493.191406 304.085938 493.277344 303.839844 493.277344 C 303.695312 493.277344 303.542969 493.246094 303.386719 493.191406 C 303.066406 493.074219 302.851562 493.019531 302.734375 493.019531 C 302.574219 493.019531 302.386719 493.109375 302.171875 493.300781 C 301.753906 493.660156 301.246094 494.347656 300.652344 495.359375 L 301.496094 498.847656 C 301.628906 499.382812 301.738281 499.703125 301.824219 499.800781 C 301.910156 499.902344 301.996094 499.957031 302.085938 499.957031 C 302.226562 499.957031 302.394531 499.882812 302.582031 499.738281 C 302.960938 499.417969 303.277344 499.007812 303.535156 498.503906 L 303.882812 498.695312 C 303.464844 499.492188 302.921875 500.15625 302.257812 500.691406 C 301.894531 500.980469 301.585938 501.125 301.324219 501.125 C 300.933594 501.125 300.632812 500.914062 300.414062 500.496094 C 300.269531 500.222656 299.972656 499.078125 299.527344 497.070312 C 298.472656 498.90625 297.625 500.09375 296.988281 500.625 C 296.570312 500.960938 296.171875 501.125 295.796875 501.125 C 295.523438 501.125 295.269531 501.03125 295.039062 500.84375 C 294.878906 500.683594 294.800781 500.480469 294.800781 500.238281 C 294.800781 500.019531 294.875 499.835938 295.027344 499.683594 C 295.179688 499.53125 295.363281 499.457031 295.578125 499.457031 C 295.796875 499.457031 296.027344 499.5625 296.273438 499.78125 C 296.449219 499.941406 296.585938 500.019531 296.6875 500.019531 C 296.757812 500.019531 296.859375 499.960938 296.988281 499.847656 C 297.308594 499.585938 297.742188 499.03125 298.289062 498.175781 C 298.839844 497.324219 299.199219 496.710938 299.375 496.332031 C 298.953125 494.6875 298.722656 493.820312 298.679688 493.730469 C 298.535156 493.285156 298.339844 492.96875 298.085938 492.789062 C 297.832031 492.609375 297.460938 492.519531 296.96875 492.519531 C 296.808594 492.519531 296.628906 492.527344 296.425781 492.539062 L 296.425781 492.171875 L 299.136719 491.695312 "/>
<path style="fill:none;stroke-width:1.2;stroke-linecap:butt;stroke-linejoin:round;stroke:rgb(0%,0%,0%);stroke-opacity:1;stroke-miterlimit:10;" d="M 582.734375 1060.234375 L 582.734375 1004.765625 " transform="matrix(0.1,0,0,-0.1,0,555)"/>
<path style="fill:none;stroke-width:1.2;stroke-linecap:butt;stroke-linejoin:round;stroke:rgb(0%,0%,0%);stroke-opacity:1;stroke-miterlimit:10;" d="M 1549.804688 1060.234375 L 1549.804688 1004.765625 " transform="matrix(0.1,0,0,-0.1,0,555)"/>
<path style=" stroke:none;fill-rule:nonzero;fill:rgb(0%,0%,0%);fill-opacity:1;" d="M 152.300781 463.488281 L 155.636719 461.84375 L 155.984375 461.84375 L 155.984375 473.484375 C 155.984375 474.25 156.019531 474.730469 156.082031 474.925781 C 156.148438 475.121094 156.28125 475.269531 156.484375 475.371094 C 156.6875 475.472656 157.097656 475.53125 157.71875 475.542969 L 157.71875 475.914062 L 152.539062 475.914062 L 152.539062 475.542969 C 153.1875 475.53125 153.605469 475.472656 153.796875 475.371094 C 153.984375 475.269531 154.113281 475.136719 154.1875 474.96875 C 154.257812 474.800781 154.292969 474.308594 154.292969 473.484375 L 154.292969 466.046875 C 154.292969 465.035156 154.265625 464.390625 154.207031 464.117188 C 154.148438 463.902344 154.058594 463.742188 153.9375 463.640625 C 153.8125 463.539062 153.664062 463.488281 153.492188 463.488281 C 153.230469 463.488281 152.882812 463.589844 152.453125 463.792969 L 152.300781 463.488281 "/>
<path style="fill:none;stroke-width:1.2;stroke-linecap:butt;stroke-linejoin:round;stroke:rgb(0%,0%,0%);stroke-opacity:1;stroke-miterlimit:10;" d="M 2516.875 1060.234375 L 2516.875 1004.765625 " transform="matrix(0.1,0,0,-0.1,0,555)"/>
<path style=" stroke:none;fill-rule:nonzero;fill:rgb(0%,0%,0%);fill-opacity:1;" d="M 256.515625 473.265625 L 255.558594 475.914062 L 247.429688 475.914062 L 247.429688 475.542969 C 249.8125 473.359375 251.492188 471.578125 252.46875 470.1875 C 253.445312 468.800781 253.933594 467.535156 253.933594 466.394531 C 253.933594 465.527344 253.664062 464.8125 253.132812 464.246094 C 252.597656 463.683594 251.953125 463.402344 251.199219 463.402344 C 250.535156 463.402344 249.933594 463.601562 249.390625 464 C 248.851562 464.394531 248.449219 464.976562 248.1875 465.742188 L 247.820312 465.742188 C 247.992188 464.484375 248.429688 463.523438 249.132812 462.847656 C 249.832031 462.175781 250.703125 461.84375 251.742188 461.84375 C 252.871094 461.84375 253.808594 462.203125 254.550781 462.925781 C 255.296875 463.648438 255.667969 464.492188 255.667969 465.460938 C 255.667969 466.15625 255.507812 466.859375 255.191406 467.566406 C 254.6875 468.664062 253.867188 469.820312 252.742188 471.035156 C 251.0625 472.882812 250.007812 473.996094 249.578125 474.371094 L 253.175781 474.371094 C 253.914062 474.371094 254.429688 474.347656 254.722656 474.296875 C 255.019531 474.246094 255.289062 474.136719 255.527344 473.972656 C 255.765625 473.804688 255.972656 473.570312 256.144531 473.265625 L 256.515625 473.265625 "/>
<path style="fill:none;stroke-width:1.2;stroke-linecap:butt;stroke-linejoin:round;stroke:rgb(0%,0%,0%);stroke-opacity:1;stroke-miterlimit:10;" d="M 3483.945312 1060.234375 L 3483.945312 1004.765625 " transform="matrix(0.1,0,0,-0.1,0,555)"/>
<path style=" stroke:none;fill-rule:nonzero;fill:rgb(0%,0%,0%);fill-opacity:1;" d="M 345.160156 464.746094 C 345.550781 463.820312 346.046875 463.105469 346.644531 462.601562 C 347.246094 462.09375 347.996094 461.84375 348.890625 461.84375 C 349.988281 461.84375 350.835938 462.203125 351.425781 462.925781 C 351.875 463.460938 352.097656 464.03125 352.097656 464.640625 C 352.097656 465.652344 351.46875 466.691406 350.214844 467.761719 C 351.050781 468.09375 351.6875 468.566406 352.121094 469.179688 C 352.554688 469.792969 352.773438 470.519531 352.773438 471.359375 C 352.773438 472.542969 352.394531 473.570312 351.644531 474.4375 C 350.644531 475.578125 349.214844 476.148438 347.351562 476.148438 C 346.410156 476.148438 345.777344 476.035156 345.441406 475.800781 C 345.109375 475.574219 344.945312 475.328125 344.945312 475.066406 C 344.945312 474.863281 345.023438 474.691406 345.183594 474.546875 C 345.34375 474.402344 345.53125 474.328125 345.746094 474.328125 C 345.921875 474.328125 346.09375 474.359375 346.265625 474.414062 C 346.382812 474.445312 346.644531 474.5625 347.058594 474.773438 C 347.46875 474.984375 347.75 475.109375 347.894531 475.152344 C 348.152344 475.226562 348.421875 475.261719 348.695312 475.261719 C 349.390625 475.261719 349.992188 474.992188 350.507812 474.460938 C 351.019531 473.925781 351.273438 473.296875 351.273438 472.574219 C 351.273438 472.039062 351.160156 471.519531 350.929688 471.011719 C 350.742188 470.621094 350.546875 470.332031 350.34375 470.144531 C 350.054688 469.871094 349.652344 469.625 349.140625 469.40625 C 348.628906 469.191406 348.109375 469.082031 347.589844 469.082031 L 347.265625 469.082031 L 347.265625 468.757812 C 347.800781 468.699219 348.335938 468.511719 348.867188 468.195312 C 349.402344 467.875 349.792969 467.492188 350.039062 467.042969 C 350.285156 466.597656 350.40625 466.105469 350.40625 465.570312 C 350.40625 464.875 350.191406 464.3125 349.757812 463.878906 C 349.324219 463.445312 348.78125 463.230469 348.132812 463.230469 C 347.074219 463.230469 346.195312 463.792969 345.488281 464.921875 L 345.160156 464.746094 "/>
<path style="fill:none;stroke-width:1.2;stroke-linecap:butt;stroke-linejoin:round;stroke:rgb(0%,0%,0%);stroke-opacity:1;stroke-miterlimit:10;" d="M 4451.015625 1060.234375 L 4451.015625 1004.765625 " transform="matrix(0.1,0,0,-0.1,0,555)"/>
<path style=" stroke:none;fill-rule:nonzero;fill:rgb(0%,0%,0%);fill-opacity:1;" d="M 449.527344 470.839844 L 449.527344 472.269531 L 447.664062 472.269531 L 447.664062 475.914062 L 445.992188 475.914062 L 445.992188 472.269531 L 440.160156 472.269531 L 440.160156 470.96875 L 446.558594 461.84375 L 447.664062 461.84375 L 447.664062 470.839844 Z M 445.992188 470.839844 L 445.992188 463.988281 L 441.160156 470.839844 L 445.992188 470.839844 "/>
<path style="fill:none;stroke-width:1.2;stroke-linecap:butt;stroke-linejoin:round;stroke:rgb(0%,0%,0%);stroke-opacity:1;stroke-miterlimit:10;" d="M 5418.085938 1060.234375 L 5418.085938 1004.765625 " transform="matrix(0.1,0,0,-0.1,0,555)"/>
<path style=" stroke:none;fill-rule:nonzero;fill:rgb(0%,0%,0%);fill-opacity:1;" d="M 546.003906 462.125 L 545.199219 463.859375 L 541.058594 463.859375 L 540.148438 465.699219 C 541.941406 465.976562 543.363281 466.648438 544.421875 467.714844 C 545.316406 468.628906 545.761719 469.710938 545.761719 470.96875 C 545.761719 471.691406 545.617188 472.359375 545.328125 472.972656 C 545.039062 473.589844 544.671875 474.113281 544.226562 474.546875 C 543.777344 474.980469 543.277344 475.328125 542.730469 475.585938 C 541.949219 475.960938 541.144531 476.148438 540.320312 476.148438 C 539.5 476.148438 538.898438 476.011719 538.523438 475.726562 C 538.148438 475.445312 537.960938 475.136719 537.960938 474.804688 C 537.960938 474.617188 538.039062 474.453125 538.195312 474.308594 C 538.355469 474.164062 538.550781 474.089844 538.78125 474.089844 C 538.957031 474.089844 539.105469 474.117188 539.238281 474.167969 C 539.367188 474.21875 539.59375 474.359375 539.910156 474.589844 C 540.429688 474.933594 540.953125 475.109375 541.472656 475.109375 C 542.265625 475.109375 542.960938 474.808594 543.554688 474.210938 C 544.144531 473.609375 544.441406 472.875 544.441406 472.007812 C 544.441406 471.183594 544.171875 470.414062 543.640625 469.691406 C 543.105469 468.96875 542.367188 468.410156 541.425781 468.019531 C 540.691406 467.714844 539.6875 467.535156 538.414062 467.476562 L 541.058594 462.125 L 546.003906 462.125 "/>
<path style="fill:none;stroke-width:1.2;stroke-linecap:butt;stroke-linejoin:round;stroke:rgb(0%,0%,0%);stroke-opacity:1;stroke-miterlimit:10;" d="M 1066.289062 1060.234375 L 1066.289062 1032.5 " transform="matrix(0.1,0,0,-0.1,0,555)"/>
<path style="fill:none;stroke-width:1.2;stroke-linecap:butt;stroke-linejoin:round;stroke:rgb(0%,0%,0%);stroke-opacity:1;stroke-miterlimit:10;" d="M 2033.359375 1060.234375 L 2033.359375 1032.5 " transform="matrix(0.1,0,0,-0.1,0,555)"/>
<path style="fill:none;stroke-width:1.2;stroke-linecap:butt;stroke-linejoin:round;stroke:rgb(0%,0%,0%);stroke-opacity:1;stroke-miterlimit:10;" d="M 3000.390625 1060.234375 L 3000.390625 1032.5 " transform="matrix(0.1,0,0,-0.1,0,555)"/>
<path style="fill:none;stroke-width:1.2;stroke-linecap:butt;stroke-linejoin:round;stroke:rgb(0%,0%,0%);stroke-opacity:1;stroke-miterlimit:10;" d="M 3967.5 1060.234375 L 3967.5 1032.5 " transform="matrix(0.1,0,0,-0.1,0,555)"/>
<path style="fill:none;stroke-width:1.2;stroke-linecap:butt;stroke-linejoin:round;stroke:rgb(0%,0%,0%);stroke-opacity:1;stroke-miterlimit:10;" d="M 4934.570312 1060.234375 L 4934.570312 1032.5 " transform="matrix(0.1,0,0,-0.1,0,555)"/>
<path style="fill:none;stroke-width:13.875;stroke-linecap:butt;stroke-linejoin:round;stroke:rgb(0%,0%,0%);stroke-opacity:1;stroke-miterlimit:10;" d="M 582.734375 201.171875 L 582.734375 5355.507812 " transform="matrix(0.1,0,0,-0.1,0,555)"/>
<path style="fill:none;stroke-width:1.2;stroke-linecap:butt;stroke-linejoin:round;stroke:rgb(0%,0%,0%);stroke-opacity:1;stroke-miterlimit:10;" d="M 582.734375 201.171875 L 527.265625 201.171875 " transform="matrix(0.1,0,0,-0.1,0,555)"/>
<g clip-path="url(#clip1)" clip-rule="nonzero">
<path style=" stroke:none;fill-rule:nonzero;fill:rgb(0%,0%,0%);fill-opacity:1;" d="M 28.507812 536.808594 L 42.253906 536.808594 L 42.253906 535.726562 L 28.507812 535.726562 Z M 28.507812 536.808594 "/>
</g>
<path style=" stroke:none;fill-rule:nonzero;fill:rgb(0%,0%,0%);fill-opacity:1;" d="M 47.890625 528.722656 L 47.089844 530.457031 L 42.949219 530.457031 L 42.035156 532.300781 C 43.828125 532.574219 45.253906 533.246094 46.308594 534.316406 C 47.203125 535.226562 47.652344 536.3125 47.652344 537.570312 C 47.652344 538.292969 47.507812 538.960938 47.21875 539.574219 C 46.929688 540.1875 46.558594 540.714844 46.113281 541.144531 C 45.664062 541.582031 45.164062 541.925781 44.617188 542.1875 C 43.835938 542.5625 43.035156 542.75 42.210938 542.75 C 41.386719 542.75 40.785156 542.609375 40.410156 542.328125 C 40.035156 542.046875 39.847656 541.738281 39.847656 541.40625 C 39.847656 541.21875 39.925781 541.050781 40.085938 540.90625 C 40.246094 540.761719 40.441406 540.691406 40.671875 540.691406 C 40.84375 540.691406 40.996094 540.714844 41.125 540.765625 C 41.257812 540.816406 41.480469 540.957031 41.796875 541.1875 C 42.320312 541.535156 42.839844 541.710938 43.359375 541.710938 C 44.15625 541.710938 44.847656 541.410156 45.441406 540.808594 C 46.03125 540.210938 46.328125 539.476562 46.328125 538.609375 C 46.328125 537.785156 46.0625 537.011719 45.527344 536.289062 C 44.992188 535.566406 44.253906 535.011719 43.316406 534.621094 C 42.578125 534.316406 41.574219 534.136719 40.300781 534.078125 L 42.949219 528.722656 L 47.890625 528.722656 "/>
<path style="fill:none;stroke-width:1.2;stroke-linecap:butt;stroke-linejoin:round;stroke:rgb(0%,0%,0%);stroke-opacity:1;stroke-miterlimit:10;" d="M 582.734375 1060.234375 L 527.265625 1060.234375 " transform="matrix(0.1,0,0,-0.1,0,555)"/>
<path style=" stroke:none;fill-rule:nonzero;fill:rgb(0%,0%,0%);fill-opacity:1;" d="M 39.609375 449.679688 C 39.609375 448.105469 39.84375 446.746094 40.3125 445.613281 C 40.78125 444.480469 41.414062 443.636719 42.210938 443.089844 C 42.816406 442.640625 43.445312 442.417969 44.097656 442.417969 C 45.152344 442.417969 46.097656 442.960938 46.9375 444.042969 C 47.992188 445.371094 48.519531 447.179688 48.519531 449.460938 C 48.519531 451.066406 48.289062 452.425781 47.824219 453.539062 C 47.363281 454.652344 46.773438 455.460938 46.058594 455.96875 C 45.34375 456.472656 44.652344 456.722656 43.988281 456.722656 C 42.671875 456.722656 41.582031 455.953125 40.714844 454.40625 C 39.976562 453.089844 39.609375 451.515625 39.609375 449.679688 Z M 41.601562 449.941406 C 41.601562 451.832031 41.835938 453.378906 42.296875 454.578125 C 42.6875 455.589844 43.265625 456.097656 44.03125 456.097656 C 44.394531 456.097656 44.769531 455.929688 45.160156 455.597656 C 45.546875 455.265625 45.84375 454.71875 46.046875 453.949219 C 46.367188 452.78125 46.523438 451.132812 46.523438 449.007812 C 46.523438 447.445312 46.359375 446.136719 46.027344 445.085938 C 45.792969 444.300781 45.484375 443.753906 45.09375 443.433594 C 44.820312 443.203125 44.480469 443.089844 44.074219 443.089844 C 43.625 443.089844 43.222656 443.296875 42.859375 443.71875 C 42.367188 444.28125 42.035156 445.167969 41.863281 446.371094 C 41.691406 447.578125 41.601562 448.769531 41.601562 449.941406 "/>
<path style="fill:none;stroke-width:1.2;stroke-linecap:butt;stroke-linejoin:round;stroke:rgb(0%,0%,0%);stroke-opacity:1;stroke-miterlimit:10;" d="M 582.734375 1919.296875 L 527.265625 1919.296875 " transform="matrix(0.1,0,0,-0.1,0,555)"/>
<path style=" stroke:none;fill-rule:nonzero;fill:rgb(0%,0%,0%);fill-opacity:1;" d="M 47.890625 356.671875 L 47.089844 358.40625 L 42.949219 358.40625 L 42.035156 360.25 C 43.828125 360.523438 45.253906 361.195312 46.308594 362.265625 C 47.203125 363.179688 47.652344 364.261719 47.652344 365.519531 C 47.652344 366.242188 47.507812 366.910156 47.21875 367.523438 C 46.929688 368.136719 46.558594 368.664062 46.113281 369.097656 C 45.664062 369.53125 45.164062 369.878906 44.617188 370.136719 C 43.835938 370.511719 43.035156 370.699219 42.210938 370.699219 C 41.386719 370.699219 40.785156 370.558594 40.410156 370.277344 C 40.035156 369.996094 39.847656 369.6875 39.847656 369.355469 C 39.847656 369.167969 39.925781 369.003906 40.085938 368.855469 C 40.246094 368.714844 40.441406 368.640625 40.671875 368.640625 C 40.84375 368.640625 40.996094 368.664062 41.125 368.71875 C 41.257812 368.765625 41.480469 368.910156 41.796875 369.140625 C 42.320312 369.484375 42.839844 369.660156 43.359375 369.660156 C 44.15625 369.660156 44.847656 369.359375 45.441406 368.761719 C 46.03125 368.160156 46.328125 367.425781 46.328125 366.558594 C 46.328125 365.734375 46.0625 364.960938 45.527344 364.238281 C 44.992188 363.515625 44.253906 362.960938 43.316406 362.570312 C 42.578125 362.265625 41.574219 362.085938 40.300781 362.027344 L 42.949219 356.671875 L 47.890625 356.671875 "/>
<path style="fill:none;stroke-width:1.2;stroke-linecap:butt;stroke-linejoin:round;stroke:rgb(0%,0%,0%);stroke-opacity:1;stroke-miterlimit:10;" d="M 582.734375 2778.359375 L 527.265625 2778.359375 " transform="matrix(0.1,0,0,-0.1,0,555)"/>
<path style=" stroke:none;fill-rule:nonzero;fill:rgb(0%,0%,0%);fill-opacity:1;" d="M 30.199219 272.015625 L 33.539062 270.367188 L 33.886719 270.367188 L 33.886719 282.007812 C 33.886719 282.773438 33.917969 283.253906 33.984375 283.449219 C 34.046875 283.644531 34.179688 283.792969 34.382812 283.894531 C 34.585938 283.996094 34.996094 284.054688 35.621094 284.066406 L 35.621094 284.4375 L 30.4375 284.4375 L 30.4375 284.066406 C 31.089844 284.054688 31.507812 283.996094 31.695312 283.894531 C 31.882812 283.792969 32.015625 283.660156 32.085938 283.492188 C 32.15625 283.328125 32.195312 282.832031 32.195312 282.007812 L 32.195312 274.570312 C 32.195312 273.5625 32.164062 272.917969 32.105469 272.644531 C 32.050781 272.425781 31.960938 272.269531 31.835938 272.164062 C 31.714844 272.066406 31.566406 272.015625 31.390625 272.015625 C 31.132812 272.015625 30.785156 272.113281 30.351562 272.316406 Z M 38.914062 277.628906 C 38.914062 276.054688 39.148438 274.699219 39.621094 273.566406 C 40.089844 272.429688 40.722656 271.589844 41.515625 271.039062 C 42.125 270.589844 42.753906 270.367188 43.402344 270.367188 C 44.457031 270.367188 45.40625 270.910156 46.242188 271.992188 C 47.296875 273.320312 47.824219 275.128906 47.824219 277.410156 C 47.824219 279.015625 47.59375 280.375 47.132812 281.488281 C 46.667969 282.601562 46.082031 283.410156 45.363281 283.917969 C 44.648438 284.421875 43.960938 284.675781 43.292969 284.675781 C 41.980469 284.675781 40.886719 283.902344 40.019531 282.355469 C 39.285156 281.039062 38.914062 279.464844 38.914062 277.628906 Z M 40.910156 277.890625 C 40.910156 279.78125 41.140625 281.328125 41.601562 282.53125 C 41.992188 283.539062 42.570312 284.046875 43.335938 284.046875 C 43.699219 284.046875 44.074219 283.882812 44.464844 283.546875 C 44.855469 283.214844 45.152344 282.667969 45.355469 281.898438 C 45.671875 280.730469 45.832031 279.082031 45.832031 276.957031 C 45.832031 275.394531 45.664062 274.089844 45.332031 273.035156 C 45.101562 272.253906 44.789062 271.703125 44.398438 271.386719 C 44.125 271.15625 43.785156 271.039062 43.382812 271.039062 C 42.933594 271.039062 42.527344 271.246094 42.167969 271.667969 C 41.675781 272.230469 41.34375 273.117188 41.167969 274.324219 C 40.996094 275.53125 40.910156 276.71875 40.910156 277.890625 "/>
<path style="fill:none;stroke-width:1.2;stroke-linecap:butt;stroke-linejoin:round;stroke:rgb(0%,0%,0%);stroke-opacity:1;stroke-miterlimit:10;" d="M 582.734375 3637.382812 L 527.265625 3637.382812 " transform="matrix(0.1,0,0,-0.1,0,555)"/>
<path style=" stroke:none;fill-rule:nonzero;fill:rgb(0%,0%,0%);fill-opacity:1;" d="M 30.199219 185.988281 L 33.539062 184.34375 L 33.886719 184.34375 L 33.886719 195.984375 C 33.886719 196.75 33.917969 197.230469 33.984375 197.425781 C 34.046875 197.621094 34.179688 197.769531 34.382812 197.871094 C 34.585938 197.972656 34.996094 198.03125 35.621094 198.042969 L 35.621094 198.410156 L 30.4375 198.410156 L 30.4375 198.042969 C 31.089844 198.03125 31.507812 197.972656 31.695312 197.871094 C 31.882812 197.769531 32.015625 197.636719 32.085938 197.46875 C 32.15625 197.300781 32.195312 196.808594 32.195312 195.984375 L 32.195312 188.546875 C 32.195312 187.535156 32.164062 186.890625 32.105469 186.617188 C 32.050781 186.402344 31.960938 186.242188 31.835938 186.140625 C 31.714844 186.039062 31.566406 185.988281 31.390625 185.988281 C 31.132812 185.988281 30.785156 186.089844 30.351562 186.292969 Z M 47.195312 184.621094 L 46.394531 186.359375 L 42.253906 186.359375 L 41.34375 188.199219 C 43.136719 188.476562 44.558594 189.148438 45.613281 190.214844 C 46.511719 191.128906 46.957031 192.210938 46.957031 193.46875 C 46.957031 194.191406 46.8125 194.859375 46.523438 195.472656 C 46.234375 196.089844 45.867188 196.613281 45.417969 197.046875 C 44.96875 197.480469 44.472656 197.828125 43.921875 198.085938 C 43.144531 198.460938 42.339844 198.648438 41.515625 198.648438 C 40.691406 198.648438 40.09375 198.511719 39.71875 198.226562 C 39.339844 197.945312 39.152344 197.636719 39.152344 197.308594 C 39.152344 197.117188 39.234375 196.953125 39.390625 196.808594 C 39.550781 196.664062 39.746094 196.589844 39.976562 196.589844 C 40.152344 196.589844 40.300781 196.617188 40.433594 196.667969 C 40.5625 196.71875 40.785156 196.859375 41.105469 197.089844 C 41.625 197.4375 42.144531 197.609375 42.664062 197.609375 C 43.460938 197.609375 44.15625 197.308594 44.746094 196.710938 C 45.339844 196.109375 45.636719 195.378906 45.636719 194.507812 C 45.636719 193.683594 45.367188 192.910156 44.832031 192.1875 C 44.296875 191.46875 43.5625 190.910156 42.621094 190.519531 C 41.886719 190.214844 40.878906 190.035156 39.609375 189.976562 L 42.253906 184.621094 L 47.195312 184.621094 "/>
<path style="fill:none;stroke-width:1.2;stroke-linecap:butt;stroke-linejoin:round;stroke:rgb(0%,0%,0%);stroke-opacity:1;stroke-miterlimit:10;" d="M 582.734375 4496.445312 L 527.265625 4496.445312 " transform="matrix(0.1,0,0,-0.1,0,555)"/>
<path style=" stroke:none;fill-rule:nonzero;fill:rgb(0%,0%,0%);fill-opacity:1;" d="M 37.289062 109.742188 L 36.335938 112.386719 L 28.207031 112.386719 L 28.207031 112.019531 C 30.589844 109.835938 32.269531 108.050781 33.246094 106.664062 C 34.222656 105.277344 34.710938 104.011719 34.710938 102.871094 C 34.710938 102.003906 34.441406 101.285156 33.90625 100.722656 C 33.371094 100.160156 32.730469 99.878906 31.976562 99.878906 C 31.3125 99.878906 30.710938 100.078125 30.167969 100.472656 C 29.625 100.871094 29.222656 101.453125 28.964844 102.21875 L 28.59375 102.21875 C 28.769531 100.960938 29.207031 99.996094 29.90625 99.324219 C 30.609375 98.652344 31.480469 98.316406 32.519531 98.316406 C 33.648438 98.316406 34.582031 98.679688 35.328125 99.402344 C 36.070312 100.125 36.445312 100.96875 36.445312 101.9375 C 36.445312 102.632812 36.285156 103.332031 35.964844 104.039062 C 35.460938 105.140625 34.644531 106.296875 33.515625 107.507812 C 31.839844 109.359375 30.785156 110.472656 30.351562 110.847656 L 33.949219 110.847656 C 34.6875 110.847656 35.203125 110.824219 35.5 110.773438 C 35.796875 110.722656 36.0625 110.613281 36.300781 110.445312 C 36.539062 110.28125 36.746094 110.046875 36.921875 109.742188 Z M 38.914062 105.578125 C 38.914062 104.003906 39.148438 102.648438 39.621094 101.515625 C 40.089844 100.378906 40.722656 99.539062 41.515625 98.988281 C 42.125 98.539062 42.753906 98.316406 43.402344 98.316406 C 44.457031 98.316406 45.40625 98.859375 46.242188 99.941406 C 47.296875 101.273438 47.824219 103.078125 47.824219 105.363281 C 47.824219 106.96875 47.59375 108.324219 47.132812 109.4375 C 46.667969 110.550781 46.082031 111.359375 45.363281 111.867188 C 44.648438 112.371094 43.960938 112.625 43.292969 112.625 C 41.980469 112.625 40.886719 111.851562 40.019531 110.304688 C 39.285156 108.992188 38.914062 107.414062 38.914062 105.578125 Z M 40.910156 105.839844 C 40.910156 107.734375 41.140625 109.28125 41.601562 110.480469 C 41.992188 111.492188 42.570312 111.996094 43.335938 111.996094 C 43.699219 111.996094 44.074219 111.832031 44.464844 111.496094 C 44.855469 111.164062 45.152344 110.617188 45.355469 109.851562 C 45.671875 108.679688 45.832031 107.03125 45.832031 104.90625 C 45.832031 103.347656 45.664062 102.039062 45.332031 100.984375 C 45.101562 100.203125 44.789062 99.652344 44.398438 99.335938 C 44.125 99.105469 43.785156 98.988281 43.382812 98.988281 C 42.933594 98.988281 42.527344 99.199219 42.167969 99.617188 C 41.675781 100.183594 41.34375 101.066406 41.167969 102.273438 C 40.996094 103.480469 40.910156 104.671875 40.910156 105.839844 "/>
<path style="fill:none;stroke-width:1.2;stroke-linecap:butt;stroke-linejoin:round;stroke:rgb(0%,0%,0%);stroke-opacity:1;stroke-miterlimit:10;" d="M 582.734375 5355.507812 L 527.265625 5355.507812 " transform="matrix(0.1,0,0,-0.1,0,555)"/>
<path style=" stroke:none;fill-rule:nonzero;fill:rgb(0%,0%,0%);fill-opacity:1;" d="M 37.289062 25.105469 L 36.335938 27.75 L 28.207031 27.75 L 28.207031 27.382812 C 30.589844 25.199219 32.269531 23.414062 33.246094 22.027344 C 34.222656 20.640625 34.710938 19.375 34.710938 18.230469 C 34.710938 17.363281 34.441406 16.648438 33.90625 16.085938 C 33.371094 15.523438 32.730469 15.242188 31.976562 15.242188 C 31.3125 15.242188 30.710938 15.4375 30.167969 15.835938 C 29.625 16.234375 29.222656 16.816406 28.964844 17.582031 L 28.59375 17.582031 C 28.769531 16.324219 29.207031 15.359375 29.90625 14.6875 C 30.609375 14.015625 31.480469 13.679688 32.519531 13.679688 C 33.648438 13.679688 34.582031 14.039062 35.328125 14.765625 C 36.070312 15.484375 36.445312 16.332031 36.445312 17.300781 C 36.445312 17.992188 36.285156 18.695312 35.964844 19.402344 C 35.460938 20.503906 34.644531 21.65625 33.515625 22.871094 C 31.839844 24.722656 30.785156 25.835938 30.351562 26.210938 L 33.949219 26.210938 C 34.6875 26.210938 35.203125 26.1875 35.5 26.136719 C 35.796875 26.085938 36.0625 25.976562 36.300781 25.808594 C 36.539062 25.644531 36.746094 25.410156 36.921875 25.105469 Z M 47.195312 13.960938 L 46.394531 15.695312 L 42.253906 15.695312 L 41.34375 17.539062 C 43.136719 17.8125 44.558594 18.484375 45.613281 19.554688 C 46.511719 20.464844 46.957031 21.550781 46.957031 22.808594 C 46.957031 23.53125 46.8125 24.199219 46.523438 24.8125 C 46.234375 25.425781 45.867188 25.949219 45.417969 26.382812 C 44.96875 26.816406 44.472656 27.164062 43.921875 27.425781 C 43.144531 27.800781 42.339844 27.988281 41.515625 27.988281 C 40.691406 27.988281 40.09375 27.847656 39.71875 27.566406 C 39.339844 27.285156 39.152344 26.976562 39.152344 26.644531 C 39.152344 26.457031 39.234375 26.289062 39.390625 26.144531 C 39.550781 26 39.746094 25.929688 39.976562 25.929688 C 40.152344 25.929688 40.300781 25.953125 40.433594 26.003906 C 40.5625 26.054688 40.785156 26.195312 41.105469 26.425781 C 41.625 26.773438 42.144531 26.949219 42.664062 26.949219 C 43.460938 26.949219 44.15625 26.648438 44.746094 26.046875 C 45.339844 25.449219 45.636719 24.714844 45.636719 23.847656 C 45.636719 23.023438 45.367188 22.25 44.832031 21.527344 C 44.296875 20.804688 43.5625 20.25 42.621094 19.859375 C 41.886719 19.554688 40.878906 19.375 39.609375 19.316406 L 42.253906 13.960938 L 47.195312 13.960938 "/>
<path style="fill:none;stroke-width:1.2;stroke-linecap:butt;stroke-linejoin:round;stroke:rgb(0%,0%,0%);stroke-opacity:1;stroke-miterlimit:10;" d="M 582.734375 373.007812 L 555 373.007812 " transform="matrix(0.1,0,0,-0.1,0,555)"/>
<path style="fill:none;stroke-width:1.2;stroke-linecap:butt;stroke-linejoin:round;stroke:rgb(0%,0%,0%);stroke-opacity:1;stroke-miterlimit:10;" d="M 582.734375 544.804688 L 555 544.804688 " transform="matrix(0.1,0,0,-0.1,0,555)"/>
<path style="fill:none;stroke-width:1.2;stroke-linecap:butt;stroke-linejoin:round;stroke:rgb(0%,0%,0%);stroke-opacity:1;stroke-miterlimit:10;" d="M 582.734375 716.640625 L 555 716.640625 " transform="matrix(0.1,0,0,-0.1,0,555)"/>
<path style="fill:none;stroke-width:1.2;stroke-linecap:butt;stroke-linejoin:round;stroke:rgb(0%,0%,0%);stroke-opacity:1;stroke-miterlimit:10;" d="M 582.734375 888.4375 L 555 888.4375 " transform="matrix(0.1,0,0,-0.1,0,555)"/>
<path style="fill:none;stroke-width:1.2;stroke-linecap:butt;stroke-linejoin:round;stroke:rgb(0%,0%,0%);stroke-opacity:1;stroke-miterlimit:10;" d="M 582.734375 1232.070312 L 555 1232.070312 " transform="matrix(0.1,0,0,-0.1,0,555)"/>
<path style="fill:none;stroke-width:1.2;stroke-linecap:butt;stroke-linejoin:round;stroke:rgb(0%,0%,0%);stroke-opacity:1;stroke-miterlimit:10;" d="M 582.734375 1403.867188 L 555 1403.867188 " transform="matrix(0.1,0,0,-0.1,0,555)"/>
<path style="fill:none;stroke-width:1.2;stroke-linecap:butt;stroke-linejoin:round;stroke:rgb(0%,0%,0%);stroke-opacity:1;stroke-miterlimit:10;" d="M 582.734375 1575.664062 L 555 1575.664062 " transform="matrix(0.1,0,0,-0.1,0,555)"/>
<path style="fill:none;stroke-width:1.2;stroke-linecap:butt;stroke-linejoin:round;stroke:rgb(0%,0%,0%);stroke-opacity:1;stroke-miterlimit:10;" d="M 582.734375 1747.5 L 555 1747.5 " transform="matrix(0.1,0,0,-0.1,0,555)"/>
<path style="fill:none;stroke-width:1.2;stroke-linecap:butt;stroke-linejoin:round;stroke:rgb(0%,0%,0%);stroke-opacity:1;stroke-miterlimit:10;" d="M 582.734375 2091.09375 L 555 2091.09375 " transform="matrix(0.1,0,0,-0.1,0,555)"/>
<path style="fill:none;stroke-width:1.2;stroke-linecap:butt;stroke-linejoin:round;stroke:rgb(0%,0%,0%);stroke-opacity:1;stroke-miterlimit:10;" d="M 582.734375 2262.890625 L 555 2262.890625 " transform="matrix(0.1,0,0,-0.1,0,555)"/>
<path style="fill:none;stroke-width:1.2;stroke-linecap:butt;stroke-linejoin:round;stroke:rgb(0%,0%,0%);stroke-opacity:1;stroke-miterlimit:10;" d="M 582.734375 2434.726562 L 555 2434.726562 " transform="matrix(0.1,0,0,-0.1,0,555)"/>
<path style="fill:none;stroke-width:1.2;stroke-linecap:butt;stroke-linejoin:round;stroke:rgb(0%,0%,0%);stroke-opacity:1;stroke-miterlimit:10;" d="M 582.734375 2606.523438 L 555 2606.523438 " transform="matrix(0.1,0,0,-0.1,0,555)"/>
<path style="fill:none;stroke-width:1.2;stroke-linecap:butt;stroke-linejoin:round;stroke:rgb(0%,0%,0%);stroke-opacity:1;stroke-miterlimit:10;" d="M 582.734375 2950.15625 L 555 2950.15625 " transform="matrix(0.1,0,0,-0.1,0,555)"/>
<path style="fill:none;stroke-width:1.2;stroke-linecap:butt;stroke-linejoin:round;stroke:rgb(0%,0%,0%);stroke-opacity:1;stroke-miterlimit:10;" d="M 582.734375 3121.953125 L 555 3121.953125 " transform="matrix(0.1,0,0,-0.1,0,555)"/>
<path style="fill:none;stroke-width:1.2;stroke-linecap:butt;stroke-linejoin:round;stroke:rgb(0%,0%,0%);stroke-opacity:1;stroke-miterlimit:10;" d="M 582.734375 3293.789062 L 555 3293.789062 " transform="matrix(0.1,0,0,-0.1,0,555)"/>
<path style="fill:none;stroke-width:1.2;stroke-linecap:butt;stroke-linejoin:round;stroke:rgb(0%,0%,0%);stroke-opacity:1;stroke-miterlimit:10;" d="M 582.734375 3465.585938 L 555 3465.585938 " transform="matrix(0.1,0,0,-0.1,0,555)"/>
<path style="fill:none;stroke-width:1.2;stroke-linecap:butt;stroke-linejoin:round;stroke:rgb(0%,0%,0%);stroke-opacity:1;stroke-miterlimit:10;" d="M 582.734375 3809.21875 L 555 3809.21875 " transform="matrix(0.1,0,0,-0.1,0,555)"/>
<path style="fill:none;stroke-width:1.2;stroke-linecap:butt;stroke-linejoin:round;stroke:rgb(0%,0%,0%);stroke-opacity:1;stroke-miterlimit:10;" d="M 582.734375 3981.015625 L 555 3981.015625 " transform="matrix(0.1,0,0,-0.1,0,555)"/>
<path style="fill:none;stroke-width:1.2;stroke-linecap:butt;stroke-linejoin:round;stroke:rgb(0%,0%,0%);stroke-opacity:1;stroke-miterlimit:10;" d="M 582.734375 4152.8125 L 555 4152.8125 " transform="matrix(0.1,0,0,-0.1,0,555)"/>
<path style="fill:none;stroke-width:1.2;stroke-linecap:butt;stroke-linejoin:round;stroke:rgb(0%,0%,0%);stroke-opacity:1;stroke-miterlimit:10;" d="M 582.734375 4324.648438 L 555 4324.648438 " transform="matrix(0.1,0,0,-0.1,0,555)"/>
<path style="fill:none;stroke-width:1.2;stroke-linecap:butt;stroke-linejoin:round;stroke:rgb(0%,0%,0%);stroke-opacity:1;stroke-miterlimit:10;" d="M 582.734375 4668.242188 L 555 4668.242188 " transform="matrix(0.1,0,0,-0.1,0,555)"/>
<path style="fill:none;stroke-width:1.2;stroke-linecap:butt;stroke-linejoin:round;stroke:rgb(0%,0%,0%);stroke-opacity:1;stroke-miterlimit:10;" d="M 582.734375 4840.078125 L 555 4840.078125 " transform="matrix(0.1,0,0,-0.1,0,555)"/>
<path style="fill:none;stroke-width:1.2;stroke-linecap:butt;stroke-linejoin:round;stroke:rgb(0%,0%,0%);stroke-opacity:1;stroke-miterlimit:10;" d="M 582.734375 5011.875 L 555 5011.875 " transform="matrix(0.1,0,0,-0.1,0,555)"/>
<path style="fill:none;stroke-width:1.2;stroke-linecap:butt;stroke-linejoin:round;stroke:rgb(0%,0%,0%);stroke-opacity:1;stroke-miterlimit:10;" d="M 582.734375 5183.671875 L 555 5183.671875 " transform="matrix(0.1,0,0,-0.1,0,555)"/>
</g>
</svg>
