<?xml version="1.0" encoding="UTF-8"?>
<svg xmlns="http://www.w3.org/2000/svg" xmlns:xlink="http://www.w3.org/1999/xlink" width="555pt" height="555pt" viewBox="0 0 555 555" version="1.1">
<defs>
<clipPath id="clip1">
  <path d="M 11 514 L 19.425781 514 L 19.425781 516 L 11 516 Z M 11 514 "/>
</clipPath>
<clipPath id="clip2">
  <path d="M 77 514 L 84.636719 514 L 84.636719 516 L 77 516 Z M 77 514 "/>
</clipPath>
<clipPath id="clip3">
  <path d="M 142 514 L 149.851562 514 L 149.851562 516 L 142 516 Z M 142 514 "/>
</clipPath>
<clipPath id="clip4">
  <path d="M 207 514 L 215.0625 514 L 215.0625 516 L 207 516 Z M 207 514 "/>
</clipPath>
</defs>
<g id="surface1">
<rect x="0" y="0" width="555" height="555" style="fill:rgb(100%,100%,100%);fill-opacity:1;stroke:none;"/>
<path style="fill:none;stroke-width:13.875;stroke-linecap:butt;stroke-linejoin:round;stroke:rgb(64.646912%,64.646912%,64.646912%);stroke-opacity:1;stroke-miterlimit:10;" d="M 201.171875 582.734375 L 201.171875 5434.453125 " transform="matrix(0.1,0,0,-0.1,0,555)"/>
<path style="fill:none;stroke-width:13.875;stroke-linecap:butt;stroke-linejoin:round;stroke:rgb(64.646912%,64.646912%,64.646912%);stroke-opacity:1;stroke-miterlimit:10;" d="M 853.320312 582.734375 L 853.320312 5434.453125 " transform="matrix(0.1,0,0,-0.1,0,555)"/>
<path style="fill:none;stroke-width:13.875;stroke-linecap:butt;stroke-linejoin:round;stroke:rgb(64.646912%,64.646912%,64.646912%);stroke-opacity:1;stroke-miterlimit:10;" d="M 1505.429688 582.734375 L 1505.429688 5434.453125 " transform="matrix(0.1,0,0,-0.1,0,555)"/>
<path style="fill:none;stroke-width:13.875;stroke-linecap:butt;stroke-linejoin:round;stroke:rgb(64.646912%,64.646912%,64.646912%);stroke-opacity:1;stroke-miterlimit:10;" d="M 2157.539062 582.734375 L 2157.539062 5434.453125 " transform="matrix(0.1,0,0,-0.1,0,555)"/>
<path style="fill:none;stroke-width:13.875;stroke-linecap:butt;stroke-linejoin:round;stroke:rgb(64.646912%,64.646912%,64.646912%);stroke-opacity:1;stroke-miterlimit:10;" d="M 2809.6875 582.734375 L 2809.6875 5434.453125 " transform="matrix(0.1,0,0,-0.1,0,555)"/>
<path style="fill:none;stroke-width:13.875;stroke-linecap:butt;stroke-linejoin:round;stroke:rgb(64.646912%,64.646912%,64.646912%);stroke-opacity:1;stroke-miterlimit:10;" d="M 3461.796875 582.734375 L 3461.796875 5434.453125 " transform="matrix(0.1,0,0,-0.1,0,555)"/>
<path style="fill:none;stroke-width:13.875;stroke-linecap:butt;stroke-linejoin:round;stroke:rgb(64.646912%,64.646912%,64.646912%);stroke-opacity:1;stroke-miterlimit:10;" d="M 4113.945312 582.734375 L 4113.945312 5434.453125 " transform="matrix(0.1,0,0,-0.1,0,555)"/>
<path style="fill:none;stroke-width:13.875;stroke-linecap:butt;stroke-linejoin:round;stroke:rgb(64.646912%,64.646912%,64.646912%);stroke-opacity:1;stroke-miterlimit:10;" d="M 4766.054688 582.734375 L 4766.054688 5434.453125 " transform="matrix(0.1,0,0,-0.1,0,555)"/>
<path style="fill:none;stroke-width:13.875;stroke-linecap:butt;stroke-linejoin:round;stroke:rgb(64.646912%,64.646912%,64.646912%);stroke-opacity:1;stroke-miterlimit:10;" d="M 5418.164062 582.734375 L 5418.164062 5434.453125 " transform="matrix(0.1,0,0,-0.1,0,555)"/>
<path style="fill:none;stroke-width:13.875;stroke-linecap:butt;stroke-linejoin:round;stroke:rgb(91.40625%,91.40625%,91.40625%);stroke-opacity:1;stroke-miterlimit:10;" d="M 527.265625 582.734375 L 527.265625 5434.453125 " transform="matrix(0.1,0,0,-0.1,0,555)"/>
<path style="fill:none;stroke-width:13.875;stroke-linecap:butt;stroke-linejoin:round;stroke:rgb(91.40625%,91.40625%,91.40625%);stroke-opacity:1;stroke-miterlimit:10;" d="M 1179.375 582.734375 L 1179.375 5434.453125 " transform="matrix(0.1,0,0,-0.1,0,555)"/>
<path style="fill:none;stroke-width:13.875;stroke-linecap:butt;stroke-linejoin:round;stroke:rgb(91.40625%,91.40625%,91.40625%);stroke-opacity:1;stroke-miterlimit:10;" d="M 1831.484375 582.734375 L 1831.484375 5434.453125 " transform="matrix(0.1,0,0,-0.1,0,555)"/>
<path style="fill:none;stroke-width:13.875;stroke-linecap:butt;stroke-linejoin:round;stroke:rgb(91.40625%,91.40625%,91.40625%);stroke-opacity:1;stroke-miterlimit:10;" d="M 2483.59375 582.734375 L 2483.59375 5434.453125 " transform="matrix(0.1,0,0,-0.1,0,555)"/>
<path style="fill:none;stroke-width:13.875;stroke-linecap:butt;stroke-linejoin:round;stroke:rgb(91.40625%,91.40625%,91.40625%);stroke-opacity:1;stroke-miterlimit:10;" d="M 3135.742188 582.734375 L 3135.742188 5434.453125 " transform="matrix(0.1,0,0,-0.1,0,555)"/>
<path style="fill:none;stroke-width:13.875;stroke-linecap:butt;stroke-linejoin:round;stroke:rgb(91.40625%,91.40625%,91.40625%);stroke-opacity:1;stroke-miterlimit:10;" d="M 3787.851562 582.734375 L 3787.851562 5434.453125 " transform="matrix(0.1,0,0,-0.1,0,555)"/>
<path style="fill:none;stroke-width:13.875;stroke-linecap:butt;stroke-linejoin:round;stroke:rgb(91.40625%,91.40625%,91.40625%);stroke-opacity:1;stroke-miterlimit:10;" d="M 4439.960938 582.734375 L 4439.960938 5434.453125 " transform="matrix(0.1,0,0,-0.1,0,555)"/>
<path style="fill:none;stroke-width:13.875;stroke-linecap:butt;stroke-linejoin:round;stroke:rgb(91.40625%,91.40625%,91.40625%);stroke-opacity:1;stroke-miterlimit:10;" d="M 5092.109375 582.734375 L 5092.109375 5434.453125 " transform="matrix(0.1,0,0,-0.1,0,555)"/>
<path style="fill:none;stroke-width:13.875;stroke-linecap:butt;stroke-linejoin:round;stroke:rgb(64.646912%,64.646912%,64.646912%);stroke-opacity:1;stroke-miterlimit:10;" d="M 201.171875 610.46875 L 5418.164062 610.46875 " transform="matrix(0.1,0,0,-0.1,0,555)"/>
<path style="fill:none;stroke-width:13.875;stroke-linecap:butt;stroke-linejoin:round;stroke:rgb(64.646912%,64.646912%,64.646912%);stroke-opacity:1;stroke-miterlimit:10;" d="M 201.171875 1559.570312 L 5418.164062 1559.570312 " transform="matrix(0.1,0,0,-0.1,0,555)"/>
<path style="fill:none;stroke-width:13.875;stroke-linecap:butt;stroke-linejoin:round;stroke:rgb(64.646912%,64.646912%,64.646912%);stroke-opacity:1;stroke-miterlimit:10;" d="M 201.171875 2508.671875 L 5418.164062 2508.671875 " transform="matrix(0.1,0,0,-0.1,0,555)"/>
<path style="fill:none;stroke-width:13.875;stroke-linecap:butt;stroke-linejoin:round;stroke:rgb(64.646912%,64.646912%,64.646912%);stroke-opacity:1;stroke-miterlimit:10;" d="M 201.171875 3457.734375 L 5418.164062 3457.734375 " transform="matrix(0.1,0,0,-0.1,0,555)"/>
<path style="fill:none;stroke-width:13.875;stroke-linecap:butt;stroke-linejoin:round;stroke:rgb(64.646912%,64.646912%,64.646912%);stroke-opacity:1;stroke-miterlimit:10;" d="M 201.171875 4406.835938 L 5418.164062 4406.835938 " transform="matrix(0.1,0,0,-0.1,0,555)"/>
<path style="fill:none;stroke-width:13.875;stroke-linecap:butt;stroke-linejoin:round;stroke:rgb(64.646912%,64.646912%,64.646912%);stroke-opacity:1;stroke-miterlimit:10;" d="M 201.171875 5355.9375 L 5418.164062 5355.9375 " transform="matrix(0.1,0,0,-0.1,0,555)"/>
<path style="fill:none;stroke-width:13.875;stroke-linecap:butt;stroke-linejoin:round;stroke:rgb(91.40625%,91.40625%,91.40625%);stroke-opacity:1;stroke-miterlimit:10;" d="M 201.171875 1085 L 5418.164062 1085 " transform="matrix(0.1,0,0,-0.1,0,555)"/>
<path style="fill:none;stroke-width:13.875;stroke-linecap:butt;stroke-linejoin:round;stroke:rgb(91.40625%,91.40625%,91.40625%);stroke-opacity:1;stroke-miterlimit:10;" d="M 201.171875 2034.101562 L 5418.164062 2034.101562 " transform="matrix(0.1,0,0,-0.1,0,555)"/>
<path style="fill:none;stroke-width:13.875;stroke-linecap:butt;stroke-linejoin:round;stroke:rgb(91.40625%,91.40625%,91.40625%);stroke-opacity:1;stroke-miterlimit:10;" d="M 201.171875 2983.203125 L 5418.164062 2983.203125 " transform="matrix(0.1,0,0,-0.1,0,555)"/>
<path style="fill:none;stroke-width:13.875;stroke-linecap:butt;stroke-linejoin:round;stroke:rgb(91.40625%,91.40625%,91.40625%);stroke-opacity:1;stroke-miterlimit:10;" d="M 201.171875 3932.304688 L 5418.164062 3932.304688 " transform="matrix(0.1,0,0,-0.1,0,555)"/>
<path style="fill:none;stroke-width:13.875;stroke-linecap:butt;stroke-linejoin:round;stroke:rgb(91.40625%,91.40625%,91.40625%);stroke-opacity:1;stroke-miterlimit:10;" d="M 201.171875 4881.367188 L 5418.164062 4881.367188 " transform="matrix(0.1,0,0,-0.1,0,555)"/>
<path style="fill:none;stroke-width:27.75;stroke-linecap:butt;stroke-linejoin:round;stroke:rgb(0%,0%,100%);stroke-opacity:1;stroke-miterlimit:10;" d="M 201.171875 5434.453125 L 437.265625 5095.859375 L 645.664062 4797.539062 L 803.046875 4572.578125 L 961.054688 4347.1875 L 1092.109375 4160.546875 L 1196.71875 4011.835938 L 1303.046875 3860.9375 L 1380.195312 3751.640625 L 1460.46875 3638.125 L 1538.007812 3528.632812 L 1616.757812 3417.617188 L 1669.296875 3343.671875 L 1720.585938 3271.601562 L 1773.632812 3197.148438 L 1825.546875 3124.414062 L 1878.945312 3049.765625 L 1932.1875 2975.429688 L 1982.929688 2904.765625 L 2011.289062 2865.351562 L 2036.914062 2829.6875 L 2063.164062 2793.28125 L 2089.84375 2756.289062 L 2114.375 2722.34375 L 2140.546875 2686.171875 L 2166.484375 2650.3125 L 2194.21875 2612.070312 L 2218.75 2578.320312 L 2246.992188 2539.453125 L 2272.5 2504.453125 L 2297.734375 2469.84375 L 2324.882812 2432.734375 L 2352.109375 2395.507812 L 2376.914062 2361.679688 L 2403.242188 2325.859375 L 2428.90625 2290.976562 L 2456.757812 2253.203125 L 2480.859375 2220.585938 L 2508.554688 2183.242188 L 2534.570312 2148.203125 L 2560.3125 2113.59375 L 2586.09375 2079.023438 L 2612.421875 2043.867188 L 2640.273438 2006.71875 L 2665.859375 1972.734375 L 2691.09375 1939.296875 L 2718.046875 1903.671875 L 2744.960938 1868.242188 L 2769.140625 1836.5625 L 2797.734375 1799.140625 L 2821.679688 1767.96875 L 2849.6875 1731.679688 L 2876.445312 1697.1875 L 2900.273438 1666.523438 L 2927.148438 1632.1875 L 2954.140625 1597.8125 L 2981.015625 1563.828125 L 3005.976562 1532.460938 L 3031.796875 1500.195312 L 3058.476562 1467.03125 L 3085.078125 1434.179688 L 3112.460938 1400.664062 L 3136.5625 1371.367188 L 3163.710938 1338.671875 L 3190.976562 1306.09375 L 3217.226562 1275.039062 L 3241.054688 1247.109375 L 3269.453125 1214.21875 L 3293.4375 1186.71875 L 3321.40625 1155.078125 L 3346.132812 1127.460938 L 3373.28125 1097.578125 L 3399.140625 1069.570312 L 3426.09375 1040.820312 L 3450.859375 1014.921875 L 3477.578125 987.460938 L 3505.3125 959.609375 L 3529.453125 935.859375 L 3555.546875 910.859375 L 3582.460938 885.703125 L 3608.867188 861.835938 L 3634.335938 839.492188 L 3662.695312 815.546875 L 3688.125 794.882812 L 3715.3125 773.75 L 3739.921875 755.46875 L 3766.835938 736.523438 L 3792.148438 719.726562 L 3818.632812 703.242188 L 3844.492188 688.28125 L 3871.601562 673.867188 L 3897.695312 661.289062 L 3924.414062 649.726562 L 3950.859375 639.6875 L 3975.195312 631.71875 L 4003.046875 624.0625 L 4028.007812 618.671875 L 4054.570312 614.375 L 4080.039062 611.757812 L 4108.28125 610.507812 L 4132.734375 610.859375 L 4160.507812 612.890625 L 4185.820312 616.210938 L 4213.476562 621.484375 L 4237.382812 627.34375 L 4264.570312 635.46875 L 4290.859375 644.765625 L 4317.109375 655.46875 L 4343.28125 667.460938 L 4368.398438 680.195312 L 4395.546875 695.195312 L 4421.445312 710.703125 L 4448.710938 728.242188 L 4473.398438 745.117188 L 4500.664062 764.804688 L 4526.757812 784.6875 L 4552.8125 805.390625 L 4580 827.96875 L 4605.078125 849.570312 L 4630.742188 872.382812 L 4659.101562 898.4375 L 4684.726562 922.734375 L 4710.976562 948.203125 L 4737.695312 974.726562 L 4762.226562 999.648438 L 4788.359375 1026.757812 L 4814.296875 1054.140625 L 4842.03125 1083.984375 L 4866.5625 1110.742188 L 4894.804688 1142.070312 L 4920.3125 1170.742188 L 4945.546875 1199.453125 L 4972.695312 1230.742188 L 4999.921875 1262.5 L 5024.726562 1291.71875 L 5051.054688 1323.007812 L 5076.757812 1353.828125 L 5104.609375 1387.539062 L 5128.671875 1416.914062 L 5156.367188 1450.9375 L 5182.382812 1483.164062 L 5208.164062 1515.273438 L 5233.945312 1547.617188 L 5260.234375 1580.78125 L 5288.125 1616.132812 L 5313.671875 1648.75 L 5338.90625 1681.09375 L 5365.898438 1715.820312 L 5392.773438 1750.664062 L 5418.164062 1783.632812 " transform="matrix(0.1,0,0,-0.1,0,555)"/>
<path style="fill:none;stroke-width:13.875;stroke-linecap:butt;stroke-linejoin:round;stroke:rgb(0%,0%,0%);stroke-opacity:1;stroke-miterlimit:10;" d="M 201.171875 582.734375 L 5418.164062 582.734375 " transform="matrix(0.1,0,0,-0.1,0,555)"/>
<path style=" stroke:none;fill-rule:nonzero;fill:rgb(0%,0%,0%);fill-opacity:1;" d="M 283.570312 532.367188 L 282.878906 534.75 L 284.265625 534.75 L 284.109375 535.3125 L 282.746094 535.3125 L 281.226562 540.496094 C 281.070312 541.058594 280.988281 541.421875 280.988281 541.582031 C 280.988281 541.679688 281.011719 541.761719 281.054688 541.820312 C 281.097656 541.875 281.15625 541.90625 281.226562 541.90625 C 281.371094 541.90625 281.5625 541.796875 281.789062 541.582031 C 281.9375 541.464844 282.253906 541.101562 282.746094 540.496094 L 283.027344 540.734375 C 282.492188 541.515625 281.988281 542.066406 281.511719 542.382812 C 281.179688 542.613281 280.84375 542.730469 280.511719 542.730469 C 280.253906 542.730469 280.039062 542.644531 279.871094 542.480469 C 279.707031 542.3125 279.625 542.105469 279.625 541.863281 C 279.625 541.542969 279.71875 541.058594 279.90625 540.410156 L 281.378906 535.3125 L 280.058594 535.3125 L 280.144531 534.96875 C 280.78125 534.792969 281.316406 534.53125 281.746094 534.175781 C 282.183594 533.824219 282.660156 533.21875 283.179688 532.367188 L 283.570312 532.367188 "/>
<path style="fill:none;stroke-width:1.2;stroke-linecap:butt;stroke-linejoin:round;stroke:rgb(0%,0%,0%);stroke-opacity:1;stroke-miterlimit:10;" d="M 201.171875 582.734375 L 201.171875 527.265625 " transform="matrix(0.1,0,0,-0.1,0,555)"/>
<g clip-path="url(#clip1)" clip-rule="nonzero">
<path style=" stroke:none;fill-rule:nonzero;fill:rgb(0%,0%,0%);fill-opacity:1;" d="M 11.859375 515.996094 L 25.601562 515.996094 L 25.601562 514.914062 L 11.859375 514.914062 Z M 11.859375 515.996094 "/>
</g>
<path style=" stroke:none;fill-rule:nonzero;fill:rgb(0%,0%,0%);fill-opacity:1;" d="M 31.890625 516.625 L 31.890625 518.058594 L 30.027344 518.058594 L 30.027344 521.699219 L 28.355469 521.699219 L 28.355469 518.058594 L 22.523438 518.058594 L 22.523438 516.757812 L 28.921875 507.628906 L 30.027344 507.628906 L 30.027344 516.625 Z M 28.355469 516.625 L 28.355469 509.777344 L 23.523438 516.625 L 28.355469 516.625 "/>
<path style="fill:none;stroke-width:1.2;stroke-linecap:butt;stroke-linejoin:round;stroke:rgb(0%,0%,0%);stroke-opacity:1;stroke-miterlimit:10;" d="M 853.320312 582.734375 L 853.320312 527.265625 " transform="matrix(0.1,0,0,-0.1,0,555)"/>
<g clip-path="url(#clip2)" clip-rule="nonzero">
<path style=" stroke:none;fill-rule:nonzero;fill:rgb(0%,0%,0%);fill-opacity:1;" d="M 77.070312 515.996094 L 90.816406 515.996094 L 90.816406 514.914062 L 77.070312 514.914062 Z M 77.070312 515.996094 "/>
</g>
<path style=" stroke:none;fill-rule:nonzero;fill:rgb(0%,0%,0%);fill-opacity:1;" d="M 88.472656 510.535156 C 88.863281 509.609375 89.359375 508.894531 89.960938 508.386719 C 90.558594 507.882812 91.308594 507.628906 92.203125 507.628906 C 93.300781 507.628906 94.148438 507.988281 94.738281 508.714844 C 95.1875 509.25 95.410156 509.820312 95.410156 510.425781 C 95.410156 511.4375 94.785156 512.476562 93.527344 513.546875 C 94.363281 513.878906 95 514.351562 95.433594 514.96875 C 95.867188 515.582031 96.085938 516.308594 96.085938 517.144531 C 96.085938 518.332031 95.707031 519.359375 94.957031 520.226562 C 93.960938 521.367188 92.527344 521.9375 90.664062 521.9375 C 89.726562 521.9375 89.089844 521.824219 88.757812 521.589844 C 88.425781 521.359375 88.257812 521.113281 88.257812 520.851562 C 88.257812 520.652344 88.335938 520.476562 88.496094 520.332031 C 88.65625 520.1875 88.84375 520.117188 89.058594 520.117188 C 89.234375 520.117188 89.40625 520.144531 89.582031 520.203125 C 89.695312 520.230469 89.960938 520.351562 90.371094 520.5625 C 90.785156 520.769531 91.0625 520.898438 91.207031 520.941406 C 91.464844 521.011719 91.734375 521.050781 92.007812 521.050781 C 92.703125 521.050781 93.304688 520.78125 93.820312 520.246094 C 94.332031 519.710938 94.589844 519.082031 94.589844 518.359375 C 94.589844 517.828125 94.472656 517.304688 94.242188 516.800781 C 94.054688 516.410156 93.859375 516.121094 93.65625 515.933594 C 93.367188 515.65625 92.964844 515.410156 92.453125 515.195312 C 91.941406 514.980469 91.421875 514.871094 90.902344 514.871094 L 90.578125 514.871094 L 90.578125 514.542969 C 91.113281 514.488281 91.648438 514.300781 92.183594 513.980469 C 92.71875 513.664062 93.105469 513.28125 93.351562 512.832031 C 93.597656 512.382812 93.722656 511.894531 93.722656 511.355469 C 93.722656 510.664062 93.503906 510.101562 93.070312 509.667969 C 92.636719 509.234375 92.09375 509.015625 91.445312 509.015625 C 90.390625 509.015625 89.507812 509.582031 88.800781 510.707031 L 88.472656 510.535156 "/>
<path style="fill:none;stroke-width:1.2;stroke-linecap:butt;stroke-linejoin:round;stroke:rgb(0%,0%,0%);stroke-opacity:1;stroke-miterlimit:10;" d="M 1505.429688 582.734375 L 1505.429688 527.265625 " transform="matrix(0.1,0,0,-0.1,0,555)"/>
<g clip-path="url(#clip3)" clip-rule="nonzero">
<path style=" stroke:none;fill-rule:nonzero;fill:rgb(0%,0%,0%);fill-opacity:1;" d="M 142.28125 515.996094 L 156.027344 515.996094 L 156.027344 514.914062 L 142.28125 514.914062 Z M 142.28125 515.996094 "/>
</g>
<path style=" stroke:none;fill-rule:nonzero;fill:rgb(0%,0%,0%);fill-opacity:1;" d="M 162.164062 519.054688 L 161.210938 521.699219 L 153.078125 521.699219 L 153.078125 521.332031 C 155.464844 519.148438 157.144531 517.363281 158.121094 515.976562 C 159.097656 514.589844 159.582031 513.324219 159.582031 512.179688 C 159.582031 511.316406 159.316406 510.601562 158.78125 510.035156 C 158.246094 509.472656 157.605469 509.191406 156.851562 509.191406 C 156.1875 509.191406 155.582031 509.390625 155.042969 509.785156 C 154.5 510.183594 154.097656 510.765625 153.839844 511.53125 L 153.46875 511.53125 C 153.644531 510.273438 154.078125 509.308594 154.78125 508.636719 C 155.480469 507.964844 156.351562 507.628906 157.394531 507.628906 C 158.523438 507.628906 159.457031 507.988281 160.199219 508.714844 C 160.945312 509.4375 161.316406 510.28125 161.316406 511.25 C 161.316406 511.941406 161.160156 512.644531 160.839844 513.351562 C 160.335938 514.453125 159.519531 515.605469 158.390625 516.820312 C 156.714844 518.671875 155.660156 519.785156 155.226562 520.160156 L 158.824219 520.160156 C 159.5625 520.160156 160.078125 520.136719 160.375 520.082031 C 160.671875 520.035156 160.9375 519.925781 161.179688 519.757812 C 161.414062 519.59375 161.621094 519.359375 161.796875 519.054688 L 162.164062 519.054688 "/>
<path style="fill:none;stroke-width:1.2;stroke-linecap:butt;stroke-linejoin:round;stroke:rgb(0%,0%,0%);stroke-opacity:1;stroke-miterlimit:10;" d="M 2157.539062 582.734375 L 2157.539062 527.265625 " transform="matrix(0.1,0,0,-0.1,0,555)"/>
<g clip-path="url(#clip4)" clip-rule="nonzero">
<path style=" stroke:none;fill-rule:nonzero;fill:rgb(0%,0%,0%);fill-opacity:1;" d="M 207.496094 515.996094 L 221.242188 515.996094 L 221.242188 514.914062 L 207.496094 514.914062 Z M 207.496094 515.996094 "/>
</g>
<path style=" stroke:none;fill-rule:nonzero;fill:rgb(0%,0%,0%);fill-opacity:1;" d="M 220.285156 509.277344 L 223.625 507.628906 L 223.972656 507.628906 L 223.972656 519.273438 C 223.972656 520.039062 224.003906 520.519531 224.070312 520.714844 C 224.136719 520.90625 224.269531 521.054688 224.472656 521.15625 C 224.675781 521.257812 225.085938 521.316406 225.707031 521.332031 L 225.707031 521.699219 L 220.523438 521.699219 L 220.523438 521.332031 C 221.175781 521.316406 221.59375 521.257812 221.78125 521.15625 C 221.972656 521.054688 222.101562 520.921875 222.171875 520.757812 C 222.246094 520.589844 222.28125 520.09375 222.28125 519.273438 L 222.28125 511.835938 C 222.28125 510.824219 222.253906 510.179688 222.195312 509.90625 C 222.136719 509.6875 222.046875 509.53125 221.925781 509.429688 C 221.800781 509.328125 221.652344 509.277344 221.480469 509.277344 C 221.21875 509.277344 220.871094 509.378906 220.4375 509.582031 L 220.285156 509.277344 "/>
<path style="fill:none;stroke-width:1.2;stroke-linecap:butt;stroke-linejoin:round;stroke:rgb(0%,0%,0%);stroke-opacity:1;stroke-miterlimit:10;" d="M 2809.6875 582.734375 L 2809.6875 527.265625 " transform="matrix(0.1,0,0,-0.1,0,555)"/>
<path style=" stroke:none;fill-rule:nonzero;fill:rgb(0%,0%,0%);fill-opacity:1;" d="M 276.871094 514.890625 C 276.871094 513.316406 277.105469 511.960938 277.574219 510.828125 C 278.046875 509.691406 278.679688 508.851562 279.472656 508.300781 C 280.078125 507.851562 280.707031 507.628906 281.359375 507.628906 C 282.414062 507.628906 283.359375 508.171875 284.199219 509.253906 C 285.253906 510.585938 285.78125 512.390625 285.78125 514.675781 C 285.78125 516.277344 285.550781 517.636719 285.085938 518.75 C 284.625 519.863281 284.035156 520.671875 283.320312 521.179688 C 282.605469 521.683594 281.914062 521.9375 281.25 521.9375 C 279.933594 521.9375 278.84375 521.164062 277.976562 519.617188 C 277.238281 518.304688 276.871094 516.726562 276.871094 514.890625 Z M 278.863281 515.152344 C 278.863281 517.042969 279.097656 518.59375 279.558594 519.792969 C 279.949219 520.804688 280.527344 521.308594 281.292969 521.308594 C 281.652344 521.308594 282.03125 521.144531 282.421875 520.808594 C 282.8125 520.476562 283.105469 519.929688 283.308594 519.160156 C 283.628906 517.992188 283.785156 516.34375 283.785156 514.21875 C 283.785156 512.660156 283.621094 511.351562 283.285156 510.296875 C 283.058594 509.515625 282.746094 508.964844 282.355469 508.648438 C 282.082031 508.417969 281.742188 508.300781 281.335938 508.300781 C 280.886719 508.300781 280.484375 508.511719 280.121094 508.929688 C 279.632812 509.492188 279.296875 510.378906 279.125 511.585938 C 278.949219 512.792969 278.863281 513.980469 278.863281 515.152344 "/>
<path style="fill:none;stroke-width:1.2;stroke-linecap:butt;stroke-linejoin:round;stroke:rgb(0%,0%,0%);stroke-opacity:1;stroke-miterlimit:10;" d="M 3461.796875 582.734375 L 3461.796875 527.265625 " transform="matrix(0.1,0,0,-0.1,0,555)"/>
<path style=" stroke:none;fill-rule:nonzero;fill:rgb(0%,0%,0%);fill-opacity:1;" d="M 343.773438 509.277344 L 347.113281 507.628906 L 347.460938 507.628906 L 347.460938 519.273438 C 347.460938 520.039062 347.492188 520.519531 347.558594 520.714844 C 347.621094 520.90625 347.757812 521.054688 347.960938 521.15625 C 348.160156 521.257812 348.574219 521.316406 349.191406 521.332031 L 349.191406 521.699219 L 344.011719 521.699219 L 344.011719 521.332031 C 344.664062 521.316406 345.082031 521.257812 345.269531 521.15625 C 345.457031 521.054688 345.589844 520.921875 345.660156 520.757812 C 345.734375 520.589844 345.769531 520.09375 345.769531 519.273438 L 345.769531 511.835938 C 345.769531 510.824219 345.738281 510.179688 345.683594 509.90625 C 345.625 509.6875 345.53125 509.53125 345.410156 509.429688 C 345.289062 509.328125 345.140625 509.277344 344.96875 509.277344 C 344.707031 509.277344 344.359375 509.378906 343.925781 509.582031 L 343.773438 509.277344 "/>
<path style="fill:none;stroke-width:1.2;stroke-linecap:butt;stroke-linejoin:round;stroke:rgb(0%,0%,0%);stroke-opacity:1;stroke-miterlimit:10;" d="M 4113.945312 582.734375 L 4113.945312 527.265625 " transform="matrix(0.1,0,0,-0.1,0,555)"/>
<path style=" stroke:none;fill-rule:nonzero;fill:rgb(0%,0%,0%);fill-opacity:1;" d="M 416.078125 519.054688 L 415.121094 521.699219 L 406.992188 521.699219 L 406.992188 521.332031 C 409.375 519.148438 411.058594 517.363281 412.03125 515.976562 C 413.007812 514.589844 413.496094 513.324219 413.496094 512.179688 C 413.496094 511.316406 413.226562 510.601562 412.695312 510.035156 C 412.160156 509.472656 411.515625 509.191406 410.765625 509.191406 C 410.097656 509.191406 409.496094 509.390625 408.953125 509.785156 C 408.410156 510.183594 408.011719 510.765625 407.753906 511.53125 L 407.382812 511.53125 C 407.554688 510.273438 407.992188 509.308594 408.695312 508.636719 C 409.394531 507.964844 410.265625 507.628906 411.304688 507.628906 C 412.433594 507.628906 413.371094 507.988281 414.113281 508.714844 C 414.859375 509.4375 415.230469 510.28125 415.230469 511.25 C 415.230469 511.941406 415.070312 512.644531 414.753906 513.351562 C 414.246094 514.453125 413.429688 515.605469 412.304688 516.820312 C 410.628906 518.671875 409.570312 519.785156 409.140625 520.160156 L 412.738281 520.160156 C 413.476562 520.160156 413.992188 520.136719 414.285156 520.082031 C 414.585938 520.035156 414.851562 519.925781 415.089844 519.757812 C 415.328125 519.59375 415.535156 519.359375 415.707031 519.054688 L 416.078125 519.054688 "/>
<path style="fill:none;stroke-width:1.2;stroke-linecap:butt;stroke-linejoin:round;stroke:rgb(0%,0%,0%);stroke-opacity:1;stroke-miterlimit:10;" d="M 4766.054688 582.734375 L 4766.054688 527.265625 " transform="matrix(0.1,0,0,-0.1,0,555)"/>
<path style=" stroke:none;fill-rule:nonzero;fill:rgb(0%,0%,0%);fill-opacity:1;" d="M 472.8125 510.535156 C 473.199219 509.609375 473.695312 508.894531 474.296875 508.386719 C 474.898438 507.882812 475.644531 507.628906 476.539062 507.628906 C 477.640625 507.628906 478.484375 507.988281 479.078125 508.714844 C 479.523438 509.25 479.75 509.820312 479.75 510.425781 C 479.75 511.4375 479.121094 512.476562 477.863281 513.546875 C 478.703125 513.878906 479.335938 514.351562 479.769531 514.96875 C 480.203125 515.582031 480.421875 516.308594 480.421875 517.144531 C 480.421875 518.332031 480.046875 519.359375 479.292969 520.226562 C 478.296875 521.367188 476.867188 521.9375 475 521.9375 C 474.0625 521.9375 473.425781 521.824219 473.09375 521.589844 C 472.761719 521.359375 472.59375 521.113281 472.59375 520.851562 C 472.59375 520.652344 472.675781 520.476562 472.835938 520.332031 C 472.992188 520.1875 473.179688 520.117188 473.398438 520.117188 C 473.570312 520.117188 473.742188 520.144531 473.917969 520.203125 C 474.03125 520.230469 474.296875 520.351562 474.707031 520.5625 C 475.121094 520.769531 475.398438 520.898438 475.542969 520.941406 C 475.804688 521.011719 476.070312 521.050781 476.34375 521.050781 C 477.039062 521.050781 477.644531 520.78125 478.15625 520.246094 C 478.671875 519.710938 478.925781 519.082031 478.925781 518.359375 C 478.925781 517.828125 478.808594 517.304688 478.578125 516.800781 C 478.390625 516.410156 478.195312 516.121094 477.992188 515.933594 C 477.703125 515.65625 477.304688 515.410156 476.789062 515.195312 C 476.277344 514.980469 475.761719 514.871094 475.238281 514.871094 L 474.914062 514.871094 L 474.914062 514.542969 C 475.449219 514.488281 475.984375 514.300781 476.519531 513.980469 C 477.054688 513.664062 477.445312 513.28125 477.691406 512.832031 C 477.9375 512.382812 478.058594 511.894531 478.058594 511.355469 C 478.058594 510.664062 477.839844 510.101562 477.40625 509.667969 C 476.972656 509.234375 476.433594 509.015625 475.78125 509.015625 C 474.726562 509.015625 473.84375 509.582031 473.136719 510.707031 L 472.8125 510.535156 "/>
<path style="fill:none;stroke-width:1.2;stroke-linecap:butt;stroke-linejoin:round;stroke:rgb(0%,0%,0%);stroke-opacity:1;stroke-miterlimit:10;" d="M 5418.164062 582.734375 L 5418.164062 527.265625 " transform="matrix(0.1,0,0,-0.1,0,555)"/>
<path style=" stroke:none;fill-rule:nonzero;fill:rgb(0%,0%,0%);fill-opacity:1;" d="M 546.652344 516.625 L 546.652344 518.058594 L 544.789062 518.058594 L 544.789062 521.699219 L 543.117188 521.699219 L 543.117188 518.058594 L 537.285156 518.058594 L 537.285156 516.757812 L 543.683594 507.628906 L 544.789062 507.628906 L 544.789062 516.625 Z M 543.117188 516.625 L 543.117188 509.777344 L 538.285156 516.625 L 543.117188 516.625 "/>
<path style="fill:none;stroke-width:1.2;stroke-linecap:butt;stroke-linejoin:round;stroke:rgb(0%,0%,0%);stroke-opacity:1;stroke-miterlimit:10;" d="M 527.265625 582.734375 L 527.265625 555 " transform="matrix(0.1,0,0,-0.1,0,555)"/>
<path style="fill:none;stroke-width:1.2;stroke-linecap:butt;stroke-linejoin:round;stroke:rgb(0%,0%,0%);stroke-opacity:1;stroke-miterlimit:10;" d="M 1179.375 582.734375 L 1179.375 555 " transform="matrix(0.1,0,0,-0.1,0,555)"/>
<path style="fill:none;stroke-width:1.2;stroke-linecap:butt;stroke-linejoin:round;stroke:rgb(0%,0%,0%);stroke-opacity:1;stroke-miterlimit:10;" d="M 1831.484375 582.734375 L 1831.484375 555 " transform="matrix(0.1,0,0,-0.1,0,555)"/>
<path style="fill:none;stroke-width:1.2;stroke-linecap:butt;stroke-linejoin:round;stroke:rgb(0%,0%,0%);stroke-opacity:1;stroke-miterlimit:10;" d="M 2483.59375 582.734375 L 2483.59375 555 " transform="matrix(0.1,0,0,-0.1,0,555)"/>
<path style="fill:none;stroke-width:1.2;stroke-linecap:butt;stroke-linejoin:round;stroke:rgb(0%,0%,0%);stroke-opacity:1;stroke-miterlimit:10;" d="M 3135.742188 582.734375 L 3135.742188 555 " transform="matrix(0.1,0,0,-0.1,0,555)"/>
<path style="fill:none;stroke-width:1.2;stroke-linecap:butt;stroke-linejoin:round;stroke:rgb(0%,0%,0%);stroke-opacity:1;stroke-miterlimit:10;" d="M 3787.851562 582.734375 L 3787.851562 555 " transform="matrix(0.1,0,0,-0.1,0,555)"/>
<path style="fill:none;stroke-width:1.2;stroke-linecap:butt;stroke-linejoin:round;stroke:rgb(0%,0%,0%);stroke-opacity:1;stroke-miterlimit:10;" d="M 4439.960938 582.734375 L 4439.960938 555 " transform="matrix(0.1,0,0,-0.1,0,555)"/>
<path style="fill:none;stroke-width:1.2;stroke-linecap:butt;stroke-linejoin:round;stroke:rgb(0%,0%,0%);stroke-opacity:1;stroke-miterlimit:10;" d="M 5092.109375 582.734375 L 5092.109375 555 " transform="matrix(0.1,0,0,-0.1,0,555)"/>
<path style="fill:none;stroke-width:13.875;stroke-linecap:butt;stroke-linejoin:round;stroke:rgb(0%,0%,0%);stroke-opacity:1;stroke-miterlimit:10;" d="M 2809.6875 582.734375 L 2809.6875 5434.453125 " transform="matrix(0.1,0,0,-0.1,0,555)"/>
<path style="fill:none;stroke-width:1.2;stroke-linecap:butt;stroke-linejoin:round;stroke:rgb(0%,0%,0%);stroke-opacity:1;stroke-miterlimit:10;" d="M 2809.6875 610.46875 L 2754.179688 610.46875 " transform="matrix(0.1,0,0,-0.1,0,555)"/>
<path style="fill:none;stroke-width:1.2;stroke-linecap:butt;stroke-linejoin:round;stroke:rgb(0%,0%,0%);stroke-opacity:1;stroke-miterlimit:10;" d="M 2809.6875 1559.570312 L 2754.179688 1559.570312 " transform="matrix(0.1,0,0,-0.1,0,555)"/>
<path style=" stroke:none;fill-rule:nonzero;fill:rgb(0%,0%,0%);fill-opacity:1;" d="M 270.390625 403.890625 L 269.433594 406.535156 L 261.304688 406.535156 L 261.304688 406.167969 C 263.6875 403.984375 265.367188 402.203125 266.34375 400.8125 C 267.320312 399.425781 267.808594 398.160156 267.808594 397.019531 C 267.808594 396.152344 267.539062 395.4375 267.007812 394.871094 C 266.472656 394.308594 265.828125 394.027344 265.074219 394.027344 C 264.410156 394.027344 263.808594 394.226562 263.265625 394.625 C 262.726562 395.019531 262.324219 395.601562 262.0625 396.367188 L 261.695312 396.367188 C 261.867188 395.109375 262.304688 394.148438 263.007812 393.472656 C 263.707031 392.804688 264.578125 392.46875 265.617188 392.46875 C 266.746094 392.46875 267.683594 392.828125 268.425781 393.550781 C 269.171875 394.273438 269.542969 395.117188 269.542969 396.085938 C 269.542969 396.78125 269.382812 397.484375 269.066406 398.191406 C 268.5625 399.289062 267.742188 400.445312 266.617188 401.660156 C 264.9375 403.507812 263.882812 404.621094 263.453125 404.996094 L 267.050781 404.996094 C 267.789062 404.996094 268.304688 404.972656 268.597656 404.921875 C 268.894531 404.871094 269.164062 404.761719 269.402344 404.597656 C 269.640625 404.429688 269.847656 404.195312 270.019531 403.890625 L 270.390625 403.890625 "/>
<path style="fill:none;stroke-width:1.2;stroke-linecap:butt;stroke-linejoin:round;stroke:rgb(0%,0%,0%);stroke-opacity:1;stroke-miterlimit:10;" d="M 2809.6875 2508.671875 L 2754.179688 2508.671875 " transform="matrix(0.1,0,0,-0.1,0,555)"/>
<path style=" stroke:none;fill-rule:nonzero;fill:rgb(0%,0%,0%);fill-opacity:1;" d="M 261.910156 301.023438 C 262.300781 300.097656 262.796875 299.382812 263.394531 298.875 C 263.996094 298.371094 264.746094 298.117188 265.640625 298.117188 C 266.738281 298.117188 267.585938 298.476562 268.175781 299.199219 C 268.625 299.734375 268.847656 300.304688 268.847656 300.914062 C 268.847656 301.925781 268.21875 302.964844 266.964844 304.035156 C 267.800781 304.367188 268.4375 304.839844 268.871094 305.453125 C 269.304688 306.070312 269.523438 306.796875 269.523438 307.632812 C 269.523438 308.820312 269.144531 309.84375 268.394531 310.710938 C 267.394531 311.855469 265.964844 312.425781 264.101562 312.425781 C 263.160156 312.425781 262.527344 312.308594 262.191406 312.078125 C 261.859375 311.847656 261.695312 311.601562 261.695312 311.339844 C 261.695312 311.140625 261.773438 310.964844 261.933594 310.820312 C 262.09375 310.675781 262.28125 310.605469 262.496094 310.605469 C 262.671875 310.605469 262.84375 310.632812 263.015625 310.691406 C 263.132812 310.71875 263.394531 310.839844 263.808594 311.046875 C 264.21875 311.257812 264.5 311.382812 264.644531 311.429688 C 264.902344 311.5 265.171875 311.535156 265.445312 311.535156 C 266.140625 311.535156 266.742188 311.269531 267.257812 310.734375 C 267.769531 310.199219 268.023438 309.570312 268.023438 308.847656 C 268.023438 308.3125 267.910156 307.792969 267.679688 307.285156 C 267.492188 306.898438 267.296875 306.609375 267.09375 306.421875 C 266.804688 306.144531 266.402344 305.898438 265.890625 305.683594 C 265.378906 305.464844 264.859375 305.359375 264.339844 305.359375 L 264.015625 305.359375 L 264.015625 305.03125 C 264.550781 304.976562 265.085938 304.785156 265.617188 304.46875 C 266.152344 304.152344 266.542969 303.769531 266.789062 303.320312 C 267.035156 302.871094 267.15625 302.378906 267.15625 301.84375 C 267.15625 301.152344 266.941406 300.589844 266.507812 300.15625 C 266.074219 299.722656 265.53125 299.503906 264.882812 299.503906 C 263.824219 299.503906 262.945312 300.066406 262.238281 301.195312 L 261.910156 301.023438 "/>
<path style="fill:none;stroke-width:1.2;stroke-linecap:butt;stroke-linejoin:round;stroke:rgb(0%,0%,0%);stroke-opacity:1;stroke-miterlimit:10;" d="M 2809.6875 3457.734375 L 2754.179688 3457.734375 " transform="matrix(0.1,0,0,-0.1,0,555)"/>
<path style=" stroke:none;fill-rule:nonzero;fill:rgb(0%,0%,0%);fill-opacity:1;" d="M 270.539062 211.375 L 270.539062 212.808594 L 268.675781 212.808594 L 268.675781 216.449219 L 267.007812 216.449219 L 267.007812 212.808594 L 261.175781 212.808594 L 261.175781 211.507812 L 267.570312 202.378906 L 268.675781 202.378906 L 268.675781 211.375 Z M 267.007812 211.375 L 267.007812 204.527344 L 262.171875 211.375 L 267.007812 211.375 "/>
<path style="fill:none;stroke-width:1.2;stroke-linecap:butt;stroke-linejoin:round;stroke:rgb(0%,0%,0%);stroke-opacity:1;stroke-miterlimit:10;" d="M 2809.6875 4406.835938 L 2754.179688 4406.835938 " transform="matrix(0.1,0,0,-0.1,0,555)"/>
<path style=" stroke:none;fill-rule:nonzero;fill:rgb(0%,0%,0%);fill-opacity:1;" d="M 269.890625 108.3125 L 269.089844 110.046875 L 264.945312 110.046875 L 264.035156 111.890625 C 265.828125 112.164062 267.253906 112.835938 268.308594 113.90625 C 269.203125 114.816406 269.652344 115.898438 269.652344 117.15625 C 269.652344 117.878906 269.507812 118.546875 269.21875 119.160156 C 268.929688 119.777344 268.5625 120.300781 268.113281 120.734375 C 267.664062 121.167969 267.164062 121.515625 266.617188 121.773438 C 265.835938 122.148438 265.03125 122.339844 264.210938 122.339844 C 263.386719 122.339844 262.785156 122.199219 262.410156 121.914062 C 262.035156 121.632812 261.847656 121.328125 261.847656 120.992188 C 261.847656 120.804688 261.925781 120.640625 262.085938 120.496094 C 262.246094 120.351562 262.4375 120.277344 262.671875 120.277344 C 262.84375 120.277344 262.996094 120.304688 263.125 120.355469 C 263.257812 120.40625 263.480469 120.546875 263.796875 120.777344 C 264.320312 121.125 264.839844 121.296875 265.359375 121.296875 C 266.152344 121.296875 266.847656 120.996094 267.441406 120.398438 C 268.03125 119.796875 268.328125 119.066406 268.328125 118.199219 C 268.328125 117.375 268.0625 116.601562 267.527344 115.878906 C 266.992188 115.15625 266.253906 114.597656 265.316406 114.210938 C 264.578125 113.90625 263.574219 113.722656 262.300781 113.664062 L 264.945312 108.3125 L 269.890625 108.3125 "/>
<path style="fill:none;stroke-width:1.2;stroke-linecap:butt;stroke-linejoin:round;stroke:rgb(0%,0%,0%);stroke-opacity:1;stroke-miterlimit:10;" d="M 2809.6875 5355.9375 L 2754.179688 5355.9375 " transform="matrix(0.1,0,0,-0.1,0,555)"/>
<path style=" stroke:none;fill-rule:nonzero;fill:rgb(0%,0%,0%);fill-opacity:1;" d="M 270.171875 12.292969 L 270.171875 12.683594 C 269.273438 12.769531 268.546875 12.945312 267.980469 13.214844 C 267.417969 13.480469 266.863281 13.890625 266.3125 14.4375 C 265.761719 14.988281 265.308594 15.597656 264.945312 16.269531 C 264.585938 16.941406 264.28125 17.742188 264.035156 18.664062 C 265.003906 18 265.980469 17.667969 266.964844 17.667969 C 267.902344 17.667969 268.71875 18.046875 269.410156 18.808594 C 270.105469 19.566406 270.453125 20.539062 270.453125 21.722656 C 270.453125 22.878906 270.105469 23.933594 269.410156 24.886719 C 268.574219 26.03125 267.460938 26.601562 266.074219 26.601562 C 265.136719 26.601562 264.332031 26.289062 263.667969 25.667969 C 262.382812 24.453125 261.738281 22.886719 261.738281 20.964844 C 261.738281 19.722656 261.988281 18.546875 262.484375 17.441406 C 262.984375 16.335938 263.691406 15.347656 264.609375 14.480469 C 265.527344 13.613281 266.40625 13.03125 267.246094 12.738281 C 268.082031 12.441406 268.863281 12.292969 269.585938 12.292969 Z M 263.863281 19.402344 C 263.734375 20.328125 263.667969 21.074219 263.667969 21.636719 C 263.667969 22.285156 263.789062 22.992188 264.035156 23.75 C 264.28125 24.507812 264.636719 25.113281 265.097656 25.558594 C 265.445312 25.878906 265.871094 26.035156 266.378906 26.035156 C 266.957031 26.035156 267.480469 25.757812 267.949219 25.203125 C 268.417969 24.644531 268.65625 23.855469 268.65625 22.828125 C 268.65625 21.671875 268.421875 20.671875 267.960938 19.824219 C 267.496094 18.980469 266.839844 18.558594 265.988281 18.558594 C 265.726562 18.558594 265.453125 18.613281 265.164062 18.71875 C 264.875 18.828125 264.441406 19.054688 263.863281 19.402344 "/>
<path style="fill:none;stroke-width:1.2;stroke-linecap:butt;stroke-linejoin:round;stroke:rgb(0%,0%,0%);stroke-opacity:1;stroke-miterlimit:10;" d="M 2809.6875 1085 L 2781.914062 1085 " transform="matrix(0.1,0,0,-0.1,0,555)"/>
<path style="fill:none;stroke-width:1.2;stroke-linecap:butt;stroke-linejoin:round;stroke:rgb(0%,0%,0%);stroke-opacity:1;stroke-miterlimit:10;" d="M 2809.6875 2034.101562 L 2781.914062 2034.101562 " transform="matrix(0.1,0,0,-0.1,0,555)"/>
<path style="fill:none;stroke-width:1.2;stroke-linecap:butt;stroke-linejoin:round;stroke:rgb(0%,0%,0%);stroke-opacity:1;stroke-miterlimit:10;" d="M 2809.6875 2983.203125 L 2781.914062 2983.203125 " transform="matrix(0.1,0,0,-0.1,0,555)"/>
<path style="fill:none;stroke-width:1.2;stroke-linecap:butt;stroke-linejoin:round;stroke:rgb(0%,0%,0%);stroke-opacity:1;stroke-miterlimit:10;" d="M 2809.6875 3932.304688 L 2781.914062 3932.304688 " transform="matrix(0.1,0,0,-0.1,0,555)"/>
<path style="fill:none;stroke-width:1.2;stroke-linecap:butt;stroke-linejoin:round;stroke:rgb(0%,0%,0%);stroke-opacity:1;stroke-miterlimit:10;" d="M 2809.6875 4881.367188 L 2781.914062 4881.367188 " transform="matrix(0.1,0,0,-0.1,0,555)"/>
</g>
</svg>
