<?xml version="1.0" encoding="UTF-8"?>
<svg xmlns="http://www.w3.org/2000/svg" xmlns:xlink="http://www.w3.org/1999/xlink" width="555pt" height="555pt" viewBox="0 0 555 555" version="1.1">
<defs>
<clipPath id="clip1">
  <path d="M 17.34375 15.289062 L 478 15.289062 L 478 457 L 17.34375 457 Z M 17.34375 15.289062 "/>
</clipPath>
<clipPath id="clip2">
  <path d="M 11 297 L 19.425781 297 L 19.425781 299 L 11 299 Z M 11 297 "/>
</clipPath>
<clipPath id="clip3">
  <path d="M 77 297 L 84.636719 297 L 84.636719 299 L 77 299 Z M 77 297 "/>
</clipPath>
<clipPath id="clip4">
  <path d="M 142 297 L 149.851562 297 L 149.851562 299 L 142 299 Z M 142 297 "/>
</clipPath>
<clipPath id="clip5">
  <path d="M 207 297 L 215.0625 297 L 215.0625 299 L 207 299 Z M 207 297 "/>
</clipPath>
<clipPath id="clip6">
  <path d="M 225 146 L 237 146 L 237 159.5625 L 225 159.5625 Z M 225 146 "/>
</clipPath>
<clipPath id="clip7">
  <path d="M 250 535 L 258.074219 535 L 258.074219 537 L 250 537 Z M 250 535 "/>
</clipPath>
<clipPath id="clip8">
  <path d="M 250 471 L 258.074219 471 L 258.074219 473 L 250 473 Z M 250 471 "/>
</clipPath>
<clipPath id="clip9">
  <path d="M 250 406 L 258.074219 406 L 258.074219 408 L 250 408 Z M 250 406 "/>
</clipPath>
<clipPath id="clip10">
  <path d="M 250 342 L 258.074219 342 L 258.074219 344 L 250 344 Z M 250 342 "/>
</clipPath>
</defs>
<g id="surface1">
<rect x="0" y="0" width="555" height="555" style="fill:rgb(100%,100%,100%);fill-opacity:1;stroke:none;"/>
<path style="fill:none;stroke-width:13.875;stroke-linecap:butt;stroke-linejoin:round;stroke:rgb(64.646912%,64.646912%,64.646912%);stroke-opacity:1;stroke-miterlimit:10;" d="M 201.171875 201.171875 L 201.171875 5355.507812 " transform="matrix(0.1,0,0,-0.1,0,555)"/>
<path style="fill:none;stroke-width:13.875;stroke-linecap:butt;stroke-linejoin:round;stroke:rgb(64.646912%,64.646912%,64.646912%);stroke-opacity:1;stroke-miterlimit:10;" d="M 853.320312 201.171875 L 853.320312 5355.507812 " transform="matrix(0.1,0,0,-0.1,0,555)"/>
<path style="fill:none;stroke-width:13.875;stroke-linecap:butt;stroke-linejoin:round;stroke:rgb(64.646912%,64.646912%,64.646912%);stroke-opacity:1;stroke-miterlimit:10;" d="M 1505.390625 201.171875 L 1505.390625 5355.507812 " transform="matrix(0.1,0,0,-0.1,0,555)"/>
<path style="fill:none;stroke-width:13.875;stroke-linecap:butt;stroke-linejoin:round;stroke:rgb(64.646912%,64.646912%,64.646912%);stroke-opacity:1;stroke-miterlimit:10;" d="M 2157.539062 201.171875 L 2157.539062 5355.507812 " transform="matrix(0.1,0,0,-0.1,0,555)"/>
<path style="fill:none;stroke-width:13.875;stroke-linecap:butt;stroke-linejoin:round;stroke:rgb(64.646912%,64.646912%,64.646912%);stroke-opacity:1;stroke-miterlimit:10;" d="M 2809.648438 201.171875 L 2809.648438 5355.507812 " transform="matrix(0.1,0,0,-0.1,0,555)"/>
<path style="fill:none;stroke-width:13.875;stroke-linecap:butt;stroke-linejoin:round;stroke:rgb(64.646912%,64.646912%,64.646912%);stroke-opacity:1;stroke-miterlimit:10;" d="M 3461.757812 201.171875 L 3461.757812 5355.507812 " transform="matrix(0.1,0,0,-0.1,0,555)"/>
<path style="fill:none;stroke-width:13.875;stroke-linecap:butt;stroke-linejoin:round;stroke:rgb(64.646912%,64.646912%,64.646912%);stroke-opacity:1;stroke-miterlimit:10;" d="M 4113.867188 201.171875 L 4113.867188 5355.507812 " transform="matrix(0.1,0,0,-0.1,0,555)"/>
<path style="fill:none;stroke-width:13.875;stroke-linecap:butt;stroke-linejoin:round;stroke:rgb(64.646912%,64.646912%,64.646912%);stroke-opacity:1;stroke-miterlimit:10;" d="M 4765.976562 201.171875 L 4765.976562 5355.507812 " transform="matrix(0.1,0,0,-0.1,0,555)"/>
<path style="fill:none;stroke-width:13.875;stroke-linecap:butt;stroke-linejoin:round;stroke:rgb(64.646912%,64.646912%,64.646912%);stroke-opacity:1;stroke-miterlimit:10;" d="M 5418.085938 201.171875 L 5418.085938 5355.507812 " transform="matrix(0.1,0,0,-0.1,0,555)"/>
<path style="fill:none;stroke-width:13.875;stroke-linecap:butt;stroke-linejoin:round;stroke:rgb(91.40625%,91.40625%,91.40625%);stroke-opacity:1;stroke-miterlimit:10;" d="M 527.226562 201.171875 L 527.226562 5355.507812 " transform="matrix(0.1,0,0,-0.1,0,555)"/>
<path style="fill:none;stroke-width:13.875;stroke-linecap:butt;stroke-linejoin:round;stroke:rgb(91.40625%,91.40625%,91.40625%);stroke-opacity:1;stroke-miterlimit:10;" d="M 1179.375 201.171875 L 1179.375 5355.507812 " transform="matrix(0.1,0,0,-0.1,0,555)"/>
<path style="fill:none;stroke-width:13.875;stroke-linecap:butt;stroke-linejoin:round;stroke:rgb(91.40625%,91.40625%,91.40625%);stroke-opacity:1;stroke-miterlimit:10;" d="M 1831.445312 201.171875 L 1831.445312 5355.507812 " transform="matrix(0.1,0,0,-0.1,0,555)"/>
<path style="fill:none;stroke-width:13.875;stroke-linecap:butt;stroke-linejoin:round;stroke:rgb(91.40625%,91.40625%,91.40625%);stroke-opacity:1;stroke-miterlimit:10;" d="M 2483.59375 201.171875 L 2483.59375 5355.507812 " transform="matrix(0.1,0,0,-0.1,0,555)"/>
<path style="fill:none;stroke-width:13.875;stroke-linecap:butt;stroke-linejoin:round;stroke:rgb(91.40625%,91.40625%,91.40625%);stroke-opacity:1;stroke-miterlimit:10;" d="M 3135.703125 201.171875 L 3135.703125 5355.507812 " transform="matrix(0.1,0,0,-0.1,0,555)"/>
<path style="fill:none;stroke-width:13.875;stroke-linecap:butt;stroke-linejoin:round;stroke:rgb(91.40625%,91.40625%,91.40625%);stroke-opacity:1;stroke-miterlimit:10;" d="M 3787.8125 201.171875 L 3787.8125 5355.507812 " transform="matrix(0.1,0,0,-0.1,0,555)"/>
<path style="fill:none;stroke-width:13.875;stroke-linecap:butt;stroke-linejoin:round;stroke:rgb(91.40625%,91.40625%,91.40625%);stroke-opacity:1;stroke-miterlimit:10;" d="M 4439.921875 201.171875 L 4439.921875 5355.507812 " transform="matrix(0.1,0,0,-0.1,0,555)"/>
<path style="fill:none;stroke-width:13.875;stroke-linecap:butt;stroke-linejoin:round;stroke:rgb(91.40625%,91.40625%,91.40625%);stroke-opacity:1;stroke-miterlimit:10;" d="M 5092.03125 201.171875 L 5092.03125 5355.507812 " transform="matrix(0.1,0,0,-0.1,0,555)"/>
<path style="fill:none;stroke-width:13.875;stroke-linecap:butt;stroke-linejoin:round;stroke:rgb(64.646912%,64.646912%,64.646912%);stroke-opacity:1;stroke-miterlimit:10;" d="M 201.171875 201.171875 L 5418.085938 201.171875 " transform="matrix(0.1,0,0,-0.1,0,555)"/>
<path style="fill:none;stroke-width:13.875;stroke-linecap:butt;stroke-linejoin:round;stroke:rgb(64.646912%,64.646912%,64.646912%);stroke-opacity:1;stroke-miterlimit:10;" d="M 201.171875 845.46875 L 5418.085938 845.46875 " transform="matrix(0.1,0,0,-0.1,0,555)"/>
<path style="fill:none;stroke-width:13.875;stroke-linecap:butt;stroke-linejoin:round;stroke:rgb(64.646912%,64.646912%,64.646912%);stroke-opacity:1;stroke-miterlimit:10;" d="M 201.171875 1489.765625 L 5418.085938 1489.765625 " transform="matrix(0.1,0,0,-0.1,0,555)"/>
<path style="fill:none;stroke-width:13.875;stroke-linecap:butt;stroke-linejoin:round;stroke:rgb(64.646912%,64.646912%,64.646912%);stroke-opacity:1;stroke-miterlimit:10;" d="M 201.171875 2134.0625 L 5418.085938 2134.0625 " transform="matrix(0.1,0,0,-0.1,0,555)"/>
<path style="fill:none;stroke-width:13.875;stroke-linecap:butt;stroke-linejoin:round;stroke:rgb(64.646912%,64.646912%,64.646912%);stroke-opacity:1;stroke-miterlimit:10;" d="M 201.171875 2778.359375 L 5418.085938 2778.359375 " transform="matrix(0.1,0,0,-0.1,0,555)"/>
<path style="fill:none;stroke-width:13.875;stroke-linecap:butt;stroke-linejoin:round;stroke:rgb(64.646912%,64.646912%,64.646912%);stroke-opacity:1;stroke-miterlimit:10;" d="M 201.171875 3422.617188 L 5418.085938 3422.617188 " transform="matrix(0.1,0,0,-0.1,0,555)"/>
<path style="fill:none;stroke-width:13.875;stroke-linecap:butt;stroke-linejoin:round;stroke:rgb(64.646912%,64.646912%,64.646912%);stroke-opacity:1;stroke-miterlimit:10;" d="M 201.171875 4066.914062 L 5418.085938 4066.914062 " transform="matrix(0.1,0,0,-0.1,0,555)"/>
<path style="fill:none;stroke-width:13.875;stroke-linecap:butt;stroke-linejoin:round;stroke:rgb(64.646912%,64.646912%,64.646912%);stroke-opacity:1;stroke-miterlimit:10;" d="M 201.171875 4711.210938 L 5418.085938 4711.210938 " transform="matrix(0.1,0,0,-0.1,0,555)"/>
<path style="fill:none;stroke-width:13.875;stroke-linecap:butt;stroke-linejoin:round;stroke:rgb(64.646912%,64.646912%,64.646912%);stroke-opacity:1;stroke-miterlimit:10;" d="M 201.171875 5355.507812 L 5418.085938 5355.507812 " transform="matrix(0.1,0,0,-0.1,0,555)"/>
<path style="fill:none;stroke-width:13.875;stroke-linecap:butt;stroke-linejoin:round;stroke:rgb(91.40625%,91.40625%,91.40625%);stroke-opacity:1;stroke-miterlimit:10;" d="M 201.171875 523.320312 L 5418.085938 523.320312 " transform="matrix(0.1,0,0,-0.1,0,555)"/>
<path style="fill:none;stroke-width:13.875;stroke-linecap:butt;stroke-linejoin:round;stroke:rgb(91.40625%,91.40625%,91.40625%);stroke-opacity:1;stroke-miterlimit:10;" d="M 201.171875 1167.617188 L 5418.085938 1167.617188 " transform="matrix(0.1,0,0,-0.1,0,555)"/>
<path style="fill:none;stroke-width:13.875;stroke-linecap:butt;stroke-linejoin:round;stroke:rgb(91.40625%,91.40625%,91.40625%);stroke-opacity:1;stroke-miterlimit:10;" d="M 201.171875 1811.914062 L 5418.085938 1811.914062 " transform="matrix(0.1,0,0,-0.1,0,555)"/>
<path style="fill:none;stroke-width:13.875;stroke-linecap:butt;stroke-linejoin:round;stroke:rgb(91.40625%,91.40625%,91.40625%);stroke-opacity:1;stroke-miterlimit:10;" d="M 201.171875 2456.210938 L 5418.085938 2456.210938 " transform="matrix(0.1,0,0,-0.1,0,555)"/>
<path style="fill:none;stroke-width:13.875;stroke-linecap:butt;stroke-linejoin:round;stroke:rgb(91.40625%,91.40625%,91.40625%);stroke-opacity:1;stroke-miterlimit:10;" d="M 201.171875 3100.507812 L 5418.085938 3100.507812 " transform="matrix(0.1,0,0,-0.1,0,555)"/>
<path style="fill:none;stroke-width:13.875;stroke-linecap:butt;stroke-linejoin:round;stroke:rgb(91.40625%,91.40625%,91.40625%);stroke-opacity:1;stroke-miterlimit:10;" d="M 201.171875 3744.765625 L 5418.085938 3744.765625 " transform="matrix(0.1,0,0,-0.1,0,555)"/>
<path style="fill:none;stroke-width:13.875;stroke-linecap:butt;stroke-linejoin:round;stroke:rgb(91.40625%,91.40625%,91.40625%);stroke-opacity:1;stroke-miterlimit:10;" d="M 201.171875 4389.0625 L 5418.085938 4389.0625 " transform="matrix(0.1,0,0,-0.1,0,555)"/>
<path style="fill:none;stroke-width:13.875;stroke-linecap:butt;stroke-linejoin:round;stroke:rgb(91.40625%,91.40625%,91.40625%);stroke-opacity:1;stroke-miterlimit:10;" d="M 201.171875 5033.359375 L 5418.085938 5033.359375 " transform="matrix(0.1,0,0,-0.1,0,555)"/>
<path style=" stroke:none;fill-rule:nonzero;fill:rgb(0%,0%,0%);fill-opacity:1;" d="M 476.925781 212.738281 L 476.273438 212.738281 L 476.273438 174.078125 L 476.925781 174.078125 L 476.925781 212.738281 "/>
<path style=" stroke:none;fill-rule:nonzero;fill:rgb(0%,0%,0%);fill-opacity:1;" d="M 466.816406 174.078125 L 476.597656 148.308594 L 486.378906 174.078125 L 466.816406 174.078125 "/>
<path style=" stroke:none;fill-rule:nonzero;fill:rgb(0%,0%,0%);fill-opacity:1;" d="M 476.597656 212.414062 L 476.597656 213.058594 L 437.46875 213.058594 L 437.46875 212.414062 L 476.597656 212.414062 "/>
<path style=" stroke:none;fill-rule:nonzero;fill:rgb(0%,0%,0%);fill-opacity:1;" d="M 437.46875 222.402344 L 411.386719 212.738281 L 437.46875 203.070312 L 437.46875 222.402344 "/>
<path style=" stroke:none;fill-rule:nonzero;fill:rgb(0%,0%,0%);fill-opacity:1;" d="M 234.707031 39.621094 L 215.753906 19.449219 L 243.457031 22.332031 L 234.707031 39.621094 "/>
<path style=" stroke:none;fill-rule:nonzero;fill:rgb(0%,0%,0%);fill-opacity:1;" d="M 346.320312 83.589844 L 346.027344 84.167969 L 238.9375 31.265625 L 239.230469 30.6875 L 346.320312 83.589844 "/>
<path style=" stroke:none;fill-rule:nonzero;fill:rgb(0%,0%,0%);fill-opacity:1;" d="M 346.320312 341.882812 L 346.027344 341.304688 L 453.121094 288.402344 L 453.414062 288.980469 L 346.320312 341.882812 "/>
<path style=" stroke:none;fill-rule:nonzero;fill:rgb(0%,0%,0%);fill-opacity:1;" d="M 448.890625 280.046875 L 476.597656 277.164062 L 457.640625 297.335938 L 448.890625 280.046875 "/>
<path style=" stroke:none;fill-rule:nonzero;fill:rgb(0%,0%,0%);fill-opacity:1;" d="M 346.175781 83.558594 L 346.175781 84.203125 L 307.046875 84.203125 L 307.046875 83.558594 L 346.175781 83.558594 "/>
<path style=" stroke:none;fill-rule:nonzero;fill:rgb(0%,0%,0%);fill-opacity:1;" d="M 307.046875 93.542969 L 280.964844 83.878906 L 307.046875 74.214844 L 307.046875 93.542969 "/>
<path style=" stroke:none;fill-rule:nonzero;fill:rgb(0%,0%,0%);fill-opacity:1;" d="M 346.175781 341.273438 L 346.175781 341.914062 L 307.046875 341.914062 L 307.046875 341.273438 L 346.175781 341.273438 "/>
<path style=" stroke:none;fill-rule:nonzero;fill:rgb(0%,0%,0%);fill-opacity:1;" d="M 307.046875 351.257812 L 280.964844 341.59375 L 307.046875 331.929688 L 307.046875 351.257812 "/>
<path style=" stroke:none;fill-rule:nonzero;fill:rgb(0%,0%,0%);fill-opacity:1;" d="M 328.644531 105.273438 L 346.175781 83.878906 L 347.207031 111.382812 L 328.644531 105.273438 "/>
<path style=" stroke:none;fill-rule:nonzero;fill:rgb(0%,0%,0%);fill-opacity:1;" d="M 281.273438 277.265625 L 280.652344 277.0625 L 337.617188 108.226562 L 338.234375 108.429688 L 281.273438 277.265625 "/>
<path style=" stroke:none;fill-rule:nonzero;fill:rgb(0%,0%,0%);fill-opacity:1;" d="M 448.757812 211.71875 L 476.597656 212.738281 L 454.945312 230.054688 L 448.757812 211.71875 "/>
<path style=" stroke:none;fill-rule:nonzero;fill:rgb(0%,0%,0%);fill-opacity:1;" d="M 281.066406 277.472656 L 280.859375 276.859375 L 451.75 220.578125 L 451.953125 221.191406 L 281.066406 277.472656 "/>
<path style=" stroke:none;fill-rule:nonzero;fill:rgb(0%,0%,0%);fill-opacity:1;" d="M 334.648438 316.535156 L 346.175781 341.59375 L 320.8125 330.203125 L 334.648438 316.535156 "/>
<path style=" stroke:none;fill-rule:nonzero;fill:rgb(0%,0%,0%);fill-opacity:1;" d="M 280.734375 277.394531 L 281.191406 276.9375 L 327.960938 323.144531 L 327.5 323.597656 L 280.734375 277.394531 "/>
<path style="fill:none;stroke-width:20.8125;stroke-linecap:butt;stroke-linejoin:round;stroke:rgb(0%,0%,0%);stroke-opacity:1;stroke-miterlimit:10;" d="M 2807.34375 2776.054688 L 2811.914062 2780.625 L 3279.609375 2318.554688 L 3346.484375 2384.648438 L 3461.757812 2134.0625 L 3208.125 2247.96875 L 3275 2314.023438 L 2807.34375 2776.054688 " transform="matrix(0.1,0,0,-0.1,0,555)"/>
<path style="fill:none;stroke-width:20.8125;stroke-linecap:butt;stroke-linejoin:round;stroke:rgb(0%,0%,0%);stroke-opacity:1;stroke-miterlimit:10;" d="M 2810.664062 2775.273438 L 2808.59375 2781.40625 L 4517.5 3344.21875 L 4487.578125 3432.8125 L 4765.976562 3422.617188 L 4549.453125 3249.453125 L 4519.53125 3338.085938 L 2810.664062 2775.273438 " transform="matrix(0.1,0,0,-0.1,0,555)"/>
<path style="fill:none;stroke-width:20.8125;stroke-linecap:butt;stroke-linejoin:round;stroke:rgb(0%,0%,0%);stroke-opacity:1;stroke-miterlimit:10;" d="M 2812.734375 2777.34375 L 2806.523438 2779.375 L 3376.171875 4467.734375 L 3286.445312 4497.265625 L 3461.757812 4711.210938 L 3472.070312 4436.171875 L 3382.34375 4465.703125 L 2812.734375 2777.34375 " transform="matrix(0.1,0,0,-0.1,0,555)"/>
<path style="fill:none;stroke-width:20.8125;stroke-linecap:butt;stroke-linejoin:round;stroke:rgb(0%,0%,0%);stroke-opacity:1;stroke-miterlimit:10;" d="M 3461.757812 2137.265625 L 3461.757812 2130.859375 L 3070.46875 2130.859375 L 3070.46875 2037.421875 L 2809.648438 2134.0625 L 3070.46875 2230.703125 L 3070.46875 2137.265625 L 3461.757812 2137.265625 " transform="matrix(0.1,0,0,-0.1,0,555)"/>
<path style="fill:none;stroke-width:20.8125;stroke-linecap:butt;stroke-linejoin:round;stroke:rgb(0%,0%,0%);stroke-opacity:1;stroke-miterlimit:10;" d="M 3461.757812 4714.414062 L 3461.757812 4707.96875 L 3070.46875 4707.96875 L 3070.46875 4614.570312 L 2809.648438 4711.210938 L 3070.46875 4807.851562 L 3070.46875 4714.414062 L 3461.757812 4714.414062 " transform="matrix(0.1,0,0,-0.1,0,555)"/>
<path style="fill:none;stroke-width:20.8125;stroke-linecap:butt;stroke-linejoin:round;stroke:rgb(0%,0%,0%);stroke-opacity:1;stroke-miterlimit:10;" d="M 3463.203125 2131.171875 L 3460.273438 2136.953125 L 4531.210938 2665.976562 L 4488.90625 2749.53125 L 4765.976562 2778.359375 L 4576.40625 2576.640625 L 4534.140625 2660.195312 L 3463.203125 2131.171875 " transform="matrix(0.1,0,0,-0.1,0,555)"/>
<path style="fill:none;stroke-width:20.8125;stroke-linecap:butt;stroke-linejoin:round;stroke:rgb(0%,0%,0%);stroke-opacity:1;stroke-miterlimit:10;" d="M 3463.203125 4714.101562 L 3460.273438 4708.320312 L 2389.375 5237.34375 L 2347.070312 5153.789062 L 2157.539062 5355.507812 L 2434.570312 5326.679688 L 2392.304688 5243.125 L 3463.203125 4714.101562 " transform="matrix(0.1,0,0,-0.1,0,555)"/>
<path style="fill:none;stroke-width:20.8125;stroke-linecap:butt;stroke-linejoin:round;stroke:rgb(0%,0%,0%);stroke-opacity:1;stroke-miterlimit:10;" d="M 4765.976562 3425.859375 L 4765.976562 3419.414062 L 4374.6875 3419.414062 L 4374.6875 3325.976562 L 4113.867188 3422.617188 L 4374.6875 3519.296875 L 4374.6875 3425.859375 L 4765.976562 3425.859375 " transform="matrix(0.1,0,0,-0.1,0,555)"/>
<path style="fill:none;stroke-width:20.8125;stroke-linecap:butt;stroke-linejoin:round;stroke:rgb(0%,0%,0%);stroke-opacity:1;stroke-miterlimit:10;" d="M 4769.257812 3422.617188 L 4762.734375 3422.617188 L 4762.734375 3809.21875 L 4668.164062 3809.21875 L 4765.976562 4066.914062 L 4863.789062 3809.21875 L 4769.257812 3809.21875 L 4769.257812 3422.617188 " transform="matrix(0.1,0,0,-0.1,0,555)"/>
<path style="fill:none;stroke-width:13.875;stroke-linecap:square;stroke-linejoin:miter;stroke:rgb(0%,0%,0%);stroke-opacity:1;stroke-miterlimit:10;" d="M 4807.617188 3429.570312 C 4807.617188 3402.734375 4785.859375 3381.015625 4759.023438 3381.015625 C 4732.226562 3381.015625 4710.46875 3402.734375 4710.46875 3429.570312 C 4710.46875 3456.40625 4732.226562 3478.125 4759.023438 3478.125 C 4785.859375 3478.125 4807.617188 3456.40625 4807.617188 3429.570312 Z M 4807.617188 3429.570312 " transform="matrix(0.1,0,0,-0.1,0,555)"/>
<path style=" stroke:none;fill-rule:nonzero;fill:rgb(0%,0%,0%);fill-opacity:1;" d="M 480.761719 212.042969 C 480.761719 214.726562 478.585938 216.898438 475.902344 216.898438 C 473.222656 216.898438 471.046875 214.726562 471.046875 212.042969 C 471.046875 209.359375 473.222656 207.1875 475.902344 207.1875 C 478.585938 207.1875 480.761719 209.359375 480.761719 212.042969 "/>
<path style="fill:none;stroke-width:13.875;stroke-linecap:square;stroke-linejoin:miter;stroke:rgb(0%,0%,0%);stroke-opacity:1;stroke-miterlimit:10;" d="M 3503.359375 4718.125 C 3503.359375 4691.328125 3481.640625 4669.570312 3454.804688 4669.570312 C 3427.96875 4669.570312 3406.25 4691.328125 3406.25 4718.125 C 3406.25 4744.960938 3427.96875 4766.71875 3454.804688 4766.71875 C 3481.640625 4766.71875 3503.359375 4744.960938 3503.359375 4718.125 Z M 3503.359375 4718.125 " transform="matrix(0.1,0,0,-0.1,0,555)"/>
<path style=" stroke:none;fill-rule:nonzero;fill:rgb(0%,0%,0%);fill-opacity:1;" d="M 350.335938 83.1875 C 350.335938 85.867188 348.164062 88.042969 345.480469 88.042969 C 342.796875 88.042969 340.625 85.867188 340.625 83.1875 C 340.625 80.503906 342.796875 78.328125 345.480469 78.328125 C 348.164062 78.328125 350.335938 80.503906 350.335938 83.1875 "/>
<path style="fill:none;stroke-width:13.875;stroke-linecap:square;stroke-linejoin:miter;stroke:rgb(0%,0%,0%);stroke-opacity:1;stroke-miterlimit:10;" d="M 3503.359375 2141.015625 C 3503.359375 2114.179688 3481.640625 2092.421875 3454.804688 2092.421875 C 3427.96875 2092.421875 3406.25 2114.179688 3406.25 2141.015625 C 3406.25 2167.8125 3427.96875 2189.570312 3454.804688 2189.570312 C 3481.640625 2189.570312 3503.359375 2167.8125 3503.359375 2141.015625 Z M 3503.359375 2141.015625 " transform="matrix(0.1,0,0,-0.1,0,555)"/>
<path style=" stroke:none;fill-rule:nonzero;fill:rgb(0%,0%,0%);fill-opacity:1;" d="M 350.335938 340.898438 C 350.335938 343.582031 348.164062 345.757812 345.480469 345.757812 C 342.796875 345.757812 340.625 343.582031 340.625 340.898438 C 340.625 338.21875 342.796875 336.042969 345.480469 336.042969 C 348.164062 336.042969 350.335938 338.21875 350.335938 340.898438 "/>
<g clip-path="url(#clip1)" clip-rule="nonzero">
<path style="fill:none;stroke-width:27.75;stroke-linecap:butt;stroke-linejoin:round;stroke:rgb(0%,0%,100%);stroke-opacity:1;stroke-miterlimit:10;" d="M 158.046875 1000.585938 L 254.570312 1026.054688 L 353.320312 1052.460938 L 450.664062 1078.75 L 549.6875 1105.78125 L 635.9375 1129.609375 L 731.953125 1156.40625 L 827.265625 1183.359375 L 918.007812 1209.296875 L 999.492188 1232.851562 L 1095.273438 1260.859375 L 1175.429688 1284.609375 L 1267.578125 1312.226562 L 1348.125 1336.640625 L 1435.429688 1363.476562 L 1517.5 1388.984375 L 1602.03125 1415.625 L 1678.710938 1440.117188 L 1760.351562 1466.484375 L 1843.984375 1493.90625 L 1915.859375 1517.773438 L 1992.460938 1543.554688 L 2070.46875 1570.15625 L 2145.742188 1596.210938 L 2217.578125 1621.40625 L 2296.132812 1649.375 L 2365.664062 1674.53125 L 2438.828125 1701.367188 L 2504.101562 1725.703125 L 2574.453125 1752.304688 L 2639.648438 1777.304688 L 2706.71875 1803.476562 L 2771.210938 1829.023438 L 2837.695312 1855.820312 L 2900.625 1881.601562 L 2963.90625 1907.96875 L 3025.625 1934.101562 L 3081.367188 1958.164062 L 3144.101562 1985.703125 L 3199.257812 2010.3125 L 3256.953125 2036.601562 L 3311.210938 2061.71875 L 3370.273438 2089.648438 L 3420.390625 2113.789062 L 3476.210938 2141.210938 L 3526.054688 2166.210938 L 3579.453125 2193.59375 L 3624.570312 2217.1875 L 3674.921875 2244.0625 L 3722.421875 2270 L 3768.867188 2295.9375 L 3814.101562 2321.796875 L 3856.5625 2346.640625 L 3901.367188 2373.476562 L 3943.007812 2399.0625 L 3985.742188 2425.976562 L 4023.4375 2450.351562 L 4064.023438 2477.304688 L 4101.796875 2503.085938 L 4138.476562 2528.828125 L 4175.625 2555.703125 L 4208.867188 2580.46875 L 4241.914062 2605.820312 L 4277.226562 2633.828125 L 4308.125 2659.179688 L 4338.710938 2685.117188 L 4368.710938 2711.445312 L 4395.3125 2735.703125 L 4422.695312 2761.523438 L 4448.789062 2787.1875 L 4475.585938 2814.609375 L 4498.242188 2838.789062 L 4523.242188 2866.71875 L 4544.726562 2891.914062 L 4565.039062 2916.835938 L 4585.78125 2943.671875 L 4605.46875 2970.585938 L 4622.382812 2995.078125 L 4639.335938 3021.054688 L 4654.84375 3046.445312 L 4670.507812 3073.984375 L 4683.085938 3097.773438 L 4696.445312 3125.117188 L 4707.929688 3150.820312 L 4718.28125 3176.289062 L 4727.65625 3201.757812 L 4736.132812 3227.734375 L 4743.984375 3255.273438 L 4750.117188 3280.546875 L 4755.195312 3305.46875 L 4759.53125 3332.109375 L 4762.773438 3358.710938 L 4764.726562 3382.578125 L 4765.859375 3410.859375 L 4765.859375 3434.492188 L 4764.765625 3462.1875 L 4762.578125 3488.59375 L 4759.6875 3512.148438 L 4755.390625 3538.671875 L 4749.960938 3565.390625 L 4743.476562 3591.953125 L 4736.445312 3616.5625 L 4728.164062 3642.070312 L 4718.515625 3668.4375 L 4707.8125 3694.765625 L 4695.703125 3721.796875 L 4684.0625 3745.585938 L 4669.882812 3772.421875 L 4654.492188 3799.335938 L 4638.632812 3825.3125 L 4623.28125 3848.867188 L 4603.90625 3876.875 L 4586.523438 3900.625 L 4565.195312 3928.203125 L 4545.3125 3952.65625 L 4522.421875 3979.492188 L 4499.570312 4005 L 4474.648438 4031.640625 L 4450.78125 4056.09375 L 4423.945312 4082.5 L 4394.960938 4109.882812 L 4368.75 4133.789062 L 4339.414062 4159.53125 L 4308.046875 4186.171875 L 4276.289062 4212.1875 L 4244.53125 4237.421875 L 4208.125 4265.390625 L 4174.335938 4290.546875 L 4137.148438 4317.382812 L 4102.5 4341.71875 L 4063.554688 4368.28125 L 4025.898438 4393.320312 L 3985.46875 4419.453125 L 3944.882812 4445.039062 L 3901.328125 4471.796875 L 3858.320312 4497.617188 L 3813.242188 4523.984375 L 3767.460938 4550.117188 L 3724.453125 4574.140625 L 3674.023438 4601.679688 L 3627.929688 4626.328125 L 3577.734375 4652.578125 L 3528.671875 4677.734375 L 3473.007812 4705.625 L 3423.828125 4729.804688 L 3366.914062 4757.226562 L 3313.984375 4782.226562 L 3255 4809.570312 L 3203.164062 4833.164062 L 3143.046875 4860.039062 L 3083.90625 4886.015625 L 3023.710938 4911.953125 L 2962.734375 4937.8125 L 2903.164062 4962.617188 L 2837.65625 4989.453125 L 2774.140625 5015.039062 L 2706.210938 5041.992188 L 2643.789062 5066.367188 L 2573.632812 5093.28125 L 2505.390625 5119.101562 L 2436.289062 5144.804688 L 2363.007812 5171.71875 L 2294.453125 5196.484375 L 2223.28125 5221.835938 L 2143.554688 5249.804688 L 2070.273438 5275.195312 L 1994.296875 5301.09375 L 1915.976562 5327.460938 L 1842.96875 5351.71875 L 1764.140625 5377.539062 " transform="matrix(0.1,0,0,-0.1,0,555)"/>
</g>
<path style="fill:none;stroke-width:13.875;stroke-linecap:butt;stroke-linejoin:round;stroke:rgb(0%,0%,0%);stroke-opacity:1;stroke-miterlimit:10;" d="M 201.171875 2778.359375 L 5418.085938 2778.359375 " transform="matrix(0.1,0,0,-0.1,0,555)"/>
<path style=" stroke:none;fill-rule:nonzero;fill:rgb(0%,0%,0%);fill-opacity:1;" d="M 410.136719 319.644531 C 410.46875 319.992188 410.722656 320.347656 410.894531 320.707031 C 411.023438 320.9375 411.226562 321.574219 411.503906 322.613281 L 412.390625 321.269531 C 412.621094 320.953125 412.90625 320.644531 413.246094 320.347656 C 413.585938 320.054688 413.886719 319.847656 414.144531 319.730469 C 414.304688 319.671875 414.488281 319.644531 414.6875 319.644531 C 414.976562 319.644531 415.210938 319.71875 415.382812 319.871094 C 415.554688 320.023438 415.640625 320.214844 415.640625 320.445312 C 415.640625 320.707031 415.59375 320.878906 415.492188 320.96875 C 415.300781 321.140625 415.085938 321.226562 414.839844 321.226562 C 414.695312 321.226562 414.542969 321.199219 414.386719 321.140625 C 414.066406 321.023438 413.851562 320.96875 413.734375 320.96875 C 413.574219 320.96875 413.386719 321.0625 413.171875 321.25 C 412.753906 321.609375 412.246094 322.296875 411.652344 323.308594 L 412.496094 326.800781 C 412.628906 327.335938 412.738281 327.652344 412.824219 327.753906 C 412.910156 327.855469 412.996094 327.90625 413.085938 327.90625 C 413.226562 327.90625 413.394531 327.832031 413.582031 327.6875 C 413.960938 327.371094 414.277344 326.957031 414.535156 326.453125 L 414.882812 326.644531 C 414.464844 327.441406 413.921875 328.109375 413.257812 328.640625 C 412.894531 328.929688 412.585938 329.074219 412.324219 329.074219 C 411.933594 329.074219 411.632812 328.863281 411.414062 328.445312 C 411.269531 328.171875 410.972656 327.03125 410.527344 325.023438 C 409.472656 326.855469 408.625 328.042969 407.988281 328.578125 C 407.570312 328.910156 407.171875 329.074219 406.796875 329.074219 C 406.523438 329.074219 406.269531 328.980469 406.039062 328.792969 C 405.878906 328.636719 405.800781 328.433594 405.800781 328.1875 C 405.800781 327.96875 405.875 327.785156 406.027344 327.632812 C 406.179688 327.480469 406.363281 327.40625 406.578125 327.40625 C 406.796875 327.40625 407.027344 327.515625 407.273438 327.730469 C 407.449219 327.890625 407.585938 327.96875 407.6875 327.96875 C 407.757812 327.96875 407.859375 327.910156 407.988281 327.796875 C 408.308594 327.535156 408.742188 326.980469 409.289062 326.125 C 409.839844 325.273438 410.199219 324.660156 410.375 324.285156 C 409.953125 322.636719 409.722656 321.769531 409.679688 321.683594 C 409.535156 321.234375 409.339844 320.921875 409.085938 320.738281 C 408.832031 320.558594 408.460938 320.46875 407.96875 320.46875 C 407.808594 320.46875 407.628906 320.476562 407.425781 320.488281 L 407.425781 320.121094 L 410.136719 319.644531 "/>
<path style="fill:none;stroke-width:1.2;stroke-linecap:butt;stroke-linejoin:round;stroke:rgb(0%,0%,0%);stroke-opacity:1;stroke-miterlimit:10;" d="M 201.171875 2778.359375 L 201.171875 2722.851562 " transform="matrix(0.1,0,0,-0.1,0,555)"/>
<g clip-path="url(#clip2)" clip-rule="nonzero">
<path style=" stroke:none;fill-rule:nonzero;fill:rgb(0%,0%,0%);fill-opacity:1;" d="M 11.859375 298.160156 L 25.601562 298.160156 L 25.601562 297.078125 L 11.859375 297.078125 Z M 11.859375 298.160156 "/>
</g>
<path style=" stroke:none;fill-rule:nonzero;fill:rgb(0%,0%,0%);fill-opacity:1;" d="M 31.890625 298.789062 L 31.890625 300.21875 L 30.027344 300.21875 L 30.027344 303.863281 L 28.355469 303.863281 L 28.355469 300.21875 L 22.523438 300.21875 L 22.523438 298.917969 L 28.921875 289.792969 L 30.027344 289.792969 L 30.027344 298.789062 Z M 28.355469 298.789062 L 28.355469 291.9375 L 23.523438 298.789062 L 28.355469 298.789062 "/>
<path style="fill:none;stroke-width:1.2;stroke-linecap:butt;stroke-linejoin:round;stroke:rgb(0%,0%,0%);stroke-opacity:1;stroke-miterlimit:10;" d="M 853.320312 2778.359375 L 853.320312 2722.851562 " transform="matrix(0.1,0,0,-0.1,0,555)"/>
<g clip-path="url(#clip3)" clip-rule="nonzero">
<path style=" stroke:none;fill-rule:nonzero;fill:rgb(0%,0%,0%);fill-opacity:1;" d="M 77.070312 298.160156 L 90.816406 298.160156 L 90.816406 297.078125 L 77.070312 297.078125 Z M 77.070312 298.160156 "/>
</g>
<path style=" stroke:none;fill-rule:nonzero;fill:rgb(0%,0%,0%);fill-opacity:1;" d="M 88.472656 292.695312 C 88.863281 291.773438 89.359375 291.054688 89.960938 290.550781 C 90.558594 290.046875 91.308594 289.792969 92.203125 289.792969 C 93.300781 289.792969 94.148438 290.152344 94.738281 290.875 C 95.1875 291.410156 95.410156 291.980469 95.410156 292.589844 C 95.410156 293.601562 94.785156 294.640625 93.527344 295.710938 C 94.363281 296.042969 95 296.515625 95.433594 297.128906 C 95.867188 297.746094 96.085938 298.472656 96.085938 299.308594 C 96.085938 300.492188 95.707031 301.519531 94.957031 302.386719 C 93.960938 303.527344 92.527344 304.101562 90.664062 304.101562 C 89.726562 304.101562 89.089844 303.984375 88.757812 303.753906 C 88.425781 303.523438 88.257812 303.277344 88.257812 303.015625 C 88.257812 302.8125 88.335938 302.640625 88.496094 302.496094 C 88.65625 302.351562 88.84375 302.277344 89.058594 302.277344 C 89.234375 302.277344 89.40625 302.308594 89.582031 302.363281 C 89.695312 302.394531 89.960938 302.515625 90.371094 302.722656 C 90.785156 302.933594 91.0625 303.058594 91.207031 303.105469 C 91.464844 303.175781 91.734375 303.210938 92.007812 303.210938 C 92.703125 303.210938 93.304688 302.945312 93.820312 302.410156 C 94.332031 301.875 94.589844 301.246094 94.589844 300.523438 C 94.589844 299.988281 94.472656 299.46875 94.242188 298.960938 C 94.054688 298.570312 93.859375 298.28125 93.65625 298.09375 C 93.367188 297.820312 92.964844 297.574219 92.453125 297.359375 C 91.941406 297.140625 91.421875 297.03125 90.902344 297.03125 L 90.578125 297.03125 L 90.578125 296.707031 C 91.113281 296.648438 91.648438 296.460938 92.183594 296.144531 C 92.71875 295.824219 93.105469 295.441406 93.351562 294.996094 C 93.597656 294.546875 93.722656 294.054688 93.722656 293.519531 C 93.722656 292.824219 93.503906 292.261719 93.070312 291.828125 C 92.636719 291.394531 92.09375 291.179688 91.445312 291.179688 C 90.390625 291.179688 89.507812 291.742188 88.800781 292.871094 L 88.472656 292.695312 "/>
<path style="fill:none;stroke-width:1.2;stroke-linecap:butt;stroke-linejoin:round;stroke:rgb(0%,0%,0%);stroke-opacity:1;stroke-miterlimit:10;" d="M 1505.390625 2778.359375 L 1505.390625 2722.851562 " transform="matrix(0.1,0,0,-0.1,0,555)"/>
<g clip-path="url(#clip4)" clip-rule="nonzero">
<path style=" stroke:none;fill-rule:nonzero;fill:rgb(0%,0%,0%);fill-opacity:1;" d="M 142.28125 298.160156 L 156.027344 298.160156 L 156.027344 297.078125 L 142.28125 297.078125 Z M 142.28125 298.160156 "/>
</g>
<path style=" stroke:none;fill-rule:nonzero;fill:rgb(0%,0%,0%);fill-opacity:1;" d="M 162.164062 301.214844 L 161.210938 303.863281 L 153.078125 303.863281 L 153.078125 303.492188 C 155.464844 301.3125 157.144531 299.527344 158.121094 298.140625 C 159.097656 296.753906 159.582031 295.484375 159.582031 294.34375 C 159.582031 293.476562 159.316406 292.761719 158.78125 292.199219 C 158.246094 291.632812 157.605469 291.351562 156.851562 291.351562 C 156.1875 291.351562 155.582031 291.550781 155.042969 291.949219 C 154.5 292.347656 154.097656 292.929688 153.839844 293.691406 L 153.46875 293.691406 C 153.644531 292.4375 154.078125 291.472656 154.78125 290.800781 C 155.480469 290.128906 156.351562 289.792969 157.394531 289.792969 C 158.523438 289.792969 159.457031 290.152344 160.199219 290.875 C 160.945312 291.597656 161.316406 292.441406 161.316406 293.410156 C 161.316406 294.105469 161.160156 294.808594 160.839844 295.515625 C 160.335938 296.613281 159.519531 297.769531 158.390625 298.984375 C 156.714844 300.835938 155.660156 301.945312 155.226562 302.320312 L 158.824219 302.320312 C 159.5625 302.320312 160.078125 302.296875 160.375 302.246094 C 160.671875 302.195312 160.9375 302.089844 161.179688 301.921875 C 161.414062 301.753906 161.621094 301.519531 161.796875 301.214844 L 162.164062 301.214844 "/>
<path style="fill:none;stroke-width:1.2;stroke-linecap:butt;stroke-linejoin:round;stroke:rgb(0%,0%,0%);stroke-opacity:1;stroke-miterlimit:10;" d="M 2157.539062 2778.359375 L 2157.539062 2722.851562 " transform="matrix(0.1,0,0,-0.1,0,555)"/>
<g clip-path="url(#clip5)" clip-rule="nonzero">
<path style=" stroke:none;fill-rule:nonzero;fill:rgb(0%,0%,0%);fill-opacity:1;" d="M 207.496094 298.160156 L 221.242188 298.160156 L 221.242188 297.078125 L 207.496094 297.078125 Z M 207.496094 298.160156 "/>
</g>
<path style=" stroke:none;fill-rule:nonzero;fill:rgb(0%,0%,0%);fill-opacity:1;" d="M 220.285156 291.4375 L 223.625 289.792969 L 223.972656 289.792969 L 223.972656 301.433594 C 223.972656 302.199219 224.003906 302.679688 224.070312 302.875 C 224.136719 303.070312 224.269531 303.21875 224.472656 303.320312 C 224.675781 303.421875 225.085938 303.480469 225.707031 303.492188 L 225.707031 303.863281 L 220.523438 303.863281 L 220.523438 303.492188 C 221.175781 303.480469 221.59375 303.421875 221.78125 303.320312 C 221.972656 303.21875 222.101562 303.085938 222.171875 302.917969 C 222.246094 302.753906 222.28125 302.257812 222.28125 301.433594 L 222.28125 293.996094 C 222.28125 292.984375 222.253906 292.34375 222.195312 292.070312 C 222.136719 291.851562 222.046875 291.691406 221.925781 291.589844 C 221.800781 291.488281 221.652344 291.4375 221.480469 291.4375 C 221.21875 291.4375 220.871094 291.539062 220.4375 291.742188 L 220.285156 291.4375 "/>
<path style="fill:none;stroke-width:1.2;stroke-linecap:butt;stroke-linejoin:round;stroke:rgb(0%,0%,0%);stroke-opacity:1;stroke-miterlimit:10;" d="M 2809.648438 2778.359375 L 2809.648438 2722.851562 " transform="matrix(0.1,0,0,-0.1,0,555)"/>
<path style=" stroke:none;fill-rule:nonzero;fill:rgb(0%,0%,0%);fill-opacity:1;" d="M 268.546875 294.277344 C 268.546875 292.703125 268.78125 291.347656 269.25 290.214844 C 269.71875 289.078125 270.351562 288.238281 271.144531 287.6875 C 271.753906 287.238281 272.382812 287.015625 273.035156 287.015625 C 274.089844 287.015625 275.035156 287.558594 275.875 288.644531 C 276.929688 289.972656 277.453125 291.777344 277.453125 294.0625 C 277.453125 295.664062 277.226562 297.023438 276.761719 298.140625 C 276.300781 299.253906 275.710938 300.0625 274.996094 300.566406 C 274.28125 301.070312 273.589844 301.324219 272.925781 301.324219 C 271.609375 301.324219 270.519531 300.550781 269.652344 299.007812 C 268.914062 297.691406 268.546875 296.113281 268.546875 294.277344 Z M 270.539062 294.539062 C 270.539062 296.433594 270.773438 297.980469 271.234375 299.179688 C 271.625 300.191406 272.203125 300.695312 272.96875 300.695312 C 273.328125 300.695312 273.703125 300.53125 274.09375 300.199219 C 274.484375 299.863281 274.78125 299.316406 274.984375 298.550781 C 275.300781 297.378906 275.460938 295.730469 275.460938 293.605469 C 275.460938 292.046875 275.296875 290.738281 274.960938 289.683594 C 274.730469 288.902344 274.421875 288.351562 274.03125 288.035156 C 273.757812 287.804688 273.417969 287.6875 273.011719 287.6875 C 272.5625 287.6875 272.160156 287.898438 271.796875 288.316406 C 271.304688 288.882812 270.972656 289.765625 270.800781 290.972656 C 270.625 292.179688 270.539062 293.367188 270.539062 294.539062 "/>
<path style="fill:none;stroke-width:1.2;stroke-linecap:butt;stroke-linejoin:round;stroke:rgb(0%,0%,0%);stroke-opacity:1;stroke-miterlimit:10;" d="M 3461.757812 2778.359375 L 3461.757812 2722.851562 " transform="matrix(0.1,0,0,-0.1,0,555)"/>
<path style=" stroke:none;fill-rule:nonzero;fill:rgb(0%,0%,0%);fill-opacity:1;" d="M 343.773438 291.4375 L 347.113281 289.792969 L 347.460938 289.792969 L 347.460938 301.433594 C 347.460938 302.199219 347.492188 302.679688 347.558594 302.875 C 347.621094 303.070312 347.757812 303.21875 347.960938 303.320312 C 348.160156 303.421875 348.574219 303.480469 349.191406 303.492188 L 349.191406 303.863281 L 344.011719 303.863281 L 344.011719 303.492188 C 344.664062 303.480469 345.082031 303.421875 345.269531 303.320312 C 345.457031 303.21875 345.589844 303.085938 345.660156 302.917969 C 345.734375 302.753906 345.769531 302.257812 345.769531 301.433594 L 345.769531 293.996094 C 345.769531 292.984375 345.738281 292.34375 345.683594 292.070312 C 345.625 291.851562 345.53125 291.691406 345.410156 291.589844 C 345.289062 291.488281 345.140625 291.4375 344.96875 291.4375 C 344.707031 291.4375 344.359375 291.539062 343.925781 291.742188 L 343.773438 291.4375 "/>
<path style="fill:none;stroke-width:1.2;stroke-linecap:butt;stroke-linejoin:round;stroke:rgb(0%,0%,0%);stroke-opacity:1;stroke-miterlimit:10;" d="M 4113.867188 2778.359375 L 4113.867188 2722.851562 " transform="matrix(0.1,0,0,-0.1,0,555)"/>
<path style=" stroke:none;fill-rule:nonzero;fill:rgb(0%,0%,0%);fill-opacity:1;" d="M 416.078125 301.214844 L 415.121094 303.863281 L 406.992188 303.863281 L 406.992188 303.492188 C 409.375 301.3125 411.058594 299.527344 412.03125 298.140625 C 413.007812 296.753906 413.496094 295.484375 413.496094 294.34375 C 413.496094 293.476562 413.226562 292.761719 412.695312 292.199219 C 412.160156 291.632812 411.515625 291.351562 410.765625 291.351562 C 410.097656 291.351562 409.496094 291.550781 408.953125 291.949219 C 408.410156 292.347656 408.011719 292.929688 407.753906 293.691406 L 407.382812 293.691406 C 407.554688 292.4375 407.992188 291.472656 408.695312 290.800781 C 409.394531 290.128906 410.265625 289.792969 411.304688 289.792969 C 412.433594 289.792969 413.371094 290.152344 414.113281 290.875 C 414.859375 291.597656 415.230469 292.441406 415.230469 293.410156 C 415.230469 294.105469 415.070312 294.808594 414.753906 295.515625 C 414.246094 296.613281 413.429688 297.769531 412.304688 298.984375 C 410.628906 300.835938 409.570312 301.945312 409.140625 302.320312 L 412.738281 302.320312 C 413.476562 302.320312 413.992188 302.296875 414.285156 302.246094 C 414.585938 302.195312 414.851562 302.089844 415.089844 301.921875 C 415.328125 301.753906 415.535156 301.519531 415.707031 301.214844 L 416.078125 301.214844 "/>
<path style="fill:none;stroke-width:1.2;stroke-linecap:butt;stroke-linejoin:round;stroke:rgb(0%,0%,0%);stroke-opacity:1;stroke-miterlimit:10;" d="M 4765.976562 2778.359375 L 4765.976562 2722.851562 " transform="matrix(0.1,0,0,-0.1,0,555)"/>
<path style=" stroke:none;fill-rule:nonzero;fill:rgb(0%,0%,0%);fill-opacity:1;" d="M 472.8125 292.695312 C 473.199219 291.773438 473.695312 291.054688 474.296875 290.550781 C 474.898438 290.046875 475.644531 289.792969 476.539062 289.792969 C 477.640625 289.792969 478.484375 290.152344 479.078125 290.875 C 479.523438 291.410156 479.75 291.980469 479.75 292.589844 C 479.75 293.601562 479.121094 294.640625 477.863281 295.710938 C 478.703125 296.042969 479.335938 296.515625 479.769531 297.128906 C 480.203125 297.746094 480.421875 298.472656 480.421875 299.308594 C 480.421875 300.492188 480.046875 301.519531 479.292969 302.386719 C 478.296875 303.527344 476.867188 304.101562 475 304.101562 C 474.0625 304.101562 473.425781 303.984375 473.09375 303.753906 C 472.761719 303.523438 472.59375 303.277344 472.59375 303.015625 C 472.59375 302.8125 472.675781 302.640625 472.835938 302.496094 C 472.992188 302.351562 473.179688 302.277344 473.398438 302.277344 C 473.570312 302.277344 473.742188 302.308594 473.917969 302.363281 C 474.03125 302.394531 474.296875 302.515625 474.707031 302.722656 C 475.121094 302.933594 475.398438 303.058594 475.542969 303.105469 C 475.804688 303.175781 476.070312 303.210938 476.34375 303.210938 C 477.039062 303.210938 477.644531 302.945312 478.15625 302.410156 C 478.671875 301.875 478.925781 301.246094 478.925781 300.523438 C 478.925781 299.988281 478.808594 299.46875 478.578125 298.960938 C 478.390625 298.570312 478.195312 298.28125 477.992188 298.09375 C 477.703125 297.820312 477.304688 297.574219 476.789062 297.359375 C 476.277344 297.140625 475.761719 297.03125 475.238281 297.03125 L 474.914062 297.03125 L 474.914062 296.707031 C 475.449219 296.648438 475.984375 296.460938 476.519531 296.144531 C 477.054688 295.824219 477.445312 295.441406 477.691406 294.996094 C 477.9375 294.546875 478.058594 294.054688 478.058594 293.519531 C 478.058594 292.824219 477.839844 292.261719 477.40625 291.828125 C 476.972656 291.394531 476.433594 291.179688 475.78125 291.179688 C 474.726562 291.179688 473.84375 291.742188 473.136719 292.871094 L 472.8125 292.695312 "/>
<path style="fill:none;stroke-width:1.2;stroke-linecap:butt;stroke-linejoin:round;stroke:rgb(0%,0%,0%);stroke-opacity:1;stroke-miterlimit:10;" d="M 5418.085938 2778.359375 L 5418.085938 2722.851562 " transform="matrix(0.1,0,0,-0.1,0,555)"/>
<path style=" stroke:none;fill-rule:nonzero;fill:rgb(0%,0%,0%);fill-opacity:1;" d="M 546.652344 298.789062 L 546.652344 300.21875 L 544.789062 300.21875 L 544.789062 303.863281 L 543.117188 303.863281 L 543.117188 300.21875 L 537.285156 300.21875 L 537.285156 298.917969 L 543.683594 289.792969 L 544.789062 289.792969 L 544.789062 298.789062 Z M 543.117188 298.789062 L 543.117188 291.9375 L 538.285156 298.789062 L 543.117188 298.789062 "/>
<path style="fill:none;stroke-width:1.2;stroke-linecap:butt;stroke-linejoin:round;stroke:rgb(0%,0%,0%);stroke-opacity:1;stroke-miterlimit:10;" d="M 527.226562 2778.359375 L 527.226562 2750.585938 " transform="matrix(0.1,0,0,-0.1,0,555)"/>
<path style="fill:none;stroke-width:1.2;stroke-linecap:butt;stroke-linejoin:round;stroke:rgb(0%,0%,0%);stroke-opacity:1;stroke-miterlimit:10;" d="M 1179.375 2778.359375 L 1179.375 2750.585938 " transform="matrix(0.1,0,0,-0.1,0,555)"/>
<path style="fill:none;stroke-width:1.2;stroke-linecap:butt;stroke-linejoin:round;stroke:rgb(0%,0%,0%);stroke-opacity:1;stroke-miterlimit:10;" d="M 1831.445312 2778.359375 L 1831.445312 2750.585938 " transform="matrix(0.1,0,0,-0.1,0,555)"/>
<path style="fill:none;stroke-width:1.2;stroke-linecap:butt;stroke-linejoin:round;stroke:rgb(0%,0%,0%);stroke-opacity:1;stroke-miterlimit:10;" d="M 2483.59375 2778.359375 L 2483.59375 2750.585938 " transform="matrix(0.1,0,0,-0.1,0,555)"/>
<path style="fill:none;stroke-width:1.2;stroke-linecap:butt;stroke-linejoin:round;stroke:rgb(0%,0%,0%);stroke-opacity:1;stroke-miterlimit:10;" d="M 3135.703125 2778.359375 L 3135.703125 2750.585938 " transform="matrix(0.1,0,0,-0.1,0,555)"/>
<path style="fill:none;stroke-width:1.2;stroke-linecap:butt;stroke-linejoin:round;stroke:rgb(0%,0%,0%);stroke-opacity:1;stroke-miterlimit:10;" d="M 3787.8125 2778.359375 L 3787.8125 2750.585938 " transform="matrix(0.1,0,0,-0.1,0,555)"/>
<path style="fill:none;stroke-width:1.2;stroke-linecap:butt;stroke-linejoin:round;stroke:rgb(0%,0%,0%);stroke-opacity:1;stroke-miterlimit:10;" d="M 4439.921875 2778.359375 L 4439.921875 2750.585938 " transform="matrix(0.1,0,0,-0.1,0,555)"/>
<path style="fill:none;stroke-width:1.2;stroke-linecap:butt;stroke-linejoin:round;stroke:rgb(0%,0%,0%);stroke-opacity:1;stroke-miterlimit:10;" d="M 5092.03125 2778.359375 L 5092.03125 2750.585938 " transform="matrix(0.1,0,0,-0.1,0,555)"/>
<path style="fill:none;stroke-width:13.875;stroke-linecap:butt;stroke-linejoin:round;stroke:rgb(0%,0%,0%);stroke-opacity:1;stroke-miterlimit:10;" d="M 2809.648438 201.171875 L 2809.648438 5355.507812 " transform="matrix(0.1,0,0,-0.1,0,555)"/>
<g clip-path="url(#clip6)" clip-rule="nonzero">
<path style=" stroke:none;fill-rule:nonzero;fill:rgb(0%,0%,0%);fill-opacity:1;" d="M 230.867188 146.207031 C 231.097656 146.597656 231.257812 146.960938 231.34375 147.300781 C 231.429688 147.640625 231.523438 148.316406 231.625 149.328125 L 232.058594 154.316406 C 232.464844 153.839844 233.054688 153.066406 233.835938 151.996094 C 234.199219 151.488281 234.652344 150.789062 235.203125 149.894531 C 235.535156 149.355469 235.746094 148.984375 235.828125 148.765625 C 235.859375 148.648438 235.875 148.535156 235.875 148.417969 C 235.875 148.347656 235.851562 148.289062 235.808594 148.246094 C 235.765625 148.203125 235.644531 148.148438 235.441406 148.082031 C 235.238281 148.015625 235.070312 147.898438 234.941406 147.722656 C 234.8125 147.550781 234.746094 147.347656 234.746094 147.117188 C 234.746094 146.84375 234.824219 146.621094 234.984375 146.457031 C 235.144531 146.289062 235.347656 146.207031 235.59375 146.207031 C 235.894531 146.207031 236.152344 146.328125 236.363281 146.574219 C 236.570312 146.820312 236.675781 147.160156 236.675781 147.59375 C 236.675781 148.128906 236.492188 148.738281 236.121094 149.425781 C 235.757812 150.113281 235.050781 151.167969 234.011719 152.59375 C 232.96875 154.015625 231.703125 155.566406 230.214844 157.242188 C 229.203125 158.398438 228.449219 159.128906 227.949219 159.433594 C 227.453125 159.734375 227.03125 159.886719 226.683594 159.886719 C 226.464844 159.886719 226.277344 159.808594 226.117188 159.648438 C 225.960938 159.488281 225.878906 159.308594 225.878906 159.105469 C 225.878906 158.832031 225.992188 158.585938 226.21875 158.367188 C 226.441406 158.152344 226.675781 158.046875 226.921875 158.046875 C 227.066406 158.046875 227.179688 158.078125 227.265625 158.152344 C 227.324219 158.183594 227.386719 158.273438 227.453125 158.433594 C 227.515625 158.59375 227.570312 158.703125 227.613281 158.757812 C 227.65625 158.789062 227.699219 158.804688 227.742188 158.804688 C 227.785156 158.804688 227.859375 158.769531 227.960938 158.695312 C 228.335938 158.464844 228.769531 158.101562 229.261719 157.609375 C 229.914062 156.945312 230.390625 156.40625 230.691406 155.984375 L 230.128906 149.546875 C 230.042969 148.476562 229.902344 147.824219 229.707031 147.59375 C 229.511719 147.363281 229.191406 147.246094 228.742188 147.246094 C 228.597656 147.246094 228.34375 147.269531 227.984375 147.3125 L 227.898438 146.945312 L 230.867188 146.207031 "/>
</g>
<path style="fill:none;stroke-width:1.2;stroke-linecap:butt;stroke-linejoin:round;stroke:rgb(0%,0%,0%);stroke-opacity:1;stroke-miterlimit:10;" d="M 2809.648438 201.171875 L 2754.140625 201.171875 " transform="matrix(0.1,0,0,-0.1,0,555)"/>
<g clip-path="url(#clip7)" clip-rule="nonzero">
<path style=" stroke:none;fill-rule:nonzero;fill:rgb(0%,0%,0%);fill-opacity:1;" d="M 250.507812 536.808594 L 264.253906 536.808594 L 264.253906 535.726562 L 250.507812 535.726562 Z M 250.507812 536.808594 "/>
</g>
<path style=" stroke:none;fill-rule:nonzero;fill:rgb(0%,0%,0%);fill-opacity:1;" d="M 270.539062 537.4375 L 270.539062 538.871094 L 268.675781 538.871094 L 268.675781 542.511719 L 267.007812 542.511719 L 267.007812 538.871094 L 261.175781 538.871094 L 261.175781 537.570312 L 267.570312 528.441406 L 268.675781 528.441406 L 268.675781 537.4375 Z M 267.007812 537.4375 L 267.007812 530.589844 L 262.171875 537.4375 L 267.007812 537.4375 "/>
<path style="fill:none;stroke-width:1.2;stroke-linecap:butt;stroke-linejoin:round;stroke:rgb(0%,0%,0%);stroke-opacity:1;stroke-miterlimit:10;" d="M 2809.648438 845.46875 L 2754.140625 845.46875 " transform="matrix(0.1,0,0,-0.1,0,555)"/>
<g clip-path="url(#clip8)" clip-rule="nonzero">
<path style=" stroke:none;fill-rule:nonzero;fill:rgb(0%,0%,0%);fill-opacity:1;" d="M 250.507812 472.984375 L 264.253906 472.984375 L 264.253906 471.902344 L 250.507812 471.902344 Z M 250.507812 472.984375 "/>
</g>
<path style=" stroke:none;fill-rule:nonzero;fill:rgb(0%,0%,0%);fill-opacity:1;" d="M 261.910156 467.523438 C 262.300781 466.597656 262.796875 465.882812 263.394531 465.375 C 263.996094 464.871094 264.746094 464.617188 265.640625 464.617188 C 266.738281 464.617188 267.585938 464.976562 268.175781 465.699219 C 268.625 466.234375 268.847656 466.804688 268.847656 467.414062 C 268.847656 468.425781 268.21875 469.464844 266.964844 470.535156 C 267.800781 470.867188 268.4375 471.339844 268.871094 471.957031 C 269.304688 472.570312 269.523438 473.296875 269.523438 474.132812 C 269.523438 475.320312 269.144531 476.34375 268.394531 477.210938 C 267.394531 478.355469 265.964844 478.925781 264.101562 478.925781 C 263.160156 478.925781 262.527344 478.808594 262.191406 478.578125 C 261.859375 478.347656 261.695312 478.101562 261.695312 477.839844 C 261.695312 477.640625 261.773438 477.464844 261.933594 477.320312 C 262.09375 477.175781 262.28125 477.105469 262.496094 477.105469 C 262.671875 477.105469 262.84375 477.132812 263.015625 477.191406 C 263.132812 477.21875 263.394531 477.339844 263.808594 477.546875 C 264.21875 477.757812 264.5 477.882812 264.644531 477.929688 C 264.902344 478 265.171875 478.035156 265.445312 478.035156 C 266.140625 478.035156 266.742188 477.769531 267.257812 477.234375 C 267.769531 476.699219 268.023438 476.070312 268.023438 475.347656 C 268.023438 474.8125 267.910156 474.292969 267.679688 473.785156 C 267.492188 473.398438 267.296875 473.109375 267.09375 472.917969 C 266.804688 472.644531 266.402344 472.398438 265.890625 472.183594 C 265.378906 471.964844 264.859375 471.859375 264.339844 471.859375 L 264.015625 471.859375 L 264.015625 471.53125 C 264.550781 471.476562 265.085938 471.285156 265.617188 470.96875 C 266.152344 470.652344 266.542969 470.269531 266.789062 469.820312 C 267.035156 469.371094 267.15625 468.878906 267.15625 468.34375 C 267.15625 467.652344 266.941406 467.089844 266.507812 466.65625 C 266.074219 466.21875 265.53125 466.003906 264.882812 466.003906 C 263.824219 466.003906 262.945312 466.566406 262.238281 467.695312 L 261.910156 467.523438 "/>
<path style="fill:none;stroke-width:1.2;stroke-linecap:butt;stroke-linejoin:round;stroke:rgb(0%,0%,0%);stroke-opacity:1;stroke-miterlimit:10;" d="M 2809.648438 1489.765625 L 2754.140625 1489.765625 " transform="matrix(0.1,0,0,-0.1,0,555)"/>
<g clip-path="url(#clip9)" clip-rule="nonzero">
<path style=" stroke:none;fill-rule:nonzero;fill:rgb(0%,0%,0%);fill-opacity:1;" d="M 250.507812 407.773438 L 264.253906 407.773438 L 264.253906 406.6875 L 250.507812 406.6875 Z M 250.507812 407.773438 "/>
</g>
<path style=" stroke:none;fill-rule:nonzero;fill:rgb(0%,0%,0%);fill-opacity:1;" d="M 270.390625 410.828125 L 269.433594 413.476562 L 261.304688 413.476562 L 261.304688 413.105469 C 263.6875 410.921875 265.367188 409.140625 266.34375 407.753906 C 267.320312 406.363281 267.808594 405.097656 267.808594 403.957031 C 267.808594 403.089844 267.539062 402.375 267.007812 401.808594 C 266.472656 401.246094 265.828125 400.964844 265.074219 400.964844 C 264.410156 400.964844 263.808594 401.164062 263.265625 401.5625 C 262.726562 401.960938 262.324219 402.539062 262.0625 403.304688 L 261.695312 403.304688 C 261.867188 402.050781 262.304688 401.085938 263.007812 400.410156 C 263.707031 399.738281 264.578125 399.402344 265.617188 399.402344 C 266.746094 399.402344 267.683594 399.765625 268.425781 400.488281 C 269.171875 401.210938 269.542969 402.054688 269.542969 403.023438 C 269.542969 403.71875 269.382812 404.421875 269.066406 405.128906 C 268.5625 406.226562 267.742188 407.382812 266.617188 408.597656 C 264.9375 410.445312 263.882812 411.558594 263.453125 411.933594 L 267.050781 411.933594 C 267.789062 411.933594 268.304688 411.910156 268.597656 411.859375 C 268.894531 411.808594 269.164062 411.699219 269.402344 411.535156 C 269.640625 411.367188 269.847656 411.132812 270.019531 410.828125 L 270.390625 410.828125 "/>
<path style="fill:none;stroke-width:1.2;stroke-linecap:butt;stroke-linejoin:round;stroke:rgb(0%,0%,0%);stroke-opacity:1;stroke-miterlimit:10;" d="M 2809.648438 2134.0625 L 2754.140625 2134.0625 " transform="matrix(0.1,0,0,-0.1,0,555)"/>
<g clip-path="url(#clip10)" clip-rule="nonzero">
<path style=" stroke:none;fill-rule:nonzero;fill:rgb(0%,0%,0%);fill-opacity:1;" d="M 250.507812 343.945312 L 264.253906 343.945312 L 264.253906 342.863281 L 250.507812 342.863281 Z M 250.507812 343.945312 "/>
</g>
<path style=" stroke:none;fill-rule:nonzero;fill:rgb(0%,0%,0%);fill-opacity:1;" d="M 263.300781 337.226562 L 266.636719 335.578125 L 266.984375 335.578125 L 266.984375 347.222656 C 266.984375 347.988281 267.019531 348.46875 267.082031 348.664062 C 267.148438 348.859375 267.28125 349.007812 267.484375 349.105469 C 267.6875 349.210938 268.097656 349.265625 268.71875 349.28125 L 268.71875 349.648438 L 263.539062 349.648438 L 263.539062 349.28125 C 264.1875 349.265625 264.605469 349.210938 264.796875 349.105469 C 264.984375 349.007812 265.113281 348.871094 265.1875 348.707031 C 265.257812 348.539062 265.292969 348.046875 265.292969 347.222656 L 265.292969 339.785156 C 265.292969 338.773438 265.265625 338.128906 265.207031 337.855469 C 265.148438 337.636719 265.058594 337.480469 264.9375 337.378906 C 264.8125 337.277344 264.664062 337.226562 264.492188 337.226562 C 264.230469 337.226562 263.882812 337.328125 263.453125 337.53125 L 263.300781 337.226562 "/>
<path style="fill:none;stroke-width:1.2;stroke-linecap:butt;stroke-linejoin:round;stroke:rgb(0%,0%,0%);stroke-opacity:1;stroke-miterlimit:10;" d="M 2809.648438 2778.359375 L 2754.140625 2778.359375 " transform="matrix(0.1,0,0,-0.1,0,555)"/>
<path style="fill:none;stroke-width:1.2;stroke-linecap:butt;stroke-linejoin:round;stroke:rgb(0%,0%,0%);stroke-opacity:1;stroke-miterlimit:10;" d="M 2809.648438 3422.617188 L 2754.140625 3422.617188 " transform="matrix(0.1,0,0,-0.1,0,555)"/>
<path style=" stroke:none;fill-rule:nonzero;fill:rgb(0%,0%,0%);fill-opacity:1;" d="M 263.300781 208.1875 L 266.636719 206.542969 L 266.984375 206.542969 L 266.984375 218.183594 C 266.984375 218.949219 267.019531 219.429688 267.082031 219.625 C 267.148438 219.820312 267.28125 219.96875 267.484375 220.070312 C 267.6875 220.171875 268.097656 220.230469 268.71875 220.242188 L 268.71875 220.613281 L 263.539062 220.613281 L 263.539062 220.242188 C 264.1875 220.230469 264.605469 220.171875 264.796875 220.070312 C 264.984375 219.96875 265.113281 219.835938 265.1875 219.667969 C 265.257812 219.503906 265.292969 219.007812 265.292969 218.183594 L 265.292969 210.746094 C 265.292969 209.734375 265.265625 209.09375 265.207031 208.820312 C 265.148438 208.601562 265.058594 208.441406 264.9375 208.339844 C 264.8125 208.238281 264.664062 208.1875 264.492188 208.1875 C 264.230469 208.1875 263.882812 208.289062 263.453125 208.492188 L 263.300781 208.1875 "/>
<path style="fill:none;stroke-width:1.2;stroke-linecap:butt;stroke-linejoin:round;stroke:rgb(0%,0%,0%);stroke-opacity:1;stroke-miterlimit:10;" d="M 2809.648438 4066.914062 L 2754.140625 4066.914062 " transform="matrix(0.1,0,0,-0.1,0,555)"/>
<path style=" stroke:none;fill-rule:nonzero;fill:rgb(0%,0%,0%);fill-opacity:1;" d="M 270.390625 152.753906 L 269.433594 155.398438 L 261.304688 155.398438 L 261.304688 155.03125 C 263.6875 152.847656 265.367188 151.0625 266.34375 149.675781 C 267.320312 148.289062 267.808594 147.023438 267.808594 145.882812 C 267.808594 145.015625 267.539062 144.300781 267.007812 143.734375 C 266.472656 143.171875 265.828125 142.890625 265.074219 142.890625 C 264.410156 142.890625 263.808594 143.089844 263.265625 143.488281 C 262.726562 143.882812 262.324219 144.464844 262.0625 145.230469 L 261.695312 145.230469 C 261.867188 143.972656 262.304688 143.011719 263.007812 142.335938 C 263.707031 141.664062 264.578125 141.328125 265.617188 141.328125 C 266.746094 141.328125 267.683594 141.691406 268.425781 142.414062 C 269.171875 143.136719 269.542969 143.980469 269.542969 144.949219 C 269.542969 145.644531 269.382812 146.34375 269.066406 147.054688 C 268.5625 148.152344 267.742188 149.308594 266.617188 150.519531 C 264.9375 152.371094 263.882812 153.484375 263.453125 153.859375 L 267.050781 153.859375 C 267.789062 153.859375 268.304688 153.835938 268.597656 153.785156 C 268.894531 153.734375 269.164062 153.625 269.402344 153.460938 C 269.640625 153.292969 269.847656 153.058594 270.019531 152.753906 L 270.390625 152.753906 "/>
<path style="fill:none;stroke-width:1.2;stroke-linecap:butt;stroke-linejoin:round;stroke:rgb(0%,0%,0%);stroke-opacity:1;stroke-miterlimit:10;" d="M 2809.648438 4711.210938 L 2754.140625 4711.210938 " transform="matrix(0.1,0,0,-0.1,0,555)"/>
<path style=" stroke:none;fill-rule:nonzero;fill:rgb(0%,0%,0%);fill-opacity:1;" d="M 261.910156 80.410156 C 262.300781 79.484375 262.796875 78.769531 263.394531 78.265625 C 263.996094 77.757812 264.746094 77.503906 265.640625 77.503906 C 266.738281 77.503906 267.585938 77.867188 268.175781 78.589844 C 268.625 79.121094 268.847656 79.695312 268.847656 80.300781 C 268.847656 81.3125 268.21875 82.355469 266.964844 83.421875 C 267.800781 83.757812 268.4375 84.230469 268.871094 84.84375 C 269.304688 85.457031 269.523438 86.183594 269.523438 87.023438 C 269.523438 88.207031 269.144531 89.234375 268.394531 90.101562 C 267.394531 91.242188 265.964844 91.8125 264.101562 91.8125 C 263.160156 91.8125 262.527344 91.699219 262.191406 91.464844 C 261.859375 91.234375 261.695312 90.988281 261.695312 90.730469 C 261.695312 90.527344 261.773438 90.355469 261.933594 90.210938 C 262.09375 90.0625 262.28125 89.992188 262.496094 89.992188 C 262.671875 89.992188 262.84375 90.019531 263.015625 90.078125 C 263.132812 90.109375 263.394531 90.226562 263.808594 90.4375 C 264.21875 90.644531 264.5 90.773438 264.644531 90.816406 C 264.902344 90.886719 265.171875 90.925781 265.445312 90.925781 C 266.140625 90.925781 266.742188 90.65625 267.257812 90.121094 C 267.769531 89.585938 268.023438 88.960938 268.023438 88.234375 C 268.023438 87.703125 267.910156 87.179688 267.679688 86.675781 C 267.492188 86.285156 267.296875 85.996094 267.09375 85.808594 C 266.804688 85.535156 266.402344 85.289062 265.890625 85.070312 C 265.378906 84.855469 264.859375 84.746094 264.339844 84.746094 L 264.015625 84.746094 L 264.015625 84.421875 C 264.550781 84.363281 265.085938 84.175781 265.617188 83.855469 C 266.152344 83.539062 266.542969 83.15625 266.789062 82.707031 C 267.035156 82.261719 267.15625 81.769531 267.15625 81.234375 C 267.15625 80.539062 266.941406 79.976562 266.507812 79.542969 C 266.074219 79.109375 265.53125 78.890625 264.882812 78.890625 C 263.824219 78.890625 262.945312 79.457031 262.238281 80.582031 L 261.910156 80.410156 "/>
<path style="fill:none;stroke-width:1.2;stroke-linecap:butt;stroke-linejoin:round;stroke:rgb(0%,0%,0%);stroke-opacity:1;stroke-miterlimit:10;" d="M 2809.648438 5355.507812 L 2754.140625 5355.507812 " transform="matrix(0.1,0,0,-0.1,0,555)"/>
<path style=" stroke:none;fill-rule:nonzero;fill:rgb(0%,0%,0%);fill-opacity:1;" d="M 270.539062 22.675781 L 270.539062 24.109375 L 268.675781 24.109375 L 268.675781 27.75 L 267.007812 27.75 L 267.007812 24.109375 L 261.175781 24.109375 L 261.175781 22.808594 L 267.570312 13.679688 L 268.675781 13.679688 L 268.675781 22.675781 Z M 267.007812 22.675781 L 267.007812 15.824219 L 262.171875 22.675781 L 267.007812 22.675781 "/>
<path style="fill:none;stroke-width:1.2;stroke-linecap:butt;stroke-linejoin:round;stroke:rgb(0%,0%,0%);stroke-opacity:1;stroke-miterlimit:10;" d="M 2809.648438 523.320312 L 2781.875 523.320312 " transform="matrix(0.1,0,0,-0.1,0,555)"/>
<path style="fill:none;stroke-width:1.2;stroke-linecap:butt;stroke-linejoin:round;stroke:rgb(0%,0%,0%);stroke-opacity:1;stroke-miterlimit:10;" d="M 2809.648438 1167.617188 L 2781.875 1167.617188 " transform="matrix(0.1,0,0,-0.1,0,555)"/>
<path style="fill:none;stroke-width:1.2;stroke-linecap:butt;stroke-linejoin:round;stroke:rgb(0%,0%,0%);stroke-opacity:1;stroke-miterlimit:10;" d="M 2809.648438 1811.914062 L 2781.875 1811.914062 " transform="matrix(0.1,0,0,-0.1,0,555)"/>
<path style="fill:none;stroke-width:1.2;stroke-linecap:butt;stroke-linejoin:round;stroke:rgb(0%,0%,0%);stroke-opacity:1;stroke-miterlimit:10;" d="M 2809.648438 2456.210938 L 2781.875 2456.210938 " transform="matrix(0.1,0,0,-0.1,0,555)"/>
<path style="fill:none;stroke-width:1.2;stroke-linecap:butt;stroke-linejoin:round;stroke:rgb(0%,0%,0%);stroke-opacity:1;stroke-miterlimit:10;" d="M 2809.648438 3100.507812 L 2781.875 3100.507812 " transform="matrix(0.1,0,0,-0.1,0,555)"/>
<path style="fill:none;stroke-width:1.2;stroke-linecap:butt;stroke-linejoin:round;stroke:rgb(0%,0%,0%);stroke-opacity:1;stroke-miterlimit:10;" d="M 2809.648438 3744.765625 L 2781.875 3744.765625 " transform="matrix(0.1,0,0,-0.1,0,555)"/>
<path style="fill:none;stroke-width:1.2;stroke-linecap:butt;stroke-linejoin:round;stroke:rgb(0%,0%,0%);stroke-opacity:1;stroke-miterlimit:10;" d="M 2809.648438 4389.0625 L 2781.875 4389.0625 " transform="matrix(0.1,0,0,-0.1,0,555)"/>
<path style="fill:none;stroke-width:1.2;stroke-linecap:butt;stroke-linejoin:round;stroke:rgb(0%,0%,0%);stroke-opacity:1;stroke-miterlimit:10;" d="M 2809.648438 5033.359375 L 2781.875 5033.359375 " transform="matrix(0.1,0,0,-0.1,0,555)"/>
</g>
</svg>
