<?xml version="1.0" encoding="UTF-8"?>
<svg xmlns="http://www.w3.org/2000/svg" xmlns:xlink="http://www.w3.org/1999/xlink" width="555pt" height="555pt" viewBox="0 0 555 555" version="1.1">
<defs>
<clipPath id="clip1">
  <path d="M 12.867188 18 L 26 18 L 26 44 L 12.867188 44 Z M 12.867188 18 "/>
</clipPath>
<clipPath id="clip2">
  <path d="M 11.480469 17 L 27 17 L 27 279 L 11.480469 279 Z M 11.480469 17 "/>
</clipPath>
<clipPath id="clip3">
  <path d="M 6.9375 251 L 44 251 L 44 301 L 6.9375 301 Z M 6.9375 251 "/>
</clipPath>
<clipPath id="clip4">
  <path d="M 11 295 L 16.648438 295 L 16.648438 297 L 11 297 Z M 11 295 "/>
</clipPath>
<clipPath id="clip5">
  <path d="M 136 295 L 141.523438 295 L 141.523438 297 L 136 297 Z M 136 295 "/>
</clipPath>
<clipPath id="clip6">
  <path d="M 254 536 L 259.464844 536 L 259.464844 538 L 254 538 Z M 254 536 "/>
</clipPath>
<clipPath id="clip7">
  <path d="M 240 407 L 245.589844 407 L 245.589844 409 L 240 409 Z M 240 407 "/>
</clipPath>
</defs>
<g id="surface1">
<rect x="0" y="0" width="555" height="555" style="fill:rgb(100%,100%,100%);fill-opacity:1;stroke:none;"/>
<g clip-path="url(#clip1)" clip-rule="nonzero">
<path style=" stroke:none;fill-rule:nonzero;fill:rgb(100%,0%,100%);fill-opacity:1;" d="M 12.867188 43.96875 L 19.40625 18.058594 L 25.945312 43.96875 L 12.867188 43.96875 "/>
</g>
<path style=" stroke:none;fill-rule:nonzero;fill:rgb(100%,0%,100%);fill-opacity:1;" d="M 20.714844 277.164062 L 18.101562 277.164062 L 18.101562 43.96875 L 20.714844 43.96875 L 20.714844 277.164062 "/>
<g clip-path="url(#clip2)" clip-rule="nonzero">
<path style="fill:none;stroke-width:20.8125;stroke-linecap:butt;stroke-linejoin:round;stroke:rgb(0%,0%,0%);stroke-opacity:1;stroke-miterlimit:10;" d="M 207.148438 2778.359375 L 181.015625 2778.359375 L 181.015625 5110.3125 L 128.671875 5110.3125 L 194.0625 5369.414062 L 259.453125 5110.3125 L 207.148438 5110.3125 L 207.148438 2778.359375 " transform="matrix(0.1,0,0,-0.1,0,555)"/>
</g>
<g clip-path="url(#clip3)" clip-rule="nonzero">
<path style="fill:none;stroke-width:13.875;stroke-linecap:square;stroke-linejoin:miter;stroke:rgb(100%,0%,0%);stroke-opacity:1;stroke-miterlimit:10;" d="M 235.703125 2785.3125 C 235.703125 2758.476562 213.945312 2736.757812 187.148438 2736.757812 C 160.3125 2736.757812 138.59375 2758.476562 138.59375 2785.3125 C 138.59375 2812.148438 160.3125 2833.867188 187.148438 2833.867188 C 213.945312 2833.867188 235.703125 2812.148438 235.703125 2785.3125 Z M 235.703125 2785.3125 " transform="matrix(0.1,0,0,-0.1,0,555)"/>
</g>
<path style=" stroke:none;fill-rule:nonzero;fill:rgb(100%,0%,0%);fill-opacity:1;" d="M 23.570312 276.46875 C 23.570312 279.152344 21.394531 281.324219 18.714844 281.324219 C 16.03125 281.324219 13.859375 279.152344 13.859375 276.46875 C 13.859375 273.785156 16.03125 271.613281 18.714844 271.613281 C 21.394531 271.613281 23.570312 273.785156 23.570312 276.46875 "/>
<path style="fill:none;stroke-width:27.75;stroke-linecap:butt;stroke-linejoin:round;stroke:rgb(0%,0%,100%);stroke-opacity:1;stroke-miterlimit:10;" d="M 5425.039062 2778.359375 L 5423.632812 2949.453125 L 5420.078125 3097.695312 L 5413.476562 3263.125 L 5404.101562 3427.65625 L 5392.03125 3588.632812 L 5378.4375 3734.84375 L 5361.914062 3882.65625 L 5342.265625 4030.976562 L 5320.039062 4173.671875 L 5294.492188 4314.492188 L 5269.726562 4433.007812 L 5239.414062 4559.726562 L 5206.328125 4679.335938 L 5172.03125 4786.835938 L 5138.828125 4877.5 L 5096.835938 4976.289062 L 5059.179688 5051.953125 L 5013.007812 5130.390625 L 4970.078125 5190.9375 L 4920.742188 5247.539062 L 4871.640625 5291.601562 L 4818.359375 5327.1875 L 4767.5 5350.429688 L 4710.703125 5365.234375 L 4649.648438 5369.257812 L 4594.804688 5363.398438 L 4533.90625 5347.1875 L 4469.140625 5319.804688 L 4404.140625 5282.65625 L 4339.726562 5237.109375 L 4266.523438 5175.664062 L 4199.257812 5110.976562 L 4126.015625 5032.1875 L 4058.4375 4952.460938 L 3983.28125 4856.5625 L 3911.445312 4758.359375 L 3835.273438 4647.8125 L 3759.804688 4532.421875 L 3679.765625 4404.296875 L 3601.835938 4274.375 L 3521.328125 4135.351562 L 3440.742188 3991.992188 L 3366.132812 3855.859375 L 3280.039062 3695.3125 L 3202.578125 3548.242188 L 3119.609375 3388.359375 L 3039.882812 3232.96875 L 2951.132812 3058.476562 L 2874.140625 2906.289062 L 2786.71875 2733.046875 L 2706.992188 2575.3125 L 2619.960938 2403.671875 L 2545 2256.875 L 2459.921875 2091.835938 L 2378.085938 1935.195312 L 2296.71875 1782.03125 L 2216.210938 1633.398438 L 2139.375 1494.84375 L 2057.03125 1350.390625 L 1979.296875 1218.4375 L 1898.359375 1086.09375 L 1825.9375 972.539062 L 1746.875 854.492188 L 1672.265625 749.21875 L 1598.945312 652.1875 L 1523.59375 559.726562 L 1455.46875 483.046875 L 1386.953125 413.164062 L 1312.890625 346.484375 L 1247.34375 295.898438 L 1181.835938 253.984375 L 1116.875 221.679688 L 1058.710938 201.328125 L 998.4375 189.492188 L 940.351562 187.929688 L 880.234375 197.421875 L 828.984375 215.390625 L 771.992188 247.226562 L 722.617188 286.015625 L 675.664062 333.632812 L 627.382812 394.921875 L 581.25 466.679688 L 541.367188 540.664062 L 501.210938 627.929688 L 464.296875 721.445312 L 426.796875 831.679688 L 396.484375 934.140625 L 364.21875 1059.492188 L 336.328125 1184.296875 L 311.132812 1314.0625 L 288.320312 1449.570312 L 267.539062 1593.046875 L 248.320312 1750.3125 L 233.203125 1898.59375 L 220.703125 2048.28125 L 210 2211.210938 L 202.03125 2376.210938 L 197.1875 2525.742188 L 194.335938 2703.945312 L 194.335938 2853.359375 L 197.109375 3027.773438 L 202.539062 3193.203125 L 209.648438 3339.453125 L 220.195312 3501.71875 L 233.554688 3661.953125 L 249.570312 3817.773438 L 266.835938 3958.320312 L 287.109375 4099.375 L 310.625 4239.882812 L 336.640625 4373.90625 L 366.054688 4504.960938 L 394.179688 4614.179688 L 428.242188 4729.726562 L 465.039062 4837.34375 L 502.851562 4932.65625 L 539.21875 5011.757812 L 584.882812 5096.210938 L 625.625 5159.296875 L 675.273438 5222.65625 L 721.289062 5269.492188 L 773.867188 5310.742188 L 825.9375 5339.921875 L 882.34375 5359.84375 L 935.9375 5368.515625 L 995.585938 5367.539062 L 1059.53125 5355.195312 L 1116.796875 5335.078125 L 1180.273438 5303.632812 L 1247.539062 5260.703125 L 1314.882812 5208.554688 L 1381.523438 5148.789062 L 1457.070312 5071.953125 L 1526.328125 4993.828125 L 1601.5625 4901.210938 L 1670.898438 4809.414062 L 1747.773438 4700.898438 L 1821.171875 4591.40625 L 1898.90625 4469.765625 L 1975.742188 4344.21875 L 2057.070312 4206.210938 L 2136.171875 4067.578125 L 2217.734375 3920.507812 L 2299.257812 3770.039062 L 2374.609375 3628.164062 L 2461.40625 3462.03125 L 2539.375 3310.78125 L 2622.8125 3147.460938 L 2702.8125 2989.6875 L 2868.828125 2660.976562 L 2956.210938 2488.242188 L 3035.742188 2331.914062 L 3122.460938 2162.890625 L 3196.992188 2019.179688 L 3281.523438 1858.59375 L 3362.695312 1707.265625 L 3443.242188 1560.273438 L 3522.851562 1418.671875 L 3598.671875 1287.734375 L 3679.84375 1152.34375 L 3756.328125 1029.765625 L 3835.820312 908.085938 L 3906.835938 804.882812 L 3984.179688 698.984375 L 4057.109375 605.898438 L 4128.59375 521.640625 L 4201.875 443.085938 L 4268.046875 379.648438 L 4334.453125 323.671875 L 4406.09375 272.851562 L 4469.335938 236.835938 L 4532.382812 210.078125 L 4594.726562 193.359375 L 4650.390625 187.421875 L 4708.007812 191.054688 L 4763.28125 204.804688 L 4820.3125 230.625 L 4868.789062 262.890625 L 4922.460938 310.976562 L 4968.828125 364.179688 L 5012.65625 425.78125 L 5057.539062 501.71875 L 5100.195312 587.773438 L 5136.875 674.257812 L 5173.515625 774.296875 L 5207.03125 879.6875 L 5240.742188 1002.148438 L 5267.695312 1114.53125 L 5296.09375 1250.585938 L 5320.3125 1384.648438 L 5341.835938 1522.773438 L 5360.9375 1665.898438 L 5377.890625 1816.289062 L 5393.046875 1979.882812 L 5404.375 2133.046875 L 5413.125 2286.679688 L 5419.882812 2452.890625 L 5423.828125 2620.078125 L 5425.039062 2778.359375 " transform="matrix(0.1,0,0,-0.1,0,555)"/>
<path style="fill:none;stroke-width:13.875;stroke-linecap:butt;stroke-linejoin:round;stroke:rgb(0%,0%,0%);stroke-opacity:1;stroke-miterlimit:10;" d="M 128.671875 2778.359375 L 5425.039062 2778.359375 " transform="matrix(0.1,0,0,-0.1,0,555)"/>
<path style="fill:none;stroke-width:1.2;stroke-linecap:butt;stroke-linejoin:round;stroke:rgb(0%,0%,0%);stroke-opacity:1;stroke-miterlimit:10;" d="M 194.0625 2778.359375 L 194.0625 2722.851562 " transform="matrix(0.1,0,0,-0.1,0,555)"/>
<g clip-path="url(#clip4)" clip-rule="nonzero">
<path style=" stroke:none;fill-rule:nonzero;fill:rgb(0%,0%,0%);fill-opacity:1;" d="M 11.382812 296.144531 L 23.304688 296.144531 L 23.304688 295.210938 L 11.382812 295.210938 Z M 11.382812 296.144531 "/>
</g>
<path style=" stroke:none;fill-rule:nonzero;fill:rgb(0%,0%,0%);fill-opacity:1;" d="M 21.550781 290.3125 L 24.453125 288.902344 L 24.734375 288.902344 L 24.734375 298.984375 C 24.734375 299.648438 24.765625 300.066406 24.824219 300.230469 C 24.882812 300.394531 24.996094 300.523438 25.167969 300.609375 C 25.34375 300.695312 25.699219 300.746094 26.230469 300.761719 L 26.230469 301.085938 L 21.746094 301.085938 L 21.746094 300.761719 C 22.308594 300.746094 22.671875 300.695312 22.839844 300.609375 C 23.007812 300.523438 23.121094 300.40625 23.1875 300.261719 C 23.25 300.117188 23.285156 299.691406 23.285156 298.984375 L 23.285156 292.546875 C 23.285156 291.664062 23.253906 291.101562 23.199219 290.855469 C 23.152344 290.664062 23.078125 290.527344 22.96875 290.441406 C 22.859375 290.355469 22.726562 290.3125 22.570312 290.3125 C 22.351562 290.3125 22.054688 290.40625 21.679688 290.59375 L 21.550781 290.3125 "/>
<path style="fill:none;stroke-width:1.2;stroke-linecap:butt;stroke-linejoin:round;stroke:rgb(0%,0%,0%);stroke-opacity:1;stroke-miterlimit:10;" d="M 1501.835938 2778.359375 L 1501.835938 2722.851562 " transform="matrix(0.1,0,0,-0.1,0,555)"/>
<g clip-path="url(#clip5)" clip-rule="nonzero">
<path style=" stroke:none;fill-rule:nonzero;fill:rgb(0%,0%,0%);fill-opacity:1;" d="M 136.257812 296.144531 L 148.179688 296.144531 L 148.179688 295.210938 L 136.257812 295.210938 Z M 136.257812 296.144531 "/>
</g>
<path style=" stroke:none;fill-rule:nonzero;fill:rgb(0%,0%,0%);fill-opacity:1;" d="M 144.949219 295.191406 C 144.949219 293.832031 145.15625 292.65625 145.566406 291.664062 C 145.980469 290.675781 146.523438 289.941406 147.203125 289.46875 C 147.738281 289.089844 148.289062 288.902344 148.851562 288.902344 C 149.761719 288.902344 150.578125 289.367188 151.300781 290.289062 C 152.214844 291.445312 152.667969 293.015625 152.667969 294.996094 C 152.667969 296.382812 152.46875 297.5625 152.070312 298.527344 C 151.675781 299.496094 151.164062 300.203125 150.542969 300.640625 C 149.921875 301.082031 149.328125 301.304688 148.765625 301.304688 C 147.621094 301.304688 146.671875 300.632812 145.902344 299.289062 C 145.265625 298.144531 144.949219 296.777344 144.949219 295.191406 Z M 146.683594 295.40625 C 146.683594 297.054688 146.886719 298.398438 147.289062 299.4375 C 147.621094 300.304688 148.121094 300.742188 148.785156 300.742188 C 149.105469 300.742188 149.433594 300.597656 149.773438 300.316406 C 150.113281 300.035156 150.371094 299.554688 150.542969 298.875 C 150.816406 297.878906 150.953125 296.453125 150.953125 294.605469 C 150.953125 293.246094 150.808594 292.113281 150.519531 291.203125 C 150.320312 290.519531 150.042969 290.046875 149.695312 289.769531 C 149.46875 289.582031 149.175781 289.488281 148.828125 289.488281 C 148.441406 289.488281 148.085938 289.660156 147.769531 290.007812 C 147.347656 290.5 147.0625 291.269531 146.910156 292.316406 C 146.761719 293.363281 146.683594 294.394531 146.683594 295.40625 Z M 155.574219 299.375 C 155.847656 299.375 156.078125 299.472656 156.265625 299.667969 C 156.453125 299.863281 156.550781 300.089844 156.550781 300.347656 C 156.550781 300.625 156.453125 300.855469 156.265625 301.042969 C 156.078125 301.230469 155.847656 301.324219 155.574219 301.324219 C 155.300781 301.324219 155.066406 301.230469 154.878906 301.042969 C 154.691406 300.855469 154.597656 300.625 154.597656 300.347656 C 154.597656 300.074219 154.691406 299.84375 154.878906 299.65625 C 155.066406 299.46875 155.300781 299.375 155.574219 299.375 Z M 165.652344 289.140625 L 164.960938 290.636719 L 161.382812 290.636719 L 160.601562 292.242188 C 162.148438 292.472656 163.378906 293.050781 164.289062 293.976562 C 165.066406 294.769531 165.460938 295.710938 165.460938 296.796875 C 165.460938 297.429688 165.332031 298.015625 165.078125 298.550781 C 164.828125 299.085938 164.503906 299.539062 164.113281 299.914062 C 163.726562 300.292969 163.289062 300.589844 162.8125 300.804688 C 162.148438 301.136719 161.453125 301.304688 160.730469 301.304688 C 160.023438 301.304688 159.507812 301.179688 159.183594 300.933594 C 158.859375 300.6875 158.695312 300.421875 158.695312 300.132812 C 158.695312 299.960938 158.761719 299.8125 158.902344 299.6875 C 159.039062 299.566406 159.207031 299.503906 159.410156 299.503906 C 159.554688 299.503906 159.683594 299.527344 159.800781 299.570312 C 159.914062 299.613281 160.109375 299.734375 160.386719 299.9375 C 160.835938 300.242188 161.28125 300.394531 161.730469 300.394531 C 162.421875 300.394531 163.027344 300.132812 163.539062 299.613281 C 164.054688 299.09375 164.308594 298.457031 164.308594 297.703125 C 164.308594 296.980469 164.078125 296.308594 163.613281 295.6875 C 163.152344 295.066406 162.519531 294.582031 161.707031 294.234375 C 161.058594 293.976562 160.183594 293.824219 159.085938 293.78125 L 161.382812 289.140625 L 165.652344 289.140625 "/>
<path style="fill:none;stroke-width:1.2;stroke-linecap:butt;stroke-linejoin:round;stroke:rgb(0%,0%,0%);stroke-opacity:1;stroke-miterlimit:10;" d="M 2809.570312 2778.359375 L 2809.570312 2722.851562 " transform="matrix(0.1,0,0,-0.1,0,555)"/>
<path style=" stroke:none;fill-rule:nonzero;fill:rgb(0%,0%,0%);fill-opacity:1;" d="M 269.824219 292.414062 C 269.824219 291.054688 270.03125 289.882812 270.441406 288.890625 C 270.855469 287.902344 271.398438 287.167969 272.078125 286.691406 C 272.613281 286.316406 273.164062 286.128906 273.726562 286.128906 C 274.636719 286.128906 275.453125 286.589844 276.175781 287.515625 C 277.089844 288.671875 277.542969 290.238281 277.542969 292.21875 C 277.542969 293.605469 277.34375 294.785156 276.945312 295.753906 C 276.550781 296.722656 276.039062 297.425781 275.417969 297.867188 C 274.796875 298.308594 274.203125 298.527344 273.640625 298.527344 C 272.496094 298.527344 271.546875 297.855469 270.777344 296.511719 C 270.140625 295.371094 269.824219 294.003906 269.824219 292.414062 Z M 271.558594 292.632812 C 271.558594 294.277344 271.761719 295.621094 272.164062 296.664062 C 272.496094 297.53125 272.996094 297.964844 273.660156 297.964844 C 273.980469 297.964844 274.308594 297.824219 274.648438 297.542969 C 274.988281 297.261719 275.246094 296.777344 275.417969 296.101562 C 275.691406 295.101562 275.828125 293.679688 275.828125 291.828125 C 275.828125 290.472656 275.683594 289.335938 275.394531 288.425781 C 275.195312 287.746094 274.917969 287.269531 274.570312 286.996094 C 274.34375 286.808594 274.050781 286.714844 273.703125 286.714844 C 273.316406 286.714844 272.960938 286.886719 272.644531 287.234375 C 272.222656 287.726562 271.9375 288.496094 271.785156 289.542969 C 271.636719 290.589844 271.558594 291.621094 271.558594 292.632812 "/>
<path style="fill:none;stroke-width:1.2;stroke-linecap:butt;stroke-linejoin:round;stroke:rgb(0%,0%,0%);stroke-opacity:1;stroke-miterlimit:10;" d="M 4117.304688 2778.359375 L 4117.304688 2722.851562 " transform="matrix(0.1,0,0,-0.1,0,555)"/>
<path style=" stroke:none;fill-rule:nonzero;fill:rgb(0%,0%,0%);fill-opacity:1;" d="M 400.25 295.191406 C 400.25 293.832031 400.457031 292.65625 400.867188 291.664062 C 401.277344 290.675781 401.824219 289.941406 402.503906 289.46875 C 403.039062 289.089844 403.589844 288.902344 404.152344 288.902344 C 405.0625 288.902344 405.878906 289.367188 406.601562 290.289062 C 407.511719 291.445312 407.96875 293.015625 407.96875 294.996094 C 407.96875 296.382812 407.769531 297.5625 407.371094 298.527344 C 406.976562 299.496094 406.464844 300.203125 405.84375 300.640625 C 405.222656 301.082031 404.628906 301.304688 404.066406 301.304688 C 402.921875 301.304688 401.96875 300.632812 401.203125 299.289062 C 400.566406 298.144531 400.25 296.777344 400.25 295.191406 Z M 401.984375 295.40625 C 401.984375 297.054688 402.1875 298.398438 402.589844 299.4375 C 402.921875 300.304688 403.421875 300.742188 404.085938 300.742188 C 404.40625 300.742188 404.734375 300.597656 405.074219 300.316406 C 405.414062 300.035156 405.671875 299.554688 405.84375 298.875 C 406.117188 297.878906 406.253906 296.453125 406.253906 294.605469 C 406.253906 293.246094 406.109375 292.113281 405.820312 291.203125 C 405.617188 290.519531 405.34375 290.046875 404.996094 289.769531 C 404.765625 289.582031 404.476562 289.488281 404.128906 289.488281 C 403.738281 289.488281 403.386719 289.660156 403.070312 290.007812 C 402.648438 290.5 402.363281 291.269531 402.210938 292.316406 C 402.058594 293.363281 401.984375 294.394531 401.984375 295.40625 Z M 410.871094 299.375 C 411.148438 299.375 411.378906 299.472656 411.566406 299.667969 C 411.753906 299.863281 411.847656 300.089844 411.847656 300.347656 C 411.847656 300.625 411.753906 300.855469 411.566406 301.042969 C 411.378906 301.230469 411.148438 301.324219 410.871094 301.324219 C 410.597656 301.324219 410.367188 301.230469 410.179688 301.042969 C 409.992188 300.855469 409.894531 300.625 409.894531 300.347656 C 409.894531 300.074219 409.992188 299.84375 410.179688 299.65625 C 410.367188 299.46875 410.597656 299.375 410.871094 299.375 Z M 420.953125 289.140625 L 420.261719 290.636719 L 416.683594 290.636719 L 415.902344 292.242188 C 417.449219 292.472656 418.679688 293.050781 419.589844 293.976562 C 420.367188 294.769531 420.757812 295.710938 420.757812 296.796875 C 420.757812 297.429688 420.632812 298.015625 420.378906 298.550781 C 420.128906 299.085938 419.804688 299.539062 419.414062 299.914062 C 419.023438 300.292969 418.589844 300.589844 418.113281 300.804688 C 417.449219 301.136719 416.753906 301.304688 416.03125 301.304688 C 415.324219 301.304688 414.808594 301.179688 414.480469 300.933594 C 414.15625 300.6875 413.996094 300.421875 413.996094 300.132812 C 413.996094 299.960938 414.0625 299.8125 414.199219 299.6875 C 414.339844 299.566406 414.507812 299.503906 414.710938 299.503906 C 414.855469 299.503906 414.984375 299.527344 415.101562 299.570312 C 415.214844 299.613281 415.410156 299.734375 415.683594 299.9375 C 416.132812 300.242188 416.582031 300.394531 417.03125 300.394531 C 417.722656 300.394531 418.328125 300.132812 418.839844 299.613281 C 419.355469 299.09375 419.609375 298.457031 419.609375 297.703125 C 419.609375 296.980469 419.378906 296.308594 418.914062 295.6875 C 418.453125 295.066406 417.816406 294.582031 417.007812 294.234375 C 416.359375 293.976562 415.484375 293.824219 414.386719 293.78125 L 416.683594 289.140625 L 420.953125 289.140625 "/>
<path style="fill:none;stroke-width:1.2;stroke-linecap:butt;stroke-linejoin:round;stroke:rgb(0%,0%,0%);stroke-opacity:1;stroke-miterlimit:10;" d="M 5425.039062 2778.359375 L 5425.039062 2722.851562 " transform="matrix(0.1,0,0,-0.1,0,555)"/>
<path style=" stroke:none;fill-rule:nonzero;fill:rgb(0%,0%,0%);fill-opacity:1;" d="M 539.085938 290.3125 L 541.992188 288.902344 L 542.273438 288.902344 L 542.273438 298.984375 C 542.273438 299.648438 542.304688 300.066406 542.359375 300.230469 C 542.417969 300.394531 542.53125 300.523438 542.707031 300.609375 C 542.878906 300.695312 543.234375 300.746094 543.769531 300.761719 L 543.769531 301.085938 L 539.28125 301.085938 L 539.28125 300.761719 C 539.847656 300.746094 540.210938 300.695312 540.375 300.609375 C 540.542969 300.523438 540.660156 300.40625 540.722656 300.261719 C 540.789062 300.117188 540.820312 299.691406 540.820312 298.984375 L 540.820312 292.546875 C 540.820312 291.664062 540.792969 291.101562 540.734375 290.855469 C 540.691406 290.664062 540.613281 290.527344 540.507812 290.441406 C 540.398438 290.355469 540.265625 290.3125 540.105469 290.3125 C 539.890625 290.3125 539.59375 290.40625 539.21875 290.59375 L 539.085938 290.3125 "/>
<path style="fill:none;stroke-width:1.2;stroke-linecap:butt;stroke-linejoin:round;stroke:rgb(0%,0%,0%);stroke-opacity:1;stroke-miterlimit:10;" d="M 455.625 2778.359375 L 455.625 2750.625 " transform="matrix(0.1,0,0,-0.1,0,555)"/>
<path style="fill:none;stroke-width:1.2;stroke-linecap:butt;stroke-linejoin:round;stroke:rgb(0%,0%,0%);stroke-opacity:1;stroke-miterlimit:10;" d="M 717.1875 2778.359375 L 717.1875 2750.625 " transform="matrix(0.1,0,0,-0.1,0,555)"/>
<path style="fill:none;stroke-width:1.2;stroke-linecap:butt;stroke-linejoin:round;stroke:rgb(0%,0%,0%);stroke-opacity:1;stroke-miterlimit:10;" d="M 978.710938 2778.359375 L 978.710938 2750.625 " transform="matrix(0.1,0,0,-0.1,0,555)"/>
<path style="fill:none;stroke-width:1.2;stroke-linecap:butt;stroke-linejoin:round;stroke:rgb(0%,0%,0%);stroke-opacity:1;stroke-miterlimit:10;" d="M 1240.273438 2778.359375 L 1240.273438 2750.625 " transform="matrix(0.1,0,0,-0.1,0,555)"/>
<path style="fill:none;stroke-width:1.2;stroke-linecap:butt;stroke-linejoin:round;stroke:rgb(0%,0%,0%);stroke-opacity:1;stroke-miterlimit:10;" d="M 1763.359375 2778.359375 L 1763.359375 2750.625 " transform="matrix(0.1,0,0,-0.1,0,555)"/>
<path style="fill:none;stroke-width:1.2;stroke-linecap:butt;stroke-linejoin:round;stroke:rgb(0%,0%,0%);stroke-opacity:1;stroke-miterlimit:10;" d="M 2024.921875 2778.359375 L 2024.921875 2750.625 " transform="matrix(0.1,0,0,-0.1,0,555)"/>
<path style="fill:none;stroke-width:1.2;stroke-linecap:butt;stroke-linejoin:round;stroke:rgb(0%,0%,0%);stroke-opacity:1;stroke-miterlimit:10;" d="M 2286.445312 2778.359375 L 2286.445312 2750.625 " transform="matrix(0.1,0,0,-0.1,0,555)"/>
<path style="fill:none;stroke-width:1.2;stroke-linecap:butt;stroke-linejoin:round;stroke:rgb(0%,0%,0%);stroke-opacity:1;stroke-miterlimit:10;" d="M 2548.007812 2778.359375 L 2548.007812 2750.625 " transform="matrix(0.1,0,0,-0.1,0,555)"/>
<path style="fill:none;stroke-width:1.2;stroke-linecap:butt;stroke-linejoin:round;stroke:rgb(0%,0%,0%);stroke-opacity:1;stroke-miterlimit:10;" d="M 3071.09375 2778.359375 L 3071.09375 2750.625 " transform="matrix(0.1,0,0,-0.1,0,555)"/>
<path style="fill:none;stroke-width:1.2;stroke-linecap:butt;stroke-linejoin:round;stroke:rgb(0%,0%,0%);stroke-opacity:1;stroke-miterlimit:10;" d="M 3332.65625 2778.359375 L 3332.65625 2750.625 " transform="matrix(0.1,0,0,-0.1,0,555)"/>
<path style="fill:none;stroke-width:1.2;stroke-linecap:butt;stroke-linejoin:round;stroke:rgb(0%,0%,0%);stroke-opacity:1;stroke-miterlimit:10;" d="M 3594.21875 2778.359375 L 3594.21875 2750.625 " transform="matrix(0.1,0,0,-0.1,0,555)"/>
<path style="fill:none;stroke-width:1.2;stroke-linecap:butt;stroke-linejoin:round;stroke:rgb(0%,0%,0%);stroke-opacity:1;stroke-miterlimit:10;" d="M 3855.742188 2778.359375 L 3855.742188 2750.625 " transform="matrix(0.1,0,0,-0.1,0,555)"/>
<path style="fill:none;stroke-width:1.2;stroke-linecap:butt;stroke-linejoin:round;stroke:rgb(0%,0%,0%);stroke-opacity:1;stroke-miterlimit:10;" d="M 4378.867188 2778.359375 L 4378.867188 2750.625 " transform="matrix(0.1,0,0,-0.1,0,555)"/>
<path style="fill:none;stroke-width:1.2;stroke-linecap:butt;stroke-linejoin:round;stroke:rgb(0%,0%,0%);stroke-opacity:1;stroke-miterlimit:10;" d="M 4640.390625 2778.359375 L 4640.390625 2750.625 " transform="matrix(0.1,0,0,-0.1,0,555)"/>
<path style="fill:none;stroke-width:1.2;stroke-linecap:butt;stroke-linejoin:round;stroke:rgb(0%,0%,0%);stroke-opacity:1;stroke-miterlimit:10;" d="M 4901.953125 2778.359375 L 4901.953125 2750.625 " transform="matrix(0.1,0,0,-0.1,0,555)"/>
<path style="fill:none;stroke-width:1.2;stroke-linecap:butt;stroke-linejoin:round;stroke:rgb(0%,0%,0%);stroke-opacity:1;stroke-miterlimit:10;" d="M 5163.515625 2778.359375 L 5163.515625 2750.625 " transform="matrix(0.1,0,0,-0.1,0,555)"/>
<path style="fill:none;stroke-width:13.875;stroke-linecap:butt;stroke-linejoin:round;stroke:rgb(0%,0%,0%);stroke-opacity:1;stroke-miterlimit:10;" d="M 2809.570312 187.421875 L 2809.570312 5369.414062 " transform="matrix(0.1,0,0,-0.1,0,555)"/>
<path style="fill:none;stroke-width:1.2;stroke-linecap:butt;stroke-linejoin:round;stroke:rgb(0%,0%,0%);stroke-opacity:1;stroke-miterlimit:10;" d="M 2809.570312 187.34375 L 2754.0625 187.34375 " transform="matrix(0.1,0,0,-0.1,0,555)"/>
<g clip-path="url(#clip6)" clip-rule="nonzero">
<path style=" stroke:none;fill-rule:nonzero;fill:rgb(0%,0%,0%);fill-opacity:1;" d="M 254.195312 537.570312 L 266.117188 537.570312 L 266.117188 536.636719 L 254.195312 536.636719 Z M 254.195312 537.570312 "/>
</g>
<path style=" stroke:none;fill-rule:nonzero;fill:rgb(0%,0%,0%);fill-opacity:1;" d="M 264.363281 531.738281 L 267.265625 530.328125 L 267.550781 530.328125 L 267.550781 540.410156 C 267.550781 541.074219 267.578125 541.488281 267.636719 541.65625 C 267.691406 541.820312 267.808594 541.949219 267.980469 542.035156 C 268.15625 542.121094 268.507812 542.171875 269.046875 542.1875 L 269.046875 542.511719 L 264.554688 542.511719 L 264.554688 542.1875 C 265.121094 542.171875 265.484375 542.121094 265.652344 542.035156 C 265.816406 541.949219 265.933594 541.832031 265.996094 541.6875 C 266.0625 541.542969 266.097656 541.117188 266.097656 540.410156 L 266.097656 533.96875 C 266.097656 533.089844 266.066406 532.527344 266.007812 532.28125 C 265.964844 532.089844 265.890625 531.953125 265.78125 531.867188 C 265.671875 531.78125 265.539062 531.738281 265.378906 531.738281 C 265.164062 531.738281 264.867188 531.832031 264.492188 532.019531 L 264.363281 531.738281 "/>
<path style="fill:none;stroke-width:1.2;stroke-linecap:butt;stroke-linejoin:round;stroke:rgb(0%,0%,0%);stroke-opacity:1;stroke-miterlimit:10;" d="M 2809.570312 1482.851562 L 2754.0625 1482.851562 " transform="matrix(0.1,0,0,-0.1,0,555)"/>
<g clip-path="url(#clip7)" clip-rule="nonzero">
<path style=" stroke:none;fill-rule:nonzero;fill:rgb(0%,0%,0%);fill-opacity:1;" d="M 240.320312 408.53125 L 252.242188 408.53125 L 252.242188 407.597656 L 240.320312 407.597656 Z M 240.320312 408.53125 "/>
</g>
<path style=" stroke:none;fill-rule:nonzero;fill:rgb(0%,0%,0%);fill-opacity:1;" d="M 249.011719 407.578125 C 249.011719 406.21875 249.21875 405.046875 249.632812 404.054688 C 250.039062 403.0625 250.589844 402.328125 251.265625 401.855469 C 251.800781 401.480469 252.351562 401.289062 252.914062 401.289062 C 253.824219 401.289062 254.640625 401.753906 255.363281 402.675781 C 256.273438 403.835938 256.730469 405.402344 256.730469 407.382812 C 256.730469 408.769531 256.53125 409.949219 256.132812 410.914062 C 255.738281 411.886719 255.226562 412.589844 254.605469 413.03125 C 253.984375 413.472656 253.390625 413.691406 252.828125 413.691406 C 251.6875 413.691406 250.730469 413.019531 249.964844 411.675781 C 249.328125 410.535156 249.011719 409.167969 249.011719 407.578125 Z M 250.746094 407.796875 C 250.746094 409.441406 250.949219 410.785156 251.355469 411.828125 C 251.6875 412.695312 252.183594 413.128906 252.851562 413.128906 C 253.167969 413.128906 253.496094 412.988281 253.835938 412.703125 C 254.175781 412.421875 254.433594 411.941406 254.605469 411.261719 C 254.878906 410.265625 255.015625 408.84375 255.015625 406.992188 C 255.015625 405.632812 254.871094 404.5 254.585938 403.589844 C 254.382812 402.910156 254.105469 402.433594 253.761719 402.15625 C 253.53125 401.96875 253.238281 401.875 252.894531 401.875 C 252.503906 401.875 252.148438 402.050781 251.832031 402.394531 C 251.410156 402.886719 251.128906 403.65625 250.972656 404.703125 C 250.824219 405.753906 250.746094 406.78125 250.746094 407.796875 Z M 259.636719 411.761719 C 259.910156 411.761719 260.140625 411.859375 260.328125 412.054688 C 260.515625 412.25 260.609375 412.476562 260.609375 412.738281 C 260.609375 413.011719 260.515625 413.242188 260.328125 413.429688 C 260.140625 413.617188 259.910156 413.710938 259.636719 413.710938 C 259.359375 413.710938 259.128906 413.617188 258.941406 413.429688 C 258.753906 413.242188 258.660156 413.011719 258.660156 412.738281 C 258.660156 412.460938 258.753906 412.230469 258.941406 412.042969 C 259.128906 411.855469 259.359375 411.761719 259.636719 411.761719 Z M 269.714844 401.527344 L 269.023438 403.023438 L 265.445312 403.023438 L 264.664062 404.628906 C 266.210938 404.859375 267.441406 405.4375 268.351562 406.363281 C 269.128906 407.15625 269.523438 408.097656 269.523438 409.183594 C 269.523438 409.816406 269.394531 410.402344 269.140625 410.9375 C 268.890625 411.472656 268.566406 411.929688 268.175781 412.304688 C 267.789062 412.679688 267.351562 412.976562 266.875 413.191406 C 266.210938 413.523438 265.519531 413.691406 264.796875 413.691406 C 264.085938 413.691406 263.570312 413.566406 263.246094 413.320312 C 262.921875 413.078125 262.757812 412.808594 262.757812 412.519531 C 262.757812 412.347656 262.824219 412.199219 262.964844 412.078125 C 263.101562 411.953125 263.269531 411.890625 263.472656 411.890625 C 263.617188 411.890625 263.746094 411.914062 263.863281 411.957031 C 263.980469 412 264.171875 412.121094 264.449219 412.324219 C 264.894531 412.628906 265.34375 412.78125 265.792969 412.78125 C 266.484375 412.78125 267.089844 412.519531 267.601562 412 C 268.117188 411.480469 268.371094 410.84375 268.371094 410.09375 C 268.371094 409.371094 268.140625 408.699219 267.679688 408.074219 C 267.214844 407.453125 266.578125 406.96875 265.769531 406.621094 C 265.121094 406.363281 264.246094 406.210938 263.148438 406.167969 L 265.445312 401.527344 L 269.714844 401.527344 "/>
<path style="fill:none;stroke-width:1.2;stroke-linecap:butt;stroke-linejoin:round;stroke:rgb(0%,0%,0%);stroke-opacity:1;stroke-miterlimit:10;" d="M 2809.570312 2778.359375 L 2754.0625 2778.359375 " transform="matrix(0.1,0,0,-0.1,0,555)"/>
<path style="fill:none;stroke-width:1.2;stroke-linecap:butt;stroke-linejoin:round;stroke:rgb(0%,0%,0%);stroke-opacity:1;stroke-miterlimit:10;" d="M 2809.570312 4073.90625 L 2754.0625 4073.90625 " transform="matrix(0.1,0,0,-0.1,0,555)"/>
<path style=" stroke:none;fill-rule:nonzero;fill:rgb(0%,0%,0%);fill-opacity:1;" d="M 249.011719 148.117188 C 249.011719 146.757812 249.21875 145.582031 249.632812 144.589844 C 250.039062 143.601562 250.589844 142.867188 251.265625 142.390625 C 251.800781 142.015625 252.351562 141.828125 252.914062 141.828125 C 253.824219 141.828125 254.640625 142.289062 255.363281 143.214844 C 256.273438 144.371094 256.730469 145.941406 256.730469 147.921875 C 256.730469 149.308594 256.53125 150.484375 256.132812 151.453125 C 255.738281 152.421875 255.226562 153.128906 254.605469 153.566406 C 253.984375 154.007812 253.390625 154.230469 252.828125 154.230469 C 251.6875 154.230469 250.730469 153.554688 249.964844 152.214844 C 249.328125 151.070312 249.011719 149.703125 249.011719 148.117188 Z M 250.746094 148.332031 C 250.746094 149.980469 250.949219 151.324219 251.355469 152.363281 C 251.6875 153.230469 252.183594 153.664062 252.851562 153.664062 C 253.167969 153.664062 253.496094 153.523438 253.835938 153.242188 C 254.175781 152.960938 254.433594 152.480469 254.605469 151.800781 C 254.878906 150.804688 255.015625 149.378906 255.015625 147.53125 C 255.015625 146.171875 254.871094 145.035156 254.585938 144.128906 C 254.382812 143.445312 254.105469 142.96875 253.761719 142.695312 C 253.53125 142.507812 253.238281 142.414062 252.894531 142.414062 C 252.503906 142.414062 252.148438 142.585938 251.832031 142.933594 C 251.410156 143.425781 251.128906 144.195312 250.972656 145.242188 C 250.824219 146.289062 250.746094 147.320312 250.746094 148.332031 Z M 259.636719 152.300781 C 259.910156 152.300781 260.140625 152.394531 260.328125 152.59375 C 260.515625 152.785156 260.609375 153.015625 260.609375 153.273438 C 260.609375 153.550781 260.515625 153.78125 260.328125 153.96875 C 260.140625 154.15625 259.910156 154.25 259.636719 154.25 C 259.359375 154.25 259.128906 154.15625 258.941406 153.96875 C 258.753906 153.78125 258.660156 153.550781 258.660156 153.273438 C 258.660156 153 258.753906 152.769531 258.941406 152.578125 C 259.128906 152.394531 259.359375 152.300781 259.636719 152.300781 Z M 269.714844 142.066406 L 269.023438 143.5625 L 265.445312 143.5625 L 264.664062 145.167969 C 266.210938 145.398438 267.441406 145.976562 268.351562 146.902344 C 269.128906 147.695312 269.523438 148.636719 269.523438 149.71875 C 269.523438 150.355469 269.394531 150.941406 269.140625 151.476562 C 268.890625 152.011719 268.566406 152.464844 268.175781 152.839844 C 267.789062 153.21875 267.351562 153.511719 266.875 153.730469 C 266.210938 154.0625 265.519531 154.230469 264.796875 154.230469 C 264.085938 154.230469 263.570312 154.105469 263.246094 153.859375 C 262.921875 153.613281 262.757812 153.347656 262.757812 153.058594 C 262.757812 152.882812 262.824219 152.734375 262.964844 152.613281 C 263.101562 152.488281 263.269531 152.429688 263.472656 152.429688 C 263.617188 152.429688 263.746094 152.453125 263.863281 152.496094 C 263.980469 152.535156 264.171875 152.660156 264.449219 152.863281 C 264.894531 153.164062 265.34375 153.320312 265.792969 153.320312 C 266.484375 153.320312 267.089844 153.058594 267.601562 152.535156 C 268.117188 152.015625 268.371094 151.382812 268.371094 150.628906 C 268.371094 149.90625 268.140625 149.234375 267.679688 148.613281 C 267.214844 147.992188 266.578125 147.507812 265.769531 147.160156 C 265.121094 146.902344 264.246094 146.75 263.148438 146.707031 L 265.445312 142.066406 L 269.714844 142.066406 "/>
<path style="fill:none;stroke-width:1.2;stroke-linecap:butt;stroke-linejoin:round;stroke:rgb(0%,0%,0%);stroke-opacity:1;stroke-miterlimit:10;" d="M 2809.570312 5369.414062 L 2754.0625 5369.414062 " transform="matrix(0.1,0,0,-0.1,0,555)"/>
<path style=" stroke:none;fill-rule:nonzero;fill:rgb(0%,0%,0%);fill-opacity:1;" d="M 264.363281 14.199219 L 267.265625 12.789062 L 267.550781 12.789062 L 267.550781 22.871094 C 267.550781 23.535156 267.578125 23.953125 267.636719 24.117188 C 267.691406 24.285156 267.808594 24.410156 267.980469 24.496094 C 268.15625 24.585938 268.507812 24.636719 269.046875 24.648438 L 269.046875 24.976562 L 264.554688 24.976562 L 264.554688 24.648438 C 265.121094 24.636719 265.484375 24.585938 265.652344 24.496094 C 265.816406 24.410156 265.933594 24.296875 265.996094 24.152344 C 266.0625 24.007812 266.097656 23.578125 266.097656 22.871094 L 266.097656 16.433594 C 266.097656 15.550781 266.066406 14.988281 266.007812 14.742188 C 265.964844 14.554688 265.890625 14.417969 265.78125 14.328125 C 265.671875 14.242188 265.539062 14.199219 265.378906 14.199219 C 265.164062 14.199219 264.867188 14.292969 264.492188 14.480469 L 264.363281 14.199219 "/>
<path style="fill:none;stroke-width:1.2;stroke-linecap:butt;stroke-linejoin:round;stroke:rgb(0%,0%,0%);stroke-opacity:1;stroke-miterlimit:10;" d="M 2809.570312 446.445312 L 2781.796875 446.445312 " transform="matrix(0.1,0,0,-0.1,0,555)"/>
<path style="fill:none;stroke-width:1.2;stroke-linecap:butt;stroke-linejoin:round;stroke:rgb(0%,0%,0%);stroke-opacity:1;stroke-miterlimit:10;" d="M 2809.570312 705.546875 L 2781.796875 705.546875 " transform="matrix(0.1,0,0,-0.1,0,555)"/>
<path style="fill:none;stroke-width:1.2;stroke-linecap:butt;stroke-linejoin:round;stroke:rgb(0%,0%,0%);stroke-opacity:1;stroke-miterlimit:10;" d="M 2809.570312 964.648438 L 2781.796875 964.648438 " transform="matrix(0.1,0,0,-0.1,0,555)"/>
<path style="fill:none;stroke-width:1.2;stroke-linecap:butt;stroke-linejoin:round;stroke:rgb(0%,0%,0%);stroke-opacity:1;stroke-miterlimit:10;" d="M 2809.570312 1223.710938 L 2781.796875 1223.710938 " transform="matrix(0.1,0,0,-0.1,0,555)"/>
<path style="fill:none;stroke-width:1.2;stroke-linecap:butt;stroke-linejoin:round;stroke:rgb(0%,0%,0%);stroke-opacity:1;stroke-miterlimit:10;" d="M 2809.570312 1741.953125 L 2781.796875 1741.953125 " transform="matrix(0.1,0,0,-0.1,0,555)"/>
<path style="fill:none;stroke-width:1.2;stroke-linecap:butt;stroke-linejoin:round;stroke:rgb(0%,0%,0%);stroke-opacity:1;stroke-miterlimit:10;" d="M 2809.570312 2001.054688 L 2781.796875 2001.054688 " transform="matrix(0.1,0,0,-0.1,0,555)"/>
<path style="fill:none;stroke-width:1.2;stroke-linecap:butt;stroke-linejoin:round;stroke:rgb(0%,0%,0%);stroke-opacity:1;stroke-miterlimit:10;" d="M 2809.570312 2260.15625 L 2781.796875 2260.15625 " transform="matrix(0.1,0,0,-0.1,0,555)"/>
<path style="fill:none;stroke-width:1.2;stroke-linecap:butt;stroke-linejoin:round;stroke:rgb(0%,0%,0%);stroke-opacity:1;stroke-miterlimit:10;" d="M 2809.570312 2519.257812 L 2781.796875 2519.257812 " transform="matrix(0.1,0,0,-0.1,0,555)"/>
<path style="fill:none;stroke-width:1.2;stroke-linecap:butt;stroke-linejoin:round;stroke:rgb(0%,0%,0%);stroke-opacity:1;stroke-miterlimit:10;" d="M 2809.570312 3037.460938 L 2781.796875 3037.460938 " transform="matrix(0.1,0,0,-0.1,0,555)"/>
<path style="fill:none;stroke-width:1.2;stroke-linecap:butt;stroke-linejoin:round;stroke:rgb(0%,0%,0%);stroke-opacity:1;stroke-miterlimit:10;" d="M 2809.570312 3296.5625 L 2781.796875 3296.5625 " transform="matrix(0.1,0,0,-0.1,0,555)"/>
<path style="fill:none;stroke-width:1.2;stroke-linecap:butt;stroke-linejoin:round;stroke:rgb(0%,0%,0%);stroke-opacity:1;stroke-miterlimit:10;" d="M 2809.570312 3555.664062 L 2781.796875 3555.664062 " transform="matrix(0.1,0,0,-0.1,0,555)"/>
<path style="fill:none;stroke-width:1.2;stroke-linecap:butt;stroke-linejoin:round;stroke:rgb(0%,0%,0%);stroke-opacity:1;stroke-miterlimit:10;" d="M 2809.570312 3814.765625 L 2781.796875 3814.765625 " transform="matrix(0.1,0,0,-0.1,0,555)"/>
<path style="fill:none;stroke-width:1.2;stroke-linecap:butt;stroke-linejoin:round;stroke:rgb(0%,0%,0%);stroke-opacity:1;stroke-miterlimit:10;" d="M 2809.570312 4333.007812 L 2781.796875 4333.007812 " transform="matrix(0.1,0,0,-0.1,0,555)"/>
<path style="fill:none;stroke-width:1.2;stroke-linecap:butt;stroke-linejoin:round;stroke:rgb(0%,0%,0%);stroke-opacity:1;stroke-miterlimit:10;" d="M 2809.570312 4592.109375 L 2781.796875 4592.109375 " transform="matrix(0.1,0,0,-0.1,0,555)"/>
<path style="fill:none;stroke-width:1.2;stroke-linecap:butt;stroke-linejoin:round;stroke:rgb(0%,0%,0%);stroke-opacity:1;stroke-miterlimit:10;" d="M 2809.570312 4851.210938 L 2781.796875 4851.210938 " transform="matrix(0.1,0,0,-0.1,0,555)"/>
<path style="fill:none;stroke-width:1.2;stroke-linecap:butt;stroke-linejoin:round;stroke:rgb(0%,0%,0%);stroke-opacity:1;stroke-miterlimit:10;" d="M 2809.570312 5110.3125 L 2781.796875 5110.3125 " transform="matrix(0.1,0,0,-0.1,0,555)"/>
</g>
</svg>
