<?xml version="1.0" encoding="UTF-8"?>
<svg xmlns="http://www.w3.org/2000/svg" xmlns:xlink="http://www.w3.org/1999/xlink" width="120pt" height="120pt" viewBox="0 0 120 120" version="1.1">
<g id="surface1">
<path style="fill:none;stroke-width:15;stroke-linecap:round;stroke-linejoin:round;stroke:rgb(0%,0%,100%);stroke-opacity:1;stroke-miterlimit:10;" d="M 333.320312 66.679688 L 358.984375 70.078125 L 385.585938 80.273438 L 413.007812 97.109375 L 441.171875 120.3125 L 470 149.570312 L 499.296875 184.453125 L 529.023438 224.375 L 559.023438 268.828125 L 589.179688 317.109375 L 619.375 368.515625 L 649.492188 422.304688 L 679.414062 477.695312 L 709.0625 533.828125 L 738.242188 589.960938 L 766.875 645.234375 L 794.84375 698.867188 L 822.070312 750.117188 L 848.398438 798.203125 L 873.75 842.5 L 898.007812 882.421875 L 921.132812 917.34375 L 942.929688 946.914062 L 963.4375 970.742188 L 982.460938 988.476562 L 1000 1000 L 1015.9375 1005.234375 L 1030.273438 1004.140625 L 1042.890625 996.914062 L 1053.75 983.671875 L 1062.8125 964.804688 L 1070.078125 940.664062 L 1075.46875 911.71875 L 1078.984375 878.554688 L 1080.625 841.757812 L 1080.351562 801.992188 L 1078.164062 759.921875 L 1074.140625 716.40625 L 1068.203125 672.070312 L 1060.429688 627.773438 L 1050.859375 584.257812 L 1039.492188 542.265625 L 1026.367188 502.5 L 1011.601562 465.664062 L 995.195312 432.382812 L 977.226562 403.203125 L 957.773438 378.632812 L 936.914062 359.0625 L 914.6875 344.84375 L 891.25 336.210938 L 866.679688 333.320312 L 841.015625 336.210938 L 814.414062 344.84375 L 786.992188 359.0625 L 758.828125 378.632812 L 730 403.203125 L 700.703125 432.382812 L 670.976562 465.664062 L 640.976562 502.5 L 610.820312 542.265625 L 580.625 584.257812 L 550.507812 627.773438 L 520.585938 672.070312 L 490.9375 716.40625 L 461.757812 759.921875 L 433.125 801.992188 L 405.15625 841.757812 L 377.929688 878.554688 L 351.601562 911.71875 L 326.25 940.664062 L 301.992188 964.804688 L 278.867188 983.671875 L 257.070312 996.914062 L 236.5625 1004.140625 L 217.539062 1005.234375 L 200 1000 L 184.0625 988.476562 L 169.726562 970.742188 L 157.109375 946.914062 L 146.25 917.34375 L 137.1875 882.421875 L 129.921875 842.5 L 124.53125 798.203125 L 121.015625 750.117188 L 119.375 698.867188 L 119.648438 645.234375 L 121.796875 589.960938 L 125.859375 533.828125 L 131.796875 477.695312 L 139.570312 422.304688 L 149.140625 368.515625 L 160.507812 317.109375 L 173.632812 268.828125 L 188.398438 224.375 L 204.804688 184.453125 L 222.773438 149.570312 L 242.226562 120.3125 L 263.085938 97.109375 L 285.3125 80.273438 L 308.75 70.078125 Z M 333.320312 66.679688 " transform="matrix(0.1,0,0,-0.1,0,120)"/>
<path style="fill:none;stroke-width:10;stroke-linecap:round;stroke-linejoin:round;stroke:rgb(50%,50%,50%);stroke-opacity:1;stroke-miterlimit:10;" d="M 600 600 L 66.679688 333.320312 " transform="matrix(0.1,0,0,-0.1,0,120)"/>
<path style="fill:none;stroke-width:10;stroke-linecap:round;stroke-linejoin:round;stroke:rgb(50%,50%,50%);stroke-opacity:1;stroke-miterlimit:10;" d="M 600 600 L 1120 600 " transform="matrix(0.1,0,0,-0.1,0,120)"/>
<path style="fill:none;stroke-width:10;stroke-linecap:round;stroke-linejoin:round;stroke:rgb(50%,50%,50%);stroke-opacity:1;stroke-miterlimit:10;" d="M 600 600 L 600 1120 " transform="matrix(0.1,0,0,-0.1,0,120)"/>
<path style=" stroke:none;fill-rule:nonzero;fill:rgb(100%,50%,100%);fill-opacity:1;" d="M 59.066406 59.640625 L 41.40625 105.386719 L 39.957031 103.585938 L 40.328125 110.953125 L 45.554688 105.75 L 43.273438 106.105469 L 60.933594 60.359375 C 61.132812 59.84375 60.875 59.265625 60.359375 59.066406 C 59.84375 58.867188 59.265625 59.125 59.066406 59.640625 "/>
</g>
</svg>
