<?xml version="1.0" encoding="UTF-8"?>
<svg xmlns="http://www.w3.org/2000/svg" xmlns:xlink="http://www.w3.org/1999/xlink" width="150pt" height="150pt" viewBox="0 0 150 150" version="1.1">
<defs>
<clipPath id="clip1">
  <path d="M 75 5 L 145 5 L 145 145 L 75 145 Z M 75 5 "/>
</clipPath>
</defs>
<g id="surface1">
<path style="fill:none;stroke-width:10;stroke-linecap:butt;stroke-linejoin:miter;stroke:rgb(0%,0%,0%);stroke-opacity:1;stroke-miterlimit:10;" d="M 0 0 L 1500 0 L 1500 1500 L 0 1500 Z M 0 0 " transform="matrix(0.1,0,0,-0.1,0,150)"/>
<g clip-path="url(#clip1)" clip-rule="nonzero">
<path style="fill:none;stroke-width:10;stroke-linecap:butt;stroke-linejoin:miter;stroke:rgb(0%,0%,100%);stroke-opacity:1;stroke-miterlimit:10;" d="M 575 50 L 575 50 M 575 50 L 573.90625 55.46875 M 573.90625 55.46875 L 572.773438 60.9375 M 572.773438 60.9375 L 571.679688 66.40625 M 571.679688 66.40625 L 570.507812 71.875 M 569.53125 76.601562 L 569.375 77.34375 M 569.53125 76.601562 L 570.507812 71.875 M 569.375 77.34375 L 568.203125 82.8125 M 568.203125 82.8125 L 567.03125 88.28125 M 567.03125 88.28125 L 565.859375 93.75 M 564.0625 101.796875 L 563.398438 104.6875 M 565.859375 93.75 L 564.648438 99.21875 M 564.0625 101.796875 L 564.648438 99.21875 M 563.398438 104.6875 L 562.1875 110.15625 M 562.1875 110.15625 L 560.9375 115.625 M 560.9375 115.625 L 559.6875 121.09375 M 558.59375 125.703125 L 558.398438 126.5625 M 558.59375 125.703125 L 559.6875 121.09375 M 558.398438 126.5625 L 557.109375 132.03125 M 557.109375 132.03125 L 555.78125 137.5 M 553.125 148.4375 L 553.125 148.4375 M 553.125 148.4375 L 553.125 148.4375 M 553.125 148.4375 L 551.757812 153.90625 M 551.757812 153.90625 L 550.390625 159.375 M 555.78125 137.5 L 554.453125 142.96875 M 553.125 148.4375 L 554.453125 142.96875 M 554.453125 142.96875 L 553.125 148.4375 M 553.125 148.4375 L 553.125 148.4375 M 550.390625 159.375 L 549.023438 164.84375 M 547.65625 170.078125 L 547.617188 170.3125 M 547.65625 170.078125 L 549.023438 164.84375 M 547.617188 170.3125 L 546.171875 175.78125 M 546.171875 175.78125 L 544.726562 181.25 M 542.1875 190.742188 L 541.796875 192.1875 M 544.726562 181.25 L 543.28125 186.71875 M 542.1875 190.742188 L 543.28125 186.71875 M 541.796875 192.1875 L 540.3125 197.65625 M 540.3125 197.65625 L 538.789062 203.125 M 538.789062 203.125 L 537.265625 208.59375 M 536.71875 210.46875 L 535.703125 214.0625 M 536.71875 210.46875 L 537.265625 208.59375 M 535.703125 214.0625 L 534.140625 219.53125 M 534.140625 219.53125 L 532.539062 225 M 575 50 L 575 50 M 531.25 229.375 L 530.9375 230.46875 M 530.9375 230.46875 L 529.296875 235.9375 M 529.296875 235.9375 L 527.65625 241.40625 M 527.65625 241.40625 L 525.976562 246.875 M 525.78125 247.460938 L 524.257812 252.34375 M 525.78125 247.460938 L 525.976562 246.875 M 524.257812 252.34375 L 522.539062 257.8125 M 520.3125 264.84375 L 519.0625 268.75 M 522.539062 257.8125 L 520.820312 263.28125 M 520.3125 264.84375 L 520.820312 263.28125 M 531.25 229.375 L 532.539062 225 M 519.0625 268.75 L 517.265625 274.21875 M 517.265625 274.21875 L 515.46875 279.6875 M 514.84375 281.523438 L 513.632812 285.15625 M 514.84375 281.523438 L 515.46875 279.6875 M 513.632812 285.15625 L 511.757812 290.625 M 509.375 297.578125 L 507.96875 301.5625 M 507.96875 301.5625 L 506.054688 307.03125 M 506.054688 307.03125 L 504.101562 312.5 M 511.757812 290.625 L 509.882812 296.09375 M 509.375 297.578125 L 509.882812 296.09375 M 487.5 356.25 L 487.5 356.25 M 487.5 356.25 L 487.5 356.25 M 487.5 356.25 L 485.3125 361.71875 M 485.3125 361.71875 L 483.046875 367.1875 M 482.03125 369.6875 L 480.820312 372.65625 M 482.03125 369.6875 L 483.046875 367.1875 M 480.820312 372.65625 L 478.515625 378.125 M 476.5625 382.734375 L 476.171875 383.59375 M 476.171875 383.59375 L 473.828125 389.0625 M 476.5625 382.734375 L 478.515625 378.125 M 473.828125 389.0625 L 471.445312 394.53125 M 471.09375 395.351562 L 469.023438 400 M 471.09375 395.351562 L 471.445312 394.53125 M 503.90625 313.046875 L 502.109375 317.96875 M 503.90625 313.046875 L 504.101562 312.5 M 502.109375 317.96875 L 500.117188 323.4375 M 498.4375 327.96875 L 498.085938 328.90625 M 498.085938 328.90625 L 496.015625 334.375 M 498.4375 327.96875 L 500.117188 323.4375 M 496.015625 334.375 L 493.945312 339.84375 M 492.96875 342.34375 L 491.796875 345.3125 M 492.96875 342.34375 L 493.945312 339.84375 M 491.796875 345.3125 L 489.6875 350.78125 M 487.5 356.25 L 489.6875 350.78125 M 489.6875 350.78125 L 487.5 356.25 M 487.5 356.25 L 487.5 356.25 M 400 531.25 L 400 531.25 M 400 531.25 L 400 531.25 M 400 531.25 L 396.601562 536.71875 M 394.53125 540.039062 L 393.164062 542.1875 M 394.53125 540.039062 L 396.601562 536.71875 M 389.0625 548.632812 L 386.171875 553.125 M 393.164062 542.1875 L 389.6875 547.65625 M 389.0625 548.632812 L 389.6875 547.65625 M 378.125 565.351562 L 375.3125 569.53125 M 372.65625 573.4375 L 371.601562 575 M 372.65625 573.4375 L 375.3125 569.53125 M 383.59375 557.070312 L 382.617188 558.59375 M 383.59375 557.070312 L 386.171875 553.125 M 382.617188 558.59375 L 378.984375 564.0625 M 378.125 565.351562 L 378.984375 564.0625 M 225 750 L 225 750 M 312.5 653.75 L 309.804688 657.03125 M 307.03125 660.390625 L 305.273438 662.5 M 307.03125 660.390625 L 309.804688 657.03125 M 356.25 596.875 L 356.25 596.875 M 356.25 596.875 L 356.25 596.875 M 356.25 596.875 L 352.304688 602.34375 M 350.78125 604.414062 L 348.28125 607.8125 M 350.78125 604.414062 L 352.304688 602.34375 M 345.3125 611.796875 L 344.21875 613.28125 M 344.21875 613.28125 L 340.078125 618.75 M 345.3125 611.796875 L 348.28125 607.8125 M 367.1875 581.40625 L 364.023438 585.9375 M 371.601562 575 L 367.851562 580.46875 M 367.1875 581.40625 L 367.851562 580.46875 M 361.71875 589.21875 L 360.15625 591.40625 M 361.71875 589.21875 L 364.023438 585.9375 M 356.25 596.875 L 360.15625 591.40625 M 360.15625 591.40625 L 356.25 596.875 M 356.25 596.875 L 356.25 596.875 M 334.375 626.25 L 331.71875 629.6875 M 323.4375 640.195312 L 323.085938 640.625 M 328.90625 633.28125 L 327.421875 635.15625 M 328.90625 633.28125 L 331.71875 629.6875 M 323.4375 640.195312 L 327.421875 635.15625 M 339.84375 619.0625 L 335.9375 624.21875 M 339.84375 619.0625 L 340.078125 618.75 M 334.375 626.25 L 335.9375 624.21875 M 323.085938 640.625 L 318.710938 646.09375 M 317.96875 647.03125 L 314.296875 651.5625 M 317.96875 647.03125 L 318.710938 646.09375 M 312.5 653.75 L 314.296875 651.5625 M 268.75 704.257812 L 266.914062 706.25 M 290.625 679.6875 L 286.523438 684.375 M 301.5625 666.914062 L 300.664062 667.96875 M 296.09375 673.359375 L 296.015625 673.4375 M 296.09375 673.359375 L 300.664062 667.96875 M 301.5625 666.914062 L 305.273438 662.5 M 296.015625 673.4375 L 291.289062 678.90625 M 290.625 679.6875 L 291.289062 678.90625 M 279.6875 692.148438 L 276.835938 695.3125 M 285.15625 685.9375 L 281.71875 689.84375 M 285.15625 685.9375 L 286.523438 684.375 M 279.6875 692.148438 L 281.71875 689.84375 M 274.21875 698.242188 L 271.914062 700.78125 M 274.21875 698.242188 L 276.835938 695.3125 M 268.75 704.257812 L 271.914062 700.78125 M 246.875 727.65625 L 246.40625 728.125 M 257.8125 716.09375 L 256.796875 717.1875 M 263.28125 710.234375 L 261.875 711.71875 M 263.28125 710.234375 L 266.914062 706.25 M 257.8125 716.09375 L 261.875 711.71875 M 252.34375 721.914062 L 251.640625 722.65625 M 252.34375 721.914062 L 256.796875 717.1875 M 246.875 727.65625 L 251.640625 722.65625 M 235.9375 738.945312 L 235.820312 739.0625 M 241.40625 733.320312 L 241.132812 733.59375 M 241.40625 733.320312 L 246.40625 728.125 M 235.9375 738.945312 L 241.132812 733.59375 M 230.46875 744.492188 L 230.429688 744.53125 M 230.46875 744.492188 L 235.820312 739.0625 M 225 750 L 230.429688 744.53125 M 230.429688 744.53125 L 225 750 M 465.625 407.578125 L 464.101562 410.9375 M 464.101562 410.9375 L 461.5625 416.40625 M 460.15625 419.453125 L 459.023438 421.875 M 460.15625 419.453125 L 461.5625 416.40625 M 469.023438 400 L 466.5625 405.46875 M 465.625 407.578125 L 466.5625 405.46875 M 454.6875 430.976562 L 453.828125 432.8125 M 459.023438 421.875 L 456.445312 427.34375 M 454.6875 430.976562 L 456.445312 427.34375 M 453.828125 432.8125 L 451.132812 438.28125 M 449.21875 442.1875 L 448.4375 443.75 M 449.21875 442.1875 L 451.132812 438.28125 M 443.75 453.125 L 442.96875 454.6875 M 442.96875 454.6875 L 440.15625 460.15625 M 438.28125 463.75 L 437.304688 465.625 M 438.28125 463.75 L 440.15625 460.15625 M 432.8125 474.101562 L 431.484375 476.5625 M 437.304688 465.625 L 434.414062 471.09375 M 432.8125 474.101562 L 434.414062 471.09375 M 431.484375 476.5625 L 428.515625 482.03125 M 427.34375 484.21875 L 425.546875 487.5 M 427.34375 484.21875 L 428.515625 482.03125 M 448.4375 443.75 L 445.742188 449.21875 M 443.75 453.125 L 445.742188 449.21875 M 421.875 494.0625 L 419.414062 498.4375 M 416.40625 503.671875 L 416.289062 503.90625 M 416.40625 503.671875 L 419.414062 498.4375 M 416.289062 503.90625 L 413.125 509.375 M 425.546875 487.5 L 422.5 492.96875 M 421.875 494.0625 L 422.5 492.96875 M 410.9375 513.085938 L 409.882812 514.84375 M 409.882812 514.84375 L 406.640625 520.3125 M 410.9375 513.085938 L 413.125 509.375 M 405.46875 522.265625 L 403.359375 525.78125 M 405.46875 522.265625 L 406.640625 520.3125 M 400 531.25 L 403.359375 525.78125 M 403.359375 525.78125 L 400 531.25 M 400 531.25 L 400 531.25 M 1275 750 L 1275 750 M 1450 596.875 L 1450 596.875 M 1422.65625 618.554688 L 1422.421875 618.75 M 1422.65625 618.554688 L 1428.125 614.179688 M 1439.0625 605.46875 L 1436.09375 607.8125 M 1444.53125 601.171875 L 1443.007812 602.34375 M 1444.53125 601.171875 L 1450 596.875 M 1450 596.875 L 1450 596.875 M 1439.0625 605.46875 L 1443.007812 602.34375 M 1433.59375 609.804688 L 1429.21875 613.28125 M 1433.59375 609.804688 L 1436.09375 607.8125 M 1428.125 614.179688 L 1429.21875 613.28125 M 1406.25 631.875 L 1402.265625 635.15625 M 1400.78125 636.367188 L 1395.664062 640.625 M 1400.78125 636.367188 L 1402.265625 635.15625 M 1384.375 650.039062 L 1382.578125 651.5625 M 1373.4375 659.335938 L 1369.726562 662.5 M 1378.90625 654.6875 L 1376.132812 657.03125 M 1378.90625 654.6875 L 1382.578125 651.5625 M 1373.4375 659.335938 L 1376.132812 657.03125 M 1389.84375 645.46875 L 1389.101562 646.09375 M 1389.84375 645.46875 L 1395.3125 640.898438 M 1384.375 650.039062 L 1389.101562 646.09375 M 1395.3125 640.898438 L 1395.664062 640.625 M 1417.1875 622.96875 L 1415.625 624.21875 M 1411.71875 627.421875 L 1408.90625 629.6875 M 1411.71875 627.421875 L 1415.625 624.21875 M 1417.1875 622.96875 L 1422.421875 618.75 M 1406.25 631.875 L 1408.90625 629.6875 M 1362.5 668.75 L 1357.109375 673.4375 M 1351.5625 678.320312 L 1350.898438 678.90625 M 1346.09375 683.164062 L 1344.726562 684.375 M 1346.09375 683.164062 L 1350.898438 678.90625 M 1351.5625 678.320312 L 1357.03125 673.515625 M 1357.03125 673.515625 L 1357.109375 673.4375 M 1340.625 688.007812 L 1338.59375 689.84375 M 1335.15625 692.929688 L 1332.539062 695.3125 M 1335.15625 692.929688 L 1338.59375 689.84375 M 1329.6875 697.890625 L 1326.523438 700.78125 M 1324.21875 702.890625 L 1320.585938 706.25 M 1324.21875 702.890625 L 1326.523438 700.78125 M 1329.6875 697.890625 L 1332.539062 695.3125 M 1340.625 688.007812 L 1344.726562 684.375 M 1318.75 707.929688 L 1314.6875 711.71875 M 1313.28125 713.007812 L 1308.828125 717.1875 M 1313.28125 713.007812 L 1314.6875 711.71875 M 1307.8125 718.164062 L 1303.046875 722.65625 M 1302.34375 723.320312 L 1297.34375 728.125 M 1302.34375 723.320312 L 1303.046875 722.65625 M 1307.8125 718.164062 L 1308.828125 717.1875 M 1296.875 728.554688 L 1291.640625 733.59375 M 1291.40625 733.828125 L 1286.054688 739.0625 M 1291.40625 733.828125 L 1291.640625 733.59375 M 1285.9375 739.179688 L 1280.507812 744.53125 M 1275 750 L 1280.46875 744.570312 M 1280.46875 744.570312 L 1275 750 M 1280.46875 744.570312 L 1280.507812 744.53125 M 1285.9375 739.179688 L 1286.054688 739.0625 M 1296.875 728.554688 L 1297.34375 728.125 M 1318.75 707.929688 L 1320.585938 706.25 M 1367.96875 664.023438 L 1363.398438 667.96875 M 1367.96875 664.023438 L 1369.726562 662.5 M 1362.5 668.75 L 1363.398438 667.96875 M 137.5 831.25 L 136.601562 832.03125 M 132.03125 835.976562 L 130.273438 837.5 M 132.03125 835.976562 L 136.601562 832.03125 M 181.25 792.070312 L 179.414062 793.75 M 203.125 771.445312 L 202.65625 771.875 M 214.0625 760.820312 L 213.945312 760.9375 M 219.53125 755.429688 L 219.492188 755.46875 M 219.53125 755.429688 L 225 750 M 225 750 L 225 750 M 214.0625 760.820312 L 219.492188 755.46875 M 208.59375 766.171875 L 208.320312 766.40625 M 208.59375 766.171875 L 213.945312 760.9375 M 203.125 771.445312 L 208.320312 766.40625 M 192.1875 781.835938 L 191.171875 782.8125 M 197.65625 776.679688 L 196.953125 777.34375 M 197.65625 776.679688 L 202.65625 771.875 M 192.1875 781.835938 L 196.953125 777.34375 M 186.71875 786.992188 L 185.3125 788.28125 M 186.71875 786.992188 L 191.171875 782.8125 M 181.25 792.070312 L 185.3125 788.28125 M 159.375 811.992188 L 155.273438 815.625 M 170.3125 802.109375 L 167.460938 804.6875 M 175.78125 797.109375 L 173.476562 799.21875 M 175.78125 797.109375 L 179.414062 793.75 M 170.3125 802.109375 L 173.476562 799.21875 M 164.84375 807.070312 L 161.40625 810.15625 M 164.84375 807.070312 L 167.460938 804.6875 M 159.375 811.992188 L 161.40625 810.15625 M 142.96875 826.484375 L 142.890625 826.5625 M 142.96875 826.484375 L 148.4375 821.679688 M 153.90625 816.835938 L 149.101562 821.09375 M 153.90625 816.835938 L 155.273438 815.625 M 148.4375 821.679688 L 149.101562 821.09375 M 137.5 831.25 L 142.890625 826.5625 M 93.75 868.125 L 91.09375 870.3125 M 82.8125 877.03125 L 77.578125 881.25 M 88.28125 872.578125 L 84.375 875.78125 M 88.28125 872.578125 L 91.09375 870.3125 M 82.8125 877.03125 L 84.375 875.78125 M 104.6875 859.101562 L 104.335938 859.375 M 115.625 849.960938 L 110.898438 853.90625 M 104.6875 859.101562 L 110.15625 854.53125 M 110.15625 854.53125 L 110.898438 853.90625 M 126.5625 840.664062 L 123.867188 842.96875 M 121.09375 845.3125 L 117.421875 848.4375 M 121.09375 845.3125 L 123.867188 842.96875 M 126.5625 840.664062 L 130.273438 837.5 M 115.625 849.960938 L 117.421875 848.4375 M 99.21875 863.632812 L 97.734375 864.84375 M 99.21875 863.632812 L 104.335938 859.375 M 93.75 868.125 L 97.734375 864.84375 M 71.875 885.820312 L 70.78125 886.71875 M 66.40625 890.195312 L 63.90625 892.1875 M 66.40625 890.195312 L 70.78125 886.71875 M 60.9375 894.53125 L 56.992188 897.65625 M 50 903.125 L 55.46875 898.828125 M 55.46875 898.828125 L 50 903.125 M 55.46875 898.828125 L 56.992188 897.65625 M 60.9375 894.53125 L 63.90625 892.1875 M 71.875 885.820312 L 77.34375 881.445312 M 77.34375 881.445312 L 77.578125 881.25 M 50 903.125 L 50 903.125 M 225 750 L 225 750 M 1100 968.75 L 1100 968.75 M 1100 968.75 L 1100 968.75 M 1100 968.75 L 1096.640625 974.21875 M 1094.53125 977.734375 L 1093.359375 979.6875 M 1094.53125 977.734375 L 1096.640625 974.21875 M 1089.0625 986.914062 L 1086.875 990.625 M 1093.359375 979.6875 L 1090.117188 985.15625 M 1089.0625 986.914062 L 1090.117188 985.15625 M 1078.125 1005.9375 L 1077.5 1007.03125 M 1077.5 1007.03125 L 1074.453125 1012.5 M 1086.875 990.625 L 1083.710938 996.09375 M 1083.59375 996.328125 L 1080.585938 1001.5625 M 1083.59375 996.328125 L 1083.710938 996.09375 M 1078.125 1005.9375 L 1080.585938 1001.5625 M 1056.25 1046.875 L 1054.296875 1050.78125 M 1054.296875 1050.78125 L 1051.523438 1056.25 M 1072.65625 1015.78125 L 1071.445312 1017.96875 M 1072.65625 1015.78125 L 1074.453125 1012.5 M 1071.445312 1017.96875 L 1068.515625 1023.4375 M 1067.1875 1025.898438 L 1065.585938 1028.90625 M 1065.585938 1028.90625 L 1062.695312 1034.375 M 1067.1875 1025.898438 L 1068.515625 1023.4375 M 1061.71875 1036.25 L 1059.84375 1039.84375 M 1061.71875 1036.25 L 1062.695312 1034.375 M 1059.84375 1039.84375 L 1057.03125 1045.3125 M 1056.25 1046.875 L 1057.03125 1045.3125 M 1050.78125 1057.773438 L 1048.867188 1061.71875 M 1050.78125 1057.773438 L 1051.523438 1056.25 M 1048.867188 1061.71875 L 1046.171875 1067.1875 M 1045.3125 1069.023438 L 1043.554688 1072.65625 M 1043.554688 1072.65625 L 1040.976562 1078.125 M 1045.3125 1069.023438 L 1046.171875 1067.1875 M 1034.375 1092.421875 L 1033.4375 1094.53125 M 1033.4375 1094.53125 L 1030.976562 1100 M 1039.84375 1080.546875 L 1038.4375 1083.59375 M 1039.84375 1080.546875 L 1040.976562 1078.125 M 1038.4375 1083.59375 L 1035.898438 1089.0625 M 1034.375 1092.421875 L 1035.898438 1089.0625 M 1275 750 L 1275 750 M 1275 750 L 1269.570312 755.46875 M 1269.53125 755.507812 L 1264.179688 760.9375 M 1269.53125 755.507812 L 1269.570312 755.46875 M 1264.0625 761.054688 L 1258.867188 766.40625 M 1258.59375 766.679688 L 1253.59375 771.875 M 1258.59375 766.679688 L 1258.867188 766.40625 M 1264.0625 761.054688 L 1264.179688 760.9375 M 1253.125 772.34375 L 1248.359375 777.34375 M 1247.65625 778.085938 L 1243.203125 782.8125 M 1247.65625 778.085938 L 1248.359375 777.34375 M 1242.1875 783.90625 L 1238.125 788.28125 M 1236.71875 789.765625 L 1233.085938 793.75 M 1236.71875 789.765625 L 1238.125 788.28125 M 1242.1875 783.90625 L 1243.203125 782.8125 M 1253.125 772.34375 L 1253.59375 771.875 M 1231.25 795.742188 L 1228.085938 799.21875 M 1225.78125 801.757812 L 1223.164062 804.6875 M 1225.78125 801.757812 L 1228.085938 799.21875 M 1220.3125 807.851562 L 1218.28125 810.15625 M 1214.84375 814.0625 L 1213.476562 815.625 M 1214.84375 814.0625 L 1218.28125 810.15625 M 1220.3125 807.851562 L 1223.164062 804.6875 M 1209.375 820.3125 L 1208.710938 821.09375 M 1208.710938 821.09375 L 1203.984375 826.5625 M 1198.4375 833.085938 L 1194.726562 837.5 M 1203.90625 826.640625 L 1199.335938 832.03125 M 1203.90625 826.640625 L 1203.984375 826.5625 M 1198.4375 833.085938 L 1199.335938 832.03125 M 1209.375 820.3125 L 1213.476562 815.625 M 1231.25 795.742188 L 1233.085938 793.75 M 1187.5 846.25 L 1185.703125 848.4375 M 1182.03125 852.96875 L 1181.289062 853.90625 M 1182.03125 852.96875 L 1185.703125 848.4375 M 1181.289062 853.90625 L 1176.914062 859.375 M 1165.625 873.75 L 1164.0625 875.78125 M 1160.15625 880.9375 L 1159.921875 881.25 M 1160.15625 880.9375 L 1164.0625 875.78125 M 1176.5625 859.804688 L 1172.578125 864.84375 M 1171.09375 866.71875 L 1168.28125 870.3125 M 1171.09375 866.71875 L 1172.578125 864.84375 M 1176.5625 859.804688 L 1176.914062 859.375 M 1165.625 873.75 L 1168.28125 870.3125 M 1143.75 903.125 L 1143.75 903.125 M 1143.75 903.125 L 1143.75 903.125 M 1143.75 903.125 L 1139.84375 908.59375 M 1138.28125 910.78125 L 1135.976562 914.0625 M 1138.28125 910.78125 L 1139.84375 908.59375 M 1132.8125 918.59375 L 1132.148438 919.53125 M 1132.148438 919.53125 L 1128.398438 925 M 1132.8125 918.59375 L 1135.976562 914.0625 M 1154.6875 888.203125 L 1151.71875 892.1875 M 1159.921875 881.25 L 1155.78125 886.71875 M 1154.6875 888.203125 L 1155.78125 886.71875 M 1149.21875 895.585938 L 1147.695312 897.65625 M 1149.21875 895.585938 L 1151.71875 892.1875 M 1143.75 903.125 L 1147.695312 897.65625 M 1147.695312 897.65625 L 1143.75 903.125 M 1143.75 903.125 L 1143.75 903.125 M 1192.96875 839.609375 L 1190.195312 842.96875 M 1192.96875 839.609375 L 1194.726562 837.5 M 1187.5 846.25 L 1190.195312 842.96875 M 1275 750 L 1275 750 M 1121.875 934.648438 L 1121.015625 935.9375 M 1121.015625 935.9375 L 1117.382812 941.40625 M 1116.40625 942.929688 L 1113.828125 946.875 M 1116.40625 942.929688 L 1117.382812 941.40625 M 1127.34375 926.5625 L 1124.6875 930.46875 M 1127.34375 926.5625 L 1128.398438 925 M 1121.875 934.648438 L 1124.6875 930.46875 M 1110.9375 951.367188 L 1110.3125 952.34375 M 1110.3125 952.34375 L 1106.835938 957.8125 M 1110.9375 951.367188 L 1113.828125 946.875 M 1105.46875 959.960938 L 1103.398438 963.28125 M 1105.46875 959.960938 L 1106.835938 957.8125 M 1100 968.75 L 1103.398438 963.28125 M 1103.398438 963.28125 L 1100 968.75 M 1100 968.75 L 1100 968.75 M 1012.5 1143.75 L 1012.5 1143.75 M 1012.5 1143.75 L 1012.5 1143.75 M 1012.5 1143.75 L 1010.3125 1149.21875 M 1010.3125 1149.21875 L 1008.164062 1154.6875 M 1007.03125 1157.65625 L 1006.054688 1160.15625 M 1007.03125 1157.65625 L 1008.164062 1154.6875 M 1006.054688 1160.15625 L 1003.984375 1165.625 M 1001.5625 1172.03125 L 999.882812 1176.5625 M 1003.984375 1165.625 L 1001.914062 1171.09375 M 1001.5625 1172.03125 L 1001.914062 1171.09375 M 999.882812 1176.5625 L 997.890625 1182.03125 M 996.09375 1186.953125 L 995.898438 1187.5 M 996.09375 1186.953125 L 997.890625 1182.03125 M 1028.90625 1104.648438 L 1028.554688 1105.46875 M 1028.90625 1104.648438 L 1030.976562 1100 M 1028.554688 1105.46875 L 1026.171875 1110.9375 M 1023.4375 1117.265625 L 1021.484375 1121.875 M 1026.171875 1110.9375 L 1023.828125 1116.40625 M 1023.4375 1117.265625 L 1023.828125 1116.40625 M 1021.484375 1121.875 L 1019.21875 1127.34375 M 1017.96875 1130.3125 L 1016.914062 1132.8125 M 1017.96875 1130.3125 L 1019.21875 1127.34375 M 1016.914062 1132.8125 L 1014.6875 1138.28125 M 1012.5 1143.75 L 1014.6875 1138.28125 M 1014.6875 1138.28125 L 1012.5 1143.75 M 1012.5 1143.75 L 1012.5 1143.75 M 990.625 1202.421875 L 990.117188 1203.90625 M 990.117188 1203.90625 L 988.242188 1209.375 M 995.898438 1187.5 L 993.945312 1192.96875 M 993.945312 1192.96875 L 992.03125 1198.4375 M 990.625 1202.421875 L 992.03125 1198.4375 M 988.242188 1209.375 L 986.367188 1214.84375 M 985.15625 1218.476562 L 984.53125 1220.3125 M 985.15625 1218.476562 L 986.367188 1214.84375 M 984.53125 1220.3125 L 982.734375 1225.78125 M 982.734375 1225.78125 L 980.9375 1231.25 M 968.75 1270.625 L 967.460938 1275 M 979.6875 1235.15625 L 979.179688 1236.71875 M 979.179688 1236.71875 L 977.460938 1242.1875 M 979.6875 1235.15625 L 980.9375 1231.25 M 977.460938 1242.1875 L 975.742188 1247.65625 M 974.21875 1252.539062 L 974.023438 1253.125 M 974.21875 1252.539062 L 975.742188 1247.65625 M 974.023438 1253.125 L 972.34375 1258.59375 M 972.34375 1258.59375 L 970.703125 1264.0625 M 970.703125 1264.0625 L 969.0625 1269.53125 M 968.75 1270.625 L 969.0625 1269.53125 M 925 1450 L 925 1450 M 967.460938 1275 L 965.859375 1280.46875 M 965.859375 1280.46875 L 964.296875 1285.9375 M 963.28125 1289.492188 L 962.734375 1291.40625 M 963.28125 1289.492188 L 964.296875 1285.9375 M 962.734375 1291.40625 L 961.210938 1296.875 M 961.210938 1296.875 L 959.6875 1302.34375 M 959.6875 1302.34375 L 958.203125 1307.8125 M 957.8125 1309.257812 L 956.71875 1313.28125 M 956.71875 1313.28125 L 955.273438 1318.75 M 957.8125 1309.257812 L 958.203125 1307.8125 M 955.273438 1318.75 L 953.828125 1324.21875 M 953.828125 1324.21875 L 952.382812 1329.6875 M 952.34375 1329.921875 L 950.976562 1335.15625 M 952.34375 1329.921875 L 952.382812 1329.6875 M 950.976562 1335.15625 L 949.609375 1340.625 M 946.875 1351.5625 L 946.875 1351.5625 M 946.875 1351.5625 L 946.875 1351.5625 M 946.875 1351.5625 L 945.546875 1357.03125 M 945.546875 1357.03125 L 944.21875 1362.5 M 949.609375 1340.625 L 948.242188 1346.09375 M 946.875 1351.5625 L 948.242188 1346.09375 M 948.242188 1346.09375 L 946.875 1351.5625 M 946.875 1351.5625 L 946.875 1351.5625 M 944.21875 1362.5 L 942.890625 1367.96875 M 942.890625 1367.96875 L 941.601562 1373.4375 M 941.40625 1374.296875 L 940.3125 1378.90625 M 941.40625 1374.296875 L 941.601562 1373.4375 M 940.3125 1378.90625 L 939.0625 1384.375 M 939.0625 1384.375 L 937.8125 1389.84375 M 937.8125 1389.84375 L 936.601562 1395.3125 M 935.9375 1398.203125 L 935.351562 1400.78125 M 935.351562 1400.78125 L 934.140625 1406.25 M 935.9375 1398.203125 L 936.601562 1395.3125 M 934.140625 1406.25 L 932.96875 1411.71875 M 932.96875 1411.71875 L 931.796875 1417.1875 M 931.796875 1417.1875 L 930.625 1422.65625 M 930.46875 1423.398438 L 929.492188 1428.125 M 930.46875 1423.398438 L 930.625 1422.65625 M 929.492188 1428.125 L 928.320312 1433.59375 M 928.320312 1433.59375 L 927.226562 1439.0625 M 927.226562 1439.0625 L 926.09375 1444.53125 M 925 1450 L 926.09375 1444.53125 M 926.09375 1444.53125 L 925 1450 " transform="matrix(0.1,0,0,-0.1,0,150)"/>
</g>
<path style=" stroke:none;fill-rule:nonzero;fill:rgb(0%,0%,0%);fill-opacity:1;" d="M 4.6875 144.375 L -6.480469 149.957031 L -6.886719 148.59375 L -7.523438 151.261719 L -5.007812 152.351562 L -5.855469 151.210938 L 5.3125 145.625 L 4.6875 144.375 "/>
<path style=" stroke:none;fill-rule:nonzero;fill:rgb(0%,0%,0%);fill-opacity:1;" d="M 4.652344 126.890625 L -6.1875 133.085938 L -6.667969 131.75 L -7.15625 134.445312 L -4.582031 135.394531 L -5.492188 134.300781 L 5.347656 128.109375 L 4.652344 126.890625 "/>
<path style=" stroke:none;fill-rule:nonzero;fill:rgb(0%,0%,0%);fill-opacity:1;" d="M 4.613281 109.417969 L -5.777344 116.34375 L -6.347656 115.039062 L -6.648438 117.765625 L -4.019531 118.535156 L -5 117.507812 L 5.386719 110.582031 L 4.613281 109.417969 "/>
<path style=" stroke:none;fill-rule:nonzero;fill:rgb(0%,0%,0%);fill-opacity:1;" d="M 4.5625 91.953125 L -5.1875 99.753906 L -5.867188 98.503906 L -5.933594 101.246094 L -3.242188 101.785156 L -4.3125 100.84375 L 5.4375 93.046875 L 4.5625 91.953125 "/>
<path style=" stroke:none;fill-rule:nonzero;fill:rgb(0%,0%,0%);fill-opacity:1;" d="M 4.503906 74.503906 L -4.324219 83.332031 L -5.136719 82.167969 L -4.898438 84.898438 L -2.167969 85.136719 L -3.332031 84.324219 L 5.496094 75.496094 L 4.503906 74.503906 "/>
<path style=" stroke:none;fill-rule:nonzero;fill:rgb(0%,0%,0%);fill-opacity:1;" d="M 4.441406 57.082031 L -3.050781 67.066406 L -4.023438 66.03125 L -3.398438 68.699219 L -0.664062 68.550781 L -1.929688 67.90625 L 5.558594 57.917969 L 4.441406 57.082031 "/>
<path style=" stroke:none;fill-rule:nonzero;fill:rgb(0%,0%,0%);fill-opacity:1;" d="M 4.375 39.6875 L -1.210938 50.851562 L -2.351562 50.007812 L -1.261719 52.523438 L 1.40625 51.886719 L 0.0429688 51.480469 L 5.625 40.3125 L 4.375 39.6875 "/>
<path style=" stroke:none;fill-rule:nonzero;fill:rgb(0%,0%,0%);fill-opacity:1;" d="M 4.320312 22.328125 L 1.292969 34.441406 L -0.00390625 33.863281 L 1.605469 36.082031 L 4.070312 34.882812 L 2.652344 34.78125 L 5.679688 22.671875 L 4.320312 22.328125 "/>
<path style=" stroke:none;fill-rule:nonzero;fill:rgb(0%,0%,0%);fill-opacity:1;" d="M 4.300781 5 L 4.300781 17.484375 L 2.898438 17.238281 L 5 19 L 7.101562 17.238281 L 5.699219 17.484375 L 5.699219 5 L 4.300781 5 "/>
<path style=" stroke:none;fill-rule:nonzero;fill:rgb(0%,0%,0%);fill-opacity:1;" d="M 22.222656 144.355469 L 10.75 149.273438 L 10.425781 147.890625 L 9.632812 150.515625 L 12.078125 151.75 L 11.300781 150.5625 L 22.777344 145.644531 L 22.222656 144.355469 "/>
<path style=" stroke:none;fill-rule:nonzero;fill:rgb(0%,0%,0%);fill-opacity:1;" d="M 22.1875 126.875 L 11.019531 132.457031 L 10.613281 131.09375 L 9.976562 133.761719 L 12.492188 134.851562 L 11.648438 133.710938 L 22.8125 128.125 L 22.1875 126.875 "/>
<path style=" stroke:none;fill-rule:nonzero;fill:rgb(0%,0%,0%);fill-opacity:1;" d="M 22.140625 109.398438 L 11.433594 115.824219 L 10.925781 114.496094 L 10.496094 117.203125 L 13.085938 118.097656 L 12.15625 117.023438 L 22.859375 110.601562 L 22.140625 109.398438 "/>
<path style=" stroke:none;fill-rule:nonzero;fill:rgb(0%,0%,0%);fill-opacity:1;" d="M 22.082031 91.941406 L 12.09375 99.429688 L 11.449219 98.164062 L 11.300781 100.898438 L 13.96875 101.523438 L 12.933594 100.550781 L 22.917969 93.058594 L 22.082031 91.941406 "/>
<path style=" stroke:none;fill-rule:nonzero;fill:rgb(0%,0%,0%);fill-opacity:1;" d="M 22.003906 74.503906 L 13.175781 83.332031 L 12.363281 82.167969 L 12.601562 84.898438 L 15.332031 85.136719 L 14.167969 84.324219 L 22.996094 75.496094 L 22.003906 74.503906 "/>
<path style=" stroke:none;fill-rule:nonzero;fill:rgb(0%,0%,0%);fill-opacity:1;" d="M 21.917969 57.113281 L 15.757812 66.351562 L 14.730469 65.367188 L 15.5 68 L 18.222656 67.699219 L 16.921875 67.128906 L 23.082031 57.886719 L 21.917969 57.113281 "/>
<path style=" stroke:none;fill-rule:nonzero;fill:rgb(0%,0%,0%);fill-opacity:1;" d="M 21.835938 39.777344 L 18.816406 48.839844 L 17.566406 48.164062 L 19 50.5 L 21.550781 49.492188 L 20.144531 49.285156 L 23.164062 40.222656 L 21.835938 39.777344 "/>
<path style=" stroke:none;fill-rule:nonzero;fill:rgb(0%,0%,0%);fill-opacity:1;" d="M 21.800781 22.5 L 21.800781 31.484375 L 20.398438 31.238281 L 22.5 33 L 24.601562 31.238281 L 23.199219 31.484375 L 23.199219 22.5 L 21.800781 22.5 "/>
<path style=" stroke:none;fill-rule:nonzero;fill:rgb(0%,0%,0%);fill-opacity:1;" d="M 21.835938 5.222656 L 24.855469 14.285156 L 23.449219 14.492188 L 26 15.5 L 27.433594 13.164062 L 26.183594 13.839844 L 23.164062 4.777344 L 21.835938 5.222656 "/>
<path style=" stroke:none;fill-rule:nonzero;fill:rgb(0%,0%,0%);fill-opacity:1;" d="M 39.777344 144.335938 L 27.933594 148.285156 L 27.726562 146.878906 L 26.71875 149.425781 L 29.054688 150.863281 L 28.378906 149.613281 L 40.222656 145.664062 L 39.777344 144.335938 "/>
<path style=" stroke:none;fill-rule:nonzero;fill:rgb(0%,0%,0%);fill-opacity:1;" d="M 39.738281 126.851562 L 28.148438 131.488281 L 27.855469 130.09375 L 27 132.699219 L 29.417969 133.996094 L 28.667969 132.785156 L 40.261719 128.148438 L 39.738281 126.851562 "/>
<path style=" stroke:none;fill-rule:nonzero;fill:rgb(0%,0%,0%);fill-opacity:1;" d="M 39.6875 109.375 L 28.519531 114.957031 L 28.113281 113.59375 L 27.476562 116.261719 L 29.992188 117.351562 L 29.148438 116.210938 L 40.3125 110.625 L 39.6875 109.375 "/>
<path style=" stroke:none;fill-rule:nonzero;fill:rgb(0%,0%,0%);fill-opacity:1;" d="M 39.613281 91.917969 L 30.371094 98.078125 L 29.800781 96.777344 L 29.5 99.5 L 32.132812 100.269531 L 31.148438 99.242188 L 40.386719 93.082031 L 39.613281 91.917969 "/>
<path style=" stroke:none;fill-rule:nonzero;fill:rgb(0%,0%,0%);fill-opacity:1;" d="M 39.503906 74.503906 L 33.578125 80.433594 L 32.761719 79.269531 L 33 82 L 35.730469 82.238281 L 34.566406 81.421875 L 40.496094 75.496094 L 39.503906 74.503906 "/>
<path style=" stroke:none;fill-rule:nonzero;fill:rgb(0%,0%,0%);fill-opacity:1;" d="M 39.375 57.1875 L 36.550781 62.832031 L 35.410156 61.984375 L 36.5 64.5 L 39.167969 63.863281 L 37.804688 63.457031 L 40.625 57.8125 L 39.375 57.1875 "/>
<path style=" stroke:none;fill-rule:nonzero;fill:rgb(0%,0%,0%);fill-opacity:1;" d="M 39.300781 40 L 39.300781 45.484375 L 37.898438 45.238281 L 40 47 L 42.101562 45.238281 L 40.699219 45.484375 L 40.699219 40 L 39.300781 40 "/>
<path style=" stroke:none;fill-rule:nonzero;fill:rgb(0%,0%,0%);fill-opacity:1;" d="M 39.375 22.8125 L 42.195312 28.457031 L 40.832031 28.863281 L 43.5 29.5 L 44.589844 26.984375 L 43.449219 27.832031 L 40.625 22.1875 L 39.375 22.8125 "/>
<path style=" stroke:none;fill-rule:nonzero;fill:rgb(0%,0%,0%);fill-opacity:1;" d="M 39.503906 5.496094 L 45.433594 11.421875 L 44.269531 12.238281 L 47 12 L 47.238281 9.269531 L 46.421875 10.433594 L 40.496094 4.503906 L 39.503906 5.496094 "/>
<path style=" stroke:none;fill-rule:nonzero;fill:rgb(0%,0%,0%);fill-opacity:1;" d="M 57.363281 144.3125 L 45.121094 146.761719 L 45.089844 145.339844 L 43.773438 147.746094 L 45.910156 149.460938 L 45.394531 148.136719 L 57.636719 145.6875 L 57.363281 144.3125 "/>
<path style=" stroke:none;fill-rule:nonzero;fill:rgb(0%,0%,0%);fill-opacity:1;" d="M 57.332031 126.820312 L 45.21875 129.847656 L 45.117188 128.429688 L 43.917969 130.894531 L 46.136719 132.503906 L 45.558594 131.207031 L 57.667969 128.179688 L 57.332031 126.820312 "/>
<path style=" stroke:none;fill-rule:nonzero;fill:rgb(0%,0%,0%);fill-opacity:1;" d="M 57.277344 109.335938 L 48.214844 112.355469 L 48.007812 110.949219 L 47 113.5 L 49.335938 114.933594 L 48.660156 113.683594 L 57.722656 110.664062 L 57.277344 109.335938 "/>
<path style=" stroke:none;fill-rule:nonzero;fill:rgb(0%,0%,0%);fill-opacity:1;" d="M 57.1875 91.875 L 51.542969 94.695312 L 51.136719 93.332031 L 50.5 96 L 53.015625 97.089844 L 52.167969 95.949219 L 57.8125 93.125 L 57.1875 91.875 "/>
<path style=" stroke:none;fill-rule:nonzero;fill:rgb(0%,0%,0%);fill-opacity:1;" d="M 57.003906 74.503906 L 54.578125 76.933594 L 53.761719 75.769531 L 54 78.5 L 56.730469 78.738281 L 55.566406 77.921875 L 57.996094 75.496094 L 57.003906 74.503906 "/>
<path style=" stroke:none;fill-rule:nonzero;fill:rgb(0%,0%,0%);fill-opacity:1;" d="M 56.800781 57.5 L 56.800781 59.484375 L 55.398438 59.238281 L 57.5 61 L 59.601562 59.238281 L 58.199219 59.484375 L 58.199219 57.5 L 56.800781 57.5 "/>
<path style=" stroke:none;fill-rule:nonzero;fill:rgb(0%,0%,0%);fill-opacity:1;" d="M 57.003906 40.496094 L 59.433594 42.921875 L 58.269531 43.738281 L 61 43.5 L 61.238281 40.769531 L 60.421875 41.933594 L 57.996094 39.503906 L 57.003906 40.496094 "/>
<path style=" stroke:none;fill-rule:nonzero;fill:rgb(0%,0%,0%);fill-opacity:1;" d="M 57.1875 23.125 L 62.832031 25.949219 L 61.984375 27.089844 L 64.5 26 L 63.863281 23.335938 L 63.457031 24.695312 L 57.8125 21.875 L 57.1875 23.125 "/>
<path style=" stroke:none;fill-rule:nonzero;fill:rgb(0%,0%,0%);fill-opacity:1;" d="M 57.277344 5.664062 L 66.339844 8.683594 L 65.664062 9.933594 L 68 8.5 L 66.992188 5.949219 L 66.785156 7.355469 L 57.722656 4.335938 L 57.277344 5.664062 "/>
<path style=" stroke:none;fill-rule:nonzero;fill:rgb(0%,0%,0%);fill-opacity:1;" d="M 75 144.300781 L 62.515625 144.300781 L 62.761719 142.898438 L 61 145 L 62.761719 147.101562 L 62.515625 145.699219 L 75 145.699219 L 75 144.300781 "/>
<path style=" stroke:none;fill-rule:nonzero;fill:rgb(0%,0%,0%);fill-opacity:1;" d="M 75 126.800781 L 66.015625 126.800781 L 66.261719 125.398438 L 64.5 127.5 L 66.261719 129.601562 L 66.015625 128.199219 L 75 128.199219 L 75 126.800781 "/>
<path style=" stroke:none;fill-rule:nonzero;fill:rgb(0%,0%,0%);fill-opacity:1;" d="M 75 109.300781 L 69.515625 109.300781 L 69.761719 107.898438 L 68 110 L 69.761719 112.101562 L 69.515625 110.699219 L 75 110.699219 L 75 109.300781 "/>
<path style=" stroke:none;fill-rule:nonzero;fill:rgb(0%,0%,0%);fill-opacity:1;" d="M 75 91.800781 L 73.015625 91.800781 L 73.261719 90.398438 L 71.5 92.5 L 73.261719 94.601562 L 73.015625 93.199219 L 75 93.199219 L 75 91.800781 "/>
<path style=" stroke:none;fill-rule:nonzero;fill:rgb(0%,0%,0%);fill-opacity:1;" d="M 75 58.199219 L 76.984375 58.199219 L 76.738281 59.601562 L 78.5 57.5 L 76.738281 55.398438 L 76.984375 56.800781 L 75 56.800781 L 75 58.199219 "/>
<path style=" stroke:none;fill-rule:nonzero;fill:rgb(0%,0%,0%);fill-opacity:1;" d="M 75 40.699219 L 80.484375 40.699219 L 80.238281 42.101562 L 82 40 L 80.238281 37.898438 L 80.484375 39.300781 L 75 39.300781 L 75 40.699219 "/>
<path style=" stroke:none;fill-rule:nonzero;fill:rgb(0%,0%,0%);fill-opacity:1;" d="M 75 23.199219 L 83.984375 23.199219 L 83.738281 24.601562 L 85.5 22.5 L 83.738281 20.398438 L 83.984375 21.800781 L 75 21.800781 L 75 23.199219 "/>
<path style=" stroke:none;fill-rule:nonzero;fill:rgb(0%,0%,0%);fill-opacity:1;" d="M 75 5.699219 L 87.484375 5.699219 L 87.238281 7.101562 L 89 5 L 87.238281 2.898438 L 87.484375 4.300781 L 75 4.300781 L 75 5.699219 "/>
<path style=" stroke:none;fill-rule:nonzero;fill:rgb(0%,0%,0%);fill-opacity:1;" d="M 92.722656 144.335938 L 83.660156 141.316406 L 84.335938 140.066406 L 82 141.5 L 83.007812 144.050781 L 83.214844 142.644531 L 92.277344 145.664062 L 92.722656 144.335938 "/>
<path style=" stroke:none;fill-rule:nonzero;fill:rgb(0%,0%,0%);fill-opacity:1;" d="M 92.8125 126.875 L 87.167969 124.050781 L 88.015625 122.910156 L 85.5 124 L 86.136719 126.667969 L 86.542969 125.304688 L 92.1875 128.125 L 92.8125 126.875 "/>
<path style=" stroke:none;fill-rule:nonzero;fill:rgb(0%,0%,0%);fill-opacity:1;" d="M 92.996094 109.503906 L 90.566406 107.078125 L 91.730469 106.261719 L 89 106.5 L 88.761719 109.230469 L 89.578125 108.066406 L 92.003906 110.496094 L 92.996094 109.503906 "/>
<path style=" stroke:none;fill-rule:nonzero;fill:rgb(0%,0%,0%);fill-opacity:1;" d="M 93.199219 92.5 L 93.199219 90.515625 L 94.601562 90.761719 L 92.5 89 L 90.398438 90.761719 L 91.800781 90.515625 L 91.800781 92.5 L 93.199219 92.5 "/>
<path style=" stroke:none;fill-rule:nonzero;fill:rgb(0%,0%,0%);fill-opacity:1;" d="M 92.996094 75.496094 L 95.421875 73.066406 L 96.238281 74.230469 L 96 71.5 L 93.269531 71.261719 L 94.433594 72.078125 L 92.003906 74.503906 L 92.996094 75.496094 "/>
<path style=" stroke:none;fill-rule:nonzero;fill:rgb(0%,0%,0%);fill-opacity:1;" d="M 92.8125 58.125 L 98.457031 55.304688 L 98.863281 56.667969 L 99.5 54 L 96.984375 52.910156 L 97.832031 54.050781 L 92.1875 56.875 L 92.8125 58.125 "/>
<path style=" stroke:none;fill-rule:nonzero;fill:rgb(0%,0%,0%);fill-opacity:1;" d="M 92.722656 40.664062 L 101.785156 37.644531 L 101.992188 39.050781 L 103 36.5 L 100.664062 35.066406 L 101.339844 36.316406 L 92.277344 39.335938 L 92.722656 40.664062 "/>
<path style=" stroke:none;fill-rule:nonzero;fill:rgb(0%,0%,0%);fill-opacity:1;" d="M 92.667969 23.179688 L 104.78125 20.152344 L 104.882812 21.570312 L 106.082031 19.105469 L 103.863281 17.496094 L 104.441406 18.792969 L 92.332031 21.820312 L 92.667969 23.179688 "/>
<path style=" stroke:none;fill-rule:nonzero;fill:rgb(0%,0%,0%);fill-opacity:1;" d="M 92.636719 5.6875 L 104.878906 3.238281 L 104.910156 4.660156 L 106.226562 2.253906 L 104.089844 0.539062 L 104.605469 1.863281 L 92.363281 4.3125 L 92.636719 5.6875 "/>
<path style=" stroke:none;fill-rule:nonzero;fill:rgb(0%,0%,0%);fill-opacity:1;" d="M 110.496094 144.503906 L 104.566406 138.578125 L 105.730469 137.761719 L 103 138 L 102.761719 140.730469 L 103.578125 139.566406 L 109.503906 145.496094 L 110.496094 144.503906 "/>
<path style=" stroke:none;fill-rule:nonzero;fill:rgb(0%,0%,0%);fill-opacity:1;" d="M 110.625 127.1875 L 107.804688 121.542969 L 109.164062 121.136719 L 106.5 120.5 L 105.410156 123.015625 L 106.550781 122.167969 L 109.375 127.8125 L 110.625 127.1875 "/>
<path style=" stroke:none;fill-rule:nonzero;fill:rgb(0%,0%,0%);fill-opacity:1;" d="M 110.699219 110 L 110.699219 104.515625 L 112.101562 104.761719 L 110 103 L 107.898438 104.761719 L 109.300781 104.515625 L 109.300781 110 L 110.699219 110 "/>
<path style=" stroke:none;fill-rule:nonzero;fill:rgb(0%,0%,0%);fill-opacity:1;" d="M 110.625 92.8125 L 113.449219 87.167969 L 114.589844 88.015625 L 113.5 85.5 L 110.835938 86.136719 L 112.195312 86.542969 L 109.375 92.1875 L 110.625 92.8125 "/>
<path style=" stroke:none;fill-rule:nonzero;fill:rgb(0%,0%,0%);fill-opacity:1;" d="M 110.496094 75.496094 L 116.421875 69.566406 L 117.238281 70.730469 L 117 68 L 114.269531 67.761719 L 115.433594 68.578125 L 109.503906 74.503906 L 110.496094 75.496094 "/>
<path style=" stroke:none;fill-rule:nonzero;fill:rgb(0%,0%,0%);fill-opacity:1;" d="M 110.386719 58.082031 L 119.628906 51.921875 L 120.199219 53.222656 L 120.5 50.5 L 117.867188 49.730469 L 118.851562 50.757812 L 109.613281 56.917969 L 110.386719 58.082031 "/>
<path style=" stroke:none;fill-rule:nonzero;fill:rgb(0%,0%,0%);fill-opacity:1;" d="M 110.3125 40.625 L 121.480469 35.042969 L 121.886719 36.40625 L 122.523438 33.738281 L 120.007812 32.648438 L 120.855469 33.789062 L 109.6875 39.375 L 110.3125 40.625 "/>
<path style=" stroke:none;fill-rule:nonzero;fill:rgb(0%,0%,0%);fill-opacity:1;" d="M 110.261719 23.148438 L 121.851562 18.511719 L 122.144531 19.90625 L 123 17.300781 L 120.582031 16.003906 L 121.332031 17.214844 L 109.738281 21.851562 L 110.261719 23.148438 "/>
<path style=" stroke:none;fill-rule:nonzero;fill:rgb(0%,0%,0%);fill-opacity:1;" d="M 110.222656 5.664062 L 122.066406 1.714844 L 122.273438 3.121094 L 123.28125 0.574219 L 120.945312 -0.863281 L 121.621094 0.386719 L 109.777344 4.335938 L 110.222656 5.664062 "/>
<path style=" stroke:none;fill-rule:nonzero;fill:rgb(0%,0%,0%);fill-opacity:1;" d="M 128.164062 144.777344 L 125.144531 135.714844 L 126.550781 135.507812 L 124 134.5 L 122.566406 136.835938 L 123.816406 136.160156 L 126.835938 145.222656 L 128.164062 144.777344 "/>
<path style=" stroke:none;fill-rule:nonzero;fill:rgb(0%,0%,0%);fill-opacity:1;" d="M 128.199219 127.5 L 128.199219 118.515625 L 129.601562 118.761719 L 127.5 117 L 125.398438 118.761719 L 126.800781 118.515625 L 126.800781 127.5 L 128.199219 127.5 "/>
<path style=" stroke:none;fill-rule:nonzero;fill:rgb(0%,0%,0%);fill-opacity:1;" d="M 128.164062 110.222656 L 131.183594 101.160156 L 132.433594 101.835938 L 131 99.5 L 128.449219 100.507812 L 129.855469 100.714844 L 126.835938 109.777344 L 128.164062 110.222656 "/>
<path style=" stroke:none;fill-rule:nonzero;fill:rgb(0%,0%,0%);fill-opacity:1;" d="M 128.082031 92.886719 L 134.242188 83.648438 L 135.269531 84.632812 L 134.5 82 L 131.773438 82.300781 L 133.078125 82.871094 L 126.917969 92.113281 L 128.082031 92.886719 "/>
<path style=" stroke:none;fill-rule:nonzero;fill:rgb(0%,0%,0%);fill-opacity:1;" d="M 127.996094 75.496094 L 136.824219 66.667969 L 137.636719 67.832031 L 137.398438 65.101562 L 134.667969 64.863281 L 135.832031 65.675781 L 127.003906 74.503906 L 127.996094 75.496094 "/>
<path style=" stroke:none;fill-rule:nonzero;fill:rgb(0%,0%,0%);fill-opacity:1;" d="M 127.921875 58.058594 L 137.90625 50.570312 L 138.550781 51.835938 L 138.699219 49.101562 L 136.03125 48.476562 L 137.066406 49.449219 L 127.078125 56.941406 L 127.921875 58.058594 "/>
<path style=" stroke:none;fill-rule:nonzero;fill:rgb(0%,0%,0%);fill-opacity:1;" d="M 127.859375 40.601562 L 138.566406 34.175781 L 139.074219 35.503906 L 139.503906 32.796875 L 136.914062 31.902344 L 137.84375 32.976562 L 127.140625 39.398438 L 127.859375 40.601562 "/>
<path style=" stroke:none;fill-rule:nonzero;fill:rgb(0%,0%,0%);fill-opacity:1;" d="M 127.8125 23.125 L 138.980469 17.542969 L 139.386719 18.90625 L 140.023438 16.238281 L 137.507812 15.148438 L 138.355469 16.289062 L 127.1875 21.875 L 127.8125 23.125 "/>
<path style=" stroke:none;fill-rule:nonzero;fill:rgb(0%,0%,0%);fill-opacity:1;" d="M 127.777344 5.644531 L 139.25 0.726562 L 139.574219 2.109375 L 140.367188 -0.515625 L 137.921875 -1.75 L 138.699219 -0.5625 L 127.222656 4.355469 L 127.777344 5.644531 "/>
<path style=" stroke:none;fill-rule:nonzero;fill:rgb(0%,0%,0%);fill-opacity:1;" d="M 145.699219 145 L 145.699219 132.515625 L 147.101562 132.761719 L 145 131 L 142.898438 132.761719 L 144.300781 132.515625 L 144.300781 145 L 145.699219 145 "/>
<path style=" stroke:none;fill-rule:nonzero;fill:rgb(0%,0%,0%);fill-opacity:1;" d="M 145.679688 127.667969 L 148.707031 115.558594 L 150.003906 116.136719 L 148.394531 113.917969 L 145.929688 115.117188 L 147.347656 115.21875 L 144.320312 127.332031 L 145.679688 127.667969 "/>
<path style=" stroke:none;fill-rule:nonzero;fill:rgb(0%,0%,0%);fill-opacity:1;" d="M 145.625 110.3125 L 151.210938 99.148438 L 152.351562 99.992188 L 151.261719 97.476562 L 148.59375 98.113281 L 149.957031 98.519531 L 144.375 109.6875 L 145.625 110.3125 "/>
<path style=" stroke:none;fill-rule:nonzero;fill:rgb(0%,0%,0%);fill-opacity:1;" d="M 145.558594 92.917969 L 153.050781 82.933594 L 154.023438 83.96875 L 153.398438 81.300781 L 150.664062 81.449219 L 151.929688 82.09375 L 144.441406 92.082031 L 145.558594 92.917969 "/>
<path style=" stroke:none;fill-rule:nonzero;fill:rgb(0%,0%,0%);fill-opacity:1;" d="M 145.496094 75.496094 L 154.324219 66.667969 L 155.136719 67.832031 L 154.898438 65.101562 L 152.167969 64.863281 L 153.332031 65.675781 L 144.503906 74.503906 L 145.496094 75.496094 "/>
<path style=" stroke:none;fill-rule:nonzero;fill:rgb(0%,0%,0%);fill-opacity:1;" d="M 145.4375 58.046875 L 155.1875 50.246094 L 155.867188 51.496094 L 155.933594 48.753906 L 153.242188 48.214844 L 154.3125 49.152344 L 144.5625 56.953125 L 145.4375 58.046875 "/>
<path style=" stroke:none;fill-rule:nonzero;fill:rgb(0%,0%,0%);fill-opacity:1;" d="M 145.386719 40.582031 L 155.777344 33.65625 L 156.347656 34.960938 L 156.648438 32.234375 L 154.019531 31.464844 L 155 32.492188 L 144.613281 39.417969 L 145.386719 40.582031 "/>
<path style=" stroke:none;fill-rule:nonzero;fill:rgb(0%,0%,0%);fill-opacity:1;" d="M 145.347656 23.109375 L 156.1875 16.914062 L 156.667969 18.253906 L 157.15625 15.554688 L 154.585938 14.605469 L 155.492188 15.699219 L 144.652344 21.890625 L 145.347656 23.109375 "/>
<path style=" stroke:none;fill-rule:nonzero;fill:rgb(0%,0%,0%);fill-opacity:1;" d="M 145.3125 5.625 L 156.480469 0.0429688 L 156.886719 1.40625 L 157.523438 -1.261719 L 155.007812 -2.351562 L 155.855469 -1.210938 L 144.6875 4.375 L 145.3125 5.625 "/>
<path style=" stroke:none;fill-rule:nonzero;fill:rgb(100%,0%,0%);fill-opacity:1;" d="M 25 57.5 C 25 56.117188 23.882812 55 22.5 55 C 21.117188 55 20 56.117188 20 57.5 C 20 58.882812 21.117188 60 22.5 60 C 23.882812 60 25 58.882812 25 57.5 "/>
<path style="fill:none;stroke-width:10;stroke-linecap:butt;stroke-linejoin:miter;stroke:rgb(0%,0%,0%);stroke-opacity:1;stroke-miterlimit:10;" d="M 250 925 C 250 938.828125 238.828125 950 225 950 C 211.171875 950 200 938.828125 200 925 C 200 911.171875 211.171875 900 225 900 C 238.828125 900 250 911.171875 250 925 Z M 250 925 " transform="matrix(0.1,0,0,-0.1,0,150)"/>
<path style=" stroke:none;fill-rule:nonzero;fill:rgb(100%,0%,0%);fill-opacity:1;" d="M 77.5 127.5 C 77.5 126.117188 76.382812 125 75 125 C 73.617188 125 72.5 126.117188 72.5 127.5 C 72.5 128.882812 73.617188 130 75 130 C 76.382812 130 77.5 128.882812 77.5 127.5 "/>
<path style="fill:none;stroke-width:10;stroke-linecap:butt;stroke-linejoin:miter;stroke:rgb(0%,0%,0%);stroke-opacity:1;stroke-miterlimit:10;" d="M 775 225 C 775 238.828125 763.828125 250 750 250 C 736.171875 250 725 238.828125 725 225 C 725 211.171875 736.171875 200 750 200 C 763.828125 200 775 211.171875 775 225 Z M 775 225 " transform="matrix(0.1,0,0,-0.1,0,150)"/>
<path style=" stroke:none;fill-rule:nonzero;fill:rgb(100%,0%,0%);fill-opacity:1;" d="M 130 75 C 130 73.617188 128.882812 72.5 127.5 72.5 C 126.117188 72.5 125 73.617188 125 75 C 125 76.382812 126.117188 77.5 127.5 77.5 C 128.882812 77.5 130 76.382812 130 75 "/>
<path style="fill:none;stroke-width:10;stroke-linecap:butt;stroke-linejoin:miter;stroke:rgb(0%,0%,0%);stroke-opacity:1;stroke-miterlimit:10;" d="M 1300 750 C 1300 763.828125 1288.828125 775 1275 775 C 1261.171875 775 1250 763.828125 1250 750 C 1250 736.171875 1261.171875 725 1275 725 C 1288.828125 725 1300 736.171875 1300 750 Z M 1300 750 " transform="matrix(0.1,0,0,-0.1,0,150)"/>
</g>
</svg>
