<?xml version="1.0" encoding="UTF-8"?>
<svg xmlns="http://www.w3.org/2000/svg" xmlns:xlink="http://www.w3.org/1999/xlink" width="150pt" height="150pt" viewBox="0 0 150 150" version="1.1">
<defs>
<clipPath id="clip1">
  <path d="M 5 5 L 75 5 L 75 145 L 5 145 Z M 5 5 "/>
</clipPath>
</defs>
<g id="surface1">
<path style="fill:none;stroke-width:10;stroke-linecap:butt;stroke-linejoin:miter;stroke:rgb(0%,0%,0%);stroke-opacity:1;stroke-miterlimit:10;" d="M 0 0 L 1500 0 L 1500 1500 L 0 1500 Z M 0 0 " transform="matrix(0.1,0,0,-0.1,0,150)"/>
<g clip-path="url(#clip1)" clip-rule="nonzero">
<path style="fill:none;stroke-width:10;stroke-linecap:butt;stroke-linejoin:miter;stroke:rgb(0%,0%,100%);stroke-opacity:1;stroke-miterlimit:10;" d="M 687.1875 50 L 686.71875 55.46875 M 686.71875 55.46875 L 686.289062 60.9375 M 686.289062 60.9375 L 685.820312 66.40625 M 685.820312 66.40625 L 685.351562 71.875 M 684.375 82.8125 L 684.375 82.8125 M 684.375 82.8125 L 684.375 82.8125 M 684.375 82.8125 L 683.867188 88.28125 M 683.867188 88.28125 L 683.398438 93.75 M 685.351562 71.875 L 684.84375 77.34375 M 684.375 82.8125 L 684.84375 77.34375 M 684.84375 77.34375 L 684.375 82.8125 M 684.375 82.8125 L 684.375 82.8125 M 683.398438 93.75 L 682.890625 99.21875 M 682.890625 99.21875 L 682.34375 104.6875 M 682.34375 104.6875 L 681.835938 110.15625 M 681.835938 110.15625 L 681.289062 115.625 M 681.289062 115.625 L 680.78125 121.09375 M 680.78125 121.09375 L 680.234375 126.5625 M 680.234375 126.5625 L 679.6875 132.03125 M 679.6875 132.03125 L 679.101562 137.5 M 678.90625 139.414062 L 678.515625 142.96875 M 678.90625 139.414062 L 679.101562 137.5 M 678.515625 142.96875 L 677.929688 148.4375 M 677.929688 148.4375 L 677.34375 153.90625 M 677.34375 153.90625 L 676.757812 159.375 M 676.757812 159.375 L 676.171875 164.84375 M 676.171875 164.84375 L 675.546875 170.3125 M 675.546875 170.3125 L 674.921875 175.78125 M 674.921875 175.78125 L 674.257812 181.25 M 673.4375 188.28125 L 672.96875 192.1875 M 674.257812 181.25 L 673.632812 186.71875 M 673.4375 188.28125 L 673.632812 186.71875 M 672.96875 192.1875 L 672.304688 197.65625 M 672.304688 197.65625 L 671.601562 203.125 M 671.601562 203.125 L 670.9375 208.59375 M 670.9375 208.59375 L 670.234375 214.0625 M 670.234375 214.0625 L 669.492188 219.53125 M 669.492188 219.53125 L 668.789062 225 M 662.5 268.75 L 662.5 268.75 M 662.5 268.75 L 662.5 268.75 M 662.5 268.75 L 661.640625 274.21875 M 661.640625 274.21875 L 660.78125 279.6875 M 660.78125 279.6875 L 659.921875 285.15625 M 659.921875 285.15625 L 659.023438 290.625 M 659.023438 290.625 L 658.085938 296.09375 M 658.085938 296.09375 L 657.1875 301.5625 M 657.03125 302.382812 L 656.210938 307.03125 M 657.03125 302.382812 L 657.1875 301.5625 M 656.210938 307.03125 L 655.273438 312.5 M 668.789062 225 L 668.046875 230.46875 M 667.96875 231.015625 L 667.304688 235.9375 M 667.96875 231.015625 L 668.046875 230.46875 M 667.304688 235.9375 L 666.523438 241.40625 M 666.523438 241.40625 L 665.742188 246.875 M 665.742188 246.875 L 664.960938 252.34375 M 664.960938 252.34375 L 664.140625 257.8125 M 664.140625 257.8125 L 663.320312 263.28125 M 662.5 268.75 L 663.320312 263.28125 M 663.320312 263.28125 L 662.5 268.75 M 662.5 268.75 L 662.5 268.75 M 655.273438 312.5 L 654.257812 317.96875 M 654.257812 317.96875 L 653.28125 323.4375 M 651.5625 332.539062 L 651.210938 334.375 M 653.28125 323.4375 L 652.265625 328.90625 M 651.5625 332.539062 L 652.265625 328.90625 M 651.210938 334.375 L 650.15625 339.84375 M 650.15625 339.84375 L 649.0625 345.3125 M 649.0625 345.3125 L 647.96875 350.78125 M 647.96875 350.78125 L 646.835938 356.25 M 646.09375 359.84375 L 645.703125 361.71875 M 646.09375 359.84375 L 646.835938 356.25 M 645.703125 361.71875 L 644.53125 367.1875 M 644.53125 367.1875 L 643.320312 372.65625 M 643.320312 372.65625 L 642.109375 378.125 M 640.625 384.6875 L 639.609375 389.0625 M 639.609375 389.0625 L 638.320312 394.53125 M 638.320312 394.53125 L 636.992188 400 M 642.109375 378.125 L 640.859375 383.59375 M 640.625 384.6875 L 640.859375 383.59375 M 575 575 L 575 575 M 636.992188 400 L 635.664062 405.46875 M 635.15625 407.421875 L 634.257812 410.9375 M 635.15625 407.421875 L 635.664062 405.46875 M 634.257812 410.9375 L 632.851562 416.40625 M 632.851562 416.40625 L 631.445312 421.875 M 629.6875 428.359375 L 628.4375 432.8125 M 631.445312 421.875 L 629.960938 427.34375 M 629.6875 428.359375 L 629.960938 427.34375 M 628.4375 432.8125 L 626.914062 438.28125 M 626.914062 438.28125 L 625.351562 443.75 M 618.75 465.625 L 618.75 465.625 M 618.75 465.625 L 618.75 465.625 M 618.75 465.625 L 616.992188 471.09375 M 616.992188 471.09375 L 615.234375 476.5625 M 615.234375 476.5625 L 613.398438 482.03125 M 613.28125 482.34375 L 611.523438 487.5 M 613.28125 482.34375 L 613.398438 482.03125 M 624.21875 447.65625 L 623.75 449.21875 M 624.21875 447.65625 L 625.351562 443.75 M 623.75 449.21875 L 622.148438 454.6875 M 622.148438 454.6875 L 620.46875 460.15625 M 618.75 465.625 L 620.46875 460.15625 M 620.46875 460.15625 L 618.75 465.625 M 618.75 465.625 L 618.75 465.625 M 607.8125 498.007812 L 607.65625 498.4375 M 611.523438 487.5 L 609.609375 492.96875 M 607.8125 498.007812 L 609.609375 492.96875 M 607.65625 498.4375 L 605.664062 503.90625 M 605.664062 503.90625 L 603.632812 509.375 M 596.875 526.5625 L 594.960938 531.25 M 602.34375 512.734375 L 601.523438 514.84375 M 602.34375 512.734375 L 603.632812 509.375 M 601.523438 514.84375 L 599.375 520.3125 M 599.375 520.3125 L 597.1875 525.78125 M 596.875 526.5625 L 597.1875 525.78125 M 594.960938 531.25 L 592.65625 536.71875 M 591.40625 539.648438 L 590.3125 542.1875 M 591.40625 539.648438 L 592.65625 536.71875 M 585.9375 552.03125 L 585.429688 553.125 M 590.3125 542.1875 L 587.890625 547.65625 M 585.9375 552.03125 L 587.890625 547.65625 M 585.429688 553.125 L 582.929688 558.59375 M 580.46875 563.789062 L 580.351562 564.0625 M 580.46875 563.789062 L 582.929688 558.59375 M 580.351562 564.0625 L 577.695312 569.53125 M 575 575 L 577.695312 569.53125 M 577.695312 569.53125 L 575 575 M 575 575 L 575 575 M 575 575 L 572.226562 580.46875 M 569.53125 585.703125 L 569.414062 585.9375 M 569.53125 585.703125 L 572.226562 580.46875 M 564.0625 595.898438 L 563.515625 596.875 M 569.414062 585.9375 L 566.484375 591.40625 M 564.0625 595.898438 L 566.484375 591.40625 M 553.125 615.117188 L 550.9375 618.75 M 563.515625 596.875 L 560.507812 602.34375 M 558.59375 605.703125 L 557.382812 607.8125 M 558.59375 605.703125 L 560.507812 602.34375 M 557.382812 607.8125 L 554.21875 613.28125 M 553.125 615.117188 L 554.21875 613.28125 M 531.25 649.375 L 529.726562 651.5625 M 529.726562 651.5625 L 525.9375 657.03125 M 525.78125 657.226562 L 522.03125 662.5 M 525.78125 657.226562 L 525.9375 657.03125 M 547.65625 624.140625 L 547.617188 624.21875 M 547.65625 624.140625 L 550.9375 618.75 M 547.617188 624.21875 L 544.179688 629.6875 M 542.1875 632.851562 L 540.703125 635.15625 M 540.703125 635.15625 L 537.148438 640.625 M 542.1875 632.851562 L 544.179688 629.6875 M 536.71875 641.25 L 533.476562 646.09375 M 536.71875 641.25 L 537.148438 640.625 M 531.25 649.375 L 533.476562 646.09375 M 487.5 706.25 L 487.5 706.25 M 487.5 706.25 L 487.5 706.25 M 487.5 706.25 L 482.773438 711.71875 M 482.03125 712.539062 L 477.929688 717.1875 M 482.03125 712.539062 L 482.773438 711.71875 M 476.5625 718.710938 L 473.007812 722.65625 M 471.09375 724.726562 L 467.96875 728.125 M 471.09375 724.726562 L 473.007812 722.65625 M 476.5625 718.710938 L 477.929688 717.1875 M 465.625 730.664062 L 462.851562 733.59375 M 460.15625 736.445312 L 457.617188 739.0625 M 460.15625 736.445312 L 462.851562 733.59375 M 454.6875 742.109375 L 452.304688 744.53125 M 449.21875 747.65625 L 446.875 750 M 449.21875 747.65625 L 452.304688 744.53125 M 454.6875 742.109375 L 457.617188 739.0625 M 465.625 730.664062 L 467.96875 728.125 M 509.375 679.414062 L 505.507812 684.375 M 520.3125 664.84375 L 518.007812 667.96875 M 514.84375 672.226562 L 513.945312 673.4375 M 514.84375 672.226562 L 518.007812 667.96875 M 520.3125 664.84375 L 522.03125 662.5 M 513.945312 673.4375 L 509.765625 678.90625 M 509.375 679.414062 L 509.765625 678.90625 M 498.4375 693.164062 L 496.679688 695.3125 M 503.90625 686.367188 L 501.132812 689.84375 M 503.90625 686.367188 L 505.507812 684.375 M 498.4375 693.164062 L 501.132812 689.84375 M 492.96875 699.804688 L 492.148438 700.78125 M 492.96875 699.804688 L 496.679688 695.3125 M 487.5 706.25 L 492.148438 700.78125 M 492.148438 700.78125 L 487.5 706.25 M 487.5 706.25 L 487.5 706.25 M 575 575 L 575 575 M 1100 706.25 L 1100 706.25 M 1056.25 746.875 L 1053.125 750 M 1078.125 725.9375 L 1075.78125 728.125 M 1089.0625 715.9375 L 1087.695312 717.1875 M 1094.53125 711.054688 L 1093.789062 711.71875 M 1094.53125 711.054688 L 1100 706.25 M 1100 706.25 L 1100 706.25 M 1089.0625 715.9375 L 1093.789062 711.71875 M 1083.59375 720.898438 L 1081.679688 722.65625 M 1083.59375 720.898438 L 1087.695312 717.1875 M 1078.125 725.9375 L 1081.679688 722.65625 M 1067.1875 736.25 L 1064.257812 739.0625 M 1072.65625 731.054688 L 1069.960938 733.59375 M 1072.65625 731.054688 L 1075.78125 728.125 M 1067.1875 736.25 L 1069.960938 733.59375 M 1061.71875 741.523438 L 1058.632812 744.53125 M 1061.71875 741.523438 L 1064.257812 739.0625 M 1056.25 746.875 L 1058.632812 744.53125 M 1275 575 L 1275 575 M 1450 465.625 L 1450 465.625 M 1417.1875 485.273438 L 1413.476562 487.5 M 1422.65625 481.953125 L 1422.539062 482.03125 M 1422.65625 481.953125 L 1428.125 478.671875 M 1417.1875 485.273438 L 1422.539062 482.03125 M 1433.59375 475.390625 L 1431.640625 476.5625 M 1433.59375 475.390625 L 1439.0625 472.148438 M 1444.53125 468.867188 L 1440.820312 471.09375 M 1444.53125 468.867188 L 1450 465.625 M 1450 465.625 L 1450 465.625 M 1439.0625 472.148438 L 1440.820312 471.09375 M 1428.125 478.671875 L 1431.640625 476.5625 M 1362.5 518.75 L 1360 520.3125 M 1351.5625 525.585938 L 1351.25 525.78125 M 1346.09375 529.023438 L 1342.539062 531.25 M 1346.09375 529.023438 L 1351.25 525.78125 M 1351.5625 525.585938 L 1357.03125 522.148438 M 1357.03125 522.148438 L 1360 520.3125 M 1318.75 546.40625 L 1316.796875 547.65625 M 1313.28125 549.921875 L 1308.320312 553.125 M 1313.28125 549.921875 L 1316.796875 547.65625 M 1296.875 560.546875 L 1291.523438 564.0625 M 1285.9375 567.734375 L 1283.242188 569.53125 M 1275 575 L 1280.46875 571.367188 M 1280.46875 571.367188 L 1275 575 M 1280.46875 571.367188 L 1283.242188 569.53125 M 1285.9375 567.734375 L 1291.40625 564.140625 M 1291.40625 564.140625 L 1291.523438 564.0625 M 1302.34375 556.992188 L 1299.882812 558.59375 M 1302.34375 556.992188 L 1307.8125 553.4375 M 1296.875 560.546875 L 1299.882812 558.59375 M 1307.8125 553.4375 L 1308.320312 553.125 M 1329.6875 539.414062 L 1325.3125 542.1875 M 1335.15625 535.9375 L 1333.90625 536.71875 M 1335.15625 535.9375 L 1340.625 532.460938 M 1329.6875 539.414062 L 1333.90625 536.71875 M 1318.75 546.40625 L 1324.21875 542.890625 M 1324.21875 542.890625 L 1325.3125 542.1875 M 1340.625 532.460938 L 1342.539062 531.25 M 1378.90625 508.59375 L 1377.617188 509.375 M 1378.90625 508.59375 L 1384.375 505.234375 M 1406.25 491.875 L 1404.453125 492.96875 M 1400.78125 495.195312 L 1395.46875 498.4375 M 1400.78125 495.195312 L 1404.453125 492.96875 M 1389.84375 501.875 L 1386.523438 503.90625 M 1389.84375 501.875 L 1395.3125 498.515625 M 1384.375 505.234375 L 1386.523438 503.90625 M 1395.3125 498.515625 L 1395.46875 498.4375 M 1373.4375 511.953125 L 1368.789062 514.84375 M 1362.5 518.75 L 1367.96875 515.351562 M 1367.96875 515.351562 L 1368.789062 514.84375 M 1373.4375 511.953125 L 1377.617188 509.375 M 1406.25 491.875 L 1411.71875 488.554688 M 1411.71875 488.554688 L 1413.476562 487.5 M 1182.03125 640.3125 L 1181.601562 640.625 M 1182.03125 640.3125 L 1187.5 636.25 M 1154.6875 661.171875 L 1152.96875 662.5 M 1160.15625 656.914062 L 1160.039062 657.03125 M 1160.15625 656.914062 L 1165.625 652.734375 M 1154.6875 661.171875 L 1160.039062 657.03125 M 1176.5625 644.414062 L 1174.335938 646.09375 M 1171.09375 648.554688 L 1167.148438 651.5625 M 1171.09375 648.554688 L 1174.335938 646.09375 M 1176.5625 644.414062 L 1181.601562 640.625 M 1165.625 652.734375 L 1167.148438 651.5625 M 1231.25 604.84375 L 1226.992188 607.8125 M 1220.3125 612.539062 L 1219.21875 613.28125 M 1214.84375 616.40625 L 1211.5625 618.75 M 1214.84375 616.40625 L 1219.21875 613.28125 M 1220.3125 612.539062 L 1225.78125 608.671875 M 1225.78125 608.671875 L 1226.992188 607.8125 M 1253.125 589.726562 L 1250.703125 591.40625 M 1247.65625 593.476562 L 1242.695312 596.875 M 1247.65625 593.476562 L 1250.703125 591.40625 M 1264.0625 582.34375 L 1258.710938 585.9375 M 1269.53125 578.671875 L 1266.835938 580.46875 M 1269.53125 578.671875 L 1275 575 M 1275 575 L 1275 575 M 1264.0625 582.34375 L 1266.835938 580.46875 M 1253.125 589.726562 L 1258.59375 586.015625 M 1258.59375 586.015625 L 1258.710938 585.9375 M 1236.71875 601.015625 L 1234.804688 602.34375 M 1236.71875 601.015625 L 1242.1875 597.226562 M 1231.25 604.84375 L 1234.804688 602.34375 M 1242.1875 597.226562 L 1242.695312 596.875 M 1198.4375 628.203125 L 1196.445312 629.6875 M 1209.375 620.3125 L 1203.945312 624.21875 M 1198.4375 628.203125 L 1203.90625 624.257812 M 1203.90625 624.257812 L 1203.945312 624.21875 M 1192.96875 632.226562 L 1188.984375 635.15625 M 1192.96875 632.226562 L 1196.445312 629.6875 M 1187.5 636.25 L 1188.984375 635.15625 M 1209.375 620.3125 L 1211.5625 618.75 M 1143.75 669.804688 L 1139.179688 673.4375 M 1132.8125 678.59375 L 1132.421875 678.90625 M 1127.34375 683.046875 L 1125.742188 684.375 M 1127.34375 683.046875 L 1132.421875 678.90625 M 1132.8125 678.59375 L 1138.28125 674.179688 M 1138.28125 674.179688 L 1139.179688 673.4375 M 1121.875 687.578125 L 1119.179688 689.84375 M 1116.40625 692.1875 L 1112.695312 695.3125 M 1116.40625 692.1875 L 1119.179688 689.84375 M 1110.9375 696.796875 L 1106.289062 700.78125 M 1100 706.25 L 1105.46875 701.484375 M 1105.46875 701.484375 L 1100 706.25 M 1105.46875 701.484375 L 1106.289062 700.78125 M 1110.9375 696.796875 L 1112.695312 695.3125 M 1121.875 687.578125 L 1125.742188 684.375 M 1149.21875 665.46875 L 1146.054688 667.96875 M 1149.21875 665.46875 L 1152.96875 662.5 M 1143.75 669.804688 L 1146.054688 667.96875 M 1100 706.25 L 1100 706.25 M 1275 575 L 1275 575 M 225 925 L 225 925 M 400 793.75 L 400 793.75 M 356.25 830.195312 L 353.945312 832.03125 M 350.78125 834.53125 L 347.03125 837.5 M 350.78125 834.53125 L 353.945312 832.03125 M 378.125 812.421875 L 374.257812 815.625 M 389.0625 803.203125 L 387.304688 804.6875 M 394.53125 798.515625 L 393.710938 799.21875 M 394.53125 798.515625 L 400 793.75 M 400 793.75 L 400 793.75 M 389.0625 803.203125 L 393.710938 799.21875 M 383.59375 807.8125 L 380.820312 810.15625 M 383.59375 807.8125 L 387.304688 804.6875 M 378.125 812.421875 L 380.820312 810.15625 M 361.71875 825.820312 L 360.820312 826.5625 M 361.71875 825.820312 L 367.1875 821.40625 M 372.65625 816.953125 L 367.578125 821.09375 M 372.65625 816.953125 L 374.257812 815.625 M 367.1875 821.40625 L 367.578125 821.09375 M 356.25 830.195312 L 360.820312 826.5625 M 290.625 879.6875 L 288.4375 881.25 M 312.5 863.75 L 311.015625 864.84375 M 307.03125 867.773438 L 303.554688 870.3125 M 307.03125 867.773438 L 311.015625 864.84375 M 296.09375 875.742188 L 296.054688 875.78125 M 296.09375 875.742188 L 301.5625 871.796875 M 290.625 879.6875 L 296.054688 875.78125 M 301.5625 871.796875 L 303.554688 870.3125 M 257.8125 902.773438 L 257.265625 903.125 M 268.75 895.15625 L 265.195312 897.65625 M 257.8125 902.773438 L 263.28125 898.984375 M 263.28125 898.984375 L 265.195312 897.65625 M 241.40625 913.984375 L 241.289062 914.0625 M 241.40625 913.984375 L 246.875 910.273438 M 235.9375 917.65625 L 233.164062 919.53125 M 225 925 L 230.46875 921.328125 M 230.46875 921.328125 L 225 925 M 230.46875 921.328125 L 233.164062 919.53125 M 235.9375 917.65625 L 241.289062 914.0625 M 252.34375 906.523438 L 249.296875 908.59375 M 252.34375 906.523438 L 257.265625 903.125 M 246.875 910.273438 L 249.296875 908.59375 M 274.21875 891.328125 L 273.007812 892.1875 M 274.21875 891.328125 L 279.6875 887.460938 M 285.15625 883.59375 L 280.78125 886.71875 M 285.15625 883.59375 L 288.4375 881.25 M 279.6875 887.460938 L 280.78125 886.71875 M 268.75 895.15625 L 273.007812 892.1875 M 334.375 847.265625 L 332.851562 848.4375 M 323.4375 855.585938 L 318.398438 859.375 M 328.90625 851.445312 L 325.664062 853.90625 M 328.90625 851.445312 L 332.851562 848.4375 M 323.4375 855.585938 L 325.664062 853.90625 M 345.3125 838.828125 L 340 842.96875 M 334.375 847.265625 L 339.84375 843.085938 M 339.84375 843.085938 L 340 842.96875 M 345.3125 838.828125 L 347.03125 837.5 M 312.5 863.75 L 317.96875 859.6875 M 317.96875 859.6875 L 318.398438 859.375 M 88.28125 1011.445312 L 86.523438 1012.5 M 88.28125 1011.445312 L 93.75 1008.125 M 126.5625 988.046875 L 122.382812 990.625 M 132.03125 984.648438 L 131.210938 985.15625 M 132.03125 984.648438 L 137.5 981.25 M 126.5625 988.046875 L 131.210938 985.15625 M 104.6875 1001.484375 L 104.53125 1001.5625 M 115.625 994.765625 L 113.476562 996.09375 M 104.6875 1001.484375 L 110.15625 998.125 M 110.15625 998.125 L 113.476562 996.09375 M 99.21875 1004.804688 L 95.546875 1007.03125 M 99.21875 1004.804688 L 104.53125 1001.5625 M 93.75 1008.125 L 95.546875 1007.03125 M 115.625 994.765625 L 121.09375 991.40625 M 121.09375 991.40625 L 122.382812 990.625 M 159.375 967.539062 L 157.460938 968.75 M 175.78125 957.109375 L 174.6875 957.8125 M 175.78125 957.109375 L 181.25 953.59375 M 170.3125 960.585938 L 166.09375 963.28125 M 159.375 967.539062 L 164.84375 964.0625 M 164.84375 964.0625 L 166.09375 963.28125 M 170.3125 960.585938 L 174.6875 957.8125 M 192.1875 946.5625 L 191.679688 946.875 M 203.125 939.453125 L 200.117188 941.40625 M 192.1875 946.5625 L 197.65625 943.007812 M 197.65625 943.007812 L 200.117188 941.40625 M 208.59375 935.859375 L 208.476562 935.9375 M 208.59375 935.859375 L 214.0625 932.265625 M 219.53125 928.632812 L 216.757812 930.46875 M 219.53125 928.632812 L 225 925 M 225 925 L 225 925 M 214.0625 932.265625 L 216.757812 930.46875 M 203.125 939.453125 L 208.476562 935.9375 M 186.71875 950.078125 L 183.203125 952.34375 M 186.71875 950.078125 L 191.679688 946.875 M 181.25 953.59375 L 183.203125 952.34375 M 142.96875 977.851562 L 140 979.6875 M 142.96875 977.851562 L 148.4375 974.414062 M 153.90625 970.976562 L 148.75 974.21875 M 153.90625 970.976562 L 157.460938 968.75 M 148.4375 974.414062 L 148.75 974.21875 M 137.5 981.25 L 140 979.6875 M 71.875 1021.328125 L 68.359375 1023.4375 M 60.9375 1027.851562 L 59.179688 1028.90625 M 50 1034.375 L 55.46875 1031.132812 M 55.46875 1031.132812 L 50 1034.375 M 55.46875 1031.132812 L 59.179688 1028.90625 M 60.9375 1027.851562 L 66.40625 1024.609375 M 66.40625 1024.609375 L 68.359375 1023.4375 M 82.8125 1014.726562 L 77.460938 1017.96875 M 71.875 1021.328125 L 77.34375 1018.046875 M 77.34375 1018.046875 L 77.460938 1017.96875 M 82.8125 1014.726562 L 86.523438 1012.5 M 50 1034.375 L 50 1034.375 M 225 925 L 225 925 M 443.75 753.125 L 441.367188 755.46875 M 438.28125 758.476562 L 435.742188 760.9375 M 438.28125 758.476562 L 441.367188 755.46875 M 432.8125 763.75 L 430.039062 766.40625 M 427.34375 768.945312 L 424.21875 771.875 M 427.34375 768.945312 L 430.039062 766.40625 M 432.8125 763.75 L 435.742188 760.9375 M 421.875 774.0625 L 418.320312 777.34375 M 416.40625 779.101562 L 412.304688 782.8125 M 416.40625 779.101562 L 418.320312 777.34375 M 410.9375 784.0625 L 406.210938 788.28125 M 400 793.75 L 405.46875 788.945312 M 405.46875 788.945312 L 400 793.75 M 405.46875 788.945312 L 406.210938 788.28125 M 410.9375 784.0625 L 412.304688 782.8125 M 421.875 774.0625 L 424.21875 771.875 M 443.75 753.125 L 446.875 750 M 400 793.75 L 400 793.75 M 925 925 L 925 925 M 1012.5 793.75 L 1012.5 793.75 M 1012.5 793.75 L 1012.5 793.75 M 1012.5 793.75 L 1007.851562 799.21875 M 1007.03125 800.195312 L 1003.320312 804.6875 M 1007.03125 800.195312 L 1007.851562 799.21875 M 1001.5625 806.835938 L 998.867188 810.15625 M 996.09375 813.632812 L 994.492188 815.625 M 996.09375 813.632812 L 998.867188 810.15625 M 1001.5625 806.835938 L 1003.320312 804.6875 M 990.625 820.585938 L 990.234375 821.09375 M 990.234375 821.09375 L 986.054688 826.5625 M 979.6875 835.15625 L 977.96875 837.5 M 985.15625 827.773438 L 981.992188 832.03125 M 985.15625 827.773438 L 986.054688 826.5625 M 979.6875 835.15625 L 981.992188 832.03125 M 990.625 820.585938 L 994.492188 815.625 M 1034.375 769.335938 L 1032.03125 771.875 M 1045.3125 757.890625 L 1042.382812 760.9375 M 1050.78125 752.34375 L 1047.695312 755.46875 M 1050.78125 752.34375 L 1053.125 750 M 1045.3125 757.890625 L 1047.695312 755.46875 M 1039.84375 763.554688 L 1037.148438 766.40625 M 1039.84375 763.554688 L 1042.382812 760.9375 M 1034.375 769.335938 L 1037.148438 766.40625 M 1023.4375 781.289062 L 1022.070312 782.8125 M 1028.90625 775.273438 L 1026.992188 777.34375 M 1028.90625 775.273438 L 1032.03125 771.875 M 1023.4375 781.289062 L 1026.992188 777.34375 M 1017.96875 787.460938 L 1017.226562 788.28125 M 1017.96875 787.460938 L 1022.070312 782.8125 M 1012.5 793.75 L 1017.226562 788.28125 M 1017.226562 788.28125 L 1012.5 793.75 M 1012.5 793.75 L 1012.5 793.75 M 968.75 850.625 L 966.523438 853.90625 M 963.28125 858.75 L 962.851562 859.375 M 963.28125 858.75 L 966.523438 853.90625 M 957.8125 867.148438 L 955.820312 870.3125 M 962.851562 859.375 L 959.296875 864.84375 M 957.8125 867.148438 L 959.296875 864.84375 M 955.820312 870.3125 L 952.382812 875.78125 M 952.34375 875.859375 L 949.0625 881.25 M 952.34375 875.859375 L 952.382812 875.78125 M 974.21875 842.773438 L 974.0625 842.96875 M 974.21875 842.773438 L 977.96875 837.5 M 974.0625 842.96875 L 970.273438 848.4375 M 968.75 850.625 L 970.273438 848.4375 M 946.875 884.882812 L 945.78125 886.71875 M 945.78125 886.71875 L 942.617188 892.1875 M 941.40625 894.296875 L 939.492188 897.65625 M 941.40625 894.296875 L 942.617188 892.1875 M 939.492188 897.65625 L 936.484375 903.125 M 946.875 884.882812 L 949.0625 881.25 M 935.9375 904.101562 L 933.515625 908.59375 M 933.515625 908.59375 L 930.585938 914.0625 M 935.9375 904.101562 L 936.484375 903.125 M 930.46875 914.296875 L 927.773438 919.53125 M 930.46875 914.296875 L 930.585938 914.0625 M 925 925 L 927.773438 919.53125 M 927.773438 919.53125 L 925 925 M 925 925 L 925 925 M 925 925 L 922.304688 930.46875 M 922.304688 930.46875 L 919.648438 935.9375 M 919.53125 936.210938 L 917.070312 941.40625 M 919.53125 936.210938 L 919.648438 935.9375 M 917.070312 941.40625 L 914.570312 946.875 M 914.0625 947.96875 L 912.109375 952.34375 M 912.109375 952.34375 L 909.6875 957.8125 M 914.0625 947.96875 L 914.570312 946.875 M 908.59375 960.351562 L 907.34375 963.28125 M 908.59375 960.351562 L 909.6875 957.8125 M 907.34375 963.28125 L 905.039062 968.75 M 903.125 973.4375 L 902.8125 974.21875 M 902.8125 974.21875 L 900.625 979.6875 M 900.625 979.6875 L 898.476562 985.15625 M 897.65625 987.265625 L 896.367188 990.625 M 897.65625 987.265625 L 898.476562 985.15625 M 903.125 973.4375 L 905.039062 968.75 M 896.367188 990.625 L 894.335938 996.09375 M 894.335938 996.09375 L 892.34375 1001.5625 M 892.1875 1001.992188 L 890.390625 1007.03125 M 890.390625 1007.03125 L 888.476562 1012.5 M 892.1875 1001.992188 L 892.34375 1001.5625 M 881.25 1034.375 L 881.25 1034.375 M 881.25 1034.375 L 881.25 1034.375 M 881.25 1034.375 L 879.53125 1039.84375 M 879.53125 1039.84375 L 877.851562 1045.3125 M 877.851562 1045.3125 L 876.25 1050.78125 M 875.78125 1052.34375 L 874.648438 1056.25 M 875.78125 1052.34375 L 876.25 1050.78125 M 886.71875 1017.65625 L 886.601562 1017.96875 M 886.71875 1017.65625 L 888.476562 1012.5 M 886.601562 1017.96875 L 884.765625 1023.4375 M 884.765625 1023.4375 L 883.007812 1028.90625 M 881.25 1034.375 L 883.007812 1028.90625 M 883.007812 1028.90625 L 881.25 1034.375 M 881.25 1034.375 L 881.25 1034.375 M 874.648438 1056.25 L 873.085938 1061.71875 M 873.085938 1061.71875 L 871.5625 1067.1875 M 870.3125 1071.640625 L 870.039062 1072.65625 M 870.039062 1072.65625 L 868.554688 1078.125 M 870.3125 1071.640625 L 871.5625 1067.1875 M 868.554688 1078.125 L 867.148438 1083.59375 M 867.148438 1083.59375 L 865.742188 1089.0625 M 864.84375 1092.578125 L 864.335938 1094.53125 M 864.84375 1092.578125 L 865.742188 1089.0625 M 864.335938 1094.53125 L 863.007812 1100 M 925 925 L 925 925 M 859.375 1115.3125 L 859.140625 1116.40625 M 859.140625 1116.40625 L 857.890625 1121.875 M 863.007812 1100 L 861.679688 1105.46875 M 861.679688 1105.46875 L 860.390625 1110.9375 M 859.375 1115.3125 L 860.390625 1110.9375 M 857.890625 1121.875 L 856.679688 1127.34375 M 856.679688 1127.34375 L 855.46875 1132.8125 M 855.46875 1132.8125 L 854.296875 1138.28125 M 853.90625 1140.15625 L 853.164062 1143.75 M 853.90625 1140.15625 L 854.296875 1138.28125 M 853.164062 1143.75 L 852.03125 1149.21875 M 852.03125 1149.21875 L 850.9375 1154.6875 M 850.9375 1154.6875 L 849.84375 1160.15625 M 849.84375 1160.15625 L 848.789062 1165.625 M 848.4375 1167.460938 L 847.734375 1171.09375 M 847.734375 1171.09375 L 846.71875 1176.5625 M 848.4375 1167.460938 L 848.789062 1165.625 M 846.71875 1176.5625 L 845.742188 1182.03125 M 845.742188 1182.03125 L 844.726562 1187.5 M 837.5 1231.25 L 837.5 1231.25 M 837.5 1231.25 L 837.5 1231.25 M 837.5 1231.25 L 836.679688 1236.71875 M 836.679688 1236.71875 L 835.859375 1242.1875 M 835.859375 1242.1875 L 835.039062 1247.65625 M 835.039062 1247.65625 L 834.257812 1253.125 M 834.257812 1253.125 L 833.476562 1258.59375 M 833.476562 1258.59375 L 832.695312 1264.0625 M 832.03125 1268.984375 L 831.953125 1269.53125 M 832.03125 1268.984375 L 832.695312 1264.0625 M 831.953125 1269.53125 L 831.210938 1275 M 844.726562 1187.5 L 843.789062 1192.96875 M 842.96875 1197.617188 L 842.8125 1198.4375 M 842.96875 1197.617188 L 843.789062 1192.96875 M 842.8125 1198.4375 L 841.914062 1203.90625 M 841.914062 1203.90625 L 840.976562 1209.375 M 840.976562 1209.375 L 840.078125 1214.84375 M 840.078125 1214.84375 L 839.21875 1220.3125 M 839.21875 1220.3125 L 838.359375 1225.78125 M 837.5 1231.25 L 838.359375 1225.78125 M 838.359375 1225.78125 L 837.5 1231.25 M 837.5 1231.25 L 837.5 1231.25 M 831.210938 1275 L 830.507812 1280.46875 M 830.507812 1280.46875 L 829.765625 1285.9375 M 829.765625 1285.9375 L 829.0625 1291.40625 M 829.0625 1291.40625 L 828.398438 1296.875 M 828.398438 1296.875 L 827.695312 1302.34375 M 827.695312 1302.34375 L 827.03125 1307.8125 M 826.5625 1311.71875 L 826.367188 1313.28125 M 826.367188 1313.28125 L 825.742188 1318.75 M 826.5625 1311.71875 L 827.03125 1307.8125 M 825.742188 1318.75 L 825.078125 1324.21875 M 825.078125 1324.21875 L 824.453125 1329.6875 M 824.453125 1329.6875 L 823.828125 1335.15625 M 823.828125 1335.15625 L 823.242188 1340.625 M 823.242188 1340.625 L 822.65625 1346.09375 M 822.65625 1346.09375 L 822.070312 1351.5625 M 822.070312 1351.5625 L 821.484375 1357.03125 M 821.09375 1360.625 L 820.898438 1362.5 M 821.09375 1360.625 L 821.484375 1357.03125 M 820.898438 1362.5 L 820.3125 1367.96875 M 820.3125 1367.96875 L 819.765625 1373.4375 M 819.765625 1373.4375 L 819.21875 1378.90625 M 819.21875 1378.90625 L 818.710938 1384.375 M 818.710938 1384.375 L 818.164062 1389.84375 M 818.164062 1389.84375 L 817.65625 1395.3125 M 817.65625 1395.3125 L 817.109375 1400.78125 M 817.109375 1400.78125 L 816.601562 1406.25 M 815.625 1417.1875 L 815.625 1417.1875 M 815.625 1417.1875 L 815.625 1417.1875 M 815.625 1417.1875 L 815.15625 1422.65625 M 815.15625 1422.65625 L 814.648438 1428.125 M 816.601562 1406.25 L 816.132812 1411.71875 M 815.625 1417.1875 L 816.132812 1411.71875 M 816.132812 1411.71875 L 815.625 1417.1875 M 815.625 1417.1875 L 815.625 1417.1875 M 814.648438 1428.125 L 814.179688 1433.59375 M 814.179688 1433.59375 L 813.710938 1439.0625 M 813.710938 1439.0625 L 813.28125 1444.53125 M 813.28125 1444.53125 L 812.8125 1450 " transform="matrix(0.1,0,0,-0.1,0,150)"/>
</g>
<path style=" stroke:none;fill-rule:nonzero;fill:rgb(0%,0%,0%);fill-opacity:1;" d="M 4.6875 144.375 L -6.480469 149.957031 L -6.886719 148.59375 L -7.523438 151.261719 L -5.007812 152.351562 L -5.855469 151.210938 L 5.3125 145.625 L 4.6875 144.375 "/>
<path style=" stroke:none;fill-rule:nonzero;fill:rgb(0%,0%,0%);fill-opacity:1;" d="M 4.652344 126.890625 L -6.1875 133.085938 L -6.667969 131.75 L -7.15625 134.445312 L -4.582031 135.394531 L -5.492188 134.300781 L 5.347656 128.109375 L 4.652344 126.890625 "/>
<path style=" stroke:none;fill-rule:nonzero;fill:rgb(0%,0%,0%);fill-opacity:1;" d="M 4.613281 109.417969 L -5.777344 116.34375 L -6.347656 115.039062 L -6.648438 117.765625 L -4.019531 118.535156 L -5 117.507812 L 5.386719 110.582031 L 4.613281 109.417969 "/>
<path style=" stroke:none;fill-rule:nonzero;fill:rgb(0%,0%,0%);fill-opacity:1;" d="M 4.5625 91.953125 L -5.1875 99.753906 L -5.867188 98.503906 L -5.933594 101.246094 L -3.242188 101.785156 L -4.3125 100.84375 L 5.4375 93.046875 L 4.5625 91.953125 "/>
<path style=" stroke:none;fill-rule:nonzero;fill:rgb(0%,0%,0%);fill-opacity:1;" d="M 4.503906 74.503906 L -4.324219 83.332031 L -5.136719 82.167969 L -4.898438 84.898438 L -2.167969 85.136719 L -3.332031 84.324219 L 5.496094 75.496094 L 4.503906 74.503906 "/>
<path style=" stroke:none;fill-rule:nonzero;fill:rgb(0%,0%,0%);fill-opacity:1;" d="M 4.441406 57.082031 L -3.050781 67.066406 L -4.023438 66.03125 L -3.398438 68.699219 L -0.664062 68.550781 L -1.929688 67.90625 L 5.558594 57.917969 L 4.441406 57.082031 "/>
<path style=" stroke:none;fill-rule:nonzero;fill:rgb(0%,0%,0%);fill-opacity:1;" d="M 4.375 39.6875 L -1.210938 50.851562 L -2.351562 50.007812 L -1.261719 52.523438 L 1.40625 51.886719 L 0.0429688 51.480469 L 5.625 40.3125 L 4.375 39.6875 "/>
<path style=" stroke:none;fill-rule:nonzero;fill:rgb(0%,0%,0%);fill-opacity:1;" d="M 4.320312 22.328125 L 1.292969 34.441406 L -0.00390625 33.863281 L 1.605469 36.082031 L 4.070312 34.882812 L 2.652344 34.78125 L 5.679688 22.671875 L 4.320312 22.328125 "/>
<path style=" stroke:none;fill-rule:nonzero;fill:rgb(0%,0%,0%);fill-opacity:1;" d="M 4.300781 5 L 4.300781 17.484375 L 2.898438 17.238281 L 5 19 L 7.101562 17.238281 L 5.699219 17.484375 L 5.699219 5 L 4.300781 5 "/>
<path style=" stroke:none;fill-rule:nonzero;fill:rgb(0%,0%,0%);fill-opacity:1;" d="M 22.222656 144.355469 L 10.75 149.273438 L 10.425781 147.890625 L 9.632812 150.515625 L 12.078125 151.75 L 11.300781 150.5625 L 22.777344 145.644531 L 22.222656 144.355469 "/>
<path style=" stroke:none;fill-rule:nonzero;fill:rgb(0%,0%,0%);fill-opacity:1;" d="M 22.1875 126.875 L 11.019531 132.457031 L 10.613281 131.09375 L 9.976562 133.761719 L 12.492188 134.851562 L 11.648438 133.710938 L 22.8125 128.125 L 22.1875 126.875 "/>
<path style=" stroke:none;fill-rule:nonzero;fill:rgb(0%,0%,0%);fill-opacity:1;" d="M 22.140625 109.398438 L 11.433594 115.824219 L 10.925781 114.496094 L 10.496094 117.203125 L 13.085938 118.097656 L 12.15625 117.023438 L 22.859375 110.601562 L 22.140625 109.398438 "/>
<path style=" stroke:none;fill-rule:nonzero;fill:rgb(0%,0%,0%);fill-opacity:1;" d="M 22.082031 91.941406 L 12.09375 99.429688 L 11.449219 98.164062 L 11.300781 100.898438 L 13.96875 101.523438 L 12.933594 100.550781 L 22.917969 93.058594 L 22.082031 91.941406 "/>
<path style=" stroke:none;fill-rule:nonzero;fill:rgb(0%,0%,0%);fill-opacity:1;" d="M 22.003906 74.503906 L 13.175781 83.332031 L 12.363281 82.167969 L 12.601562 84.898438 L 15.332031 85.136719 L 14.167969 84.324219 L 22.996094 75.496094 L 22.003906 74.503906 "/>
<path style=" stroke:none;fill-rule:nonzero;fill:rgb(0%,0%,0%);fill-opacity:1;" d="M 21.917969 57.113281 L 15.757812 66.351562 L 14.730469 65.367188 L 15.5 68 L 18.222656 67.699219 L 16.921875 67.128906 L 23.082031 57.886719 L 21.917969 57.113281 "/>
<path style=" stroke:none;fill-rule:nonzero;fill:rgb(0%,0%,0%);fill-opacity:1;" d="M 21.835938 39.777344 L 18.816406 48.839844 L 17.566406 48.164062 L 19 50.5 L 21.550781 49.492188 L 20.144531 49.285156 L 23.164062 40.222656 L 21.835938 39.777344 "/>
<path style=" stroke:none;fill-rule:nonzero;fill:rgb(0%,0%,0%);fill-opacity:1;" d="M 21.800781 22.5 L 21.800781 31.484375 L 20.398438 31.238281 L 22.5 33 L 24.601562 31.238281 L 23.199219 31.484375 L 23.199219 22.5 L 21.800781 22.5 "/>
<path style=" stroke:none;fill-rule:nonzero;fill:rgb(0%,0%,0%);fill-opacity:1;" d="M 21.835938 5.222656 L 24.855469 14.285156 L 23.449219 14.492188 L 26 15.5 L 27.433594 13.164062 L 26.183594 13.839844 L 23.164062 4.777344 L 21.835938 5.222656 "/>
<path style=" stroke:none;fill-rule:nonzero;fill:rgb(0%,0%,0%);fill-opacity:1;" d="M 39.777344 144.335938 L 27.933594 148.285156 L 27.726562 146.878906 L 26.71875 149.425781 L 29.054688 150.863281 L 28.378906 149.613281 L 40.222656 145.664062 L 39.777344 144.335938 "/>
<path style=" stroke:none;fill-rule:nonzero;fill:rgb(0%,0%,0%);fill-opacity:1;" d="M 39.738281 126.851562 L 28.148438 131.488281 L 27.855469 130.09375 L 27 132.699219 L 29.417969 133.996094 L 28.667969 132.785156 L 40.261719 128.148438 L 39.738281 126.851562 "/>
<path style=" stroke:none;fill-rule:nonzero;fill:rgb(0%,0%,0%);fill-opacity:1;" d="M 39.6875 109.375 L 28.519531 114.957031 L 28.113281 113.59375 L 27.476562 116.261719 L 29.992188 117.351562 L 29.148438 116.210938 L 40.3125 110.625 L 39.6875 109.375 "/>
<path style=" stroke:none;fill-rule:nonzero;fill:rgb(0%,0%,0%);fill-opacity:1;" d="M 39.613281 91.917969 L 30.371094 98.078125 L 29.800781 96.777344 L 29.5 99.5 L 32.132812 100.269531 L 31.148438 99.242188 L 40.386719 93.082031 L 39.613281 91.917969 "/>
<path style=" stroke:none;fill-rule:nonzero;fill:rgb(0%,0%,0%);fill-opacity:1;" d="M 39.503906 74.503906 L 33.578125 80.433594 L 32.761719 79.269531 L 33 82 L 35.730469 82.238281 L 34.566406 81.421875 L 40.496094 75.496094 L 39.503906 74.503906 "/>
<path style=" stroke:none;fill-rule:nonzero;fill:rgb(0%,0%,0%);fill-opacity:1;" d="M 39.375 57.1875 L 36.550781 62.832031 L 35.410156 61.984375 L 36.5 64.5 L 39.167969 63.863281 L 37.804688 63.457031 L 40.625 57.8125 L 39.375 57.1875 "/>
<path style=" stroke:none;fill-rule:nonzero;fill:rgb(0%,0%,0%);fill-opacity:1;" d="M 39.300781 40 L 39.300781 45.484375 L 37.898438 45.238281 L 40 47 L 42.101562 45.238281 L 40.699219 45.484375 L 40.699219 40 L 39.300781 40 "/>
<path style=" stroke:none;fill-rule:nonzero;fill:rgb(0%,0%,0%);fill-opacity:1;" d="M 39.375 22.8125 L 42.195312 28.457031 L 40.832031 28.863281 L 43.5 29.5 L 44.589844 26.984375 L 43.449219 27.832031 L 40.625 22.1875 L 39.375 22.8125 "/>
<path style=" stroke:none;fill-rule:nonzero;fill:rgb(0%,0%,0%);fill-opacity:1;" d="M 39.503906 5.496094 L 45.433594 11.421875 L 44.269531 12.238281 L 47 12 L 47.238281 9.269531 L 46.421875 10.433594 L 40.496094 4.503906 L 39.503906 5.496094 "/>
<path style=" stroke:none;fill-rule:nonzero;fill:rgb(0%,0%,0%);fill-opacity:1;" d="M 57.363281 144.3125 L 45.121094 146.761719 L 45.089844 145.339844 L 43.773438 147.746094 L 45.910156 149.460938 L 45.394531 148.136719 L 57.636719 145.6875 L 57.363281 144.3125 "/>
<path style=" stroke:none;fill-rule:nonzero;fill:rgb(0%,0%,0%);fill-opacity:1;" d="M 57.332031 126.820312 L 45.21875 129.847656 L 45.117188 128.429688 L 43.917969 130.894531 L 46.136719 132.503906 L 45.558594 131.207031 L 57.667969 128.179688 L 57.332031 126.820312 "/>
<path style=" stroke:none;fill-rule:nonzero;fill:rgb(0%,0%,0%);fill-opacity:1;" d="M 57.277344 109.335938 L 48.214844 112.355469 L 48.007812 110.949219 L 47 113.5 L 49.335938 114.933594 L 48.660156 113.683594 L 57.722656 110.664062 L 57.277344 109.335938 "/>
<path style=" stroke:none;fill-rule:nonzero;fill:rgb(0%,0%,0%);fill-opacity:1;" d="M 57.1875 91.875 L 51.542969 94.695312 L 51.136719 93.332031 L 50.5 96 L 53.015625 97.089844 L 52.167969 95.949219 L 57.8125 93.125 L 57.1875 91.875 "/>
<path style=" stroke:none;fill-rule:nonzero;fill:rgb(0%,0%,0%);fill-opacity:1;" d="M 57.003906 74.503906 L 54.578125 76.933594 L 53.761719 75.769531 L 54 78.5 L 56.730469 78.738281 L 55.566406 77.921875 L 57.996094 75.496094 L 57.003906 74.503906 "/>
<path style=" stroke:none;fill-rule:nonzero;fill:rgb(0%,0%,0%);fill-opacity:1;" d="M 56.800781 57.5 L 56.800781 59.484375 L 55.398438 59.238281 L 57.5 61 L 59.601562 59.238281 L 58.199219 59.484375 L 58.199219 57.5 L 56.800781 57.5 "/>
<path style=" stroke:none;fill-rule:nonzero;fill:rgb(0%,0%,0%);fill-opacity:1;" d="M 57.003906 40.496094 L 59.433594 42.921875 L 58.269531 43.738281 L 61 43.5 L 61.238281 40.769531 L 60.421875 41.933594 L 57.996094 39.503906 L 57.003906 40.496094 "/>
<path style=" stroke:none;fill-rule:nonzero;fill:rgb(0%,0%,0%);fill-opacity:1;" d="M 57.1875 23.125 L 62.832031 25.949219 L 61.984375 27.089844 L 64.5 26 L 63.863281 23.335938 L 63.457031 24.695312 L 57.8125 21.875 L 57.1875 23.125 "/>
<path style=" stroke:none;fill-rule:nonzero;fill:rgb(0%,0%,0%);fill-opacity:1;" d="M 57.277344 5.664062 L 66.339844 8.683594 L 65.664062 9.933594 L 68 8.5 L 66.992188 5.949219 L 66.785156 7.355469 L 57.722656 4.335938 L 57.277344 5.664062 "/>
<path style=" stroke:none;fill-rule:nonzero;fill:rgb(0%,0%,0%);fill-opacity:1;" d="M 75 144.300781 L 62.515625 144.300781 L 62.761719 142.898438 L 61 145 L 62.761719 147.101562 L 62.515625 145.699219 L 75 145.699219 L 75 144.300781 "/>
<path style=" stroke:none;fill-rule:nonzero;fill:rgb(0%,0%,0%);fill-opacity:1;" d="M 75 126.800781 L 66.015625 126.800781 L 66.261719 125.398438 L 64.5 127.5 L 66.261719 129.601562 L 66.015625 128.199219 L 75 128.199219 L 75 126.800781 "/>
<path style=" stroke:none;fill-rule:nonzero;fill:rgb(0%,0%,0%);fill-opacity:1;" d="M 75 109.300781 L 69.515625 109.300781 L 69.761719 107.898438 L 68 110 L 69.761719 112.101562 L 69.515625 110.699219 L 75 110.699219 L 75 109.300781 "/>
<path style=" stroke:none;fill-rule:nonzero;fill:rgb(0%,0%,0%);fill-opacity:1;" d="M 75 91.800781 L 73.015625 91.800781 L 73.261719 90.398438 L 71.5 92.5 L 73.261719 94.601562 L 73.015625 93.199219 L 75 93.199219 L 75 91.800781 "/>
<path style=" stroke:none;fill-rule:nonzero;fill:rgb(0%,0%,0%);fill-opacity:1;" d="M 75 58.199219 L 76.984375 58.199219 L 76.738281 59.601562 L 78.5 57.5 L 76.738281 55.398438 L 76.984375 56.800781 L 75 56.800781 L 75 58.199219 "/>
<path style=" stroke:none;fill-rule:nonzero;fill:rgb(0%,0%,0%);fill-opacity:1;" d="M 75 40.699219 L 80.484375 40.699219 L 80.238281 42.101562 L 82 40 L 80.238281 37.898438 L 80.484375 39.300781 L 75 39.300781 L 75 40.699219 "/>
<path style=" stroke:none;fill-rule:nonzero;fill:rgb(0%,0%,0%);fill-opacity:1;" d="M 75 23.199219 L 83.984375 23.199219 L 83.738281 24.601562 L 85.5 22.5 L 83.738281 20.398438 L 83.984375 21.800781 L 75 21.800781 L 75 23.199219 "/>
<path style=" stroke:none;fill-rule:nonzero;fill:rgb(0%,0%,0%);fill-opacity:1;" d="M 75 5.699219 L 87.484375 5.699219 L 87.238281 7.101562 L 89 5 L 87.238281 2.898438 L 87.484375 4.300781 L 75 4.300781 L 75 5.699219 "/>
<path style=" stroke:none;fill-rule:nonzero;fill:rgb(0%,0%,0%);fill-opacity:1;" d="M 92.722656 144.335938 L 83.660156 141.316406 L 84.335938 140.066406 L 82 141.5 L 83.007812 144.050781 L 83.214844 142.644531 L 92.277344 145.664062 L 92.722656 144.335938 "/>
<path style=" stroke:none;fill-rule:nonzero;fill:rgb(0%,0%,0%);fill-opacity:1;" d="M 92.8125 126.875 L 87.167969 124.050781 L 88.015625 122.910156 L 85.5 124 L 86.136719 126.667969 L 86.542969 125.304688 L 92.1875 128.125 L 92.8125 126.875 "/>
<path style=" stroke:none;fill-rule:nonzero;fill:rgb(0%,0%,0%);fill-opacity:1;" d="M 92.996094 109.503906 L 90.566406 107.078125 L 91.730469 106.261719 L 89 106.5 L 88.761719 109.230469 L 89.578125 108.066406 L 92.003906 110.496094 L 92.996094 109.503906 "/>
<path style=" stroke:none;fill-rule:nonzero;fill:rgb(0%,0%,0%);fill-opacity:1;" d="M 93.199219 92.5 L 93.199219 90.515625 L 94.601562 90.761719 L 92.5 89 L 90.398438 90.761719 L 91.800781 90.515625 L 91.800781 92.5 L 93.199219 92.5 "/>
<path style=" stroke:none;fill-rule:nonzero;fill:rgb(0%,0%,0%);fill-opacity:1;" d="M 92.996094 75.496094 L 95.421875 73.066406 L 96.238281 74.230469 L 96 71.5 L 93.269531 71.261719 L 94.433594 72.078125 L 92.003906 74.503906 L 92.996094 75.496094 "/>
<path style=" stroke:none;fill-rule:nonzero;fill:rgb(0%,0%,0%);fill-opacity:1;" d="M 92.8125 58.125 L 98.457031 55.304688 L 98.863281 56.667969 L 99.5 54 L 96.984375 52.910156 L 97.832031 54.050781 L 92.1875 56.875 L 92.8125 58.125 "/>
<path style=" stroke:none;fill-rule:nonzero;fill:rgb(0%,0%,0%);fill-opacity:1;" d="M 92.722656 40.664062 L 101.785156 37.644531 L 101.992188 39.050781 L 103 36.5 L 100.664062 35.066406 L 101.339844 36.316406 L 92.277344 39.335938 L 92.722656 40.664062 "/>
<path style=" stroke:none;fill-rule:nonzero;fill:rgb(0%,0%,0%);fill-opacity:1;" d="M 92.667969 23.179688 L 104.78125 20.152344 L 104.882812 21.570312 L 106.082031 19.105469 L 103.863281 17.496094 L 104.441406 18.792969 L 92.332031 21.820312 L 92.667969 23.179688 "/>
<path style=" stroke:none;fill-rule:nonzero;fill:rgb(0%,0%,0%);fill-opacity:1;" d="M 92.636719 5.6875 L 104.878906 3.238281 L 104.910156 4.660156 L 106.226562 2.253906 L 104.089844 0.539062 L 104.605469 1.863281 L 92.363281 4.3125 L 92.636719 5.6875 "/>
<path style=" stroke:none;fill-rule:nonzero;fill:rgb(0%,0%,0%);fill-opacity:1;" d="M 110.496094 144.503906 L 104.566406 138.578125 L 105.730469 137.761719 L 103 138 L 102.761719 140.730469 L 103.578125 139.566406 L 109.503906 145.496094 L 110.496094 144.503906 "/>
<path style=" stroke:none;fill-rule:nonzero;fill:rgb(0%,0%,0%);fill-opacity:1;" d="M 110.625 127.1875 L 107.804688 121.542969 L 109.164062 121.136719 L 106.5 120.5 L 105.410156 123.015625 L 106.550781 122.167969 L 109.375 127.8125 L 110.625 127.1875 "/>
<path style=" stroke:none;fill-rule:nonzero;fill:rgb(0%,0%,0%);fill-opacity:1;" d="M 110.699219 110 L 110.699219 104.515625 L 112.101562 104.761719 L 110 103 L 107.898438 104.761719 L 109.300781 104.515625 L 109.300781 110 L 110.699219 110 "/>
<path style=" stroke:none;fill-rule:nonzero;fill:rgb(0%,0%,0%);fill-opacity:1;" d="M 110.625 92.8125 L 113.449219 87.167969 L 114.589844 88.015625 L 113.5 85.5 L 110.835938 86.136719 L 112.195312 86.542969 L 109.375 92.1875 L 110.625 92.8125 "/>
<path style=" stroke:none;fill-rule:nonzero;fill:rgb(0%,0%,0%);fill-opacity:1;" d="M 110.496094 75.496094 L 116.421875 69.566406 L 117.238281 70.730469 L 117 68 L 114.269531 67.761719 L 115.433594 68.578125 L 109.503906 74.503906 L 110.496094 75.496094 "/>
<path style=" stroke:none;fill-rule:nonzero;fill:rgb(0%,0%,0%);fill-opacity:1;" d="M 110.386719 58.082031 L 119.628906 51.921875 L 120.199219 53.222656 L 120.5 50.5 L 117.867188 49.730469 L 118.851562 50.757812 L 109.613281 56.917969 L 110.386719 58.082031 "/>
<path style=" stroke:none;fill-rule:nonzero;fill:rgb(0%,0%,0%);fill-opacity:1;" d="M 110.3125 40.625 L 121.480469 35.042969 L 121.886719 36.40625 L 122.523438 33.738281 L 120.007812 32.648438 L 120.855469 33.789062 L 109.6875 39.375 L 110.3125 40.625 "/>
<path style=" stroke:none;fill-rule:nonzero;fill:rgb(0%,0%,0%);fill-opacity:1;" d="M 110.261719 23.148438 L 121.851562 18.511719 L 122.144531 19.90625 L 123 17.300781 L 120.582031 16.003906 L 121.332031 17.214844 L 109.738281 21.851562 L 110.261719 23.148438 "/>
<path style=" stroke:none;fill-rule:nonzero;fill:rgb(0%,0%,0%);fill-opacity:1;" d="M 110.222656 5.664062 L 122.066406 1.714844 L 122.273438 3.121094 L 123.28125 0.574219 L 120.945312 -0.863281 L 121.621094 0.386719 L 109.777344 4.335938 L 110.222656 5.664062 "/>
<path style=" stroke:none;fill-rule:nonzero;fill:rgb(0%,0%,0%);fill-opacity:1;" d="M 128.164062 144.777344 L 125.144531 135.714844 L 126.550781 135.507812 L 124 134.5 L 122.566406 136.835938 L 123.816406 136.160156 L 126.835938 145.222656 L 128.164062 144.777344 "/>
<path style=" stroke:none;fill-rule:nonzero;fill:rgb(0%,0%,0%);fill-opacity:1;" d="M 128.199219 127.5 L 128.199219 118.515625 L 129.601562 118.761719 L 127.5 117 L 125.398438 118.761719 L 126.800781 118.515625 L 126.800781 127.5 L 128.199219 127.5 "/>
<path style=" stroke:none;fill-rule:nonzero;fill:rgb(0%,0%,0%);fill-opacity:1;" d="M 128.164062 110.222656 L 131.183594 101.160156 L 132.433594 101.835938 L 131 99.5 L 128.449219 100.507812 L 129.855469 100.714844 L 126.835938 109.777344 L 128.164062 110.222656 "/>
<path style=" stroke:none;fill-rule:nonzero;fill:rgb(0%,0%,0%);fill-opacity:1;" d="M 128.082031 92.886719 L 134.242188 83.648438 L 135.269531 84.632812 L 134.5 82 L 131.773438 82.300781 L 133.078125 82.871094 L 126.917969 92.113281 L 128.082031 92.886719 "/>
<path style=" stroke:none;fill-rule:nonzero;fill:rgb(0%,0%,0%);fill-opacity:1;" d="M 127.996094 75.496094 L 136.824219 66.667969 L 137.636719 67.832031 L 137.398438 65.101562 L 134.667969 64.863281 L 135.832031 65.675781 L 127.003906 74.503906 L 127.996094 75.496094 "/>
<path style=" stroke:none;fill-rule:nonzero;fill:rgb(0%,0%,0%);fill-opacity:1;" d="M 127.921875 58.058594 L 137.90625 50.570312 L 138.550781 51.835938 L 138.699219 49.101562 L 136.03125 48.476562 L 137.066406 49.449219 L 127.078125 56.941406 L 127.921875 58.058594 "/>
<path style=" stroke:none;fill-rule:nonzero;fill:rgb(0%,0%,0%);fill-opacity:1;" d="M 127.859375 40.601562 L 138.566406 34.175781 L 139.074219 35.503906 L 139.503906 32.796875 L 136.914062 31.902344 L 137.84375 32.976562 L 127.140625 39.398438 L 127.859375 40.601562 "/>
<path style=" stroke:none;fill-rule:nonzero;fill:rgb(0%,0%,0%);fill-opacity:1;" d="M 127.8125 23.125 L 138.980469 17.542969 L 139.386719 18.90625 L 140.023438 16.238281 L 137.507812 15.148438 L 138.355469 16.289062 L 127.1875 21.875 L 127.8125 23.125 "/>
<path style=" stroke:none;fill-rule:nonzero;fill:rgb(0%,0%,0%);fill-opacity:1;" d="M 127.777344 5.644531 L 139.25 0.726562 L 139.574219 2.109375 L 140.367188 -0.515625 L 137.921875 -1.75 L 138.699219 -0.5625 L 127.222656 4.355469 L 127.777344 5.644531 "/>
<path style=" stroke:none;fill-rule:nonzero;fill:rgb(0%,0%,0%);fill-opacity:1;" d="M 145.699219 145 L 145.699219 132.515625 L 147.101562 132.761719 L 145 131 L 142.898438 132.761719 L 144.300781 132.515625 L 144.300781 145 L 145.699219 145 "/>
<path style=" stroke:none;fill-rule:nonzero;fill:rgb(0%,0%,0%);fill-opacity:1;" d="M 145.679688 127.667969 L 148.707031 115.558594 L 150.003906 116.136719 L 148.394531 113.917969 L 145.929688 115.117188 L 147.347656 115.21875 L 144.320312 127.332031 L 145.679688 127.667969 "/>
<path style=" stroke:none;fill-rule:nonzero;fill:rgb(0%,0%,0%);fill-opacity:1;" d="M 145.625 110.3125 L 151.210938 99.148438 L 152.351562 99.992188 L 151.261719 97.476562 L 148.59375 98.113281 L 149.957031 98.519531 L 144.375 109.6875 L 145.625 110.3125 "/>
<path style=" stroke:none;fill-rule:nonzero;fill:rgb(0%,0%,0%);fill-opacity:1;" d="M 145.558594 92.917969 L 153.050781 82.933594 L 154.023438 83.96875 L 153.398438 81.300781 L 150.664062 81.449219 L 151.929688 82.09375 L 144.441406 92.082031 L 145.558594 92.917969 "/>
<path style=" stroke:none;fill-rule:nonzero;fill:rgb(0%,0%,0%);fill-opacity:1;" d="M 145.496094 75.496094 L 154.324219 66.667969 L 155.136719 67.832031 L 154.898438 65.101562 L 152.167969 64.863281 L 153.332031 65.675781 L 144.503906 74.503906 L 145.496094 75.496094 "/>
<path style=" stroke:none;fill-rule:nonzero;fill:rgb(0%,0%,0%);fill-opacity:1;" d="M 145.4375 58.046875 L 155.1875 50.246094 L 155.867188 51.496094 L 155.933594 48.753906 L 153.242188 48.214844 L 154.3125 49.152344 L 144.5625 56.953125 L 145.4375 58.046875 "/>
<path style=" stroke:none;fill-rule:nonzero;fill:rgb(0%,0%,0%);fill-opacity:1;" d="M 145.386719 40.582031 L 155.777344 33.65625 L 156.347656 34.960938 L 156.648438 32.234375 L 154.019531 31.464844 L 155 32.492188 L 144.613281 39.417969 L 145.386719 40.582031 "/>
<path style=" stroke:none;fill-rule:nonzero;fill:rgb(0%,0%,0%);fill-opacity:1;" d="M 145.347656 23.109375 L 156.1875 16.914062 L 156.667969 18.253906 L 157.15625 15.554688 L 154.585938 14.605469 L 155.492188 15.699219 L 144.652344 21.890625 L 145.347656 23.109375 "/>
<path style=" stroke:none;fill-rule:nonzero;fill:rgb(0%,0%,0%);fill-opacity:1;" d="M 145.3125 5.625 L 156.480469 0.0429688 L 156.886719 1.40625 L 157.523438 -1.261719 L 155.007812 -2.351562 L 155.855469 -1.210938 L 144.6875 4.375 L 145.3125 5.625 "/>
<path style=" stroke:none;fill-rule:nonzero;fill:rgb(100%,0%,0%);fill-opacity:1;" d="M 25 57.5 C 25 56.117188 23.882812 55 22.5 55 C 21.117188 55 20 56.117188 20 57.5 C 20 58.882812 21.117188 60 22.5 60 C 23.882812 60 25 58.882812 25 57.5 "/>
<path style="fill:none;stroke-width:10;stroke-linecap:butt;stroke-linejoin:miter;stroke:rgb(0%,0%,0%);stroke-opacity:1;stroke-miterlimit:10;" d="M 250 925 C 250 938.828125 238.828125 950 225 950 C 211.171875 950 200 938.828125 200 925 C 200 911.171875 211.171875 900 225 900 C 238.828125 900 250 911.171875 250 925 Z M 250 925 " transform="matrix(0.1,0,0,-0.1,0,150)"/>
<path style=" stroke:none;fill-rule:nonzero;fill:rgb(100%,0%,0%);fill-opacity:1;" d="M 77.5 127.5 C 77.5 126.117188 76.382812 125 75 125 C 73.617188 125 72.5 126.117188 72.5 127.5 C 72.5 128.882812 73.617188 130 75 130 C 76.382812 130 77.5 128.882812 77.5 127.5 "/>
<path style="fill:none;stroke-width:10;stroke-linecap:butt;stroke-linejoin:miter;stroke:rgb(0%,0%,0%);stroke-opacity:1;stroke-miterlimit:10;" d="M 775 225 C 775 238.828125 763.828125 250 750 250 C 736.171875 250 725 238.828125 725 225 C 725 211.171875 736.171875 200 750 200 C 763.828125 200 775 211.171875 775 225 Z M 775 225 " transform="matrix(0.1,0,0,-0.1,0,150)"/>
<path style=" stroke:none;fill-rule:nonzero;fill:rgb(100%,0%,0%);fill-opacity:1;" d="M 130 75 C 130 73.617188 128.882812 72.5 127.5 72.5 C 126.117188 72.5 125 73.617188 125 75 C 125 76.382812 126.117188 77.5 127.5 77.5 C 128.882812 77.5 130 76.382812 130 75 "/>
<path style="fill:none;stroke-width:10;stroke-linecap:butt;stroke-linejoin:miter;stroke:rgb(0%,0%,0%);stroke-opacity:1;stroke-miterlimit:10;" d="M 1300 750 C 1300 763.828125 1288.828125 775 1275 775 C 1261.171875 775 1250 763.828125 1250 750 C 1250 736.171875 1261.171875 725 1275 725 C 1288.828125 725 1300 736.171875 1300 750 Z M 1300 750 " transform="matrix(0.1,0,0,-0.1,0,150)"/>
</g>
</svg>
