<?xml version="1.0" encoding="UTF-8"?>
<svg xmlns="http://www.w3.org/2000/svg" xmlns:xlink="http://www.w3.org/1999/xlink" width="555pt" height="555pt" viewBox="0 0 555 555" version="1.1">
<defs>
<clipPath id="clip1">
  <path d="M 12 255 L 22 255 L 22 267.785156 L 12 267.785156 Z M 12 255 "/>
</clipPath>
</defs>
<g id="surface1">
<rect x="0" y="0" width="555" height="555" style="fill:rgb(100%,100%,100%);fill-opacity:1;stroke:none;"/>
<path style="fill:none;stroke-width:13.875;stroke-linecap:square;stroke-linejoin:miter;stroke:rgb(100%,0%,0%);stroke-opacity:1;stroke-miterlimit:10;" d="M 3789.921875 4574.648438 C 3789.921875 4547.8125 3768.164062 4526.054688 3741.367188 4526.054688 C 3714.53125 4526.054688 3692.773438 4547.8125 3692.773438 4574.648438 C 3692.773438 4601.445312 3714.53125 4623.203125 3741.367188 4623.203125 C 3768.164062 4623.203125 3789.921875 4601.445312 3789.921875 4574.648438 Z M 3789.921875 4574.648438 " transform="matrix(0.1,0,0,-0.1,0,555)"/>
<path style=" stroke:none;fill-rule:nonzero;fill:rgb(100%,0%,0%);fill-opacity:1;" d="M 378.992188 97.535156 C 378.992188 100.21875 376.816406 102.394531 374.136719 102.394531 C 371.453125 102.394531 369.277344 100.21875 369.277344 97.535156 C 369.277344 94.855469 371.453125 92.679688 374.136719 92.679688 C 376.816406 92.679688 378.992188 94.855469 378.992188 97.535156 "/>
<path style="fill:none;stroke-width:13.875;stroke-linecap:square;stroke-linejoin:miter;stroke:rgb(100%,0%,0%);stroke-opacity:1;stroke-miterlimit:10;" d="M 3852.539062 4012.1875 C 3852.539062 3985.351562 3830.78125 3963.632812 3803.984375 3963.632812 C 3777.148438 3963.632812 3755.390625 3985.351562 3755.390625 4012.1875 C 3755.390625 4039.023438 3777.148438 4060.742188 3803.984375 4060.742188 C 3830.78125 4060.742188 3852.539062 4039.023438 3852.539062 4012.1875 Z M 3852.539062 4012.1875 " transform="matrix(0.1,0,0,-0.1,0,555)"/>
<path style=" stroke:none;fill-rule:nonzero;fill:rgb(100%,0%,0%);fill-opacity:1;" d="M 385.253906 153.78125 C 385.253906 156.464844 383.078125 158.636719 380.398438 158.636719 C 377.714844 158.636719 375.539062 156.464844 375.539062 153.78125 C 375.539062 151.097656 377.714844 148.925781 380.398438 148.925781 C 383.078125 148.925781 385.253906 151.097656 385.253906 153.78125 "/>
<path style="fill:none;stroke-width:13.875;stroke-linecap:square;stroke-linejoin:miter;stroke:rgb(100%,0%,0%);stroke-opacity:1;stroke-miterlimit:10;" d="M 2913.203125 3401.875 C 2913.203125 3375.078125 2891.484375 3353.320312 2864.648438 3353.320312 C 2837.851562 3353.320312 2816.09375 3375.078125 2816.09375 3401.875 C 2816.09375 3428.710938 2837.851562 3450.46875 2864.648438 3450.46875 C 2891.484375 3450.46875 2913.203125 3428.710938 2913.203125 3401.875 Z M 2913.203125 3401.875 " transform="matrix(0.1,0,0,-0.1,0,555)"/>
<path style=" stroke:none;fill-rule:nonzero;fill:rgb(100%,0%,0%);fill-opacity:1;" d="M 291.320312 214.8125 C 291.320312 217.492188 289.148438 219.667969 286.464844 219.667969 C 283.785156 219.667969 281.609375 217.492188 281.609375 214.8125 C 281.609375 212.128906 283.785156 209.953125 286.464844 209.953125 C 289.148438 209.953125 291.320312 212.128906 291.320312 214.8125 "/>
<path style="fill:none;stroke-width:13.875;stroke-linecap:square;stroke-linejoin:miter;stroke:rgb(100%,0%,0%);stroke-opacity:1;stroke-miterlimit:10;" d="M 2944.53125 3222.382812 C 2944.53125 3195.585938 2922.8125 3173.828125 2895.976562 3173.828125 C 2869.140625 3173.828125 2847.421875 3195.585938 2847.421875 3222.382812 C 2847.421875 3249.21875 2869.140625 3270.9375 2895.976562 3270.9375 C 2922.8125 3270.9375 2944.53125 3249.21875 2944.53125 3222.382812 Z M 2944.53125 3222.382812 " transform="matrix(0.1,0,0,-0.1,0,555)"/>
<path style=" stroke:none;fill-rule:nonzero;fill:rgb(100%,0%,0%);fill-opacity:1;" d="M 294.453125 232.761719 C 294.453125 235.441406 292.28125 237.617188 289.597656 237.617188 C 286.914062 237.617188 284.742188 235.441406 284.742188 232.761719 C 284.742188 230.078125 286.914062 227.90625 289.597656 227.90625 C 292.28125 227.90625 294.453125 230.078125 294.453125 232.761719 "/>
<path style="fill:none;stroke-width:13.875;stroke-linecap:square;stroke-linejoin:miter;stroke:rgb(100%,0%,0%);stroke-opacity:1;stroke-miterlimit:10;" d="M 2975.859375 3294.179688 C 2975.859375 3267.382812 2954.101562 3245.625 2927.265625 3245.625 C 2900.46875 3245.625 2878.710938 3267.382812 2878.710938 3294.179688 C 2878.710938 3321.015625 2900.46875 3342.734375 2927.265625 3342.734375 C 2954.101562 3342.734375 2975.859375 3321.015625 2975.859375 3294.179688 Z M 2975.859375 3294.179688 " transform="matrix(0.1,0,0,-0.1,0,555)"/>
<path style=" stroke:none;fill-rule:nonzero;fill:rgb(100%,0%,0%);fill-opacity:1;" d="M 297.585938 225.582031 C 297.585938 228.261719 295.410156 230.4375 292.726562 230.4375 C 290.046875 230.4375 287.871094 228.261719 287.871094 225.582031 C 287.871094 222.898438 290.046875 220.726562 292.726562 220.726562 C 295.410156 220.726562 297.585938 222.898438 297.585938 225.582031 "/>
<path style="fill:none;stroke-width:13.875;stroke-linecap:square;stroke-linejoin:miter;stroke:rgb(100%,0%,0%);stroke-opacity:1;stroke-miterlimit:10;" d="M 2944.53125 3054.84375 C 2944.53125 3028.046875 2922.8125 3006.289062 2895.976562 3006.289062 C 2869.140625 3006.289062 2847.421875 3028.046875 2847.421875 3054.84375 C 2847.421875 3081.679688 2869.140625 3103.4375 2895.976562 3103.4375 C 2922.8125 3103.4375 2944.53125 3081.679688 2944.53125 3054.84375 Z M 2944.53125 3054.84375 " transform="matrix(0.1,0,0,-0.1,0,555)"/>
<path style=" stroke:none;fill-rule:nonzero;fill:rgb(100%,0%,0%);fill-opacity:1;" d="M 294.453125 249.515625 C 294.453125 252.195312 292.28125 254.371094 289.597656 254.371094 C 286.914062 254.371094 284.742188 252.195312 284.742188 249.515625 C 284.742188 246.832031 286.914062 244.65625 289.597656 244.65625 C 292.28125 244.65625 294.453125 246.832031 294.453125 249.515625 "/>
<path style="fill:none;stroke-width:13.875;stroke-linecap:square;stroke-linejoin:miter;stroke:rgb(100%,0%,0%);stroke-opacity:1;stroke-miterlimit:10;" d="M 3351.5625 3497.617188 C 3351.5625 3470.78125 3329.804688 3449.0625 3303.007812 3449.0625 C 3276.171875 3449.0625 3254.453125 3470.78125 3254.453125 3497.617188 C 3254.453125 3524.453125 3276.171875 3546.171875 3303.007812 3546.171875 C 3329.804688 3546.171875 3351.5625 3524.453125 3351.5625 3497.617188 Z M 3351.5625 3497.617188 " transform="matrix(0.1,0,0,-0.1,0,555)"/>
<path style=" stroke:none;fill-rule:nonzero;fill:rgb(100%,0%,0%);fill-opacity:1;" d="M 335.15625 205.238281 C 335.15625 207.921875 332.980469 210.09375 330.300781 210.09375 C 327.617188 210.09375 325.445312 207.921875 325.445312 205.238281 C 325.445312 202.554688 327.617188 200.382812 330.300781 200.382812 C 332.980469 200.382812 335.15625 202.554688 335.15625 205.238281 "/>
<path style="fill:none;stroke-width:13.875;stroke-linecap:square;stroke-linejoin:miter;stroke:rgb(100%,0%,0%);stroke-opacity:1;stroke-miterlimit:10;" d="M 2662.734375 3377.96875 C 2662.734375 3351.132812 2641.015625 3329.375 2614.179688 3329.375 C 2587.34375 3329.375 2565.625 3351.132812 2565.625 3377.96875 C 2565.625 3404.765625 2587.34375 3426.523438 2614.179688 3426.523438 C 2641.015625 3426.523438 2662.734375 3404.765625 2662.734375 3377.96875 Z M 2662.734375 3377.96875 " transform="matrix(0.1,0,0,-0.1,0,555)"/>
<path style=" stroke:none;fill-rule:nonzero;fill:rgb(100%,0%,0%);fill-opacity:1;" d="M 266.273438 217.203125 C 266.273438 219.886719 264.101562 222.0625 261.417969 222.0625 C 258.734375 222.0625 256.5625 219.886719 256.5625 217.203125 C 256.5625 214.523438 258.734375 212.347656 261.417969 212.347656 C 264.101562 212.347656 266.273438 214.523438 266.273438 217.203125 "/>
<path style="fill:none;stroke-width:13.875;stroke-linecap:square;stroke-linejoin:miter;stroke:rgb(100%,0%,0%);stroke-opacity:1;stroke-miterlimit:10;" d="M 2600.117188 3054.84375 C 2600.117188 3028.046875 2578.398438 3006.289062 2551.5625 3006.289062 C 2524.726562 3006.289062 2503.007812 3028.046875 2503.007812 3054.84375 C 2503.007812 3081.679688 2524.726562 3103.4375 2551.5625 3103.4375 C 2578.398438 3103.4375 2600.117188 3081.679688 2600.117188 3054.84375 Z M 2600.117188 3054.84375 " transform="matrix(0.1,0,0,-0.1,0,555)"/>
<path style=" stroke:none;fill-rule:nonzero;fill:rgb(100%,0%,0%);fill-opacity:1;" d="M 260.011719 249.515625 C 260.011719 252.195312 257.839844 254.371094 255.15625 254.371094 C 252.472656 254.371094 250.300781 252.195312 250.300781 249.515625 C 250.300781 246.832031 252.472656 244.65625 255.15625 244.65625 C 257.839844 244.65625 260.011719 246.832031 260.011719 249.515625 "/>
<path style="fill:none;stroke-width:13.875;stroke-linecap:square;stroke-linejoin:miter;stroke:rgb(100%,0%,0%);stroke-opacity:1;stroke-miterlimit:10;" d="M 2287.03125 2935.195312 C 2287.03125 2908.359375 2265.273438 2886.640625 2238.4375 2886.640625 C 2211.640625 2886.640625 2189.882812 2908.359375 2189.882812 2935.195312 C 2189.882812 2961.992188 2211.640625 2983.75 2238.4375 2983.75 C 2265.273438 2983.75 2287.03125 2961.992188 2287.03125 2935.195312 Z M 2287.03125 2935.195312 " transform="matrix(0.1,0,0,-0.1,0,555)"/>
<path style=" stroke:none;fill-rule:nonzero;fill:rgb(100%,0%,0%);fill-opacity:1;" d="M 228.703125 261.480469 C 228.703125 264.164062 226.527344 266.335938 223.84375 266.335938 C 221.164062 266.335938 218.988281 264.164062 218.988281 261.480469 C 218.988281 258.800781 221.164062 256.625 223.84375 256.625 C 226.527344 256.625 228.703125 258.800781 228.703125 261.480469 "/>
<path style="fill:none;stroke-width:13.875;stroke-linecap:square;stroke-linejoin:miter;stroke:rgb(100%,0%,0%);stroke-opacity:1;stroke-miterlimit:10;" d="M 2443.554688 2408.632812 C 2443.554688 2381.835938 2421.835938 2360.078125 2395 2360.078125 C 2368.164062 2360.078125 2346.445312 2381.835938 2346.445312 2408.632812 C 2346.445312 2435.46875 2368.164062 2457.226562 2395 2457.226562 C 2421.835938 2457.226562 2443.554688 2435.46875 2443.554688 2408.632812 Z M 2443.554688 2408.632812 " transform="matrix(0.1,0,0,-0.1,0,555)"/>
<path style=" stroke:none;fill-rule:nonzero;fill:rgb(100%,0%,0%);fill-opacity:1;" d="M 244.355469 314.136719 C 244.355469 316.816406 242.183594 318.992188 239.5 318.992188 C 236.816406 318.992188 234.644531 316.816406 234.644531 314.136719 C 234.644531 311.453125 236.816406 309.277344 239.5 309.277344 C 242.183594 309.277344 244.355469 311.453125 244.355469 314.136719 "/>
<path style="fill:none;stroke-width:13.875;stroke-linecap:square;stroke-linejoin:miter;stroke:rgb(100%,0%,0%);stroke-opacity:1;stroke-miterlimit:10;" d="M 2600.117188 1977.851562 C 2600.117188 1951.015625 2578.398438 1929.296875 2551.5625 1929.296875 C 2524.726562 1929.296875 2503.007812 1951.015625 2503.007812 1977.851562 C 2503.007812 2004.648438 2524.726562 2026.40625 2551.5625 2026.40625 C 2578.398438 2026.40625 2600.117188 2004.648438 2600.117188 1977.851562 Z M 2600.117188 1977.851562 " transform="matrix(0.1,0,0,-0.1,0,555)"/>
<path style=" stroke:none;fill-rule:nonzero;fill:rgb(100%,0%,0%);fill-opacity:1;" d="M 260.011719 357.214844 C 260.011719 359.898438 257.839844 362.070312 255.15625 362.070312 C 252.472656 362.070312 250.300781 359.898438 250.300781 357.214844 C 250.300781 354.535156 252.472656 352.359375 255.15625 352.359375 C 257.839844 352.359375 260.011719 354.535156 260.011719 357.214844 "/>
<path style="fill:none;stroke-width:13.875;stroke-linecap:square;stroke-linejoin:miter;stroke:rgb(100%,0%,0%);stroke-opacity:1;stroke-miterlimit:10;" d="M 2412.265625 1714.570312 C 2412.265625 1687.734375 2390.507812 1666.015625 2363.671875 1666.015625 C 2336.875 1666.015625 2315.117188 1687.734375 2315.117188 1714.570312 C 2315.117188 1741.40625 2336.875 1763.125 2363.671875 1763.125 C 2390.507812 1763.125 2412.265625 1741.40625 2412.265625 1714.570312 Z M 2412.265625 1714.570312 " transform="matrix(0.1,0,0,-0.1,0,555)"/>
<path style=" stroke:none;fill-rule:nonzero;fill:rgb(100%,0%,0%);fill-opacity:1;" d="M 241.226562 383.542969 C 241.226562 386.226562 239.050781 388.398438 236.367188 388.398438 C 233.6875 388.398438 231.511719 386.226562 231.511719 383.542969 C 231.511719 380.859375 233.6875 378.6875 236.367188 378.6875 C 239.050781 378.6875 241.226562 380.859375 241.226562 383.542969 "/>
<path style="fill:none;stroke-width:13.875;stroke-linecap:square;stroke-linejoin:miter;stroke:rgb(100%,0%,0%);stroke-opacity:1;stroke-miterlimit:10;" d="M 2193.085938 1750.46875 C 2193.085938 1723.632812 2171.328125 1701.914062 2144.53125 1701.914062 C 2117.695312 1701.914062 2095.976562 1723.632812 2095.976562 1750.46875 C 2095.976562 1777.304688 2117.695312 1799.023438 2144.53125 1799.023438 C 2171.328125 1799.023438 2193.085938 1777.304688 2193.085938 1750.46875 Z M 2193.085938 1750.46875 " transform="matrix(0.1,0,0,-0.1,0,555)"/>
<path style=" stroke:none;fill-rule:nonzero;fill:rgb(100%,0%,0%);fill-opacity:1;" d="M 219.308594 379.953125 C 219.308594 382.636719 217.132812 384.808594 214.453125 384.808594 C 211.769531 384.808594 209.597656 382.636719 209.597656 379.953125 C 209.597656 377.269531 211.769531 375.097656 214.453125 375.097656 C 217.132812 375.097656 219.308594 377.269531 219.308594 379.953125 "/>
<path style="fill:none;stroke-width:13.875;stroke-linecap:square;stroke-linejoin:miter;stroke:rgb(100%,0%,0%);stroke-opacity:1;stroke-miterlimit:10;" d="M 2099.140625 2540.273438 C 2099.140625 2513.476562 2077.421875 2491.71875 2050.585938 2491.71875 C 2023.789062 2491.71875 2002.03125 2513.476562 2002.03125 2540.273438 C 2002.03125 2567.109375 2023.789062 2588.828125 2050.585938 2588.828125 C 2077.421875 2588.828125 2099.140625 2567.109375 2099.140625 2540.273438 Z M 2099.140625 2540.273438 " transform="matrix(0.1,0,0,-0.1,0,555)"/>
<path style=" stroke:none;fill-rule:nonzero;fill:rgb(100%,0%,0%);fill-opacity:1;" d="M 209.914062 300.972656 C 209.914062 303.652344 207.742188 305.828125 205.058594 305.828125 C 202.378906 305.828125 200.203125 303.652344 200.203125 300.972656 C 200.203125 298.289062 202.378906 296.117188 205.058594 296.117188 C 207.742188 296.117188 209.914062 298.289062 209.914062 300.972656 "/>
<path style="fill:none;stroke-width:13.875;stroke-linecap:square;stroke-linejoin:miter;stroke:rgb(0%,0%,0%);stroke-opacity:1;stroke-miterlimit:10;" d="M 652.109375 555 L 5376.445312 555 " transform="matrix(0.1,0,0,-0.1,0,555)"/>
<path style=" stroke:none;fill-rule:nonzero;fill:rgb(0%,0%,0%);fill-opacity:1;" d="M 302.820312 534.535156 C 303.109375 534.835938 303.328125 535.148438 303.472656 535.464844 C 303.589844 535.667969 303.761719 536.21875 303.992188 537.113281 L 304.773438 535.964844 C 304.976562 535.675781 305.222656 535.40625 305.519531 535.152344 C 305.816406 534.898438 306.074219 534.722656 306.289062 534.621094 C 306.433594 534.5625 306.59375 534.535156 306.765625 534.535156 C 307.011719 534.535156 307.210938 534.601562 307.363281 534.738281 C 307.515625 534.878906 307.589844 535.039062 307.589844 535.226562 C 307.589844 535.457031 307.546875 535.617188 307.460938 535.703125 C 307.300781 535.847656 307.113281 535.921875 306.898438 535.921875 C 306.765625 535.921875 306.636719 535.894531 306.507812 535.835938 C 306.230469 535.75 306.042969 535.703125 305.945312 535.703125 C 305.796875 535.703125 305.632812 535.785156 305.445312 535.941406 C 305.085938 536.246094 304.648438 536.839844 304.144531 537.71875 L 304.859375 540.734375 C 304.976562 541.199219 305.066406 541.472656 305.140625 541.570312 C 305.214844 541.664062 305.292969 541.710938 305.378906 541.710938 C 305.496094 541.710938 305.640625 541.644531 305.8125 541.515625 C 306.132812 541.238281 306.40625 540.886719 306.636719 540.453125 L 306.941406 540.605469 C 306.5625 541.296875 306.09375 541.875 305.53125 542.339844 C 305.214844 542.597656 304.9375 542.730469 304.707031 542.730469 C 304.375 542.730469 304.113281 542.539062 303.925781 542.164062 C 303.796875 541.933594 303.542969 540.953125 303.167969 539.21875 C 302.242188 540.804688 301.507812 541.824219 300.957031 542.273438 C 300.59375 542.578125 300.246094 542.730469 299.914062 542.730469 C 299.683594 542.730469 299.46875 542.640625 299.265625 542.46875 C 299.136719 542.339844 299.070312 542.164062 299.070312 541.949219 C 299.070312 541.761719 299.136719 541.601562 299.265625 541.472656 C 299.394531 541.339844 299.554688 541.277344 299.742188 541.277344 C 299.929688 541.277344 300.125 541.371094 300.328125 541.558594 C 300.488281 541.6875 300.609375 541.753906 300.695312 541.753906 C 300.753906 541.753906 300.839844 541.710938 300.957031 541.621094 C 301.230469 541.390625 301.609375 540.90625 302.085938 540.171875 C 302.5625 539.433594 302.871094 538.898438 303.015625 538.566406 C 302.65625 537.136719 302.460938 536.382812 302.429688 536.3125 C 302.300781 535.921875 302.128906 535.648438 301.910156 535.488281 C 301.695312 535.328125 301.367188 535.25 300.933594 535.25 C 300.804688 535.25 300.652344 535.257812 300.480469 535.269531 L 300.480469 534.945312 L 302.820312 534.535156 "/>
<path style="fill:none;stroke-width:1.2;stroke-linecap:butt;stroke-linejoin:round;stroke:rgb(0%,0%,0%);stroke-opacity:1;stroke-miterlimit:10;" d="M 679.882812 555 L 679.882812 499.492188 " transform="matrix(0.1,0,0,-0.1,0,555)"/>
<path style=" stroke:none;fill-rule:nonzero;fill:rgb(0%,0%,0%);fill-opacity:1;" d="M 61.785156 510.925781 L 64.691406 509.515625 L 64.972656 509.515625 L 64.972656 519.597656 C 64.972656 520.261719 65.003906 520.675781 65.058594 520.84375 C 65.117188 521.007812 65.234375 521.136719 65.40625 521.222656 C 65.582031 521.308594 65.933594 521.359375 66.46875 521.375 L 66.46875 521.699219 L 61.980469 521.699219 L 61.980469 521.375 C 62.546875 521.359375 62.910156 521.308594 63.078125 521.222656 C 63.242188 521.136719 63.359375 521.019531 63.421875 520.875 C 63.488281 520.730469 63.523438 520.304688 63.523438 519.597656 L 63.523438 513.15625 C 63.523438 512.277344 63.492188 511.714844 63.433594 511.46875 C 63.390625 511.277344 63.316406 511.140625 63.207031 511.054688 C 63.097656 510.96875 62.964844 510.925781 62.804688 510.925781 C 62.589844 510.925781 62.292969 511.019531 61.917969 511.207031 Z M 69.332031 515.804688 C 69.332031 514.445312 69.539062 513.269531 69.949219 512.277344 C 70.359375 511.289062 70.90625 510.554688 71.585938 510.078125 C 72.121094 509.703125 72.671875 509.515625 73.234375 509.515625 C 74.144531 509.515625 74.960938 509.976562 75.683594 510.902344 C 76.59375 512.058594 77.050781 513.628906 77.050781 515.605469 C 77.050781 516.996094 76.851562 518.171875 76.453125 519.140625 C 76.054688 520.109375 75.546875 520.816406 74.925781 521.253906 C 74.304688 521.695312 73.710938 521.917969 73.148438 521.917969 C 72.003906 521.917969 71.050781 521.242188 70.285156 519.902344 C 69.648438 518.757812 69.332031 517.390625 69.332031 515.804688 Z M 71.066406 516.019531 C 71.066406 517.667969 71.269531 519.011719 71.671875 520.050781 C 72.003906 520.917969 72.503906 521.351562 73.167969 521.351562 C 73.488281 521.351562 73.816406 521.210938 74.15625 520.929688 C 74.496094 520.648438 74.75 520.167969 74.925781 519.488281 C 75.199219 518.492188 75.335938 517.066406 75.335938 515.21875 C 75.335938 513.859375 75.191406 512.722656 74.902344 511.8125 C 74.699219 511.132812 74.425781 510.65625 74.078125 510.382812 C 73.847656 510.195312 73.558594 510.101562 73.210938 510.101562 C 72.820312 510.101562 72.46875 510.273438 72.148438 510.621094 C 71.730469 511.113281 71.445312 511.882812 71.292969 512.929688 C 71.140625 513.976562 71.066406 515.007812 71.066406 516.019531 "/>
<path style="fill:none;stroke-width:1.2;stroke-linecap:butt;stroke-linejoin:round;stroke:rgb(0%,0%,0%);stroke-opacity:1;stroke-miterlimit:10;" d="M 2245.390625 555 L 2245.390625 499.492188 " transform="matrix(0.1,0,0,-0.1,0,555)"/>
<path style=" stroke:none;fill-rule:nonzero;fill:rgb(0%,0%,0%);fill-opacity:1;" d="M 217.1875 510.925781 L 220.09375 509.515625 L 220.375 509.515625 L 220.375 519.597656 C 220.375 520.261719 220.402344 520.675781 220.460938 520.84375 C 220.519531 521.007812 220.632812 521.136719 220.808594 521.222656 C 220.980469 521.308594 221.335938 521.359375 221.871094 521.375 L 221.871094 521.699219 L 217.382812 521.699219 L 217.382812 521.375 C 217.945312 521.359375 218.3125 521.308594 218.476562 521.222656 C 218.640625 521.136719 218.757812 521.019531 218.824219 520.875 C 218.886719 520.730469 218.921875 520.304688 218.921875 519.597656 L 218.921875 513.15625 C 218.921875 512.277344 218.890625 511.714844 218.835938 511.46875 C 218.789062 511.277344 218.714844 511.140625 218.605469 511.054688 C 218.496094 510.96875 218.363281 510.925781 218.203125 510.925781 C 217.988281 510.925781 217.691406 511.019531 217.316406 511.207031 Z M 231.90625 509.753906 L 231.214844 511.25 L 227.636719 511.25 L 226.855469 512.855469 C 228.402344 513.085938 229.632812 513.664062 230.539062 514.589844 C 231.320312 515.382812 231.714844 516.324219 231.714844 517.40625 C 231.714844 518.042969 231.585938 518.628906 231.332031 519.160156 C 231.078125 519.699219 230.757812 520.152344 230.367188 520.527344 C 229.976562 520.90625 229.542969 521.199219 229.066406 521.417969 C 228.402344 521.75 227.707031 521.917969 226.984375 521.917969 C 226.277344 521.917969 225.761719 521.792969 225.4375 521.546875 C 225.109375 521.300781 224.949219 521.035156 224.949219 520.746094 C 224.949219 520.570312 225.015625 520.421875 225.152344 520.300781 C 225.289062 520.175781 225.460938 520.117188 225.664062 520.117188 C 225.808594 520.117188 225.9375 520.140625 226.054688 520.183594 C 226.171875 520.226562 226.363281 520.347656 226.636719 520.550781 C 227.085938 520.851562 227.535156 521.007812 227.984375 521.007812 C 228.675781 521.007812 229.28125 520.746094 229.792969 520.226562 C 230.308594 519.703125 230.5625 519.070312 230.5625 518.316406 C 230.5625 517.59375 230.332031 516.921875 229.867188 516.300781 C 229.40625 515.679688 228.769531 515.195312 227.960938 514.847656 C 227.3125 514.589844 226.4375 514.4375 225.339844 514.394531 L 227.636719 509.753906 L 231.90625 509.753906 "/>
<path style="fill:none;stroke-width:1.2;stroke-linecap:butt;stroke-linejoin:round;stroke:rgb(0%,0%,0%);stroke-opacity:1;stroke-miterlimit:10;" d="M 3810.898438 555 L 3810.898438 499.492188 " transform="matrix(0.1,0,0,-0.1,0,555)"/>
<path style=" stroke:none;fill-rule:nonzero;fill:rgb(0%,0%,0%);fill-opacity:1;" d="M 380.109375 519.402344 L 379.285156 521.699219 L 372.238281 521.699219 L 372.238281 521.375 C 374.304688 519.480469 375.761719 517.933594 376.609375 516.734375 C 377.453125 515.535156 377.875 514.445312 377.875 513.460938 C 377.875 512.695312 377.644531 512.070312 377.183594 511.585938 C 376.71875 511.101562 376.164062 510.859375 375.511719 510.859375 C 374.9375 510.859375 374.410156 511.027344 373.941406 511.367188 C 373.472656 511.707031 373.128906 512.210938 372.910156 512.875 L 372.585938 512.875 C 372.730469 511.792969 373.105469 510.960938 373.714844 510.382812 C 374.320312 509.804688 375.078125 509.515625 375.988281 509.515625 C 376.960938 509.515625 377.769531 509.824219 378.417969 510.449219 C 379.070312 511.070312 379.394531 511.796875 379.394531 512.636719 C 379.394531 513.246094 379.25 513.851562 378.960938 514.457031 C 378.527344 515.410156 377.824219 516.417969 376.855469 517.472656 C 375.398438 519.078125 374.480469 520.042969 374.105469 520.375 L 377.226562 520.375 C 377.863281 520.375 378.304688 520.351562 378.558594 520.300781 C 378.8125 520.25 379.042969 520.152344 379.253906 520.007812 C 379.464844 519.863281 379.640625 519.660156 379.785156 519.402344 Z M 381.519531 515.804688 C 381.519531 514.445312 381.726562 513.269531 382.136719 512.277344 C 382.546875 511.289062 383.09375 510.554688 383.773438 510.078125 C 384.308594 509.703125 384.859375 509.515625 385.421875 509.515625 C 386.332031 509.515625 387.148438 509.976562 387.871094 510.902344 C 388.78125 512.058594 389.238281 513.628906 389.238281 515.605469 C 389.238281 516.996094 389.039062 518.171875 388.640625 519.140625 C 388.242188 520.109375 387.734375 520.816406 387.113281 521.253906 C 386.492188 521.695312 385.898438 521.917969 385.335938 521.917969 C 384.191406 521.917969 383.238281 521.242188 382.472656 519.902344 C 381.835938 518.757812 381.519531 517.390625 381.519531 515.804688 Z M 383.253906 516.019531 C 383.253906 517.667969 383.453125 519.011719 383.859375 520.050781 C 384.191406 520.917969 384.691406 521.351562 385.355469 521.351562 C 385.675781 521.351562 386.003906 521.210938 386.34375 520.929688 C 386.683594 520.648438 386.9375 520.167969 387.113281 519.488281 C 387.386719 518.492188 387.523438 517.066406 387.523438 515.21875 C 387.523438 513.859375 387.378906 512.722656 387.089844 511.8125 C 386.886719 511.132812 386.613281 510.65625 386.265625 510.382812 C 386.035156 510.195312 385.746094 510.101562 385.398438 510.101562 C 385.007812 510.101562 384.65625 510.273438 384.339844 510.621094 C 383.917969 511.113281 383.632812 511.882812 383.480469 512.929688 C 383.328125 513.976562 383.253906 515.007812 383.253906 516.019531 "/>
<path style="fill:none;stroke-width:1.2;stroke-linecap:butt;stroke-linejoin:round;stroke:rgb(0%,0%,0%);stroke-opacity:1;stroke-miterlimit:10;" d="M 5376.445312 555 L 5376.445312 499.492188 " transform="matrix(0.1,0,0,-0.1,0,555)"/>
<path style=" stroke:none;fill-rule:nonzero;fill:rgb(0%,0%,0%);fill-opacity:1;" d="M 536.898438 519.402344 L 536.074219 521.699219 L 529.027344 521.699219 L 529.027344 521.375 C 531.09375 519.480469 532.550781 517.933594 533.394531 516.734375 C 534.242188 515.535156 534.664062 514.445312 534.664062 513.460938 C 534.664062 512.695312 534.433594 512.070312 533.96875 511.585938 C 533.507812 511.101562 532.949219 510.859375 532.300781 510.859375 C 531.722656 510.859375 531.199219 511.027344 530.730469 511.367188 C 530.257812 511.707031 529.914062 512.210938 529.699219 512.875 L 529.375 512.875 C 529.519531 511.792969 529.894531 510.960938 530.5 510.382812 C 531.109375 509.804688 531.867188 509.515625 532.777344 509.515625 C 533.746094 509.515625 534.554688 509.824219 535.207031 510.449219 C 535.855469 511.070312 536.179688 511.796875 536.179688 512.636719 C 536.179688 513.246094 536.035156 513.851562 535.746094 514.457031 C 535.3125 515.410156 534.613281 516.417969 533.644531 517.472656 C 532.1875 519.078125 531.265625 520.042969 530.890625 520.375 L 534.015625 520.375 C 534.648438 520.375 535.09375 520.351562 535.347656 520.300781 C 535.601562 520.25 535.828125 520.152344 536.039062 520.007812 C 536.25 519.863281 536.425781 519.660156 536.570312 519.402344 Z M 545.480469 509.753906 L 544.789062 511.25 L 541.210938 511.25 L 540.429688 512.855469 C 541.976562 513.085938 543.207031 513.664062 544.117188 514.589844 C 544.894531 515.382812 545.289062 516.324219 545.289062 517.40625 C 545.289062 518.042969 545.160156 518.628906 544.90625 519.160156 C 544.65625 519.699219 544.332031 520.152344 543.941406 520.527344 C 543.554688 520.90625 543.117188 521.199219 542.640625 521.417969 C 541.976562 521.75 541.28125 521.917969 540.558594 521.917969 C 539.851562 521.917969 539.335938 521.792969 539.011719 521.546875 C 538.6875 521.300781 538.523438 521.035156 538.523438 520.746094 C 538.523438 520.570312 538.589844 520.421875 538.730469 520.300781 C 538.867188 520.175781 539.035156 520.117188 539.238281 520.117188 C 539.382812 520.117188 539.511719 520.140625 539.628906 520.183594 C 539.746094 520.226562 539.9375 520.347656 540.214844 520.550781 C 540.660156 520.851562 541.109375 521.007812 541.558594 521.007812 C 542.253906 521.007812 542.855469 520.746094 543.367188 520.226562 C 543.882812 519.703125 544.136719 519.070312 544.136719 518.316406 C 544.136719 517.59375 543.90625 516.921875 543.441406 516.300781 C 542.980469 515.679688 542.347656 515.195312 541.535156 514.847656 C 540.886719 514.589844 540.011719 514.4375 538.914062 514.394531 L 541.210938 509.753906 L 545.480469 509.753906 "/>
<path style="fill:none;stroke-width:1.2;stroke-linecap:butt;stroke-linejoin:round;stroke:rgb(0%,0%,0%);stroke-opacity:1;stroke-miterlimit:10;" d="M 992.96875 555 L 992.96875 527.265625 " transform="matrix(0.1,0,0,-0.1,0,555)"/>
<path style="fill:none;stroke-width:1.2;stroke-linecap:butt;stroke-linejoin:round;stroke:rgb(0%,0%,0%);stroke-opacity:1;stroke-miterlimit:10;" d="M 1306.09375 555 L 1306.09375 527.265625 " transform="matrix(0.1,0,0,-0.1,0,555)"/>
<path style="fill:none;stroke-width:1.2;stroke-linecap:butt;stroke-linejoin:round;stroke:rgb(0%,0%,0%);stroke-opacity:1;stroke-miterlimit:10;" d="M 1619.179688 555 L 1619.179688 527.265625 " transform="matrix(0.1,0,0,-0.1,0,555)"/>
<path style="fill:none;stroke-width:1.2;stroke-linecap:butt;stroke-linejoin:round;stroke:rgb(0%,0%,0%);stroke-opacity:1;stroke-miterlimit:10;" d="M 1932.304688 555 L 1932.304688 527.265625 " transform="matrix(0.1,0,0,-0.1,0,555)"/>
<path style="fill:none;stroke-width:1.2;stroke-linecap:butt;stroke-linejoin:round;stroke:rgb(0%,0%,0%);stroke-opacity:1;stroke-miterlimit:10;" d="M 2558.515625 555 L 2558.515625 527.265625 " transform="matrix(0.1,0,0,-0.1,0,555)"/>
<path style="fill:none;stroke-width:1.2;stroke-linecap:butt;stroke-linejoin:round;stroke:rgb(0%,0%,0%);stroke-opacity:1;stroke-miterlimit:10;" d="M 2871.601562 555 L 2871.601562 527.265625 " transform="matrix(0.1,0,0,-0.1,0,555)"/>
<path style="fill:none;stroke-width:1.2;stroke-linecap:butt;stroke-linejoin:round;stroke:rgb(0%,0%,0%);stroke-opacity:1;stroke-miterlimit:10;" d="M 3184.6875 555 L 3184.6875 527.265625 " transform="matrix(0.1,0,0,-0.1,0,555)"/>
<path style="fill:none;stroke-width:1.2;stroke-linecap:butt;stroke-linejoin:round;stroke:rgb(0%,0%,0%);stroke-opacity:1;stroke-miterlimit:10;" d="M 3497.8125 555 L 3497.8125 527.265625 " transform="matrix(0.1,0,0,-0.1,0,555)"/>
<path style="fill:none;stroke-width:1.2;stroke-linecap:butt;stroke-linejoin:round;stroke:rgb(0%,0%,0%);stroke-opacity:1;stroke-miterlimit:10;" d="M 4124.023438 555 L 4124.023438 527.265625 " transform="matrix(0.1,0,0,-0.1,0,555)"/>
<path style="fill:none;stroke-width:1.2;stroke-linecap:butt;stroke-linejoin:round;stroke:rgb(0%,0%,0%);stroke-opacity:1;stroke-miterlimit:10;" d="M 4437.109375 555 L 4437.109375 527.265625 " transform="matrix(0.1,0,0,-0.1,0,555)"/>
<path style="fill:none;stroke-width:1.2;stroke-linecap:butt;stroke-linejoin:round;stroke:rgb(0%,0%,0%);stroke-opacity:1;stroke-miterlimit:10;" d="M 4750.234375 555 L 4750.234375 527.265625 " transform="matrix(0.1,0,0,-0.1,0,555)"/>
<path style="fill:none;stroke-width:1.2;stroke-linecap:butt;stroke-linejoin:round;stroke:rgb(0%,0%,0%);stroke-opacity:1;stroke-miterlimit:10;" d="M 5063.320312 555 L 5063.320312 527.265625 " transform="matrix(0.1,0,0,-0.1,0,555)"/>
<path style="fill:none;stroke-width:13.875;stroke-linecap:square;stroke-linejoin:miter;stroke:rgb(0%,0%,0%);stroke-opacity:1;stroke-miterlimit:10;" d="M 652.109375 555 L 652.109375 5369.453125 " transform="matrix(0.1,0,0,-0.1,0,555)"/>
<g clip-path="url(#clip1)" clip-rule="nonzero">
<path style=" stroke:none;fill-rule:nonzero;fill:rgb(0%,0%,0%);fill-opacity:1;" d="M 16.757812 255.648438 C 16.960938 255.992188 17.097656 256.3125 17.171875 256.609375 C 17.242188 256.90625 17.320312 257.488281 17.410156 258.355469 L 17.777344 262.691406 C 18.140625 262.273438 18.652344 261.601562 19.316406 260.675781 C 19.632812 260.230469 20.03125 259.621094 20.507812 258.855469 C 20.796875 258.394531 20.976562 258.066406 21.050781 257.878906 C 21.078125 257.777344 21.09375 257.675781 21.09375 257.574219 C 21.09375 257.519531 21.074219 257.46875 21.03125 257.425781 C 20.984375 257.382812 20.878906 257.328125 20.703125 257.269531 C 20.53125 257.214844 20.390625 257.113281 20.28125 256.96875 C 20.171875 256.824219 20.117188 256.652344 20.117188 256.449219 C 20.117188 256.21875 20.1875 256.027344 20.324219 255.875 C 20.460938 255.722656 20.640625 255.648438 20.855469 255.648438 C 21.117188 255.648438 21.335938 255.753906 21.515625 255.972656 C 21.699219 256.1875 21.789062 256.484375 21.789062 256.859375 C 21.789062 257.324219 21.628906 257.855469 21.3125 258.453125 C 20.992188 259.054688 20.382812 259.96875 19.480469 261.195312 C 18.574219 262.425781 17.480469 263.769531 16.195312 265.230469 C 15.3125 266.226562 14.65625 266.859375 14.222656 267.125 C 13.789062 267.394531 13.417969 267.527344 13.117188 267.527344 C 12.929688 267.527344 12.765625 267.453125 12.628906 267.308594 C 12.492188 267.164062 12.421875 267.007812 12.421875 266.832031 C 12.421875 266.601562 12.519531 266.390625 12.714844 266.203125 C 12.910156 266.015625 13.117188 265.921875 13.332031 265.921875 C 13.449219 265.921875 13.550781 265.953125 13.636719 266.007812 C 13.679688 266.039062 13.730469 266.121094 13.789062 266.257812 C 13.847656 266.394531 13.898438 266.484375 13.941406 266.527344 C 13.96875 266.558594 14.003906 266.574219 14.046875 266.574219 C 14.078125 266.574219 14.136719 266.542969 14.222656 266.484375 C 14.554688 266.285156 14.929688 265.964844 15.347656 265.53125 C 15.914062 264.953125 16.332031 264.484375 16.605469 264.121094 L 16.109375 258.550781 C 16.035156 257.628906 15.917969 257.0625 15.75 256.859375 C 15.585938 256.65625 15.304688 256.558594 14.914062 256.558594 C 14.785156 256.558594 14.5625 256.578125 14.242188 256.621094 L 14.179688 256.296875 L 16.757812 255.648438 "/>
</g>
<path style="fill:none;stroke-width:1.2;stroke-linecap:butt;stroke-linejoin:round;stroke:rgb(0%,0%,0%);stroke-opacity:1;stroke-miterlimit:10;" d="M 652.109375 582.734375 L 596.640625 582.734375 " transform="matrix(0.1,0,0,-0.1,0,555)"/>
<path style=" stroke:none;fill-rule:nonzero;fill:rgb(0%,0%,0%);fill-opacity:1;" d="M 48.324219 491.476562 L 48.324219 491.804688 C 47.542969 491.875 46.90625 492.027344 46.414062 492.257812 C 45.925781 492.488281 45.441406 492.84375 44.964844 493.320312 C 44.488281 493.796875 44.09375 494.328125 43.78125 494.914062 C 43.472656 495.5 43.207031 496.191406 42.992188 496.984375 C 43.84375 496.40625 44.695312 496.117188 45.546875 496.117188 C 46.359375 496.117188 47.0625 496.445312 47.664062 497.105469 C 48.261719 497.761719 48.5625 498.609375 48.5625 499.652344 C 48.5625 500.648438 48.257812 501.558594 47.652344 502.382812 C 46.929688 503.378906 45.96875 503.878906 44.769531 503.878906 C 43.945312 503.878906 43.25 503.605469 42.6875 503.054688 C 41.574219 502.015625 41.019531 500.65625 41.019531 498.980469 C 41.019531 497.910156 41.230469 496.894531 41.65625 495.933594 C 42.085938 494.972656 42.695312 494.113281 43.488281 493.363281 C 44.285156 492.613281 45.046875 492.109375 45.777344 491.859375 C 46.507812 491.601562 47.183594 491.476562 47.804688 491.476562 Z M 42.839844 497.636719 C 42.738281 498.429688 42.6875 499.074219 42.6875 499.5625 C 42.6875 500.128906 42.792969 500.738281 43 501.398438 C 43.210938 502.054688 43.519531 502.578125 43.921875 502.96875 C 44.226562 503.242188 44.59375 503.378906 45.027344 503.378906 C 45.535156 503.378906 45.988281 503.136719 46.394531 502.652344 C 46.800781 502.167969 47 501.488281 47 500.605469 C 47 499.59375 46.800781 498.722656 46.394531 497.992188 C 45.988281 497.261719 45.425781 496.898438 44.703125 496.898438 C 44.472656 496.898438 44.230469 496.945312 43.976562 497.039062 C 43.722656 497.132812 43.34375 497.332031 42.839844 497.636719 Z M 49.90625 497.765625 C 49.90625 496.40625 50.113281 495.230469 50.523438 494.242188 C 50.9375 493.253906 51.480469 492.519531 52.160156 492.042969 C 52.695312 491.664062 53.246094 491.476562 53.808594 491.476562 C 54.71875 491.476562 55.535156 491.941406 56.257812 492.863281 C 57.167969 494.023438 57.625 495.589844 57.625 497.570312 C 57.625 498.957031 57.425781 500.136719 57.027344 501.105469 C 56.632812 502.074219 56.121094 502.777344 55.5 503.21875 C 54.878906 503.65625 54.285156 503.878906 53.722656 503.878906 C 52.582031 503.878906 51.625 503.207031 50.859375 501.863281 C 50.222656 500.722656 49.90625 499.355469 49.90625 497.765625 Z M 51.640625 497.980469 C 51.640625 499.628906 51.84375 500.972656 52.246094 502.015625 C 52.582031 502.882812 53.078125 503.316406 53.742188 503.316406 C 54.0625 503.316406 54.390625 503.175781 54.730469 502.894531 C 55.070312 502.609375 55.328125 502.128906 55.5 501.449219 C 55.773438 500.453125 55.910156 499.03125 55.910156 497.179688 C 55.910156 495.820312 55.765625 494.6875 55.476562 493.777344 C 55.277344 493.097656 55 492.621094 54.65625 492.34375 C 54.421875 492.15625 54.132812 492.0625 53.785156 492.0625 C 53.398438 492.0625 53.042969 492.234375 52.726562 492.582031 C 52.304688 493.074219 52.019531 493.84375 51.867188 494.890625 C 51.71875 495.941406 51.640625 496.96875 51.640625 497.980469 "/>
<path style="fill:none;stroke-width:1.2;stroke-linecap:butt;stroke-linejoin:round;stroke:rgb(0%,0%,0%);stroke-opacity:1;stroke-miterlimit:10;" d="M 652.109375 1779.453125 L 596.640625 1779.453125 " transform="matrix(0.1,0,0,-0.1,0,555)"/>
<path style=" stroke:none;fill-rule:nonzero;fill:rgb(0%,0%,0%);fill-opacity:1;" d="M 42.058594 371.003906 L 48.453125 371.003906 L 48.453125 371.351562 L 44.464844 383.1875 L 43.488281 383.1875 L 47.042969 372.433594 L 43.769531 372.433594 C 43.105469 372.433594 42.636719 372.515625 42.363281 372.671875 C 41.855469 372.949219 41.457031 373.367188 41.167969 373.929688 L 40.910156 373.84375 Z M 49.90625 377.054688 C 49.90625 375.691406 50.113281 374.519531 50.523438 373.527344 C 50.9375 372.539062 51.480469 371.804688 52.160156 371.328125 C 52.695312 370.953125 53.246094 370.765625 53.808594 370.765625 C 54.71875 370.765625 55.535156 371.230469 56.257812 372.152344 C 57.167969 373.308594 57.625 374.878906 57.625 376.855469 C 57.625 378.246094 57.425781 379.421875 57.027344 380.390625 C 56.632812 381.359375 56.121094 382.066406 55.5 382.503906 C 54.878906 382.945312 54.285156 383.164062 53.722656 383.164062 C 52.582031 383.164062 51.625 382.492188 50.859375 381.148438 C 50.222656 380.007812 49.90625 378.640625 49.90625 377.054688 Z M 51.640625 377.269531 C 51.640625 378.914062 51.84375 380.261719 52.246094 381.300781 C 52.582031 382.167969 53.078125 382.601562 53.742188 382.601562 C 54.0625 382.601562 54.390625 382.460938 54.730469 382.179688 C 55.070312 381.898438 55.328125 381.417969 55.5 380.738281 C 55.773438 379.742188 55.910156 378.316406 55.910156 376.46875 C 55.910156 375.109375 55.765625 373.972656 55.476562 373.0625 C 55.277344 372.382812 55 371.90625 54.65625 371.632812 C 54.421875 371.445312 54.132812 371.351562 53.785156 371.351562 C 53.398438 371.351562 53.042969 371.523438 52.726562 371.871094 C 52.304688 372.363281 52.019531 373.132812 51.867188 374.179688 C 51.71875 375.226562 51.640625 376.257812 51.640625 377.269531 "/>
<path style="fill:none;stroke-width:1.2;stroke-linecap:butt;stroke-linejoin:round;stroke:rgb(0%,0%,0%);stroke-opacity:1;stroke-miterlimit:10;" d="M 652.109375 2976.132812 L 596.640625 2976.132812 " transform="matrix(0.1,0,0,-0.1,0,555)"/>
<path style=" stroke:none;fill-rule:nonzero;fill:rgb(0%,0%,0%);fill-opacity:1;" d="M 43.707031 257.617188 C 42.753906 256.839844 42.136719 256.214844 41.863281 255.742188 C 41.589844 255.273438 41.453125 254.785156 41.453125 254.28125 C 41.453125 253.5 41.75 252.832031 42.351562 252.273438 C 42.953125 251.71875 43.75 251.441406 44.746094 251.441406 C 45.714844 251.441406 46.492188 251.699219 47.078125 252.222656 C 47.664062 252.742188 47.957031 253.335938 47.957031 253.996094 C 47.957031 254.445312 47.796875 254.902344 47.476562 255.363281 C 47.160156 255.828125 46.503906 256.378906 45.503906 257.011719 C 46.53125 257.808594 47.210938 258.4375 47.542969 258.898438 C 47.992188 259.488281 48.214844 260.121094 48.214844 260.785156 C 48.214844 261.621094 47.898438 262.339844 47.261719 262.941406 C 46.625 263.542969 45.789062 263.839844 44.746094 263.839844 C 43.605469 263.839844 42.714844 263.488281 42.082031 262.777344 C 41.574219 262.203125 41.320312 261.570312 41.320312 260.894531 C 41.320312 260.371094 41.503906 259.851562 41.863281 259.332031 C 42.222656 258.8125 42.839844 258.238281 43.707031 257.617188 Z M 45.070312 256.664062 C 45.78125 256.03125 46.226562 255.527344 46.414062 255.160156 C 46.605469 254.789062 46.699219 254.375 46.699219 253.910156 C 46.699219 253.304688 46.523438 252.824219 46.175781 252.46875 C 45.832031 252.117188 45.359375 251.9375 44.769531 251.9375 C 44.160156 251.9375 43.667969 252.113281 43.292969 252.460938 C 42.917969 252.808594 42.730469 253.210938 42.730469 253.675781 C 42.730469 253.976562 42.808594 254.285156 42.96875 254.59375 C 43.128906 254.90625 43.351562 255.199219 43.640625 255.472656 Z M 44.117188 257.945312 C 43.625 258.347656 43.265625 258.792969 43.035156 259.277344 C 42.800781 259.761719 42.6875 260.285156 42.6875 260.851562 C 42.6875 261.617188 42.894531 262.226562 43.304688 262.683594 C 43.71875 263.136719 44.242188 263.363281 44.878906 263.363281 C 45.511719 263.363281 46.023438 263.183594 46.40625 262.820312 C 46.789062 262.460938 46.980469 262.027344 46.980469 261.519531 C 46.980469 261.101562 46.863281 260.71875 46.632812 260.371094 C 46.226562 259.75 45.390625 258.941406 44.117188 257.945312 Z M 49.90625 257.726562 C 49.90625 256.367188 50.113281 255.195312 50.523438 254.203125 C 50.9375 253.214844 51.480469 252.480469 52.160156 252.003906 C 52.695312 251.628906 53.246094 251.441406 53.808594 251.441406 C 54.71875 251.441406 55.535156 251.902344 56.257812 252.828125 C 57.167969 253.984375 57.625 255.550781 57.625 257.53125 C 57.625 258.921875 57.425781 260.097656 57.027344 261.066406 C 56.632812 262.035156 56.121094 262.738281 55.5 263.179688 C 54.878906 263.621094 54.285156 263.839844 53.722656 263.839844 C 52.582031 263.839844 51.625 263.167969 50.859375 261.824219 C 50.222656 260.683594 49.90625 259.316406 49.90625 257.726562 Z M 51.640625 257.945312 C 51.640625 259.589844 51.84375 260.9375 52.246094 261.976562 C 52.582031 262.84375 53.078125 263.277344 53.742188 263.277344 C 54.0625 263.277344 54.390625 263.136719 54.730469 262.855469 C 55.070312 262.574219 55.328125 262.09375 55.5 261.414062 C 55.773438 260.414062 55.910156 258.992188 55.910156 257.144531 C 55.910156 255.785156 55.765625 254.648438 55.476562 253.738281 C 55.277344 253.058594 55 252.582031 54.65625 252.308594 C 54.421875 252.121094 54.132812 252.023438 53.785156 252.023438 C 53.398438 252.023438 53.042969 252.199219 52.726562 252.546875 C 52.304688 253.035156 52.019531 253.808594 51.867188 254.855469 C 51.71875 255.902344 51.640625 256.933594 51.640625 257.945312 "/>
<path style="fill:none;stroke-width:1.2;stroke-linecap:butt;stroke-linejoin:round;stroke:rgb(0%,0%,0%);stroke-opacity:1;stroke-miterlimit:10;" d="M 652.109375 4172.773438 L 596.640625 4172.773438 " transform="matrix(0.1,0,0,-0.1,0,555)"/>
<path style=" stroke:none;fill-rule:nonzero;fill:rgb(0%,0%,0%);fill-opacity:1;" d="M 41.191406 144.535156 L 41.191406 144.210938 C 41.957031 144.210938 42.667969 144.039062 43.328125 143.691406 C 43.984375 143.34375 44.621094 142.742188 45.234375 141.882812 C 45.847656 141.023438 46.273438 140.078125 46.503906 139.050781 C 45.578125 139.644531 44.746094 139.941406 44.011719 139.941406 C 43.171875 139.941406 42.453125 139.621094 41.851562 138.976562 C 41.253906 138.335938 40.953125 137.472656 40.953125 136.386719 C 40.953125 135.347656 41.25 134.414062 41.84375 133.589844 C 42.566406 132.605469 43.511719 132.117188 44.679688 132.117188 C 45.664062 132.117188 46.503906 132.519531 47.195312 133.328125 C 48.050781 134.328125 48.476562 135.5625 48.476562 137.035156 C 48.476562 138.367188 48.152344 139.605469 47.5 140.753906 C 46.847656 141.902344 45.945312 142.855469 44.789062 143.605469 C 43.835938 144.226562 42.800781 144.535156 41.691406 144.535156 Z M 46.65625 138.402344 C 46.757812 137.636719 46.804688 137.03125 46.804688 136.582031 C 46.804688 136.003906 46.710938 135.386719 46.515625 134.726562 C 46.320312 134.070312 46.042969 133.566406 45.691406 133.210938 C 45.335938 132.855469 44.933594 132.679688 44.488281 132.679688 C 43.964844 132.679688 43.507812 132.914062 43.109375 133.382812 C 42.710938 133.855469 42.515625 134.550781 42.515625 135.476562 C 42.515625 136.71875 42.773438 137.6875 43.292969 138.382812 C 43.683594 138.886719 44.15625 139.140625 44.703125 139.140625 C 44.976562 139.140625 45.300781 139.074219 45.667969 138.945312 C 46.035156 138.8125 46.367188 138.632812 46.65625 138.402344 Z M 49.90625 138.402344 C 49.90625 137.046875 50.113281 135.871094 50.523438 134.878906 C 50.9375 133.890625 51.480469 133.15625 52.160156 132.679688 C 52.695312 132.304688 53.246094 132.117188 53.808594 132.117188 C 54.71875 132.117188 55.535156 132.578125 56.257812 133.503906 C 57.167969 134.660156 57.625 136.226562 57.625 138.207031 C 57.625 139.59375 57.425781 140.773438 57.027344 141.742188 C 56.632812 142.710938 56.121094 143.414062 55.5 143.855469 C 54.878906 144.296875 54.285156 144.515625 53.722656 144.515625 C 52.582031 144.515625 51.625 143.84375 50.859375 142.5 C 50.222656 141.359375 49.90625 139.992188 49.90625 138.402344 Z M 51.640625 138.621094 C 51.640625 140.265625 51.84375 141.609375 52.246094 142.652344 C 52.582031 143.519531 53.078125 143.953125 53.742188 143.953125 C 54.0625 143.953125 54.390625 143.8125 54.730469 143.53125 C 55.070312 143.246094 55.328125 142.765625 55.5 142.089844 C 55.773438 141.089844 55.910156 139.667969 55.910156 137.816406 C 55.910156 136.460938 55.765625 135.324219 55.476562 134.414062 C 55.277344 133.734375 55 133.257812 54.65625 132.984375 C 54.421875 132.796875 54.132812 132.699219 53.785156 132.699219 C 53.398438 132.699219 53.042969 132.875 52.726562 133.222656 C 52.304688 133.714844 52.019531 134.480469 51.867188 135.53125 C 51.71875 136.578125 51.640625 137.609375 51.640625 138.621094 "/>
<path style="fill:none;stroke-width:1.2;stroke-linecap:butt;stroke-linejoin:round;stroke:rgb(0%,0%,0%);stroke-opacity:1;stroke-miterlimit:10;" d="M 652.109375 5369.453125 L 596.640625 5369.453125 " transform="matrix(0.1,0,0,-0.1,0,555)"/>
<path style=" stroke:none;fill-rule:nonzero;fill:rgb(0%,0%,0%);fill-opacity:1;" d="M 34.035156 14.199219 L 36.941406 12.789062 L 37.222656 12.789062 L 37.222656 22.871094 C 37.222656 23.535156 37.253906 23.953125 37.308594 24.117188 C 37.367188 24.285156 37.484375 24.410156 37.65625 24.496094 C 37.832031 24.585938 38.183594 24.636719 38.71875 24.648438 L 38.71875 24.976562 L 34.230469 24.976562 L 34.230469 24.648438 C 34.796875 24.636719 35.160156 24.585938 35.328125 24.496094 C 35.492188 24.410156 35.609375 24.296875 35.671875 24.152344 C 35.738281 24.007812 35.773438 23.578125 35.773438 22.871094 L 35.773438 16.433594 C 35.773438 15.550781 35.742188 14.988281 35.683594 14.742188 C 35.640625 14.554688 35.566406 14.417969 35.457031 14.328125 C 35.347656 14.242188 35.214844 14.199219 35.054688 14.199219 C 34.839844 14.199219 34.542969 14.292969 34.167969 14.480469 Z M 41.582031 19.078125 C 41.582031 17.71875 41.789062 16.546875 42.199219 15.554688 C 42.609375 14.566406 43.15625 13.832031 43.835938 13.355469 C 44.371094 12.980469 44.921875 12.789062 45.484375 12.789062 C 46.394531 12.789062 47.210938 13.253906 47.933594 14.179688 C 48.84375 15.335938 49.300781 16.902344 49.300781 18.882812 C 49.300781 20.269531 49.101562 21.449219 48.703125 22.417969 C 48.304688 23.386719 47.796875 24.089844 47.175781 24.53125 C 46.554688 24.972656 45.960938 25.191406 45.398438 25.191406 C 44.253906 25.191406 43.300781 24.519531 42.535156 23.175781 C 41.898438 22.035156 41.582031 20.667969 41.582031 19.078125 Z M 43.316406 19.296875 C 43.316406 20.941406 43.519531 22.285156 43.921875 23.328125 C 44.253906 24.195312 44.753906 24.628906 45.417969 24.628906 C 45.738281 24.628906 46.066406 24.488281 46.40625 24.203125 C 46.746094 23.921875 47 23.441406 47.175781 22.765625 C 47.449219 21.765625 47.585938 20.34375 47.585938 18.492188 C 47.585938 17.132812 47.441406 16 47.152344 15.089844 C 46.949219 14.410156 46.675781 13.933594 46.328125 13.65625 C 46.097656 13.46875 45.808594 13.375 45.460938 13.375 C 45.070312 13.375 44.71875 13.550781 44.398438 13.894531 C 43.980469 14.386719 43.695312 15.15625 43.542969 16.203125 C 43.390625 17.253906 43.316406 18.28125 43.316406 19.296875 Z M 50.601562 19.078125 C 50.601562 17.71875 50.804688 16.546875 51.21875 15.554688 C 51.628906 14.566406 52.175781 13.832031 52.855469 13.355469 C 53.390625 12.980469 53.9375 12.789062 54.503906 12.789062 C 55.414062 12.789062 56.230469 13.253906 56.953125 14.179688 C 57.863281 15.335938 58.320312 16.902344 58.320312 18.882812 C 58.320312 20.269531 58.121094 21.449219 57.722656 22.417969 C 57.324219 23.386719 56.816406 24.089844 56.195312 24.53125 C 55.574219 24.972656 54.980469 25.191406 54.414062 25.191406 C 53.273438 25.191406 52.320312 24.519531 51.554688 23.175781 C 50.917969 22.035156 50.601562 20.667969 50.601562 19.078125 Z M 52.335938 19.296875 C 52.335938 20.941406 52.535156 22.285156 52.941406 23.328125 C 53.273438 24.195312 53.773438 24.628906 54.4375 24.628906 C 54.753906 24.628906 55.085938 24.488281 55.425781 24.203125 C 55.765625 23.921875 56.019531 23.441406 56.195312 22.765625 C 56.46875 21.765625 56.605469 20.34375 56.605469 18.492188 C 56.605469 17.132812 56.460938 16 56.171875 15.089844 C 55.96875 14.410156 55.695312 13.933594 55.347656 13.65625 C 55.117188 13.46875 54.828125 13.375 54.480469 13.375 C 54.089844 13.375 53.738281 13.550781 53.417969 13.894531 C 53 14.386719 52.714844 15.15625 52.5625 16.203125 C 52.410156 17.253906 52.335938 18.28125 52.335938 19.296875 "/>
<path style="fill:none;stroke-width:1.2;stroke-linecap:butt;stroke-linejoin:round;stroke:rgb(0%,0%,0%);stroke-opacity:1;stroke-miterlimit:10;" d="M 652.109375 1181.09375 L 624.375 1181.09375 " transform="matrix(0.1,0,0,-0.1,0,555)"/>
<path style="fill:none;stroke-width:1.2;stroke-linecap:butt;stroke-linejoin:round;stroke:rgb(0%,0%,0%);stroke-opacity:1;stroke-miterlimit:10;" d="M 652.109375 2377.773438 L 624.375 2377.773438 " transform="matrix(0.1,0,0,-0.1,0,555)"/>
<path style="fill:none;stroke-width:1.2;stroke-linecap:butt;stroke-linejoin:round;stroke:rgb(0%,0%,0%);stroke-opacity:1;stroke-miterlimit:10;" d="M 652.109375 3574.453125 L 624.375 3574.453125 " transform="matrix(0.1,0,0,-0.1,0,555)"/>
<path style="fill:none;stroke-width:1.2;stroke-linecap:butt;stroke-linejoin:round;stroke:rgb(0%,0%,0%);stroke-opacity:1;stroke-miterlimit:10;" d="M 652.109375 4771.132812 L 624.375 4771.132812 " transform="matrix(0.1,0,0,-0.1,0,555)"/>
</g>
</svg>
