<?xml version="1.0" encoding="UTF-8" standalone="no"?>
<svg
   xmlns:dc="http://purl.org/dc/elements/1.1/"
   xmlns:cc="http://creativecommons.org/ns#"
   xmlns:rdf="http://www.w3.org/1999/02/22-rdf-syntax-ns#"
   xmlns:svg="http://www.w3.org/2000/svg"
   xmlns="http://www.w3.org/2000/svg"
   xmlns:sodipodi="http://sodipodi.sourceforge.net/DTD/sodipodi-0.dtd"
   xmlns:inkscape="http://www.inkscape.org/namespaces/inkscape"
   version="1.1"
   id="svg2"
   xml:space="preserve"
   width="200"
   height="200"
   viewBox="0 0 200 200"
   sodipodi:docname="fig_10_3_preview_xx.eps"><metadata
     id="metadata8"><rdf:RDF><cc:Work
         rdf:about=""><dc:format>image/svg+xml</dc:format><dc:type
           rdf:resource="http://purl.org/dc/dcmitype/StillImage" /></cc:Work></rdf:RDF></metadata><defs
     id="defs6"><clipPath
       clipPathUnits="userSpaceOnUse"
       id="clipPath82"><path
         d="M 280,150 H 1450 V 1450 H 280 Z"
         id="path80" /></clipPath></defs><sodipodi:namedview
     pagecolor="#ffffff"
     bordercolor="#666666"
     borderopacity="1"
     objecttolerance="10"
     gridtolerance="10"
     guidetolerance="10"
     inkscape:pageopacity="0"
     inkscape:pageshadow="2"
     inkscape:window-width="640"
     inkscape:window-height="480"
     id="namedview4" /><g
     id="g10"
     inkscape:groupmode="layer"
     inkscape:label="ink_ext_XXXXXX"
     transform="matrix(1.3333333,0,0,-1.3333333,0,200)"><g
       id="g12"
       transform="scale(0.1)"><path
         d="M 280,150 V 1450 M 410,150 V 1450 M 540,150 V 1450 M 670,150 V 1450 M 800,150 V 1450 M 930,150 V 1450 M 1060,150 V 1450 M 1190,150 V 1450 M 1320,150 V 1450 M 1450,150 V 1450 M 280,150 H 1450 M 280,280 H 1450 M 280,410 H 1450 M 280,540 H 1450 M 280,670 H 1450 M 280,800 H 1450 M 280,930 H 1450 M 280,1060 H 1450 M 280,1190 H 1450 M 280,1320 H 1450 M 280,1450 h 1170"
         style="fill:none;stroke:#cccccc;stroke-width:10;stroke-linecap:butt;stroke-linejoin:miter;stroke-miterlimit:10;stroke-dasharray:none;stroke-opacity:1"
         id="path14" /><path
         d="M 280,150 H 1450 M 280,150 V 1450"
         style="fill:none;stroke:#000000;stroke-width:10;stroke-linecap:butt;stroke-linejoin:miter;stroke-miterlimit:10;stroke-dasharray:none;stroke-opacity:1"
         id="path16" /><path
         d="m 280,150 h 1170 m -1170,0 v 1300 m 0,-1320 v 40"
         style="fill:none;stroke:#000000;stroke-width:10;stroke-linecap:butt;stroke-linejoin:miter;stroke-miterlimit:10;stroke-dasharray:none;stroke-opacity:1"
         id="path18" /><path
         d="M 280,150 H 1450 M 280,150 V 1450 M 410,130 v 40"
         style="fill:none;stroke:#000000;stroke-width:10;stroke-linecap:butt;stroke-linejoin:miter;stroke-miterlimit:10;stroke-dasharray:none;stroke-opacity:1"
         id="path20" /><path
         d="M 280,150 H 1450 M 280,150 V 1450 M 540,130 v 40"
         style="fill:none;stroke:#000000;stroke-width:10;stroke-linecap:butt;stroke-linejoin:miter;stroke-miterlimit:10;stroke-dasharray:none;stroke-opacity:1"
         id="path22" /><path
         d="M 280,150 H 1450 M 280,150 V 1450 M 670,130 v 40"
         style="fill:none;stroke:#000000;stroke-width:10;stroke-linecap:butt;stroke-linejoin:miter;stroke-miterlimit:10;stroke-dasharray:none;stroke-opacity:1"
         id="path24" /><path
         d="M 280,150 H 1450 M 280,150 V 1450 M 800,130 v 40"
         style="fill:none;stroke:#000000;stroke-width:10;stroke-linecap:butt;stroke-linejoin:miter;stroke-miterlimit:10;stroke-dasharray:none;stroke-opacity:1"
         id="path26" /><path
         d="M 280,150 H 1450 M 280,150 V 1450 M 930,130 v 40"
         style="fill:none;stroke:#000000;stroke-width:10;stroke-linecap:butt;stroke-linejoin:miter;stroke-miterlimit:10;stroke-dasharray:none;stroke-opacity:1"
         id="path28" /><path
         d="M 280,150 H 1450 M 280,150 V 1450 M 1060,130 v 40"
         style="fill:none;stroke:#000000;stroke-width:10;stroke-linecap:butt;stroke-linejoin:miter;stroke-miterlimit:10;stroke-dasharray:none;stroke-opacity:1"
         id="path30" /><path
         d="M 280,150 H 1450 M 280,150 V 1450 M 1190,130 v 40"
         style="fill:none;stroke:#000000;stroke-width:10;stroke-linecap:butt;stroke-linejoin:miter;stroke-miterlimit:10;stroke-dasharray:none;stroke-opacity:1"
         id="path32" /><path
         d="M 280,150 H 1450 M 280,150 V 1450 M 1320,130 v 40"
         style="fill:none;stroke:#000000;stroke-width:10;stroke-linecap:butt;stroke-linejoin:miter;stroke-miterlimit:10;stroke-dasharray:none;stroke-opacity:1"
         id="path34" /><path
         d="M 280,150 H 1450 M 280,150 V 1450 M 1450,130 v 40"
         style="fill:none;stroke:#000000;stroke-width:10;stroke-linecap:butt;stroke-linejoin:miter;stroke-miterlimit:10;stroke-dasharray:none;stroke-opacity:1"
         id="path36" /><path
         d="M 280,150 H 1450 M 280,150 V 1450 M 260,150 h 40"
         style="fill:none;stroke:#000000;stroke-width:10;stroke-linecap:butt;stroke-linejoin:miter;stroke-miterlimit:10;stroke-dasharray:none;stroke-opacity:1"
         id="path38" /><path
         d="M 280,150 H 1450 M 280,150 V 1450 M 260,280 h 40"
         style="fill:none;stroke:#000000;stroke-width:10;stroke-linecap:butt;stroke-linejoin:miter;stroke-miterlimit:10;stroke-dasharray:none;stroke-opacity:1"
         id="path40" /><path
         d="M 280,150 H 1450 M 280,150 V 1450 M 260,410 h 40"
         style="fill:none;stroke:#000000;stroke-width:10;stroke-linecap:butt;stroke-linejoin:miter;stroke-miterlimit:10;stroke-dasharray:none;stroke-opacity:1"
         id="path42" /><path
         d="M 280,150 H 1450 M 280,150 V 1450 M 260,540 h 40"
         style="fill:none;stroke:#000000;stroke-width:10;stroke-linecap:butt;stroke-linejoin:miter;stroke-miterlimit:10;stroke-dasharray:none;stroke-opacity:1"
         id="path44" /><path
         d="M 280,150 H 1450 M 280,150 V 1450 M 260,670 h 40"
         style="fill:none;stroke:#000000;stroke-width:10;stroke-linecap:butt;stroke-linejoin:miter;stroke-miterlimit:10;stroke-dasharray:none;stroke-opacity:1"
         id="path46" /><path
         d="M 280,150 H 1450 M 280,150 V 1450 M 260,800 h 40"
         style="fill:none;stroke:#000000;stroke-width:10;stroke-linecap:butt;stroke-linejoin:miter;stroke-miterlimit:10;stroke-dasharray:none;stroke-opacity:1"
         id="path48" /><path
         d="M 280,150 H 1450 M 280,150 V 1450 M 260,930 h 40"
         style="fill:none;stroke:#000000;stroke-width:10;stroke-linecap:butt;stroke-linejoin:miter;stroke-miterlimit:10;stroke-dasharray:none;stroke-opacity:1"
         id="path50" /><path
         d="m 280,150 h 1170 m -1170,0 v 1300 m -20,-390 h 40"
         style="fill:none;stroke:#000000;stroke-width:10;stroke-linecap:butt;stroke-linejoin:miter;stroke-miterlimit:10;stroke-dasharray:none;stroke-opacity:1"
         id="path52" /><path
         d="m 280,150 h 1170 m -1170,0 v 1300 m -20,-260 h 40"
         style="fill:none;stroke:#000000;stroke-width:10;stroke-linecap:butt;stroke-linejoin:miter;stroke-miterlimit:10;stroke-dasharray:none;stroke-opacity:1"
         id="path54" /><path
         d="m 280,150 h 1170 m -1170,0 v 1300 m -20,-130 h 40"
         style="fill:none;stroke:#000000;stroke-width:10;stroke-linecap:butt;stroke-linejoin:miter;stroke-miterlimit:10;stroke-dasharray:none;stroke-opacity:1"
         id="path56" /><path
         d="m 280,150 h 1170 m -1170,0 v 1300 m -20,0 h 40"
         style="fill:none;stroke:#000000;stroke-width:10;stroke-linecap:butt;stroke-linejoin:miter;stroke-miterlimit:10;stroke-dasharray:none;stroke-opacity:1"
         id="path58" /><g
         id="g60"
         transform="scale(10)"><text
           transform="matrix(1,0,0,-1,48.1469,2.2957)"
           style="font-variant:normal;font-weight:normal;font-size:12px;font-family:CMR12;-inkscape-font-specification:CMR12;writing-mode:lr-tb;fill:#000000;fill-opacity:1;fill-rule:nonzero;stroke:none"
           id="text74"><tspan
             x="0 5.868 23.073828 28.941828 34.80983 49.073833 54.941833 60.809834 75.073441 80.941437 86.809441"
             y="0"
             sodipodi:role="line"
             id="tspan62">50100150200</tspan><tspan
             x="-41.705898 -35.837898 -29.9699"
             y="-34.852001"
             sodipodi:role="line"
             id="tspan64">200</tspan><tspan
             x="-41.705898 -35.837898 -29.9699"
             y="-60.852001"
             sodipodi:role="line"
             id="tspan66">400</tspan><tspan
             x="-41.705898 -35.837898 -29.9699"
             y="-86.851997"
             sodipodi:role="line"
             id="tspan68">600</tspan><tspan
             x="-41.705898 -35.837898 -29.9699"
             y="-112.852"
             sodipodi:role="line"
             id="tspan70">800</tspan><tspan
             x="-47.559029 -41.691029 -35.823029 -29.95503"
             y="-138.85201"
             sodipodi:role="line"
             id="tspan72">1000</tspan></text></g><g
         id="g76"><g
           id="g78"
           clip-path="url(#clipPath82)"><path
             d="m 280,150 v 0 l 11.699,0.191 11.699,0.575 11.704,0.961 11.699,1.339 11.699,1.727 11.699,2.109 11.699,2.493 11.704,2.875 11.699,3.257 11.699,3.641 11.699,4.027 11.699,4.407 11.704,4.793 11.699,5.175 11.699,5.559 11.699,5.941 11.699,6.328 11.704,6.707 11.699,7.094 11.699,7.477 11.699,7.859 11.699,8.242 11.704,8.625 11.699,9.008 11.699,9.395 11.699,9.777 11.699,10.156 11.704,10.543 11.699,10.926 11.699,11.313 11.699,11.691 11.699,12.078 11.704,12.457 11.699,12.844 11.699,13.226 11.699,13.61 11.699,13.992 11.704,14.379 11.699,14.758 11.699,15.144 11.699,15.528 11.699,15.91 11.704,16.293 11.699,16.675 11.699,17.063 11.699,17.441 11.699,17.829 11.704,18.21 11.699,18.594 11.699,18.977 11.699,19.359 11.699,19.742 11.704,20.129 11.699,20.512 11.699,20.891 11.699,21.277 11.699,21.66 11.704,22.047 11.699,22.426 11.699,22.812 11.699,23.192 11.701,23.578 11.7,23.961 11.7,24.343 11.7,24.731 11.7,25.109 11.7,25.492 11.7,25.88 11.7,26.26 11.7,26.65 11.7,27.02 11.7,27.41 11.7,27.8 11.7,28.18 11.7,28.56 11.7,28.94 11.7,29.33 11.7,29.71 11.7,30.1 11.7,30.48 11.7,30.86 11.7,31.24 11.7,31.63 11.7,32.01 11.7,32.4 11.7,32.78 11.7,33.16 11.7,33.55 11.7,33.92 11.7,34.31 11.7,34.7 11.7,35.08 11.7,35.46 11.7,35.85 11.7,36.23 11.7,36.61 11.7,36.99 11.7,37.38 11.7,37.76 11.7,38.15"
             style="fill:none;stroke:#0000ff;stroke-width:10;stroke-linecap:butt;stroke-linejoin:miter;stroke-miterlimit:10;stroke-dasharray:none;stroke-opacity:1"
             id="path84" /><path
             d="m 841.602,586.195 v 0 l 1.246,2.18 1.25,2.18 1.246,2.183 1.25,2.18 1.246,2.18 1.25,2.183 1.246,2.18 1.25,2.18 1.246,2.183 1.246,2.18 1.25,2.18 1.246,2.183 1.25,2.18 1.246,2.18 1.25,2.183 1.246,2.18 1.25,2.18 1.247,2.183 1.25,2.18 1.246,2.18 1.25,2.183 1.246,2.18 1.25,2.179 1.246,2.184 1.25,2.18 1.246,2.179 1.25,2.184 1.246,2.18 1.25,2.179 1.246,2.184 1.25,2.18 1.246,2.179 1.25,2.184 1.246,2.18 1.25,2.179 1.246,2.184 1.25,2.18 1.246,2.179 1.25,2.184 1.247,2.18 1.25,2.179 1.246,2.184 1.25,2.18 1.246,2.179 1.25,2.184 1.246,2.18 1.25,2.179 1.246,2.184 1.25,2.18 1.246,2.179 1.25,2.18 1.246,2.183 1.246,2.18 1.25,2.184 1.246,2.179 1.25,2.18 1.246,2.18 1.25,2.183 1.246,2.18 1.25,2.18 1.247,2.183 1.25,2.18 1.246,2.18 1.25,2.183 1.246,2.18 1.25,2.18 1.246,2.183 1.25,2.18 1.246,2.18 1.25,2.183 1.246,2.18 1.25,2.18 1.246,2.183 1.25,2.18 1.246,2.18 1.25,2.183 1.246,2.18 1.25,2.18 1.246,2.183 1.25,2.18 1.247,2.18 1.25,2.183 1.246,2.18 1.25,2.18 1.246,2.183 1.25,2.18 1.246,2.18 1.25,2.183 1.246,2.18 1.25,2.179 1.246,2.184 1.25,2.18 1.246,2.179 1.246,2.184 1.25,2.18 1.246,2.179 1.25,2.184 1.246,2.18 1.25,2.179 1.246,2.184"
             style="fill:none;stroke:#ff0000;stroke-width:30;stroke-linecap:butt;stroke-linejoin:miter;stroke-miterlimit:10;stroke-dasharray:none;stroke-opacity:1"
             id="path86" /><path
             d="m 929,695.242 c 0,13.809 -11.191,25 -25,25 v 0 c -13.809,0 -25,-11.191 -25,-25 v 0 c 0,-13.804 11.191,-25 25,-25 v 0 c 13.809,0 25,11.196 25,25"
             style="fill:#8080ff;fill-opacity:1;fill-rule:nonzero;stroke:none"
             id="path88" /><path
             d="m 929,695.242 c 0,13.809 -11.191,25 -25,25 v 0 c -13.809,0 -25,-11.191 -25,-25 v 0 c 0,-13.804 11.191,-25 25,-25 v 0 c 13.809,0 25,11.196 25,25 z"
             style="fill:none;stroke:#000000;stroke-width:10;stroke-linecap:butt;stroke-linejoin:miter;stroke-miterlimit:10;stroke-dasharray:none;stroke-opacity:1"
             id="path90" /><path
             d="m 997.602,865.633 v 0 l 1.246,2.726 1.252,2.723 1.24,2.727 1.25,2.726 1.25,2.727 1.25,2.726 1.25,2.727 1.25,2.726 1.24,2.727 1.25,2.727 1.25,2.726 1.24,2.727 1.25,2.722 1.25,2.727 1.25,2.726 1.25,2.727 1.25,2.727 1.24,2.726 1.25,2.727 1.25,2.726 1.25,2.727 1.24,2.726 1.25,2.727 1.25,2.723 1.25,2.726 1.25,2.727 1.25,2.726 1.24,2.727 1.25,2.726 1.25,2.727 1.25,2.727 1.25,2.726 1.25,2.727 1.24,2.726 1.25,2.727 1.25,2.722 1.25,2.727 1.24,2.727 1.25,2.726 1.25,2.727 1.25,2.726 1.25,2.727 1.25,2.726 1.24,2.727 1.25,2.727 1.25,2.722 1.25,2.727 1.24,2.726 1.25,2.727 1.25,2.725 1.25,2.73 1.25,2.72 1.24,2.73 1.25,2.73 1.25,2.72 1.25,2.73 1.24,2.72 1.25,2.73 1.25,2.73 1.25,2.72 1.25,2.73 1.25,2.73 1.24,2.72 1.25,2.73 1.25,2.73 1.25,2.72 1.24,2.73 1.25,2.73 1.25,2.72 1.25,2.72 1.25,2.73 1.25,2.73 1.24,2.72 1.25,2.73 1.25,2.73 1.25,2.72 1.25,2.73 1.25,2.73 1.24,2.72 1.25,2.73 1.25,2.72 1.25,2.73 1.24,2.73 1.25,2.72 1.25,2.73 1.25,2.73 1.25,2.72 1.25,2.73 1.24,2.73 1.25,2.72 1.25,2.73 1.25,2.72 1.24,2.73 1.25,2.72 1.25,2.73 1.25,2.73 1.25,2.72 1.24,2.73 1.25,2.73 1.25,2.72"
             style="fill:none;stroke:#ff0000;stroke-width:30;stroke-linecap:butt;stroke-linejoin:miter;stroke-miterlimit:10;stroke-dasharray:none;stroke-opacity:1"
             id="path92" /><path
             d="m 1085,1001.94 c 0,13.81 -11.19,25 -25,25 v 0 c -13.81,0 -25,-11.19 -25,-25 v 0 c 0,-13.803 11.19,-24.999 25,-24.999 v 0 c 13.81,0 25,11.196 25,24.999"
             style="fill:#8080ff;fill-opacity:1;fill-rule:nonzero;stroke:none"
             id="path94" /><path
             d="m 1085,1001.94 c 0,13.81 -11.19,25 -25,25 v 0 c -13.81,0 -25,-11.19 -25,-25 v 0 c 0,-13.803 11.19,-24.999 25,-24.999 v 0 c 13.81,0 25,11.196 25,24.999 z"
             style="fill:none;stroke:#000000;stroke-width:10;stroke-linecap:butt;stroke-linejoin:miter;stroke-miterlimit:10;stroke-dasharray:none;stroke-opacity:1"
             id="path96" /><path
             d="m 1153.6,1213.22 v 0 l 1.25,3.28 1.25,3.27 1.24,3.27 1.25,3.27 1.25,3.27 1.25,3.27 1.25,3.28 1.25,3.26 1.24,3.28 1.25,3.27 1.25,3.27 1.24,3.27 1.25,3.27 1.25,3.27 1.25,3.28 1.25,3.27 1.25,3.27 1.24,3.27 1.25,3.27 1.25,3.27 1.25,3.28 1.24,3.27 1.25,3.27 1.25,3.27 1.25,3.27 1.25,3.27 1.25,3.27 1.24,3.27 1.25,3.28 1.25,3.27 1.25,3.27 1.25,3.27 1.25,3.27 1.24,3.27 1.25,3.28 1.25,3.27 1.25,3.27 1.24,3.27 1.25,3.27 1.25,3.27 1.25,3.27 1.25,3.28 1.25,3.26 1.24,3.28 1.25,3.27 1.25,3.27 1.25,3.27 1.24,3.27 1.25,3.27 1.25,3.28 1.25,3.27 1.25,3.27 1.24,3.27 1.25,3.27 1.25,3.27 1.25,3.28 1.24,3.27 1.25,3.27 1.25,3.27 1.25,3.27 1.25,3.27 1.25,3.27 1.24,3.27 1.25,3.28 1.25,3.27 1.25,3.27 1.24,3.27 1.25,3.27 1.25,3.27 1.25,3.28 1.25,3.27 1.25,3.27 1.24,3.27 1.25,3.27 1.25,3.27 1.25,3.28 1.25,3.27 1.25,3.27 1.24,3.27 1.25,3.27 1.25,3.27 1.25,3.27 1.24,3.27 1.25,3.28 1.25,3.27 1.25,3.27 1.25,3.27 1.25,3.27 1.24,3.27 1.25,3.28 1.25,3.27 1.25,3.27 1.24,3.27 1.25,3.27 1.25,3.27 1.25,3.27 1.25,3.27 1.24,3.27 1.25,3.28 1.25,3.27"
             style="fill:none;stroke:#ff0000;stroke-width:30;stroke-linecap:butt;stroke-linejoin:miter;stroke-miterlimit:10;stroke-dasharray:none;stroke-opacity:1"
             id="path98" /><path
             d="m 1241,1376.8 c 0,13.81 -11.19,25 -25,25 v 0 c -13.81,0 -25,-11.19 -25,-25 v 0 c 0,-13.81 11.19,-25 25,-25 v 0 c 13.81,0 25,11.19 25,25"
             style="fill:#8080ff;fill-opacity:1;fill-rule:nonzero;stroke:none"
             id="path100" /><path
             d="m 1241,1376.8 c 0,13.81 -11.19,25 -25,25 v 0 c -13.81,0 -25,-11.19 -25,-25 v 0 c 0,-13.81 11.19,-25 25,-25 v 0 c 13.81,0 25,11.19 25,25 z"
             style="fill:none;stroke:#000000;stroke-width:10;stroke-linecap:butt;stroke-linejoin:miter;stroke-miterlimit:10;stroke-dasharray:none;stroke-opacity:1"
             id="path102" /><g
             id="g104"
             transform="scale(10)"><text
               transform="matrix(1,0,0,-1,136.313,17.7)"
               style="font-variant:normal;font-weight:normal;font-size:10.8px;font-family:CMMI12;-inkscape-font-specification:CMMI12;writing-mode:lr-tb;fill:#000000;fill-opacity:1;fill-rule:nonzero;stroke:none"
               id="text110"><tspan
                 x="0"
                 y="0"
                 id="tspan106">x</tspan><tspan
                 x="-105.613"
                 y="-116.53"
                 id="tspan108">f</tspan></text><text
               transform="matrix(1,0,0,-1,37.0418,134.23)"
               style="font-variant:normal;font-weight:normal;font-size:10.8px;font-family:CMR12;-inkscape-font-specification:CMR12;writing-mode:lr-tb;fill:#000000;fill-opacity:1;fill-rule:nonzero;stroke:none"
               id="text114"><tspan
                 x="0"
                 y="0"
                 id="tspan112">(</tspan></text><text
               transform="matrix(1,0,0,-1,41.13907,134.23)"
               style="font-variant:normal;font-weight:normal;font-size:10.8px;font-family:CMMI12;-inkscape-font-specification:CMMI12;writing-mode:lr-tb;fill:#000000;fill-opacity:1;fill-rule:nonzero;stroke:none"
               id="text118"><tspan
                 x="0 6.0047998"
                 y="0"
                 sodipodi:role="line"
                 id="tspan116">x,</tspan></text><text
               transform="matrix(1,0,0,-1,51.84567,134.23)"
               style="font-variant:normal;font-weight:normal;font-size:10.8px;font-family:CMR12;-inkscape-font-specification:CMR12;writing-mode:lr-tb;fill:#000000;fill-opacity:1;fill-rule:nonzero;stroke:none"
               id="text122"><tspan
                 x="0"
                 y="0"
                 id="tspan120">0</tspan></text><text
               transform="matrix(1,0,0,-1,57.11325,134.23)"
               style="font-variant:normal;font-weight:normal;font-size:10.8px;font-family:CMMI12;-inkscape-font-specification:CMMI12;writing-mode:lr-tb;fill:#000000;fill-opacity:1;fill-rule:nonzero;stroke:none"
               id="text126"><tspan
                 x="0"
                 y="0"
                 id="tspan124">.</tspan></text><text
               transform="matrix(1,0,0,-1,60.03981,134.23)"
               style="font-variant:normal;font-weight:normal;font-size:10.8px;font-family:CMR12;-inkscape-font-specification:CMR12;writing-mode:lr-tb;fill:#000000;fill-opacity:1;fill-rule:nonzero;stroke:none"
               id="text130"><tspan
                 x="0 5.2811999"
                 y="0"
                 sodipodi:role="line"
                 id="tspan128">6)</tspan></text></g></g></g></g></g></svg>
