<?xml version="1.0" encoding="UTF-8"?>
<svg xmlns="http://www.w3.org/2000/svg" xmlns:xlink="http://www.w3.org/1999/xlink" width="555pt" height="555pt" viewBox="0 0 555 555" version="1.1">
<defs>
<clipPath id="clip1">
  <path d="M 48.5625 495 L 544 495 L 544 498 L 48.5625 498 Z M 48.5625 495 "/>
</clipPath>
<clipPath id="clip2">
  <path d="M 12 255 L 22 255 L 22 267.785156 L 12 267.785156 Z M 12 255 "/>
</clipPath>
</defs>
<g id="surface1">
<rect x="0" y="0" width="555" height="555" style="fill:rgb(100%,100%,100%);fill-opacity:1;stroke:none;"/>
<path style=" stroke:none;fill-rule:nonzero;fill:rgb(0%,0%,0%);fill-opacity:1;" d="M 393.207031 140.402344 L 419.367188 137.726562 L 401.46875 156.457031 L 393.207031 140.402344 "/>
<path style=" stroke:none;fill-rule:nonzero;fill:rgb(0%,0%,0%);fill-opacity:1;" d="M 173.914062 258.996094 L 172.261719 255.785156 L 396.511719 146.824219 L 398.164062 150.035156 L 173.914062 258.996094 "/>
<path style=" stroke:none;fill-rule:nonzero;fill:rgb(0%,0%,0%);fill-opacity:1;" d="M 401.46875 358.328125 L 419.367188 377.058594 L 393.207031 374.382812 L 401.46875 358.328125 "/>
<path style=" stroke:none;fill-rule:nonzero;fill:rgb(0%,0%,0%);fill-opacity:1;" d="M 172.261719 258.996094 L 173.914062 255.785156 L 398.164062 364.75 L 396.511719 367.960938 L 172.261719 258.996094 "/>
<path style=" stroke:none;fill-rule:nonzero;fill:rgb(0%,0%,0%);fill-opacity:1;" d="M 172.261719 258.996094 L 173.914062 255.785156 L 262.023438 298.601562 L 260.371094 301.8125 L 172.261719 258.996094 "/>
<path style=" stroke:none;fill-rule:nonzero;fill:rgb(0%,0%,0%);fill-opacity:1;" d="M 265.328125 292.179688 L 283.226562 310.90625 L 257.070312 308.234375 L 265.328125 292.179688 "/>
<path style=" stroke:none;fill-rule:nonzero;fill:rgb(0%,0%,0%);fill-opacity:1;" d="M 109.960938 331.433594 L 86.015625 342.007812 L 96.902344 318.738281 L 109.960938 331.433594 "/>
<path style=" stroke:none;fill-rule:nonzero;fill:rgb(0%,0%,0%);fill-opacity:1;" d="M 171.78125 256.121094 L 174.394531 258.660156 L 104.738281 326.355469 L 102.125 323.816406 L 171.78125 256.121094 "/>
<path style="fill:none;stroke-width:20.8125;stroke-linecap:butt;stroke-linejoin:round;stroke:rgb(0%,0%,0%);stroke-opacity:1;stroke-miterlimit:10;" d="M 1717.8125 2988.789062 L 1743.945312 2963.398438 L 1047.382812 2286.445312 L 1099.609375 2235.664062 L 860.15625 2129.921875 L 969.023438 2362.617188 L 1021.25 2311.835938 L 1717.8125 2988.789062 " transform="matrix(0.1,0,0,-0.1,0,555)"/>
<path style="fill:none;stroke-width:20.8125;stroke-linecap:butt;stroke-linejoin:round;stroke:rgb(0%,0%,0%);stroke-opacity:1;stroke-miterlimit:10;" d="M 1722.617188 2960.039062 L 1739.140625 2992.148438 L 2620.234375 2563.984375 L 2653.28125 2628.203125 L 2832.265625 2440.9375 L 2570.703125 2467.65625 L 2603.710938 2531.875 L 1722.617188 2960.039062 " transform="matrix(0.1,0,0,-0.1,0,555)"/>
<path style="fill:none;stroke-width:20.8125;stroke-linecap:butt;stroke-linejoin:round;stroke:rgb(0%,0%,0%);stroke-opacity:1;stroke-miterlimit:10;" d="M 1722.617188 2960.039062 L 1739.140625 2992.148438 L 3981.640625 1902.5 L 4014.6875 1966.71875 L 4193.671875 1779.414062 L 3932.070312 1806.171875 L 3965.117188 1870.390625 L 1722.617188 2960.039062 " transform="matrix(0.1,0,0,-0.1,0,555)"/>
<path style="fill:none;stroke-width:20.8125;stroke-linecap:butt;stroke-linejoin:round;stroke:rgb(0%,0%,0%);stroke-opacity:1;stroke-miterlimit:10;" d="M 1739.140625 2960.039062 L 1722.617188 2992.148438 L 3965.117188 4081.757812 L 3932.070312 4145.976562 L 4193.671875 4172.734375 L 4014.6875 3985.429688 L 3981.640625 4049.648438 L 1739.140625 2960.039062 " transform="matrix(0.1,0,0,-0.1,0,555)"/>
<g clip-path="url(#clip1)" clip-rule="nonzero">
<path style="fill:none;stroke-width:20.8125;stroke-linecap:butt;stroke-linejoin:round;stroke:rgb(0%,0%,0%);stroke-opacity:1;stroke-miterlimit:10;" d="M 499.492188 582.734375 L 5425.039062 582.734375 " transform="matrix(0.1,0,0,-0.1,0,555)"/>
</g>
<path style="fill:none;stroke-width:13.875;stroke-linecap:square;stroke-linejoin:miter;stroke:rgb(0%,0%,0%);stroke-opacity:1;stroke-miterlimit:10;" d="M 1772.5 2983.007812 C 1772.5 2956.210938 1750.742188 2934.453125 1723.945312 2934.453125 C 1697.109375 2934.453125 1675.390625 2956.210938 1675.390625 2983.007812 C 1675.390625 3009.84375 1697.109375 3031.5625 1723.945312 3031.5625 C 1750.742188 3031.5625 1772.5 3009.84375 1772.5 2983.007812 Z M 1772.5 2983.007812 " transform="matrix(0.1,0,0,-0.1,0,555)"/>
<path style=" stroke:none;fill-rule:nonzero;fill:rgb(0%,0%,0%);fill-opacity:1;" d="M 177.25 256.699219 C 177.25 259.378906 175.074219 261.554688 172.394531 261.554688 C 169.710938 261.554688 167.539062 259.378906 167.539062 256.699219 C 167.539062 254.015625 169.710938 251.84375 172.394531 251.84375 C 175.074219 251.84375 177.25 254.015625 177.25 256.699219 "/>
<path style=" stroke:none;fill-rule:nonzero;fill:rgb(0%,0%,0%);fill-opacity:1;" d="M 79.304688 351.035156 L 68.269531 351.035156 L 68.269531 350.734375 L 75.226562 339.199219 L 73.210938 339.199219 C 72.332031 339.199219 71.703125 339.28125 71.328125 339.4375 C 70.949219 339.597656 70.644531 339.851562 70.40625 340.195312 C 70.167969 340.542969 69.925781 341.164062 69.679688 342.0625 L 69.203125 342.0625 L 69.203125 338.378906 L 79.867188 338.378906 L 79.867188 338.722656 L 72.953125 350.171875 L 73.820312 350.171875 C 75.554688 350.171875 76.804688 349.921875 77.570312 349.421875 C 78.335938 348.921875 78.914062 348.015625 79.304688 346.703125 L 79.671875 346.703125 L 79.304688 351.035156 "/>
<path style=" stroke:none;fill-rule:nonzero;fill:rgb(0%,0%,0%);fill-opacity:1;" d="M 431.230469 387.503906 L 426.960938 377.660156 C 426.4375 376.476562 426.035156 375.730469 425.746094 375.425781 C 425.542969 375.179688 425.238281 375.023438 424.835938 374.949219 L 424.835938 374.453125 L 431.574219 374.453125 L 431.574219 374.949219 C 431.144531 374.949219 430.855469 375.023438 430.710938 375.164062 C 430.492188 375.367188 430.382812 375.605469 430.382812 375.882812 C 430.382812 376.214844 430.578125 376.84375 430.96875 377.769531 L 433.050781 382.515625 L 434.71875 378.417969 C 435.199219 377.234375 435.4375 376.402344 435.4375 375.925781 C 435.4375 375.636719 435.335938 375.40625 435.132812 375.230469 C 434.929688 375.058594 434.574219 374.964844 434.070312 374.949219 L 434.070312 374.453125 L 438.210938 374.453125 L 438.210938 374.949219 C 437.804688 374.992188 437.476562 375.136719 437.226562 375.382812 C 436.972656 375.628906 436.59375 376.351562 436.085938 377.550781 L 431.859375 387.503906 L 431.230469 387.503906 "/>
<path style=" stroke:none;fill-rule:nonzero;fill:rgb(0%,0%,0%);fill-opacity:1;" d="M 302.105469 305.640625 L 298.636719 296.339844 L 295.234375 305.640625 L 294.519531 305.640625 L 291.15625 296.449219 C 290.652344 295.046875 290.21875 294.128906 289.855469 293.691406 C 289.640625 293.40625 289.300781 293.203125 288.835938 293.085938 L 288.835938 292.589844 L 295.234375 292.589844 L 295.234375 293.085938 C 294.800781 293.085938 294.5 293.148438 294.332031 293.273438 C 294.167969 293.394531 294.085938 293.535156 294.085938 293.691406 C 294.085938 293.851562 294.230469 294.316406 294.519531 295.082031 L 296.382812 300.023438 L 298.160156 295.082031 L 298.027344 294.757812 C 297.757812 294.078125 297.519531 293.648438 297.316406 293.464844 C 297.113281 293.285156 296.800781 293.160156 296.382812 293.085938 L 296.382812 292.589844 L 302.863281 292.589844 L 302.863281 293.085938 C 302.359375 293.117188 302.035156 293.183594 301.898438 293.292969 C 301.761719 293.402344 301.695312 293.5625 301.695312 293.78125 C 301.695312 293.96875 301.832031 294.402344 302.105469 295.082031 L 303.882812 300.023438 L 305.507812 295.472656 C 305.742188 294.820312 305.855469 294.378906 305.855469 294.148438 C 305.855469 293.804688 305.773438 293.546875 305.605469 293.378906 C 305.441406 293.214844 305.105469 293.117188 304.597656 293.085938 L 304.597656 292.589844 L 308.351562 292.589844 L 308.351562 293.085938 C 307.945312 293.128906 307.621094 293.273438 307.375 293.519531 C 307.128906 293.765625 306.8125 294.445312 306.421875 295.558594 L 302.863281 305.640625 L 302.105469 305.640625 "/>
<path style="fill:none;stroke-width:13.875;stroke-linecap:butt;stroke-linejoin:round;stroke:rgb(0%,0%,0%);stroke-opacity:1;stroke-miterlimit:10;" d="M 499.492188 582.734375 L 5425.039062 582.734375 " transform="matrix(0.1,0,0,-0.1,0,555)"/>
<path style=" stroke:none;fill-rule:nonzero;fill:rgb(0%,0%,0%);fill-opacity:1;" d="M 295.882812 534.535156 C 296.171875 534.835938 296.390625 535.148438 296.535156 535.464844 C 296.648438 535.667969 296.824219 536.21875 297.054688 537.113281 L 297.835938 535.964844 C 298.039062 535.675781 298.285156 535.40625 298.582031 535.152344 C 298.878906 534.898438 299.136719 534.722656 299.351562 534.621094 C 299.496094 534.5625 299.65625 534.535156 299.828125 534.535156 C 300.074219 534.535156 300.273438 534.601562 300.425781 534.738281 C 300.578125 534.878906 300.652344 535.039062 300.652344 535.226562 C 300.652344 535.457031 300.609375 535.617188 300.523438 535.703125 C 300.363281 535.847656 300.175781 535.921875 299.960938 535.921875 C 299.828125 535.921875 299.699219 535.894531 299.570312 535.835938 C 299.296875 535.75 299.105469 535.703125 299.007812 535.703125 C 298.859375 535.703125 298.695312 535.785156 298.507812 535.941406 C 298.144531 536.246094 297.710938 536.839844 297.207031 537.71875 L 297.921875 540.734375 C 298.039062 541.199219 298.132812 541.472656 298.203125 541.570312 C 298.277344 541.664062 298.355469 541.710938 298.441406 541.710938 C 298.558594 541.710938 298.703125 541.644531 298.875 541.515625 C 299.195312 541.238281 299.46875 540.886719 299.699219 540.453125 L 300.003906 540.605469 C 299.628906 541.296875 299.15625 541.875 298.59375 542.339844 C 298.277344 542.597656 298.003906 542.730469 297.769531 542.730469 C 297.4375 542.730469 297.179688 542.539062 296.988281 542.164062 C 296.859375 541.933594 296.605469 540.953125 296.230469 539.21875 C 295.304688 540.804688 294.570312 541.824219 294.019531 542.273438 C 293.65625 542.578125 293.3125 542.730469 292.980469 542.730469 C 292.746094 542.730469 292.53125 542.640625 292.328125 542.46875 C 292.199219 542.339844 292.132812 542.164062 292.132812 541.949219 C 292.132812 541.761719 292.199219 541.601562 292.328125 541.472656 C 292.460938 541.339844 292.617188 541.277344 292.804688 541.277344 C 292.992188 541.277344 293.1875 541.371094 293.390625 541.558594 C 293.550781 541.6875 293.671875 541.753906 293.757812 541.753906 C 293.816406 541.753906 293.902344 541.710938 294.019531 541.621094 C 294.292969 541.390625 294.671875 540.90625 295.144531 540.171875 C 295.621094 539.433594 295.933594 538.898438 296.078125 538.566406 C 295.71875 537.136719 295.523438 536.382812 295.492188 536.3125 C 295.363281 535.921875 295.191406 535.648438 294.972656 535.488281 C 294.757812 535.328125 294.433594 535.25 293.996094 535.25 C 293.867188 535.25 293.714844 535.257812 293.542969 535.269531 L 293.542969 534.945312 L 295.882812 534.535156 "/>
<path style="fill:none;stroke-width:1.2;stroke-linecap:butt;stroke-linejoin:round;stroke:rgb(0%,0%,0%);stroke-opacity:1;stroke-miterlimit:10;" d="M 499.492188 582.734375 L 499.492188 527.265625 " transform="matrix(0.1,0,0,-0.1,0,555)"/>
<path style=" stroke:none;fill-rule:nonzero;fill:rgb(0%,0%,0%);fill-opacity:1;" d="M 46.4375 515.804688 C 46.4375 514.445312 46.644531 513.269531 47.054688 512.277344 C 47.46875 511.289062 48.011719 510.554688 48.691406 510.078125 C 49.226562 509.703125 49.777344 509.515625 50.339844 509.515625 C 51.25 509.515625 52.066406 509.976562 52.789062 510.902344 C 53.699219 512.058594 54.15625 513.628906 54.15625 515.605469 C 54.15625 516.996094 53.957031 518.171875 53.558594 519.140625 C 53.160156 520.109375 52.652344 520.816406 52.03125 521.253906 C 51.410156 521.695312 50.816406 521.917969 50.253906 521.917969 C 49.113281 521.917969 48.15625 521.242188 47.390625 519.902344 C 46.757812 518.757812 46.4375 517.390625 46.4375 515.804688 Z M 48.171875 516.019531 C 48.171875 517.667969 48.375 519.011719 48.78125 520.050781 C 49.113281 520.917969 49.609375 521.351562 50.273438 521.351562 C 50.59375 521.351562 50.921875 521.210938 51.261719 520.929688 C 51.601562 520.648438 51.859375 520.167969 52.03125 519.488281 C 52.304688 518.492188 52.441406 517.066406 52.441406 515.21875 C 52.441406 513.859375 52.296875 512.722656 52.007812 511.8125 C 51.808594 511.132812 51.53125 510.65625 51.183594 510.382812 C 50.953125 510.195312 50.664062 510.101562 50.320312 510.101562 C 49.929688 510.101562 49.574219 510.273438 49.257812 510.621094 C 48.835938 511.113281 48.550781 511.882812 48.398438 512.929688 C 48.246094 513.976562 48.171875 515.007812 48.171875 516.019531 "/>
<path style="fill:none;stroke-width:1.2;stroke-linecap:butt;stroke-linejoin:round;stroke:rgb(0%,0%,0%);stroke-opacity:1;stroke-miterlimit:10;" d="M 1730.898438 582.734375 L 1730.898438 527.265625 " transform="matrix(0.1,0,0,-0.1,0,555)"/>
<path style=" stroke:none;fill-rule:nonzero;fill:rgb(0%,0%,0%);fill-opacity:1;" d="M 170.011719 510.925781 L 172.917969 509.515625 L 173.199219 509.515625 L 173.199219 519.597656 C 173.199219 520.261719 173.226562 520.675781 173.285156 520.84375 C 173.34375 521.007812 173.457031 521.136719 173.632812 521.222656 C 173.804688 521.308594 174.160156 521.359375 174.695312 521.375 L 174.695312 521.699219 L 170.207031 521.699219 L 170.207031 521.375 C 170.769531 521.359375 171.136719 521.308594 171.300781 521.222656 C 171.46875 521.136719 171.585938 521.019531 171.648438 520.875 C 171.714844 520.730469 171.746094 520.304688 171.746094 519.597656 L 171.746094 513.15625 C 171.746094 512.277344 171.71875 511.714844 171.660156 511.46875 C 171.617188 511.277344 171.539062 511.140625 171.429688 511.054688 C 171.324219 510.96875 171.191406 510.925781 171.03125 510.925781 C 170.8125 510.925781 170.515625 511.019531 170.140625 511.207031 L 170.011719 510.925781 "/>
<path style="fill:none;stroke-width:1.2;stroke-linecap:butt;stroke-linejoin:round;stroke:rgb(0%,0%,0%);stroke-opacity:1;stroke-miterlimit:10;" d="M 2962.265625 582.734375 L 2962.265625 527.265625 " transform="matrix(0.1,0,0,-0.1,0,555)"/>
<path style=" stroke:none;fill-rule:nonzero;fill:rgb(0%,0%,0%);fill-opacity:1;" d="M 299.636719 519.402344 L 298.8125 521.699219 L 291.765625 521.699219 L 291.765625 521.375 C 293.832031 519.480469 295.289062 517.933594 296.132812 516.734375 C 296.980469 515.535156 297.402344 514.445312 297.402344 513.460938 C 297.402344 512.695312 297.171875 512.070312 296.707031 511.585938 C 296.246094 511.101562 295.6875 510.859375 295.039062 510.859375 C 294.460938 510.859375 293.9375 511.027344 293.464844 511.367188 C 292.996094 511.707031 292.652344 512.210938 292.4375 512.875 L 292.113281 512.875 C 292.257812 511.792969 292.632812 510.960938 293.238281 510.382812 C 293.847656 509.804688 294.605469 509.515625 295.515625 509.515625 C 296.484375 509.515625 297.292969 509.824219 297.941406 510.449219 C 298.59375 511.070312 298.917969 511.796875 298.917969 512.636719 C 298.917969 513.246094 298.773438 513.851562 298.484375 514.457031 C 298.050781 515.410156 297.351562 516.417969 296.382812 517.472656 C 294.921875 519.078125 294.003906 520.042969 293.628906 520.375 L 296.753906 520.375 C 297.386719 520.375 297.832031 520.351562 298.085938 520.300781 C 298.339844 520.25 298.566406 520.152344 298.777344 520.007812 C 298.988281 519.863281 299.164062 519.660156 299.308594 519.402344 L 299.636719 519.402344 "/>
<path style="fill:none;stroke-width:1.2;stroke-linecap:butt;stroke-linejoin:round;stroke:rgb(0%,0%,0%);stroke-opacity:1;stroke-miterlimit:10;" d="M 4193.671875 582.734375 L 4193.671875 527.265625 " transform="matrix(0.1,0,0,-0.1,0,555)"/>
<path style=" stroke:none;fill-rule:nonzero;fill:rgb(0%,0%,0%);fill-opacity:1;" d="M 415.773438 512.03125 C 416.121094 511.21875 416.550781 510.601562 417.074219 510.164062 C 417.59375 509.734375 418.238281 509.515625 419.003906 509.515625 C 419.972656 509.515625 420.707031 509.824219 421.214844 510.449219 C 421.605469 510.910156 421.800781 511.402344 421.800781 511.921875 C 421.800781 512.804688 421.25 513.707031 420.152344 514.632812 C 420.886719 514.921875 421.445312 515.332031 421.820312 515.867188 C 422.195312 516.402344 422.382812 517.03125 422.382812 517.753906 C 422.382812 518.78125 422.054688 519.667969 421.386719 520.421875 C 420.535156 521.417969 419.296875 521.917969 417.679688 521.917969 C 416.871094 521.917969 416.320312 521.816406 416.03125 521.613281 C 415.742188 521.410156 415.597656 521.195312 415.597656 520.960938 C 415.597656 520.789062 415.667969 520.640625 415.804688 520.519531 C 415.941406 520.394531 416.105469 520.332031 416.292969 520.332031 C 416.4375 520.332031 416.589844 520.355469 416.746094 520.398438 C 416.851562 520.425781 417.078125 520.53125 417.429688 520.714844 C 417.785156 520.894531 418.027344 521.007812 418.15625 521.050781 C 418.375 521.105469 418.605469 521.136719 418.851562 521.136719 C 419.445312 521.136719 419.964844 520.90625 420.414062 520.441406 C 420.859375 519.980469 421.085938 519.429688 421.085938 518.792969 C 421.085938 518.332031 420.984375 517.882812 420.78125 517.449219 C 420.621094 517.117188 420.449219 516.863281 420.261719 516.691406 C 420.015625 516.460938 419.671875 516.25 419.230469 516.0625 C 418.789062 515.875 418.339844 515.78125 417.875 515.78125 L 417.59375 515.78125 L 417.59375 515.5 C 418.058594 515.441406 418.523438 515.273438 418.992188 515 C 419.460938 514.726562 419.800781 514.398438 420.011719 514.011719 C 420.222656 513.628906 420.324219 513.203125 420.324219 512.722656 C 420.324219 512.132812 420.136719 511.648438 419.761719 511.273438 C 419.386719 510.894531 418.914062 510.707031 418.351562 510.707031 C 417.441406 510.707031 416.683594 511.191406 416.078125 512.160156 L 415.773438 512.03125 "/>
<path style="fill:none;stroke-width:1.2;stroke-linecap:butt;stroke-linejoin:round;stroke:rgb(0%,0%,0%);stroke-opacity:1;stroke-miterlimit:10;" d="M 5425.039062 582.734375 L 5425.039062 527.265625 " transform="matrix(0.1,0,0,-0.1,0,555)"/>
<path style=" stroke:none;fill-rule:nonzero;fill:rgb(0%,0%,0%);fill-opacity:1;" d="M 545.351562 517.296875 L 545.351562 518.554688 L 543.746094 518.554688 L 543.746094 521.699219 L 542.296875 521.699219 L 542.296875 518.554688 L 537.242188 518.554688 L 537.242188 517.425781 L 542.792969 509.515625 L 543.746094 509.515625 L 543.746094 517.296875 Z M 542.296875 517.296875 L 542.296875 511.355469 L 538.109375 517.296875 L 542.296875 517.296875 "/>
<path style="fill:none;stroke-width:1.2;stroke-linecap:butt;stroke-linejoin:round;stroke:rgb(0%,0%,0%);stroke-opacity:1;stroke-miterlimit:10;" d="M 1115.195312 582.734375 L 1115.195312 555 " transform="matrix(0.1,0,0,-0.1,0,555)"/>
<path style="fill:none;stroke-width:1.2;stroke-linecap:butt;stroke-linejoin:round;stroke:rgb(0%,0%,0%);stroke-opacity:1;stroke-miterlimit:10;" d="M 2346.5625 582.734375 L 2346.5625 555 " transform="matrix(0.1,0,0,-0.1,0,555)"/>
<path style="fill:none;stroke-width:1.2;stroke-linecap:butt;stroke-linejoin:round;stroke:rgb(0%,0%,0%);stroke-opacity:1;stroke-miterlimit:10;" d="M 3577.96875 582.734375 L 3577.96875 555 " transform="matrix(0.1,0,0,-0.1,0,555)"/>
<path style="fill:none;stroke-width:1.2;stroke-linecap:butt;stroke-linejoin:round;stroke:rgb(0%,0%,0%);stroke-opacity:1;stroke-miterlimit:10;" d="M 4809.335938 582.734375 L 4809.335938 555 " transform="matrix(0.1,0,0,-0.1,0,555)"/>
<path style="fill:none;stroke-width:13.875;stroke-linecap:butt;stroke-linejoin:round;stroke:rgb(0%,0%,0%);stroke-opacity:1;stroke-miterlimit:10;" d="M 499.492188 582.734375 L 499.492188 5369.375 " transform="matrix(0.1,0,0,-0.1,0,555)"/>
<g clip-path="url(#clip2)" clip-rule="nonzero">
<path style=" stroke:none;fill-rule:nonzero;fill:rgb(0%,0%,0%);fill-opacity:1;" d="M 16.757812 255.648438 C 16.960938 255.992188 17.097656 256.3125 17.171875 256.609375 C 17.242188 256.90625 17.320312 257.488281 17.410156 258.355469 L 17.777344 262.691406 C 18.140625 262.273438 18.652344 261.601562 19.316406 260.675781 C 19.632812 260.230469 20.03125 259.621094 20.507812 258.855469 C 20.796875 258.394531 20.976562 258.066406 21.050781 257.878906 C 21.078125 257.777344 21.09375 257.675781 21.09375 257.574219 C 21.09375 257.519531 21.074219 257.46875 21.03125 257.425781 C 20.984375 257.382812 20.878906 257.328125 20.703125 257.269531 C 20.53125 257.214844 20.390625 257.113281 20.28125 256.96875 C 20.171875 256.824219 20.117188 256.652344 20.117188 256.449219 C 20.117188 256.21875 20.1875 256.027344 20.324219 255.875 C 20.460938 255.722656 20.640625 255.648438 20.855469 255.648438 C 21.117188 255.648438 21.335938 255.753906 21.515625 255.972656 C 21.699219 256.1875 21.789062 256.484375 21.789062 256.859375 C 21.789062 257.324219 21.628906 257.855469 21.3125 258.453125 C 20.992188 259.054688 20.382812 259.96875 19.480469 261.195312 C 18.574219 262.425781 17.480469 263.769531 16.195312 265.230469 C 15.3125 266.226562 14.65625 266.859375 14.222656 267.125 C 13.789062 267.394531 13.417969 267.527344 13.117188 267.527344 C 12.929688 267.527344 12.765625 267.453125 12.628906 267.308594 C 12.492188 267.164062 12.421875 267.007812 12.421875 266.832031 C 12.421875 266.601562 12.519531 266.390625 12.714844 266.203125 C 12.910156 266.015625 13.117188 265.921875 13.332031 265.921875 C 13.449219 265.921875 13.550781 265.953125 13.636719 266.007812 C 13.679688 266.039062 13.730469 266.121094 13.789062 266.257812 C 13.847656 266.394531 13.898438 266.484375 13.941406 266.527344 C 13.96875 266.558594 14.003906 266.574219 14.046875 266.574219 C 14.078125 266.574219 14.136719 266.542969 14.222656 266.484375 C 14.554688 266.285156 14.929688 265.964844 15.347656 265.53125 C 15.914062 264.953125 16.332031 264.484375 16.605469 264.121094 L 16.109375 258.550781 C 16.035156 257.628906 15.917969 257.0625 15.75 256.859375 C 15.585938 256.65625 15.304688 256.558594 14.914062 256.558594 C 14.785156 256.558594 14.5625 256.578125 14.242188 256.621094 L 14.179688 256.296875 L 16.757812 255.648438 "/>
</g>
<path style="fill:none;stroke-width:1.2;stroke-linecap:butt;stroke-linejoin:round;stroke:rgb(0%,0%,0%);stroke-opacity:1;stroke-miterlimit:10;" d="M 499.492188 582.734375 L 443.984375 582.734375 " transform="matrix(0.1,0,0,-0.1,0,555)"/>
<path style=" stroke:none;fill-rule:nonzero;fill:rgb(0%,0%,0%);fill-opacity:1;" d="M 32.5625 497.765625 C 32.5625 496.40625 32.769531 495.230469 33.179688 494.242188 C 33.59375 493.253906 34.136719 492.519531 34.816406 492.042969 C 35.351562 491.664062 35.902344 491.476562 36.464844 491.476562 C 37.375 491.476562 38.191406 491.941406 38.914062 492.863281 C 39.824219 494.023438 40.28125 495.589844 40.28125 497.570312 C 40.28125 498.957031 40.082031 500.136719 39.683594 501.105469 C 39.285156 502.074219 38.777344 502.777344 38.15625 503.21875 C 37.535156 503.65625 36.941406 503.878906 36.378906 503.878906 C 35.238281 503.878906 34.28125 503.207031 33.515625 501.863281 C 32.882812 500.722656 32.5625 499.355469 32.5625 497.765625 Z M 34.296875 497.980469 C 34.296875 499.628906 34.5 500.972656 34.90625 502.015625 C 35.238281 502.882812 35.734375 503.316406 36.398438 503.316406 C 36.71875 503.316406 37.046875 503.175781 37.386719 502.894531 C 37.726562 502.609375 37.984375 502.128906 38.15625 501.449219 C 38.429688 500.453125 38.566406 499.03125 38.566406 497.179688 C 38.566406 495.820312 38.421875 494.6875 38.132812 493.777344 C 37.933594 493.097656 37.65625 492.621094 37.308594 492.34375 C 37.078125 492.15625 36.789062 492.0625 36.445312 492.0625 C 36.054688 492.0625 35.699219 492.234375 35.382812 492.582031 C 34.960938 493.074219 34.675781 493.84375 34.523438 494.890625 C 34.371094 495.941406 34.296875 496.96875 34.296875 497.980469 "/>
<path style="fill:none;stroke-width:1.2;stroke-linecap:butt;stroke-linejoin:round;stroke:rgb(0%,0%,0%);stroke-opacity:1;stroke-miterlimit:10;" d="M 499.492188 1779.414062 L 443.984375 1779.414062 " transform="matrix(0.1,0,0,-0.1,0,555)"/>
<path style=" stroke:none;fill-rule:nonzero;fill:rgb(0%,0%,0%);fill-opacity:1;" d="M 34.035156 372.175781 L 36.941406 370.765625 L 37.222656 370.765625 L 37.222656 380.847656 C 37.222656 381.511719 37.253906 381.925781 37.308594 382.09375 C 37.367188 382.257812 37.484375 382.386719 37.65625 382.472656 C 37.832031 382.558594 38.183594 382.609375 38.71875 382.625 L 38.71875 382.949219 L 34.230469 382.949219 L 34.230469 382.625 C 34.796875 382.609375 35.160156 382.558594 35.328125 382.472656 C 35.492188 382.386719 35.609375 382.269531 35.671875 382.125 C 35.738281 381.980469 35.773438 381.554688 35.773438 380.847656 L 35.773438 374.40625 C 35.773438 373.527344 35.742188 372.964844 35.683594 372.71875 C 35.640625 372.527344 35.566406 372.390625 35.457031 372.304688 C 35.347656 372.21875 35.214844 372.175781 35.054688 372.175781 C 34.839844 372.175781 34.542969 372.269531 34.167969 372.457031 L 34.035156 372.175781 "/>
<path style="fill:none;stroke-width:1.2;stroke-linecap:butt;stroke-linejoin:round;stroke:rgb(0%,0%,0%);stroke-opacity:1;stroke-miterlimit:10;" d="M 499.492188 2976.09375 L 443.984375 2976.09375 " transform="matrix(0.1,0,0,-0.1,0,555)"/>
<path style=" stroke:none;fill-rule:nonzero;fill:rgb(0%,0%,0%);fill-opacity:1;" d="M 40.171875 261.324219 L 39.347656 263.625 L 32.300781 263.625 L 32.300781 263.300781 C 34.371094 261.40625 35.824219 259.859375 36.671875 258.660156 C 37.515625 257.460938 37.941406 256.367188 37.941406 255.386719 C 37.941406 254.621094 37.707031 253.996094 37.246094 253.511719 C 36.78125 253.027344 36.226562 252.785156 35.578125 252.785156 C 34.996094 252.785156 34.472656 252.953125 34.003906 253.292969 C 33.535156 253.632812 33.191406 254.136719 32.972656 254.800781 L 32.648438 254.800781 C 32.792969 253.71875 33.167969 252.886719 33.777344 252.308594 C 34.382812 251.730469 35.144531 251.441406 36.054688 251.441406 C 37.023438 251.441406 37.832031 251.75 38.480469 252.371094 C 39.132812 252.992188 39.457031 253.722656 39.457031 254.5625 C 39.457031 255.171875 39.3125 255.777344 39.023438 256.382812 C 38.589844 257.335938 37.890625 258.339844 36.921875 259.398438 C 35.460938 261 34.542969 261.96875 34.167969 262.300781 L 37.289062 262.300781 C 37.925781 262.300781 38.371094 262.277344 38.621094 262.226562 C 38.875 262.175781 39.105469 262.078125 39.316406 261.933594 C 39.527344 261.789062 39.703125 261.585938 39.847656 261.324219 L 40.171875 261.324219 "/>
<path style="fill:none;stroke-width:1.2;stroke-linecap:butt;stroke-linejoin:round;stroke:rgb(0%,0%,0%);stroke-opacity:1;stroke-miterlimit:10;" d="M 499.492188 4172.734375 L 443.984375 4172.734375 " transform="matrix(0.1,0,0,-0.1,0,555)"/>
<path style=" stroke:none;fill-rule:nonzero;fill:rgb(0%,0%,0%);fill-opacity:1;" d="M 32.824219 134.632812 C 33.167969 133.820312 33.601562 133.199219 34.125 132.765625 C 34.644531 132.332031 35.285156 132.117188 36.054688 132.117188 C 37.023438 132.117188 37.757812 132.425781 38.265625 133.046875 C 38.65625 133.511719 38.851562 134.003906 38.851562 134.523438 C 38.851562 135.402344 38.300781 136.308594 37.203125 137.230469 C 37.941406 137.519531 38.496094 137.933594 38.871094 138.46875 C 39.246094 139.003906 39.433594 139.632812 39.433594 140.355469 C 39.433594 141.378906 39.101562 142.269531 38.4375 143.019531 C 37.585938 144.015625 36.347656 144.515625 34.730469 144.515625 C 33.921875 144.515625 33.371094 144.414062 33.082031 144.210938 C 32.792969 144.011719 32.648438 143.792969 32.648438 143.5625 C 32.648438 143.386719 32.71875 143.242188 32.855469 143.117188 C 32.992188 142.992188 33.15625 142.933594 33.34375 142.933594 C 33.488281 142.933594 33.640625 142.953125 33.796875 142.996094 C 33.898438 143.027344 34.128906 143.132812 34.480469 143.3125 C 34.835938 143.492188 35.078125 143.605469 35.207031 143.648438 C 35.425781 143.707031 35.65625 143.734375 35.902344 143.734375 C 36.492188 143.734375 37.015625 143.503906 37.460938 143.039062 C 37.910156 142.578125 38.132812 142.03125 38.132812 141.394531 C 38.132812 140.929688 38.03125 140.484375 37.832031 140.050781 C 37.671875 139.71875 37.5 139.464844 37.308594 139.289062 C 37.066406 139.0625 36.722656 138.851562 36.28125 138.664062 C 35.839844 138.476562 35.386719 138.382812 34.925781 138.382812 L 34.644531 138.382812 L 34.644531 138.101562 C 35.105469 138.042969 35.574219 137.875 36.042969 137.601562 C 36.511719 137.324219 36.851562 136.996094 37.0625 136.613281 C 37.269531 136.230469 37.375 135.800781 37.375 135.324219 C 37.375 134.730469 37.1875 134.246094 36.8125 133.871094 C 36.4375 133.496094 35.964844 133.308594 35.402344 133.308594 C 34.492188 133.308594 33.734375 133.792969 33.125 134.761719 L 32.824219 134.632812 "/>
<path style="fill:none;stroke-width:1.2;stroke-linecap:butt;stroke-linejoin:round;stroke:rgb(0%,0%,0%);stroke-opacity:1;stroke-miterlimit:10;" d="M 499.492188 5369.375 L 443.984375 5369.375 " transform="matrix(0.1,0,0,-0.1,0,555)"/>
<path style=" stroke:none;fill-rule:nonzero;fill:rgb(0%,0%,0%);fill-opacity:1;" d="M 40.300781 20.574219 L 40.300781 21.832031 L 38.699219 21.832031 L 38.699219 24.976562 L 37.246094 24.976562 L 37.246094 21.832031 L 32.195312 21.832031 L 32.195312 20.703125 L 37.742188 12.789062 L 38.699219 12.789062 L 38.699219 20.574219 Z M 37.246094 20.574219 L 37.246094 14.632812 L 33.0625 20.574219 L 37.246094 20.574219 "/>
<path style="fill:none;stroke-width:1.2;stroke-linecap:butt;stroke-linejoin:round;stroke:rgb(0%,0%,0%);stroke-opacity:1;stroke-miterlimit:10;" d="M 499.492188 1181.09375 L 471.757812 1181.09375 " transform="matrix(0.1,0,0,-0.1,0,555)"/>
<path style="fill:none;stroke-width:1.2;stroke-linecap:butt;stroke-linejoin:round;stroke:rgb(0%,0%,0%);stroke-opacity:1;stroke-miterlimit:10;" d="M 499.492188 2377.734375 L 471.757812 2377.734375 " transform="matrix(0.1,0,0,-0.1,0,555)"/>
<path style="fill:none;stroke-width:1.2;stroke-linecap:butt;stroke-linejoin:round;stroke:rgb(0%,0%,0%);stroke-opacity:1;stroke-miterlimit:10;" d="M 499.492188 3574.414062 L 471.757812 3574.414062 " transform="matrix(0.1,0,0,-0.1,0,555)"/>
<path style="fill:none;stroke-width:1.2;stroke-linecap:butt;stroke-linejoin:round;stroke:rgb(0%,0%,0%);stroke-opacity:1;stroke-miterlimit:10;" d="M 499.492188 4771.054688 L 471.757812 4771.054688 " transform="matrix(0.1,0,0,-0.1,0,555)"/>
</g>
</svg>
