<?xml version="1.0" encoding="UTF-8"?>
<svg xmlns="http://www.w3.org/2000/svg" xmlns:xlink="http://www.w3.org/1999/xlink" width="150pt" height="150pt" viewBox="0 0 150 150" version="1.1">
<g id="surface1">
<path style="fill:none;stroke-width:10;stroke-linecap:butt;stroke-linejoin:miter;stroke:rgb(100%,0%,100%);stroke-opacity:1;stroke-miterlimit:10;" d="M 1275 750 L 1270.78125 745.820312 L 1266.679688 741.640625 L 1262.617188 737.5 L 1258.59375 733.398438 L 1254.648438 729.335938 L 1250.78125 725.3125 L 1246.992188 721.289062 L 1243.242188 717.304688 L 1239.53125 713.359375 L 1235.9375 709.453125 L 1232.382812 705.546875 L 1228.867188 701.71875 L 1225.429688 697.851562 L 1222.03125 694.0625 L 1218.710938 690.3125 L 1215.429688 686.5625 L 1212.226562 682.8125 L 1209.0625 679.101562 L 1205.9375 675.429688 L 1202.890625 671.796875 L 1199.882812 668.164062 L 1196.953125 664.570312 L 1194.0625 661.015625 L 1191.210938 657.460938 L 1188.4375 653.90625 L 1185.703125 650.429688 L 1183.007812 646.914062 L 1180.351562 643.476562 L 1177.773438 640.039062 L 1175.234375 636.601562 L 1172.734375 633.203125 L 1170.273438 629.804688 L 1167.890625 626.445312 L 1165.546875 623.125 L 1163.242188 619.765625 L 1160.976562 616.484375 L 1158.75 613.203125 L 1156.5625 609.921875 L 1152.34375 603.4375 L 1148.28125 597.03125 L 1146.328125 593.828125 L 1144.414062 590.664062 L 1142.539062 587.5 L 1140.703125 584.375 L 1138.90625 581.25 L 1137.148438 578.125 L 1135.390625 575.039062 L 1133.710938 571.953125 L 1132.070312 568.867188 L 1130.46875 565.820312 L 1128.90625 562.773438 L 1127.382812 559.726562 L 1125.859375 556.71875 L 1122.96875 550.703125 L 1120.234375 544.765625 L 1118.90625 541.796875 L 1117.65625 538.867188 L 1116.367188 535.898438 L 1115.15625 532.96875 L 1113.984375 530.078125 L 1112.8125 527.148438 L 1110.625 521.367188 L 1109.570312 518.476562 L 1108.554688 515.585938 L 1107.539062 512.734375 L 1106.601562 509.84375 L 1105.664062 506.992188 L 1104.765625 504.140625 L 1103.867188 501.328125 L 1103.046875 498.476562 L 1102.226562 495.664062 L 1101.445312 492.851562 L 1099.960938 487.226562 L 1099.257812 484.453125 L 1098.59375 481.640625 L 1097.96875 478.867188 L 1097.34375 476.054688 L 1096.171875 470.507812 L 1095.15625 464.960938 L 1094.6875 462.226562 L 1094.21875 459.453125 L 1093.789062 456.71875 L 1093.398438 453.945312 L 1093.007812 451.210938 L 1092.304688 445.742188 L 1092.03125 442.96875 L 1091.484375 437.5 L 1091.25 434.765625 L 1091.054688 432.070312 L 1090.859375 429.335938 L 1090.546875 423.867188 L 1090.429688 421.132812 L 1090.351562 418.4375 L 1090.273438 415.703125 L 1090.234375 412.96875 L 1090.195312 410.273438 L 1090.195312 407.539062 L 1090.234375 404.804688 L 1090.273438 402.109375 L 1090.3125 399.375 L 1090.390625 396.640625 L 1090.507812 393.945312 L 1090.625 391.210938 L 1090.9375 385.742188 L 1091.132812 383.007812 L 1091.328125 380.3125 L 1091.796875 374.84375 L 1092.34375 369.375 L 1092.65625 366.601562 L 1093.710938 358.398438 L 1094.101562 355.625 L 1094.492188 352.890625 L 1094.921875 350.117188 L 1095.351562 347.382812 L 1096.289062 341.835938 L 1097.8125 333.515625 L 1098.398438 330.742188 L 1098.945312 327.929688 L 1099.53125 325.15625 L 1100.117188 322.34375 L 1100.742188 319.570312 L 1101.40625 316.757812 L 1102.03125 313.945312 L 1102.695312 311.132812 L 1103.398438 308.320312 L 1104.101562 305.46875 L 1104.84375 302.65625 L 1106.328125 296.953125 L 1107.890625 291.25 L 1108.710938 288.398438 L 1109.53125 285.507812 L 1110.351562 282.65625 L 1111.210938 279.765625 L 1112.109375 276.875 L 1112.96875 273.984375 L 1113.867188 271.054688 L 1114.804688 268.164062 L 1116.679688 262.304688 L 1118.632812 256.445312 L 1119.648438 253.476562 L 1120.664062 250.546875 L 1121.679688 247.578125 L 1122.734375 244.609375 L 1123.789062 241.601562 L 1124.882812 238.632812 L 1127.070312 232.617188 L 1128.203125 229.609375 L 1129.335938 226.5625 L 1130.46875 223.554688 L 1131.640625 220.507812 L 1132.851562 217.421875 L 1134.023438 214.375 L 1135.234375 211.328125 L 1136.484375 208.242188 L 1137.695312 205.117188 L 1138.984375 202.03125 L 1140.234375 198.90625 L 1141.523438 195.820312 L 1142.8125 192.65625 L 1144.140625 189.53125 L 1145.46875 186.367188 L 1146.835938 183.203125 L 1148.164062 180.039062 L 1149.570312 176.835938 L 1150.9375 173.632812 L 1152.34375 170.429688 L 1153.789062 167.226562 L 1155.195312 163.984375 L 1156.640625 160.742188 L 1158.125 157.5 L 1159.570312 154.21875 L 1161.054688 150.9375 L 1164.101562 144.375 L 1165.625 141.054688 L 1167.1875 137.734375 L 1168.710938 134.414062 L 1171.914062 127.695312 L 1173.515625 124.296875 L 1175.117188 120.9375 L 1176.757812 117.5 L 1178.398438 114.101562 L 1180.078125 110.664062 L 1181.71875 107.226562 L 1183.4375 103.789062 L 1185.117188 100.3125 L 1186.835938 96.835938 L 1188.554688 93.320312 L 1190.3125 89.84375 L 1192.070312 86.328125 L 1193.828125 82.773438 L 1197.421875 75.664062 L 1202.929688 64.882812 L 1204.765625 61.25 L 1206.640625 57.617188 L 1208.554688 53.945312 L 1210.429688 50.273438 L 1212.34375 46.601562 L 1214.296875 42.890625 L 1216.210938 39.179688 L 1218.164062 35.46875 L 1222.148438 27.96875 L 1226.132812 20.390625 L 1228.164062 16.5625 L 1230.234375 12.734375 L 1232.265625 8.90625 L 1234.335938 5.039062 L 1236.445312 1.171875 L 1238.515625 -2.695312 L 1240.625 -6.601562 L 1247.070312 -18.4375 L 1251.445312 -26.40625 L 1253.632812 -30.429688 L 1255.859375 -34.453125 L 1260.3125 -42.578125 L 1262.578125 -46.640625 L 1264.84375 -50.742188 L 1267.148438 -54.882812 L 1269.414062 -59.023438 L 1271.757812 -63.164062 L 1274.0625 -67.34375 L 1276.445312 -71.523438 L 1278.789062 -75.742188 L 1281.171875 -79.960938 L 1283.554688 -84.21875 L 1285.976562 -88.476562 L 1290.820312 -97.070312 L 1295.742188 -105.742188 L 1298.203125 -110.117188 L 1300.703125 -114.53125 L 1303.203125 -118.90625 L 1305.742188 -123.359375 L 1308.28125 -127.773438 L 1310.859375 -132.265625 L 1313.398438 -136.757812 L 1316.015625 -141.25 L 1318.59375 -145.78125 L 1321.210938 -150.3125 L 1323.867188 -154.882812 L 1326.484375 -159.492188 L 1329.140625 -164.101562 L 1331.835938 -168.710938 L 1334.53125 -173.398438 L 1337.265625 -178.046875 L 1339.960938 -182.773438 L 1342.695312 -187.460938 L 1348.242188 -196.992188 L 1351.054688 -201.757812 L 1353.828125 -206.5625 L 1356.640625 -211.40625 L 1359.492188 -216.25 L 1362.34375 -221.132812 L 1371.015625 -235.898438 L 1373.945312 -240.859375 L 1376.875 -245.859375 L 1379.804688 -250.898438 L 1382.773438 -255.9375 L 1385.78125 -260.976562 L 1388.789062 -266.054688 L 1391.796875 -271.171875 L 1394.84375 -276.328125 " transform="matrix(0.1,0,0,-0.1,0,150)"/>
<path style="fill:none;stroke-width:8.67709;stroke-linecap:butt;stroke-linejoin:miter;stroke:rgb(100%,0%,100%);stroke-opacity:1;stroke-miterlimit:10;" d="M 1106.32907 650.781806 L 1109.955823 654.442454 L 1113.68426 658.103101 L 1117.446593 661.797644 L 1121.276715 665.526081 L 1125.140732 669.288413 L 1129.072538 673.084641 L 1133.10603 676.914763 L 1137.173416 680.77878 L 1141.274697 684.676692 L 1145.477663 688.608498 L 1149.748419 692.540305 L 1154.053069 696.539902 L 1158.459404 700.573393 L 1162.933529 704.640779 L 1167.441549 708.74206 L 1172.051253 712.877237 L 1176.694853 717.046307 L 1181.440137 721.249273 L 1186.253211 725.486134 L 1191.134074 729.75689 L 1196.116622 734.095435 L 1201.133065 738.467875 L 1206.217298 742.87421 L 1211.403216 747.31444 L 1216.656923 751.788565 L 1222.012315 756.33048 L 1227.435497 760.872395 L 1232.926468 765.482099 L 1238.485229 770.159593 L 1244.145675 774.837088 L 1249.873911 779.616267 L 1255.703831 784.395445 L 1261.601541 789.242414 L 1267.600936 794.123278 L 1273.702016 799.071931 L 1279.870885 804.054479 L 1286.107544 809.070922 L 1292.445887 814.155155 L 1298.885916 819.273283 L 1305.427629 824.4592 L 1312.071026 829.712908 L 1318.782214 835.00051 L 1325.595086 840.355902 L 1332.509642 845.745189 L 1339.525884 851.202265 L 1346.64381 856.693237 L 1353.86342 862.285893 L 1361.184716 867.912444 L 1368.607696 873.57289 L 1376.13236 879.33502 L 1383.75871 885.131046 L 1391.486744 890.994861 L 1399.350357 896.926466 L 1407.315655 902.891966 L 1415.382638 908.95915 L 1423.551305 915.06023 L 1431.855552 921.262994 L 1440.261484 927.499653 L 1448.802995 933.804102 L 1457.446191 940.210235 L 1466.191072 946.650263 L 1475.105427 953.191976 L 1484.121466 959.767584 L 1493.239191 966.444877 L 1502.526389 973.189959 L 1511.915273 980.002831 L 1521.439735 986.883493 L 1531.065883 993.831944 L 1540.861505 1000.882081 L 1550.792706 1008.000007 L 1560.859488 1015.219617 L 1571.027953 1022.473123 L 1581.365893 1029.862208 L 1591.839413 1037.285188 L 1602.482407 1044.843747 L 1613.227086 1052.436202 L 1624.175134 1060.130341 L 1635.224867 1067.926164 L 1646.444074 1075.789778 L 1657.798861 1083.755076 L 1669.323122 1091.822059 L 1680.982963 1099.956831 L 1692.846173 1108.193289 L 1704.811067 1116.565325 L 1716.979331 1124.971257 L 1729.283175 1133.512768 L 1741.790388 1142.155964 L 1754.43318 1150.86695 L 1767.279342 1159.713515 L 1780.294978 1168.62787 L 1793.446193 1177.64391 L 1806.834673 1186.795529 L 1820.358733 1196.048832 L 1834.086161 1205.403821 L 1847.983064 1214.894389 L 1862.083337 1224.452747 L 1876.353084 1234.146684 L 1890.8262 1243.942306 L 1905.502686 1253.873508 L 1920.348646 1263.906394 L 1935.397975 1274.074859 L 1950.684568 1284.34501 L 1966.140636 1294.75074 L 1981.833968 1305.258154 L 1997.696775 1315.901148 L 2013.796845 1326.679722 L 2030.100285 1337.593875 L 2046.64099 1348.643608 L 2063.385063 1359.795025 L 2080.366401 1371.115917 L 2097.551108 1382.538494 L 2114.973079 1394.09665 L 2132.66621 1405.82428 L 2150.528814 1417.653595 L 2168.662578 1429.68628 L 2187.033606 1441.820649 L 2205.675794 1454.090598 L 2224.52135 1466.530021 L 2243.638066 1479.138918 L 2263.02594 1491.883395 L 2282.651079 1504.763452 L 2302.513482 1517.846878 L 2322.680939 1531.031988 L 2343.08566 1544.420468 L 2363.795435 1557.944527 L 2384.742475 1571.671956 L 2405.994568 1585.534964 L 2427.517821 1599.567447 L 2449.312232 1613.803299 L 2471.411698 1628.174731 L 2493.782322 1642.749531 L 2516.458001 1657.493807 L 2539.438733 1672.407556 L 2562.72452 1687.524675 L 2586.31536 1702.811269 L 2610.211255 1718.301232 L 2634.446098 1733.994564 L 2658.985995 1749.823475 L 2683.830946 1765.923546 L 2709.014847 1782.193091 L 2734.537695 1798.632111 L 2760.365598 1815.308395 L 2786.566345 1832.188048 L 2813.106041 1849.27107 L 2839.984685 1866.557462 L 2867.236173 1884.081118 L 2894.82661 1901.808143 L 2922.789891 1919.772432 L 2951.126015 1937.940091 L 2979.834983 1956.345014 L 3008.916795 1974.987201 L 3038.371451 1993.866653 L 3068.198951 2012.949473 L 3098.433189 2032.303453 L 3129.074165 2051.860802 L 3160.121881 2071.68931 L 3191.576335 2091.755083 L 3223.403632 2112.092014 L 3255.671563 2132.66621 L 3288.380128 2153.511564 L 3321.495432 2174.628078 L 3355.051368 2195.981856 L 3389.047939 2217.606793 L 3423.485143 2239.536784 L 3458.396875 2261.70404 L 3493.715346 2284.176349 L 3529.54224 2306.919817 L 3565.809768 2329.934445 L 3602.585719 2353.254126 L 3639.802303 2376.878861 L 3677.527311 2400.774756 L 3715.760742 2425.009599 L 3754.468702 2449.515601 L 3793.685085 2474.360553 L 3833.409891 2499.476663 L 3873.64312 2524.965617 L 3914.418667 2550.72573 L 3955.736533 2576.858687 L 3997.596717 2603.296698 L 4039.999219 2630.073658 L 4082.944039 2657.155671 L 4126.431178 2684.644424 L 4170.528424 2712.43823 L 4215.167988 2740.60488 L 4260.383766 2769.110479 L 4306.243546 2797.988922 L 4352.645645 2827.240208 L 4399.691746 2856.864338 L 4447.314061 2886.827417 L 4495.580378 2917.197235 L 4544.456803 2947.973791 L 4593.977231 2979.123191 L 4644.175557 3010.645435 L 4694.983991 3042.608312 L 4746.470322 3074.944033 L 4798.634551 3107.720387 L 4851.476678 3140.90348 L 4904.996703 3174.527207 L 4959.22852 3208.557672 L 5014.17213 3243.028771 L 5069.793637 3277.906608 L 5126.160832 3313.292869 L 5183.273714 3349.085868 L 5241.132284 3385.353396 L 5299.736542 3422.061557 L 5359.086487 3459.244247 L 5419.216014 3496.93536 L 5480.125124 3535.067106 L 5541.847711 3573.707276 L 5604.34988 3612.821974 L 5667.665526 3652.445096 L 5731.828545 3692.610535 L 5796.805041 3733.250503 L 5862.628909 3774.398895 L 5929.334044 3816.089604 L 5996.886551 3858.322632 L 6065.286431 3901.097977 L 6134.635367 3944.415641 L 6204.831675 3988.275623 L 6275.97704 4032.711819 L 6348.037567 4077.724227 L 6421.013256 4123.312848 L 6494.971897 4169.443788 L 6569.879595 4216.21873 L 6645.736349 4263.569885 L 6722.60995 4311.531149 L 6800.466502 4360.10252 L 6879.339901 4409.283999 L 6959.230147 4459.143376 L 7040.171134 4509.612861 L 7122.162862 4560.726348 L 7205.205333 4612.483839 L 7289.332439 4664.919227 L 7374.544182 4718.032513 L 7460.874456 4771.823697 L 7548.323261 4826.292778 L 7636.924492 4881.473652 L 7726.644254 4937.366319 L 7817.550338 4993.970778 L 7909.642742 5051.320924 L 8002.921468 5109.382864 L 8097.386514 5168.19049 L 8193.105672 5227.777699 L 8290.045045 5288.110596 L 8388.272424 5349.223075 L 8487.753913 5411.115136 L 8588.523409 5473.820675 L 8690.614804 5537.305796 L 8794.028101 5601.638289 L 8898.763298 5666.784259 L 9004.888185 5732.777602 L 9112.402762 5799.584422 L 9221.273135 5867.306403 L 9331.567093 5935.875757 L 9443.284637 6005.326378 L 9556.45966 6075.624371 L 9671.126059 6146.905316 L 9787.249937 6219.033632 L 9904.899085 6292.144901 L 10024.005714 6366.171331 L 10144.807087 6441.146819 L 10266.99815 6517.105257 L 10390.883957 6594.046648 L 10516.396719 6671.97099 L 10643.50254 6750.878284 L 10772.201421 6830.83632 L 10902.595047 6911.811202 L 11034.683416 6993.836825 L 11168.500425 7076.879295 L 11304.113863 7161.040296 L 11441.38815 7246.252039 L 11580.492761 7332.582313 L 11721.393801 7420.031118 L 11864.09127 7508.56456 L 12008.686852 7598.284322 L 12155.112759 7689.156511 L 12303.402884 7781.181126 L 12453.692807 7874.425956 L 12605.914739 7968.823213 L 12760.102574 8064.47458 L 12916.290207 8161.346164 L 13074.511534 8259.471858 L 13234.800449 8358.885558 L 13397.089161 8459.553368 L 13561.513252 8561.509185 L 13728.106615 8664.786901 L 13896.801462 8769.420414 L 14067.699475 8875.375826 L 14240.902342 8982.72093 L 14416.308375 9091.455723 L 14593.883681 9201.546312 L 14773.89942 9313.094381 L 14956.08443 9426.09993 L 15140.811557 9540.529064 L 15327.809642 9656.449573 L 15517.315948 9773.861457 L 15709.194896 9892.798611 L 15903.615961 10013.29493 L 16100.511352 10135.316519 L 16300.016649 10258.897272 " transform="matrix(0.115246,0,0,-0.115246,0,150)"/>
<path style=" stroke:none;fill-rule:nonzero;fill:rgb(0%,0%,0%);fill-opacity:1;" d="M 4.6875 144.375 L -6.480469 149.957031 L -6.886719 148.59375 L -7.523438 151.261719 L -5.007812 152.351562 L -5.855469 151.210938 L 5.3125 145.625 L 4.6875 144.375 "/>
<path style=" stroke:none;fill-rule:nonzero;fill:rgb(0%,0%,0%);fill-opacity:1;" d="M 4.652344 126.890625 L -6.1875 133.085938 L -6.667969 131.75 L -7.15625 134.445312 L -4.582031 135.394531 L -5.492188 134.300781 L 5.347656 128.109375 L 4.652344 126.890625 "/>
<path style=" stroke:none;fill-rule:nonzero;fill:rgb(0%,0%,0%);fill-opacity:1;" d="M 4.613281 109.417969 L -5.777344 116.34375 L -6.347656 115.039062 L -6.648438 117.765625 L -4.019531 118.535156 L -5 117.507812 L 5.386719 110.582031 L 4.613281 109.417969 "/>
<path style=" stroke:none;fill-rule:nonzero;fill:rgb(0%,0%,0%);fill-opacity:1;" d="M 4.5625 91.953125 L -5.1875 99.753906 L -5.867188 98.503906 L -5.933594 101.246094 L -3.242188 101.785156 L -4.3125 100.84375 L 5.4375 93.046875 L 4.5625 91.953125 "/>
<path style=" stroke:none;fill-rule:nonzero;fill:rgb(0%,0%,0%);fill-opacity:1;" d="M 4.503906 74.503906 L -4.324219 83.332031 L -5.136719 82.167969 L -4.898438 84.898438 L -2.167969 85.136719 L -3.332031 84.324219 L 5.496094 75.496094 L 4.503906 74.503906 "/>
<path style=" stroke:none;fill-rule:nonzero;fill:rgb(0%,0%,0%);fill-opacity:1;" d="M 4.441406 57.082031 L -3.050781 67.066406 L -4.023438 66.03125 L -3.398438 68.699219 L -0.664062 68.550781 L -1.929688 67.90625 L 5.558594 57.917969 L 4.441406 57.082031 "/>
<path style=" stroke:none;fill-rule:nonzero;fill:rgb(0%,0%,0%);fill-opacity:1;" d="M 4.375 39.6875 L -1.210938 50.851562 L -2.351562 50.007812 L -1.261719 52.523438 L 1.40625 51.886719 L 0.0429688 51.480469 L 5.625 40.3125 L 4.375 39.6875 "/>
<path style=" stroke:none;fill-rule:nonzero;fill:rgb(0%,0%,0%);fill-opacity:1;" d="M 4.320312 22.328125 L 1.292969 34.441406 L -0.00390625 33.863281 L 1.605469 36.082031 L 4.070312 34.882812 L 2.652344 34.78125 L 5.679688 22.671875 L 4.320312 22.328125 "/>
<path style=" stroke:none;fill-rule:nonzero;fill:rgb(0%,0%,0%);fill-opacity:1;" d="M 4.300781 5 L 4.300781 17.484375 L 2.898438 17.238281 L 5 19 L 7.101562 17.238281 L 5.699219 17.484375 L 5.699219 5 L 4.300781 5 "/>
<path style=" stroke:none;fill-rule:nonzero;fill:rgb(0%,0%,0%);fill-opacity:1;" d="M 22.222656 144.355469 L 10.75 149.273438 L 10.425781 147.890625 L 9.632812 150.515625 L 12.078125 151.75 L 11.300781 150.5625 L 22.777344 145.644531 L 22.222656 144.355469 "/>
<path style=" stroke:none;fill-rule:nonzero;fill:rgb(0%,0%,0%);fill-opacity:1;" d="M 22.1875 126.875 L 11.019531 132.457031 L 10.613281 131.09375 L 9.976562 133.761719 L 12.492188 134.851562 L 11.648438 133.710938 L 22.8125 128.125 L 22.1875 126.875 "/>
<path style=" stroke:none;fill-rule:nonzero;fill:rgb(0%,0%,0%);fill-opacity:1;" d="M 22.140625 109.398438 L 11.433594 115.824219 L 10.925781 114.496094 L 10.496094 117.203125 L 13.085938 118.097656 L 12.15625 117.023438 L 22.859375 110.601562 L 22.140625 109.398438 "/>
<path style=" stroke:none;fill-rule:nonzero;fill:rgb(0%,0%,0%);fill-opacity:1;" d="M 22.082031 91.941406 L 12.09375 99.429688 L 11.449219 98.164062 L 11.300781 100.898438 L 13.96875 101.523438 L 12.933594 100.550781 L 22.917969 93.058594 L 22.082031 91.941406 "/>
<path style=" stroke:none;fill-rule:nonzero;fill:rgb(0%,0%,0%);fill-opacity:1;" d="M 22.003906 74.503906 L 13.175781 83.332031 L 12.363281 82.167969 L 12.601562 84.898438 L 15.332031 85.136719 L 14.167969 84.324219 L 22.996094 75.496094 L 22.003906 74.503906 "/>
<path style=" stroke:none;fill-rule:nonzero;fill:rgb(0%,0%,0%);fill-opacity:1;" d="M 21.917969 57.113281 L 15.757812 66.351562 L 14.730469 65.367188 L 15.5 68 L 18.222656 67.699219 L 16.921875 67.128906 L 23.082031 57.886719 L 21.917969 57.113281 "/>
<path style=" stroke:none;fill-rule:nonzero;fill:rgb(0%,0%,0%);fill-opacity:1;" d="M 21.835938 39.777344 L 18.816406 48.839844 L 17.566406 48.164062 L 19 50.5 L 21.550781 49.492188 L 20.144531 49.285156 L 23.164062 40.222656 L 21.835938 39.777344 "/>
<path style=" stroke:none;fill-rule:nonzero;fill:rgb(0%,0%,0%);fill-opacity:1;" d="M 21.800781 22.5 L 21.800781 31.484375 L 20.398438 31.238281 L 22.5 33 L 24.601562 31.238281 L 23.199219 31.484375 L 23.199219 22.5 L 21.800781 22.5 "/>
<path style=" stroke:none;fill-rule:nonzero;fill:rgb(0%,0%,0%);fill-opacity:1;" d="M 21.835938 5.222656 L 24.855469 14.285156 L 23.449219 14.492188 L 26 15.5 L 27.433594 13.164062 L 26.183594 13.839844 L 23.164062 4.777344 L 21.835938 5.222656 "/>
<path style=" stroke:none;fill-rule:nonzero;fill:rgb(0%,0%,0%);fill-opacity:1;" d="M 39.777344 144.335938 L 27.933594 148.285156 L 27.726562 146.878906 L 26.71875 149.425781 L 29.054688 150.863281 L 28.378906 149.613281 L 40.222656 145.664062 L 39.777344 144.335938 "/>
<path style=" stroke:none;fill-rule:nonzero;fill:rgb(0%,0%,0%);fill-opacity:1;" d="M 39.738281 126.851562 L 28.148438 131.488281 L 27.855469 130.09375 L 27 132.699219 L 29.417969 133.996094 L 28.667969 132.785156 L 40.261719 128.148438 L 39.738281 126.851562 "/>
<path style=" stroke:none;fill-rule:nonzero;fill:rgb(0%,0%,0%);fill-opacity:1;" d="M 39.6875 109.375 L 28.519531 114.957031 L 28.113281 113.59375 L 27.476562 116.261719 L 29.992188 117.351562 L 29.148438 116.210938 L 40.3125 110.625 L 39.6875 109.375 "/>
<path style=" stroke:none;fill-rule:nonzero;fill:rgb(0%,0%,0%);fill-opacity:1;" d="M 39.613281 91.917969 L 30.371094 98.078125 L 29.800781 96.777344 L 29.5 99.5 L 32.132812 100.269531 L 31.148438 99.242188 L 40.386719 93.082031 L 39.613281 91.917969 "/>
<path style=" stroke:none;fill-rule:nonzero;fill:rgb(0%,0%,0%);fill-opacity:1;" d="M 39.503906 74.503906 L 33.578125 80.433594 L 32.761719 79.269531 L 33 82 L 35.730469 82.238281 L 34.566406 81.421875 L 40.496094 75.496094 L 39.503906 74.503906 "/>
<path style=" stroke:none;fill-rule:nonzero;fill:rgb(0%,0%,0%);fill-opacity:1;" d="M 39.375 57.1875 L 36.550781 62.832031 L 35.410156 61.984375 L 36.5 64.5 L 39.167969 63.863281 L 37.804688 63.457031 L 40.625 57.8125 L 39.375 57.1875 "/>
<path style=" stroke:none;fill-rule:nonzero;fill:rgb(0%,0%,0%);fill-opacity:1;" d="M 39.300781 40 L 39.300781 45.484375 L 37.898438 45.238281 L 40 47 L 42.101562 45.238281 L 40.699219 45.484375 L 40.699219 40 L 39.300781 40 "/>
<path style=" stroke:none;fill-rule:nonzero;fill:rgb(0%,0%,0%);fill-opacity:1;" d="M 39.375 22.8125 L 42.195312 28.457031 L 40.832031 28.863281 L 43.5 29.5 L 44.589844 26.984375 L 43.449219 27.832031 L 40.625 22.1875 L 39.375 22.8125 "/>
<path style=" stroke:none;fill-rule:nonzero;fill:rgb(0%,0%,0%);fill-opacity:1;" d="M 39.503906 5.496094 L 45.433594 11.421875 L 44.269531 12.238281 L 47 12 L 47.238281 9.269531 L 46.421875 10.433594 L 40.496094 4.503906 L 39.503906 5.496094 "/>
<path style=" stroke:none;fill-rule:nonzero;fill:rgb(0%,0%,0%);fill-opacity:1;" d="M 57.363281 144.3125 L 45.121094 146.761719 L 45.089844 145.339844 L 43.773438 147.746094 L 45.910156 149.460938 L 45.394531 148.136719 L 57.636719 145.6875 L 57.363281 144.3125 "/>
<path style=" stroke:none;fill-rule:nonzero;fill:rgb(0%,0%,0%);fill-opacity:1;" d="M 57.332031 126.820312 L 45.21875 129.847656 L 45.117188 128.429688 L 43.917969 130.894531 L 46.136719 132.503906 L 45.558594 131.207031 L 57.667969 128.179688 L 57.332031 126.820312 "/>
<path style=" stroke:none;fill-rule:nonzero;fill:rgb(0%,0%,0%);fill-opacity:1;" d="M 57.277344 109.335938 L 48.214844 112.355469 L 48.007812 110.949219 L 47 113.5 L 49.335938 114.933594 L 48.660156 113.683594 L 57.722656 110.664062 L 57.277344 109.335938 "/>
<path style=" stroke:none;fill-rule:nonzero;fill:rgb(0%,0%,0%);fill-opacity:1;" d="M 57.1875 91.875 L 51.542969 94.695312 L 51.136719 93.332031 L 50.5 96 L 53.015625 97.089844 L 52.167969 95.949219 L 57.8125 93.125 L 57.1875 91.875 "/>
<path style=" stroke:none;fill-rule:nonzero;fill:rgb(0%,0%,0%);fill-opacity:1;" d="M 57.003906 74.503906 L 54.578125 76.933594 L 53.761719 75.769531 L 54 78.5 L 56.730469 78.738281 L 55.566406 77.921875 L 57.996094 75.496094 L 57.003906 74.503906 "/>
<path style=" stroke:none;fill-rule:nonzero;fill:rgb(0%,0%,0%);fill-opacity:1;" d="M 56.800781 57.5 L 56.800781 59.484375 L 55.398438 59.238281 L 57.5 61 L 59.601562 59.238281 L 58.199219 59.484375 L 58.199219 57.5 L 56.800781 57.5 "/>
<path style=" stroke:none;fill-rule:nonzero;fill:rgb(0%,0%,0%);fill-opacity:1;" d="M 57.003906 40.496094 L 59.433594 42.921875 L 58.269531 43.738281 L 61 43.5 L 61.238281 40.769531 L 60.421875 41.933594 L 57.996094 39.503906 L 57.003906 40.496094 "/>
<path style=" stroke:none;fill-rule:nonzero;fill:rgb(0%,0%,0%);fill-opacity:1;" d="M 57.1875 23.125 L 62.832031 25.949219 L 61.984375 27.089844 L 64.5 26 L 63.863281 23.335938 L 63.457031 24.695312 L 57.8125 21.875 L 57.1875 23.125 "/>
<path style=" stroke:none;fill-rule:nonzero;fill:rgb(0%,0%,0%);fill-opacity:1;" d="M 57.277344 5.664062 L 66.339844 8.683594 L 65.664062 9.933594 L 68 8.5 L 66.992188 5.949219 L 66.785156 7.355469 L 57.722656 4.335938 L 57.277344 5.664062 "/>
<path style=" stroke:none;fill-rule:nonzero;fill:rgb(0%,0%,0%);fill-opacity:1;" d="M 75 144.300781 L 62.515625 144.300781 L 62.761719 142.898438 L 61 145 L 62.761719 147.101562 L 62.515625 145.699219 L 75 145.699219 L 75 144.300781 "/>
<path style=" stroke:none;fill-rule:nonzero;fill:rgb(0%,0%,0%);fill-opacity:1;" d="M 75 126.800781 L 66.015625 126.800781 L 66.261719 125.398438 L 64.5 127.5 L 66.261719 129.601562 L 66.015625 128.199219 L 75 128.199219 L 75 126.800781 "/>
<path style=" stroke:none;fill-rule:nonzero;fill:rgb(0%,0%,0%);fill-opacity:1;" d="M 75 109.300781 L 69.515625 109.300781 L 69.761719 107.898438 L 68 110 L 69.761719 112.101562 L 69.515625 110.699219 L 75 110.699219 L 75 109.300781 "/>
<path style=" stroke:none;fill-rule:nonzero;fill:rgb(0%,0%,0%);fill-opacity:1;" d="M 75 91.800781 L 73.015625 91.800781 L 73.261719 90.398438 L 71.5 92.5 L 73.261719 94.601562 L 73.015625 93.199219 L 75 93.199219 L 75 91.800781 "/>
<path style=" stroke:none;fill-rule:nonzero;fill:rgb(0%,0%,0%);fill-opacity:1;" d="M 75 58.199219 L 76.984375 58.199219 L 76.738281 59.601562 L 78.5 57.5 L 76.738281 55.398438 L 76.984375 56.800781 L 75 56.800781 L 75 58.199219 "/>
<path style=" stroke:none;fill-rule:nonzero;fill:rgb(0%,0%,0%);fill-opacity:1;" d="M 75 40.699219 L 80.484375 40.699219 L 80.238281 42.101562 L 82 40 L 80.238281 37.898438 L 80.484375 39.300781 L 75 39.300781 L 75 40.699219 "/>
<path style=" stroke:none;fill-rule:nonzero;fill:rgb(0%,0%,0%);fill-opacity:1;" d="M 75 23.199219 L 83.984375 23.199219 L 83.738281 24.601562 L 85.5 22.5 L 83.738281 20.398438 L 83.984375 21.800781 L 75 21.800781 L 75 23.199219 "/>
<path style=" stroke:none;fill-rule:nonzero;fill:rgb(0%,0%,0%);fill-opacity:1;" d="M 75 5.699219 L 87.484375 5.699219 L 87.238281 7.101562 L 89 5 L 87.238281 2.898438 L 87.484375 4.300781 L 75 4.300781 L 75 5.699219 "/>
<path style=" stroke:none;fill-rule:nonzero;fill:rgb(0%,0%,0%);fill-opacity:1;" d="M 92.722656 144.335938 L 83.660156 141.316406 L 84.335938 140.066406 L 82 141.5 L 83.007812 144.050781 L 83.214844 142.644531 L 92.277344 145.664062 L 92.722656 144.335938 "/>
<path style=" stroke:none;fill-rule:nonzero;fill:rgb(0%,0%,0%);fill-opacity:1;" d="M 92.8125 126.875 L 87.167969 124.050781 L 88.015625 122.910156 L 85.5 124 L 86.136719 126.667969 L 86.542969 125.304688 L 92.1875 128.125 L 92.8125 126.875 "/>
<path style=" stroke:none;fill-rule:nonzero;fill:rgb(0%,0%,0%);fill-opacity:1;" d="M 92.996094 109.503906 L 90.566406 107.078125 L 91.730469 106.261719 L 89 106.5 L 88.761719 109.230469 L 89.578125 108.066406 L 92.003906 110.496094 L 92.996094 109.503906 "/>
<path style=" stroke:none;fill-rule:nonzero;fill:rgb(0%,0%,0%);fill-opacity:1;" d="M 93.199219 92.5 L 93.199219 90.515625 L 94.601562 90.761719 L 92.5 89 L 90.398438 90.761719 L 91.800781 90.515625 L 91.800781 92.5 L 93.199219 92.5 "/>
<path style=" stroke:none;fill-rule:nonzero;fill:rgb(0%,0%,0%);fill-opacity:1;" d="M 92.996094 75.496094 L 95.421875 73.066406 L 96.238281 74.230469 L 96 71.5 L 93.269531 71.261719 L 94.433594 72.078125 L 92.003906 74.503906 L 92.996094 75.496094 "/>
<path style=" stroke:none;fill-rule:nonzero;fill:rgb(0%,0%,0%);fill-opacity:1;" d="M 92.8125 58.125 L 98.457031 55.304688 L 98.863281 56.667969 L 99.5 54 L 96.984375 52.910156 L 97.832031 54.050781 L 92.1875 56.875 L 92.8125 58.125 "/>
<path style=" stroke:none;fill-rule:nonzero;fill:rgb(0%,0%,0%);fill-opacity:1;" d="M 92.722656 40.664062 L 101.785156 37.644531 L 101.992188 39.050781 L 103 36.5 L 100.664062 35.066406 L 101.339844 36.316406 L 92.277344 39.335938 L 92.722656 40.664062 "/>
<path style=" stroke:none;fill-rule:nonzero;fill:rgb(0%,0%,0%);fill-opacity:1;" d="M 92.667969 23.179688 L 104.78125 20.152344 L 104.882812 21.570312 L 106.082031 19.105469 L 103.863281 17.496094 L 104.441406 18.792969 L 92.332031 21.820312 L 92.667969 23.179688 "/>
<path style=" stroke:none;fill-rule:nonzero;fill:rgb(0%,0%,0%);fill-opacity:1;" d="M 92.636719 5.6875 L 104.878906 3.238281 L 104.910156 4.660156 L 106.226562 2.253906 L 104.089844 0.539062 L 104.605469 1.863281 L 92.363281 4.3125 L 92.636719 5.6875 "/>
<path style=" stroke:none;fill-rule:nonzero;fill:rgb(0%,0%,0%);fill-opacity:1;" d="M 110.496094 144.503906 L 104.566406 138.578125 L 105.730469 137.761719 L 103 138 L 102.761719 140.730469 L 103.578125 139.566406 L 109.503906 145.496094 L 110.496094 144.503906 "/>
<path style=" stroke:none;fill-rule:nonzero;fill:rgb(0%,0%,0%);fill-opacity:1;" d="M 110.625 127.1875 L 107.804688 121.542969 L 109.164062 121.136719 L 106.5 120.5 L 105.410156 123.015625 L 106.550781 122.167969 L 109.375 127.8125 L 110.625 127.1875 "/>
<path style=" stroke:none;fill-rule:nonzero;fill:rgb(0%,0%,0%);fill-opacity:1;" d="M 110.699219 110 L 110.699219 104.515625 L 112.101562 104.761719 L 110 103 L 107.898438 104.761719 L 109.300781 104.515625 L 109.300781 110 L 110.699219 110 "/>
<path style=" stroke:none;fill-rule:nonzero;fill:rgb(0%,0%,0%);fill-opacity:1;" d="M 110.625 92.8125 L 113.449219 87.167969 L 114.589844 88.015625 L 113.5 85.5 L 110.835938 86.136719 L 112.195312 86.542969 L 109.375 92.1875 L 110.625 92.8125 "/>
<path style=" stroke:none;fill-rule:nonzero;fill:rgb(0%,0%,0%);fill-opacity:1;" d="M 110.496094 75.496094 L 116.421875 69.566406 L 117.238281 70.730469 L 117 68 L 114.269531 67.761719 L 115.433594 68.578125 L 109.503906 74.503906 L 110.496094 75.496094 "/>
<path style=" stroke:none;fill-rule:nonzero;fill:rgb(0%,0%,0%);fill-opacity:1;" d="M 110.386719 58.082031 L 119.628906 51.921875 L 120.199219 53.222656 L 120.5 50.5 L 117.867188 49.730469 L 118.851562 50.757812 L 109.613281 56.917969 L 110.386719 58.082031 "/>
<path style=" stroke:none;fill-rule:nonzero;fill:rgb(0%,0%,0%);fill-opacity:1;" d="M 110.3125 40.625 L 121.480469 35.042969 L 121.886719 36.40625 L 122.523438 33.738281 L 120.007812 32.648438 L 120.855469 33.789062 L 109.6875 39.375 L 110.3125 40.625 "/>
<path style=" stroke:none;fill-rule:nonzero;fill:rgb(0%,0%,0%);fill-opacity:1;" d="M 110.261719 23.148438 L 121.851562 18.511719 L 122.144531 19.90625 L 123 17.300781 L 120.582031 16.003906 L 121.332031 17.214844 L 109.738281 21.851562 L 110.261719 23.148438 "/>
<path style=" stroke:none;fill-rule:nonzero;fill:rgb(0%,0%,0%);fill-opacity:1;" d="M 110.222656 5.664062 L 122.066406 1.714844 L 122.273438 3.121094 L 123.28125 0.574219 L 120.945312 -0.863281 L 121.621094 0.386719 L 109.777344 4.335938 L 110.222656 5.664062 "/>
<path style=" stroke:none;fill-rule:nonzero;fill:rgb(0%,0%,0%);fill-opacity:1;" d="M 128.164062 144.777344 L 125.144531 135.714844 L 126.550781 135.507812 L 124 134.5 L 122.566406 136.835938 L 123.816406 136.160156 L 126.835938 145.222656 L 128.164062 144.777344 "/>
<path style=" stroke:none;fill-rule:nonzero;fill:rgb(0%,0%,0%);fill-opacity:1;" d="M 128.199219 127.5 L 128.199219 118.515625 L 129.601562 118.761719 L 127.5 117 L 125.398438 118.761719 L 126.800781 118.515625 L 126.800781 127.5 L 128.199219 127.5 "/>
<path style=" stroke:none;fill-rule:nonzero;fill:rgb(0%,0%,0%);fill-opacity:1;" d="M 128.164062 110.222656 L 131.183594 101.160156 L 132.433594 101.835938 L 131 99.5 L 128.449219 100.507812 L 129.855469 100.714844 L 126.835938 109.777344 L 128.164062 110.222656 "/>
<path style=" stroke:none;fill-rule:nonzero;fill:rgb(0%,0%,0%);fill-opacity:1;" d="M 128.082031 92.886719 L 134.242188 83.648438 L 135.269531 84.632812 L 134.5 82 L 131.773438 82.300781 L 133.078125 82.871094 L 126.917969 92.113281 L 128.082031 92.886719 "/>
<path style=" stroke:none;fill-rule:nonzero;fill:rgb(0%,0%,0%);fill-opacity:1;" d="M 127.996094 75.496094 L 136.824219 66.667969 L 137.636719 67.832031 L 137.398438 65.101562 L 134.667969 64.863281 L 135.832031 65.675781 L 127.003906 74.503906 L 127.996094 75.496094 "/>
<path style=" stroke:none;fill-rule:nonzero;fill:rgb(0%,0%,0%);fill-opacity:1;" d="M 127.921875 58.058594 L 137.90625 50.570312 L 138.550781 51.835938 L 138.699219 49.101562 L 136.03125 48.476562 L 137.066406 49.449219 L 127.078125 56.941406 L 127.921875 58.058594 "/>
<path style=" stroke:none;fill-rule:nonzero;fill:rgb(0%,0%,0%);fill-opacity:1;" d="M 127.859375 40.601562 L 138.566406 34.175781 L 139.074219 35.503906 L 139.503906 32.796875 L 136.914062 31.902344 L 137.84375 32.976562 L 127.140625 39.398438 L 127.859375 40.601562 "/>
<path style=" stroke:none;fill-rule:nonzero;fill:rgb(0%,0%,0%);fill-opacity:1;" d="M 127.8125 23.125 L 138.980469 17.542969 L 139.386719 18.90625 L 140.023438 16.238281 L 137.507812 15.148438 L 138.355469 16.289062 L 127.1875 21.875 L 127.8125 23.125 "/>
<path style=" stroke:none;fill-rule:nonzero;fill:rgb(0%,0%,0%);fill-opacity:1;" d="M 127.777344 5.644531 L 139.25 0.726562 L 139.574219 2.109375 L 140.367188 -0.515625 L 137.921875 -1.75 L 138.699219 -0.5625 L 127.222656 4.355469 L 127.777344 5.644531 "/>
<path style=" stroke:none;fill-rule:nonzero;fill:rgb(0%,0%,0%);fill-opacity:1;" d="M 145.699219 145 L 145.699219 132.515625 L 147.101562 132.761719 L 145 131 L 142.898438 132.761719 L 144.300781 132.515625 L 144.300781 145 L 145.699219 145 "/>
<path style=" stroke:none;fill-rule:nonzero;fill:rgb(0%,0%,0%);fill-opacity:1;" d="M 145.679688 127.667969 L 148.707031 115.558594 L 150.003906 116.136719 L 148.394531 113.917969 L 145.929688 115.117188 L 147.347656 115.21875 L 144.320312 127.332031 L 145.679688 127.667969 "/>
<path style=" stroke:none;fill-rule:nonzero;fill:rgb(0%,0%,0%);fill-opacity:1;" d="M 145.625 110.3125 L 151.210938 99.148438 L 152.351562 99.992188 L 151.261719 97.476562 L 148.59375 98.113281 L 149.957031 98.519531 L 144.375 109.6875 L 145.625 110.3125 "/>
<path style=" stroke:none;fill-rule:nonzero;fill:rgb(0%,0%,0%);fill-opacity:1;" d="M 145.558594 92.917969 L 153.050781 82.933594 L 154.023438 83.96875 L 153.398438 81.300781 L 150.664062 81.449219 L 151.929688 82.09375 L 144.441406 92.082031 L 145.558594 92.917969 "/>
<path style=" stroke:none;fill-rule:nonzero;fill:rgb(0%,0%,0%);fill-opacity:1;" d="M 145.496094 75.496094 L 154.324219 66.667969 L 155.136719 67.832031 L 154.898438 65.101562 L 152.167969 64.863281 L 153.332031 65.675781 L 144.503906 74.503906 L 145.496094 75.496094 "/>
<path style=" stroke:none;fill-rule:nonzero;fill:rgb(0%,0%,0%);fill-opacity:1;" d="M 145.4375 58.046875 L 155.1875 50.246094 L 155.867188 51.496094 L 155.933594 48.753906 L 153.242188 48.214844 L 154.3125 49.152344 L 144.5625 56.953125 L 145.4375 58.046875 "/>
<path style=" stroke:none;fill-rule:nonzero;fill:rgb(0%,0%,0%);fill-opacity:1;" d="M 145.386719 40.582031 L 155.777344 33.65625 L 156.347656 34.960938 L 156.648438 32.234375 L 154.019531 31.464844 L 155 32.492188 L 144.613281 39.417969 L 145.386719 40.582031 "/>
<path style=" stroke:none;fill-rule:nonzero;fill:rgb(0%,0%,0%);fill-opacity:1;" d="M 145.347656 23.109375 L 156.1875 16.914062 L 156.667969 18.253906 L 157.15625 15.554688 L 154.585938 14.605469 L 155.492188 15.699219 L 144.652344 21.890625 L 145.347656 23.109375 "/>
<path style=" stroke:none;fill-rule:nonzero;fill:rgb(0%,0%,0%);fill-opacity:1;" d="M 145.3125 5.625 L 156.480469 0.0429688 L 156.886719 1.40625 L 157.523438 -1.261719 L 155.007812 -2.351562 L 155.855469 -1.210938 L 144.6875 4.375 L 145.3125 5.625 "/>
<path style=" stroke:none;fill-rule:nonzero;fill:rgb(100%,0%,0%);fill-opacity:1;" d="M 25 57.5 C 25 56.117188 23.882812 55 22.5 55 C 21.117188 55 20 56.117188 20 57.5 C 20 58.882812 21.117188 60 22.5 60 C 23.882812 60 25 58.882812 25 57.5 "/>
<path style="fill:none;stroke-width:10;stroke-linecap:butt;stroke-linejoin:miter;stroke:rgb(0%,0%,0%);stroke-opacity:1;stroke-miterlimit:10;" d="M 250 925 C 250 938.828125 238.828125 950 225 950 C 211.171875 950 200 938.828125 200 925 C 200 911.171875 211.171875 900 225 900 C 238.828125 900 250 911.171875 250 925 Z M 250 925 " transform="matrix(0.1,0,0,-0.1,0,150)"/>
<path style=" stroke:none;fill-rule:nonzero;fill:rgb(100%,0%,0%);fill-opacity:1;" d="M 77.5 127.5 C 77.5 126.117188 76.382812 125 75 125 C 73.617188 125 72.5 126.117188 72.5 127.5 C 72.5 128.882812 73.617188 130 75 130 C 76.382812 130 77.5 128.882812 77.5 127.5 "/>
<path style="fill:none;stroke-width:10;stroke-linecap:butt;stroke-linejoin:miter;stroke:rgb(0%,0%,0%);stroke-opacity:1;stroke-miterlimit:10;" d="M 775 225 C 775 238.828125 763.828125 250 750 250 C 736.171875 250 725 238.828125 725 225 C 725 211.171875 736.171875 200 750 200 C 763.828125 200 775 211.171875 775 225 Z M 775 225 " transform="matrix(0.1,0,0,-0.1,0,150)"/>
<path style=" stroke:none;fill-rule:nonzero;fill:rgb(100%,0%,0%);fill-opacity:1;" d="M 130 75 C 130 73.617188 128.882812 72.5 127.5 72.5 C 126.117188 72.5 125 73.617188 125 75 C 125 76.382812 126.117188 77.5 127.5 77.5 C 128.882812 77.5 130 76.382812 130 75 "/>
<path style="fill:none;stroke-width:10;stroke-linecap:butt;stroke-linejoin:miter;stroke:rgb(0%,0%,0%);stroke-opacity:1;stroke-miterlimit:10;" d="M 1300 750 C 1300 763.828125 1288.828125 775 1275 775 C 1261.171875 775 1250 763.828125 1250 750 C 1250 736.171875 1261.171875 725 1275 725 C 1288.828125 725 1300 736.171875 1300 750 Z M 1300 750 " transform="matrix(0.1,0,0,-0.1,0,150)"/>
<path style="fill:none;stroke-width:10;stroke-linecap:butt;stroke-linejoin:miter;stroke:rgb(0%,0%,0%);stroke-opacity:1;stroke-miterlimit:10;" d="M 0 0 L 1500 0 L 1500 1500 L 0 1500 Z M 0 0 " transform="matrix(0.1,0,0,-0.1,0,150)"/>
</g>
</svg>
