<?xml version="1.0" encoding="UTF-8"?>
<svg xmlns="http://www.w3.org/2000/svg" xmlns:xlink="http://www.w3.org/1999/xlink" width="555pt" height="555pt" viewBox="0 0 555 555" version="1.1">
<defs>
<clipPath id="clip1">
  <path d="M 6.9375 251 L 42 251 L 42 301 L 6.9375 301 Z M 6.9375 251 "/>
</clipPath>
<clipPath id="clip2">
  <path d="M 11 295 L 16.648438 295 L 16.648438 297 L 11 297 Z M 11 295 "/>
</clipPath>
<clipPath id="clip3">
  <path d="M 134 295 L 140.136719 295 L 140.136719 297 L 134 297 Z M 134 295 "/>
</clipPath>
<clipPath id="clip4">
  <path d="M 252 536 L 258.074219 536 L 258.074219 538 L 252 538 Z M 252 536 "/>
</clipPath>
<clipPath id="clip5">
  <path d="M 238 407 L 244.199219 407 L 244.199219 409 L 238 409 Z M 238 407 "/>
</clipPath>
</defs>
<g id="surface1">
<rect x="0" y="0" width="555" height="555" style="fill:rgb(100%,100%,100%);fill-opacity:1;stroke:none;"/>
<g clip-path="url(#clip1)" clip-rule="nonzero">
<path style="fill:none;stroke-width:13.875;stroke-linecap:square;stroke-linejoin:miter;stroke:rgb(100%,0%,0%);stroke-opacity:1;stroke-miterlimit:10;" d="M 221.992188 2785.3125 C 221.992188 2758.476562 200.273438 2736.757812 173.4375 2736.757812 C 146.601562 2736.757812 124.882812 2758.476562 124.882812 2785.3125 C 124.882812 2812.148438 146.601562 2833.867188 173.4375 2833.867188 C 200.273438 2833.867188 221.992188 2812.148438 221.992188 2785.3125 Z M 221.992188 2785.3125 " transform="matrix(0.1,0,0,-0.1,0,555)"/>
</g>
<path style=" stroke:none;fill-rule:nonzero;fill:rgb(100%,0%,0%);fill-opacity:1;" d="M 22.199219 276.46875 C 22.199219 279.152344 20.027344 281.324219 17.34375 281.324219 C 14.660156 281.324219 12.488281 279.152344 12.488281 276.46875 C 12.488281 273.785156 14.660156 271.613281 17.34375 271.613281 C 20.027344 271.613281 22.199219 273.785156 22.199219 276.46875 "/>
<path style="fill:none;stroke-width:27.75;stroke-linecap:butt;stroke-linejoin:round;stroke:rgb(0%,0%,100%);stroke-opacity:1;stroke-miterlimit:10;" d="M 5425.039062 2778.359375 L 5423.59375 2949.414062 L 5420.039062 3097.695312 L 5413.4375 3263.125 L 5404.0625 3427.65625 L 5391.953125 3588.632812 L 5378.320312 3734.84375 L 5361.757812 3882.65625 L 5342.03125 4030.976562 L 5319.765625 4173.671875 L 5294.140625 4314.492188 L 5269.335938 4433.007812 L 5238.90625 4559.726562 L 5205.78125 4679.335938 L 5171.367188 4786.835938 L 5138.085938 4877.5 L 5095.976562 4976.289062 L 5058.242188 5051.953125 L 5011.953125 5130.390625 L 4968.867188 5190.9375 L 4919.414062 5247.539062 L 4870.234375 5291.601562 L 4816.757812 5327.1875 L 4765.78125 5350.429688 L 4708.828125 5365.234375 L 4647.617188 5369.257812 L 4592.65625 5363.359375 L 4531.5625 5347.1875 L 4466.679688 5319.804688 L 4401.484375 5282.65625 L 4336.875 5237.109375 L 4263.476562 5175.664062 L 4196.054688 5110.976562 L 4122.617188 5032.1875 L 4054.84375 4952.460938 L 3979.53125 4856.5625 L 3907.5 4758.359375 L 3831.132812 4647.8125 L 3755.429688 4532.421875 L 3675.195312 4404.296875 L 3597.070312 4274.375 L 3516.328125 4135.351562 L 3435.546875 3991.992188 L 3360.742188 3855.859375 L 3274.414062 3695.3125 L 3196.757812 3548.242188 L 3113.59375 3388.359375 L 3033.671875 3232.96875 L 2944.648438 3058.476562 L 2867.460938 2906.289062 L 2779.765625 2733.046875 L 2699.882812 2575.3125 L 2612.578125 2403.671875 L 2537.460938 2256.875 L 2452.148438 2091.835938 L 2370.117188 1935.195312 L 2288.554688 1782.03125 L 2207.773438 1633.398438 L 2130.78125 1494.84375 L 2048.203125 1350.390625 L 1970.273438 1218.4375 L 1889.101562 1086.09375 L 1816.484375 972.539062 L 1737.265625 854.492188 L 1662.421875 749.21875 L 1588.90625 652.1875 L 1513.398438 559.726562 L 1445.078125 483.046875 L 1376.40625 413.164062 L 1302.148438 346.484375 L 1236.40625 295.898438 L 1170.703125 253.984375 L 1105.625 221.679688 L 1047.304688 201.328125 L 986.835938 189.492188 L 928.59375 187.929688 L 868.320312 197.421875 L 816.953125 215.390625 L 759.804688 247.226562 L 710.273438 286.015625 L 663.242188 333.632812 L 614.804688 394.921875 L 568.554688 466.679688 L 528.59375 540.664062 L 488.320312 627.929688 L 451.289062 721.445312 L 413.671875 831.679688 L 383.320312 934.140625 L 350.9375 1059.492188 L 323.007812 1184.296875 L 297.734375 1314.0625 L 274.84375 1449.570312 L 254.023438 1593.046875 L 234.765625 1750.3125 L 219.609375 1898.59375 L 207.070312 2048.28125 L 196.328125 2211.210938 L 188.320312 2376.210938 L 183.515625 2525.742188 L 180.664062 2703.945312 L 180.664062 2853.359375 L 183.4375 3027.773438 L 188.828125 3193.203125 L 195.976562 3339.453125 L 206.5625 3501.71875 L 219.960938 3661.953125 L 236.015625 3817.773438 L 253.320312 3958.320312 L 273.632812 4099.375 L 297.226562 4239.882812 L 323.320312 4373.90625 L 352.8125 4504.960938 L 380.976562 4614.179688 L 415.15625 4729.726562 L 452.03125 4837.34375 L 489.960938 4932.65625 L 526.445312 5011.757812 L 572.226562 5096.210938 L 613.046875 5159.296875 L 662.851562 5222.65625 L 708.945312 5269.492188 L 761.640625 5310.742188 L 813.90625 5339.921875 L 870.429688 5359.84375 L 924.140625 5368.515625 L 983.984375 5367.539062 L 1048.125 5355.195312 L 1105.507812 5335.078125 L 1169.140625 5303.632812 L 1236.5625 5260.703125 L 1304.140625 5208.554688 L 1370.9375 5148.789062 L 1446.679688 5071.953125 L 1516.09375 4993.828125 L 1591.5625 4901.171875 L 1661.054688 4809.414062 L 1738.164062 4700.898438 L 1811.757812 4591.40625 L 1889.648438 4469.765625 L 1966.71875 4344.21875 L 2048.28125 4206.210938 L 2127.578125 4067.578125 L 2209.335938 3920.507812 L 2291.054688 3770.039062 L 2366.601562 3628.164062 L 2453.632812 3462.03125 L 2531.835938 3310.78125 L 2615.46875 3147.460938 L 2695.703125 2989.6875 L 2862.148438 2660.976562 L 2949.765625 2488.242188 L 3029.453125 2331.914062 L 3116.40625 2162.890625 L 3191.171875 2019.179688 L 3275.898438 1858.59375 L 3357.265625 1707.265625 L 3438.046875 1560.273438 L 3517.851562 1418.671875 L 3593.90625 1287.734375 L 3675.273438 1152.34375 L 3751.953125 1029.765625 L 3831.640625 908.085938 L 3902.851562 804.882812 L 3980.390625 698.984375 L 4053.515625 605.898438 L 4125.195312 521.640625 L 4198.671875 443.085938 L 4265.039062 379.648438 L 4331.601562 323.671875 L 4403.4375 272.851562 L 4466.835938 236.835938 L 4530.039062 210.078125 L 4592.539062 193.359375 L 4648.398438 187.421875 L 4706.132812 191.054688 L 4761.5625 204.804688 L 4818.710938 230.625 L 4867.304688 262.890625 L 4921.132812 310.976562 L 4967.617188 364.179688 L 5011.5625 425.78125 L 5056.601562 501.71875 L 5099.375 587.773438 L 5136.09375 674.257812 L 5172.851562 774.296875 L 5206.445312 879.6875 L 5240.234375 1002.148438 L 5267.265625 1114.53125 L 5295.78125 1250.585938 L 5320.039062 1384.648438 L 5341.601562 1522.773438 L 5360.742188 1665.898438 L 5377.773438 1816.289062 L 5392.929688 1979.882812 L 5404.296875 2133.046875 L 5413.125 2286.679688 L 5419.84375 2452.890625 L 5423.828125 2620.078125 L 5425.039062 2778.359375 " transform="matrix(0.1,0,0,-0.1,0,555)"/>
<path style="fill:none;stroke-width:13.875;stroke-linecap:butt;stroke-linejoin:round;stroke:rgb(0%,0%,0%);stroke-opacity:1;stroke-miterlimit:10;" d="M 180.390625 2778.359375 L 5425.039062 2778.359375 " transform="matrix(0.1,0,0,-0.1,0,555)"/>
<path style="fill:none;stroke-width:1.2;stroke-linecap:butt;stroke-linejoin:round;stroke:rgb(0%,0%,0%);stroke-opacity:1;stroke-miterlimit:10;" d="M 180.390625 2778.359375 L 180.390625 2722.851562 " transform="matrix(0.1,0,0,-0.1,0,555)"/>
<g clip-path="url(#clip2)" clip-rule="nonzero">
<path style=" stroke:none;fill-rule:nonzero;fill:rgb(0%,0%,0%);fill-opacity:1;" d="M 11.382812 296.144531 L 23.304688 296.144531 L 23.304688 295.210938 L 11.382812 295.210938 Z M 11.382812 296.144531 "/>
</g>
<path style=" stroke:none;fill-rule:nonzero;fill:rgb(0%,0%,0%);fill-opacity:1;" d="M 21.550781 290.3125 L 24.453125 288.902344 L 24.734375 288.902344 L 24.734375 298.984375 C 24.734375 299.648438 24.765625 300.066406 24.824219 300.230469 C 24.882812 300.394531 24.996094 300.523438 25.167969 300.609375 C 25.34375 300.695312 25.699219 300.746094 26.230469 300.761719 L 26.230469 301.085938 L 21.746094 301.085938 L 21.746094 300.761719 C 22.308594 300.746094 22.671875 300.695312 22.839844 300.609375 C 23.007812 300.523438 23.121094 300.40625 23.1875 300.261719 C 23.25 300.117188 23.285156 299.691406 23.285156 298.984375 L 23.285156 292.546875 C 23.285156 291.664062 23.253906 291.101562 23.199219 290.855469 C 23.152344 290.664062 23.078125 290.527344 22.96875 290.441406 C 22.859375 290.355469 22.726562 290.3125 22.570312 290.3125 C 22.351562 290.3125 22.054688 290.40625 21.679688 290.59375 L 21.550781 290.3125 "/>
<path style="fill:none;stroke-width:1.2;stroke-linecap:butt;stroke-linejoin:round;stroke:rgb(0%,0%,0%);stroke-opacity:1;stroke-miterlimit:10;" d="M 1491.523438 2778.359375 L 1491.523438 2722.851562 " transform="matrix(0.1,0,0,-0.1,0,555)"/>
<g clip-path="url(#clip3)" clip-rule="nonzero">
<path style=" stroke:none;fill-rule:nonzero;fill:rgb(0%,0%,0%);fill-opacity:1;" d="M 134.867188 296.144531 L 146.792969 296.144531 L 146.792969 295.210938 L 134.867188 295.210938 Z M 134.867188 296.144531 "/>
</g>
<path style=" stroke:none;fill-rule:nonzero;fill:rgb(0%,0%,0%);fill-opacity:1;" d="M 143.5625 295.191406 C 143.5625 293.832031 143.769531 292.65625 144.179688 291.664062 C 144.589844 290.675781 145.136719 289.941406 145.816406 289.46875 C 146.351562 289.089844 146.902344 288.902344 147.464844 288.902344 C 148.375 288.902344 149.191406 289.367188 149.914062 290.289062 C 150.824219 291.445312 151.28125 293.015625 151.28125 294.996094 C 151.28125 296.382812 151.082031 297.5625 150.683594 298.527344 C 150.285156 299.496094 149.777344 300.203125 149.15625 300.640625 C 148.535156 301.082031 147.941406 301.304688 147.378906 301.304688 C 146.234375 301.304688 145.28125 300.632812 144.515625 299.289062 C 143.878906 298.144531 143.5625 296.777344 143.5625 295.191406 Z M 145.296875 295.40625 C 145.296875 297.054688 145.5 298.398438 145.902344 299.4375 C 146.234375 300.304688 146.734375 300.742188 147.398438 300.742188 C 147.71875 300.742188 148.046875 300.597656 148.386719 300.316406 C 148.726562 300.035156 148.984375 299.554688 149.15625 298.875 C 149.429688 297.878906 149.566406 296.453125 149.566406 294.605469 C 149.566406 293.246094 149.421875 292.113281 149.132812 291.203125 C 148.933594 290.519531 148.65625 290.046875 148.308594 289.769531 C 148.078125 289.582031 147.789062 289.488281 147.441406 289.488281 C 147.054688 289.488281 146.699219 289.660156 146.382812 290.007812 C 145.960938 290.5 145.675781 291.269531 145.523438 292.316406 C 145.371094 293.363281 145.296875 294.394531 145.296875 295.40625 Z M 154.1875 299.375 C 154.460938 299.375 154.691406 299.472656 154.878906 299.667969 C 155.066406 299.863281 155.160156 300.089844 155.160156 300.347656 C 155.160156 300.625 155.066406 300.855469 154.878906 301.042969 C 154.691406 301.230469 154.460938 301.324219 154.1875 301.324219 C 153.910156 301.324219 153.679688 301.230469 153.492188 301.042969 C 153.304688 300.855469 153.210938 300.625 153.210938 300.347656 C 153.210938 300.074219 153.304688 299.84375 153.492188 299.65625 C 153.679688 299.46875 153.910156 299.375 154.1875 299.375 Z M 164.265625 289.140625 L 163.570312 290.636719 L 159.996094 290.636719 L 159.214844 292.242188 C 160.761719 292.472656 161.992188 293.050781 162.902344 293.976562 C 163.679688 294.769531 164.070312 295.710938 164.070312 296.796875 C 164.070312 297.429688 163.945312 298.015625 163.691406 298.550781 C 163.4375 299.085938 163.117188 299.539062 162.726562 299.914062 C 162.339844 300.292969 161.902344 300.589844 161.425781 300.804688 C 160.761719 301.136719 160.066406 301.304688 159.34375 301.304688 C 158.636719 301.304688 158.121094 301.179688 157.796875 300.933594 C 157.46875 300.6875 157.308594 300.421875 157.308594 300.132812 C 157.308594 299.960938 157.375 299.8125 157.511719 299.6875 C 157.648438 299.566406 157.820312 299.503906 158.023438 299.503906 C 158.167969 299.503906 158.296875 299.527344 158.410156 299.570312 C 158.527344 299.613281 158.722656 299.734375 158.996094 299.9375 C 159.445312 300.242188 159.894531 300.394531 160.34375 300.394531 C 161.035156 300.394531 161.640625 300.132812 162.152344 299.613281 C 162.664062 299.09375 162.921875 298.457031 162.921875 297.703125 C 162.921875 296.980469 162.691406 296.308594 162.226562 295.6875 C 161.765625 295.066406 161.128906 294.582031 160.320312 294.234375 C 159.671875 293.976562 158.796875 293.824219 157.699219 293.78125 L 159.996094 289.140625 L 164.265625 289.140625 "/>
<path style="fill:none;stroke-width:1.2;stroke-linecap:butt;stroke-linejoin:round;stroke:rgb(0%,0%,0%);stroke-opacity:1;stroke-miterlimit:10;" d="M 2802.695312 2778.359375 L 2802.695312 2722.851562 " transform="matrix(0.1,0,0,-0.1,0,555)"/>
<path style=" stroke:none;fill-rule:nonzero;fill:rgb(0%,0%,0%);fill-opacity:1;" d="M 268.4375 292.414062 C 268.4375 291.054688 268.644531 289.882812 269.054688 288.890625 C 269.464844 287.902344 270.011719 287.167969 270.691406 286.691406 C 271.226562 286.316406 271.777344 286.128906 272.339844 286.128906 C 273.25 286.128906 274.066406 286.589844 274.789062 287.515625 C 275.699219 288.671875 276.15625 290.238281 276.15625 292.21875 C 276.15625 293.605469 275.957031 294.785156 275.558594 295.753906 C 275.160156 296.722656 274.652344 297.425781 274.03125 297.867188 C 273.410156 298.308594 272.816406 298.527344 272.253906 298.527344 C 271.109375 298.527344 270.15625 297.855469 269.390625 296.511719 C 268.753906 295.371094 268.4375 294.003906 268.4375 292.414062 Z M 270.171875 292.632812 C 270.171875 294.277344 270.375 295.621094 270.777344 296.664062 C 271.109375 297.53125 271.609375 297.964844 272.273438 297.964844 C 272.59375 297.964844 272.921875 297.824219 273.261719 297.542969 C 273.601562 297.261719 273.859375 296.777344 274.03125 296.101562 C 274.304688 295.101562 274.441406 293.679688 274.441406 291.828125 C 274.441406 290.472656 274.296875 289.335938 274.007812 288.425781 C 273.808594 287.746094 273.53125 287.269531 273.183594 286.996094 C 272.953125 286.808594 272.664062 286.714844 272.316406 286.714844 C 271.929688 286.714844 271.574219 286.886719 271.257812 287.234375 C 270.835938 287.726562 270.550781 288.496094 270.398438 289.542969 C 270.246094 290.589844 270.171875 291.621094 270.171875 292.632812 "/>
<path style="fill:none;stroke-width:1.2;stroke-linecap:butt;stroke-linejoin:round;stroke:rgb(0%,0%,0%);stroke-opacity:1;stroke-miterlimit:10;" d="M 4113.867188 2778.359375 L 4113.867188 2722.851562 " transform="matrix(0.1,0,0,-0.1,0,555)"/>
<path style=" stroke:none;fill-rule:nonzero;fill:rgb(0%,0%,0%);fill-opacity:1;" d="M 400.25 295.191406 C 400.25 293.832031 400.457031 292.65625 400.867188 291.664062 C 401.277344 290.675781 401.824219 289.941406 402.503906 289.46875 C 403.039062 289.089844 403.589844 288.902344 404.152344 288.902344 C 405.0625 288.902344 405.878906 289.367188 406.601562 290.289062 C 407.511719 291.445312 407.96875 293.015625 407.96875 294.996094 C 407.96875 296.382812 407.769531 297.5625 407.371094 298.527344 C 406.976562 299.496094 406.464844 300.203125 405.84375 300.640625 C 405.222656 301.082031 404.628906 301.304688 404.066406 301.304688 C 402.921875 301.304688 401.96875 300.632812 401.203125 299.289062 C 400.566406 298.144531 400.25 296.777344 400.25 295.191406 Z M 401.984375 295.40625 C 401.984375 297.054688 402.1875 298.398438 402.589844 299.4375 C 402.921875 300.304688 403.421875 300.742188 404.085938 300.742188 C 404.40625 300.742188 404.734375 300.597656 405.074219 300.316406 C 405.414062 300.035156 405.671875 299.554688 405.84375 298.875 C 406.117188 297.878906 406.253906 296.453125 406.253906 294.605469 C 406.253906 293.246094 406.109375 292.113281 405.820312 291.203125 C 405.617188 290.519531 405.34375 290.046875 404.996094 289.769531 C 404.765625 289.582031 404.476562 289.488281 404.128906 289.488281 C 403.738281 289.488281 403.386719 289.660156 403.070312 290.007812 C 402.648438 290.5 402.363281 291.269531 402.210938 292.316406 C 402.058594 293.363281 401.984375 294.394531 401.984375 295.40625 Z M 410.871094 299.375 C 411.148438 299.375 411.378906 299.472656 411.566406 299.667969 C 411.753906 299.863281 411.847656 300.089844 411.847656 300.347656 C 411.847656 300.625 411.753906 300.855469 411.566406 301.042969 C 411.378906 301.230469 411.148438 301.324219 410.871094 301.324219 C 410.597656 301.324219 410.367188 301.230469 410.179688 301.042969 C 409.992188 300.855469 409.894531 300.625 409.894531 300.347656 C 409.894531 300.074219 409.992188 299.84375 410.179688 299.65625 C 410.367188 299.46875 410.597656 299.375 410.871094 299.375 Z M 420.953125 289.140625 L 420.261719 290.636719 L 416.683594 290.636719 L 415.902344 292.242188 C 417.449219 292.472656 418.679688 293.050781 419.589844 293.976562 C 420.367188 294.769531 420.757812 295.710938 420.757812 296.796875 C 420.757812 297.429688 420.632812 298.015625 420.378906 298.550781 C 420.128906 299.085938 419.804688 299.539062 419.414062 299.914062 C 419.023438 300.292969 418.589844 300.589844 418.113281 300.804688 C 417.449219 301.136719 416.753906 301.304688 416.03125 301.304688 C 415.324219 301.304688 414.808594 301.179688 414.480469 300.933594 C 414.15625 300.6875 413.996094 300.421875 413.996094 300.132812 C 413.996094 299.960938 414.0625 299.8125 414.199219 299.6875 C 414.339844 299.566406 414.507812 299.503906 414.710938 299.503906 C 414.855469 299.503906 414.984375 299.527344 415.101562 299.570312 C 415.214844 299.613281 415.410156 299.734375 415.683594 299.9375 C 416.132812 300.242188 416.582031 300.394531 417.03125 300.394531 C 417.722656 300.394531 418.328125 300.132812 418.839844 299.613281 C 419.355469 299.09375 419.609375 298.457031 419.609375 297.703125 C 419.609375 296.980469 419.378906 296.308594 418.914062 295.6875 C 418.453125 295.066406 417.816406 294.582031 417.007812 294.234375 C 416.359375 293.976562 415.484375 293.824219 414.386719 293.78125 L 416.683594 289.140625 L 420.953125 289.140625 "/>
<path style="fill:none;stroke-width:1.2;stroke-linecap:butt;stroke-linejoin:round;stroke:rgb(0%,0%,0%);stroke-opacity:1;stroke-miterlimit:10;" d="M 5425.039062 2778.359375 L 5425.039062 2722.851562 " transform="matrix(0.1,0,0,-0.1,0,555)"/>
<path style=" stroke:none;fill-rule:nonzero;fill:rgb(0%,0%,0%);fill-opacity:1;" d="M 539.085938 290.3125 L 541.992188 288.902344 L 542.273438 288.902344 L 542.273438 298.984375 C 542.273438 299.648438 542.304688 300.066406 542.359375 300.230469 C 542.417969 300.394531 542.53125 300.523438 542.707031 300.609375 C 542.878906 300.695312 543.234375 300.746094 543.769531 300.761719 L 543.769531 301.085938 L 539.28125 301.085938 L 539.28125 300.761719 C 539.847656 300.746094 540.210938 300.695312 540.375 300.609375 C 540.542969 300.523438 540.660156 300.40625 540.722656 300.261719 C 540.789062 300.117188 540.820312 299.691406 540.820312 298.984375 L 540.820312 292.546875 C 540.820312 291.664062 540.792969 291.101562 540.734375 290.855469 C 540.691406 290.664062 540.613281 290.527344 540.507812 290.441406 C 540.398438 290.355469 540.265625 290.3125 540.105469 290.3125 C 539.890625 290.3125 539.59375 290.40625 539.21875 290.59375 L 539.085938 290.3125 "/>
<path style="fill:none;stroke-width:1.2;stroke-linecap:butt;stroke-linejoin:round;stroke:rgb(0%,0%,0%);stroke-opacity:1;stroke-miterlimit:10;" d="M 442.617188 2778.359375 L 442.617188 2750.625 " transform="matrix(0.1,0,0,-0.1,0,555)"/>
<path style="fill:none;stroke-width:1.2;stroke-linecap:butt;stroke-linejoin:round;stroke:rgb(0%,0%,0%);stroke-opacity:1;stroke-miterlimit:10;" d="M 704.84375 2778.359375 L 704.84375 2750.625 " transform="matrix(0.1,0,0,-0.1,0,555)"/>
<path style="fill:none;stroke-width:1.2;stroke-linecap:butt;stroke-linejoin:round;stroke:rgb(0%,0%,0%);stroke-opacity:1;stroke-miterlimit:10;" d="M 967.070312 2778.359375 L 967.070312 2750.625 " transform="matrix(0.1,0,0,-0.1,0,555)"/>
<path style="fill:none;stroke-width:1.2;stroke-linecap:butt;stroke-linejoin:round;stroke:rgb(0%,0%,0%);stroke-opacity:1;stroke-miterlimit:10;" d="M 1229.296875 2778.359375 L 1229.296875 2750.625 " transform="matrix(0.1,0,0,-0.1,0,555)"/>
<path style="fill:none;stroke-width:1.2;stroke-linecap:butt;stroke-linejoin:round;stroke:rgb(0%,0%,0%);stroke-opacity:1;stroke-miterlimit:10;" d="M 1753.789062 2778.359375 L 1753.789062 2750.625 " transform="matrix(0.1,0,0,-0.1,0,555)"/>
<path style="fill:none;stroke-width:1.2;stroke-linecap:butt;stroke-linejoin:round;stroke:rgb(0%,0%,0%);stroke-opacity:1;stroke-miterlimit:10;" d="M 2016.015625 2778.359375 L 2016.015625 2750.625 " transform="matrix(0.1,0,0,-0.1,0,555)"/>
<path style="fill:none;stroke-width:1.2;stroke-linecap:butt;stroke-linejoin:round;stroke:rgb(0%,0%,0%);stroke-opacity:1;stroke-miterlimit:10;" d="M 2278.242188 2778.359375 L 2278.242188 2750.625 " transform="matrix(0.1,0,0,-0.1,0,555)"/>
<path style="fill:none;stroke-width:1.2;stroke-linecap:butt;stroke-linejoin:round;stroke:rgb(0%,0%,0%);stroke-opacity:1;stroke-miterlimit:10;" d="M 2540.46875 2778.359375 L 2540.46875 2750.625 " transform="matrix(0.1,0,0,-0.1,0,555)"/>
<path style="fill:none;stroke-width:1.2;stroke-linecap:butt;stroke-linejoin:round;stroke:rgb(0%,0%,0%);stroke-opacity:1;stroke-miterlimit:10;" d="M 3064.960938 2778.359375 L 3064.960938 2750.625 " transform="matrix(0.1,0,0,-0.1,0,555)"/>
<path style="fill:none;stroke-width:1.2;stroke-linecap:butt;stroke-linejoin:round;stroke:rgb(0%,0%,0%);stroke-opacity:1;stroke-miterlimit:10;" d="M 3327.1875 2778.359375 L 3327.1875 2750.625 " transform="matrix(0.1,0,0,-0.1,0,555)"/>
<path style="fill:none;stroke-width:1.2;stroke-linecap:butt;stroke-linejoin:round;stroke:rgb(0%,0%,0%);stroke-opacity:1;stroke-miterlimit:10;" d="M 3589.414062 2778.359375 L 3589.414062 2750.625 " transform="matrix(0.1,0,0,-0.1,0,555)"/>
<path style="fill:none;stroke-width:1.2;stroke-linecap:butt;stroke-linejoin:round;stroke:rgb(0%,0%,0%);stroke-opacity:1;stroke-miterlimit:10;" d="M 3851.640625 2778.359375 L 3851.640625 2750.625 " transform="matrix(0.1,0,0,-0.1,0,555)"/>
<path style="fill:none;stroke-width:1.2;stroke-linecap:butt;stroke-linejoin:round;stroke:rgb(0%,0%,0%);stroke-opacity:1;stroke-miterlimit:10;" d="M 4376.09375 2778.359375 L 4376.09375 2750.625 " transform="matrix(0.1,0,0,-0.1,0,555)"/>
<path style="fill:none;stroke-width:1.2;stroke-linecap:butt;stroke-linejoin:round;stroke:rgb(0%,0%,0%);stroke-opacity:1;stroke-miterlimit:10;" d="M 4638.359375 2778.359375 L 4638.359375 2750.625 " transform="matrix(0.1,0,0,-0.1,0,555)"/>
<path style="fill:none;stroke-width:1.2;stroke-linecap:butt;stroke-linejoin:round;stroke:rgb(0%,0%,0%);stroke-opacity:1;stroke-miterlimit:10;" d="M 4900.585938 2778.359375 L 4900.585938 2750.625 " transform="matrix(0.1,0,0,-0.1,0,555)"/>
<path style="fill:none;stroke-width:1.2;stroke-linecap:butt;stroke-linejoin:round;stroke:rgb(0%,0%,0%);stroke-opacity:1;stroke-miterlimit:10;" d="M 5162.8125 2778.359375 L 5162.8125 2750.625 " transform="matrix(0.1,0,0,-0.1,0,555)"/>
<path style="fill:none;stroke-width:13.875;stroke-linecap:butt;stroke-linejoin:round;stroke:rgb(0%,0%,0%);stroke-opacity:1;stroke-miterlimit:10;" d="M 2802.695312 187.421875 L 2802.695312 5369.257812 " transform="matrix(0.1,0,0,-0.1,0,555)"/>
<path style="fill:none;stroke-width:1.2;stroke-linecap:butt;stroke-linejoin:round;stroke:rgb(0%,0%,0%);stroke-opacity:1;stroke-miterlimit:10;" d="M 2802.695312 187.34375 L 2747.226562 187.34375 " transform="matrix(0.1,0,0,-0.1,0,555)"/>
<g clip-path="url(#clip4)" clip-rule="nonzero">
<path style=" stroke:none;fill-rule:nonzero;fill:rgb(0%,0%,0%);fill-opacity:1;" d="M 252.808594 537.570312 L 264.730469 537.570312 L 264.730469 536.636719 L 252.808594 536.636719 Z M 252.808594 537.570312 "/>
</g>
<path style=" stroke:none;fill-rule:nonzero;fill:rgb(0%,0%,0%);fill-opacity:1;" d="M 262.972656 531.738281 L 265.878906 530.328125 L 266.160156 530.328125 L 266.160156 540.410156 C 266.160156 541.074219 266.191406 541.488281 266.246094 541.65625 C 266.304688 541.820312 266.421875 541.949219 266.59375 542.035156 C 266.769531 542.121094 267.121094 542.171875 267.65625 542.1875 L 267.65625 542.511719 L 263.167969 542.511719 L 263.167969 542.1875 C 263.734375 542.171875 264.097656 542.121094 264.261719 542.035156 C 264.429688 541.949219 264.546875 541.832031 264.609375 541.6875 C 264.675781 541.542969 264.710938 541.117188 264.710938 540.410156 L 264.710938 533.96875 C 264.710938 533.089844 264.679688 532.527344 264.621094 532.28125 C 264.578125 532.089844 264.503906 531.953125 264.394531 531.867188 C 264.285156 531.78125 264.152344 531.738281 263.992188 531.738281 C 263.777344 531.738281 263.480469 531.832031 263.105469 532.019531 L 262.972656 531.738281 "/>
<path style="fill:none;stroke-width:1.2;stroke-linecap:butt;stroke-linejoin:round;stroke:rgb(0%,0%,0%);stroke-opacity:1;stroke-miterlimit:10;" d="M 2802.695312 1482.851562 L 2747.226562 1482.851562 " transform="matrix(0.1,0,0,-0.1,0,555)"/>
<g clip-path="url(#clip5)" clip-rule="nonzero">
<path style=" stroke:none;fill-rule:nonzero;fill:rgb(0%,0%,0%);fill-opacity:1;" d="M 238.933594 408.53125 L 250.855469 408.53125 L 250.855469 407.597656 L 238.933594 407.597656 Z M 238.933594 408.53125 "/>
</g>
<path style=" stroke:none;fill-rule:nonzero;fill:rgb(0%,0%,0%);fill-opacity:1;" d="M 247.625 407.578125 C 247.625 406.21875 247.832031 405.046875 248.242188 404.054688 C 248.652344 403.0625 249.199219 402.328125 249.878906 401.855469 C 250.414062 401.480469 250.964844 401.289062 251.527344 401.289062 C 252.4375 401.289062 253.253906 401.753906 253.976562 402.675781 C 254.886719 403.835938 255.34375 405.402344 255.34375 407.382812 C 255.34375 408.769531 255.144531 409.949219 254.746094 410.914062 C 254.351562 411.886719 253.839844 412.589844 253.21875 413.03125 C 252.597656 413.472656 252.003906 413.691406 251.441406 413.691406 C 250.296875 413.691406 249.34375 413.019531 248.578125 411.675781 C 247.941406 410.535156 247.625 409.167969 247.625 407.578125 Z M 249.359375 407.796875 C 249.359375 409.441406 249.5625 410.785156 249.964844 411.828125 C 250.296875 412.695312 250.796875 413.128906 251.460938 413.128906 C 251.78125 413.128906 252.109375 412.988281 252.449219 412.703125 C 252.789062 412.421875 253.046875 411.941406 253.21875 411.261719 C 253.492188 410.265625 253.628906 408.84375 253.628906 406.992188 C 253.628906 405.632812 253.484375 404.5 253.195312 403.589844 C 252.992188 402.910156 252.71875 402.433594 252.371094 402.15625 C 252.140625 401.96875 251.851562 401.875 251.503906 401.875 C 251.113281 401.875 250.761719 402.050781 250.445312 402.394531 C 250.023438 402.886719 249.738281 403.65625 249.585938 404.703125 C 249.433594 405.753906 249.359375 406.78125 249.359375 407.796875 Z M 258.246094 411.761719 C 258.523438 411.761719 258.753906 411.859375 258.941406 412.054688 C 259.128906 412.25 259.222656 412.476562 259.222656 412.738281 C 259.222656 413.011719 259.128906 413.242188 258.941406 413.429688 C 258.753906 413.617188 258.523438 413.710938 258.246094 413.710938 C 257.972656 413.710938 257.742188 413.617188 257.554688 413.429688 C 257.367188 413.242188 257.269531 413.011719 257.269531 412.738281 C 257.269531 412.460938 257.367188 412.230469 257.554688 412.042969 C 257.742188 411.855469 257.972656 411.761719 258.246094 411.761719 Z M 268.328125 401.527344 L 267.636719 403.023438 L 264.058594 403.023438 L 263.277344 404.628906 C 264.824219 404.859375 266.054688 405.4375 266.964844 406.363281 C 267.742188 407.15625 268.132812 408.097656 268.132812 409.183594 C 268.132812 409.816406 268.007812 410.402344 267.753906 410.9375 C 267.503906 411.472656 267.179688 411.929688 266.789062 412.304688 C 266.398438 412.679688 265.964844 412.976562 265.488281 413.191406 C 264.824219 413.523438 264.128906 413.691406 263.40625 413.691406 C 262.699219 413.691406 262.183594 413.566406 261.855469 413.320312 C 261.53125 413.078125 261.371094 412.808594 261.371094 412.519531 C 261.371094 412.347656 261.4375 412.199219 261.574219 412.078125 C 261.714844 411.953125 261.882812 411.890625 262.085938 411.890625 C 262.230469 411.890625 262.359375 411.914062 262.476562 411.957031 C 262.589844 412 262.785156 412.121094 263.058594 412.324219 C 263.507812 412.628906 263.957031 412.78125 264.40625 412.78125 C 265.097656 412.78125 265.703125 412.519531 266.214844 412 C 266.730469 411.480469 266.984375 410.84375 266.984375 410.09375 C 266.984375 409.371094 266.753906 408.699219 266.289062 408.074219 C 265.828125 407.453125 265.191406 406.96875 264.382812 406.621094 C 263.734375 406.363281 262.859375 406.210938 261.761719 406.167969 L 264.058594 401.527344 L 268.328125 401.527344 "/>
<path style="fill:none;stroke-width:1.2;stroke-linecap:butt;stroke-linejoin:round;stroke:rgb(0%,0%,0%);stroke-opacity:1;stroke-miterlimit:10;" d="M 2802.695312 2778.359375 L 2747.226562 2778.359375 " transform="matrix(0.1,0,0,-0.1,0,555)"/>
<path style="fill:none;stroke-width:1.2;stroke-linecap:butt;stroke-linejoin:round;stroke:rgb(0%,0%,0%);stroke-opacity:1;stroke-miterlimit:10;" d="M 2802.695312 4073.90625 L 2747.226562 4073.90625 " transform="matrix(0.1,0,0,-0.1,0,555)"/>
<path style=" stroke:none;fill-rule:nonzero;fill:rgb(0%,0%,0%);fill-opacity:1;" d="M 247.625 148.117188 C 247.625 146.757812 247.832031 145.582031 248.242188 144.589844 C 248.652344 143.601562 249.199219 142.867188 249.878906 142.390625 C 250.414062 142.015625 250.964844 141.828125 251.527344 141.828125 C 252.4375 141.828125 253.253906 142.289062 253.976562 143.214844 C 254.886719 144.371094 255.34375 145.941406 255.34375 147.921875 C 255.34375 149.308594 255.144531 150.484375 254.746094 151.453125 C 254.351562 152.421875 253.839844 153.128906 253.21875 153.566406 C 252.597656 154.007812 252.003906 154.230469 251.441406 154.230469 C 250.296875 154.230469 249.34375 153.554688 248.578125 152.214844 C 247.941406 151.070312 247.625 149.703125 247.625 148.117188 Z M 249.359375 148.332031 C 249.359375 149.980469 249.5625 151.324219 249.964844 152.363281 C 250.296875 153.230469 250.796875 153.664062 251.460938 153.664062 C 251.78125 153.664062 252.109375 153.523438 252.449219 153.242188 C 252.789062 152.960938 253.046875 152.480469 253.21875 151.800781 C 253.492188 150.804688 253.628906 149.378906 253.628906 147.53125 C 253.628906 146.171875 253.484375 145.035156 253.195312 144.128906 C 252.992188 143.445312 252.71875 142.96875 252.371094 142.695312 C 252.140625 142.507812 251.851562 142.414062 251.503906 142.414062 C 251.113281 142.414062 250.761719 142.585938 250.445312 142.933594 C 250.023438 143.425781 249.738281 144.195312 249.585938 145.242188 C 249.433594 146.289062 249.359375 147.320312 249.359375 148.332031 Z M 258.246094 152.300781 C 258.523438 152.300781 258.753906 152.394531 258.941406 152.59375 C 259.128906 152.785156 259.222656 153.015625 259.222656 153.273438 C 259.222656 153.550781 259.128906 153.78125 258.941406 153.96875 C 258.753906 154.15625 258.523438 154.25 258.246094 154.25 C 257.972656 154.25 257.742188 154.15625 257.554688 153.96875 C 257.367188 153.78125 257.269531 153.550781 257.269531 153.273438 C 257.269531 153 257.367188 152.769531 257.554688 152.578125 C 257.742188 152.394531 257.972656 152.300781 258.246094 152.300781 Z M 268.328125 142.066406 L 267.636719 143.5625 L 264.058594 143.5625 L 263.277344 145.167969 C 264.824219 145.398438 266.054688 145.976562 266.964844 146.902344 C 267.742188 147.695312 268.132812 148.636719 268.132812 149.71875 C 268.132812 150.355469 268.007812 150.941406 267.753906 151.476562 C 267.503906 152.011719 267.179688 152.464844 266.789062 152.839844 C 266.398438 153.21875 265.964844 153.511719 265.488281 153.730469 C 264.824219 154.0625 264.128906 154.230469 263.40625 154.230469 C 262.699219 154.230469 262.183594 154.105469 261.855469 153.859375 C 261.53125 153.613281 261.371094 153.347656 261.371094 153.058594 C 261.371094 152.882812 261.4375 152.734375 261.574219 152.613281 C 261.714844 152.488281 261.882812 152.429688 262.085938 152.429688 C 262.230469 152.429688 262.359375 152.453125 262.476562 152.496094 C 262.589844 152.535156 262.785156 152.660156 263.058594 152.863281 C 263.507812 153.164062 263.957031 153.320312 264.40625 153.320312 C 265.097656 153.320312 265.703125 153.058594 266.214844 152.535156 C 266.730469 152.015625 266.984375 151.382812 266.984375 150.628906 C 266.984375 149.90625 266.753906 149.234375 266.289062 148.613281 C 265.828125 147.992188 265.191406 147.507812 264.382812 147.160156 C 263.734375 146.902344 262.859375 146.75 261.761719 146.707031 L 264.058594 142.066406 L 268.328125 142.066406 "/>
<path style="fill:none;stroke-width:1.2;stroke-linecap:butt;stroke-linejoin:round;stroke:rgb(0%,0%,0%);stroke-opacity:1;stroke-miterlimit:10;" d="M 2802.695312 5369.414062 L 2747.226562 5369.414062 " transform="matrix(0.1,0,0,-0.1,0,555)"/>
<path style=" stroke:none;fill-rule:nonzero;fill:rgb(0%,0%,0%);fill-opacity:1;" d="M 262.972656 14.199219 L 265.878906 12.789062 L 266.160156 12.789062 L 266.160156 22.871094 C 266.160156 23.535156 266.191406 23.953125 266.246094 24.117188 C 266.304688 24.285156 266.421875 24.410156 266.59375 24.496094 C 266.769531 24.585938 267.121094 24.636719 267.65625 24.648438 L 267.65625 24.976562 L 263.167969 24.976562 L 263.167969 24.648438 C 263.734375 24.636719 264.097656 24.585938 264.261719 24.496094 C 264.429688 24.410156 264.546875 24.296875 264.609375 24.152344 C 264.675781 24.007812 264.710938 23.578125 264.710938 22.871094 L 264.710938 16.433594 C 264.710938 15.550781 264.679688 14.988281 264.621094 14.742188 C 264.578125 14.554688 264.503906 14.417969 264.394531 14.328125 C 264.285156 14.242188 264.152344 14.199219 263.992188 14.199219 C 263.777344 14.199219 263.480469 14.292969 263.105469 14.480469 L 262.972656 14.199219 "/>
<path style="fill:none;stroke-width:1.2;stroke-linecap:butt;stroke-linejoin:round;stroke:rgb(0%,0%,0%);stroke-opacity:1;stroke-miterlimit:10;" d="M 2802.695312 446.445312 L 2774.960938 446.445312 " transform="matrix(0.1,0,0,-0.1,0,555)"/>
<path style="fill:none;stroke-width:1.2;stroke-linecap:butt;stroke-linejoin:round;stroke:rgb(0%,0%,0%);stroke-opacity:1;stroke-miterlimit:10;" d="M 2802.695312 705.546875 L 2774.960938 705.546875 " transform="matrix(0.1,0,0,-0.1,0,555)"/>
<path style="fill:none;stroke-width:1.2;stroke-linecap:butt;stroke-linejoin:round;stroke:rgb(0%,0%,0%);stroke-opacity:1;stroke-miterlimit:10;" d="M 2802.695312 964.648438 L 2774.960938 964.648438 " transform="matrix(0.1,0,0,-0.1,0,555)"/>
<path style="fill:none;stroke-width:1.2;stroke-linecap:butt;stroke-linejoin:round;stroke:rgb(0%,0%,0%);stroke-opacity:1;stroke-miterlimit:10;" d="M 2802.695312 1223.710938 L 2774.960938 1223.710938 " transform="matrix(0.1,0,0,-0.1,0,555)"/>
<path style="fill:none;stroke-width:1.2;stroke-linecap:butt;stroke-linejoin:round;stroke:rgb(0%,0%,0%);stroke-opacity:1;stroke-miterlimit:10;" d="M 2802.695312 1741.953125 L 2774.960938 1741.953125 " transform="matrix(0.1,0,0,-0.1,0,555)"/>
<path style="fill:none;stroke-width:1.2;stroke-linecap:butt;stroke-linejoin:round;stroke:rgb(0%,0%,0%);stroke-opacity:1;stroke-miterlimit:10;" d="M 2802.695312 2001.054688 L 2774.960938 2001.054688 " transform="matrix(0.1,0,0,-0.1,0,555)"/>
<path style="fill:none;stroke-width:1.2;stroke-linecap:butt;stroke-linejoin:round;stroke:rgb(0%,0%,0%);stroke-opacity:1;stroke-miterlimit:10;" d="M 2802.695312 2260.15625 L 2774.960938 2260.15625 " transform="matrix(0.1,0,0,-0.1,0,555)"/>
<path style="fill:none;stroke-width:1.2;stroke-linecap:butt;stroke-linejoin:round;stroke:rgb(0%,0%,0%);stroke-opacity:1;stroke-miterlimit:10;" d="M 2802.695312 2519.257812 L 2774.960938 2519.257812 " transform="matrix(0.1,0,0,-0.1,0,555)"/>
<path style="fill:none;stroke-width:1.2;stroke-linecap:butt;stroke-linejoin:round;stroke:rgb(0%,0%,0%);stroke-opacity:1;stroke-miterlimit:10;" d="M 2802.695312 3037.460938 L 2774.960938 3037.460938 " transform="matrix(0.1,0,0,-0.1,0,555)"/>
<path style="fill:none;stroke-width:1.2;stroke-linecap:butt;stroke-linejoin:round;stroke:rgb(0%,0%,0%);stroke-opacity:1;stroke-miterlimit:10;" d="M 2802.695312 3296.5625 L 2774.960938 3296.5625 " transform="matrix(0.1,0,0,-0.1,0,555)"/>
<path style="fill:none;stroke-width:1.2;stroke-linecap:butt;stroke-linejoin:round;stroke:rgb(0%,0%,0%);stroke-opacity:1;stroke-miterlimit:10;" d="M 2802.695312 3555.664062 L 2774.960938 3555.664062 " transform="matrix(0.1,0,0,-0.1,0,555)"/>
<path style="fill:none;stroke-width:1.2;stroke-linecap:butt;stroke-linejoin:round;stroke:rgb(0%,0%,0%);stroke-opacity:1;stroke-miterlimit:10;" d="M 2802.695312 3814.765625 L 2774.960938 3814.765625 " transform="matrix(0.1,0,0,-0.1,0,555)"/>
<path style="fill:none;stroke-width:1.2;stroke-linecap:butt;stroke-linejoin:round;stroke:rgb(0%,0%,0%);stroke-opacity:1;stroke-miterlimit:10;" d="M 2802.695312 4333.007812 L 2774.960938 4333.007812 " transform="matrix(0.1,0,0,-0.1,0,555)"/>
<path style="fill:none;stroke-width:1.2;stroke-linecap:butt;stroke-linejoin:round;stroke:rgb(0%,0%,0%);stroke-opacity:1;stroke-miterlimit:10;" d="M 2802.695312 4592.109375 L 2774.960938 4592.109375 " transform="matrix(0.1,0,0,-0.1,0,555)"/>
<path style="fill:none;stroke-width:1.2;stroke-linecap:butt;stroke-linejoin:round;stroke:rgb(0%,0%,0%);stroke-opacity:1;stroke-miterlimit:10;" d="M 2802.695312 4851.210938 L 2774.960938 4851.210938 " transform="matrix(0.1,0,0,-0.1,0,555)"/>
<path style="fill:none;stroke-width:1.2;stroke-linecap:butt;stroke-linejoin:round;stroke:rgb(0%,0%,0%);stroke-opacity:1;stroke-miterlimit:10;" d="M 2802.695312 5110.3125 L 2774.960938 5110.3125 " transform="matrix(0.1,0,0,-0.1,0,555)"/>
</g>
</svg>
