<?xml version="1.0" encoding="UTF-8"?>
<svg xmlns="http://www.w3.org/2000/svg" xmlns:xlink="http://www.w3.org/1999/xlink" width="555pt" height="555pt" viewBox="0 0 555 555" version="1.1">
<defs>
<clipPath id="clip1">
  <path d="M 12 254 L 24 254 L 24 267.785156 L 12 267.785156 Z M 12 254 "/>
</clipPath>
</defs>
<g id="surface1">
<rect x="0" y="0" width="555" height="555" style="fill:rgb(100%,100%,100%);fill-opacity:1;stroke:none;"/>
<path style="fill:none;stroke-width:13.875;stroke-linecap:square;stroke-linejoin:miter;stroke:rgb(0%,0%,100%);stroke-opacity:1;stroke-miterlimit:10;" d="M 3083.710938 3003.828125 C 3083.710938 2980.859375 3065.078125 2962.226562 3042.070312 2962.226562 C 3019.101562 2962.226562 3000.46875 2980.859375 3000.46875 3003.828125 C 3000.46875 3026.835938 3019.101562 3045.46875 3042.070312 3045.46875 C 3065.078125 3045.46875 3083.710938 3026.835938 3083.710938 3003.828125 Z M 3083.710938 3003.828125 " transform="matrix(0.1,0,0,-0.1,0,555)"/>
<path style=" stroke:none;fill-rule:nonzero;fill:rgb(0%,0%,100%);fill-opacity:1;" d="M 308.371094 254.617188 C 308.371094 256.914062 306.507812 258.777344 304.207031 258.777344 C 301.910156 258.777344 300.046875 256.914062 300.046875 254.617188 C 300.046875 252.316406 301.910156 250.453125 304.207031 250.453125 C 306.507812 250.453125 308.371094 252.316406 308.371094 254.617188 "/>
<path style="fill:none;stroke-width:27.75;stroke-linecap:butt;stroke-linejoin:round;stroke:rgb(0%,0%,100%);stroke-opacity:1;stroke-miterlimit:10;" d="M 4837.96875 3232.382812 L 4833.984375 3237.578125 " transform="matrix(0.1,0,0,-0.1,0,555)"/>
<path style="fill:none;stroke-width:27.75;stroke-linecap:butt;stroke-linejoin:round;stroke:rgb(0%,0%,100%);stroke-opacity:1;stroke-miterlimit:10;" d="M 4833.984375 3237.578125 L 4820.234375 3255.234375 " transform="matrix(0.1,0,0,-0.1,0,555)"/>
<path style="fill:none;stroke-width:27.75;stroke-linecap:butt;stroke-linejoin:round;stroke:rgb(0%,0%,100%);stroke-opacity:1;stroke-miterlimit:10;" d="M 4906.5625 3141.328125 L 4837.96875 3232.382812 " transform="matrix(0.1,0,0,-0.1,0,555)"/>
<path style="fill:none;stroke-width:27.75;stroke-linecap:butt;stroke-linejoin:round;stroke:rgb(0%,0%,100%);stroke-opacity:1;stroke-miterlimit:10;" d="M 5031.367188 2968.90625 L 4977.070312 3045.039062 " transform="matrix(0.1,0,0,-0.1,0,555)"/>
<path style="fill:none;stroke-width:27.75;stroke-linecap:butt;stroke-linejoin:round;stroke:rgb(0%,0%,100%);stroke-opacity:1;stroke-miterlimit:10;" d="M 5128.046875 2828.4375 L 5111.835938 2852.5 " transform="matrix(0.1,0,0,-0.1,0,555)"/>
<path style="fill:none;stroke-width:27.75;stroke-linecap:butt;stroke-linejoin:round;stroke:rgb(0%,0%,100%);stroke-opacity:1;stroke-miterlimit:10;" d="M 5111.835938 2852.5 L 5076.40625 2903.90625 " transform="matrix(0.1,0,0,-0.1,0,555)"/>
<path style="fill:none;stroke-width:27.75;stroke-linecap:butt;stroke-linejoin:round;stroke:rgb(0%,0%,100%);stroke-opacity:1;stroke-miterlimit:10;" d="M 4977.070312 3045.039062 L 4934.648438 3103.28125 " transform="matrix(0.1,0,0,-0.1,0,555)"/>
<path style="fill:none;stroke-width:27.75;stroke-linecap:butt;stroke-linejoin:round;stroke:rgb(0%,0%,100%);stroke-opacity:1;stroke-miterlimit:10;" d="M 5045.507812 2948.789062 L 5076.40625 2903.90625 " transform="matrix(0.1,0,0,-0.1,0,555)"/>
<path style="fill:none;stroke-width:27.75;stroke-linecap:butt;stroke-linejoin:round;stroke:rgb(0%,0%,100%);stroke-opacity:1;stroke-miterlimit:10;" d="M 5045.507812 2948.789062 L 5031.367188 2968.90625 " transform="matrix(0.1,0,0,-0.1,0,555)"/>
<path style="fill:none;stroke-width:27.75;stroke-linecap:butt;stroke-linejoin:round;stroke:rgb(0%,0%,100%);stroke-opacity:1;stroke-miterlimit:10;" d="M 4934.648438 3103.28125 L 4906.5625 3141.328125 " transform="matrix(0.1,0,0,-0.1,0,555)"/>
<path style="fill:none;stroke-width:27.75;stroke-linecap:butt;stroke-linejoin:round;stroke:rgb(0%,0%,100%);stroke-opacity:1;stroke-miterlimit:10;" d="M 4601.796875 3526.40625 L 4547.851562 3589.84375 " transform="matrix(0.1,0,0,-0.1,0,555)"/>
<path style="fill:none;stroke-width:27.75;stroke-linecap:butt;stroke-linejoin:round;stroke:rgb(0%,0%,100%);stroke-opacity:1;stroke-miterlimit:10;" d="M 4547.851562 3589.84375 L 4519.53125 3622.65625 " transform="matrix(0.1,0,0,-0.1,0,555)"/>
<path style="fill:none;stroke-width:27.75;stroke-linecap:butt;stroke-linejoin:round;stroke:rgb(0%,0%,100%);stroke-opacity:1;stroke-miterlimit:10;" d="M 4644.570312 3475.15625 L 4601.796875 3526.40625 " transform="matrix(0.1,0,0,-0.1,0,555)"/>
<path style="fill:none;stroke-width:27.75;stroke-linecap:butt;stroke-linejoin:round;stroke:rgb(0%,0%,100%);stroke-opacity:1;stroke-miterlimit:10;" d="M 4354.453125 3807.1875 L 4347.03125 3815.195312 " transform="matrix(0.1,0,0,-0.1,0,555)"/>
<path style="fill:none;stroke-width:27.75;stroke-linecap:butt;stroke-linejoin:round;stroke:rgb(0%,0%,100%);stroke-opacity:1;stroke-miterlimit:10;" d="M 4163.046875 4007.734375 L 4161.054688 4009.765625 " transform="matrix(0.1,0,0,-0.1,0,555)"/>
<path style="fill:none;stroke-width:27.75;stroke-linecap:butt;stroke-linejoin:round;stroke:rgb(0%,0%,100%);stroke-opacity:1;stroke-miterlimit:10;" d="M 4257.773438 3910.234375 L 4256.5625 3911.484375 " transform="matrix(0.1,0,0,-0.1,0,555)"/>
<path style="fill:none;stroke-width:27.75;stroke-linecap:butt;stroke-linejoin:round;stroke:rgb(0%,0%,100%);stroke-opacity:1;stroke-miterlimit:10;" d="M 4256.5625 3911.484375 L 4221.484375 3947.578125 " transform="matrix(0.1,0,0,-0.1,0,555)"/>
<path style="fill:none;stroke-width:27.75;stroke-linecap:butt;stroke-linejoin:round;stroke:rgb(0%,0%,100%);stroke-opacity:1;stroke-miterlimit:10;" d="M 4163.046875 4007.734375 L 4221.484375 3947.578125 " transform="matrix(0.1,0,0,-0.1,0,555)"/>
<path style="fill:none;stroke-width:27.75;stroke-linecap:butt;stroke-linejoin:round;stroke:rgb(0%,0%,100%);stroke-opacity:1;stroke-miterlimit:10;" d="M 4347.03125 3815.195312 L 4257.773438 3910.234375 " transform="matrix(0.1,0,0,-0.1,0,555)"/>
<path style="fill:none;stroke-width:27.75;stroke-linecap:butt;stroke-linejoin:round;stroke:rgb(0%,0%,100%);stroke-opacity:1;stroke-miterlimit:10;" d="M 4451.171875 3700.46875 L 4434.648438 3718.945312 " transform="matrix(0.1,0,0,-0.1,0,555)"/>
<path style="fill:none;stroke-width:27.75;stroke-linecap:butt;stroke-linejoin:round;stroke:rgb(0%,0%,100%);stroke-opacity:1;stroke-miterlimit:10;" d="M 4434.648438 3718.945312 L 4354.453125 3807.1875 " transform="matrix(0.1,0,0,-0.1,0,555)"/>
<path style="fill:none;stroke-width:27.75;stroke-linecap:butt;stroke-linejoin:round;stroke:rgb(0%,0%,100%);stroke-opacity:1;stroke-miterlimit:10;" d="M 4519.53125 3622.65625 L 4451.171875 3700.46875 " transform="matrix(0.1,0,0,-0.1,0,555)"/>
<path style="fill:none;stroke-width:27.75;stroke-linecap:butt;stroke-linejoin:round;stroke:rgb(0%,0%,100%);stroke-opacity:1;stroke-miterlimit:10;" d="M 4741.289062 3356.09375 L 4681.5625 3430.117188 " transform="matrix(0.1,0,0,-0.1,0,555)"/>
<path style="fill:none;stroke-width:27.75;stroke-linecap:butt;stroke-linejoin:round;stroke:rgb(0%,0%,100%);stroke-opacity:1;stroke-miterlimit:10;" d="M 4758.945312 3333.867188 L 4741.289062 3356.09375 " transform="matrix(0.1,0,0,-0.1,0,555)"/>
<path style="fill:none;stroke-width:27.75;stroke-linecap:butt;stroke-linejoin:round;stroke:rgb(0%,0%,100%);stroke-opacity:1;stroke-miterlimit:10;" d="M 4681.5625 3430.117188 L 4644.570312 3475.15625 " transform="matrix(0.1,0,0,-0.1,0,555)"/>
<path style="fill:none;stroke-width:27.75;stroke-linecap:butt;stroke-linejoin:round;stroke:rgb(0%,0%,100%);stroke-opacity:1;stroke-miterlimit:10;" d="M 4758.945312 3333.867188 L 4820.234375 3255.234375 " transform="matrix(0.1,0,0,-0.1,0,555)"/>
<path style="fill:none;stroke-width:27.75;stroke-linecap:butt;stroke-linejoin:round;stroke:rgb(0%,0%,100%);stroke-opacity:1;stroke-miterlimit:10;" d="M 3967.65625 4199.101562 L 3966.40625 4200.273438 " transform="matrix(0.1,0,0,-0.1,0,555)"/>
<path style="fill:none;stroke-width:27.75;stroke-linecap:butt;stroke-linejoin:round;stroke:rgb(0%,0%,100%);stroke-opacity:1;stroke-miterlimit:10;" d="M 3967.65625 4199.101562 L 4003.90625 4164.179688 " transform="matrix(0.1,0,0,-0.1,0,555)"/>
<path style="fill:none;stroke-width:27.75;stroke-linecap:butt;stroke-linejoin:round;stroke:rgb(0%,0%,100%);stroke-opacity:1;stroke-miterlimit:10;" d="M 3870.976562 4289.179688 L 3862.890625 4296.5625 " transform="matrix(0.1,0,0,-0.1,0,555)"/>
<path style="fill:none;stroke-width:27.75;stroke-linecap:butt;stroke-linejoin:round;stroke:rgb(0%,0%,100%);stroke-opacity:1;stroke-miterlimit:10;" d="M 3966.40625 4200.273438 L 3870.976562 4289.179688 " transform="matrix(0.1,0,0,-0.1,0,555)"/>
<path style="fill:none;stroke-width:27.75;stroke-linecap:butt;stroke-linejoin:round;stroke:rgb(0%,0%,100%);stroke-opacity:1;stroke-miterlimit:10;" d="M 3580.859375 4542.8125 L 3529.375 4585.390625 " transform="matrix(0.1,0,0,-0.1,0,555)"/>
<path style="fill:none;stroke-width:27.75;stroke-linecap:butt;stroke-linejoin:round;stroke:rgb(0%,0%,100%);stroke-opacity:1;stroke-miterlimit:10;" d="M 3529.375 4585.390625 L 3484.140625 4622.226562 " transform="matrix(0.1,0,0,-0.1,0,555)"/>
<path style="fill:none;stroke-width:27.75;stroke-linecap:butt;stroke-linejoin:round;stroke:rgb(0%,0%,100%);stroke-opacity:1;stroke-miterlimit:10;" d="M 3644.609375 4489.101562 L 3580.859375 4542.8125 " transform="matrix(0.1,0,0,-0.1,0,555)"/>
<path style="fill:none;stroke-width:27.75;stroke-linecap:butt;stroke-linejoin:round;stroke:rgb(0%,0%,100%);stroke-opacity:1;stroke-miterlimit:10;" d="M 3774.257812 4376.40625 L 3755.703125 4392.851562 " transform="matrix(0.1,0,0,-0.1,0,555)"/>
<path style="fill:none;stroke-width:27.75;stroke-linecap:butt;stroke-linejoin:round;stroke:rgb(0%,0%,100%);stroke-opacity:1;stroke-miterlimit:10;" d="M 3755.703125 4392.851562 L 3677.578125 4460.898438 " transform="matrix(0.1,0,0,-0.1,0,555)"/>
<path style="fill:none;stroke-width:27.75;stroke-linecap:butt;stroke-linejoin:round;stroke:rgb(0%,0%,100%);stroke-opacity:1;stroke-miterlimit:10;" d="M 3677.578125 4460.898438 L 3644.609375 4489.101562 " transform="matrix(0.1,0,0,-0.1,0,555)"/>
<path style="fill:none;stroke-width:27.75;stroke-linecap:butt;stroke-linejoin:round;stroke:rgb(0%,0%,100%);stroke-opacity:1;stroke-miterlimit:10;" d="M 3862.890625 4296.5625 L 3774.257812 4376.40625 " transform="matrix(0.1,0,0,-0.1,0,555)"/>
<path style="fill:none;stroke-width:27.75;stroke-linecap:butt;stroke-linejoin:round;stroke:rgb(0%,0%,100%);stroke-opacity:1;stroke-miterlimit:10;" d="M 3194.0625 4846.210938 L 3155.859375 4874.21875 " transform="matrix(0.1,0,0,-0.1,0,555)"/>
<path style="fill:none;stroke-width:27.75;stroke-linecap:butt;stroke-linejoin:round;stroke:rgb(0%,0%,100%);stroke-opacity:1;stroke-miterlimit:10;" d="M 3097.382812 4916.40625 L 3020.898438 4970.46875 " transform="matrix(0.1,0,0,-0.1,0,555)"/>
<path style="fill:none;stroke-width:27.75;stroke-linecap:butt;stroke-linejoin:round;stroke:rgb(0%,0%,100%);stroke-opacity:1;stroke-miterlimit:10;" d="M 2903.984375 5050.585938 L 2879.804688 5066.757812 " transform="matrix(0.1,0,0,-0.1,0,555)"/>
<path style="fill:none;stroke-width:27.75;stroke-linecap:butt;stroke-linejoin:round;stroke:rgb(0%,0%,100%);stroke-opacity:1;stroke-miterlimit:10;" d="M 2879.804688 5066.757812 L 2807.265625 5114.53125 " transform="matrix(0.1,0,0,-0.1,0,555)"/>
<path style="fill:none;stroke-width:27.75;stroke-linecap:butt;stroke-linejoin:round;stroke:rgb(0%,0%,100%);stroke-opacity:1;stroke-miterlimit:10;" d="M 2903.984375 5050.585938 L 2955.625 5015.3125 " transform="matrix(0.1,0,0,-0.1,0,555)"/>
<path style="fill:none;stroke-width:27.75;stroke-linecap:butt;stroke-linejoin:round;stroke:rgb(0%,0%,100%);stroke-opacity:1;stroke-miterlimit:10;" d="M 3000.664062 4984.570312 L 2955.625 5015.3125 " transform="matrix(0.1,0,0,-0.1,0,555)"/>
<path style="fill:none;stroke-width:27.75;stroke-linecap:butt;stroke-linejoin:round;stroke:rgb(0%,0%,100%);stroke-opacity:1;stroke-miterlimit:10;" d="M 3020.898438 4970.46875 L 3000.664062 4984.570312 " transform="matrix(0.1,0,0,-0.1,0,555)"/>
<path style="fill:none;stroke-width:27.75;stroke-linecap:butt;stroke-linejoin:round;stroke:rgb(0%,0%,100%);stroke-opacity:1;stroke-miterlimit:10;" d="M 3155.859375 4874.21875 L 3097.382812 4916.40625 " transform="matrix(0.1,0,0,-0.1,0,555)"/>
<path style="fill:none;stroke-width:27.75;stroke-linecap:butt;stroke-linejoin:round;stroke:rgb(0%,0%,100%);stroke-opacity:1;stroke-miterlimit:10;" d="M 3290.742188 4773.984375 L 3285.546875 4777.929688 " transform="matrix(0.1,0,0,-0.1,0,555)"/>
<path style="fill:none;stroke-width:27.75;stroke-linecap:butt;stroke-linejoin:round;stroke:rgb(0%,0%,100%);stroke-opacity:1;stroke-miterlimit:10;" d="M 3290.742188 4773.984375 L 3308.476562 4760.273438 " transform="matrix(0.1,0,0,-0.1,0,555)"/>
<path style="fill:none;stroke-width:27.75;stroke-linecap:butt;stroke-linejoin:round;stroke:rgb(0%,0%,100%);stroke-opacity:1;stroke-miterlimit:10;" d="M 3387.460938 4699.257812 L 3308.476562 4760.273438 " transform="matrix(0.1,0,0,-0.1,0,555)"/>
<path style="fill:none;stroke-width:27.75;stroke-linecap:butt;stroke-linejoin:round;stroke:rgb(0%,0%,100%);stroke-opacity:1;stroke-miterlimit:10;" d="M 3409.804688 4681.640625 L 3387.460938 4699.257812 " transform="matrix(0.1,0,0,-0.1,0,555)"/>
<path style="fill:none;stroke-width:27.75;stroke-linecap:butt;stroke-linejoin:round;stroke:rgb(0%,0%,100%);stroke-opacity:1;stroke-miterlimit:10;" d="M 3285.546875 4777.929688 L 3194.0625 4846.210938 " transform="matrix(0.1,0,0,-0.1,0,555)"/>
<path style="fill:none;stroke-width:27.75;stroke-linecap:butt;stroke-linejoin:round;stroke:rgb(0%,0%,100%);stroke-opacity:1;stroke-miterlimit:10;" d="M 3484.140625 4622.226562 L 3409.804688 4681.640625 " transform="matrix(0.1,0,0,-0.1,0,555)"/>
<path style="fill:none;stroke-width:27.75;stroke-linecap:butt;stroke-linejoin:round;stroke:rgb(0%,0%,100%);stroke-opacity:1;stroke-miterlimit:10;" d="M 4066.367188 4104.023438 L 4064.375 4106.015625 " transform="matrix(0.1,0,0,-0.1,0,555)"/>
<path style="fill:none;stroke-width:27.75;stroke-linecap:butt;stroke-linejoin:round;stroke:rgb(0%,0%,100%);stroke-opacity:1;stroke-miterlimit:10;" d="M 4064.375 4106.015625 L 4003.90625 4164.179688 " transform="matrix(0.1,0,0,-0.1,0,555)"/>
<path style="fill:none;stroke-width:27.75;stroke-linecap:butt;stroke-linejoin:round;stroke:rgb(0%,0%,100%);stroke-opacity:1;stroke-miterlimit:10;" d="M 4161.054688 4009.765625 L 4066.367188 4104.023438 " transform="matrix(0.1,0,0,-0.1,0,555)"/>
<path style="fill:none;stroke-width:27.75;stroke-linecap:butt;stroke-linejoin:round;stroke:rgb(0%,0%,100%);stroke-opacity:1;stroke-miterlimit:10;" d="M 5357.539062 2467.421875 L 5321.445312 2527.03125 " transform="matrix(0.1,0,0,-0.1,0,555)"/>
<path style="fill:none;stroke-width:27.75;stroke-linecap:butt;stroke-linejoin:round;stroke:rgb(0%,0%,100%);stroke-opacity:1;stroke-miterlimit:10;" d="M 5224.765625 2681.40625 L 5176.054688 2756.210938 " transform="matrix(0.1,0,0,-0.1,0,555)"/>
<path style="fill:none;stroke-width:27.75;stroke-linecap:butt;stroke-linejoin:round;stroke:rgb(0%,0%,100%);stroke-opacity:1;stroke-miterlimit:10;" d="M 5238.554688 2659.960938 L 5261.484375 2623.398438 " transform="matrix(0.1,0,0,-0.1,0,555)"/>
<path style="fill:none;stroke-width:27.75;stroke-linecap:butt;stroke-linejoin:round;stroke:rgb(0%,0%,100%);stroke-opacity:1;stroke-miterlimit:10;" d="M 5238.554688 2659.960938 L 5224.765625 2681.40625 " transform="matrix(0.1,0,0,-0.1,0,555)"/>
<path style="fill:none;stroke-width:27.75;stroke-linecap:butt;stroke-linejoin:round;stroke:rgb(0%,0%,100%);stroke-opacity:1;stroke-miterlimit:10;" d="M 5321.445312 2527.03125 L 5298.984375 2563.671875 " transform="matrix(0.1,0,0,-0.1,0,555)"/>
<path style="fill:none;stroke-width:27.75;stroke-linecap:butt;stroke-linejoin:round;stroke:rgb(0%,0%,100%);stroke-opacity:1;stroke-miterlimit:10;" d="M 5298.984375 2563.671875 L 5261.484375 2623.398438 " transform="matrix(0.1,0,0,-0.1,0,555)"/>
<path style="fill:none;stroke-width:27.75;stroke-linecap:butt;stroke-linejoin:round;stroke:rgb(0%,0%,100%);stroke-opacity:1;stroke-miterlimit:10;" d="M 5418.164062 2364.84375 L 5414.53125 2371.132812 " transform="matrix(0.1,0,0,-0.1,0,555)"/>
<path style="fill:none;stroke-width:27.75;stroke-linecap:butt;stroke-linejoin:round;stroke:rgb(0%,0%,100%);stroke-opacity:1;stroke-miterlimit:10;" d="M 5414.53125 2371.132812 L 5409.296875 2379.960938 " transform="matrix(0.1,0,0,-0.1,0,555)"/>
<path style="fill:none;stroke-width:27.75;stroke-linecap:butt;stroke-linejoin:round;stroke:rgb(0%,0%,100%);stroke-opacity:1;stroke-miterlimit:10;" d="M 5357.539062 2467.421875 L 5409.296875 2379.960938 " transform="matrix(0.1,0,0,-0.1,0,555)"/>
<path style="fill:none;stroke-width:27.75;stroke-linecap:butt;stroke-linejoin:round;stroke:rgb(0%,0%,100%);stroke-opacity:1;stroke-miterlimit:10;" d="M 2613.867188 5236.875 L 2673.867188 5199.53125 " transform="matrix(0.1,0,0,-0.1,0,555)"/>
<path style="fill:none;stroke-width:27.75;stroke-linecap:butt;stroke-linejoin:round;stroke:rgb(0%,0%,100%);stroke-opacity:1;stroke-miterlimit:10;" d="M 2710.585938 5176.71875 L 2673.867188 5199.53125 " transform="matrix(0.1,0,0,-0.1,0,555)"/>
<path style="fill:none;stroke-width:27.75;stroke-linecap:butt;stroke-linejoin:round;stroke:rgb(0%,0%,100%);stroke-opacity:1;stroke-miterlimit:10;" d="M 2732.109375 5163.007812 L 2710.585938 5176.71875 " transform="matrix(0.1,0,0,-0.1,0,555)"/>
<path style="fill:none;stroke-width:27.75;stroke-linecap:butt;stroke-linejoin:round;stroke:rgb(0%,0%,100%);stroke-opacity:1;stroke-miterlimit:10;" d="M 2577.070312 5259.296875 L 2517.148438 5295.195312 " transform="matrix(0.1,0,0,-0.1,0,555)"/>
<path style="fill:none;stroke-width:27.75;stroke-linecap:butt;stroke-linejoin:round;stroke:rgb(0%,0%,100%);stroke-opacity:1;stroke-miterlimit:10;" d="M 2613.867188 5236.875 L 2577.070312 5259.296875 " transform="matrix(0.1,0,0,-0.1,0,555)"/>
<path style="fill:none;stroke-width:27.75;stroke-linecap:butt;stroke-linejoin:round;stroke:rgb(0%,0%,100%);stroke-opacity:1;stroke-miterlimit:10;" d="M 2420.46875 5351.914062 L 2414.140625 5355.546875 " transform="matrix(0.1,0,0,-0.1,0,555)"/>
<path style="fill:none;stroke-width:27.75;stroke-linecap:butt;stroke-linejoin:round;stroke:rgb(0%,0%,100%);stroke-opacity:1;stroke-miterlimit:10;" d="M 2420.46875 5351.914062 L 2429.335938 5346.71875 " transform="matrix(0.1,0,0,-0.1,0,555)"/>
<path style="fill:none;stroke-width:27.75;stroke-linecap:butt;stroke-linejoin:round;stroke:rgb(0%,0%,100%);stroke-opacity:1;stroke-miterlimit:10;" d="M 2517.148438 5295.195312 L 2429.335938 5346.71875 " transform="matrix(0.1,0,0,-0.1,0,555)"/>
<path style="fill:none;stroke-width:27.75;stroke-linecap:butt;stroke-linejoin:round;stroke:rgb(0%,0%,100%);stroke-opacity:1;stroke-miterlimit:10;" d="M 2807.265625 5114.53125 L 2732.109375 5163.007812 " transform="matrix(0.1,0,0,-0.1,0,555)"/>
<path style="fill:none;stroke-width:27.75;stroke-linecap:butt;stroke-linejoin:round;stroke:rgb(0%,0%,100%);stroke-opacity:1;stroke-miterlimit:10;" d="M 5176.054688 2756.210938 L 5128.046875 2828.4375 " transform="matrix(0.1,0,0,-0.1,0,555)"/>
<path style="fill:none;stroke-width:27.75;stroke-linecap:butt;stroke-linejoin:round;stroke:rgb(0%,0%,100%);stroke-opacity:1;stroke-miterlimit:10;" d="M 3194.0625 2847.890625 L 3189.726562 2852.5 " transform="matrix(0.1,0,0,-0.1,0,555)"/>
<path style="fill:none;stroke-width:27.75;stroke-linecap:butt;stroke-linejoin:round;stroke:rgb(0%,0%,100%);stroke-opacity:1;stroke-miterlimit:10;" d="M 2807.265625 3225.78125 L 2794.140625 3237.578125 " transform="matrix(0.1,0,0,-0.1,0,555)"/>
<path style="fill:none;stroke-width:27.75;stroke-linecap:butt;stroke-linejoin:round;stroke:rgb(0%,0%,100%);stroke-opacity:1;stroke-miterlimit:10;" d="M 2903.984375 3136.992188 L 2899.335938 3141.328125 " transform="matrix(0.1,0,0,-0.1,0,555)"/>
<path style="fill:none;stroke-width:27.75;stroke-linecap:butt;stroke-linejoin:round;stroke:rgb(0%,0%,100%);stroke-opacity:1;stroke-miterlimit:10;" d="M 2899.335938 3141.328125 L 2807.265625 3225.78125 " transform="matrix(0.1,0,0,-0.1,0,555)"/>
<path style="fill:none;stroke-width:27.75;stroke-linecap:butt;stroke-linejoin:round;stroke:rgb(0%,0%,100%);stroke-opacity:1;stroke-miterlimit:10;" d="M 3000.664062 3044.53125 L 3000.15625 3045.039062 " transform="matrix(0.1,0,0,-0.1,0,555)"/>
<path style="fill:none;stroke-width:27.75;stroke-linecap:butt;stroke-linejoin:round;stroke:rgb(0%,0%,100%);stroke-opacity:1;stroke-miterlimit:10;" d="M 3097.382812 2948.28125 L 3096.875 2948.789062 " transform="matrix(0.1,0,0,-0.1,0,555)"/>
<path style="fill:none;stroke-width:27.75;stroke-linecap:butt;stroke-linejoin:round;stroke:rgb(0%,0%,100%);stroke-opacity:1;stroke-miterlimit:10;" d="M 3096.875 2948.789062 L 3000.664062 3044.53125 " transform="matrix(0.1,0,0,-0.1,0,555)"/>
<path style="fill:none;stroke-width:27.75;stroke-linecap:butt;stroke-linejoin:round;stroke:rgb(0%,0%,100%);stroke-opacity:1;stroke-miterlimit:10;" d="M 3000.15625 3045.039062 L 2903.984375 3136.992188 " transform="matrix(0.1,0,0,-0.1,0,555)"/>
<path style="fill:none;stroke-width:27.75;stroke-linecap:butt;stroke-linejoin:round;stroke:rgb(0%,0%,100%);stroke-opacity:1;stroke-miterlimit:10;" d="M 3189.726562 2852.5 L 3097.382812 2948.28125 " transform="matrix(0.1,0,0,-0.1,0,555)"/>
<path style="fill:none;stroke-width:27.75;stroke-linecap:butt;stroke-linejoin:round;stroke:rgb(0%,0%,100%);stroke-opacity:1;stroke-miterlimit:10;" d="M 4176.523438 1504.6875 L 4194.726562 1471.171875 " transform="matrix(0.1,0,0,-0.1,0,555)"/>
<path style="fill:none;stroke-width:27.75;stroke-linecap:butt;stroke-linejoin:round;stroke:rgb(0%,0%,100%);stroke-opacity:1;stroke-miterlimit:10;" d="M 4176.523438 1504.6875 L 4161.054688 1532.304688 " transform="matrix(0.1,0,0,-0.1,0,555)"/>
<path style="fill:none;stroke-width:27.75;stroke-linecap:butt;stroke-linejoin:round;stroke:rgb(0%,0%,100%);stroke-opacity:1;stroke-miterlimit:10;" d="M 4502.148438 830.78125 L 4468.789062 909.492188 " transform="matrix(0.1,0,0,-0.1,0,555)"/>
<path style="fill:none;stroke-width:27.75;stroke-linecap:butt;stroke-linejoin:round;stroke:rgb(0%,0%,100%);stroke-opacity:1;stroke-miterlimit:10;" d="M 4354.453125 1160.546875 L 4327.578125 1215.898438 " transform="matrix(0.1,0,0,-0.1,0,555)"/>
<path style="fill:none;stroke-width:27.75;stroke-linecap:butt;stroke-linejoin:round;stroke:rgb(0%,0%,100%);stroke-opacity:1;stroke-miterlimit:10;" d="M 4374.023438 1119.609375 L 4354.453125 1160.546875 " transform="matrix(0.1,0,0,-0.1,0,555)"/>
<path style="fill:none;stroke-width:27.75;stroke-linecap:butt;stroke-linejoin:round;stroke:rgb(0%,0%,100%);stroke-opacity:1;stroke-miterlimit:10;" d="M 4257.773438 1353.515625 L 4228.828125 1408.4375 " transform="matrix(0.1,0,0,-0.1,0,555)"/>
<path style="fill:none;stroke-width:27.75;stroke-linecap:butt;stroke-linejoin:round;stroke:rgb(0%,0%,100%);stroke-opacity:1;stroke-miterlimit:10;" d="M 4279.21875 1312.148438 L 4257.773438 1353.515625 " transform="matrix(0.1,0,0,-0.1,0,555)"/>
<path style="fill:none;stroke-width:27.75;stroke-linecap:butt;stroke-linejoin:round;stroke:rgb(0%,0%,100%);stroke-opacity:1;stroke-miterlimit:10;" d="M 4327.578125 1215.898438 L 4300.664062 1269.453125 " transform="matrix(0.1,0,0,-0.1,0,555)"/>
<path style="fill:none;stroke-width:27.75;stroke-linecap:butt;stroke-linejoin:round;stroke:rgb(0%,0%,100%);stroke-opacity:1;stroke-miterlimit:10;" d="M 4279.21875 1312.148438 L 4300.664062 1269.453125 " transform="matrix(0.1,0,0,-0.1,0,555)"/>
<path style="fill:none;stroke-width:27.75;stroke-linecap:butt;stroke-linejoin:round;stroke:rgb(0%,0%,100%);stroke-opacity:1;stroke-miterlimit:10;" d="M 4451.171875 950.273438 L 4418.554688 1023.359375 " transform="matrix(0.1,0,0,-0.1,0,555)"/>
<path style="fill:none;stroke-width:27.75;stroke-linecap:butt;stroke-linejoin:round;stroke:rgb(0%,0%,100%);stroke-opacity:1;stroke-miterlimit:10;" d="M 4418.554688 1023.359375 L 4390.742188 1083.515625 " transform="matrix(0.1,0,0,-0.1,0,555)"/>
<path style="fill:none;stroke-width:27.75;stroke-linecap:butt;stroke-linejoin:round;stroke:rgb(0%,0%,100%);stroke-opacity:1;stroke-miterlimit:10;" d="M 4374.023438 1119.609375 L 4390.742188 1083.515625 " transform="matrix(0.1,0,0,-0.1,0,555)"/>
<path style="fill:none;stroke-width:27.75;stroke-linecap:butt;stroke-linejoin:round;stroke:rgb(0%,0%,100%);stroke-opacity:1;stroke-miterlimit:10;" d="M 4461.367188 927.070312 L 4468.789062 909.492188 " transform="matrix(0.1,0,0,-0.1,0,555)"/>
<path style="fill:none;stroke-width:27.75;stroke-linecap:butt;stroke-linejoin:round;stroke:rgb(0%,0%,100%);stroke-opacity:1;stroke-miterlimit:10;" d="M 4461.367188 927.070312 L 4451.171875 950.273438 " transform="matrix(0.1,0,0,-0.1,0,555)"/>
<path style="fill:none;stroke-width:27.75;stroke-linecap:butt;stroke-linejoin:round;stroke:rgb(0%,0%,100%);stroke-opacity:1;stroke-miterlimit:10;" d="M 4547.851562 718.164062 L 4541.445312 734.53125 " transform="matrix(0.1,0,0,-0.1,0,555)"/>
<path style="fill:none;stroke-width:27.75;stroke-linecap:butt;stroke-linejoin:round;stroke:rgb(0%,0%,100%);stroke-opacity:1;stroke-miterlimit:10;" d="M 4541.445312 734.53125 L 4537.03125 745.3125 " transform="matrix(0.1,0,0,-0.1,0,555)"/>
<path style="fill:none;stroke-width:27.75;stroke-linecap:butt;stroke-linejoin:round;stroke:rgb(0%,0%,100%);stroke-opacity:1;stroke-miterlimit:10;" d="M 4578.710938 638.242188 L 4547.851562 718.164062 " transform="matrix(0.1,0,0,-0.1,0,555)"/>
<path style="fill:none;stroke-width:27.75;stroke-linecap:butt;stroke-linejoin:round;stroke:rgb(0%,0%,100%);stroke-opacity:1;stroke-miterlimit:10;" d="M 4502.148438 830.78125 L 4537.03125 745.3125 " transform="matrix(0.1,0,0,-0.1,0,555)"/>
<path style="fill:none;stroke-width:27.75;stroke-linecap:butt;stroke-linejoin:round;stroke:rgb(0%,0%,100%);stroke-opacity:1;stroke-miterlimit:10;" d="M 3526.679688 2467.421875 L 3484.140625 2519.375 " transform="matrix(0.1,0,0,-0.1,0,555)"/>
<path style="fill:none;stroke-width:27.75;stroke-linecap:butt;stroke-linejoin:round;stroke:rgb(0%,0%,100%);stroke-opacity:1;stroke-miterlimit:10;" d="M 3774.257812 2141.914062 L 3747.929688 2178.59375 " transform="matrix(0.1,0,0,-0.1,0,555)"/>
<path style="fill:none;stroke-width:27.75;stroke-linecap:butt;stroke-linejoin:round;stroke:rgb(0%,0%,100%);stroke-opacity:1;stroke-miterlimit:10;" d="M 3603.28125 2371.132812 L 3580.859375 2399.6875 " transform="matrix(0.1,0,0,-0.1,0,555)"/>
<path style="fill:none;stroke-width:27.75;stroke-linecap:butt;stroke-linejoin:round;stroke:rgb(0%,0%,100%);stroke-opacity:1;stroke-miterlimit:10;" d="M 3677.578125 2274.296875 L 3677.148438 2274.882812 " transform="matrix(0.1,0,0,-0.1,0,555)"/>
<path style="fill:none;stroke-width:27.75;stroke-linecap:butt;stroke-linejoin:round;stroke:rgb(0%,0%,100%);stroke-opacity:1;stroke-miterlimit:10;" d="M 3677.148438 2274.882812 L 3675.703125 2276.71875 " transform="matrix(0.1,0,0,-0.1,0,555)"/>
<path style="fill:none;stroke-width:27.75;stroke-linecap:butt;stroke-linejoin:round;stroke:rgb(0%,0%,100%);stroke-opacity:1;stroke-miterlimit:10;" d="M 3603.28125 2371.132812 L 3675.703125 2276.71875 " transform="matrix(0.1,0,0,-0.1,0,555)"/>
<path style="fill:none;stroke-width:27.75;stroke-linecap:butt;stroke-linejoin:round;stroke:rgb(0%,0%,100%);stroke-opacity:1;stroke-miterlimit:10;" d="M 3747.929688 2178.59375 L 3677.578125 2274.296875 " transform="matrix(0.1,0,0,-0.1,0,555)"/>
<path style="fill:none;stroke-width:27.75;stroke-linecap:butt;stroke-linejoin:round;stroke:rgb(0%,0%,100%);stroke-opacity:1;stroke-miterlimit:10;" d="M 3580.859375 2399.6875 L 3526.679688 2467.421875 " transform="matrix(0.1,0,0,-0.1,0,555)"/>
<path style="fill:none;stroke-width:27.75;stroke-linecap:butt;stroke-linejoin:round;stroke:rgb(0%,0%,100%);stroke-opacity:1;stroke-miterlimit:10;" d="M 4006.601562 1793.515625 L 3967.65625 1855.3125 " transform="matrix(0.1,0,0,-0.1,0,555)"/>
<path style="fill:none;stroke-width:27.75;stroke-linecap:butt;stroke-linejoin:round;stroke:rgb(0%,0%,100%);stroke-opacity:1;stroke-miterlimit:10;" d="M 3870.976562 2002.734375 L 3816.25 2082.34375 " transform="matrix(0.1,0,0,-0.1,0,555)"/>
<path style="fill:none;stroke-width:27.75;stroke-linecap:butt;stroke-linejoin:round;stroke:rgb(0%,0%,100%);stroke-opacity:1;stroke-miterlimit:10;" d="M 3882.226562 1986.054688 L 3903.59375 1953.554688 " transform="matrix(0.1,0,0,-0.1,0,555)"/>
<path style="fill:none;stroke-width:27.75;stroke-linecap:butt;stroke-linejoin:round;stroke:rgb(0%,0%,100%);stroke-opacity:1;stroke-miterlimit:10;" d="M 3882.226562 1986.054688 L 3870.976562 2002.734375 " transform="matrix(0.1,0,0,-0.1,0,555)"/>
<path style="fill:none;stroke-width:27.75;stroke-linecap:butt;stroke-linejoin:round;stroke:rgb(0%,0%,100%);stroke-opacity:1;stroke-miterlimit:10;" d="M 3967.65625 1855.3125 L 3945.585938 1889.804688 " transform="matrix(0.1,0,0,-0.1,0,555)"/>
<path style="fill:none;stroke-width:27.75;stroke-linecap:butt;stroke-linejoin:round;stroke:rgb(0%,0%,100%);stroke-opacity:1;stroke-miterlimit:10;" d="M 3945.585938 1889.804688 L 3903.59375 1953.554688 " transform="matrix(0.1,0,0,-0.1,0,555)"/>
<path style="fill:none;stroke-width:27.75;stroke-linecap:butt;stroke-linejoin:round;stroke:rgb(0%,0%,100%);stroke-opacity:1;stroke-miterlimit:10;" d="M 4065.585938 1697.265625 L 4067.265625 1694.375 " transform="matrix(0.1,0,0,-0.1,0,555)"/>
<path style="fill:none;stroke-width:27.75;stroke-linecap:butt;stroke-linejoin:round;stroke:rgb(0%,0%,100%);stroke-opacity:1;stroke-miterlimit:10;" d="M 4065.585938 1697.265625 L 4064.375 1699.257812 " transform="matrix(0.1,0,0,-0.1,0,555)"/>
<path style="fill:none;stroke-width:27.75;stroke-linecap:butt;stroke-linejoin:round;stroke:rgb(0%,0%,100%);stroke-opacity:1;stroke-miterlimit:10;" d="M 4064.375 1699.257812 L 4006.601562 1793.515625 " transform="matrix(0.1,0,0,-0.1,0,555)"/>
<path style="fill:none;stroke-width:27.75;stroke-linecap:butt;stroke-linejoin:round;stroke:rgb(0%,0%,100%);stroke-opacity:1;stroke-miterlimit:10;" d="M 3387.460938 2633.75 L 3364.6875 2659.960938 " transform="matrix(0.1,0,0,-0.1,0,555)"/>
<path style="fill:none;stroke-width:27.75;stroke-linecap:butt;stroke-linejoin:round;stroke:rgb(0%,0%,100%);stroke-opacity:1;stroke-miterlimit:10;" d="M 3364.6875 2659.960938 L 3290.742188 2743.125 " transform="matrix(0.1,0,0,-0.1,0,555)"/>
<path style="fill:none;stroke-width:27.75;stroke-linecap:butt;stroke-linejoin:round;stroke:rgb(0%,0%,100%);stroke-opacity:1;stroke-miterlimit:10;" d="M 3290.742188 2743.125 L 3278.90625 2756.210938 " transform="matrix(0.1,0,0,-0.1,0,555)"/>
<path style="fill:none;stroke-width:27.75;stroke-linecap:butt;stroke-linejoin:round;stroke:rgb(0%,0%,100%);stroke-opacity:1;stroke-miterlimit:10;" d="M 3484.140625 2519.375 L 3447.226562 2563.671875 " transform="matrix(0.1,0,0,-0.1,0,555)"/>
<path style="fill:none;stroke-width:27.75;stroke-linecap:butt;stroke-linejoin:round;stroke:rgb(0%,0%,100%);stroke-opacity:1;stroke-miterlimit:10;" d="M 3447.226562 2563.671875 L 3387.460938 2633.75 " transform="matrix(0.1,0,0,-0.1,0,555)"/>
<path style="fill:none;stroke-width:27.75;stroke-linecap:butt;stroke-linejoin:round;stroke:rgb(0%,0%,100%);stroke-opacity:1;stroke-miterlimit:10;" d="M 3816.25 2082.34375 L 3774.257812 2141.914062 " transform="matrix(0.1,0,0,-0.1,0,555)"/>
<path style="fill:none;stroke-width:27.75;stroke-linecap:butt;stroke-linejoin:round;stroke:rgb(0%,0%,100%);stroke-opacity:1;stroke-miterlimit:10;" d="M 4161.054688 1532.304688 L 4121.992188 1600.976562 " transform="matrix(0.1,0,0,-0.1,0,555)"/>
<path style="fill:none;stroke-width:27.75;stroke-linecap:butt;stroke-linejoin:round;stroke:rgb(0%,0%,100%);stroke-opacity:1;stroke-miterlimit:10;" d="M 4121.992188 1600.976562 L 4067.265625 1694.375 " transform="matrix(0.1,0,0,-0.1,0,555)"/>
<path style="fill:none;stroke-width:27.75;stroke-linecap:butt;stroke-linejoin:round;stroke:rgb(0%,0%,100%);stroke-opacity:1;stroke-miterlimit:10;" d="M 4228.828125 1408.4375 L 4194.726562 1471.171875 " transform="matrix(0.1,0,0,-0.1,0,555)"/>
<path style="fill:none;stroke-width:27.75;stroke-linecap:butt;stroke-linejoin:round;stroke:rgb(0%,0%,100%);stroke-opacity:1;stroke-miterlimit:10;" d="M 2517.148438 3472.460938 L 2449.140625 3526.40625 " transform="matrix(0.1,0,0,-0.1,0,555)"/>
<path style="fill:none;stroke-width:27.75;stroke-linecap:butt;stroke-linejoin:round;stroke:rgb(0%,0%,100%);stroke-opacity:1;stroke-miterlimit:10;" d="M 2227.070312 3692.734375 L 2190.195312 3718.945312 " transform="matrix(0.1,0,0,-0.1,0,555)"/>
<path style="fill:none;stroke-width:27.75;stroke-linecap:butt;stroke-linejoin:round;stroke:rgb(0%,0%,100%);stroke-opacity:1;stroke-miterlimit:10;" d="M 2190.195312 3718.945312 L 2130.351562 3760.742188 " transform="matrix(0.1,0,0,-0.1,0,555)"/>
<path style="fill:none;stroke-width:27.75;stroke-linecap:butt;stroke-linejoin:round;stroke:rgb(0%,0%,100%);stroke-opacity:1;stroke-miterlimit:10;" d="M 2323.789062 3622.226562 L 2323.164062 3622.65625 " transform="matrix(0.1,0,0,-0.1,0,555)"/>
<path style="fill:none;stroke-width:27.75;stroke-linecap:butt;stroke-linejoin:round;stroke:rgb(0%,0%,100%);stroke-opacity:1;stroke-miterlimit:10;" d="M 2323.164062 3622.65625 L 2227.070312 3692.734375 " transform="matrix(0.1,0,0,-0.1,0,555)"/>
<path style="fill:none;stroke-width:27.75;stroke-linecap:butt;stroke-linejoin:round;stroke:rgb(0%,0%,100%);stroke-opacity:1;stroke-miterlimit:10;" d="M 2323.789062 3622.226562 L 2325.625 3620.820312 " transform="matrix(0.1,0,0,-0.1,0,555)"/>
<path style="fill:none;stroke-width:27.75;stroke-linecap:butt;stroke-linejoin:round;stroke:rgb(0%,0%,100%);stroke-opacity:1;stroke-miterlimit:10;" d="M 2420.46875 3548.710938 L 2325.625 3620.820312 " transform="matrix(0.1,0,0,-0.1,0,555)"/>
<path style="fill:none;stroke-width:27.75;stroke-linecap:butt;stroke-linejoin:round;stroke:rgb(0%,0%,100%);stroke-opacity:1;stroke-miterlimit:10;" d="M 2449.140625 3526.40625 L 2420.46875 3548.710938 " transform="matrix(0.1,0,0,-0.1,0,555)"/>
<path style="fill:none;stroke-width:27.75;stroke-linecap:butt;stroke-linejoin:round;stroke:rgb(0%,0%,100%);stroke-opacity:1;stroke-miterlimit:10;" d="M 2710.585938 3311.171875 L 2684.257812 3333.867188 " transform="matrix(0.1,0,0,-0.1,0,555)"/>
<path style="fill:none;stroke-width:27.75;stroke-linecap:butt;stroke-linejoin:round;stroke:rgb(0%,0%,100%);stroke-opacity:1;stroke-miterlimit:10;" d="M 2684.257812 3333.867188 L 2613.867188 3393.359375 " transform="matrix(0.1,0,0,-0.1,0,555)"/>
<path style="fill:none;stroke-width:27.75;stroke-linecap:butt;stroke-linejoin:round;stroke:rgb(0%,0%,100%);stroke-opacity:1;stroke-miterlimit:10;" d="M 2613.867188 3393.359375 L 2569.375 3430.117188 " transform="matrix(0.1,0,0,-0.1,0,555)"/>
<path style="fill:none;stroke-width:27.75;stroke-linecap:butt;stroke-linejoin:round;stroke:rgb(0%,0%,100%);stroke-opacity:1;stroke-miterlimit:10;" d="M 1936.953125 3889.492188 L 2001.015625 3847.695312 " transform="matrix(0.1,0,0,-0.1,0,555)"/>
<path style="fill:none;stroke-width:27.75;stroke-linecap:butt;stroke-linejoin:round;stroke:rgb(0%,0%,100%);stroke-opacity:1;stroke-miterlimit:10;" d="M 2033.671875 3826.40625 L 2001.015625 3847.695312 " transform="matrix(0.1,0,0,-0.1,0,555)"/>
<path style="fill:none;stroke-width:27.75;stroke-linecap:butt;stroke-linejoin:round;stroke:rgb(0%,0%,100%);stroke-opacity:1;stroke-miterlimit:10;" d="M 2050.390625 3815.195312 L 2033.671875 3826.40625 " transform="matrix(0.1,0,0,-0.1,0,555)"/>
<path style="fill:none;stroke-width:27.75;stroke-linecap:butt;stroke-linejoin:round;stroke:rgb(0%,0%,100%);stroke-opacity:1;stroke-miterlimit:10;" d="M 1902.34375 3911.484375 L 1840.273438 3950.234375 " transform="matrix(0.1,0,0,-0.1,0,555)"/>
<path style="fill:none;stroke-width:27.75;stroke-linecap:butt;stroke-linejoin:round;stroke:rgb(0%,0%,100%);stroke-opacity:1;stroke-miterlimit:10;" d="M 1936.953125 3889.492188 L 1902.34375 3911.484375 " transform="matrix(0.1,0,0,-0.1,0,555)"/>
<path style="fill:none;stroke-width:27.75;stroke-linecap:butt;stroke-linejoin:round;stroke:rgb(0%,0%,100%);stroke-opacity:1;stroke-miterlimit:10;" d="M 1646.875 4065.117188 L 1740.664062 4010.625 " transform="matrix(0.1,0,0,-0.1,0,555)"/>
<path style="fill:none;stroke-width:27.75;stroke-linecap:butt;stroke-linejoin:round;stroke:rgb(0%,0%,100%);stroke-opacity:1;stroke-miterlimit:10;" d="M 1743.554688 4008.945312 L 1740.664062 4010.625 " transform="matrix(0.1,0,0,-0.1,0,555)"/>
<path style="fill:none;stroke-width:27.75;stroke-linecap:butt;stroke-linejoin:round;stroke:rgb(0%,0%,100%);stroke-opacity:1;stroke-miterlimit:10;" d="M 1745.585938 4007.734375 L 1743.554688 4008.945312 " transform="matrix(0.1,0,0,-0.1,0,555)"/>
<path style="fill:none;stroke-width:27.75;stroke-linecap:butt;stroke-linejoin:round;stroke:rgb(0%,0%,100%);stroke-opacity:1;stroke-miterlimit:10;" d="M 1646.875 4065.117188 L 1577.890625 4104.023438 " transform="matrix(0.1,0,0,-0.1,0,555)"/>
<path style="fill:none;stroke-width:27.75;stroke-linecap:butt;stroke-linejoin:round;stroke:rgb(0%,0%,100%);stroke-opacity:1;stroke-miterlimit:10;" d="M 1577.890625 4104.023438 L 1550.15625 4119.414062 " transform="matrix(0.1,0,0,-0.1,0,555)"/>
<path style="fill:none;stroke-width:27.75;stroke-linecap:butt;stroke-linejoin:round;stroke:rgb(0%,0%,100%);stroke-opacity:1;stroke-miterlimit:10;" d="M 1840.273438 3950.234375 L 1745.585938 4007.734375 " transform="matrix(0.1,0,0,-0.1,0,555)"/>
<path style="fill:none;stroke-width:27.75;stroke-linecap:butt;stroke-linejoin:round;stroke:rgb(0%,0%,100%);stroke-opacity:1;stroke-miterlimit:10;" d="M 2130.351562 3760.742188 L 2050.390625 3815.195312 " transform="matrix(0.1,0,0,-0.1,0,555)"/>
<path style="fill:none;stroke-width:27.75;stroke-linecap:butt;stroke-linejoin:round;stroke:rgb(0%,0%,100%);stroke-opacity:1;stroke-miterlimit:10;" d="M 2569.375 3430.117188 L 2517.148438 3472.460938 " transform="matrix(0.1,0,0,-0.1,0,555)"/>
<path style="fill:none;stroke-width:27.75;stroke-linecap:butt;stroke-linejoin:round;stroke:rgb(0%,0%,100%);stroke-opacity:1;stroke-miterlimit:10;" d="M 1260.078125 4269.765625 L 1313.867188 4243.007812 " transform="matrix(0.1,0,0,-0.1,0,555)"/>
<path style="fill:none;stroke-width:27.75;stroke-linecap:butt;stroke-linejoin:round;stroke:rgb(0%,0%,100%);stroke-opacity:1;stroke-miterlimit:10;" d="M 1356.757812 4221.640625 L 1313.867188 4243.007812 " transform="matrix(0.1,0,0,-0.1,0,555)"/>
<path style="fill:none;stroke-width:27.75;stroke-linecap:butt;stroke-linejoin:round;stroke:rgb(0%,0%,100%);stroke-opacity:1;stroke-miterlimit:10;" d="M 1398.320312 4200.273438 L 1356.757812 4221.640625 " transform="matrix(0.1,0,0,-0.1,0,555)"/>
<path style="fill:none;stroke-width:27.75;stroke-linecap:butt;stroke-linejoin:round;stroke:rgb(0%,0%,100%);stroke-opacity:1;stroke-miterlimit:10;" d="M 1163.398438 4316.054688 L 1127.109375 4332.65625 " transform="matrix(0.1,0,0,-0.1,0,555)"/>
<path style="fill:none;stroke-width:27.75;stroke-linecap:butt;stroke-linejoin:round;stroke:rgb(0%,0%,100%);stroke-opacity:1;stroke-miterlimit:10;" d="M 1260.078125 4269.765625 L 1204.453125 4296.5625 " transform="matrix(0.1,0,0,-0.1,0,555)"/>
<path style="fill:none;stroke-width:27.75;stroke-linecap:butt;stroke-linejoin:round;stroke:rgb(0%,0%,100%);stroke-opacity:1;stroke-miterlimit:10;" d="M 1204.453125 4296.5625 L 1163.398438 4316.054688 " transform="matrix(0.1,0,0,-0.1,0,555)"/>
<path style="fill:none;stroke-width:27.75;stroke-linecap:butt;stroke-linejoin:round;stroke:rgb(0%,0%,100%);stroke-opacity:1;stroke-miterlimit:10;" d="M 776.5625 4482.695312 L 760.15625 4489.101562 " transform="matrix(0.1,0,0,-0.1,0,555)"/>
<path style="fill:none;stroke-width:27.75;stroke-linecap:butt;stroke-linejoin:round;stroke:rgb(0%,0%,100%);stroke-opacity:1;stroke-miterlimit:10;" d="M 969.960938 4403.007812 L 952.34375 4410.390625 " transform="matrix(0.1,0,0,-0.1,0,555)"/>
<path style="fill:none;stroke-width:27.75;stroke-linecap:butt;stroke-linejoin:round;stroke:rgb(0%,0%,100%);stroke-opacity:1;stroke-miterlimit:10;" d="M 1066.679688 4360.351562 L 993.28125 4392.851562 " transform="matrix(0.1,0,0,-0.1,0,555)"/>
<path style="fill:none;stroke-width:27.75;stroke-linecap:butt;stroke-linejoin:round;stroke:rgb(0%,0%,100%);stroke-opacity:1;stroke-miterlimit:10;" d="M 993.28125 4392.851562 L 969.960938 4403.007812 " transform="matrix(0.1,0,0,-0.1,0,555)"/>
<path style="fill:none;stroke-width:27.75;stroke-linecap:butt;stroke-linejoin:round;stroke:rgb(0%,0%,100%);stroke-opacity:1;stroke-miterlimit:10;" d="M 873.28125 4443.59375 L 952.34375 4410.390625 " transform="matrix(0.1,0,0,-0.1,0,555)"/>
<path style="fill:none;stroke-width:27.75;stroke-linecap:butt;stroke-linejoin:round;stroke:rgb(0%,0%,100%);stroke-opacity:1;stroke-miterlimit:10;" d="M 776.5625 4482.695312 L 787.382812 4478.359375 " transform="matrix(0.1,0,0,-0.1,0,555)"/>
<path style="fill:none;stroke-width:27.75;stroke-linecap:butt;stroke-linejoin:round;stroke:rgb(0%,0%,100%);stroke-opacity:1;stroke-miterlimit:10;" d="M 873.28125 4443.59375 L 787.382812 4478.359375 " transform="matrix(0.1,0,0,-0.1,0,555)"/>
<path style="fill:none;stroke-width:27.75;stroke-linecap:butt;stroke-linejoin:round;stroke:rgb(0%,0%,100%);stroke-opacity:1;stroke-miterlimit:10;" d="M 1066.679688 4360.351562 L 1127.109375 4332.65625 " transform="matrix(0.1,0,0,-0.1,0,555)"/>
<path style="fill:none;stroke-width:27.75;stroke-linecap:butt;stroke-linejoin:round;stroke:rgb(0%,0%,100%);stroke-opacity:1;stroke-miterlimit:10;" d="M 760.15625 4489.101562 L 679.882812 4519.84375 " transform="matrix(0.1,0,0,-0.1,0,555)"/>
<path style="fill:none;stroke-width:27.75;stroke-linecap:butt;stroke-linejoin:round;stroke:rgb(0%,0%,100%);stroke-opacity:1;stroke-miterlimit:10;" d="M 1453.476562 4171.484375 L 1398.320312 4200.273438 " transform="matrix(0.1,0,0,-0.1,0,555)"/>
<path style="fill:none;stroke-width:27.75;stroke-linecap:butt;stroke-linejoin:round;stroke:rgb(0%,0%,100%);stroke-opacity:1;stroke-miterlimit:10;" d="M 1453.476562 4171.484375 L 1516.484375 4137.539062 " transform="matrix(0.1,0,0,-0.1,0,555)"/>
<path style="fill:none;stroke-width:27.75;stroke-linecap:butt;stroke-linejoin:round;stroke:rgb(0%,0%,100%);stroke-opacity:1;stroke-miterlimit:10;" d="M 1550.15625 4119.414062 L 1516.484375 4137.539062 " transform="matrix(0.1,0,0,-0.1,0,555)"/>
<path style="fill:none;stroke-width:27.75;stroke-linecap:butt;stroke-linejoin:round;stroke:rgb(0%,0%,100%);stroke-opacity:1;stroke-miterlimit:10;" d="M 2794.140625 3237.578125 L 2710.585938 3311.171875 " transform="matrix(0.1,0,0,-0.1,0,555)"/>
<path style="fill:none;stroke-width:27.75;stroke-linecap:butt;stroke-linejoin:round;stroke:rgb(0%,0%,100%);stroke-opacity:1;stroke-miterlimit:10;" d="M 3278.90625 2756.210938 L 3194.0625 2847.890625 " transform="matrix(0.1,0,0,-0.1,0,555)"/>
<path style="fill:none;stroke-width:27.75;stroke-linecap:butt;stroke-linejoin:round;stroke:rgb(0%,0%,100%);stroke-opacity:1;stroke-miterlimit:10;" d="M 1471.796875 1793.515625 L 1453.476562 1809.765625 " transform="matrix(0.1,0,0,-0.1,0,555)"/>
<path style="fill:none;stroke-width:27.75;stroke-linecap:butt;stroke-linejoin:round;stroke:rgb(0%,0%,100%);stroke-opacity:1;stroke-miterlimit:10;" d="M 1576.484375 1697.265625 L 1550.15625 1721.992188 " transform="matrix(0.1,0,0,-0.1,0,555)"/>
<path style="fill:none;stroke-width:27.75;stroke-linecap:butt;stroke-linejoin:round;stroke:rgb(0%,0%,100%);stroke-opacity:1;stroke-miterlimit:10;" d="M 1646.875 1629.140625 L 1576.484375 1697.265625 " transform="matrix(0.1,0,0,-0.1,0,555)"/>
<path style="fill:none;stroke-width:27.75;stroke-linecap:butt;stroke-linejoin:round;stroke:rgb(0%,0%,100%);stroke-opacity:1;stroke-miterlimit:10;" d="M 1743.554688 1530.898438 L 1675.195312 1600.976562 " transform="matrix(0.1,0,0,-0.1,0,555)"/>
<path style="fill:none;stroke-width:27.75;stroke-linecap:butt;stroke-linejoin:round;stroke:rgb(0%,0%,100%);stroke-opacity:1;stroke-miterlimit:10;" d="M 1675.195312 1600.976562 L 1646.875 1629.140625 " transform="matrix(0.1,0,0,-0.1,0,555)"/>
<path style="fill:none;stroke-width:27.75;stroke-linecap:butt;stroke-linejoin:round;stroke:rgb(0%,0%,100%);stroke-opacity:1;stroke-miterlimit:10;" d="M 1550.15625 1721.992188 L 1471.796875 1793.515625 " transform="matrix(0.1,0,0,-0.1,0,555)"/>
<path style="fill:none;stroke-width:27.75;stroke-linecap:butt;stroke-linejoin:round;stroke:rgb(0%,0%,100%);stroke-opacity:1;stroke-miterlimit:10;" d="M 1768.398438 1504.6875 L 1743.554688 1530.898438 " transform="matrix(0.1,0,0,-0.1,0,555)"/>
<path style="fill:none;stroke-width:27.75;stroke-linecap:butt;stroke-linejoin:round;stroke:rgb(0%,0%,100%);stroke-opacity:1;stroke-miterlimit:10;" d="M 2323.789062 787.304688 L 2296.054688 830.78125 " transform="matrix(0.1,0,0,-0.1,0,555)"/>
<path style="fill:none;stroke-width:27.75;stroke-linecap:butt;stroke-linejoin:round;stroke:rgb(0%,0%,100%);stroke-opacity:1;stroke-miterlimit:10;" d="M 2227.070312 934.804688 L 2164.804688 1023.359375 " transform="matrix(0.1,0,0,-0.1,0,555)"/>
<path style="fill:none;stroke-width:27.75;stroke-linecap:butt;stroke-linejoin:round;stroke:rgb(0%,0%,100%);stroke-opacity:1;stroke-miterlimit:10;" d="M 2164.804688 1023.359375 L 2130.351562 1070.664062 " transform="matrix(0.1,0,0,-0.1,0,555)"/>
<path style="fill:none;stroke-width:27.75;stroke-linecap:butt;stroke-linejoin:round;stroke:rgb(0%,0%,100%);stroke-opacity:1;stroke-miterlimit:10;" d="M 2296.054688 830.78125 L 2242.617188 911.601562 " transform="matrix(0.1,0,0,-0.1,0,555)"/>
<path style="fill:none;stroke-width:27.75;stroke-linecap:butt;stroke-linejoin:round;stroke:rgb(0%,0%,100%);stroke-opacity:1;stroke-miterlimit:10;" d="M 2232.382812 927.070312 L 2242.617188 911.601562 " transform="matrix(0.1,0,0,-0.1,0,555)"/>
<path style="fill:none;stroke-width:27.75;stroke-linecap:butt;stroke-linejoin:round;stroke:rgb(0%,0%,100%);stroke-opacity:1;stroke-miterlimit:10;" d="M 2232.382812 927.070312 L 2227.070312 934.804688 " transform="matrix(0.1,0,0,-0.1,0,555)"/>
<path style="fill:none;stroke-width:27.75;stroke-linecap:butt;stroke-linejoin:round;stroke:rgb(0%,0%,100%);stroke-opacity:1;stroke-miterlimit:10;" d="M 2414.140625 638.242188 L 2404.84375 653.828125 " transform="matrix(0.1,0,0,-0.1,0,555)"/>
<path style="fill:none;stroke-width:27.75;stroke-linecap:butt;stroke-linejoin:round;stroke:rgb(0%,0%,100%);stroke-opacity:1;stroke-miterlimit:10;" d="M 2356.5625 734.53125 L 2404.84375 653.828125 " transform="matrix(0.1,0,0,-0.1,0,555)"/>
<path style="fill:none;stroke-width:27.75;stroke-linecap:butt;stroke-linejoin:round;stroke:rgb(0%,0%,100%);stroke-opacity:1;stroke-miterlimit:10;" d="M 1940.15625 1312.148438 L 1954.257812 1294.960938 " transform="matrix(0.1,0,0,-0.1,0,555)"/>
<path style="fill:none;stroke-width:27.75;stroke-linecap:butt;stroke-linejoin:round;stroke:rgb(0%,0%,100%);stroke-opacity:1;stroke-miterlimit:10;" d="M 1940.15625 1312.148438 L 1936.953125 1315.9375 " transform="matrix(0.1,0,0,-0.1,0,555)"/>
<path style="fill:none;stroke-width:27.75;stroke-linecap:butt;stroke-linejoin:round;stroke:rgb(0%,0%,100%);stroke-opacity:1;stroke-miterlimit:10;" d="M 2033.671875 1197.421875 L 2019.023438 1215.898438 " transform="matrix(0.1,0,0,-0.1,0,555)"/>
<path style="fill:none;stroke-width:27.75;stroke-linecap:butt;stroke-linejoin:round;stroke:rgb(0%,0%,100%);stroke-opacity:1;stroke-miterlimit:10;" d="M 1936.953125 1315.9375 L 1856.601562 1408.4375 " transform="matrix(0.1,0,0,-0.1,0,555)"/>
<path style="fill:none;stroke-width:27.75;stroke-linecap:butt;stroke-linejoin:round;stroke:rgb(0%,0%,100%);stroke-opacity:1;stroke-miterlimit:10;" d="M 2019.023438 1215.898438 L 1954.257812 1294.960938 " transform="matrix(0.1,0,0,-0.1,0,555)"/>
<path style="fill:none;stroke-width:27.75;stroke-linecap:butt;stroke-linejoin:round;stroke:rgb(0%,0%,100%);stroke-opacity:1;stroke-miterlimit:10;" d="M 2130.351562 1070.664062 L 2093.789062 1119.609375 " transform="matrix(0.1,0,0,-0.1,0,555)"/>
<path style="fill:none;stroke-width:27.75;stroke-linecap:butt;stroke-linejoin:round;stroke:rgb(0%,0%,100%);stroke-opacity:1;stroke-miterlimit:10;" d="M 2093.789062 1119.609375 L 2033.671875 1197.421875 " transform="matrix(0.1,0,0,-0.1,0,555)"/>
<path style="fill:none;stroke-width:27.75;stroke-linecap:butt;stroke-linejoin:round;stroke:rgb(0%,0%,100%);stroke-opacity:1;stroke-miterlimit:10;" d="M 2356.5625 734.53125 L 2323.789062 787.304688 " transform="matrix(0.1,0,0,-0.1,0,555)"/>
<path style="fill:none;stroke-width:27.75;stroke-linecap:butt;stroke-linejoin:round;stroke:rgb(0%,0%,100%);stroke-opacity:1;stroke-miterlimit:10;" d="M 969.960938 2183.867188 L 954.453125 2194.0625 " transform="matrix(0.1,0,0,-0.1,0,555)"/>
<path style="fill:none;stroke-width:27.75;stroke-linecap:butt;stroke-linejoin:round;stroke:rgb(0%,0%,100%);stroke-opacity:1;stroke-miterlimit:10;" d="M 1066.679688 2116.601562 L 977.734375 2178.59375 " transform="matrix(0.1,0,0,-0.1,0,555)"/>
<path style="fill:none;stroke-width:27.75;stroke-linecap:butt;stroke-linejoin:round;stroke:rgb(0%,0%,100%);stroke-opacity:1;stroke-miterlimit:10;" d="M 977.734375 2178.59375 L 969.960938 2183.867188 " transform="matrix(0.1,0,0,-0.1,0,555)"/>
<path style="fill:none;stroke-width:27.75;stroke-linecap:butt;stroke-linejoin:round;stroke:rgb(0%,0%,100%);stroke-opacity:1;stroke-miterlimit:10;" d="M 873.28125 2247.265625 L 829.570312 2274.882812 " transform="matrix(0.1,0,0,-0.1,0,555)"/>
<path style="fill:none;stroke-width:27.75;stroke-linecap:butt;stroke-linejoin:round;stroke:rgb(0%,0%,100%);stroke-opacity:1;stroke-miterlimit:10;" d="M 829.570312 2274.882812 L 776.5625 2307.539062 " transform="matrix(0.1,0,0,-0.1,0,555)"/>
<path style="fill:none;stroke-width:27.75;stroke-linecap:butt;stroke-linejoin:round;stroke:rgb(0%,0%,100%);stroke-opacity:1;stroke-miterlimit:10;" d="M 873.28125 2247.265625 L 954.453125 2194.0625 " transform="matrix(0.1,0,0,-0.1,0,555)"/>
<path style="fill:none;stroke-width:27.75;stroke-linecap:butt;stroke-linejoin:round;stroke:rgb(0%,0%,100%);stroke-opacity:1;stroke-miterlimit:10;" d="M 1356.757812 1892.96875 L 1339.492188 1906.992188 " transform="matrix(0.1,0,0,-0.1,0,555)"/>
<path style="fill:none;stroke-width:27.75;stroke-linecap:butt;stroke-linejoin:round;stroke:rgb(0%,0%,100%);stroke-opacity:1;stroke-miterlimit:10;" d="M 1360.546875 1889.804688 L 1356.757812 1892.96875 " transform="matrix(0.1,0,0,-0.1,0,555)"/>
<path style="fill:none;stroke-width:27.75;stroke-linecap:butt;stroke-linejoin:round;stroke:rgb(0%,0%,100%);stroke-opacity:1;stroke-miterlimit:10;" d="M 1163.398438 2045.898438 L 1114.179688 2082.34375 " transform="matrix(0.1,0,0,-0.1,0,555)"/>
<path style="fill:none;stroke-width:27.75;stroke-linecap:butt;stroke-linejoin:round;stroke:rgb(0%,0%,100%);stroke-opacity:1;stroke-miterlimit:10;" d="M 1260.078125 1971.484375 L 1241.523438 1986.054688 " transform="matrix(0.1,0,0,-0.1,0,555)"/>
<path style="fill:none;stroke-width:27.75;stroke-linecap:butt;stroke-linejoin:round;stroke:rgb(0%,0%,100%);stroke-opacity:1;stroke-miterlimit:10;" d="M 1241.523438 1986.054688 L 1163.398438 2045.898438 " transform="matrix(0.1,0,0,-0.1,0,555)"/>
<path style="fill:none;stroke-width:27.75;stroke-linecap:butt;stroke-linejoin:round;stroke:rgb(0%,0%,100%);stroke-opacity:1;stroke-miterlimit:10;" d="M 1260.078125 1971.484375 L 1339.492188 1906.992188 " transform="matrix(0.1,0,0,-0.1,0,555)"/>
<path style="fill:none;stroke-width:27.75;stroke-linecap:butt;stroke-linejoin:round;stroke:rgb(0%,0%,100%);stroke-opacity:1;stroke-miterlimit:10;" d="M 679.882812 2364.84375 L 695.507812 2355.585938 " transform="matrix(0.1,0,0,-0.1,0,555)"/>
<path style="fill:none;stroke-width:27.75;stroke-linecap:butt;stroke-linejoin:round;stroke:rgb(0%,0%,100%);stroke-opacity:1;stroke-miterlimit:10;" d="M 776.5625 2307.539062 L 695.507812 2355.585938 " transform="matrix(0.1,0,0,-0.1,0,555)"/>
<path style="fill:none;stroke-width:27.75;stroke-linecap:butt;stroke-linejoin:round;stroke:rgb(0%,0%,100%);stroke-opacity:1;stroke-miterlimit:10;" d="M 1114.179688 2082.34375 L 1066.679688 2116.601562 " transform="matrix(0.1,0,0,-0.1,0,555)"/>
<path style="fill:none;stroke-width:27.75;stroke-linecap:butt;stroke-linejoin:round;stroke:rgb(0%,0%,100%);stroke-opacity:1;stroke-miterlimit:10;" d="M 1453.476562 1809.765625 L 1360.546875 1889.804688 " transform="matrix(0.1,0,0,-0.1,0,555)"/>
<path style="fill:none;stroke-width:27.75;stroke-linecap:butt;stroke-linejoin:round;stroke:rgb(0%,0%,100%);stroke-opacity:1;stroke-miterlimit:10;" d="M 1840.273438 1426.640625 L 1768.398438 1504.6875 " transform="matrix(0.1,0,0,-0.1,0,555)"/>
<path style="fill:none;stroke-width:27.75;stroke-linecap:butt;stroke-linejoin:round;stroke:rgb(0%,0%,100%);stroke-opacity:1;stroke-miterlimit:10;" d="M 1856.601562 1408.4375 L 1840.273438 1426.640625 " transform="matrix(0.1,0,0,-0.1,0,555)"/>
<path style=" stroke:none;fill-rule:nonzero;fill:rgb(0%,0%,100%);fill-opacity:1;" d="M 155.636719 414.40625 C 156.230469 412.976562 156.988281 411.875 157.914062 411.101562 C 158.839844 410.328125 159.988281 409.941406 161.359375 409.941406 C 163.050781 409.941406 164.34375 410.492188 165.242188 411.589844 C 165.933594 412.410156 166.28125 413.292969 166.28125 414.230469 C 166.28125 415.765625 165.3125 417.355469 163.378906 419.003906 C 164.679688 419.507812 165.660156 420.234375 166.328125 421.179688 C 166.992188 422.128906 167.324219 423.238281 167.324219 424.511719 C 167.324219 426.34375 166.738281 427.925781 165.566406 429.257812 C 164.050781 431.007812 161.851562 431.878906 158.976562 431.878906 C 157.558594 431.878906 156.597656 431.703125 156.082031 431.347656 C 155.570312 430.996094 155.3125 430.617188 155.3125 430.210938 C 155.3125 429.90625 155.433594 429.644531 155.671875 429.421875 C 155.910156 429.195312 156.203125 429.085938 156.550781 429.085938 C 156.808594 429.085938 157.074219 429.128906 157.351562 429.214844 C 157.523438 429.257812 157.921875 429.441406 158.542969 429.765625 C 159.164062 430.09375 159.597656 430.289062 159.84375 430.363281 C 160.21875 430.480469 160.632812 430.535156 161.078125 430.535156 C 162.136719 430.535156 163.050781 430.125 163.832031 429.300781 C 164.613281 428.476562 165.003906 427.507812 165.003906 426.394531 C 165.003906 425.570312 164.824219 424.769531 164.460938 423.988281 C 164.199219 423.410156 163.90625 422.96875 163.570312 422.667969 C 163.125 422.246094 162.515625 421.867188 161.742188 421.527344 C 160.96875 421.1875 160.175781 421.019531 159.367188 421.019531 L 158.867188 421.019531 L 158.867188 420.5625 C 159.679688 420.460938 160.496094 420.164062 161.328125 419.675781 C 162.160156 419.183594 162.757812 418.59375 163.128906 417.90625 C 163.496094 417.222656 163.679688 416.464844 163.679688 415.640625 C 163.679688 414.574219 163.347656 413.710938 162.683594 413.050781 C 162.019531 412.394531 161.1875 412.066406 160.191406 412.066406 C 158.570312 412.066406 157.21875 412.925781 156.136719 414.644531 L 155.636719 414.40625 "/>
<path style=" stroke:none;fill-rule:nonzero;fill:rgb(0%,0%,100%);fill-opacity:1;" d="M 288.1875 258.617188 L 288.1875 260.828125 L 285.347656 260.828125 L 285.347656 266.398438 L 282.789062 266.398438 L 282.789062 260.828125 L 273.835938 260.828125 L 273.835938 258.832031 L 283.632812 244.828125 L 285.347656 244.828125 L 285.347656 258.617188 Z M 282.789062 258.617188 L 282.789062 248.125 L 275.355469 258.617188 L 282.789062 258.617188 "/>
<path style=" stroke:none;fill-rule:nonzero;fill:rgb(0%,0%,100%);fill-opacity:1;" d="M 428.714844 174.5 L 427.5 177.164062 L 421.148438 177.164062 L 419.761719 179.984375 C 422.507812 180.390625 424.691406 181.414062 426.308594 183.0625 C 427.683594 184.480469 428.367188 186.140625 428.367188 188.050781 C 428.367188 189.160156 428.144531 190.191406 427.695312 191.136719 C 427.25 192.085938 426.679688 192.890625 425.996094 193.554688 C 425.308594 194.222656 424.546875 194.753906 423.707031 195.160156 C 422.507812 195.722656 421.28125 196.003906 420.019531 196.003906 C 418.75 196.003906 417.824219 195.792969 417.246094 195.367188 C 416.667969 194.9375 416.378906 194.464844 416.378906 193.945312 C 416.378906 193.65625 416.503906 193.402344 416.746094 193.175781 C 416.992188 192.953125 417.296875 192.839844 417.65625 192.839844 C 417.917969 192.839844 418.148438 192.878906 418.351562 192.960938 C 418.554688 193.039062 418.902344 193.253906 419.394531 193.597656 C 420.175781 194.132812 420.960938 194.402344 421.753906 194.402344 C 422.984375 194.402344 424.058594 193.941406 424.976562 193.023438 C 425.894531 192.105469 426.351562 190.992188 426.351562 189.675781 C 426.351562 188.390625 425.941406 187.191406 425.117188 186.085938 C 424.292969 184.980469 423.15625 184.132812 421.714844 183.539062 C 420.585938 183.0625 419.046875 182.789062 417.09375 182.714844 L 421.148438 174.5 L 428.714844 174.5 "/>
<path style="fill:none;stroke-width:13.875;stroke-linecap:butt;stroke-linejoin:round;stroke:rgb(0%,0%,0%);stroke-opacity:1;stroke-miterlimit:10;" d="M 652.109375 610.507812 L 5418.164062 610.507812 " transform="matrix(0.1,0,0,-0.1,0,555)"/>
<path style=" stroke:none;fill-rule:nonzero;fill:rgb(0%,0%,0%);fill-opacity:1;" d="M 303.296875 533.320312 C 303.632812 533.667969 303.882812 534.019531 304.058594 534.382812 C 304.1875 534.613281 304.390625 535.25 304.664062 536.289062 L 305.550781 534.945312 C 305.785156 534.628906 306.070312 534.320312 306.410156 534.023438 C 306.746094 533.726562 307.046875 533.523438 307.308594 533.40625 C 307.46875 533.347656 307.648438 533.320312 307.851562 533.320312 C 308.140625 533.320312 308.371094 533.394531 308.546875 533.546875 C 308.71875 533.699219 308.804688 533.890625 308.804688 534.121094 C 308.804688 534.382812 308.753906 534.554688 308.652344 534.644531 C 308.464844 534.816406 308.246094 534.902344 308.003906 534.902344 C 307.859375 534.902344 307.707031 534.871094 307.546875 534.816406 C 307.230469 534.699219 307.011719 534.644531 306.898438 534.644531 C 306.738281 534.644531 306.550781 534.734375 306.335938 534.925781 C 305.914062 535.285156 305.40625 535.972656 304.816406 536.984375 L 305.660156 540.472656 C 305.789062 541.007812 305.898438 541.328125 305.988281 541.425781 C 306.074219 541.527344 306.160156 541.582031 306.246094 541.582031 C 306.390625 541.582031 306.558594 541.507812 306.746094 541.363281 C 307.121094 541.042969 307.4375 540.632812 307.699219 540.128906 L 308.046875 540.320312 C 307.628906 541.117188 307.085938 541.78125 306.421875 542.316406 C 306.058594 542.605469 305.746094 542.75 305.488281 542.75 C 305.097656 542.75 304.792969 542.539062 304.578125 542.121094 C 304.433594 541.847656 304.136719 540.703125 303.6875 538.695312 C 302.632812 540.53125 301.789062 541.71875 301.152344 542.25 C 300.730469 542.585938 300.335938 542.75 299.960938 542.75 C 299.683594 542.75 299.433594 542.65625 299.199219 542.46875 C 299.042969 542.308594 298.960938 542.105469 298.960938 541.863281 C 298.960938 541.644531 299.039062 541.460938 299.1875 541.308594 C 299.34375 541.15625 299.527344 541.082031 299.742188 541.082031 C 299.960938 541.082031 300.191406 541.1875 300.4375 541.40625 C 300.609375 541.566406 300.746094 541.644531 300.847656 541.644531 C 300.921875 541.644531 301.023438 541.585938 301.152344 541.472656 C 301.46875 541.210938 301.902344 540.65625 302.453125 539.800781 C 303.003906 538.949219 303.363281 538.335938 303.535156 537.957031 C 303.117188 536.3125 302.886719 535.445312 302.84375 535.355469 C 302.699219 534.910156 302.5 534.59375 302.246094 534.414062 C 301.992188 534.234375 301.621094 534.144531 301.128906 534.144531 C 300.972656 534.144531 300.789062 534.152344 300.589844 534.164062 L 300.589844 533.796875 L 303.296875 533.320312 "/>
<path style="fill:none;stroke-width:1.2;stroke-linecap:butt;stroke-linejoin:round;stroke:rgb(0%,0%,0%);stroke-opacity:1;stroke-miterlimit:10;" d="M 679.882812 610.507812 L 679.882812 555 " transform="matrix(0.1,0,0,-0.1,0,555)"/>
<path style=" stroke:none;fill-rule:nonzero;fill:rgb(0%,0%,0%);fill-opacity:1;" d="M 66.273438 506.5 L 69.613281 504.855469 L 69.960938 504.855469 L 69.960938 516.496094 C 69.960938 517.261719 69.992188 517.742188 70.058594 517.9375 C 70.121094 518.132812 70.257812 518.28125 70.460938 518.382812 C 70.660156 518.484375 71.074219 518.542969 71.695312 518.554688 L 71.695312 518.925781 L 66.511719 518.925781 L 66.511719 518.554688 C 67.164062 518.542969 67.582031 518.484375 67.769531 518.382812 C 67.957031 518.28125 68.089844 518.148438 68.160156 517.980469 C 68.234375 517.816406 68.269531 517.320312 68.269531 516.496094 L 68.269531 509.058594 C 68.269531 508.046875 68.238281 507.40625 68.183594 507.132812 C 68.125 506.914062 68.035156 506.753906 67.910156 506.652344 C 67.789062 506.550781 67.640625 506.5 67.46875 506.5 C 67.207031 506.5 66.859375 506.601562 66.425781 506.804688 L 66.273438 506.5 "/>
<path style="fill:none;stroke-width:1.2;stroke-linecap:butt;stroke-linejoin:round;stroke:rgb(0%,0%,0%);stroke-opacity:1;stroke-miterlimit:10;" d="M 1864.453125 610.507812 L 1864.453125 555 " transform="matrix(0.1,0,0,-0.1,0,555)"/>
<path style=" stroke:none;fill-rule:nonzero;fill:rgb(0%,0%,0%);fill-opacity:1;" d="M 175.886719 506.5 L 179.226562 504.855469 L 179.570312 504.855469 L 179.570312 516.496094 C 179.570312 517.261719 179.605469 517.742188 179.671875 517.9375 C 179.734375 518.132812 179.867188 518.28125 180.070312 518.382812 C 180.273438 518.484375 180.6875 518.542969 181.304688 518.554688 L 181.304688 518.925781 L 176.125 518.925781 L 176.125 518.554688 C 176.777344 518.542969 177.195312 518.484375 177.382812 518.382812 C 177.570312 518.28125 177.699219 518.148438 177.773438 517.980469 C 177.847656 517.816406 177.882812 517.320312 177.882812 516.496094 L 177.882812 509.058594 C 177.882812 508.046875 177.851562 507.40625 177.792969 507.132812 C 177.738281 506.914062 177.644531 506.753906 177.523438 506.652344 C 177.398438 506.550781 177.253906 506.5 177.078125 506.5 C 176.820312 506.5 176.472656 506.601562 176.039062 506.804688 Z M 186.445312 516.953125 C 186.761719 516.953125 187.027344 517.0625 187.246094 517.289062 C 187.464844 517.511719 187.570312 517.773438 187.570312 518.078125 C 187.570312 518.398438 187.464844 518.664062 187.246094 518.878906 C 187.027344 519.097656 186.761719 519.207031 186.445312 519.207031 C 186.125 519.207031 185.859375 519.097656 185.640625 518.878906 C 185.425781 518.664062 185.316406 518.398438 185.316406 518.078125 C 185.316406 517.761719 185.425781 517.492188 185.640625 517.277344 C 185.859375 517.058594 186.125 516.953125 186.445312 516.953125 Z M 198.085938 505.136719 L 197.285156 506.871094 L 193.144531 506.871094 L 192.230469 508.714844 C 194.023438 508.988281 195.449219 509.660156 196.503906 510.730469 C 197.398438 511.640625 197.847656 512.722656 197.847656 513.980469 C 197.847656 514.703125 197.703125 515.371094 197.414062 515.984375 C 197.125 516.601562 196.757812 517.125 196.308594 517.558594 C 195.859375 517.992188 195.363281 518.339844 194.8125 518.597656 C 194.03125 518.976562 193.230469 519.160156 192.40625 519.160156 C 191.582031 519.160156 190.980469 519.023438 190.609375 518.742188 C 190.230469 518.457031 190.042969 518.152344 190.042969 517.820312 C 190.042969 517.628906 190.121094 517.464844 190.28125 517.320312 C 190.441406 517.175781 190.636719 517.101562 190.867188 517.101562 C 191.039062 517.101562 191.191406 517.128906 191.320312 517.179688 C 191.453125 517.230469 191.675781 517.371094 191.996094 517.601562 C 192.515625 517.949219 193.035156 518.121094 193.554688 518.121094 C 194.351562 518.121094 195.042969 517.820312 195.636719 517.222656 C 196.230469 516.621094 196.523438 515.890625 196.523438 515.023438 C 196.523438 514.199219 196.257812 513.425781 195.722656 512.703125 C 195.1875 511.980469 194.449219 511.421875 193.511719 511.03125 C 192.773438 510.730469 191.769531 510.546875 190.496094 510.488281 L 193.144531 505.136719 L 198.085938 505.136719 "/>
<path style="fill:none;stroke-width:1.2;stroke-linecap:butt;stroke-linejoin:round;stroke:rgb(0%,0%,0%);stroke-opacity:1;stroke-miterlimit:10;" d="M 3049.023438 610.507812 L 3049.023438 555 " transform="matrix(0.1,0,0,-0.1,0,555)"/>
<path style=" stroke:none;fill-rule:nonzero;fill:rgb(0%,0%,0%);fill-opacity:1;" d="M 309.238281 516.277344 L 308.285156 518.925781 L 300.15625 518.925781 L 300.15625 518.554688 C 302.539062 516.375 304.21875 514.589844 305.195312 513.203125 C 306.171875 511.8125 306.65625 510.546875 306.65625 509.40625 C 306.65625 508.539062 306.390625 507.824219 305.855469 507.261719 C 305.320312 506.695312 304.679688 506.414062 303.925781 506.414062 C 303.261719 506.414062 302.65625 506.613281 302.117188 507.011719 C 301.574219 507.410156 301.171875 507.988281 300.914062 508.757812 L 300.546875 508.757812 C 300.71875 507.5 301.15625 506.535156 301.855469 505.863281 C 302.558594 505.191406 303.429688 504.855469 304.46875 504.855469 C 305.597656 504.855469 306.53125 505.214844 307.277344 505.9375 C 308.019531 506.660156 308.394531 507.507812 308.394531 508.472656 C 308.394531 509.167969 308.234375 509.871094 307.914062 510.578125 C 307.410156 511.675781 306.59375 512.832031 305.464844 514.046875 C 303.789062 515.894531 302.734375 517.007812 302.300781 517.386719 L 305.898438 517.386719 C 306.636719 517.386719 307.152344 517.359375 307.449219 517.308594 C 307.746094 517.257812 308.015625 517.152344 308.253906 516.984375 C 308.488281 516.816406 308.695312 516.582031 308.871094 516.277344 L 309.238281 516.277344 "/>
<path style="fill:none;stroke-width:1.2;stroke-linecap:butt;stroke-linejoin:round;stroke:rgb(0%,0%,0%);stroke-opacity:1;stroke-miterlimit:10;" d="M 4233.59375 610.507812 L 4233.59375 555 " transform="matrix(0.1,0,0,-0.1,0,555)"/>
<path style=" stroke:none;fill-rule:nonzero;fill:rgb(0%,0%,0%);fill-opacity:1;" d="M 420.238281 516.277344 L 419.285156 518.925781 L 411.15625 518.925781 L 411.15625 518.554688 C 413.539062 516.375 415.21875 514.589844 416.195312 513.203125 C 417.171875 511.8125 417.65625 510.546875 417.65625 509.40625 C 417.65625 508.539062 417.390625 507.824219 416.855469 507.261719 C 416.320312 506.695312 415.679688 506.414062 414.925781 506.414062 C 414.261719 506.414062 413.65625 506.613281 413.117188 507.011719 C 412.574219 507.410156 412.171875 507.988281 411.914062 508.757812 L 411.546875 508.757812 C 411.71875 507.5 412.15625 506.535156 412.855469 505.863281 C 413.558594 505.191406 414.429688 504.855469 415.46875 504.855469 C 416.597656 504.855469 417.53125 505.214844 418.277344 505.9375 C 419.019531 506.660156 419.394531 507.507812 419.394531 508.472656 C 419.394531 509.167969 419.234375 509.871094 418.914062 510.578125 C 418.410156 511.675781 417.59375 512.832031 416.464844 514.046875 C 414.789062 515.894531 413.734375 517.007812 413.300781 517.386719 L 416.898438 517.386719 C 417.636719 517.386719 418.152344 517.359375 418.449219 517.308594 C 418.746094 517.257812 419.015625 517.152344 419.253906 516.984375 C 419.488281 516.816406 419.695312 516.582031 419.871094 516.277344 Z M 423.707031 516.953125 C 424.023438 516.953125 424.292969 517.0625 424.511719 517.289062 C 424.726562 517.511719 424.835938 517.773438 424.835938 518.078125 C 424.835938 518.398438 424.726562 518.664062 424.511719 518.878906 C 424.292969 519.097656 424.023438 519.207031 423.707031 519.207031 C 423.390625 519.207031 423.121094 519.097656 422.902344 518.878906 C 422.6875 518.664062 422.578125 518.398438 422.578125 518.078125 C 422.578125 517.761719 422.6875 517.492188 422.902344 517.277344 C 423.121094 517.058594 423.390625 516.953125 423.707031 516.953125 Z M 435.347656 505.136719 L 434.546875 506.871094 L 430.40625 506.871094 L 429.496094 508.714844 C 431.289062 508.988281 432.710938 509.660156 433.765625 510.730469 C 434.660156 511.640625 435.109375 512.722656 435.109375 513.980469 C 435.109375 514.703125 434.964844 515.371094 434.675781 515.984375 C 434.386719 516.601562 434.019531 517.125 433.570312 517.558594 C 433.121094 517.992188 432.625 518.339844 432.074219 518.597656 C 431.296875 518.976562 430.492188 519.160156 429.667969 519.160156 C 428.847656 519.160156 428.246094 519.023438 427.871094 518.742188 C 427.492188 518.457031 427.304688 518.152344 427.304688 517.820312 C 427.304688 517.628906 427.386719 517.464844 427.542969 517.320312 C 427.703125 517.175781 427.898438 517.101562 428.128906 517.101562 C 428.304688 517.101562 428.453125 517.128906 428.585938 517.179688 C 428.714844 517.230469 428.9375 517.371094 429.257812 517.601562 C 429.777344 517.949219 430.296875 518.121094 430.820312 518.121094 C 431.613281 518.121094 432.304688 517.820312 432.898438 517.222656 C 433.492188 516.621094 433.789062 515.890625 433.789062 515.023438 C 433.789062 514.199219 433.519531 513.425781 432.984375 512.703125 C 432.453125 511.980469 431.714844 511.421875 430.773438 511.03125 C 430.039062 510.730469 429.03125 510.546875 427.761719 510.488281 L 430.40625 505.136719 L 435.347656 505.136719 "/>
<path style="fill:none;stroke-width:1.2;stroke-linecap:butt;stroke-linejoin:round;stroke:rgb(0%,0%,0%);stroke-opacity:1;stroke-miterlimit:10;" d="M 5418.164062 610.507812 L 5418.164062 555 " transform="matrix(0.1,0,0,-0.1,0,555)"/>
<path style=" stroke:none;fill-rule:nonzero;fill:rgb(0%,0%,0%);fill-opacity:1;" d="M 538.023438 507.761719 C 538.414062 506.835938 538.910156 506.117188 539.507812 505.613281 C 540.109375 505.105469 540.855469 504.855469 541.753906 504.855469 C 542.851562 504.855469 543.695312 505.214844 544.289062 505.9375 C 544.738281 506.472656 544.960938 507.042969 544.960938 507.652344 C 544.960938 508.664062 544.332031 509.703125 543.074219 510.773438 C 543.914062 511.105469 544.550781 511.578125 544.984375 512.191406 C 545.414062 512.808594 545.632812 513.53125 545.632812 514.371094 C 545.632812 515.554688 545.257812 516.582031 544.507812 517.449219 C 543.507812 518.59375 542.078125 519.160156 540.214844 519.160156 C 539.273438 519.160156 538.640625 519.046875 538.304688 518.816406 C 537.972656 518.585938 537.808594 518.339844 537.808594 518.078125 C 537.808594 517.875 537.886719 517.703125 538.046875 517.558594 C 538.203125 517.414062 538.394531 517.34375 538.609375 517.34375 C 538.78125 517.34375 538.957031 517.371094 539.128906 517.425781 C 539.246094 517.457031 539.507812 517.578125 539.921875 517.785156 C 540.332031 517.996094 540.613281 518.121094 540.757812 518.164062 C 541.015625 518.238281 541.28125 518.273438 541.558594 518.273438 C 542.253906 518.273438 542.855469 518.007812 543.367188 517.472656 C 543.882812 516.9375 544.136719 516.308594 544.136719 515.585938 C 544.136719 515.050781 544.023438 514.53125 543.789062 514.023438 C 543.601562 513.632812 543.40625 513.34375 543.207031 513.15625 C 542.914062 512.882812 542.515625 512.636719 542.003906 512.421875 C 541.488281 512.203125 540.972656 512.09375 540.453125 512.09375 L 540.128906 512.09375 L 540.128906 511.769531 C 540.660156 511.714844 541.195312 511.523438 541.730469 511.207031 C 542.265625 510.890625 542.65625 510.503906 542.902344 510.058594 C 543.148438 509.609375 543.269531 509.117188 543.269531 508.582031 C 543.269531 507.890625 543.054688 507.324219 542.621094 506.894531 C 542.1875 506.457031 541.644531 506.242188 540.996094 506.242188 C 539.9375 506.242188 539.058594 506.804688 538.351562 507.933594 L 538.023438 507.761719 "/>
<path style="fill:none;stroke-width:1.2;stroke-linecap:butt;stroke-linejoin:round;stroke:rgb(0%,0%,0%);stroke-opacity:1;stroke-miterlimit:10;" d="M 916.796875 610.507812 L 916.796875 582.734375 " transform="matrix(0.1,0,0,-0.1,0,555)"/>
<path style="fill:none;stroke-width:1.2;stroke-linecap:butt;stroke-linejoin:round;stroke:rgb(0%,0%,0%);stroke-opacity:1;stroke-miterlimit:10;" d="M 1153.710938 610.507812 L 1153.710938 582.734375 " transform="matrix(0.1,0,0,-0.1,0,555)"/>
<path style="fill:none;stroke-width:1.2;stroke-linecap:butt;stroke-linejoin:round;stroke:rgb(0%,0%,0%);stroke-opacity:1;stroke-miterlimit:10;" d="M 1390.625 610.507812 L 1390.625 582.734375 " transform="matrix(0.1,0,0,-0.1,0,555)"/>
<path style="fill:none;stroke-width:1.2;stroke-linecap:butt;stroke-linejoin:round;stroke:rgb(0%,0%,0%);stroke-opacity:1;stroke-miterlimit:10;" d="M 1627.539062 610.507812 L 1627.539062 582.734375 " transform="matrix(0.1,0,0,-0.1,0,555)"/>
<path style="fill:none;stroke-width:1.2;stroke-linecap:butt;stroke-linejoin:round;stroke:rgb(0%,0%,0%);stroke-opacity:1;stroke-miterlimit:10;" d="M 2101.367188 610.507812 L 2101.367188 582.734375 " transform="matrix(0.1,0,0,-0.1,0,555)"/>
<path style="fill:none;stroke-width:1.2;stroke-linecap:butt;stroke-linejoin:round;stroke:rgb(0%,0%,0%);stroke-opacity:1;stroke-miterlimit:10;" d="M 2338.28125 610.507812 L 2338.28125 582.734375 " transform="matrix(0.1,0,0,-0.1,0,555)"/>
<path style="fill:none;stroke-width:1.2;stroke-linecap:butt;stroke-linejoin:round;stroke:rgb(0%,0%,0%);stroke-opacity:1;stroke-miterlimit:10;" d="M 2575.195312 610.507812 L 2575.195312 582.734375 " transform="matrix(0.1,0,0,-0.1,0,555)"/>
<path style="fill:none;stroke-width:1.2;stroke-linecap:butt;stroke-linejoin:round;stroke:rgb(0%,0%,0%);stroke-opacity:1;stroke-miterlimit:10;" d="M 2812.109375 610.507812 L 2812.109375 582.734375 " transform="matrix(0.1,0,0,-0.1,0,555)"/>
<path style="fill:none;stroke-width:1.2;stroke-linecap:butt;stroke-linejoin:round;stroke:rgb(0%,0%,0%);stroke-opacity:1;stroke-miterlimit:10;" d="M 3285.9375 610.507812 L 3285.9375 582.734375 " transform="matrix(0.1,0,0,-0.1,0,555)"/>
<path style="fill:none;stroke-width:1.2;stroke-linecap:butt;stroke-linejoin:round;stroke:rgb(0%,0%,0%);stroke-opacity:1;stroke-miterlimit:10;" d="M 3522.851562 610.507812 L 3522.851562 582.734375 " transform="matrix(0.1,0,0,-0.1,0,555)"/>
<path style="fill:none;stroke-width:1.2;stroke-linecap:butt;stroke-linejoin:round;stroke:rgb(0%,0%,0%);stroke-opacity:1;stroke-miterlimit:10;" d="M 3759.765625 610.507812 L 3759.765625 582.734375 " transform="matrix(0.1,0,0,-0.1,0,555)"/>
<path style="fill:none;stroke-width:1.2;stroke-linecap:butt;stroke-linejoin:round;stroke:rgb(0%,0%,0%);stroke-opacity:1;stroke-miterlimit:10;" d="M 3996.679688 610.507812 L 3996.679688 582.734375 " transform="matrix(0.1,0,0,-0.1,0,555)"/>
<path style="fill:none;stroke-width:1.2;stroke-linecap:butt;stroke-linejoin:round;stroke:rgb(0%,0%,0%);stroke-opacity:1;stroke-miterlimit:10;" d="M 4470.507812 610.507812 L 4470.507812 582.734375 " transform="matrix(0.1,0,0,-0.1,0,555)"/>
<path style="fill:none;stroke-width:1.2;stroke-linecap:butt;stroke-linejoin:round;stroke:rgb(0%,0%,0%);stroke-opacity:1;stroke-miterlimit:10;" d="M 4707.421875 610.507812 L 4707.421875 582.734375 " transform="matrix(0.1,0,0,-0.1,0,555)"/>
<path style="fill:none;stroke-width:1.2;stroke-linecap:butt;stroke-linejoin:round;stroke:rgb(0%,0%,0%);stroke-opacity:1;stroke-miterlimit:10;" d="M 4944.335938 610.507812 L 4944.335938 582.734375 " transform="matrix(0.1,0,0,-0.1,0,555)"/>
<path style="fill:none;stroke-width:1.2;stroke-linecap:butt;stroke-linejoin:round;stroke:rgb(0%,0%,0%);stroke-opacity:1;stroke-miterlimit:10;" d="M 5181.25 610.507812 L 5181.25 582.734375 " transform="matrix(0.1,0,0,-0.1,0,555)"/>
<path style="fill:none;stroke-width:13.875;stroke-linecap:butt;stroke-linejoin:round;stroke:rgb(0%,0%,0%);stroke-opacity:1;stroke-miterlimit:10;" d="M 652.109375 610.507812 L 652.109375 5355.546875 " transform="matrix(0.1,0,0,-0.1,0,555)"/>
<g clip-path="url(#clip1)" clip-rule="nonzero">
<path style=" stroke:none;fill-rule:nonzero;fill:rgb(0%,0%,0%);fill-opacity:1;" d="M 17.191406 254.433594 C 17.421875 254.824219 17.582031 255.1875 17.667969 255.527344 C 17.753906 255.867188 17.847656 256.542969 17.949219 257.554688 L 18.382812 262.539062 C 18.789062 262.0625 19.382812 261.289062 20.160156 260.21875 C 20.523438 259.714844 20.976562 259.015625 21.527344 258.117188 C 21.859375 257.582031 22.070312 257.207031 22.15625 256.988281 C 22.183594 256.875 22.199219 256.761719 22.199219 256.644531 C 22.199219 256.570312 22.179688 256.515625 22.136719 256.46875 C 22.089844 256.425781 21.96875 256.371094 21.765625 256.308594 C 21.5625 256.242188 21.398438 256.121094 21.269531 255.949219 C 21.136719 255.777344 21.074219 255.574219 21.074219 255.34375 C 21.074219 255.066406 21.152344 254.847656 21.3125 254.679688 C 21.46875 254.515625 21.671875 254.433594 21.917969 254.433594 C 22.222656 254.433594 22.476562 254.554688 22.6875 254.800781 C 22.898438 255.046875 23.003906 255.386719 23.003906 255.820312 C 23.003906 256.355469 22.816406 256.964844 22.449219 257.652344 C 22.082031 258.339844 21.375 259.394531 20.335938 260.816406 C 19.292969 262.238281 18.03125 263.789062 16.542969 265.46875 C 15.53125 266.621094 14.773438 267.351562 14.277344 267.65625 C 13.777344 267.960938 13.355469 268.113281 13.007812 268.113281 C 12.789062 268.113281 12.601562 268.03125 12.445312 267.871094 C 12.285156 267.714844 12.207031 267.535156 12.207031 267.332031 C 12.207031 267.058594 12.316406 266.8125 12.542969 266.59375 C 12.765625 266.378906 13 266.269531 13.246094 266.269531 C 13.390625 266.269531 13.507812 266.304688 13.59375 266.378906 C 13.652344 266.40625 13.710938 266.5 13.777344 266.660156 C 13.84375 266.820312 13.898438 266.925781 13.941406 266.984375 C 13.984375 267.011719 14.027344 267.027344 14.070312 267.027344 C 14.113281 267.027344 14.183594 266.992188 14.285156 266.921875 C 14.664062 266.6875 15.097656 266.328125 15.585938 265.835938 C 16.238281 265.171875 16.714844 264.628906 17.019531 264.210938 L 16.453125 257.769531 C 16.367188 256.699219 16.226562 256.050781 16.03125 255.820312 C 15.835938 255.589844 15.515625 255.472656 15.066406 255.472656 C 14.921875 255.472656 14.667969 255.492188 14.308594 255.535156 L 14.222656 255.171875 L 17.191406 254.433594 "/>
</g>
<path style="fill:none;stroke-width:1.2;stroke-linecap:butt;stroke-linejoin:round;stroke:rgb(0%,0%,0%);stroke-opacity:1;stroke-miterlimit:10;" d="M 652.109375 638.242188 L 596.640625 638.242188 " transform="matrix(0.1,0,0,-0.1,0,555)"/>
<path style=" stroke:none;fill-rule:nonzero;fill:rgb(0%,0%,0%);fill-opacity:1;" d="M 51.011719 487.078125 L 54.351562 485.429688 L 54.699219 485.429688 L 54.699219 497.070312 C 54.699219 497.839844 54.730469 498.316406 54.796875 498.511719 C 54.859375 498.707031 54.992188 498.855469 55.195312 498.957031 C 55.398438 499.058594 55.808594 499.117188 56.433594 499.132812 L 56.433594 499.5 L 51.25 499.5 L 51.25 499.132812 C 51.902344 499.117188 52.320312 499.058594 52.507812 498.957031 C 52.695312 498.855469 52.828125 498.722656 52.898438 498.554688 C 52.96875 498.390625 53.007812 497.894531 53.007812 497.070312 L 53.007812 489.636719 C 53.007812 488.625 52.976562 487.980469 52.917969 487.707031 C 52.863281 487.488281 52.773438 487.332031 52.648438 487.230469 C 52.527344 487.128906 52.378906 487.078125 52.203125 487.078125 C 51.945312 487.078125 51.597656 487.175781 51.164062 487.378906 L 51.011719 487.078125 "/>
<path style="fill:none;stroke-width:1.2;stroke-linecap:butt;stroke-linejoin:round;stroke:rgb(0%,0%,0%);stroke-opacity:1;stroke-miterlimit:10;" d="M 652.109375 1817.578125 L 596.640625 1817.578125 " transform="matrix(0.1,0,0,-0.1,0,555)"/>
<path style=" stroke:none;fill-rule:nonzero;fill:rgb(0%,0%,0%);fill-opacity:1;" d="M 35.75 369.140625 L 39.089844 367.492188 L 39.433594 367.492188 L 39.433594 379.132812 C 39.433594 379.898438 39.46875 380.378906 39.53125 380.574219 C 39.597656 380.769531 39.730469 380.917969 39.933594 381.019531 C 40.136719 381.121094 40.546875 381.179688 41.167969 381.191406 L 41.167969 381.5625 L 35.988281 381.5625 L 35.988281 381.191406 C 36.640625 381.179688 37.058594 381.121094 37.246094 381.019531 C 37.433594 380.917969 37.5625 380.785156 37.636719 380.617188 C 37.707031 380.453125 37.742188 379.957031 37.742188 379.132812 L 37.742188 371.695312 C 37.742188 370.6875 37.714844 370.042969 37.65625 369.769531 C 37.597656 369.550781 37.507812 369.394531 37.386719 369.289062 C 37.265625 369.191406 37.117188 369.140625 36.941406 369.140625 C 36.683594 369.140625 36.335938 369.238281 35.902344 369.441406 Z M 46.308594 379.589844 C 46.625 379.589844 46.894531 379.699219 47.109375 379.925781 C 47.328125 380.148438 47.433594 380.410156 47.433594 380.714844 C 47.433594 381.035156 47.328125 381.300781 47.109375 381.519531 C 46.894531 381.734375 46.625 381.84375 46.308594 381.84375 C 45.988281 381.84375 45.722656 381.734375 45.503906 381.519531 C 45.289062 381.300781 45.179688 381.035156 45.179688 380.714844 C 45.179688 380.398438 45.289062 380.128906 45.503906 379.914062 C 45.722656 379.699219 45.988281 379.589844 46.308594 379.589844 Z M 57.949219 367.773438 L 57.148438 369.507812 L 53.007812 369.507812 L 52.097656 371.351562 C 53.886719 371.625 55.3125 372.296875 56.367188 373.367188 C 57.261719 374.277344 57.710938 375.363281 57.710938 376.617188 C 57.710938 377.34375 57.566406 378.011719 57.277344 378.625 C 56.988281 379.238281 56.621094 379.761719 56.171875 380.195312 C 55.722656 380.628906 55.226562 380.976562 54.675781 381.234375 C 53.894531 381.613281 53.09375 381.800781 52.269531 381.800781 C 51.445312 381.800781 50.847656 381.660156 50.46875 381.378906 C 50.09375 381.097656 49.90625 380.789062 49.90625 380.457031 C 49.90625 380.269531 49.984375 380.101562 50.144531 379.957031 C 50.304688 379.8125 50.5 379.742188 50.730469 379.742188 C 50.902344 379.742188 51.054688 379.765625 51.183594 379.816406 C 51.316406 379.867188 51.539062 380.007812 51.859375 380.238281 C 52.378906 380.585938 52.898438 380.757812 53.417969 380.757812 C 54.214844 380.757812 54.90625 380.460938 55.5 379.859375 C 56.09375 379.261719 56.390625 378.527344 56.390625 377.660156 C 56.390625 376.835938 56.121094 376.0625 55.585938 375.339844 C 55.050781 374.617188 54.316406 374.058594 53.375 373.671875 C 52.636719 373.367188 51.632812 373.1875 50.363281 373.128906 L 53.007812 367.773438 L 57.949219 367.773438 "/>
<path style="fill:none;stroke-width:1.2;stroke-linecap:butt;stroke-linejoin:round;stroke:rgb(0%,0%,0%);stroke-opacity:1;stroke-miterlimit:10;" d="M 652.109375 2996.914062 L 596.640625 2996.914062 " transform="matrix(0.1,0,0,-0.1,0,555)"/>
<path style=" stroke:none;fill-rule:nonzero;fill:rgb(0%,0%,0%);fill-opacity:1;" d="M 58.101562 260.980469 L 57.148438 263.625 L 49.019531 263.625 L 49.019531 263.257812 C 51.402344 261.074219 53.082031 259.289062 54.058594 257.902344 C 55.035156 256.515625 55.523438 255.25 55.523438 254.105469 C 55.523438 253.238281 55.253906 252.523438 54.71875 251.960938 C 54.183594 251.398438 53.542969 251.113281 52.789062 251.113281 C 52.125 251.113281 51.523438 251.3125 50.980469 251.710938 C 50.4375 252.109375 50.035156 252.691406 49.777344 253.457031 L 49.40625 253.457031 C 49.582031 252.199219 50.019531 251.234375 50.71875 250.5625 C 51.421875 249.890625 52.292969 249.554688 53.332031 249.554688 C 54.460938 249.554688 55.394531 249.914062 56.140625 250.636719 C 56.882812 251.359375 57.257812 252.207031 57.257812 253.175781 C 57.257812 253.867188 57.097656 254.570312 56.777344 255.277344 C 56.273438 256.378906 55.457031 257.53125 54.328125 258.746094 C 52.652344 260.597656 51.597656 261.710938 51.164062 262.085938 L 54.761719 262.085938 C 55.5 262.085938 56.015625 262.058594 56.3125 262.007812 C 56.609375 261.960938 56.875 261.851562 57.113281 261.683594 C 57.351562 261.515625 57.558594 261.28125 57.734375 260.980469 L 58.101562 260.980469 "/>
<path style="fill:none;stroke-width:1.2;stroke-linecap:butt;stroke-linejoin:round;stroke:rgb(0%,0%,0%);stroke-opacity:1;stroke-miterlimit:10;" d="M 652.109375 4176.210938 L 596.640625 4176.210938 " transform="matrix(0.1,0,0,-0.1,0,555)"/>
<path style=" stroke:none;fill-rule:nonzero;fill:rgb(0%,0%,0%);fill-opacity:1;" d="M 42.839844 143.039062 L 41.886719 145.6875 L 33.753906 145.6875 L 33.753906 145.316406 C 36.140625 143.136719 37.820312 141.351562 38.796875 139.964844 C 39.773438 138.578125 40.257812 137.3125 40.257812 136.171875 C 40.257812 135.304688 39.992188 134.585938 39.457031 134.023438 C 38.921875 133.460938 38.277344 133.179688 37.527344 133.179688 C 36.863281 133.179688 36.257812 133.378906 35.71875 133.773438 C 35.175781 134.171875 34.773438 134.753906 34.515625 135.519531 L 34.144531 135.519531 C 34.320312 134.261719 34.757812 133.296875 35.457031 132.625 C 36.15625 131.953125 37.027344 131.617188 38.070312 131.617188 C 39.195312 131.617188 40.132812 131.980469 40.878906 132.699219 C 41.621094 133.425781 41.992188 134.269531 41.992188 135.238281 C 41.992188 135.933594 41.835938 136.632812 41.515625 137.339844 C 41.011719 138.4375 40.195312 139.59375 39.066406 140.808594 C 37.390625 142.660156 36.335938 143.769531 35.902344 144.148438 L 39.5 144.148438 C 40.238281 144.148438 40.753906 144.121094 41.050781 144.070312 C 41.347656 144.019531 41.613281 143.914062 41.851562 143.746094 C 42.089844 143.578125 42.296875 143.34375 42.46875 143.039062 Z M 46.308594 143.714844 C 46.625 143.714844 46.894531 143.824219 47.109375 144.050781 C 47.328125 144.273438 47.433594 144.535156 47.433594 144.839844 C 47.433594 145.160156 47.328125 145.425781 47.109375 145.644531 C 46.894531 145.859375 46.625 145.96875 46.308594 145.96875 C 45.988281 145.96875 45.722656 145.859375 45.503906 145.644531 C 45.289062 145.425781 45.179688 145.160156 45.179688 144.839844 C 45.179688 144.523438 45.289062 144.253906 45.503906 144.039062 C 45.722656 143.824219 45.988281 143.714844 46.308594 143.714844 Z M 57.949219 131.898438 L 57.148438 133.632812 L 53.007812 133.632812 L 52.097656 135.476562 C 53.886719 135.75 55.3125 136.421875 56.367188 137.492188 C 57.261719 138.402344 57.710938 139.488281 57.710938 140.742188 C 57.710938 141.46875 57.566406 142.136719 57.277344 142.75 C 56.988281 143.363281 56.621094 143.886719 56.171875 144.320312 C 55.722656 144.753906 55.226562 145.101562 54.675781 145.359375 C 53.894531 145.738281 53.09375 145.925781 52.269531 145.925781 C 51.445312 145.925781 50.847656 145.785156 50.46875 145.503906 C 50.09375 145.222656 49.90625 144.914062 49.90625 144.582031 C 49.90625 144.394531 49.984375 144.226562 50.144531 144.082031 C 50.304688 143.9375 50.5 143.867188 50.730469 143.867188 C 50.902344 143.867188 51.054688 143.890625 51.183594 143.941406 C 51.316406 143.992188 51.539062 144.132812 51.859375 144.363281 C 52.378906 144.710938 52.898438 144.882812 53.417969 144.882812 C 54.214844 144.882812 54.90625 144.585938 55.5 143.984375 C 56.09375 143.386719 56.390625 142.652344 56.390625 141.785156 C 56.390625 140.960938 56.121094 140.1875 55.585938 139.464844 C 55.050781 138.742188 54.316406 138.1875 53.375 137.796875 C 52.636719 137.492188 51.632812 137.3125 50.363281 137.253906 L 53.007812 131.898438 L 57.949219 131.898438 "/>
<path style="fill:none;stroke-width:1.2;stroke-linecap:butt;stroke-linejoin:round;stroke:rgb(0%,0%,0%);stroke-opacity:1;stroke-miterlimit:10;" d="M 652.109375 5355.546875 L 596.640625 5355.546875 " transform="matrix(0.1,0,0,-0.1,0,555)"/>
<path style=" stroke:none;fill-rule:nonzero;fill:rgb(0%,0%,0%);fill-opacity:1;" d="M 49.625 16.585938 C 50.015625 15.660156 50.511719 14.945312 51.109375 14.4375 C 51.710938 13.933594 52.457031 13.679688 53.351562 13.679688 C 54.453125 13.679688 55.296875 14.039062 55.890625 14.765625 C 56.339844 15.296875 56.5625 15.871094 56.5625 16.476562 C 56.5625 17.488281 55.933594 18.527344 54.675781 19.597656 C 55.515625 19.929688 56.152344 20.402344 56.585938 21.019531 C 57.019531 21.632812 57.234375 22.359375 57.234375 23.195312 C 57.234375 24.382812 56.859375 25.410156 56.105469 26.277344 C 55.109375 27.417969 53.679688 27.988281 51.816406 27.988281 C 50.875 27.988281 50.238281 27.871094 49.90625 27.640625 C 49.574219 27.410156 49.40625 27.164062 49.40625 26.902344 C 49.40625 26.703125 49.488281 26.527344 49.648438 26.382812 C 49.804688 26.238281 49.992188 26.167969 50.210938 26.167969 C 50.382812 26.167969 50.558594 26.195312 50.730469 26.253906 C 50.847656 26.28125 51.109375 26.402344 51.523438 26.613281 C 51.933594 26.820312 52.210938 26.949219 52.355469 26.992188 C 52.617188 27.0625 52.882812 27.101562 53.160156 27.101562 C 53.851562 27.101562 54.457031 26.832031 54.96875 26.296875 C 55.480469 25.761719 55.738281 25.132812 55.738281 24.410156 C 55.738281 23.878906 55.621094 23.355469 55.390625 22.851562 C 55.203125 22.460938 55.007812 22.171875 54.804688 21.984375 C 54.515625 21.710938 54.117188 21.464844 53.601562 21.246094 C 53.089844 21.027344 52.574219 20.921875 52.050781 20.921875 L 51.726562 20.921875 L 51.726562 20.597656 C 52.261719 20.539062 52.796875 20.351562 53.332031 20.03125 C 53.867188 19.714844 54.257812 19.332031 54.503906 18.882812 C 54.75 18.433594 54.871094 17.941406 54.871094 17.410156 C 54.871094 16.714844 54.65625 16.152344 54.21875 15.71875 C 53.785156 15.285156 53.246094 15.066406 52.59375 15.066406 C 51.539062 15.066406 50.65625 15.632812 49.949219 16.757812 L 49.625 16.585938 "/>
<path style="fill:none;stroke-width:1.2;stroke-linecap:butt;stroke-linejoin:round;stroke:rgb(0%,0%,0%);stroke-opacity:1;stroke-miterlimit:10;" d="M 652.109375 874.140625 L 624.375 874.140625 " transform="matrix(0.1,0,0,-0.1,0,555)"/>
<path style="fill:none;stroke-width:1.2;stroke-linecap:butt;stroke-linejoin:round;stroke:rgb(0%,0%,0%);stroke-opacity:1;stroke-miterlimit:10;" d="M 652.109375 1109.960938 L 624.375 1109.960938 " transform="matrix(0.1,0,0,-0.1,0,555)"/>
<path style="fill:none;stroke-width:1.2;stroke-linecap:butt;stroke-linejoin:round;stroke:rgb(0%,0%,0%);stroke-opacity:1;stroke-miterlimit:10;" d="M 652.109375 1345.859375 L 624.375 1345.859375 " transform="matrix(0.1,0,0,-0.1,0,555)"/>
<path style="fill:none;stroke-width:1.2;stroke-linecap:butt;stroke-linejoin:round;stroke:rgb(0%,0%,0%);stroke-opacity:1;stroke-miterlimit:10;" d="M 652.109375 1581.71875 L 624.375 1581.71875 " transform="matrix(0.1,0,0,-0.1,0,555)"/>
<path style="fill:none;stroke-width:1.2;stroke-linecap:butt;stroke-linejoin:round;stroke:rgb(0%,0%,0%);stroke-opacity:1;stroke-miterlimit:10;" d="M 652.109375 2053.4375 L 624.375 2053.4375 " transform="matrix(0.1,0,0,-0.1,0,555)"/>
<path style="fill:none;stroke-width:1.2;stroke-linecap:butt;stroke-linejoin:round;stroke:rgb(0%,0%,0%);stroke-opacity:1;stroke-miterlimit:10;" d="M 652.109375 2289.296875 L 624.375 2289.296875 " transform="matrix(0.1,0,0,-0.1,0,555)"/>
<path style="fill:none;stroke-width:1.2;stroke-linecap:butt;stroke-linejoin:round;stroke:rgb(0%,0%,0%);stroke-opacity:1;stroke-miterlimit:10;" d="M 652.109375 2525.195312 L 624.375 2525.195312 " transform="matrix(0.1,0,0,-0.1,0,555)"/>
<path style="fill:none;stroke-width:1.2;stroke-linecap:butt;stroke-linejoin:round;stroke:rgb(0%,0%,0%);stroke-opacity:1;stroke-miterlimit:10;" d="M 652.109375 2761.054688 L 624.375 2761.054688 " transform="matrix(0.1,0,0,-0.1,0,555)"/>
<path style="fill:none;stroke-width:1.2;stroke-linecap:butt;stroke-linejoin:round;stroke:rgb(0%,0%,0%);stroke-opacity:1;stroke-miterlimit:10;" d="M 652.109375 3232.773438 L 624.375 3232.773438 " transform="matrix(0.1,0,0,-0.1,0,555)"/>
<path style="fill:none;stroke-width:1.2;stroke-linecap:butt;stroke-linejoin:round;stroke:rgb(0%,0%,0%);stroke-opacity:1;stroke-miterlimit:10;" d="M 652.109375 3468.632812 L 624.375 3468.632812 " transform="matrix(0.1,0,0,-0.1,0,555)"/>
<path style="fill:none;stroke-width:1.2;stroke-linecap:butt;stroke-linejoin:round;stroke:rgb(0%,0%,0%);stroke-opacity:1;stroke-miterlimit:10;" d="M 652.109375 3704.492188 L 624.375 3704.492188 " transform="matrix(0.1,0,0,-0.1,0,555)"/>
<path style="fill:none;stroke-width:1.2;stroke-linecap:butt;stroke-linejoin:round;stroke:rgb(0%,0%,0%);stroke-opacity:1;stroke-miterlimit:10;" d="M 652.109375 3940.351562 L 624.375 3940.351562 " transform="matrix(0.1,0,0,-0.1,0,555)"/>
<path style="fill:none;stroke-width:1.2;stroke-linecap:butt;stroke-linejoin:round;stroke:rgb(0%,0%,0%);stroke-opacity:1;stroke-miterlimit:10;" d="M 652.109375 4412.109375 L 624.375 4412.109375 " transform="matrix(0.1,0,0,-0.1,0,555)"/>
<path style="fill:none;stroke-width:1.2;stroke-linecap:butt;stroke-linejoin:round;stroke:rgb(0%,0%,0%);stroke-opacity:1;stroke-miterlimit:10;" d="M 652.109375 4647.96875 L 624.375 4647.96875 " transform="matrix(0.1,0,0,-0.1,0,555)"/>
<path style="fill:none;stroke-width:1.2;stroke-linecap:butt;stroke-linejoin:round;stroke:rgb(0%,0%,0%);stroke-opacity:1;stroke-miterlimit:10;" d="M 652.109375 4883.828125 L 624.375 4883.828125 " transform="matrix(0.1,0,0,-0.1,0,555)"/>
<path style="fill:none;stroke-width:1.2;stroke-linecap:butt;stroke-linejoin:round;stroke:rgb(0%,0%,0%);stroke-opacity:1;stroke-miterlimit:10;" d="M 652.109375 5119.6875 L 624.375 5119.6875 " transform="matrix(0.1,0,0,-0.1,0,555)"/>
</g>
</svg>
