<?xml version="1.0" encoding="UTF-8"?>
<svg xmlns="http://www.w3.org/2000/svg" xmlns:xlink="http://www.w3.org/1999/xlink" width="150pt" height="150pt" viewBox="0 0 150 150" version="1.1">
<g id="surface1">
<path style="fill:none;stroke-width:10;stroke-linecap:butt;stroke-linejoin:miter;stroke:rgb(100%,0%,100%);stroke-opacity:1;stroke-miterlimit:10;" d="M 225 925 L 227.8125 929.179688 L 230.546875 933.398438 L 233.242188 937.539062 L 235.859375 941.679688 L 238.4375 945.78125 L 240.976562 949.882812 L 243.4375 953.945312 L 245.859375 958.007812 L 248.242188 962.03125 L 250.546875 966.054688 L 252.8125 970.039062 L 255.039062 974.023438 L 259.335938 981.914062 L 261.40625 985.859375 L 263.4375 989.765625 L 265.390625 993.632812 L 267.304688 997.539062 L 269.179688 1001.40625 L 271.015625 1005.234375 L 272.8125 1009.0625 L 274.570312 1012.890625 L 276.289062 1016.679688 L 277.929688 1020.46875 L 279.53125 1024.257812 L 282.65625 1031.757812 L 284.101562 1035.507812 L 285.546875 1039.21875 L 286.953125 1042.96875 L 288.320312 1046.640625 L 289.648438 1050.351562 L 290.9375 1054.023438 L 292.1875 1057.695312 L 294.53125 1065.039062 L 295.664062 1068.671875 L 297.773438 1075.9375 L 298.789062 1079.53125 L 299.765625 1083.164062 L 300.703125 1086.757812 L 301.601562 1090.351562 L 302.460938 1093.945312 L 303.320312 1097.5 L 304.101562 1101.09375 L 305.585938 1108.203125 L 306.914062 1115.3125 L 307.539062 1118.867188 L 308.125 1122.382812 L 308.671875 1125.9375 L 309.21875 1129.453125 L 309.6875 1133.007812 L 310.15625 1136.523438 L 310.585938 1140.039062 L 311.367188 1147.070312 L 311.679688 1150.585938 L 311.992188 1154.0625 L 312.265625 1157.578125 L 312.5 1161.09375 L 312.695312 1164.609375 L 312.890625 1168.085938 L 313.046875 1171.5625 L 313.164062 1175.078125 L 313.242188 1178.554688 L 313.320312 1182.070312 L 313.359375 1185.546875 L 313.359375 1192.539062 L 313.320312 1196.054688 L 313.242188 1199.53125 L 313.125 1203.007812 L 313.007812 1206.523438 L 312.851562 1210.039062 L 312.460938 1216.992188 L 312.226562 1220.507812 L 311.953125 1224.023438 L 311.640625 1227.539062 L 311.367188 1231.015625 L 310.664062 1238.046875 L 310.273438 1241.5625 L 309.414062 1248.59375 L 308.945312 1252.148438 L 307.929688 1259.179688 L 306.835938 1266.289062 L 306.25 1269.804688 L 305.664062 1273.359375 L 303.671875 1284.023438 L 302.96875 1287.617188 L 302.265625 1291.171875 L 301.523438 1294.765625 L 300.742188 1298.359375 L 299.921875 1301.953125 L 299.140625 1305.546875 L 298.28125 1309.140625 L 296.5625 1316.40625 L 295.664062 1320.039062 L 294.726562 1323.632812 L 293.789062 1327.304688 L 292.8125 1330.9375 L 291.796875 1334.609375 L 290.820312 1338.28125 L 288.710938 1345.625 L 287.65625 1349.335938 L 286.5625 1353.007812 L 284.296875 1360.429688 L 283.125 1364.140625 L 281.953125 1367.890625 L 279.53125 1375.390625 L 278.28125 1379.140625 L 277.03125 1382.929688 L 274.453125 1390.507812 L 273.125 1394.335938 L 271.796875 1398.125 L 269.0625 1405.78125 L 266.25 1413.515625 L 263.359375 1421.25 L 260.390625 1429.0625 L 258.867188 1432.96875 L 257.304688 1436.875 L 255.78125 1440.859375 L 254.179688 1444.804688 L 252.617188 1448.75 L 250.976562 1452.734375 L 249.375 1456.71875 L 247.734375 1460.742188 L 244.375 1468.789062 L 242.65625 1472.8125 L 240.9375 1476.875 L 239.179688 1480.976562 L 237.421875 1485.039062 L 235.664062 1489.140625 L 233.867188 1493.242188 L 230.195312 1501.523438 L 228.359375 1505.703125 L 226.484375 1509.882812 L 222.65625 1518.242188 L 220.742188 1522.460938 L 216.835938 1530.976562 L 212.851562 1539.492188 L 210.820312 1543.789062 L 206.757812 1552.460938 L 204.6875 1556.796875 L 198.359375 1569.921875 L 196.171875 1574.335938 L 194.023438 1578.789062 L 191.835938 1583.203125 L 189.648438 1587.695312 L 185.195312 1596.679688 L 182.929688 1601.171875 L 180.664062 1605.742188 L 178.359375 1610.273438 L 176.054688 1614.84375 L 173.75 1619.453125 L 171.40625 1624.0625 L 169.023438 1628.671875 L 166.640625 1633.320312 L 164.257812 1638.007812 L 161.835938 1642.695312 L 159.375 1647.382812 L 156.953125 1652.109375 L 154.453125 1656.875 L 151.992188 1661.640625 L 149.453125 1666.40625 L 146.953125 1671.210938 L 144.375 1676.054688 L 141.835938 1680.898438 L 139.257812 1685.742188 L 136.640625 1690.625 L 131.40625 1700.46875 L 128.75 1705.429688 L 126.054688 1710.390625 L 120.664062 1720.390625 L 115.195312 1730.46875 L 112.421875 1735.546875 L 109.648438 1740.664062 L 106.835938 1745.78125 L 104.023438 1750.9375 L 101.171875 1756.09375 L 98.320312 1761.289062 L 95.429688 1766.484375 L 92.539062 1771.757812 L 89.609375 1776.992188 L 86.679688 1782.265625 L 83.75 1787.578125 L 80.78125 1792.929688 L 74.765625 1803.632812 L 71.757812 1809.0625 L 68.710938 1814.492188 L 65.625 1819.921875 L 62.539062 1825.390625 L 59.453125 1830.898438 L 53.203125 1841.992188 L 50.039062 1847.539062 L 40.429688 1864.414062 L 37.1875 1870.117188 L 33.945312 1875.78125 L 30.664062 1881.523438 L 20.703125 1898.867188 L 17.34375 1904.726562 L 10.546875 1916.445312 L 7.148438 1922.382812 L 3.710938 1928.320312 L 0.273438 1934.296875 L -3.203125 1940.273438 L -13.75 1958.4375 L -17.304688 1964.570312 L -20.898438 1970.703125 L -24.492188 1976.875 L -28.125 1983.046875 L -31.757812 1989.296875 L -35.429688 1995.546875 L -39.101562 2001.835938 L -42.8125 2008.125 L -46.523438 2014.492188 L -50.273438 2020.859375 L -54.023438 2027.265625 L -57.8125 2033.671875 L -65.46875 2046.640625 L -69.296875 2053.164062 L -73.164062 2059.726562 L -77.070312 2066.289062 L -80.976562 2072.929688 L -84.921875 2079.570312 L -88.867188 2086.25 L -92.851562 2092.96875 L -96.875 2099.6875 L -104.921875 2113.28125 L -108.984375 2120.117188 L -113.085938 2126.992188 L -117.1875 2133.90625 L -125.46875 2147.8125 L -129.648438 2154.804688 L -133.867188 2161.835938 L -138.085938 2168.90625 L -142.34375 2176.015625 L -146.601562 2183.164062 L -155.195312 2197.539062 L -159.53125 2204.804688 L -163.90625 2212.070312 L -168.28125 2219.375 L -172.695312 2226.71875 L -177.148438 2234.101562 L -181.601562 2241.523438 L -186.054688 2248.984375 L -190.585938 2256.445312 L -199.648438 2271.523438 L -204.21875 2279.140625 L -208.828125 2286.757812 L -213.4375 2294.453125 L -218.085938 2302.148438 L -222.773438 2309.882812 L -227.460938 2317.695312 L -232.1875 2325.507812 L -236.953125 2333.359375 " transform="matrix(0.1,0,0,-0.1,0,150)"/>
<path style="fill:none;stroke-width:10;stroke-linecap:butt;stroke-linejoin:miter;stroke:rgb(100%,0%,100%);stroke-opacity:1;stroke-miterlimit:10;" d="M 225 925 L 222.1875 920.820312 L 219.335938 916.5625 L 216.445312 912.34375 L 213.476562 908.046875 L 210.429688 903.789062 L 207.34375 899.453125 L 204.21875 895.117188 L 197.734375 886.367188 L 194.414062 881.953125 L 191.015625 877.5 L 187.578125 873.007812 L 184.0625 868.515625 L 180.46875 863.984375 L 176.835938 859.453125 L 173.125 854.84375 L 169.335938 850.234375 L 165.507812 845.585938 L 157.617188 836.210938 L 153.554688 831.484375 L 149.453125 826.679688 L 145.234375 821.914062 L 140.976562 817.070312 L 136.640625 812.1875 L 132.226562 807.265625 L 127.734375 802.34375 L 123.203125 797.34375 L 118.554688 792.34375 L 113.828125 787.304688 L 109.0625 782.1875 L 104.179688 777.070312 L 99.21875 771.914062 L 94.179688 766.679688 L 89.101562 761.445312 L 83.90625 756.171875 L 78.632812 750.820312 L 73.242188 745.46875 L 67.8125 740.039062 L 62.265625 734.609375 L 56.640625 729.101562 L 50.9375 723.554688 L 45.117188 717.96875 L 39.21875 712.304688 L 33.242188 706.640625 L 27.148438 700.898438 L 20.976562 695.117188 L 14.6875 689.257812 L 8.320312 683.398438 L 1.875 677.460938 L -4.6875 671.484375 L -11.367188 665.429688 L -18.125 659.335938 L -25 653.203125 L -31.992188 646.992188 L -39.0625 640.742188 L -46.25 634.453125 L -53.515625 628.046875 L -60.9375 621.640625 L -68.4375 615.15625 L -76.09375 608.59375 L -83.828125 601.992188 L -91.679688 595.3125 L -99.648438 588.59375 L -107.734375 581.796875 L -115.9375 574.921875 L -124.257812 568.007812 L -132.734375 561.015625 L -141.289062 553.945312 L -150 546.796875 L -158.828125 539.609375 L -167.773438 532.34375 L -176.835938 525 L -186.054688 517.578125 L -195.429688 510.117188 L -204.882812 502.539062 L -214.53125 494.882812 L -224.257812 487.1875 L -234.179688 479.375 L -244.21875 471.523438 L -254.375 463.554688 L -264.726562 455.507812 L -275.195312 447.421875 L -285.820312 439.21875 L -296.601562 430.9375 L -307.5 422.539062 L -318.59375 414.101562 L -329.804688 405.546875 L -341.210938 396.914062 L -352.773438 388.164062 L -364.492188 379.335938 L -376.367188 370.429688 L -388.4375 361.40625 L -400.625 352.304688 L -413.007812 343.125 L -425.585938 333.789062 L -438.320312 324.414062 L -451.210938 314.882812 L -464.296875 305.273438 L -477.578125 295.585938 L -491.054688 285.742188 L -504.6875 275.820312 L -518.515625 265.78125 L -532.539062 255.625 L -546.757812 245.390625 L -561.171875 235 L -575.78125 224.53125 L -590.585938 213.90625 L -605.585938 203.164062 L -620.820312 192.34375 L -636.25 181.367188 L -651.875 170.273438 L -667.734375 159.0625 L -683.828125 147.734375 L -700.117188 136.25 L -716.601562 124.648438 L -733.359375 112.929688 L -750.3125 101.054688 L -767.5 89.0625 L -784.921875 76.914062 L -802.578125 64.609375 L -820.507812 52.1875 L -838.632812 39.648438 L -857.03125 26.953125 L -875.664062 14.0625 L -894.570312 1.09375 L -913.710938 -12.070312 L -933.125 -25.390625 L -952.8125 -38.867188 L -972.734375 -52.5 L -992.929688 -66.25 L -1013.398438 -80.195312 L -1034.140625 -94.296875 L -1055.195312 -108.59375 L -1076.484375 -123.007812 L -1098.085938 -137.65625 L -1119.960938 -152.421875 L -1142.148438 -167.382812 L -1164.609375 -182.539062 L -1187.382812 -197.851562 L -1210.46875 -213.320312 L -1233.867188 -229.023438 L -1257.578125 -244.882812 L -1281.601562 -260.9375 L -1305.9375 -277.1875 L -1330.585938 -293.632812 L -1355.585938 -310.3125 L -1380.9375 -327.148438 L -1406.601562 -344.179688 L -1432.578125 -361.445312 L -1458.945312 -378.90625 L -1485.664062 -396.5625 L -1512.695312 -414.453125 L -1540.117188 -432.578125 L -1567.890625 -450.898438 L -1596.054688 -469.414062 L -1624.570312 -488.203125 L -1653.476562 -507.1875 L -1682.773438 -526.40625 L -1712.421875 -545.898438 L -1742.5 -565.585938 L -1772.96875 -585.507812 L -1803.828125 -605.703125 L -1835.117188 -626.132812 L -1866.796875 -646.796875 L -1898.90625 -667.734375 L -1931.445312 -688.945312 L -1964.414062 -710.390625 L -1997.8125 -732.109375 L -2031.640625 -754.101562 L -2065.9375 -776.328125 L -2100.664062 -798.867188 L -2135.859375 -821.679688 L -2171.523438 -844.765625 L -2207.65625 -868.125 L -2244.257812 -891.796875 L -2281.367188 -915.742188 L -2318.945312 -940 L -2356.992188 -964.570312 L -2395.585938 -989.414062 L -2434.648438 -1014.570312 L -2474.257812 -1040.039062 L -2514.375 -1065.859375 L -2555 -1091.953125 L -2596.171875 -1118.398438 L -2637.890625 -1145.15625 L -2680.15625 -1172.265625 L -2722.96875 -1199.726562 L -2766.367188 -1227.5 L -2810.3125 -1255.625 L -2854.84375 -1284.101562 L -2899.960938 -1312.96875 L -2945.664062 -1342.148438 L -2991.953125 -1371.71875 L -3038.867188 -1401.640625 L -3086.40625 -1431.953125 L -3134.53125 -1462.65625 L -3183.320312 -1493.710938 L -3232.734375 -1525.195312 L -3282.8125 -1557.070312 L -3333.515625 -1589.335938 L -3384.882812 -1621.992188 L -3436.953125 -1655.078125 L -3489.6875 -1688.554688 L -3543.125 -1722.460938 L -3597.226562 -1756.835938 L -3652.070312 -1791.601562 L -3707.617188 -1826.835938 L -3763.90625 -1862.460938 L -3820.898438 -1898.59375 L -3878.671875 -1935.15625 L -3937.1875 -1972.1875 L -3996.445312 -2009.6875 L -4056.484375 -2047.65625 L -4117.34375 -2086.09375 L -4178.945312 -2125.039062 L -4241.40625 -2164.492188 L -4304.648438 -2204.414062 L -4368.710938 -2244.84375 L -4433.632812 -2285.78125 L -4499.375 -2327.265625 L -4565.976562 -2369.257812 L -4633.476562 -2411.796875 L -4701.835938 -2454.84375 L -4771.09375 -2498.476562 L -4841.25 -2542.65625 L -4912.304688 -2587.382812 L -4984.296875 -2632.65625 L -5057.265625 -2678.554688 L -5131.132812 -2725 L -5205.976562 -2772.03125 L -5281.796875 -2819.6875 L -5358.632812 -2867.96875 L -5436.445312 -2916.835938 L -5515.273438 -2966.328125 L -5595.117188 -3016.445312 L -5676.015625 -3067.1875 L -5757.96875 -3118.59375 L -5840.976562 -3170.664062 L -5925.039062 -3223.398438 L -6010.234375 -3276.796875 L -6096.523438 -3330.898438 L -6183.945312 -3385.664062 L -6272.5 -3441.132812 L -6362.226562 -3497.304688 L -6453.085938 -3554.21875 L -6545.15625 -3611.835938 L -6638.398438 -3670.195312 L -6732.890625 -3729.296875 L -6828.59375 -3789.140625 L -6925.507812 -3849.804688 L -7023.710938 -3911.171875 L -7123.203125 -3973.398438 L -7223.984375 -4036.367188 L -7326.054688 -4100.15625 L -7429.453125 -4164.765625 L -7534.21875 -4230.195312 L -7640.351562 -4296.484375 L -7747.8125 -4363.59375 L -7856.71875 -4431.5625 L -7967.03125 -4500.429688 L -8078.789062 -4570.15625 L -8191.953125 -4640.78125 L -8306.601562 -4712.34375 L -8422.773438 -4784.804688 L -8540.429688 -4858.164062 L -8659.648438 -4932.5 L -8780.351562 -5007.773438 L -8902.65625 -5084.023438 L -9026.5625 -5161.210938 L -9152.070312 -5239.453125 L -9279.179688 -5318.671875 L -9407.96875 -5398.90625 L -9538.4375 -5480.15625 L -9670.585938 -5562.460938 L -9804.453125 -5645.820312 L -9940.039062 -5730.273438 L -10077.382812 -5815.78125 L -10216.601562 -5902.421875 L -10357.5 -5990.15625 L -10500.3125 -6078.984375 L -10644.882812 -6168.984375 L -10791.40625 -6260.15625 L -10939.804688 -6352.5 L -11090.195312 -6446.015625 L -11242.5 -6540.742188 L -11396.71875 -6636.679688 L -11553.007812 -6733.867188 L -11711.289062 -6832.265625 L -11871.601562 -6931.953125 L -12034.101562 -7032.929688 L -12198.59375 -7135.195312 L -12365.3125 -7238.789062 L -12534.101562 -7343.710938 L -12705.117188 -7450 L -12878.398438 -7557.617188 L -13053.90625 -7666.640625 L -13231.601562 -7777.109375 L -13411.71875 -7888.945312 L -13594.101562 -8002.226562 " transform="matrix(0.1,0,0,-0.1,0,150)"/>
<path style=" stroke:none;fill-rule:nonzero;fill:rgb(0%,0%,0%);fill-opacity:1;" d="M 4.6875 144.375 L -6.480469 149.957031 L -6.886719 148.59375 L -7.523438 151.261719 L -5.007812 152.351562 L -5.855469 151.210938 L 5.3125 145.625 L 4.6875 144.375 "/>
<path style=" stroke:none;fill-rule:nonzero;fill:rgb(0%,0%,0%);fill-opacity:1;" d="M 4.652344 126.890625 L -6.1875 133.085938 L -6.667969 131.75 L -7.15625 134.445312 L -4.582031 135.394531 L -5.492188 134.300781 L 5.347656 128.109375 L 4.652344 126.890625 "/>
<path style=" stroke:none;fill-rule:nonzero;fill:rgb(0%,0%,0%);fill-opacity:1;" d="M 4.613281 109.417969 L -5.777344 116.34375 L -6.347656 115.039062 L -6.648438 117.765625 L -4.019531 118.535156 L -5 117.507812 L 5.386719 110.582031 L 4.613281 109.417969 "/>
<path style=" stroke:none;fill-rule:nonzero;fill:rgb(0%,0%,0%);fill-opacity:1;" d="M 4.5625 91.953125 L -5.1875 99.753906 L -5.867188 98.503906 L -5.933594 101.246094 L -3.242188 101.785156 L -4.3125 100.84375 L 5.4375 93.046875 L 4.5625 91.953125 "/>
<path style=" stroke:none;fill-rule:nonzero;fill:rgb(0%,0%,0%);fill-opacity:1;" d="M 4.503906 74.503906 L -4.324219 83.332031 L -5.136719 82.167969 L -4.898438 84.898438 L -2.167969 85.136719 L -3.332031 84.324219 L 5.496094 75.496094 L 4.503906 74.503906 "/>
<path style=" stroke:none;fill-rule:nonzero;fill:rgb(0%,0%,0%);fill-opacity:1;" d="M 4.441406 57.082031 L -3.050781 67.066406 L -4.023438 66.03125 L -3.398438 68.699219 L -0.664062 68.550781 L -1.929688 67.90625 L 5.558594 57.917969 L 4.441406 57.082031 "/>
<path style=" stroke:none;fill-rule:nonzero;fill:rgb(0%,0%,0%);fill-opacity:1;" d="M 4.375 39.6875 L -1.210938 50.851562 L -2.351562 50.007812 L -1.261719 52.523438 L 1.40625 51.886719 L 0.0429688 51.480469 L 5.625 40.3125 L 4.375 39.6875 "/>
<path style=" stroke:none;fill-rule:nonzero;fill:rgb(0%,0%,0%);fill-opacity:1;" d="M 4.320312 22.328125 L 1.292969 34.441406 L -0.00390625 33.863281 L 1.605469 36.082031 L 4.070312 34.882812 L 2.652344 34.78125 L 5.679688 22.671875 L 4.320312 22.328125 "/>
<path style=" stroke:none;fill-rule:nonzero;fill:rgb(0%,0%,0%);fill-opacity:1;" d="M 4.300781 5 L 4.300781 17.484375 L 2.898438 17.238281 L 5 19 L 7.101562 17.238281 L 5.699219 17.484375 L 5.699219 5 L 4.300781 5 "/>
<path style=" stroke:none;fill-rule:nonzero;fill:rgb(0%,0%,0%);fill-opacity:1;" d="M 22.222656 144.355469 L 10.75 149.273438 L 10.425781 147.890625 L 9.632812 150.515625 L 12.078125 151.75 L 11.300781 150.5625 L 22.777344 145.644531 L 22.222656 144.355469 "/>
<path style=" stroke:none;fill-rule:nonzero;fill:rgb(0%,0%,0%);fill-opacity:1;" d="M 22.1875 126.875 L 11.019531 132.457031 L 10.613281 131.09375 L 9.976562 133.761719 L 12.492188 134.851562 L 11.648438 133.710938 L 22.8125 128.125 L 22.1875 126.875 "/>
<path style=" stroke:none;fill-rule:nonzero;fill:rgb(0%,0%,0%);fill-opacity:1;" d="M 22.140625 109.398438 L 11.433594 115.824219 L 10.925781 114.496094 L 10.496094 117.203125 L 13.085938 118.097656 L 12.15625 117.023438 L 22.859375 110.601562 L 22.140625 109.398438 "/>
<path style=" stroke:none;fill-rule:nonzero;fill:rgb(0%,0%,0%);fill-opacity:1;" d="M 22.082031 91.941406 L 12.09375 99.429688 L 11.449219 98.164062 L 11.300781 100.898438 L 13.96875 101.523438 L 12.933594 100.550781 L 22.917969 93.058594 L 22.082031 91.941406 "/>
<path style=" stroke:none;fill-rule:nonzero;fill:rgb(0%,0%,0%);fill-opacity:1;" d="M 22.003906 74.503906 L 13.175781 83.332031 L 12.363281 82.167969 L 12.601562 84.898438 L 15.332031 85.136719 L 14.167969 84.324219 L 22.996094 75.496094 L 22.003906 74.503906 "/>
<path style=" stroke:none;fill-rule:nonzero;fill:rgb(0%,0%,0%);fill-opacity:1;" d="M 21.917969 57.113281 L 15.757812 66.351562 L 14.730469 65.367188 L 15.5 68 L 18.222656 67.699219 L 16.921875 67.128906 L 23.082031 57.886719 L 21.917969 57.113281 "/>
<path style=" stroke:none;fill-rule:nonzero;fill:rgb(0%,0%,0%);fill-opacity:1;" d="M 21.835938 39.777344 L 18.816406 48.839844 L 17.566406 48.164062 L 19 50.5 L 21.550781 49.492188 L 20.144531 49.285156 L 23.164062 40.222656 L 21.835938 39.777344 "/>
<path style=" stroke:none;fill-rule:nonzero;fill:rgb(0%,0%,0%);fill-opacity:1;" d="M 21.800781 22.5 L 21.800781 31.484375 L 20.398438 31.238281 L 22.5 33 L 24.601562 31.238281 L 23.199219 31.484375 L 23.199219 22.5 L 21.800781 22.5 "/>
<path style=" stroke:none;fill-rule:nonzero;fill:rgb(0%,0%,0%);fill-opacity:1;" d="M 21.835938 5.222656 L 24.855469 14.285156 L 23.449219 14.492188 L 26 15.5 L 27.433594 13.164062 L 26.183594 13.839844 L 23.164062 4.777344 L 21.835938 5.222656 "/>
<path style=" stroke:none;fill-rule:nonzero;fill:rgb(0%,0%,0%);fill-opacity:1;" d="M 39.777344 144.335938 L 27.933594 148.285156 L 27.726562 146.878906 L 26.71875 149.425781 L 29.054688 150.863281 L 28.378906 149.613281 L 40.222656 145.664062 L 39.777344 144.335938 "/>
<path style=" stroke:none;fill-rule:nonzero;fill:rgb(0%,0%,0%);fill-opacity:1;" d="M 39.738281 126.851562 L 28.148438 131.488281 L 27.855469 130.09375 L 27 132.699219 L 29.417969 133.996094 L 28.667969 132.785156 L 40.261719 128.148438 L 39.738281 126.851562 "/>
<path style=" stroke:none;fill-rule:nonzero;fill:rgb(0%,0%,0%);fill-opacity:1;" d="M 39.6875 109.375 L 28.519531 114.957031 L 28.113281 113.59375 L 27.476562 116.261719 L 29.992188 117.351562 L 29.148438 116.210938 L 40.3125 110.625 L 39.6875 109.375 "/>
<path style=" stroke:none;fill-rule:nonzero;fill:rgb(0%,0%,0%);fill-opacity:1;" d="M 39.613281 91.917969 L 30.371094 98.078125 L 29.800781 96.777344 L 29.5 99.5 L 32.132812 100.269531 L 31.148438 99.242188 L 40.386719 93.082031 L 39.613281 91.917969 "/>
<path style=" stroke:none;fill-rule:nonzero;fill:rgb(0%,0%,0%);fill-opacity:1;" d="M 39.503906 74.503906 L 33.578125 80.433594 L 32.761719 79.269531 L 33 82 L 35.730469 82.238281 L 34.566406 81.421875 L 40.496094 75.496094 L 39.503906 74.503906 "/>
<path style=" stroke:none;fill-rule:nonzero;fill:rgb(0%,0%,0%);fill-opacity:1;" d="M 39.375 57.1875 L 36.550781 62.832031 L 35.410156 61.984375 L 36.5 64.5 L 39.167969 63.863281 L 37.804688 63.457031 L 40.625 57.8125 L 39.375 57.1875 "/>
<path style=" stroke:none;fill-rule:nonzero;fill:rgb(0%,0%,0%);fill-opacity:1;" d="M 39.300781 40 L 39.300781 45.484375 L 37.898438 45.238281 L 40 47 L 42.101562 45.238281 L 40.699219 45.484375 L 40.699219 40 L 39.300781 40 "/>
<path style=" stroke:none;fill-rule:nonzero;fill:rgb(0%,0%,0%);fill-opacity:1;" d="M 39.375 22.8125 L 42.195312 28.457031 L 40.832031 28.863281 L 43.5 29.5 L 44.589844 26.984375 L 43.449219 27.832031 L 40.625 22.1875 L 39.375 22.8125 "/>
<path style=" stroke:none;fill-rule:nonzero;fill:rgb(0%,0%,0%);fill-opacity:1;" d="M 39.503906 5.496094 L 45.433594 11.421875 L 44.269531 12.238281 L 47 12 L 47.238281 9.269531 L 46.421875 10.433594 L 40.496094 4.503906 L 39.503906 5.496094 "/>
<path style=" stroke:none;fill-rule:nonzero;fill:rgb(0%,0%,0%);fill-opacity:1;" d="M 57.363281 144.3125 L 45.121094 146.761719 L 45.089844 145.339844 L 43.773438 147.746094 L 45.910156 149.460938 L 45.394531 148.136719 L 57.636719 145.6875 L 57.363281 144.3125 "/>
<path style=" stroke:none;fill-rule:nonzero;fill:rgb(0%,0%,0%);fill-opacity:1;" d="M 57.332031 126.820312 L 45.21875 129.847656 L 45.117188 128.429688 L 43.917969 130.894531 L 46.136719 132.503906 L 45.558594 131.207031 L 57.667969 128.179688 L 57.332031 126.820312 "/>
<path style=" stroke:none;fill-rule:nonzero;fill:rgb(0%,0%,0%);fill-opacity:1;" d="M 57.277344 109.335938 L 48.214844 112.355469 L 48.007812 110.949219 L 47 113.5 L 49.335938 114.933594 L 48.660156 113.683594 L 57.722656 110.664062 L 57.277344 109.335938 "/>
<path style=" stroke:none;fill-rule:nonzero;fill:rgb(0%,0%,0%);fill-opacity:1;" d="M 57.1875 91.875 L 51.542969 94.695312 L 51.136719 93.332031 L 50.5 96 L 53.015625 97.089844 L 52.167969 95.949219 L 57.8125 93.125 L 57.1875 91.875 "/>
<path style=" stroke:none;fill-rule:nonzero;fill:rgb(0%,0%,0%);fill-opacity:1;" d="M 57.003906 74.503906 L 54.578125 76.933594 L 53.761719 75.769531 L 54 78.5 L 56.730469 78.738281 L 55.566406 77.921875 L 57.996094 75.496094 L 57.003906 74.503906 "/>
<path style=" stroke:none;fill-rule:nonzero;fill:rgb(0%,0%,0%);fill-opacity:1;" d="M 56.800781 57.5 L 56.800781 59.484375 L 55.398438 59.238281 L 57.5 61 L 59.601562 59.238281 L 58.199219 59.484375 L 58.199219 57.5 L 56.800781 57.5 "/>
<path style=" stroke:none;fill-rule:nonzero;fill:rgb(0%,0%,0%);fill-opacity:1;" d="M 57.003906 40.496094 L 59.433594 42.921875 L 58.269531 43.738281 L 61 43.5 L 61.238281 40.769531 L 60.421875 41.933594 L 57.996094 39.503906 L 57.003906 40.496094 "/>
<path style=" stroke:none;fill-rule:nonzero;fill:rgb(0%,0%,0%);fill-opacity:1;" d="M 57.1875 23.125 L 62.832031 25.949219 L 61.984375 27.089844 L 64.5 26 L 63.863281 23.335938 L 63.457031 24.695312 L 57.8125 21.875 L 57.1875 23.125 "/>
<path style=" stroke:none;fill-rule:nonzero;fill:rgb(0%,0%,0%);fill-opacity:1;" d="M 57.277344 5.664062 L 66.339844 8.683594 L 65.664062 9.933594 L 68 8.5 L 66.992188 5.949219 L 66.785156 7.355469 L 57.722656 4.335938 L 57.277344 5.664062 "/>
<path style=" stroke:none;fill-rule:nonzero;fill:rgb(0%,0%,0%);fill-opacity:1;" d="M 75 144.300781 L 62.515625 144.300781 L 62.761719 142.898438 L 61 145 L 62.761719 147.101562 L 62.515625 145.699219 L 75 145.699219 L 75 144.300781 "/>
<path style=" stroke:none;fill-rule:nonzero;fill:rgb(0%,0%,0%);fill-opacity:1;" d="M 75 126.800781 L 66.015625 126.800781 L 66.261719 125.398438 L 64.5 127.5 L 66.261719 129.601562 L 66.015625 128.199219 L 75 128.199219 L 75 126.800781 "/>
<path style=" stroke:none;fill-rule:nonzero;fill:rgb(0%,0%,0%);fill-opacity:1;" d="M 75 109.300781 L 69.515625 109.300781 L 69.761719 107.898438 L 68 110 L 69.761719 112.101562 L 69.515625 110.699219 L 75 110.699219 L 75 109.300781 "/>
<path style=" stroke:none;fill-rule:nonzero;fill:rgb(0%,0%,0%);fill-opacity:1;" d="M 75 91.800781 L 73.015625 91.800781 L 73.261719 90.398438 L 71.5 92.5 L 73.261719 94.601562 L 73.015625 93.199219 L 75 93.199219 L 75 91.800781 "/>
<path style=" stroke:none;fill-rule:nonzero;fill:rgb(0%,0%,0%);fill-opacity:1;" d="M 75 58.199219 L 76.984375 58.199219 L 76.738281 59.601562 L 78.5 57.5 L 76.738281 55.398438 L 76.984375 56.800781 L 75 56.800781 L 75 58.199219 "/>
<path style=" stroke:none;fill-rule:nonzero;fill:rgb(0%,0%,0%);fill-opacity:1;" d="M 75 40.699219 L 80.484375 40.699219 L 80.238281 42.101562 L 82 40 L 80.238281 37.898438 L 80.484375 39.300781 L 75 39.300781 L 75 40.699219 "/>
<path style=" stroke:none;fill-rule:nonzero;fill:rgb(0%,0%,0%);fill-opacity:1;" d="M 75 23.199219 L 83.984375 23.199219 L 83.738281 24.601562 L 85.5 22.5 L 83.738281 20.398438 L 83.984375 21.800781 L 75 21.800781 L 75 23.199219 "/>
<path style=" stroke:none;fill-rule:nonzero;fill:rgb(0%,0%,0%);fill-opacity:1;" d="M 75 5.699219 L 87.484375 5.699219 L 87.238281 7.101562 L 89 5 L 87.238281 2.898438 L 87.484375 4.300781 L 75 4.300781 L 75 5.699219 "/>
<path style=" stroke:none;fill-rule:nonzero;fill:rgb(0%,0%,0%);fill-opacity:1;" d="M 92.722656 144.335938 L 83.660156 141.316406 L 84.335938 140.066406 L 82 141.5 L 83.007812 144.050781 L 83.214844 142.644531 L 92.277344 145.664062 L 92.722656 144.335938 "/>
<path style=" stroke:none;fill-rule:nonzero;fill:rgb(0%,0%,0%);fill-opacity:1;" d="M 92.8125 126.875 L 87.167969 124.050781 L 88.015625 122.910156 L 85.5 124 L 86.136719 126.667969 L 86.542969 125.304688 L 92.1875 128.125 L 92.8125 126.875 "/>
<path style=" stroke:none;fill-rule:nonzero;fill:rgb(0%,0%,0%);fill-opacity:1;" d="M 92.996094 109.503906 L 90.566406 107.078125 L 91.730469 106.261719 L 89 106.5 L 88.761719 109.230469 L 89.578125 108.066406 L 92.003906 110.496094 L 92.996094 109.503906 "/>
<path style=" stroke:none;fill-rule:nonzero;fill:rgb(0%,0%,0%);fill-opacity:1;" d="M 93.199219 92.5 L 93.199219 90.515625 L 94.601562 90.761719 L 92.5 89 L 90.398438 90.761719 L 91.800781 90.515625 L 91.800781 92.5 L 93.199219 92.5 "/>
<path style=" stroke:none;fill-rule:nonzero;fill:rgb(0%,0%,0%);fill-opacity:1;" d="M 92.996094 75.496094 L 95.421875 73.066406 L 96.238281 74.230469 L 96 71.5 L 93.269531 71.261719 L 94.433594 72.078125 L 92.003906 74.503906 L 92.996094 75.496094 "/>
<path style=" stroke:none;fill-rule:nonzero;fill:rgb(0%,0%,0%);fill-opacity:1;" d="M 92.8125 58.125 L 98.457031 55.304688 L 98.863281 56.667969 L 99.5 54 L 96.984375 52.910156 L 97.832031 54.050781 L 92.1875 56.875 L 92.8125 58.125 "/>
<path style=" stroke:none;fill-rule:nonzero;fill:rgb(0%,0%,0%);fill-opacity:1;" d="M 92.722656 40.664062 L 101.785156 37.644531 L 101.992188 39.050781 L 103 36.5 L 100.664062 35.066406 L 101.339844 36.316406 L 92.277344 39.335938 L 92.722656 40.664062 "/>
<path style=" stroke:none;fill-rule:nonzero;fill:rgb(0%,0%,0%);fill-opacity:1;" d="M 92.667969 23.179688 L 104.78125 20.152344 L 104.882812 21.570312 L 106.082031 19.105469 L 103.863281 17.496094 L 104.441406 18.792969 L 92.332031 21.820312 L 92.667969 23.179688 "/>
<path style=" stroke:none;fill-rule:nonzero;fill:rgb(0%,0%,0%);fill-opacity:1;" d="M 92.636719 5.6875 L 104.878906 3.238281 L 104.910156 4.660156 L 106.226562 2.253906 L 104.089844 0.539062 L 104.605469 1.863281 L 92.363281 4.3125 L 92.636719 5.6875 "/>
<path style=" stroke:none;fill-rule:nonzero;fill:rgb(0%,0%,0%);fill-opacity:1;" d="M 110.496094 144.503906 L 104.566406 138.578125 L 105.730469 137.761719 L 103 138 L 102.761719 140.730469 L 103.578125 139.566406 L 109.503906 145.496094 L 110.496094 144.503906 "/>
<path style=" stroke:none;fill-rule:nonzero;fill:rgb(0%,0%,0%);fill-opacity:1;" d="M 110.625 127.1875 L 107.804688 121.542969 L 109.164062 121.136719 L 106.5 120.5 L 105.410156 123.015625 L 106.550781 122.167969 L 109.375 127.8125 L 110.625 127.1875 "/>
<path style=" stroke:none;fill-rule:nonzero;fill:rgb(0%,0%,0%);fill-opacity:1;" d="M 110.699219 110 L 110.699219 104.515625 L 112.101562 104.761719 L 110 103 L 107.898438 104.761719 L 109.300781 104.515625 L 109.300781 110 L 110.699219 110 "/>
<path style=" stroke:none;fill-rule:nonzero;fill:rgb(0%,0%,0%);fill-opacity:1;" d="M 110.625 92.8125 L 113.449219 87.167969 L 114.589844 88.015625 L 113.5 85.5 L 110.835938 86.136719 L 112.195312 86.542969 L 109.375 92.1875 L 110.625 92.8125 "/>
<path style=" stroke:none;fill-rule:nonzero;fill:rgb(0%,0%,0%);fill-opacity:1;" d="M 110.496094 75.496094 L 116.421875 69.566406 L 117.238281 70.730469 L 117 68 L 114.269531 67.761719 L 115.433594 68.578125 L 109.503906 74.503906 L 110.496094 75.496094 "/>
<path style=" stroke:none;fill-rule:nonzero;fill:rgb(0%,0%,0%);fill-opacity:1;" d="M 110.386719 58.082031 L 119.628906 51.921875 L 120.199219 53.222656 L 120.5 50.5 L 117.867188 49.730469 L 118.851562 50.757812 L 109.613281 56.917969 L 110.386719 58.082031 "/>
<path style=" stroke:none;fill-rule:nonzero;fill:rgb(0%,0%,0%);fill-opacity:1;" d="M 110.3125 40.625 L 121.480469 35.042969 L 121.886719 36.40625 L 122.523438 33.738281 L 120.007812 32.648438 L 120.855469 33.789062 L 109.6875 39.375 L 110.3125 40.625 "/>
<path style=" stroke:none;fill-rule:nonzero;fill:rgb(0%,0%,0%);fill-opacity:1;" d="M 110.261719 23.148438 L 121.851562 18.511719 L 122.144531 19.90625 L 123 17.300781 L 120.582031 16.003906 L 121.332031 17.214844 L 109.738281 21.851562 L 110.261719 23.148438 "/>
<path style=" stroke:none;fill-rule:nonzero;fill:rgb(0%,0%,0%);fill-opacity:1;" d="M 110.222656 5.664062 L 122.066406 1.714844 L 122.273438 3.121094 L 123.28125 0.574219 L 120.945312 -0.863281 L 121.621094 0.386719 L 109.777344 4.335938 L 110.222656 5.664062 "/>
<path style=" stroke:none;fill-rule:nonzero;fill:rgb(0%,0%,0%);fill-opacity:1;" d="M 128.164062 144.777344 L 125.144531 135.714844 L 126.550781 135.507812 L 124 134.5 L 122.566406 136.835938 L 123.816406 136.160156 L 126.835938 145.222656 L 128.164062 144.777344 "/>
<path style=" stroke:none;fill-rule:nonzero;fill:rgb(0%,0%,0%);fill-opacity:1;" d="M 128.199219 127.5 L 128.199219 118.515625 L 129.601562 118.761719 L 127.5 117 L 125.398438 118.761719 L 126.800781 118.515625 L 126.800781 127.5 L 128.199219 127.5 "/>
<path style=" stroke:none;fill-rule:nonzero;fill:rgb(0%,0%,0%);fill-opacity:1;" d="M 128.164062 110.222656 L 131.183594 101.160156 L 132.433594 101.835938 L 131 99.5 L 128.449219 100.507812 L 129.855469 100.714844 L 126.835938 109.777344 L 128.164062 110.222656 "/>
<path style=" stroke:none;fill-rule:nonzero;fill:rgb(0%,0%,0%);fill-opacity:1;" d="M 128.082031 92.886719 L 134.242188 83.648438 L 135.269531 84.632812 L 134.5 82 L 131.773438 82.300781 L 133.078125 82.871094 L 126.917969 92.113281 L 128.082031 92.886719 "/>
<path style=" stroke:none;fill-rule:nonzero;fill:rgb(0%,0%,0%);fill-opacity:1;" d="M 127.996094 75.496094 L 136.824219 66.667969 L 137.636719 67.832031 L 137.398438 65.101562 L 134.667969 64.863281 L 135.832031 65.675781 L 127.003906 74.503906 L 127.996094 75.496094 "/>
<path style=" stroke:none;fill-rule:nonzero;fill:rgb(0%,0%,0%);fill-opacity:1;" d="M 127.921875 58.058594 L 137.90625 50.570312 L 138.550781 51.835938 L 138.699219 49.101562 L 136.03125 48.476562 L 137.066406 49.449219 L 127.078125 56.941406 L 127.921875 58.058594 "/>
<path style=" stroke:none;fill-rule:nonzero;fill:rgb(0%,0%,0%);fill-opacity:1;" d="M 127.859375 40.601562 L 138.566406 34.175781 L 139.074219 35.503906 L 139.503906 32.796875 L 136.914062 31.902344 L 137.84375 32.976562 L 127.140625 39.398438 L 127.859375 40.601562 "/>
<path style=" stroke:none;fill-rule:nonzero;fill:rgb(0%,0%,0%);fill-opacity:1;" d="M 127.8125 23.125 L 138.980469 17.542969 L 139.386719 18.90625 L 140.023438 16.238281 L 137.507812 15.148438 L 138.355469 16.289062 L 127.1875 21.875 L 127.8125 23.125 "/>
<path style=" stroke:none;fill-rule:nonzero;fill:rgb(0%,0%,0%);fill-opacity:1;" d="M 127.777344 5.644531 L 139.25 0.726562 L 139.574219 2.109375 L 140.367188 -0.515625 L 137.921875 -1.75 L 138.699219 -0.5625 L 127.222656 4.355469 L 127.777344 5.644531 "/>
<path style=" stroke:none;fill-rule:nonzero;fill:rgb(0%,0%,0%);fill-opacity:1;" d="M 145.699219 145 L 145.699219 132.515625 L 147.101562 132.761719 L 145 131 L 142.898438 132.761719 L 144.300781 132.515625 L 144.300781 145 L 145.699219 145 "/>
<path style=" stroke:none;fill-rule:nonzero;fill:rgb(0%,0%,0%);fill-opacity:1;" d="M 145.679688 127.667969 L 148.707031 115.558594 L 150.003906 116.136719 L 148.394531 113.917969 L 145.929688 115.117188 L 147.347656 115.21875 L 144.320312 127.332031 L 145.679688 127.667969 "/>
<path style=" stroke:none;fill-rule:nonzero;fill:rgb(0%,0%,0%);fill-opacity:1;" d="M 145.625 110.3125 L 151.210938 99.148438 L 152.351562 99.992188 L 151.261719 97.476562 L 148.59375 98.113281 L 149.957031 98.519531 L 144.375 109.6875 L 145.625 110.3125 "/>
<path style=" stroke:none;fill-rule:nonzero;fill:rgb(0%,0%,0%);fill-opacity:1;" d="M 145.558594 92.917969 L 153.050781 82.933594 L 154.023438 83.96875 L 153.398438 81.300781 L 150.664062 81.449219 L 151.929688 82.09375 L 144.441406 92.082031 L 145.558594 92.917969 "/>
<path style=" stroke:none;fill-rule:nonzero;fill:rgb(0%,0%,0%);fill-opacity:1;" d="M 145.496094 75.496094 L 154.324219 66.667969 L 155.136719 67.832031 L 154.898438 65.101562 L 152.167969 64.863281 L 153.332031 65.675781 L 144.503906 74.503906 L 145.496094 75.496094 "/>
<path style=" stroke:none;fill-rule:nonzero;fill:rgb(0%,0%,0%);fill-opacity:1;" d="M 145.4375 58.046875 L 155.1875 50.246094 L 155.867188 51.496094 L 155.933594 48.753906 L 153.242188 48.214844 L 154.3125 49.152344 L 144.5625 56.953125 L 145.4375 58.046875 "/>
<path style=" stroke:none;fill-rule:nonzero;fill:rgb(0%,0%,0%);fill-opacity:1;" d="M 145.386719 40.582031 L 155.777344 33.65625 L 156.347656 34.960938 L 156.648438 32.234375 L 154.019531 31.464844 L 155 32.492188 L 144.613281 39.417969 L 145.386719 40.582031 "/>
<path style=" stroke:none;fill-rule:nonzero;fill:rgb(0%,0%,0%);fill-opacity:1;" d="M 145.347656 23.109375 L 156.1875 16.914062 L 156.667969 18.253906 L 157.15625 15.554688 L 154.585938 14.605469 L 155.492188 15.699219 L 144.652344 21.890625 L 145.347656 23.109375 "/>
<path style=" stroke:none;fill-rule:nonzero;fill:rgb(0%,0%,0%);fill-opacity:1;" d="M 145.3125 5.625 L 156.480469 0.0429688 L 156.886719 1.40625 L 157.523438 -1.261719 L 155.007812 -2.351562 L 155.855469 -1.210938 L 144.6875 4.375 L 145.3125 5.625 "/>
<path style=" stroke:none;fill-rule:nonzero;fill:rgb(100%,0%,0%);fill-opacity:1;" d="M 25 57.5 C 25 56.117188 23.882812 55 22.5 55 C 21.117188 55 20 56.117188 20 57.5 C 20 58.882812 21.117188 60 22.5 60 C 23.882812 60 25 58.882812 25 57.5 "/>
<path style="fill:none;stroke-width:10;stroke-linecap:butt;stroke-linejoin:miter;stroke:rgb(0%,0%,0%);stroke-opacity:1;stroke-miterlimit:10;" d="M 250 925 C 250 938.828125 238.828125 950 225 950 C 211.171875 950 200 938.828125 200 925 C 200 911.171875 211.171875 900 225 900 C 238.828125 900 250 911.171875 250 925 Z M 250 925 " transform="matrix(0.1,0,0,-0.1,0,150)"/>
<path style=" stroke:none;fill-rule:nonzero;fill:rgb(100%,0%,0%);fill-opacity:1;" d="M 77.5 127.5 C 77.5 126.117188 76.382812 125 75 125 C 73.617188 125 72.5 126.117188 72.5 127.5 C 72.5 128.882812 73.617188 130 75 130 C 76.382812 130 77.5 128.882812 77.5 127.5 "/>
<path style="fill:none;stroke-width:10;stroke-linecap:butt;stroke-linejoin:miter;stroke:rgb(0%,0%,0%);stroke-opacity:1;stroke-miterlimit:10;" d="M 775 225 C 775 238.828125 763.828125 250 750 250 C 736.171875 250 725 238.828125 725 225 C 725 211.171875 736.171875 200 750 200 C 763.828125 200 775 211.171875 775 225 Z M 775 225 " transform="matrix(0.1,0,0,-0.1,0,150)"/>
<path style=" stroke:none;fill-rule:nonzero;fill:rgb(100%,0%,0%);fill-opacity:1;" d="M 130 75 C 130 73.617188 128.882812 72.5 127.5 72.5 C 126.117188 72.5 125 73.617188 125 75 C 125 76.382812 126.117188 77.5 127.5 77.5 C 128.882812 77.5 130 76.382812 130 75 "/>
<path style="fill:none;stroke-width:10;stroke-linecap:butt;stroke-linejoin:miter;stroke:rgb(0%,0%,0%);stroke-opacity:1;stroke-miterlimit:10;" d="M 1300 750 C 1300 763.828125 1288.828125 775 1275 775 C 1261.171875 775 1250 763.828125 1250 750 C 1250 736.171875 1261.171875 725 1275 725 C 1288.828125 725 1300 736.171875 1300 750 Z M 1300 750 " transform="matrix(0.1,0,0,-0.1,0,150)"/>
<path style="fill:none;stroke-width:10;stroke-linecap:butt;stroke-linejoin:miter;stroke:rgb(0%,0%,0%);stroke-opacity:1;stroke-miterlimit:10;" d="M 0 0 L 1500 0 L 1500 1500 L 0 1500 Z M 0 0 " transform="matrix(0.1,0,0,-0.1,0,150)"/>
</g>
</svg>
