<?xml version="1.0" encoding="UTF-8"?>
<svg xmlns="http://www.w3.org/2000/svg" xmlns:xlink="http://www.w3.org/1999/xlink" width="120pt" height="120pt" viewBox="0 0 120 120" version="1.1">
<g id="surface1">
<path style=" stroke:none;fill-rule:nonzero;fill:rgb(0%,0%,0%);fill-opacity:1;" d="M 10.792969 108.605469 L 52.402344 54.1875 L 53.289062 56.316406 L 55 49.144531 L 48.523438 52.671875 L 50.816406 52.972656 L 9.207031 107.394531 L 10.792969 108.605469 "/>
<path style=" stroke:none;fill-rule:nonzero;fill:rgb(0%,0%,0%);fill-opacity:1;" d="M 40.792969 108.605469 L 82.402344 54.1875 L 83.289062 56.316406 L 85 49.144531 L 78.523438 52.671875 L 80.816406 52.972656 L 39.207031 107.394531 L 40.792969 108.605469 "/>
<path style=" stroke:none;fill-rule:nonzero;fill:rgb(0%,0%,0%);fill-opacity:1;" d="M 10.792969 79.179688 L 52.402344 24.757812 L 53.289062 26.890625 L 55 19.714844 L 48.523438 23.246094 L 50.816406 23.542969 L 9.207031 77.964844 L 10.792969 79.179688 "/>
<path style=" stroke:none;fill-rule:nonzero;fill:rgb(0%,0%,0%);fill-opacity:1;" d="M 48.292969 71.820312 L 89.902344 17.398438 L 90.789062 19.53125 L 92.5 12.355469 L 86.023438 15.886719 L 88.316406 16.183594 L 46.707031 70.605469 L 48.292969 71.820312 "/>
<path style=" stroke:none;fill-rule:nonzero;fill:rgb(0%,0%,0%);fill-opacity:1;" d="M 70.792969 93.894531 L 112.402344 39.472656 L 113.289062 41.601562 L 115 34.429688 L 108.523438 37.960938 L 110.8125 38.257812 L 69.207031 92.679688 L 70.792969 93.894531 "/>
</g>
</svg>
