<?xml version="1.0" encoding="UTF-8"?>
<svg xmlns="http://www.w3.org/2000/svg" xmlns:xlink="http://www.w3.org/1999/xlink" width="150pt" height="150pt" viewBox="0 0 150 150" version="1.1">
<g id="surface1">
<path style="fill:none;stroke-width:10;stroke-linecap:butt;stroke-linejoin:miter;stroke:rgb(100%,0%,100%);stroke-opacity:1;stroke-miterlimit:10;" d="M 750 225 L 754.179688 225 L 758.359375 224.960938 L 762.5 224.882812 L 766.601562 224.804688 L 770.664062 224.6875 L 778.710938 224.296875 L 782.695312 224.0625 L 786.640625 223.828125 L 794.453125 223.203125 L 798.28125 222.851562 L 802.148438 222.460938 L 805.9375 222.03125 L 809.6875 221.601562 L 817.1875 220.585938 L 820.898438 220.078125 L 824.570312 219.492188 L 828.203125 218.90625 L 831.835938 218.28125 L 835.429688 217.617188 L 838.984375 216.953125 L 846.09375 215.46875 L 849.570312 214.726562 L 853.085938 213.90625 L 856.523438 213.085938 L 863.398438 211.367188 L 866.796875 210.46875 L 870.195312 209.53125 L 873.554688 208.554688 L 876.875 207.578125 L 880.234375 206.5625 L 886.796875 204.453125 L 890.078125 203.359375 L 896.5625 201.09375 L 899.765625 199.921875 L 906.171875 197.5 L 909.335938 196.25 L 912.5 194.960938 L 915.625 193.671875 L 918.75 192.34375 L 921.875 190.976562 L 924.960938 189.609375 L 931.132812 186.796875 L 934.179688 185.351562 L 940.273438 182.382812 L 943.28125 180.859375 L 949.296875 177.734375 L 955.234375 174.53125 L 958.203125 172.890625 L 961.132812 171.210938 L 964.101562 169.53125 L 967.03125 167.8125 L 969.960938 166.054688 L 975.742188 162.539062 L 978.632812 160.742188 L 981.523438 158.90625 L 984.414062 157.03125 L 987.265625 155.15625 L 990.15625 153.28125 L 993.007812 151.367188 L 995.859375 149.414062 L 998.671875 147.421875 L 1001.523438 145.46875 L 1007.148438 141.40625 L 1012.773438 137.265625 L 1015.585938 135.15625 L 1018.359375 133.046875 L 1021.132812 130.898438 L 1023.945312 128.710938 L 1029.492188 124.335938 L 1035.039062 119.804688 L 1037.773438 117.539062 L 1040.546875 115.234375 L 1043.28125 112.929688 L 1046.054688 110.585938 L 1051.523438 105.820312 L 1054.296875 103.398438 L 1057.03125 100.976562 L 1059.765625 98.515625 L 1062.460938 96.054688 L 1065.234375 93.554688 L 1067.96875 91.015625 L 1070.664062 88.476562 L 1076.132812 83.320312 L 1078.867188 80.703125 L 1081.5625 78.085938 L 1084.296875 75.429688 L 1087.03125 72.734375 L 1089.726562 70.039062 L 1092.460938 67.34375 L 1095.195312 64.609375 L 1097.890625 61.835938 L 1100.625 59.0625 L 1103.359375 56.25 L 1106.054688 53.4375 L 1108.789062 50.585938 L 1114.257812 44.804688 L 1119.726562 38.945312 L 1122.421875 36.015625 L 1130.625 26.992188 L 1133.398438 23.945312 L 1136.132812 20.898438 L 1138.867188 17.8125 L 1141.601562 14.6875 L 1144.375 11.5625 L 1147.109375 8.398438 L 1149.882812 5.234375 L 1152.617188 2.03125 L 1160.9375 -7.695312 L 1163.710938 -11.015625 L 1166.484375 -14.296875 L 1169.257812 -17.65625 L 1172.03125 -20.976562 L 1177.65625 -27.773438 L 1180.429688 -31.171875 L 1183.242188 -34.648438 L 1186.054688 -38.085938 L 1188.867188 -41.601562 L 1191.71875 -45.117188 L 1194.53125 -48.632812 L 1197.34375 -52.1875 L 1203.046875 -59.375 L 1208.75 -66.640625 L 1211.601562 -70.3125 L 1214.492188 -73.984375 L 1217.34375 -77.734375 L 1220.234375 -81.445312 L 1223.125 -85.234375 L 1226.015625 -88.984375 L 1228.945312 -92.8125 L 1231.835938 -96.640625 L 1237.695312 -104.375 L 1243.554688 -112.1875 L 1246.523438 -116.132812 L 1249.453125 -120.117188 L 1252.421875 -124.101562 L 1255.390625 -128.125 L 1258.398438 -132.1875 L 1261.367188 -136.25 L 1267.382812 -144.453125 L 1270.390625 -148.59375 L 1273.4375 -152.773438 L 1276.445312 -156.953125 L 1279.492188 -161.171875 L 1282.578125 -165.390625 L 1285.625 -169.648438 L 1288.671875 -173.945312 L 1291.757812 -178.242188 L 1294.882812 -182.578125 L 1297.96875 -186.953125 L 1301.09375 -191.328125 L 1307.34375 -200.15625 L 1310.46875 -204.609375 L 1313.632812 -209.101562 L 1319.960938 -218.164062 L 1323.164062 -222.695312 L 1329.570312 -231.914062 L 1332.773438 -236.5625 L 1336.015625 -241.210938 L 1339.257812 -245.898438 L 1342.5 -250.625 L 1345.78125 -255.351562 L 1349.023438 -260.117188 L 1352.34375 -264.921875 L 1355.625 -269.726562 L 1358.945312 -274.570312 L 1362.265625 -279.453125 L 1365.625 -284.335938 L 1368.945312 -289.257812 L 1372.304688 -294.21875 L 1375.703125 -299.179688 L 1379.0625 -304.21875 L 1382.460938 -309.21875 L 1389.335938 -319.375 L 1392.773438 -324.492188 L 1396.210938 -329.648438 L 1399.6875 -334.804688 L 1403.164062 -340 L 1406.640625 -345.234375 L 1410.15625 -350.46875 L 1413.671875 -355.78125 L 1417.226562 -361.054688 L 1424.335938 -371.757812 L 1435.117188 -388.046875 L 1438.75 -393.515625 L 1442.382812 -399.023438 L 1446.054688 -404.570312 L 1453.398438 -415.742188 L 1457.109375 -421.367188 L 1460.820312 -427.03125 L 1464.53125 -432.734375 L 1468.28125 -438.4375 L 1472.03125 -444.179688 L 1475.820312 -449.960938 L 1479.609375 -455.78125 L 1483.4375 -461.601562 L 1487.265625 -467.460938 L 1491.09375 -473.359375 L 1498.828125 -485.234375 L 1502.695312 -491.25 L 1506.601562 -497.265625 L 1510.546875 -503.320312 L 1518.4375 -515.507812 L 1526.40625 -527.851562 L 1530.429688 -534.0625 L 1534.453125 -540.3125 L 1538.515625 -546.5625 L 1546.640625 -559.21875 L 1550.742188 -565.585938 L 1554.882812 -571.992188 L 1559.023438 -578.4375 L 1563.164062 -584.921875 L 1567.34375 -591.40625 L 1571.523438 -597.96875 L 1575.742188 -604.53125 L 1579.960938 -611.132812 L 1584.21875 -617.773438 L 1588.476562 -624.453125 L 1592.773438 -631.171875 L 1597.109375 -637.890625 L 1601.40625 -644.6875 L 1605.742188 -651.484375 L 1610.117188 -658.320312 L 1614.492188 -665.234375 L 1618.90625 -672.148438 L 1623.359375 -679.0625 L 1627.773438 -686.054688 L 1632.265625 -693.085938 L 1641.25 -707.226562 L 1650.3125 -721.523438 L 1654.882812 -728.75 L 1659.492188 -735.976562 L 1664.101562 -743.242188 L 1668.710938 -750.585938 L 1673.398438 -757.929688 L 1678.046875 -765.3125 L 1682.773438 -772.734375 L 1687.460938 -780.195312 L 1692.226562 -787.695312 L 1696.992188 -795.234375 L 1701.757812 -802.8125 L 1706.5625 -810.429688 L 1711.40625 -818.085938 L 1716.25 -825.78125 L 1721.132812 -833.476562 L 1726.054688 -841.25 L 1730.976562 -849.0625 L 1735.898438 -856.914062 L 1740.859375 -864.804688 L 1745.859375 -872.734375 L 1750.898438 -880.703125 L 1755.9375 -888.710938 L 1760.976562 -896.757812 L 1766.054688 -904.84375 L 1771.171875 -912.96875 L 1776.328125 -921.132812 " transform="matrix(0.1,0,0,-0.1,0,150)"/>
<path style="fill:none;stroke-width:10;stroke-linecap:butt;stroke-linejoin:miter;stroke:rgb(100%,0%,100%);stroke-opacity:1;stroke-miterlimit:10;" d="M 750 225 L 745.820312 225 L 741.5625 224.960938 L 737.304688 224.882812 L 733.007812 224.804688 L 728.671875 224.648438 L 724.296875 224.492188 L 719.882812 224.296875 L 715.429688 224.0625 L 710.9375 223.75 L 706.40625 223.4375 L 701.875 223.085938 L 697.265625 222.734375 L 692.617188 222.304688 L 687.929688 221.835938 L 683.203125 221.328125 L 678.4375 220.820312 L 673.632812 220.234375 L 668.789062 219.609375 L 663.90625 218.984375 L 658.984375 218.28125 L 653.984375 217.578125 L 648.945312 216.796875 L 643.90625 215.976562 L 633.59375 214.257812 L 628.398438 213.320312 L 623.125 212.34375 L 617.8125 211.328125 L 612.421875 210.273438 L 607.03125 209.179688 L 601.5625 208.007812 L 596.015625 206.835938 L 590.429688 205.585938 L 584.804688 204.335938 L 579.101562 203.007812 L 573.398438 201.640625 L 567.578125 200.234375 L 561.71875 198.75 L 555.820312 197.265625 L 549.84375 195.703125 L 543.789062 194.101562 L 537.695312 192.460938 L 531.523438 190.742188 L 525.3125 189.023438 L 519.023438 187.226562 L 512.695312 185.351562 L 506.25 183.476562 L 499.765625 181.523438 L 493.242188 179.53125 L 486.601562 177.460938 L 479.921875 175.351562 L 473.164062 173.203125 L 466.328125 170.976562 L 459.453125 168.710938 L 452.460938 166.367188 L 445.429688 164.023438 L 438.28125 161.5625 L 431.09375 159.0625 L 423.828125 156.523438 L 416.445312 153.90625 L 409.023438 151.25 L 401.484375 148.515625 L 393.90625 145.742188 L 386.210938 142.890625 L 378.4375 139.960938 L 370.585938 136.992188 L 362.65625 133.945312 L 354.648438 130.859375 L 346.523438 127.695312 L 338.320312 124.492188 L 330 121.171875 L 321.601562 117.8125 L 313.125 114.375 L 304.570312 110.898438 L 295.898438 107.34375 L 287.109375 103.710938 L 278.242188 100 L 269.257812 96.210938 L 260.195312 92.382812 L 251.015625 88.4375 L 241.71875 84.453125 L 232.34375 80.390625 L 222.8125 76.25 L 213.242188 72.03125 L 203.515625 67.734375 L 193.671875 63.359375 L 183.710938 58.945312 L 173.671875 54.375 L 163.476562 49.804688 L 153.203125 45.078125 L 142.773438 40.3125 L 132.265625 35.46875 L 121.601562 30.507812 L 110.820312 25.507812 L 99.882812 20.390625 L 88.867188 15.195312 L 77.695312 9.882812 L 66.40625 4.492188 L 54.960938 -0.976562 L 43.398438 -6.523438 L 31.679688 -12.1875 L 19.84375 -17.929688 L 7.851562 -23.75 L -4.257812 -29.6875 L -16.523438 -35.742188 L -28.945312 -41.875 L -41.523438 -48.085938 L -54.257812 -54.414062 L -67.109375 -60.859375 L -80.117188 -67.382812 L -93.320312 -74.023438 L -106.640625 -80.78125 L -120.15625 -87.65625 L -133.828125 -94.609375 L -147.65625 -101.679688 L -161.640625 -108.867188 L -175.78125 -116.132812 L -190.117188 -123.554688 L -204.648438 -131.054688 L -219.335938 -138.710938 L -234.179688 -146.484375 L -249.21875 -154.335938 L -264.453125 -162.34375 L -279.882812 -170.429688 L -295.46875 -178.671875 L -311.289062 -187.070312 L -327.265625 -195.546875 L -343.4375 -204.140625 L -359.84375 -212.890625 L -376.40625 -221.796875 L -393.203125 -230.78125 L -410.195312 -239.921875 L -427.382812 -249.21875 L -444.804688 -258.632812 L -462.421875 -268.203125 L -480.273438 -277.890625 L -498.320312 -287.734375 L -516.640625 -297.734375 L -535.15625 -307.851562 L -553.90625 -318.164062 L -572.851562 -328.554688 L -592.070312 -339.140625 L -611.523438 -349.882812 L -631.210938 -360.78125 L -651.132812 -371.835938 L -671.328125 -383.046875 L -691.757812 -394.414062 L -712.460938 -405.9375 L -733.398438 -417.65625 L -754.609375 -429.53125 L -776.09375 -441.5625 L -797.8125 -453.75 L -819.84375 -466.132812 L -842.148438 -478.710938 L -864.6875 -491.445312 L -887.539062 -504.375 L -910.664062 -517.460938 L -934.101562 -530.742188 L -957.8125 -544.21875 L -981.835938 -557.890625 L -1006.171875 -571.71875 L -1030.78125 -585.78125 L -1055.703125 -600.039062 L -1080.976562 -614.492188 L -1106.523438 -629.140625 L -1132.421875 -643.984375 L -1158.632812 -659.023438 L -1185.15625 -674.296875 L -1212.03125 -689.765625 L -1239.257812 -705.46875 L -1266.796875 -721.40625 L -1294.726562 -737.539062 L -1322.96875 -753.90625 L -1351.601562 -770.46875 L -1380.546875 -787.265625 L -1409.921875 -804.335938 L -1439.609375 -821.601562 L -1469.726562 -839.140625 L -1500.195312 -856.875 L -1531.054688 -874.882812 L -1562.304688 -893.125 L -1593.945312 -911.640625 L -1625.976562 -930.390625 L -1658.4375 -949.375 L -1691.289062 -968.671875 L -1724.570312 -988.203125 L -1758.28125 -1007.96875 L -1792.382812 -1028.046875 L -1826.953125 -1048.398438 L -1861.953125 -1068.984375 L -1897.421875 -1089.882812 L -1933.320312 -1111.09375 L -1969.648438 -1132.539062 L -2006.484375 -1154.296875 L -2043.789062 -1176.367188 L -2081.523438 -1198.710938 L -2119.765625 -1221.367188 L -2158.515625 -1244.335938 L -2197.734375 -1267.578125 L -2237.460938 -1291.171875 L -2277.695312 -1315.078125 L -2318.4375 -1339.296875 L -2359.6875 -1363.828125 L -2401.484375 -1388.710938 L -2443.789062 -1413.945312 L -2486.640625 -1439.453125 L -2530.078125 -1465.351562 L -2574.023438 -1491.601562 L -2618.554688 -1518.203125 L -2663.632812 -1545.15625 L -2709.296875 -1572.460938 L -2755.585938 -1600.117188 L -2802.421875 -1628.164062 L -2849.84375 -1656.601562 L -2897.890625 -1685.390625 L -2946.5625 -1714.570312 L -2995.859375 -1744.140625 L -3045.78125 -1774.101562 L -3096.328125 -1804.492188 L -3147.539062 -1835.234375 L -3199.414062 -1866.445312 L -3251.953125 -1898.046875 L -3305.15625 -1930.039062 L -3359.023438 -1962.460938 L -3413.59375 -1995.351562 L -3468.867188 -2028.671875 L -3524.84375 -2062.421875 L -3581.523438 -2096.601562 L -3638.984375 -2131.289062 L -3697.148438 -2166.367188 L -3756.054688 -2201.953125 L -3815.703125 -2238.007812 L -3876.132812 -2274.53125 L -3937.34375 -2311.523438 L -3999.335938 -2349.023438 L -4062.109375 -2387.03125 L -4125.703125 -2425.546875 L -4190.117188 -2464.53125 L -4255.351562 -2504.0625 L -4321.445312 -2544.101562 L -4388.359375 -2584.6875 L -4456.132812 -2625.78125 L -4524.804688 -2667.421875 L -4594.335938 -2709.648438 L -4664.765625 -2752.382812 L -4736.09375 -2795.703125 L -4808.359375 -2839.609375 L -4881.523438 -2884.0625 L -4955.664062 -2929.101562 L -5030.742188 -2974.765625 L -5106.796875 -3021.015625 L -5183.789062 -3067.851562 L -5261.835938 -3115.3125 L -5340.859375 -3163.4375 L -5420.859375 -3212.148438 L -5501.914062 -3261.523438 L -5584.023438 -3311.523438 L -5667.226562 -3362.1875 L -5751.445312 -3413.554688 L -5836.757812 -3465.546875 L -5923.164062 -3518.242188 L -6010.703125 -3571.640625 L -6099.375 -3625.703125 L -6189.179688 -3680.507812 L -6280.117188 -3736.015625 L -6372.265625 -3792.265625 L -6465.585938 -3849.257812 L -6560.078125 -3906.953125 L -6655.820312 -3965.46875 L -6752.8125 -4024.6875 L -6851.015625 -4084.726562 L -6950.507812 -4145.507812 L -7051.289062 -4207.148438 L -7153.359375 -4269.53125 L -7256.71875 -4332.773438 L -7361.445312 -4396.835938 L -7467.5 -4461.71875 L -7574.921875 -4527.460938 L -7683.75 -4594.0625 L -7793.984375 -4661.523438 L -7905.625 -4729.882812 L -8018.710938 -4799.101562 L -8133.242188 -4869.257812 L -8249.257812 -4940.3125 L -8366.796875 -5012.304688 L -8485.820312 -5085.273438 L -8606.40625 -5159.140625 L -8728.515625 -5233.984375 L -8852.226562 -5309.804688 L -8977.5 -5386.640625 L -9104.414062 -5464.453125 L -9232.96875 -5543.28125 L -9363.164062 -5623.164062 L -9495.078125 -5704.0625 L -9628.671875 -5786.015625 L -9763.984375 -5869.0625 L -9901.054688 -5953.164062 L -10039.882812 -6038.398438 L -10180.507812 -6124.6875 L -10322.890625 -6212.148438 " transform="matrix(0.1,0,0,-0.1,0,150)"/>
<path style=" stroke:none;fill-rule:nonzero;fill:rgb(0%,0%,0%);fill-opacity:1;" d="M 4.6875 144.375 L -6.480469 149.957031 L -6.886719 148.59375 L -7.523438 151.261719 L -5.007812 152.351562 L -5.855469 151.210938 L 5.3125 145.625 L 4.6875 144.375 "/>
<path style=" stroke:none;fill-rule:nonzero;fill:rgb(0%,0%,0%);fill-opacity:1;" d="M 4.652344 126.890625 L -6.1875 133.085938 L -6.667969 131.75 L -7.15625 134.445312 L -4.582031 135.394531 L -5.492188 134.300781 L 5.347656 128.109375 L 4.652344 126.890625 "/>
<path style=" stroke:none;fill-rule:nonzero;fill:rgb(0%,0%,0%);fill-opacity:1;" d="M 4.613281 109.417969 L -5.777344 116.34375 L -6.347656 115.039062 L -6.648438 117.765625 L -4.019531 118.535156 L -5 117.507812 L 5.386719 110.582031 L 4.613281 109.417969 "/>
<path style=" stroke:none;fill-rule:nonzero;fill:rgb(0%,0%,0%);fill-opacity:1;" d="M 4.5625 91.953125 L -5.1875 99.753906 L -5.867188 98.503906 L -5.933594 101.246094 L -3.242188 101.785156 L -4.3125 100.84375 L 5.4375 93.046875 L 4.5625 91.953125 "/>
<path style=" stroke:none;fill-rule:nonzero;fill:rgb(0%,0%,0%);fill-opacity:1;" d="M 4.503906 74.503906 L -4.324219 83.332031 L -5.136719 82.167969 L -4.898438 84.898438 L -2.167969 85.136719 L -3.332031 84.324219 L 5.496094 75.496094 L 4.503906 74.503906 "/>
<path style=" stroke:none;fill-rule:nonzero;fill:rgb(0%,0%,0%);fill-opacity:1;" d="M 4.441406 57.082031 L -3.050781 67.066406 L -4.023438 66.03125 L -3.398438 68.699219 L -0.664062 68.550781 L -1.929688 67.90625 L 5.558594 57.917969 L 4.441406 57.082031 "/>
<path style=" stroke:none;fill-rule:nonzero;fill:rgb(0%,0%,0%);fill-opacity:1;" d="M 4.375 39.6875 L -1.210938 50.851562 L -2.351562 50.007812 L -1.261719 52.523438 L 1.40625 51.886719 L 0.0429688 51.480469 L 5.625 40.3125 L 4.375 39.6875 "/>
<path style=" stroke:none;fill-rule:nonzero;fill:rgb(0%,0%,0%);fill-opacity:1;" d="M 4.320312 22.328125 L 1.292969 34.441406 L -0.00390625 33.863281 L 1.605469 36.082031 L 4.070312 34.882812 L 2.652344 34.78125 L 5.679688 22.671875 L 4.320312 22.328125 "/>
<path style=" stroke:none;fill-rule:nonzero;fill:rgb(0%,0%,0%);fill-opacity:1;" d="M 4.300781 5 L 4.300781 17.484375 L 2.898438 17.238281 L 5 19 L 7.101562 17.238281 L 5.699219 17.484375 L 5.699219 5 L 4.300781 5 "/>
<path style=" stroke:none;fill-rule:nonzero;fill:rgb(0%,0%,0%);fill-opacity:1;" d="M 22.222656 144.355469 L 10.75 149.273438 L 10.425781 147.890625 L 9.632812 150.515625 L 12.078125 151.75 L 11.300781 150.5625 L 22.777344 145.644531 L 22.222656 144.355469 "/>
<path style=" stroke:none;fill-rule:nonzero;fill:rgb(0%,0%,0%);fill-opacity:1;" d="M 22.1875 126.875 L 11.019531 132.457031 L 10.613281 131.09375 L 9.976562 133.761719 L 12.492188 134.851562 L 11.648438 133.710938 L 22.8125 128.125 L 22.1875 126.875 "/>
<path style=" stroke:none;fill-rule:nonzero;fill:rgb(0%,0%,0%);fill-opacity:1;" d="M 22.140625 109.398438 L 11.433594 115.824219 L 10.925781 114.496094 L 10.496094 117.203125 L 13.085938 118.097656 L 12.15625 117.023438 L 22.859375 110.601562 L 22.140625 109.398438 "/>
<path style=" stroke:none;fill-rule:nonzero;fill:rgb(0%,0%,0%);fill-opacity:1;" d="M 22.082031 91.941406 L 12.09375 99.429688 L 11.449219 98.164062 L 11.300781 100.898438 L 13.96875 101.523438 L 12.933594 100.550781 L 22.917969 93.058594 L 22.082031 91.941406 "/>
<path style=" stroke:none;fill-rule:nonzero;fill:rgb(0%,0%,0%);fill-opacity:1;" d="M 22.003906 74.503906 L 13.175781 83.332031 L 12.363281 82.167969 L 12.601562 84.898438 L 15.332031 85.136719 L 14.167969 84.324219 L 22.996094 75.496094 L 22.003906 74.503906 "/>
<path style=" stroke:none;fill-rule:nonzero;fill:rgb(0%,0%,0%);fill-opacity:1;" d="M 21.917969 57.113281 L 15.757812 66.351562 L 14.730469 65.367188 L 15.5 68 L 18.222656 67.699219 L 16.921875 67.128906 L 23.082031 57.886719 L 21.917969 57.113281 "/>
<path style=" stroke:none;fill-rule:nonzero;fill:rgb(0%,0%,0%);fill-opacity:1;" d="M 21.835938 39.777344 L 18.816406 48.839844 L 17.566406 48.164062 L 19 50.5 L 21.550781 49.492188 L 20.144531 49.285156 L 23.164062 40.222656 L 21.835938 39.777344 "/>
<path style=" stroke:none;fill-rule:nonzero;fill:rgb(0%,0%,0%);fill-opacity:1;" d="M 21.800781 22.5 L 21.800781 31.484375 L 20.398438 31.238281 L 22.5 33 L 24.601562 31.238281 L 23.199219 31.484375 L 23.199219 22.5 L 21.800781 22.5 "/>
<path style=" stroke:none;fill-rule:nonzero;fill:rgb(0%,0%,0%);fill-opacity:1;" d="M 21.835938 5.222656 L 24.855469 14.285156 L 23.449219 14.492188 L 26 15.5 L 27.433594 13.164062 L 26.183594 13.839844 L 23.164062 4.777344 L 21.835938 5.222656 "/>
<path style=" stroke:none;fill-rule:nonzero;fill:rgb(0%,0%,0%);fill-opacity:1;" d="M 39.777344 144.335938 L 27.933594 148.285156 L 27.726562 146.878906 L 26.71875 149.425781 L 29.054688 150.863281 L 28.378906 149.613281 L 40.222656 145.664062 L 39.777344 144.335938 "/>
<path style=" stroke:none;fill-rule:nonzero;fill:rgb(0%,0%,0%);fill-opacity:1;" d="M 39.738281 126.851562 L 28.148438 131.488281 L 27.855469 130.09375 L 27 132.699219 L 29.417969 133.996094 L 28.667969 132.785156 L 40.261719 128.148438 L 39.738281 126.851562 "/>
<path style=" stroke:none;fill-rule:nonzero;fill:rgb(0%,0%,0%);fill-opacity:1;" d="M 39.6875 109.375 L 28.519531 114.957031 L 28.113281 113.59375 L 27.476562 116.261719 L 29.992188 117.351562 L 29.148438 116.210938 L 40.3125 110.625 L 39.6875 109.375 "/>
<path style=" stroke:none;fill-rule:nonzero;fill:rgb(0%,0%,0%);fill-opacity:1;" d="M 39.613281 91.917969 L 30.371094 98.078125 L 29.800781 96.777344 L 29.5 99.5 L 32.132812 100.269531 L 31.148438 99.242188 L 40.386719 93.082031 L 39.613281 91.917969 "/>
<path style=" stroke:none;fill-rule:nonzero;fill:rgb(0%,0%,0%);fill-opacity:1;" d="M 39.503906 74.503906 L 33.578125 80.433594 L 32.761719 79.269531 L 33 82 L 35.730469 82.238281 L 34.566406 81.421875 L 40.496094 75.496094 L 39.503906 74.503906 "/>
<path style=" stroke:none;fill-rule:nonzero;fill:rgb(0%,0%,0%);fill-opacity:1;" d="M 39.375 57.1875 L 36.550781 62.832031 L 35.410156 61.984375 L 36.5 64.5 L 39.167969 63.863281 L 37.804688 63.457031 L 40.625 57.8125 L 39.375 57.1875 "/>
<path style=" stroke:none;fill-rule:nonzero;fill:rgb(0%,0%,0%);fill-opacity:1;" d="M 39.300781 40 L 39.300781 45.484375 L 37.898438 45.238281 L 40 47 L 42.101562 45.238281 L 40.699219 45.484375 L 40.699219 40 L 39.300781 40 "/>
<path style=" stroke:none;fill-rule:nonzero;fill:rgb(0%,0%,0%);fill-opacity:1;" d="M 39.375 22.8125 L 42.195312 28.457031 L 40.832031 28.863281 L 43.5 29.5 L 44.589844 26.984375 L 43.449219 27.832031 L 40.625 22.1875 L 39.375 22.8125 "/>
<path style=" stroke:none;fill-rule:nonzero;fill:rgb(0%,0%,0%);fill-opacity:1;" d="M 39.503906 5.496094 L 45.433594 11.421875 L 44.269531 12.238281 L 47 12 L 47.238281 9.269531 L 46.421875 10.433594 L 40.496094 4.503906 L 39.503906 5.496094 "/>
<path style=" stroke:none;fill-rule:nonzero;fill:rgb(0%,0%,0%);fill-opacity:1;" d="M 57.363281 144.3125 L 45.121094 146.761719 L 45.089844 145.339844 L 43.773438 147.746094 L 45.910156 149.460938 L 45.394531 148.136719 L 57.636719 145.6875 L 57.363281 144.3125 "/>
<path style=" stroke:none;fill-rule:nonzero;fill:rgb(0%,0%,0%);fill-opacity:1;" d="M 57.332031 126.820312 L 45.21875 129.847656 L 45.117188 128.429688 L 43.917969 130.894531 L 46.136719 132.503906 L 45.558594 131.207031 L 57.667969 128.179688 L 57.332031 126.820312 "/>
<path style=" stroke:none;fill-rule:nonzero;fill:rgb(0%,0%,0%);fill-opacity:1;" d="M 57.277344 109.335938 L 48.214844 112.355469 L 48.007812 110.949219 L 47 113.5 L 49.335938 114.933594 L 48.660156 113.683594 L 57.722656 110.664062 L 57.277344 109.335938 "/>
<path style=" stroke:none;fill-rule:nonzero;fill:rgb(0%,0%,0%);fill-opacity:1;" d="M 57.1875 91.875 L 51.542969 94.695312 L 51.136719 93.332031 L 50.5 96 L 53.015625 97.089844 L 52.167969 95.949219 L 57.8125 93.125 L 57.1875 91.875 "/>
<path style=" stroke:none;fill-rule:nonzero;fill:rgb(0%,0%,0%);fill-opacity:1;" d="M 57.003906 74.503906 L 54.578125 76.933594 L 53.761719 75.769531 L 54 78.5 L 56.730469 78.738281 L 55.566406 77.921875 L 57.996094 75.496094 L 57.003906 74.503906 "/>
<path style=" stroke:none;fill-rule:nonzero;fill:rgb(0%,0%,0%);fill-opacity:1;" d="M 56.800781 57.5 L 56.800781 59.484375 L 55.398438 59.238281 L 57.5 61 L 59.601562 59.238281 L 58.199219 59.484375 L 58.199219 57.5 L 56.800781 57.5 "/>
<path style=" stroke:none;fill-rule:nonzero;fill:rgb(0%,0%,0%);fill-opacity:1;" d="M 57.003906 40.496094 L 59.433594 42.921875 L 58.269531 43.738281 L 61 43.5 L 61.238281 40.769531 L 60.421875 41.933594 L 57.996094 39.503906 L 57.003906 40.496094 "/>
<path style=" stroke:none;fill-rule:nonzero;fill:rgb(0%,0%,0%);fill-opacity:1;" d="M 57.1875 23.125 L 62.832031 25.949219 L 61.984375 27.089844 L 64.5 26 L 63.863281 23.335938 L 63.457031 24.695312 L 57.8125 21.875 L 57.1875 23.125 "/>
<path style=" stroke:none;fill-rule:nonzero;fill:rgb(0%,0%,0%);fill-opacity:1;" d="M 57.277344 5.664062 L 66.339844 8.683594 L 65.664062 9.933594 L 68 8.5 L 66.992188 5.949219 L 66.785156 7.355469 L 57.722656 4.335938 L 57.277344 5.664062 "/>
<path style=" stroke:none;fill-rule:nonzero;fill:rgb(0%,0%,0%);fill-opacity:1;" d="M 75 144.300781 L 62.515625 144.300781 L 62.761719 142.898438 L 61 145 L 62.761719 147.101562 L 62.515625 145.699219 L 75 145.699219 L 75 144.300781 "/>
<path style=" stroke:none;fill-rule:nonzero;fill:rgb(0%,0%,0%);fill-opacity:1;" d="M 75 126.800781 L 66.015625 126.800781 L 66.261719 125.398438 L 64.5 127.5 L 66.261719 129.601562 L 66.015625 128.199219 L 75 128.199219 L 75 126.800781 "/>
<path style=" stroke:none;fill-rule:nonzero;fill:rgb(0%,0%,0%);fill-opacity:1;" d="M 75 109.300781 L 69.515625 109.300781 L 69.761719 107.898438 L 68 110 L 69.761719 112.101562 L 69.515625 110.699219 L 75 110.699219 L 75 109.300781 "/>
<path style=" stroke:none;fill-rule:nonzero;fill:rgb(0%,0%,0%);fill-opacity:1;" d="M 75 91.800781 L 73.015625 91.800781 L 73.261719 90.398438 L 71.5 92.5 L 73.261719 94.601562 L 73.015625 93.199219 L 75 93.199219 L 75 91.800781 "/>
<path style=" stroke:none;fill-rule:nonzero;fill:rgb(0%,0%,0%);fill-opacity:1;" d="M 75 58.199219 L 76.984375 58.199219 L 76.738281 59.601562 L 78.5 57.5 L 76.738281 55.398438 L 76.984375 56.800781 L 75 56.800781 L 75 58.199219 "/>
<path style=" stroke:none;fill-rule:nonzero;fill:rgb(0%,0%,0%);fill-opacity:1;" d="M 75 40.699219 L 80.484375 40.699219 L 80.238281 42.101562 L 82 40 L 80.238281 37.898438 L 80.484375 39.300781 L 75 39.300781 L 75 40.699219 "/>
<path style=" stroke:none;fill-rule:nonzero;fill:rgb(0%,0%,0%);fill-opacity:1;" d="M 75 23.199219 L 83.984375 23.199219 L 83.738281 24.601562 L 85.5 22.5 L 83.738281 20.398438 L 83.984375 21.800781 L 75 21.800781 L 75 23.199219 "/>
<path style=" stroke:none;fill-rule:nonzero;fill:rgb(0%,0%,0%);fill-opacity:1;" d="M 75 5.699219 L 87.484375 5.699219 L 87.238281 7.101562 L 89 5 L 87.238281 2.898438 L 87.484375 4.300781 L 75 4.300781 L 75 5.699219 "/>
<path style=" stroke:none;fill-rule:nonzero;fill:rgb(0%,0%,0%);fill-opacity:1;" d="M 92.722656 144.335938 L 83.660156 141.316406 L 84.335938 140.066406 L 82 141.5 L 83.007812 144.050781 L 83.214844 142.644531 L 92.277344 145.664062 L 92.722656 144.335938 "/>
<path style=" stroke:none;fill-rule:nonzero;fill:rgb(0%,0%,0%);fill-opacity:1;" d="M 92.8125 126.875 L 87.167969 124.050781 L 88.015625 122.910156 L 85.5 124 L 86.136719 126.667969 L 86.542969 125.304688 L 92.1875 128.125 L 92.8125 126.875 "/>
<path style=" stroke:none;fill-rule:nonzero;fill:rgb(0%,0%,0%);fill-opacity:1;" d="M 92.996094 109.503906 L 90.566406 107.078125 L 91.730469 106.261719 L 89 106.5 L 88.761719 109.230469 L 89.578125 108.066406 L 92.003906 110.496094 L 92.996094 109.503906 "/>
<path style=" stroke:none;fill-rule:nonzero;fill:rgb(0%,0%,0%);fill-opacity:1;" d="M 93.199219 92.5 L 93.199219 90.515625 L 94.601562 90.761719 L 92.5 89 L 90.398438 90.761719 L 91.800781 90.515625 L 91.800781 92.5 L 93.199219 92.5 "/>
<path style=" stroke:none;fill-rule:nonzero;fill:rgb(0%,0%,0%);fill-opacity:1;" d="M 92.996094 75.496094 L 95.421875 73.066406 L 96.238281 74.230469 L 96 71.5 L 93.269531 71.261719 L 94.433594 72.078125 L 92.003906 74.503906 L 92.996094 75.496094 "/>
<path style=" stroke:none;fill-rule:nonzero;fill:rgb(0%,0%,0%);fill-opacity:1;" d="M 92.8125 58.125 L 98.457031 55.304688 L 98.863281 56.667969 L 99.5 54 L 96.984375 52.910156 L 97.832031 54.050781 L 92.1875 56.875 L 92.8125 58.125 "/>
<path style=" stroke:none;fill-rule:nonzero;fill:rgb(0%,0%,0%);fill-opacity:1;" d="M 92.722656 40.664062 L 101.785156 37.644531 L 101.992188 39.050781 L 103 36.5 L 100.664062 35.066406 L 101.339844 36.316406 L 92.277344 39.335938 L 92.722656 40.664062 "/>
<path style=" stroke:none;fill-rule:nonzero;fill:rgb(0%,0%,0%);fill-opacity:1;" d="M 92.667969 23.179688 L 104.78125 20.152344 L 104.882812 21.570312 L 106.082031 19.105469 L 103.863281 17.496094 L 104.441406 18.792969 L 92.332031 21.820312 L 92.667969 23.179688 "/>
<path style=" stroke:none;fill-rule:nonzero;fill:rgb(0%,0%,0%);fill-opacity:1;" d="M 92.636719 5.6875 L 104.878906 3.238281 L 104.910156 4.660156 L 106.226562 2.253906 L 104.089844 0.539062 L 104.605469 1.863281 L 92.363281 4.3125 L 92.636719 5.6875 "/>
<path style=" stroke:none;fill-rule:nonzero;fill:rgb(0%,0%,0%);fill-opacity:1;" d="M 110.496094 144.503906 L 104.566406 138.578125 L 105.730469 137.761719 L 103 138 L 102.761719 140.730469 L 103.578125 139.566406 L 109.503906 145.496094 L 110.496094 144.503906 "/>
<path style=" stroke:none;fill-rule:nonzero;fill:rgb(0%,0%,0%);fill-opacity:1;" d="M 110.625 127.1875 L 107.804688 121.542969 L 109.164062 121.136719 L 106.5 120.5 L 105.410156 123.015625 L 106.550781 122.167969 L 109.375 127.8125 L 110.625 127.1875 "/>
<path style=" stroke:none;fill-rule:nonzero;fill:rgb(0%,0%,0%);fill-opacity:1;" d="M 110.699219 110 L 110.699219 104.515625 L 112.101562 104.761719 L 110 103 L 107.898438 104.761719 L 109.300781 104.515625 L 109.300781 110 L 110.699219 110 "/>
<path style=" stroke:none;fill-rule:nonzero;fill:rgb(0%,0%,0%);fill-opacity:1;" d="M 110.625 92.8125 L 113.449219 87.167969 L 114.589844 88.015625 L 113.5 85.5 L 110.835938 86.136719 L 112.195312 86.542969 L 109.375 92.1875 L 110.625 92.8125 "/>
<path style=" stroke:none;fill-rule:nonzero;fill:rgb(0%,0%,0%);fill-opacity:1;" d="M 110.496094 75.496094 L 116.421875 69.566406 L 117.238281 70.730469 L 117 68 L 114.269531 67.761719 L 115.433594 68.578125 L 109.503906 74.503906 L 110.496094 75.496094 "/>
<path style=" stroke:none;fill-rule:nonzero;fill:rgb(0%,0%,0%);fill-opacity:1;" d="M 110.386719 58.082031 L 119.628906 51.921875 L 120.199219 53.222656 L 120.5 50.5 L 117.867188 49.730469 L 118.851562 50.757812 L 109.613281 56.917969 L 110.386719 58.082031 "/>
<path style=" stroke:none;fill-rule:nonzero;fill:rgb(0%,0%,0%);fill-opacity:1;" d="M 110.3125 40.625 L 121.480469 35.042969 L 121.886719 36.40625 L 122.523438 33.738281 L 120.007812 32.648438 L 120.855469 33.789062 L 109.6875 39.375 L 110.3125 40.625 "/>
<path style=" stroke:none;fill-rule:nonzero;fill:rgb(0%,0%,0%);fill-opacity:1;" d="M 110.261719 23.148438 L 121.851562 18.511719 L 122.144531 19.90625 L 123 17.300781 L 120.582031 16.003906 L 121.332031 17.214844 L 109.738281 21.851562 L 110.261719 23.148438 "/>
<path style=" stroke:none;fill-rule:nonzero;fill:rgb(0%,0%,0%);fill-opacity:1;" d="M 110.222656 5.664062 L 122.066406 1.714844 L 122.273438 3.121094 L 123.28125 0.574219 L 120.945312 -0.863281 L 121.621094 0.386719 L 109.777344 4.335938 L 110.222656 5.664062 "/>
<path style=" stroke:none;fill-rule:nonzero;fill:rgb(0%,0%,0%);fill-opacity:1;" d="M 128.164062 144.777344 L 125.144531 135.714844 L 126.550781 135.507812 L 124 134.5 L 122.566406 136.835938 L 123.816406 136.160156 L 126.835938 145.222656 L 128.164062 144.777344 "/>
<path style=" stroke:none;fill-rule:nonzero;fill:rgb(0%,0%,0%);fill-opacity:1;" d="M 128.199219 127.5 L 128.199219 118.515625 L 129.601562 118.761719 L 127.5 117 L 125.398438 118.761719 L 126.800781 118.515625 L 126.800781 127.5 L 128.199219 127.5 "/>
<path style=" stroke:none;fill-rule:nonzero;fill:rgb(0%,0%,0%);fill-opacity:1;" d="M 128.164062 110.222656 L 131.183594 101.160156 L 132.433594 101.835938 L 131 99.5 L 128.449219 100.507812 L 129.855469 100.714844 L 126.835938 109.777344 L 128.164062 110.222656 "/>
<path style=" stroke:none;fill-rule:nonzero;fill:rgb(0%,0%,0%);fill-opacity:1;" d="M 128.082031 92.886719 L 134.242188 83.648438 L 135.269531 84.632812 L 134.5 82 L 131.773438 82.300781 L 133.078125 82.871094 L 126.917969 92.113281 L 128.082031 92.886719 "/>
<path style=" stroke:none;fill-rule:nonzero;fill:rgb(0%,0%,0%);fill-opacity:1;" d="M 127.996094 75.496094 L 136.824219 66.667969 L 137.636719 67.832031 L 137.398438 65.101562 L 134.667969 64.863281 L 135.832031 65.675781 L 127.003906 74.503906 L 127.996094 75.496094 "/>
<path style=" stroke:none;fill-rule:nonzero;fill:rgb(0%,0%,0%);fill-opacity:1;" d="M 127.921875 58.058594 L 137.90625 50.570312 L 138.550781 51.835938 L 138.699219 49.101562 L 136.03125 48.476562 L 137.066406 49.449219 L 127.078125 56.941406 L 127.921875 58.058594 "/>
<path style=" stroke:none;fill-rule:nonzero;fill:rgb(0%,0%,0%);fill-opacity:1;" d="M 127.859375 40.601562 L 138.566406 34.175781 L 139.074219 35.503906 L 139.503906 32.796875 L 136.914062 31.902344 L 137.84375 32.976562 L 127.140625 39.398438 L 127.859375 40.601562 "/>
<path style=" stroke:none;fill-rule:nonzero;fill:rgb(0%,0%,0%);fill-opacity:1;" d="M 127.8125 23.125 L 138.980469 17.542969 L 139.386719 18.90625 L 140.023438 16.238281 L 137.507812 15.148438 L 138.355469 16.289062 L 127.1875 21.875 L 127.8125 23.125 "/>
<path style=" stroke:none;fill-rule:nonzero;fill:rgb(0%,0%,0%);fill-opacity:1;" d="M 127.777344 5.644531 L 139.25 0.726562 L 139.574219 2.109375 L 140.367188 -0.515625 L 137.921875 -1.75 L 138.699219 -0.5625 L 127.222656 4.355469 L 127.777344 5.644531 "/>
<path style=" stroke:none;fill-rule:nonzero;fill:rgb(0%,0%,0%);fill-opacity:1;" d="M 145.699219 145 L 145.699219 132.515625 L 147.101562 132.761719 L 145 131 L 142.898438 132.761719 L 144.300781 132.515625 L 144.300781 145 L 145.699219 145 "/>
<path style=" stroke:none;fill-rule:nonzero;fill:rgb(0%,0%,0%);fill-opacity:1;" d="M 145.679688 127.667969 L 148.707031 115.558594 L 150.003906 116.136719 L 148.394531 113.917969 L 145.929688 115.117188 L 147.347656 115.21875 L 144.320312 127.332031 L 145.679688 127.667969 "/>
<path style=" stroke:none;fill-rule:nonzero;fill:rgb(0%,0%,0%);fill-opacity:1;" d="M 145.625 110.3125 L 151.210938 99.148438 L 152.351562 99.992188 L 151.261719 97.476562 L 148.59375 98.113281 L 149.957031 98.519531 L 144.375 109.6875 L 145.625 110.3125 "/>
<path style=" stroke:none;fill-rule:nonzero;fill:rgb(0%,0%,0%);fill-opacity:1;" d="M 145.558594 92.917969 L 153.050781 82.933594 L 154.023438 83.96875 L 153.398438 81.300781 L 150.664062 81.449219 L 151.929688 82.09375 L 144.441406 92.082031 L 145.558594 92.917969 "/>
<path style=" stroke:none;fill-rule:nonzero;fill:rgb(0%,0%,0%);fill-opacity:1;" d="M 145.496094 75.496094 L 154.324219 66.667969 L 155.136719 67.832031 L 154.898438 65.101562 L 152.167969 64.863281 L 153.332031 65.675781 L 144.503906 74.503906 L 145.496094 75.496094 "/>
<path style=" stroke:none;fill-rule:nonzero;fill:rgb(0%,0%,0%);fill-opacity:1;" d="M 145.4375 58.046875 L 155.1875 50.246094 L 155.867188 51.496094 L 155.933594 48.753906 L 153.242188 48.214844 L 154.3125 49.152344 L 144.5625 56.953125 L 145.4375 58.046875 "/>
<path style=" stroke:none;fill-rule:nonzero;fill:rgb(0%,0%,0%);fill-opacity:1;" d="M 145.386719 40.582031 L 155.777344 33.65625 L 156.347656 34.960938 L 156.648438 32.234375 L 154.019531 31.464844 L 155 32.492188 L 144.613281 39.417969 L 145.386719 40.582031 "/>
<path style=" stroke:none;fill-rule:nonzero;fill:rgb(0%,0%,0%);fill-opacity:1;" d="M 145.347656 23.109375 L 156.1875 16.914062 L 156.667969 18.253906 L 157.15625 15.554688 L 154.585938 14.605469 L 155.492188 15.699219 L 144.652344 21.890625 L 145.347656 23.109375 "/>
<path style=" stroke:none;fill-rule:nonzero;fill:rgb(0%,0%,0%);fill-opacity:1;" d="M 145.3125 5.625 L 156.480469 0.0429688 L 156.886719 1.40625 L 157.523438 -1.261719 L 155.007812 -2.351562 L 155.855469 -1.210938 L 144.6875 4.375 L 145.3125 5.625 "/>
<path style=" stroke:none;fill-rule:nonzero;fill:rgb(100%,0%,0%);fill-opacity:1;" d="M 25 57.5 C 25 56.117188 23.882812 55 22.5 55 C 21.117188 55 20 56.117188 20 57.5 C 20 58.882812 21.117188 60 22.5 60 C 23.882812 60 25 58.882812 25 57.5 "/>
<path style="fill:none;stroke-width:10;stroke-linecap:butt;stroke-linejoin:miter;stroke:rgb(0%,0%,0%);stroke-opacity:1;stroke-miterlimit:10;" d="M 250 925 C 250 938.828125 238.828125 950 225 950 C 211.171875 950 200 938.828125 200 925 C 200 911.171875 211.171875 900 225 900 C 238.828125 900 250 911.171875 250 925 Z M 250 925 " transform="matrix(0.1,0,0,-0.1,0,150)"/>
<path style=" stroke:none;fill-rule:nonzero;fill:rgb(100%,0%,0%);fill-opacity:1;" d="M 77.5 127.5 C 77.5 126.117188 76.382812 125 75 125 C 73.617188 125 72.5 126.117188 72.5 127.5 C 72.5 128.882812 73.617188 130 75 130 C 76.382812 130 77.5 128.882812 77.5 127.5 "/>
<path style="fill:none;stroke-width:10;stroke-linecap:butt;stroke-linejoin:miter;stroke:rgb(0%,0%,0%);stroke-opacity:1;stroke-miterlimit:10;" d="M 775 225 C 775 238.828125 763.828125 250 750 250 C 736.171875 250 725 238.828125 725 225 C 725 211.171875 736.171875 200 750 200 C 763.828125 200 775 211.171875 775 225 Z M 775 225 " transform="matrix(0.1,0,0,-0.1,0,150)"/>
<path style=" stroke:none;fill-rule:nonzero;fill:rgb(100%,0%,0%);fill-opacity:1;" d="M 130 75 C 130 73.617188 128.882812 72.5 127.5 72.5 C 126.117188 72.5 125 73.617188 125 75 C 125 76.382812 126.117188 77.5 127.5 77.5 C 128.882812 77.5 130 76.382812 130 75 "/>
<path style="fill:none;stroke-width:10;stroke-linecap:butt;stroke-linejoin:miter;stroke:rgb(0%,0%,0%);stroke-opacity:1;stroke-miterlimit:10;" d="M 1300 750 C 1300 763.828125 1288.828125 775 1275 775 C 1261.171875 775 1250 763.828125 1250 750 C 1250 736.171875 1261.171875 725 1275 725 C 1288.828125 725 1300 736.171875 1300 750 Z M 1300 750 " transform="matrix(0.1,0,0,-0.1,0,150)"/>
<path style="fill:none;stroke-width:10;stroke-linecap:butt;stroke-linejoin:miter;stroke:rgb(0%,0%,0%);stroke-opacity:1;stroke-miterlimit:10;" d="M 0 0 L 1500 0 L 1500 1500 L 0 1500 Z M 0 0 " transform="matrix(0.1,0,0,-0.1,0,150)"/>
</g>
</svg>
