<?xml version="1.0" encoding="UTF-8" standalone="no"?>
<svg
   xmlns:dc="http://purl.org/dc/elements/1.1/"
   xmlns:cc="http://creativecommons.org/ns#"
   xmlns:rdf="http://www.w3.org/1999/02/22-rdf-syntax-ns#"
   xmlns:svg="http://www.w3.org/2000/svg"
   xmlns="http://www.w3.org/2000/svg"
   xmlns:sodipodi="http://sodipodi.sourceforge.net/DTD/sodipodi-0.dtd"
   xmlns:inkscape="http://www.inkscape.org/namespaces/inkscape"
   version="1.1"
   id="svg2"
   xml:space="preserve"
   width="226.66667"
   height="226.66667"
   viewBox="0 0 226.66667 226.66667"
   sodipodi:docname="fig_10_1_cont_contour.eps"><metadata
     id="metadata8"><rdf:RDF><cc:Work
         rdf:about=""><dc:format>image/svg+xml</dc:format><dc:type
           rdf:resource="http://purl.org/dc/dcmitype/StillImage" /></cc:Work></rdf:RDF></metadata><defs
     id="defs6"><clipPath
       clipPathUnits="userSpaceOnUse"
       id="clipPath64"><path
         d="M 200,200 H 1630 V 1630 H 200 Z"
         id="path62" /></clipPath></defs><sodipodi:namedview
     pagecolor="#ffffff"
     bordercolor="#666666"
     borderopacity="1"
     objecttolerance="10"
     gridtolerance="10"
     guidetolerance="10"
     inkscape:pageopacity="0"
     inkscape:pageshadow="2"
     inkscape:window-width="640"
     inkscape:window-height="480"
     id="namedview4" /><g
     id="g10"
     inkscape:groupmode="layer"
     inkscape:label="ink_ext_XXXXXX"
     transform="matrix(1.3333333,0,0,-1.3333333,0,226.66667)"><g
       id="g12"
       transform="scale(0.1)"><path
         d="M 200,200 V 1630 M 438.332,200 V 1630 M 676.668,200 V 1630 M 915,200 V 1630 M 1153.33,200 V 1630 M 1391.67,200 V 1630 M 1630,200 V 1630 M 200,200 H 1630 M 200,438.332 H 1630 M 200,676.668 H 1630 M 200,915 H 1630 M 200,1153.33 H 1630 M 200,1391.67 H 1630 M 200,1630 h 1430"
         style="fill:none;stroke:#cccccc;stroke-width:10;stroke-linecap:butt;stroke-linejoin:miter;stroke-miterlimit:10;stroke-dasharray:none;stroke-opacity:1"
         id="path14" /><path
         d="M 200,200 H 1630 M 200,200 V 1630"
         style="fill:none;stroke:#000000;stroke-width:10;stroke-linecap:butt;stroke-linejoin:miter;stroke-miterlimit:10;stroke-dasharray:none;stroke-opacity:1"
         id="path16" /><path
         d="m 200,200 h 1430 m -1430,0 v 1430 m 0,-1450 v 40"
         style="fill:none;stroke:#000000;stroke-width:10;stroke-linecap:butt;stroke-linejoin:miter;stroke-miterlimit:10;stroke-dasharray:none;stroke-opacity:1"
         id="path18" /><path
         d="M 200,200 H 1630 M 200,200 V 1630 M 438.332,180 v 40"
         style="fill:none;stroke:#000000;stroke-width:10;stroke-linecap:butt;stroke-linejoin:miter;stroke-miterlimit:10;stroke-dasharray:none;stroke-opacity:1"
         id="path20" /><path
         d="M 200,200 H 1630 M 200,200 V 1630 M 676.668,180 v 40"
         style="fill:none;stroke:#000000;stroke-width:10;stroke-linecap:butt;stroke-linejoin:miter;stroke-miterlimit:10;stroke-dasharray:none;stroke-opacity:1"
         id="path22" /><path
         d="M 200,200 H 1630 M 200,200 V 1630 M 915,180 v 40"
         style="fill:none;stroke:#000000;stroke-width:10;stroke-linecap:butt;stroke-linejoin:miter;stroke-miterlimit:10;stroke-dasharray:none;stroke-opacity:1"
         id="path24" /><path
         d="M 200,200 H 1630 M 200,200 V 1630 M 1153.33,180 v 40"
         style="fill:none;stroke:#000000;stroke-width:10;stroke-linecap:butt;stroke-linejoin:miter;stroke-miterlimit:10;stroke-dasharray:none;stroke-opacity:1"
         id="path26" /><path
         d="M 200,200 H 1630 M 200,200 V 1630 M 1391.67,180 v 40"
         style="fill:none;stroke:#000000;stroke-width:10;stroke-linecap:butt;stroke-linejoin:miter;stroke-miterlimit:10;stroke-dasharray:none;stroke-opacity:1"
         id="path28" /><path
         d="M 200,200 H 1630 M 200,200 V 1630 M 1630,180 v 40"
         style="fill:none;stroke:#000000;stroke-width:10;stroke-linecap:butt;stroke-linejoin:miter;stroke-miterlimit:10;stroke-dasharray:none;stroke-opacity:1"
         id="path30" /><path
         d="M 200,200 H 1630 M 200,200 V 1630 M 180,200 h 40"
         style="fill:none;stroke:#000000;stroke-width:10;stroke-linecap:butt;stroke-linejoin:miter;stroke-miterlimit:10;stroke-dasharray:none;stroke-opacity:1"
         id="path32" /><path
         d="M 200,200 H 1630 M 200,200 V 1630 M 180,438.332 h 40"
         style="fill:none;stroke:#000000;stroke-width:10;stroke-linecap:butt;stroke-linejoin:miter;stroke-miterlimit:10;stroke-dasharray:none;stroke-opacity:1"
         id="path34" /><path
         d="M 200,200 H 1630 M 200,200 V 1630 M 180,676.668 h 40"
         style="fill:none;stroke:#000000;stroke-width:10;stroke-linecap:butt;stroke-linejoin:miter;stroke-miterlimit:10;stroke-dasharray:none;stroke-opacity:1"
         id="path36" /><path
         d="M 200,200 H 1630 M 200,200 V 1630 M 180,915 h 40"
         style="fill:none;stroke:#000000;stroke-width:10;stroke-linecap:butt;stroke-linejoin:miter;stroke-miterlimit:10;stroke-dasharray:none;stroke-opacity:1"
         id="path38" /><path
         d="m 200,200 h 1430 m -1430,0 v 1430 m -20,-476.67 h 40"
         style="fill:none;stroke:#000000;stroke-width:10;stroke-linecap:butt;stroke-linejoin:miter;stroke-miterlimit:10;stroke-dasharray:none;stroke-opacity:1"
         id="path40" /><path
         d="m 200,200 h 1430 m -1430,0 v 1430 m -20,-238.33 h 40"
         style="fill:none;stroke:#000000;stroke-width:10;stroke-linecap:butt;stroke-linejoin:miter;stroke-miterlimit:10;stroke-dasharray:none;stroke-opacity:1"
         id="path42" /><path
         d="m 200,200 h 1430 m -1430,0 v 1430 m -20,0 h 40"
         style="fill:none;stroke:#000000;stroke-width:10;stroke-linecap:butt;stroke-linejoin:miter;stroke-miterlimit:10;stroke-dasharray:none;stroke-opacity:1"
         id="path44" /><g
         id="g46"
         transform="scale(10)"><text
           transform="matrix(1,0,0,-1,60.1879,7.2957)"
           style="font-variant:normal;font-weight:normal;font-size:12px;font-family:CMR12;-inkscape-font-specification:CMR12;writing-mode:lr-tb;fill:#000000;fill-opacity:1;fill-rule:nonzero;stroke:none"
           id="text56"><tspan
             x="0 5.868 9.1199999 47.666759 53.53476 56.786758 95.33316 101.20116 104.45316"
             y="0"
             sodipodi:role="line"
             id="tspan48">0.51.01.5</tspan><tspan
             x="-59.145699 -53.277699 -50.0257"
             y="-56.5187"
             sodipodi:role="line"
             id="tspan50">0.5</tspan><tspan
             x="-59.145699 -53.277699 -50.0257"
             y="-104.1855"
             sodipodi:role="line"
             id="tspan52">1.0</tspan><tspan
             x="-59.145699 -53.277699 -50.0257"
             y="-151.8519"
             sodipodi:role="line"
             id="tspan54">1.5</tspan></text></g><g
         id="g58"><g
           id="g60"
           clip-path="url(#clipPath64)"><path
             d="m 200,3060 v 0 l 14.301,-28.6 14.301,-28.6 14.296,-28.6 14.301,-28.6 14.301,-28.6 14.301,-28.6 14.301,-28.6 14.296,-28.6 14.301,-28.6 14.301,-28.6 14.301,-28.6 14.301,-28.6 14.296,-28.6 14.301,-28.6 14.301,-28.6 14.301,-28.6 14.301,-28.6 14.296,-28.6 14.301,-28.6 14.301,-28.6 14.301,-28.6 14.301,-28.6 14.296,-28.6 14.301,-28.6 14.301,-28.6 14.301,-28.6 14.301,-28.6 14.296,-28.6 14.301,-28.6 14.301,-28.6 14.301,-28.6 14.301,-28.6 14.296,-28.6 14.301,-28.6 14.301,-28.6 14.301,-28.6 14.301,-28.6 14.296,-28.6 14.301,-28.6 14.301,-28.6 14.301,-28.6 14.301,-28.6 14.296,-28.6 14.301,-28.6 14.301,-28.6 14.301,-28.6 14.301,-28.6 14.296,-28.6 14.301,-28.6 14.301,-28.6 14.301,-28.6 14.301,-28.6 14.296,-28.6 14.301,-28.6 14.301,-28.6 14.3,-28.6 14.3,-28.6 14.3,-28.6 14.3,-28.6 14.3,-28.6 14.3,-28.6 14.3,-28.6 14.3,-28.6 14.3,-28.6 14.3,-28.6 14.3,-28.6 14.3,-28.6 14.3,-28.6 14.3,-28.6 14.3,-28.6 14.3,-28.6 14.3,-28.6 14.3,-28.601 14.3,-28.597 14.3,-28.602 14.3,-28.602 14.3,-28.597 14.3,-28.602 14.3,-28.597 14.3,-28.602 14.3,-28.602 14.3,-28.597 14.3,-28.602 14.3,-28.597 14.3,-28.602 14.3,-28.602 14.3,-28.597 14.3,-28.602 14.3,-28.597 14.3,-28.602 14.3,-28.602 14.3,-28.597 14.3,-28.602 14.3,-28.597 14.3,-28.602 14.3,-28.602 14.3,-28.597 14.3,-28.602 14.3,-28.597 L 1630,200"
             style="fill:none;stroke:#8080ff;stroke-width:10;stroke-linecap:butt;stroke-linejoin:miter;stroke-miterlimit:10;stroke-dasharray:none;stroke-opacity:1"
             id="path66" /><path
             d="m 200,2583.33 v 0 l 14.301,-28.6 14.301,-28.6 14.296,-28.6 14.301,-28.6 14.301,-28.6 14.301,-28.6 14.301,-28.6 14.296,-28.6 14.301,-28.6 14.301,-28.6 14.301,-28.6 14.301,-28.6 14.296,-28.6 14.301,-28.6 14.301,-28.6 14.301,-28.6 14.301,-28.6 14.296,-28.6 14.301,-28.6 14.301,-28.6 14.301,-28.6 14.301,-28.6 14.296,-28.6 14.301,-28.6 14.301,-28.6 14.301,-28.6 14.301,-28.6 14.296,-28.6 14.301,-28.6 14.301,-28.6 14.301,-28.6 14.301,-28.6 14.296,-28.6 14.301,-28.6 14.301,-28.6 14.301,-28.6 14.301,-28.6 14.296,-28.6 14.301,-28.6 14.301,-28.6 14.301,-28.6 14.301,-28.6 14.296,-28.6 14.301,-28.6 14.301,-28.6 14.301,-28.6 14.301,-28.6 14.296,-28.6 14.301,-28.6 14.301,-28.6 14.301,-28.6 14.301,-28.6 14.296,-28.6 14.301,-28.6 14.301,-28.6 14.3,-28.596 14.3,-28.601 14.3,-28.598 14.3,-28.601 14.3,-28.602 14.3,-28.598 14.3,-28.601 14.3,-28.598 14.3,-28.601 14.3,-28.602 14.3,-28.598 14.3,-28.601 14.3,-28.598 14.3,-28.601 14.3,-28.602 14.3,-28.598 14.3,-28.601 14.3,-28.598 14.3,-28.601 14.3,-28.602 14.3,-28.598 14.3,-28.601 14.3,-28.598 14.3,-28.601 14.3,-28.602 14.3,-28.598 14.3,-28.601 14.3,-28.598 14.3,-28.601 14.3,-28.602 14.3,-28.598 14.3,-28.6012 14.3,-28.5976 14.3,-28.6016 14.3,-28.60157 14.3,-28.59763 14.3,-28.6016 14.3,-28.5976 14.3,-28.6012 14.3,-28.602 14.3,-28.598 14.3,-28.601 14.3,-28.598 14.3,-28.601 14.3,-28.602"
             style="fill:none;stroke:#9580ff;stroke-width:10;stroke-linecap:butt;stroke-linejoin:miter;stroke-miterlimit:10;stroke-dasharray:none;stroke-opacity:1"
             id="path68" /><path
             d="m 200,2106.67 v 0 l 14.301,-28.6 14.301,-28.6 14.296,-28.6 14.301,-28.6 14.301,-28.6 14.301,-28.6 14.301,-28.6 14.296,-28.6 14.301,-28.6 14.301,-28.6 14.301,-28.6 14.301,-28.6 14.296,-28.6 14.301,-28.6 14.301,-28.6 14.301,-28.6 14.301,-28.6 14.296,-28.6 14.301,-28.6 14.301,-28.6 14.301,-28.6 14.301,-28.6 14.296,-28.6 14.301,-28.6 14.301,-28.6 14.301,-28.6 14.301,-28.6 14.296,-28.6 14.301,-28.6 14.301,-28.6 14.301,-28.6 14.301,-28.6 14.296,-28.6 14.301,-28.6 14.301,-28.6 14.301,-28.6 14.301,-28.6 14.296,-28.6 14.301,-28.604 14.301,-28.598 14.301,-28.602 14.301,-28.601 14.296,-28.598 14.301,-28.601 14.301,-28.598 14.301,-28.602 14.301,-28.601 14.296,-28.598 14.301,-28.601 14.301,-28.598 14.301,-28.602 14.301,-28.601 14.296,-28.598 14.301,-28.601 14.301,-28.598 14.3,-28.602 14.3,-28.601 14.3,-28.598 14.3,-28.601 14.3,-28.598 14.3,-28.602 14.3,-28.601 14.3,-28.598 14.3,-28.601 14.3,-28.598 14.3,-28.602 14.3,-28.601 14.3,-28.598 14.3,-28.601 14.3,-28.598 14.3,-28.6016 14.3,-28.6016 14.3,-28.5976 14.3,-28.60158 14.3,-28.59762 14.3,-28.6016 14.3,-28.6016 14.3,-28.5978 14.3,-28.601 14.3,-28.598 14.3,-28.602 14.3,-28.601 14.3,-28.598 14.3,-28.601 14.3,-28.598 14.3,-28.602 14.3,-28.601 14.3,-28.598 14.3,-28.601 14.3,-28.598 14.3,-28.602 14.3,-28.601 14.3,-28.598 14.3,-28.601 14.3,-28.598 14.3,-28.602 14.3,-28.601 14.3,-28.598 14.3,-28.601 14.3,-28.598"
             style="fill:none;stroke:#aa80ff;stroke-width:10;stroke-linecap:butt;stroke-linejoin:miter;stroke-miterlimit:10;stroke-dasharray:none;stroke-opacity:1"
             id="path70" /><path
             d="m 200,1630 v 0 l 14.301,-28.6 14.301,-28.6 14.296,-28.6 14.301,-28.6 14.301,-28.6 14.301,-28.6 14.301,-28.6 14.296,-28.6 14.301,-28.6 14.301,-28.6 14.301,-28.6 14.301,-28.6 14.296,-28.6 14.301,-28.6 14.301,-28.6 14.301,-28.6 14.301,-28.6 14.296,-28.6 14.301,-28.6 14.301,-28.6 14.301,-28.6 14.301,-28.6 14.296,-28.601 14.301,-28.597 L 557.5,915 571.801,886.398 586.102,857.801 600.398,829.199 614.699,800.602 629,772 643.301,743.398 657.602,714.801 671.898,686.199 686.199,657.602 700.5,629 714.801,600.398 729.102,571.801 743.398,543.199 757.699,514.602 772,486 786.301,457.398 800.602,428.801 814.898,400.199 829.199,371.602 843.5,343 857.801,314.398 872.102,285.801 886.398,257.199 900.699,228.602 915,200 929.301,171.398 943.602,142.801 957.898,114.199 972.199,85.6016 986.5,57 1000.8,28.3984 1015.1,-0.199219 1029.4,-28.8008 1043.7,-57.3984 1058,-86 l 14.3,-28.602 14.3,-28.597 14.3,-28.602 14.3,-28.597 14.3,-28.602 14.3,-28.602 14.3,-28.597 14.3,-28.602 14.3,-28.597 14.3,-28.602 14.3,-28.602 14.3,-28.597 14.3,-28.602 14.3,-28.597 14.3,-28.602 14.3,-28.602 14.3,-28.597 14.3,-28.602 14.3,-28.597 14.3,-28.602 14.3,-28.602 14.3,-28.597 14.3,-28.602 14.3,-28.597 14.3,-28.602 14.3,-28.602 14.3,-28.597 14.3,-28.602 14.3,-28.597 14.3,-28.602 14.3,-28.602 14.3,-28.598 14.3,-28.6 14.3,-28.6 14.3,-28.6 14.3,-28.6 14.3,-28.6 14.3,-28.6 14.3,-28.6 14.3,-28.6"
             style="fill:none;stroke:#bf80ff;stroke-width:10;stroke-linecap:butt;stroke-linejoin:miter;stroke-miterlimit:10;stroke-dasharray:none;stroke-opacity:1"
             id="path72" /><path
             d="m 200,1153.33 v 0 l 14.301,-28.6 14.301,-28.6 14.296,-28.6 14.301,-28.6 14.301,-28.6 14.301,-28.596 14.301,-28.601 14.296,-28.598 14.301,-28.601 14.301,-28.602 14.301,-28.598 14.301,-28.601 14.296,-28.598 14.301,-28.601 14.301,-28.602 14.301,-28.598 14.301,-28.601 14.296,-28.598 14.301,-28.601 14.301,-28.602 14.301,-28.598 14.301,-28.601 14.296,-28.598 14.301,-28.601 14.301,-28.602 14.301,-28.598 14.301,-28.601 14.296,-28.598 14.301,-28.601 14.301,-28.602 14.301,-28.598 14.301,-28.601 14.296,-28.598 14.301,-28.601 L 700.5,152.332 714.801,123.734 729.102,95.1328 743.398,66.5352 757.699,37.9336 772,9.33203 l 14.301,-28.59763 14.301,-28.6016 14.296,-28.5976 14.301,-28.6012 14.301,-28.602 14.301,-28.598 14.301,-28.601 14.296,-28.598 14.301,-28.601 14.301,-28.602 14.301,-28.598 14.301,-28.601 14.296,-28.598 14.301,-28.601 14.301,-28.602 14.3,-28.598 14.3,-28.601 14.3,-28.598 14.3,-28.601 14.3,-28.602 14.3,-28.598 14.3,-28.601 14.3,-28.598 14.3,-28.601 14.3,-28.602 14.3,-28.598 14.3,-28.601 14.3,-28.598 14.3,-28.601 14.3,-28.602 14.3,-28.598 14.3,-28.601 14.3,-28.598 14.3,-28.601 14.3,-28.602 14.3,-28.602 14.3,-28.6 14.3,-28.6 14.3,-28.6 14.3,-28.6 14.3,-28.6 14.3,-28.6 14.3,-28.6 14.3,-28.6 14.3,-28.6 14.3,-28.6 14.3,-28.6 14.3,-28.6 14.3,-28.6 14.3,-28.6 14.3,-28.6 14.3,-28.6 14.3,-28.6 14.3,-28.6 14.3,-28.6 14.3,-28.6 14.3,-28.6 14.3,-28.6 14.3,-28.6 14.3,-28.6"
             style="fill:none;stroke:#d580ff;stroke-width:10;stroke-linecap:butt;stroke-linejoin:miter;stroke-miterlimit:10;stroke-dasharray:none;stroke-opacity:1"
             id="path74" /><path
             d="m 200,676.668 v 0 l 14.301,-28.602 14.301,-28.601 14.296,-28.598 14.301,-28.601 14.301,-28.598 14.301,-28.602 14.301,-28.601 14.296,-28.598 14.301,-28.601 14.301,-28.598 14.301,-28.602 14.301,-28.601 14.296,-28.598 14.301,-28.601 14.301,-28.598 14.301,-28.602 14.301,-28.601 14.296,-28.598 14.301,-28.601 L 486,104.668 500.301,76.0664 514.602,47.4648 528.898,18.8672 543.199,-9.73438 557.5,-38.332 l 14.301,-28.6016 14.301,-28.6016 14.296,-28.5978 14.301,-28.601 14.301,-28.598 14.301,-28.602 14.301,-28.601 14.296,-28.598 14.301,-28.601 14.301,-28.598 14.301,-28.602 14.301,-28.601 14.296,-28.598 14.301,-28.601 14.301,-28.598 14.301,-28.602 14.301,-28.601 14.296,-28.598 14.301,-28.601 14.301,-28.598 14.301,-28.602 14.301,-28.601 14.296,-28.598 14.301,-28.601 14.301,-28.598 14.301,-28.602 14.301,-28.601 14.296,-28.598 14.301,-28.601 14.301,-28.598 14.3,-28.602 14.3,-28.601 14.3,-28.598 14.3,-28.597 14.3,-28.6 14.3,-28.6 14.3,-28.6 14.3,-28.6 14.3,-28.6 14.3,-28.6 14.3,-28.6 14.3,-28.6 14.3,-28.6 14.3,-28.6 14.3,-28.6 14.3,-28.6 14.3,-28.6 14.3,-28.6 14.3,-28.6 14.3,-28.6 14.3,-28.6 14.3,-28.6 14.3,-28.6 14.3,-28.6 14.3,-28.6 14.3,-28.6 14.3,-28.6 14.3,-28.6 14.3,-28.6 14.3,-28.6 14.3,-28.6 14.3,-28.6 14.3,-28.6 14.3,-28.6 14.3,-28.6 14.3,-28.6 14.3,-28.6 14.3,-28.6 14.3,-28.6 14.3,-28.6 14.3,-28.6 14.3,-28.6 14.3,-28.6 14.3,-28.6 14.3,-28.6"
             style="fill:none;stroke:#ea80ff;stroke-width:10;stroke-linecap:butt;stroke-linejoin:miter;stroke-miterlimit:10;stroke-dasharray:none;stroke-opacity:1"
             id="path76" /><path
             d="m 200,200 v 0 l 14.301,-28.602 14.301,-28.597 14.296,-28.602 L 257.199,85.6016 271.5,57 285.801,28.3984 300.102,-0.199219 314.398,-28.8008 328.699,-57.3984 343,-86 l 14.301,-28.602 14.301,-28.597 14.296,-28.602 14.301,-28.597 14.301,-28.602 14.301,-28.602 14.301,-28.597 14.296,-28.602 14.301,-28.597 L 486,-372 l 14.301,-28.602 14.301,-28.597 14.296,-28.602 14.301,-28.597 14.301,-28.602 14.301,-28.602 14.301,-28.597 14.296,-28.602 14.301,-28.597 L 629,-658 l 14.301,-28.602 14.301,-28.597 14.296,-28.602 14.301,-28.597 14.301,-28.602 14.301,-28.602 14.301,-28.597 14.296,-28.602 14.301,-28.597 L 772,-944 l 14.301,-28.602 14.301,-28.598 14.296,-28.6 14.301,-28.6 14.301,-28.6 14.301,-28.6 14.301,-28.6 14.296,-28.6 14.301,-28.6 14.301,-28.6 14.301,-28.6 14.301,-28.6 14.296,-28.6 14.301,-28.6 14.301,-28.6 14.3,-28.6 14.3,-28.6 14.3,-28.6 14.3,-28.6 14.3,-28.6 14.3,-28.6 14.3,-28.6 14.3,-28.6 14.3,-28.6 14.3,-28.6 14.3,-28.6 14.3,-28.6 14.3,-28.6 14.3,-28.6 14.3,-28.6 14.3,-28.6 14.3,-28.6 14.3,-28.6 14.3,-28.6 14.3,-28.6 14.3,-28.6 14.3,-28.6 14.3,-28.6 14.3,-28.6 14.3,-28.6 14.3,-28.6 14.3,-28.6 14.3,-28.6 14.3,-28.6 14.3,-28.6 14.3,-28.6 14.3,-28.6 14.3,-28.6 14.3,-28.6 14.3,-28.6 14.3,-28.6 14.3,-28.6 14.3,-28.6 14.3,-28.6 14.3,-28.6 14.3,-28.6 14.3,-28.6 14.3,-28.6 14.3,-28.6 14.3,-28.6"
             style="fill:none;stroke:#ff80ff;stroke-width:10;stroke-linecap:butt;stroke-linejoin:miter;stroke-miterlimit:10;stroke-dasharray:none;stroke-opacity:1"
             id="path78" /><path
             d="m 1103.33,1103.33 h 100 v 100 h -100 z"
             style="fill:#ffffff;fill-opacity:1;fill-rule:nonzero;stroke:none"
             id="path80" /><g
             id="g82"
             transform="scale(10)"><text
               transform="matrix(1,0,0,-1,111.821,110.711)"
               style="font-variant:normal;font-weight:normal;font-size:14.4px;font-family:CMR12;-inkscape-font-specification:CMR12;writing-mode:lr-tb;fill:#000000;fill-opacity:1;fill-rule:nonzero;stroke:none"
               id="text86"><tspan
                 x="0"
                 y="0"
                 id="tspan84">0</tspan></text></g><path
             d="m 745.832,865 h 100 v 100 h -100 z"
             style="fill:#ffffff;fill-opacity:1;fill-rule:nonzero;stroke:none"
             id="path88" /><g
             id="g90"
             transform="scale(10)"><text
               transform="matrix(1,0,0,-1,76.0715,86.8773)"
               style="font-variant:normal;font-weight:normal;font-size:14.4px;font-family:CMR12;-inkscape-font-specification:CMR12;writing-mode:lr-tb;fill:#000000;fill-opacity:1;fill-rule:nonzero;stroke:none"
               id="text94"><tspan
                 x="0"
                 y="0"
                 id="tspan92">1</tspan></text></g><path
             d="m 388.332,626.668 h 100 v 100 h -100 z"
             style="fill:#ffffff;fill-opacity:1;fill-rule:nonzero;stroke:none"
             id="path96" /><g
             id="g98"
             transform="scale(10)"><text
               transform="matrix(1,0,0,-1,40.3215,63.0441)"
               style="font-variant:normal;font-weight:normal;font-size:14.4px;font-family:CMR12;-inkscape-font-specification:CMR12;writing-mode:lr-tb;fill:#000000;fill-opacity:1;fill-rule:nonzero;stroke:none"
               id="text102"><tspan
                 x="0"
                 y="0"
                 id="tspan100">2</tspan></text></g></g></g><g
         id="g104"
         transform="scale(10)"><text
           transform="matrix(1,0,0,-1,154.313,22.7)"
           style="font-variant:normal;font-weight:normal;font-size:10.8px;font-family:CMMI12;-inkscape-font-specification:CMMI12;writing-mode:lr-tb;fill:#000000;fill-opacity:1;fill-rule:nonzero;stroke:none"
           id="text110"><tspan
             x="0"
             y="0"
             id="tspan106">x</tspan><tspan
             x="-131.61301"
             y="-132.968"
             id="tspan108">y</tspan></text></g></g></g></svg>
